%TF.GenerationSoftware,KiCad,Pcbnew,(6.0.6)*%
%TF.CreationDate,2022-10-06T10:21:30+08:00*%
%TF.ProjectId,rm_foc_driver,726d5f66-6f63-45f6-9472-697665722e6b,rev?*%
%TF.SameCoordinates,Original*%
%TF.FileFunction,Legend,Top*%
%TF.FilePolarity,Positive*%
%FSLAX46Y46*%
G04 Gerber Fmt 4.6, Leading zero omitted, Abs format (unit mm)*
G04 Created by KiCad (PCBNEW (6.0.6)) date 2022-10-06 10:21:30*
%MOMM*%
%LPD*%
G01*
G04 APERTURE LIST*
%ADD10C,0.127000*%
%ADD11C,0.152400*%
%ADD12C,0.150000*%
%ADD13C,0.120000*%
G04 APERTURE END LIST*
D10*
X159853690Y-128811261D02*
X160216547Y-128811261D01*
X160035119Y-129446261D02*
X160035119Y-128811261D01*
X160367738Y-128811261D02*
X160791071Y-129446261D01*
X160791071Y-128811261D02*
X160367738Y-129446261D01*
X161032976Y-129446261D02*
X161032976Y-128811261D01*
X161184166Y-128811261D01*
X161274880Y-128841500D01*
X161335357Y-128901976D01*
X161365595Y-128962452D01*
X161395833Y-129083404D01*
X161395833Y-129174119D01*
X161365595Y-129295071D01*
X161335357Y-129355547D01*
X161274880Y-129416023D01*
X161184166Y-129446261D01*
X161032976Y-129446261D01*
X149404821Y-126612023D02*
X149795766Y-126111636D01*
X149683315Y-126599370D01*
X150129358Y-126372266D01*
X149738412Y-126872653D01*
X150462949Y-126632896D02*
X150558261Y-126707362D01*
X150587300Y-126768423D01*
X150597723Y-126853311D01*
X150547085Y-126967239D01*
X150416770Y-127134035D01*
X150318477Y-127210730D01*
X150233588Y-127221153D01*
X150167315Y-127207749D01*
X150072004Y-127133283D01*
X150042964Y-127072222D01*
X150032541Y-126987333D01*
X150083179Y-126873405D01*
X150213494Y-126706609D01*
X150311788Y-126629914D01*
X150396676Y-126619491D01*
X150462949Y-126632896D01*
X150495695Y-127425934D02*
X150548563Y-127505611D01*
X150667702Y-127598694D01*
X150733975Y-127612098D01*
X150776419Y-127606887D01*
X150837480Y-127577848D01*
X150874713Y-127530192D01*
X150888118Y-127463919D01*
X150882906Y-127421475D01*
X150853867Y-127360414D01*
X150777171Y-127262120D01*
X150748132Y-127201060D01*
X150742920Y-127158615D01*
X150756325Y-127092343D01*
X150793558Y-127044687D01*
X150854619Y-127015648D01*
X150897063Y-127010436D01*
X150963336Y-127023841D01*
X151082475Y-127116923D01*
X151135343Y-127196600D01*
X150977466Y-127840707D02*
X151368411Y-127340320D01*
X169548023Y-129385785D02*
X169517785Y-129416023D01*
X169427071Y-129446261D01*
X169366595Y-129446261D01*
X169275880Y-129416023D01*
X169215404Y-129355547D01*
X169185166Y-129295071D01*
X169154928Y-129174119D01*
X169154928Y-129083404D01*
X169185166Y-128962452D01*
X169215404Y-128901976D01*
X169275880Y-128841500D01*
X169366595Y-128811261D01*
X169427071Y-128811261D01*
X169517785Y-128841500D01*
X169548023Y-128871738D01*
X170122547Y-129446261D02*
X169820166Y-129446261D01*
X169820166Y-128811261D01*
X170334214Y-129446261D02*
X170334214Y-128811261D01*
X170697071Y-129446261D02*
X170424928Y-129083404D01*
X170697071Y-128811261D02*
X170334214Y-129174119D01*
X155091190Y-128841500D02*
X155030714Y-128811261D01*
X154940000Y-128811261D01*
X154849285Y-128841500D01*
X154788809Y-128901976D01*
X154758571Y-128962452D01*
X154728333Y-129083404D01*
X154728333Y-129174119D01*
X154758571Y-129295071D01*
X154788809Y-129355547D01*
X154849285Y-129416023D01*
X154940000Y-129446261D01*
X155000476Y-129446261D01*
X155091190Y-129416023D01*
X155121428Y-129385785D01*
X155121428Y-129174119D01*
X155000476Y-129174119D01*
X155393571Y-129446261D02*
X155393571Y-128811261D01*
X155756428Y-129446261D01*
X155756428Y-128811261D01*
X156058809Y-129446261D02*
X156058809Y-128811261D01*
X156210000Y-128811261D01*
X156300714Y-128841500D01*
X156361190Y-128901976D01*
X156391428Y-128962452D01*
X156421666Y-129083404D01*
X156421666Y-129174119D01*
X156391428Y-129295071D01*
X156361190Y-129355547D01*
X156300714Y-129416023D01*
X156210000Y-129446261D01*
X156058809Y-129446261D01*
X166902190Y-128841500D02*
X166841714Y-128811261D01*
X166751000Y-128811261D01*
X166660285Y-128841500D01*
X166599809Y-128901976D01*
X166569571Y-128962452D01*
X166539333Y-129083404D01*
X166539333Y-129174119D01*
X166569571Y-129295071D01*
X166599809Y-129355547D01*
X166660285Y-129416023D01*
X166751000Y-129446261D01*
X166811476Y-129446261D01*
X166902190Y-129416023D01*
X166932428Y-129385785D01*
X166932428Y-129174119D01*
X166811476Y-129174119D01*
X167204571Y-129446261D02*
X167204571Y-128811261D01*
X167567428Y-129446261D01*
X167567428Y-128811261D01*
X167869809Y-129446261D02*
X167869809Y-128811261D01*
X168021000Y-128811261D01*
X168111714Y-128841500D01*
X168172190Y-128901976D01*
X168202428Y-128962452D01*
X168232666Y-129083404D01*
X168232666Y-129174119D01*
X168202428Y-129295071D01*
X168172190Y-129355547D01*
X168111714Y-129416023D01*
X168021000Y-129446261D01*
X167869809Y-129446261D01*
X174159333Y-128811261D02*
X174371000Y-129446261D01*
X174582666Y-128811261D01*
X175157190Y-129385785D02*
X175126952Y-129416023D01*
X175036238Y-129446261D01*
X174975761Y-129446261D01*
X174885047Y-129416023D01*
X174824571Y-129355547D01*
X174794333Y-129295071D01*
X174764095Y-129174119D01*
X174764095Y-129083404D01*
X174794333Y-128962452D01*
X174824571Y-128901976D01*
X174885047Y-128841500D01*
X174975761Y-128811261D01*
X175036238Y-128811261D01*
X175126952Y-128841500D01*
X175157190Y-128871738D01*
X175792190Y-129385785D02*
X175761952Y-129416023D01*
X175671238Y-129446261D01*
X175610761Y-129446261D01*
X175520047Y-129416023D01*
X175459571Y-129355547D01*
X175429333Y-129295071D01*
X175399095Y-129174119D01*
X175399095Y-129083404D01*
X175429333Y-128962452D01*
X175459571Y-128901976D01*
X175520047Y-128841500D01*
X175610761Y-128811261D01*
X175671238Y-128811261D01*
X175761952Y-128841500D01*
X175792190Y-128871738D01*
D11*
X177945142Y-126201714D02*
X178199142Y-126963714D01*
X178453142Y-126201714D01*
X178707142Y-126564571D02*
X178961142Y-126564571D01*
X179070000Y-126963714D02*
X178707142Y-126963714D01*
X178707142Y-126201714D01*
X179070000Y-126201714D01*
X179832000Y-126963714D02*
X179578000Y-126600857D01*
X179396571Y-126963714D02*
X179396571Y-126201714D01*
X179686857Y-126201714D01*
X179759428Y-126238000D01*
X179795714Y-126274285D01*
X179832000Y-126346857D01*
X179832000Y-126455714D01*
X179795714Y-126528285D01*
X179759428Y-126564571D01*
X179686857Y-126600857D01*
X179396571Y-126600857D01*
X180086000Y-126201714D02*
X180557714Y-126201714D01*
X180303714Y-126492000D01*
X180412571Y-126492000D01*
X180485142Y-126528285D01*
X180521428Y-126564571D01*
X180557714Y-126637142D01*
X180557714Y-126818571D01*
X180521428Y-126891142D01*
X180485142Y-126927428D01*
X180412571Y-126963714D01*
X180194857Y-126963714D01*
X180122285Y-126927428D01*
X180086000Y-126891142D01*
X180884285Y-126891142D02*
X180920571Y-126927428D01*
X180884285Y-126963714D01*
X180848000Y-126927428D01*
X180884285Y-126891142D01*
X180884285Y-126963714D01*
X181392285Y-126201714D02*
X181464857Y-126201714D01*
X181537428Y-126238000D01*
X181573714Y-126274285D01*
X181610000Y-126346857D01*
X181646285Y-126492000D01*
X181646285Y-126673428D01*
X181610000Y-126818571D01*
X181573714Y-126891142D01*
X181537428Y-126927428D01*
X181464857Y-126963714D01*
X181392285Y-126963714D01*
X181319714Y-126927428D01*
X181283428Y-126891142D01*
X181247142Y-126818571D01*
X181210857Y-126673428D01*
X181210857Y-126492000D01*
X181247142Y-126346857D01*
X181283428Y-126274285D01*
X181319714Y-126238000D01*
X181392285Y-126201714D01*
D10*
X145502405Y-123397893D02*
X145555273Y-123477571D01*
X145674412Y-123570653D01*
X145740685Y-123584058D01*
X145783129Y-123578846D01*
X145844190Y-123549807D01*
X145881423Y-123502151D01*
X145894828Y-123435879D01*
X145889616Y-123393434D01*
X145860577Y-123332373D01*
X145783881Y-123234080D01*
X145754842Y-123173019D01*
X145749630Y-123130575D01*
X145763035Y-123064302D01*
X145800268Y-123016646D01*
X145861329Y-122987607D01*
X145903773Y-122982395D01*
X145970046Y-122995800D01*
X146089185Y-123088882D01*
X146142053Y-123168560D01*
X146307344Y-123988408D02*
X146264900Y-123993619D01*
X146174799Y-123961598D01*
X146127143Y-123924365D01*
X146074276Y-123844688D01*
X146063853Y-123759799D01*
X146077258Y-123693527D01*
X146127896Y-123579598D01*
X146183745Y-123508115D01*
X146282039Y-123431419D01*
X146343099Y-123402380D01*
X146427988Y-123391957D01*
X146518088Y-123423978D01*
X146565744Y-123461211D01*
X146618612Y-123540888D01*
X146623823Y-123583333D01*
X146484563Y-124203611D02*
X146875508Y-123703225D01*
X146770498Y-124427009D02*
X146779444Y-123973525D01*
X147161443Y-123926622D02*
X146652110Y-123989160D01*
X143556699Y-121847387D02*
X143514255Y-121852599D01*
X143424154Y-121820577D01*
X143376498Y-121783345D01*
X143323631Y-121703667D01*
X143313208Y-121618779D01*
X143326613Y-121552506D01*
X143377251Y-121438578D01*
X143433100Y-121367094D01*
X143531394Y-121290399D01*
X143592455Y-121261359D01*
X143677343Y-121250936D01*
X143767444Y-121282958D01*
X143815099Y-121320191D01*
X143867967Y-121399868D01*
X143873178Y-121442312D01*
X143728706Y-122020147D02*
X143781574Y-122099824D01*
X143900713Y-122192906D01*
X143966986Y-122206311D01*
X144009430Y-122201099D01*
X144070491Y-122172060D01*
X144107724Y-122124404D01*
X144121129Y-122058132D01*
X144115917Y-122015687D01*
X144086878Y-121954627D01*
X144010182Y-121856333D01*
X143981143Y-121795272D01*
X143975931Y-121752828D01*
X143989336Y-121686555D01*
X144026569Y-121638900D01*
X144087630Y-121609860D01*
X144130074Y-121604649D01*
X144196347Y-121618053D01*
X144315486Y-121711136D01*
X144368354Y-121790813D01*
X144540361Y-121963572D02*
X144582805Y-121958361D01*
X144649077Y-121971766D01*
X144768217Y-122064848D01*
X144797257Y-122125909D01*
X144802468Y-122168353D01*
X144789063Y-122234625D01*
X144751830Y-122282281D01*
X144672153Y-122335149D01*
X144162821Y-122397687D01*
X144472584Y-122639700D01*
X147372821Y-124834023D02*
X147763766Y-124333636D01*
X147651315Y-124821370D01*
X148097358Y-124594266D01*
X147706412Y-125094653D01*
X147944692Y-125280817D02*
X148335637Y-124780430D01*
X148177760Y-125424537D02*
X148230627Y-125504214D01*
X148349767Y-125597296D01*
X148416039Y-125610701D01*
X148458484Y-125605490D01*
X148519544Y-125576450D01*
X148556777Y-125528794D01*
X148570182Y-125462522D01*
X148564971Y-125420078D01*
X148535931Y-125359017D01*
X148459236Y-125260723D01*
X148430196Y-125199663D01*
X148424985Y-125157218D01*
X148438390Y-125090946D01*
X148475623Y-125043290D01*
X148536684Y-125014250D01*
X148579128Y-125009039D01*
X148645400Y-125022444D01*
X148764540Y-125115526D01*
X148817407Y-125195203D01*
X149145787Y-125413389D02*
X149241099Y-125487855D01*
X149270138Y-125548915D01*
X149280561Y-125633804D01*
X149229924Y-125747732D01*
X149099609Y-125914528D01*
X149001315Y-125991223D01*
X148916426Y-126001646D01*
X148850154Y-125988241D01*
X148754842Y-125913776D01*
X148725803Y-125852715D01*
X148715380Y-125767826D01*
X148766017Y-125653898D01*
X148896332Y-125487102D01*
X148994626Y-125410407D01*
X149079515Y-125399984D01*
X149145787Y-125413389D01*
X171815880Y-129446261D02*
X171815880Y-128811261D01*
X171967071Y-128811261D01*
X172057785Y-128841500D01*
X172118261Y-128901976D01*
X172148500Y-128962452D01*
X172178738Y-129083404D01*
X172178738Y-129174119D01*
X172148500Y-129295071D01*
X172118261Y-129355547D01*
X172057785Y-129416023D01*
X171967071Y-129446261D01*
X171815880Y-129446261D01*
X172450880Y-129446261D02*
X172450880Y-128811261D01*
X172874214Y-128811261D02*
X172995166Y-128811261D01*
X173055642Y-128841500D01*
X173116119Y-128901976D01*
X173146357Y-129022928D01*
X173146357Y-129234595D01*
X173116119Y-129355547D01*
X173055642Y-129416023D01*
X172995166Y-129446261D01*
X172874214Y-129446261D01*
X172813738Y-129416023D01*
X172753261Y-129355547D01*
X172723023Y-129234595D01*
X172723023Y-129022928D01*
X172753261Y-128901976D01*
X172813738Y-128841500D01*
X172874214Y-128811261D01*
D11*
X177908857Y-127671285D02*
X177945142Y-127635000D01*
X178017714Y-127598714D01*
X178199142Y-127598714D01*
X178271714Y-127635000D01*
X178308000Y-127671285D01*
X178344285Y-127743857D01*
X178344285Y-127816428D01*
X178308000Y-127925285D01*
X177872571Y-128360714D01*
X178344285Y-128360714D01*
X178816000Y-127598714D02*
X178888571Y-127598714D01*
X178961142Y-127635000D01*
X178997428Y-127671285D01*
X179033714Y-127743857D01*
X179070000Y-127889000D01*
X179070000Y-128070428D01*
X179033714Y-128215571D01*
X178997428Y-128288142D01*
X178961142Y-128324428D01*
X178888571Y-128360714D01*
X178816000Y-128360714D01*
X178743428Y-128324428D01*
X178707142Y-128288142D01*
X178670857Y-128215571D01*
X178634571Y-128070428D01*
X178634571Y-127889000D01*
X178670857Y-127743857D01*
X178707142Y-127671285D01*
X178743428Y-127635000D01*
X178816000Y-127598714D01*
X179360285Y-127671285D02*
X179396571Y-127635000D01*
X179469142Y-127598714D01*
X179650571Y-127598714D01*
X179723142Y-127635000D01*
X179759428Y-127671285D01*
X179795714Y-127743857D01*
X179795714Y-127816428D01*
X179759428Y-127925285D01*
X179324000Y-128360714D01*
X179795714Y-128360714D01*
X180086000Y-127671285D02*
X180122285Y-127635000D01*
X180194857Y-127598714D01*
X180376285Y-127598714D01*
X180448857Y-127635000D01*
X180485142Y-127671285D01*
X180521428Y-127743857D01*
X180521428Y-127816428D01*
X180485142Y-127925285D01*
X180049714Y-128360714D01*
X180521428Y-128360714D01*
X181392285Y-127562428D02*
X180739142Y-128542142D01*
X182045428Y-128360714D02*
X181610000Y-128360714D01*
X181827714Y-128360714D02*
X181827714Y-127598714D01*
X181755142Y-127707571D01*
X181682571Y-127780142D01*
X181610000Y-127816428D01*
X182517142Y-127598714D02*
X182589714Y-127598714D01*
X182662285Y-127635000D01*
X182698571Y-127671285D01*
X182734857Y-127743857D01*
X182771142Y-127889000D01*
X182771142Y-128070428D01*
X182734857Y-128215571D01*
X182698571Y-128288142D01*
X182662285Y-128324428D01*
X182589714Y-128360714D01*
X182517142Y-128360714D01*
X182444571Y-128324428D01*
X182408285Y-128288142D01*
X182372000Y-128215571D01*
X182335714Y-128070428D01*
X182335714Y-127889000D01*
X182372000Y-127743857D01*
X182408285Y-127671285D01*
X182444571Y-127635000D01*
X182517142Y-127598714D01*
X183642000Y-127562428D02*
X182988857Y-128542142D01*
X183823428Y-127598714D02*
X184295142Y-127598714D01*
X184041142Y-127889000D01*
X184150000Y-127889000D01*
X184222571Y-127925285D01*
X184258857Y-127961571D01*
X184295142Y-128034142D01*
X184295142Y-128215571D01*
X184258857Y-128288142D01*
X184222571Y-128324428D01*
X184150000Y-128360714D01*
X183932285Y-128360714D01*
X183859714Y-128324428D01*
X183823428Y-128288142D01*
D10*
X157691666Y-129446261D02*
X157480000Y-129143880D01*
X157328809Y-129446261D02*
X157328809Y-128811261D01*
X157570714Y-128811261D01*
X157631190Y-128841500D01*
X157661428Y-128871738D01*
X157691666Y-128932214D01*
X157691666Y-129022928D01*
X157661428Y-129083404D01*
X157631190Y-129113642D01*
X157570714Y-129143880D01*
X157328809Y-129143880D01*
X157903333Y-128811261D02*
X158326666Y-129446261D01*
X158326666Y-128811261D02*
X157903333Y-129446261D01*
X158568571Y-129446261D02*
X158568571Y-128811261D01*
X158719761Y-128811261D01*
X158810476Y-128841500D01*
X158870952Y-128901976D01*
X158901190Y-128962452D01*
X158931428Y-129083404D01*
X158931428Y-129174119D01*
X158901190Y-129295071D01*
X158870952Y-129355547D01*
X158810476Y-129416023D01*
X158719761Y-129446261D01*
X158568571Y-129446261D01*
D12*
X131723047Y-99004380D02*
X131723047Y-98004380D01*
X132104000Y-98004380D01*
X132199238Y-98052000D01*
X132246857Y-98099619D01*
X132294476Y-98194857D01*
X132294476Y-98337714D01*
X132246857Y-98432952D01*
X132199238Y-98480571D01*
X132104000Y-98528190D01*
X131723047Y-98528190D01*
X132627809Y-98004380D02*
X132865904Y-99004380D01*
X133056380Y-98290095D01*
X133246857Y-99004380D01*
X133484952Y-98004380D01*
X133865904Y-99004380D02*
X133865904Y-98004380D01*
X134199238Y-98718666D01*
X134532571Y-98004380D01*
X134532571Y-99004380D01*
X134961142Y-98099619D02*
X135008761Y-98052000D01*
X135104000Y-98004380D01*
X135342095Y-98004380D01*
X135437333Y-98052000D01*
X135484952Y-98099619D01*
X135532571Y-98194857D01*
X135532571Y-98290095D01*
X135484952Y-98432952D01*
X134913523Y-99004380D01*
X135532571Y-99004380D01*
X131723047Y-96464380D02*
X131723047Y-95464380D01*
X132104000Y-95464380D01*
X132199238Y-95512000D01*
X132246857Y-95559619D01*
X132294476Y-95654857D01*
X132294476Y-95797714D01*
X132246857Y-95892952D01*
X132199238Y-95940571D01*
X132104000Y-95988190D01*
X131723047Y-95988190D01*
X132627809Y-95464380D02*
X132865904Y-96464380D01*
X133056380Y-95750095D01*
X133246857Y-96464380D01*
X133484952Y-95464380D01*
X133865904Y-96464380D02*
X133865904Y-95464380D01*
X134199238Y-96178666D01*
X134532571Y-95464380D01*
X134532571Y-96464380D01*
X134913523Y-95464380D02*
X135532571Y-95464380D01*
X135199238Y-95845333D01*
X135342095Y-95845333D01*
X135437333Y-95892952D01*
X135484952Y-95940571D01*
X135532571Y-96035809D01*
X135532571Y-96273904D01*
X135484952Y-96369142D01*
X135437333Y-96416761D01*
X135342095Y-96464380D01*
X135056380Y-96464380D01*
X134961142Y-96416761D01*
X134913523Y-96369142D01*
X131723047Y-101544380D02*
X131723047Y-100544380D01*
X132104000Y-100544380D01*
X132199238Y-100592000D01*
X132246857Y-100639619D01*
X132294476Y-100734857D01*
X132294476Y-100877714D01*
X132246857Y-100972952D01*
X132199238Y-101020571D01*
X132104000Y-101068190D01*
X131723047Y-101068190D01*
X132627809Y-100544380D02*
X132865904Y-101544380D01*
X133056380Y-100830095D01*
X133246857Y-101544380D01*
X133484952Y-100544380D01*
X133865904Y-101544380D02*
X133865904Y-100544380D01*
X134199238Y-101258666D01*
X134532571Y-100544380D01*
X134532571Y-101544380D01*
X135532571Y-101544380D02*
X134961142Y-101544380D01*
X135246857Y-101544380D02*
X135246857Y-100544380D01*
X135151619Y-100687238D01*
X135056380Y-100782476D01*
X134961142Y-100830095D01*
X133350095Y-92972000D02*
X133254857Y-92924380D01*
X133112000Y-92924380D01*
X132969142Y-92972000D01*
X132873904Y-93067238D01*
X132826285Y-93162476D01*
X132778666Y-93352952D01*
X132778666Y-93495809D01*
X132826285Y-93686285D01*
X132873904Y-93781523D01*
X132969142Y-93876761D01*
X133112000Y-93924380D01*
X133207238Y-93924380D01*
X133350095Y-93876761D01*
X133397714Y-93829142D01*
X133397714Y-93495809D01*
X133207238Y-93495809D01*
X133826285Y-93924380D02*
X133826285Y-92924380D01*
X134397714Y-93924380D01*
X134397714Y-92924380D01*
X134873904Y-93924380D02*
X134873904Y-92924380D01*
X135112000Y-92924380D01*
X135254857Y-92972000D01*
X135350095Y-93067238D01*
X135397714Y-93162476D01*
X135445333Y-93352952D01*
X135445333Y-93495809D01*
X135397714Y-93686285D01*
X135350095Y-93781523D01*
X135254857Y-93876761D01*
X135112000Y-93924380D01*
X134873904Y-93924380D01*
D11*
X178326142Y-125276428D02*
X178253571Y-125312714D01*
X178108428Y-125312714D01*
X178035857Y-125276428D01*
X177999571Y-125240142D01*
X177963285Y-125167571D01*
X177963285Y-124949857D01*
X177999571Y-124877285D01*
X178035857Y-124841000D01*
X178108428Y-124804714D01*
X178253571Y-124804714D01*
X178326142Y-124841000D01*
X178580142Y-124804714D02*
X178761571Y-125312714D01*
X178943000Y-124804714D02*
X178761571Y-125312714D01*
X178689000Y-125494142D01*
X178652714Y-125530428D01*
X178580142Y-125566714D01*
X179342142Y-125312714D02*
X179269571Y-125276428D01*
X179233285Y-125203857D01*
X179233285Y-124550714D01*
X179777571Y-124550714D02*
X179850142Y-124550714D01*
X179922714Y-124587000D01*
X179959000Y-124623285D01*
X179995285Y-124695857D01*
X180031571Y-124841000D01*
X180031571Y-125022428D01*
X179995285Y-125167571D01*
X179959000Y-125240142D01*
X179922714Y-125276428D01*
X179850142Y-125312714D01*
X179777571Y-125312714D01*
X179705000Y-125276428D01*
X179668714Y-125240142D01*
X179632428Y-125167571D01*
X179596142Y-125022428D01*
X179596142Y-124841000D01*
X179632428Y-124695857D01*
X179668714Y-124623285D01*
X179705000Y-124587000D01*
X179777571Y-124550714D01*
X180684714Y-124804714D02*
X180684714Y-125312714D01*
X180503285Y-124514428D02*
X180321857Y-125058714D01*
X180793571Y-125058714D01*
X181483000Y-125312714D02*
X181047571Y-125312714D01*
X181265285Y-125312714D02*
X181265285Y-124550714D01*
X181192714Y-124659571D01*
X181120142Y-124732142D01*
X181047571Y-124768428D01*
X182208714Y-125312714D02*
X181773285Y-125312714D01*
X181991000Y-125312714D02*
X181991000Y-124550714D01*
X181918428Y-124659571D01*
X181845857Y-124732142D01*
X181773285Y-124768428D01*
D10*
X162378571Y-129204357D02*
X162862380Y-129204357D01*
X162620476Y-129446261D02*
X162620476Y-128962452D01*
X163467142Y-128811261D02*
X163164761Y-128811261D01*
X163134523Y-129113642D01*
X163164761Y-129083404D01*
X163225238Y-129053166D01*
X163376428Y-129053166D01*
X163436904Y-129083404D01*
X163467142Y-129113642D01*
X163497380Y-129174119D01*
X163497380Y-129325309D01*
X163467142Y-129385785D01*
X163436904Y-129416023D01*
X163376428Y-129446261D01*
X163225238Y-129446261D01*
X163164761Y-129416023D01*
X163134523Y-129385785D01*
X163678809Y-128811261D02*
X163890476Y-129446261D01*
X164102142Y-128811261D01*
D11*
X177908857Y-123788714D02*
X177908857Y-123026714D01*
X178090285Y-123026714D01*
X178199142Y-123063000D01*
X178271714Y-123135571D01*
X178308000Y-123208142D01*
X178344285Y-123353285D01*
X178344285Y-123462142D01*
X178308000Y-123607285D01*
X178271714Y-123679857D01*
X178199142Y-123752428D01*
X178090285Y-123788714D01*
X177908857Y-123788714D01*
X178598285Y-123280714D02*
X178779714Y-123788714D01*
X178961142Y-123280714D02*
X178779714Y-123788714D01*
X178707142Y-123970142D01*
X178670857Y-124006428D01*
X178598285Y-124042714D01*
X179251428Y-123280714D02*
X179251428Y-123788714D01*
X179251428Y-123353285D02*
X179287714Y-123317000D01*
X179360285Y-123280714D01*
X179469142Y-123280714D01*
X179541714Y-123317000D01*
X179578000Y-123389571D01*
X179578000Y-123788714D01*
X180267428Y-123788714D02*
X180267428Y-123389571D01*
X180231142Y-123317000D01*
X180158571Y-123280714D01*
X180013428Y-123280714D01*
X179940857Y-123317000D01*
X180267428Y-123752428D02*
X180194857Y-123788714D01*
X180013428Y-123788714D01*
X179940857Y-123752428D01*
X179904571Y-123679857D01*
X179904571Y-123607285D01*
X179940857Y-123534714D01*
X180013428Y-123498428D01*
X180194857Y-123498428D01*
X180267428Y-123462142D01*
X180630285Y-123788714D02*
X180630285Y-123280714D01*
X180630285Y-123353285D02*
X180666571Y-123317000D01*
X180739142Y-123280714D01*
X180848000Y-123280714D01*
X180920571Y-123317000D01*
X180956857Y-123389571D01*
X180956857Y-123788714D01*
X180956857Y-123389571D02*
X180993142Y-123317000D01*
X181065714Y-123280714D01*
X181174571Y-123280714D01*
X181247142Y-123317000D01*
X181283428Y-123389571D01*
X181283428Y-123788714D01*
X181646285Y-123788714D02*
X181646285Y-123280714D01*
X181646285Y-123026714D02*
X181610000Y-123063000D01*
X181646285Y-123099285D01*
X181682571Y-123063000D01*
X181646285Y-123026714D01*
X181646285Y-123099285D01*
X182335714Y-123752428D02*
X182263142Y-123788714D01*
X182118000Y-123788714D01*
X182045428Y-123752428D01*
X182009142Y-123716142D01*
X181972857Y-123643571D01*
X181972857Y-123425857D01*
X182009142Y-123353285D01*
X182045428Y-123317000D01*
X182118000Y-123280714D01*
X182263142Y-123280714D01*
X182335714Y-123317000D01*
X182589714Y-123026714D02*
X183097714Y-123788714D01*
X183097714Y-123026714D02*
X182589714Y-123788714D01*
D12*
%TO.C,Q5*%
X165591619Y-87217238D02*
X165544000Y-87312476D01*
X165448761Y-87407714D01*
X165305904Y-87550571D01*
X165258285Y-87645809D01*
X165258285Y-87741047D01*
X165496380Y-87693428D02*
X165448761Y-87788666D01*
X165353523Y-87883904D01*
X165163047Y-87931523D01*
X164829714Y-87931523D01*
X164639238Y-87883904D01*
X164544000Y-87788666D01*
X164496380Y-87693428D01*
X164496380Y-87502952D01*
X164544000Y-87407714D01*
X164639238Y-87312476D01*
X164829714Y-87264857D01*
X165163047Y-87264857D01*
X165353523Y-87312476D01*
X165448761Y-87407714D01*
X165496380Y-87502952D01*
X165496380Y-87693428D01*
X164496380Y-86360095D02*
X164496380Y-86836285D01*
X164972571Y-86883904D01*
X164924952Y-86836285D01*
X164877333Y-86741047D01*
X164877333Y-86502952D01*
X164924952Y-86407714D01*
X164972571Y-86360095D01*
X165067809Y-86312476D01*
X165305904Y-86312476D01*
X165401142Y-86360095D01*
X165448761Y-86407714D01*
X165496380Y-86502952D01*
X165496380Y-86741047D01*
X165448761Y-86836285D01*
X165401142Y-86883904D01*
%TO.C,R6*%
X174036742Y-90785998D02*
X174036823Y-90204734D01*
X173568655Y-90458240D02*
X174142232Y-89639088D01*
X174454290Y-89857594D01*
X174504991Y-89951227D01*
X174516685Y-90017547D01*
X174501066Y-90122875D01*
X174419126Y-90239897D01*
X174325493Y-90290598D01*
X174259172Y-90302292D01*
X174153845Y-90286673D01*
X173841787Y-90068168D01*
X175312449Y-90458483D02*
X175156420Y-90349230D01*
X175051092Y-90333611D01*
X174984772Y-90345305D01*
X174824818Y-90407701D01*
X174676558Y-90536417D01*
X174458053Y-90848475D01*
X174442434Y-90953802D01*
X174454128Y-91020123D01*
X174504829Y-91113756D01*
X174660858Y-91223009D01*
X174766186Y-91238628D01*
X174832506Y-91226934D01*
X174926140Y-91176233D01*
X175062705Y-90981196D01*
X175078324Y-90875869D01*
X175066630Y-90809548D01*
X175015929Y-90715915D01*
X174859900Y-90606662D01*
X174754572Y-90591043D01*
X174688252Y-90602737D01*
X174594618Y-90653438D01*
%TO.C,C34*%
X165668142Y-122218142D02*
X165620523Y-122265761D01*
X165477666Y-122313380D01*
X165382428Y-122313380D01*
X165239571Y-122265761D01*
X165144333Y-122170523D01*
X165096714Y-122075285D01*
X165049095Y-121884809D01*
X165049095Y-121741952D01*
X165096714Y-121551476D01*
X165144333Y-121456238D01*
X165239571Y-121361000D01*
X165382428Y-121313380D01*
X165477666Y-121313380D01*
X165620523Y-121361000D01*
X165668142Y-121408619D01*
X166001476Y-121313380D02*
X166620523Y-121313380D01*
X166287190Y-121694333D01*
X166430047Y-121694333D01*
X166525285Y-121741952D01*
X166572904Y-121789571D01*
X166620523Y-121884809D01*
X166620523Y-122122904D01*
X166572904Y-122218142D01*
X166525285Y-122265761D01*
X166430047Y-122313380D01*
X166144333Y-122313380D01*
X166049095Y-122265761D01*
X166001476Y-122218142D01*
X167477666Y-121646714D02*
X167477666Y-122313380D01*
X167239571Y-121265761D02*
X167001476Y-121980047D01*
X167620523Y-121980047D01*
%TO.C,C14*%
X154281142Y-95384857D02*
X154328761Y-95432476D01*
X154376380Y-95575333D01*
X154376380Y-95670571D01*
X154328761Y-95813428D01*
X154233523Y-95908666D01*
X154138285Y-95956285D01*
X153947809Y-96003904D01*
X153804952Y-96003904D01*
X153614476Y-95956285D01*
X153519238Y-95908666D01*
X153424000Y-95813428D01*
X153376380Y-95670571D01*
X153376380Y-95575333D01*
X153424000Y-95432476D01*
X153471619Y-95384857D01*
X154376380Y-94432476D02*
X154376380Y-95003904D01*
X154376380Y-94718190D02*
X153376380Y-94718190D01*
X153519238Y-94813428D01*
X153614476Y-94908666D01*
X153662095Y-95003904D01*
X153709714Y-93575333D02*
X154376380Y-93575333D01*
X153328761Y-93813428D02*
X154043047Y-94051523D01*
X154043047Y-93432476D01*
%TO.C,U10*%
X137445904Y-104714380D02*
X137445904Y-105523904D01*
X137493523Y-105619142D01*
X137541142Y-105666761D01*
X137636380Y-105714380D01*
X137826857Y-105714380D01*
X137922095Y-105666761D01*
X137969714Y-105619142D01*
X138017333Y-105523904D01*
X138017333Y-104714380D01*
X139017333Y-105714380D02*
X138445904Y-105714380D01*
X138731619Y-105714380D02*
X138731619Y-104714380D01*
X138636380Y-104857238D01*
X138541142Y-104952476D01*
X138445904Y-105000095D01*
X139636380Y-104714380D02*
X139731619Y-104714380D01*
X139826857Y-104762000D01*
X139874476Y-104809619D01*
X139922095Y-104904857D01*
X139969714Y-105095333D01*
X139969714Y-105333428D01*
X139922095Y-105523904D01*
X139874476Y-105619142D01*
X139826857Y-105666761D01*
X139731619Y-105714380D01*
X139636380Y-105714380D01*
X139541142Y-105666761D01*
X139493523Y-105619142D01*
X139445904Y-105523904D01*
X139398285Y-105333428D01*
X139398285Y-105095333D01*
X139445904Y-104904857D01*
X139493523Y-104809619D01*
X139541142Y-104762000D01*
X139636380Y-104714380D01*
%TO.C,Q1*%
X149462619Y-87217238D02*
X149415000Y-87312476D01*
X149319761Y-87407714D01*
X149176904Y-87550571D01*
X149129285Y-87645809D01*
X149129285Y-87741047D01*
X149367380Y-87693428D02*
X149319761Y-87788666D01*
X149224523Y-87883904D01*
X149034047Y-87931523D01*
X148700714Y-87931523D01*
X148510238Y-87883904D01*
X148415000Y-87788666D01*
X148367380Y-87693428D01*
X148367380Y-87502952D01*
X148415000Y-87407714D01*
X148510238Y-87312476D01*
X148700714Y-87264857D01*
X149034047Y-87264857D01*
X149224523Y-87312476D01*
X149319761Y-87407714D01*
X149367380Y-87502952D01*
X149367380Y-87693428D01*
X149367380Y-86312476D02*
X149367380Y-86883904D01*
X149367380Y-86598190D02*
X148367380Y-86598190D01*
X148510238Y-86693428D01*
X148605476Y-86788666D01*
X148653095Y-86883904D01*
%TO.C,C1*%
X185269142Y-104039666D02*
X185316761Y-104087285D01*
X185364380Y-104230142D01*
X185364380Y-104325380D01*
X185316761Y-104468238D01*
X185221523Y-104563476D01*
X185126285Y-104611095D01*
X184935809Y-104658714D01*
X184792952Y-104658714D01*
X184602476Y-104611095D01*
X184507238Y-104563476D01*
X184412000Y-104468238D01*
X184364380Y-104325380D01*
X184364380Y-104230142D01*
X184412000Y-104087285D01*
X184459619Y-104039666D01*
X185364380Y-103087285D02*
X185364380Y-103658714D01*
X185364380Y-103373000D02*
X184364380Y-103373000D01*
X184507238Y-103468238D01*
X184602476Y-103563476D01*
X184650095Y-103658714D01*
%TO.C,R3*%
X169890333Y-113136380D02*
X169557000Y-112660190D01*
X169318904Y-113136380D02*
X169318904Y-112136380D01*
X169699857Y-112136380D01*
X169795095Y-112184000D01*
X169842714Y-112231619D01*
X169890333Y-112326857D01*
X169890333Y-112469714D01*
X169842714Y-112564952D01*
X169795095Y-112612571D01*
X169699857Y-112660190D01*
X169318904Y-112660190D01*
X170223666Y-112136380D02*
X170842714Y-112136380D01*
X170509380Y-112517333D01*
X170652238Y-112517333D01*
X170747476Y-112564952D01*
X170795095Y-112612571D01*
X170842714Y-112707809D01*
X170842714Y-112945904D01*
X170795095Y-113041142D01*
X170747476Y-113088761D01*
X170652238Y-113136380D01*
X170366523Y-113136380D01*
X170271285Y-113088761D01*
X170223666Y-113041142D01*
%TO.C,C10*%
X155203142Y-109354857D02*
X155250761Y-109402476D01*
X155298380Y-109545333D01*
X155298380Y-109640571D01*
X155250761Y-109783428D01*
X155155523Y-109878666D01*
X155060285Y-109926285D01*
X154869809Y-109973904D01*
X154726952Y-109973904D01*
X154536476Y-109926285D01*
X154441238Y-109878666D01*
X154346000Y-109783428D01*
X154298380Y-109640571D01*
X154298380Y-109545333D01*
X154346000Y-109402476D01*
X154393619Y-109354857D01*
X155298380Y-108402476D02*
X155298380Y-108973904D01*
X155298380Y-108688190D02*
X154298380Y-108688190D01*
X154441238Y-108783428D01*
X154536476Y-108878666D01*
X154584095Y-108973904D01*
X154298380Y-107783428D02*
X154298380Y-107688190D01*
X154346000Y-107592952D01*
X154393619Y-107545333D01*
X154488857Y-107497714D01*
X154679333Y-107450095D01*
X154917428Y-107450095D01*
X155107904Y-107497714D01*
X155203142Y-107545333D01*
X155250761Y-107592952D01*
X155298380Y-107688190D01*
X155298380Y-107783428D01*
X155250761Y-107878666D01*
X155203142Y-107926285D01*
X155107904Y-107973904D01*
X154917428Y-108021523D01*
X154679333Y-108021523D01*
X154488857Y-107973904D01*
X154393619Y-107926285D01*
X154346000Y-107878666D01*
X154298380Y-107783428D01*
%TO.C,C37*%
X165681722Y-112947142D02*
X165634103Y-112994761D01*
X165491246Y-113042380D01*
X165396008Y-113042380D01*
X165253151Y-112994761D01*
X165157913Y-112899523D01*
X165110294Y-112804285D01*
X165062675Y-112613809D01*
X165062675Y-112470952D01*
X165110294Y-112280476D01*
X165157913Y-112185238D01*
X165253151Y-112090000D01*
X165396008Y-112042380D01*
X165491246Y-112042380D01*
X165634103Y-112090000D01*
X165681722Y-112137619D01*
X166015056Y-112042380D02*
X166634103Y-112042380D01*
X166300770Y-112423333D01*
X166443627Y-112423333D01*
X166538865Y-112470952D01*
X166586484Y-112518571D01*
X166634103Y-112613809D01*
X166634103Y-112851904D01*
X166586484Y-112947142D01*
X166538865Y-112994761D01*
X166443627Y-113042380D01*
X166157913Y-113042380D01*
X166062675Y-112994761D01*
X166015056Y-112947142D01*
X166967437Y-112042380D02*
X167634103Y-112042380D01*
X167205532Y-113042380D01*
%TO.C,C18*%
X160885142Y-95384857D02*
X160932761Y-95432476D01*
X160980380Y-95575333D01*
X160980380Y-95670571D01*
X160932761Y-95813428D01*
X160837523Y-95908666D01*
X160742285Y-95956285D01*
X160551809Y-96003904D01*
X160408952Y-96003904D01*
X160218476Y-95956285D01*
X160123238Y-95908666D01*
X160028000Y-95813428D01*
X159980380Y-95670571D01*
X159980380Y-95575333D01*
X160028000Y-95432476D01*
X160075619Y-95384857D01*
X160980380Y-94432476D02*
X160980380Y-95003904D01*
X160980380Y-94718190D02*
X159980380Y-94718190D01*
X160123238Y-94813428D01*
X160218476Y-94908666D01*
X160266095Y-95003904D01*
X160408952Y-93861047D02*
X160361333Y-93956285D01*
X160313714Y-94003904D01*
X160218476Y-94051523D01*
X160170857Y-94051523D01*
X160075619Y-94003904D01*
X160028000Y-93956285D01*
X159980380Y-93861047D01*
X159980380Y-93670571D01*
X160028000Y-93575333D01*
X160075619Y-93527714D01*
X160170857Y-93480095D01*
X160218476Y-93480095D01*
X160313714Y-93527714D01*
X160361333Y-93575333D01*
X160408952Y-93670571D01*
X160408952Y-93861047D01*
X160456571Y-93956285D01*
X160504190Y-94003904D01*
X160599428Y-94051523D01*
X160789904Y-94051523D01*
X160885142Y-94003904D01*
X160932761Y-93956285D01*
X160980380Y-93861047D01*
X160980380Y-93670571D01*
X160932761Y-93575333D01*
X160885142Y-93527714D01*
X160789904Y-93480095D01*
X160599428Y-93480095D01*
X160504190Y-93527714D01*
X160456571Y-93575333D01*
X160408952Y-93670571D01*
%TO.C,U6*%
X178562095Y-109982380D02*
X178562095Y-110791904D01*
X178609714Y-110887142D01*
X178657333Y-110934761D01*
X178752571Y-110982380D01*
X178943047Y-110982380D01*
X179038285Y-110934761D01*
X179085904Y-110887142D01*
X179133523Y-110791904D01*
X179133523Y-109982380D01*
X180038285Y-109982380D02*
X179847809Y-109982380D01*
X179752571Y-110030000D01*
X179704952Y-110077619D01*
X179609714Y-110220476D01*
X179562095Y-110410952D01*
X179562095Y-110791904D01*
X179609714Y-110887142D01*
X179657333Y-110934761D01*
X179752571Y-110982380D01*
X179943047Y-110982380D01*
X180038285Y-110934761D01*
X180085904Y-110887142D01*
X180133523Y-110791904D01*
X180133523Y-110553809D01*
X180085904Y-110458571D01*
X180038285Y-110410952D01*
X179943047Y-110363333D01*
X179752571Y-110363333D01*
X179657333Y-110410952D01*
X179609714Y-110458571D01*
X179562095Y-110553809D01*
%TO.C,C3*%
X175274705Y-88698690D02*
X175208385Y-88710384D01*
X175064050Y-88667452D01*
X174986036Y-88612825D01*
X174896327Y-88491878D01*
X174872939Y-88359238D01*
X174888558Y-88253910D01*
X174958803Y-88070568D01*
X175040743Y-87953546D01*
X175189003Y-87824830D01*
X175282636Y-87774129D01*
X175415277Y-87750741D01*
X175559612Y-87793673D01*
X175637627Y-87848300D01*
X175727335Y-87969246D01*
X175739029Y-88035567D01*
X176066706Y-88148744D02*
X176573800Y-88503815D01*
X176082244Y-88624681D01*
X176199266Y-88706621D01*
X176249967Y-88800254D01*
X176261661Y-88866575D01*
X176246042Y-88971902D01*
X176109477Y-89166939D01*
X176015843Y-89217640D01*
X175949523Y-89229334D01*
X175844195Y-89213715D01*
X175610152Y-89049836D01*
X175559450Y-88956202D01*
X175547756Y-88889882D01*
%TO.C,Q3*%
X157590619Y-87217238D02*
X157543000Y-87312476D01*
X157447761Y-87407714D01*
X157304904Y-87550571D01*
X157257285Y-87645809D01*
X157257285Y-87741047D01*
X157495380Y-87693428D02*
X157447761Y-87788666D01*
X157352523Y-87883904D01*
X157162047Y-87931523D01*
X156828714Y-87931523D01*
X156638238Y-87883904D01*
X156543000Y-87788666D01*
X156495380Y-87693428D01*
X156495380Y-87502952D01*
X156543000Y-87407714D01*
X156638238Y-87312476D01*
X156828714Y-87264857D01*
X157162047Y-87264857D01*
X157352523Y-87312476D01*
X157447761Y-87407714D01*
X157495380Y-87502952D01*
X157495380Y-87693428D01*
X156495380Y-86931523D02*
X156495380Y-86312476D01*
X156876333Y-86645809D01*
X156876333Y-86502952D01*
X156923952Y-86407714D01*
X156971571Y-86360095D01*
X157066809Y-86312476D01*
X157304904Y-86312476D01*
X157400142Y-86360095D01*
X157447761Y-86407714D01*
X157495380Y-86502952D01*
X157495380Y-86788666D01*
X157447761Y-86883904D01*
X157400142Y-86931523D01*
%TO.C,C12*%
X148345142Y-109341857D02*
X148392761Y-109389476D01*
X148440380Y-109532333D01*
X148440380Y-109627571D01*
X148392761Y-109770428D01*
X148297523Y-109865666D01*
X148202285Y-109913285D01*
X148011809Y-109960904D01*
X147868952Y-109960904D01*
X147678476Y-109913285D01*
X147583238Y-109865666D01*
X147488000Y-109770428D01*
X147440380Y-109627571D01*
X147440380Y-109532333D01*
X147488000Y-109389476D01*
X147535619Y-109341857D01*
X148440380Y-108389476D02*
X148440380Y-108960904D01*
X148440380Y-108675190D02*
X147440380Y-108675190D01*
X147583238Y-108770428D01*
X147678476Y-108865666D01*
X147726095Y-108960904D01*
X147535619Y-108008523D02*
X147488000Y-107960904D01*
X147440380Y-107865666D01*
X147440380Y-107627571D01*
X147488000Y-107532333D01*
X147535619Y-107484714D01*
X147630857Y-107437095D01*
X147726095Y-107437095D01*
X147868952Y-107484714D01*
X148440380Y-108056142D01*
X148440380Y-107437095D01*
%TO.C,J4*%
X149789314Y-130011013D02*
X150352179Y-130450771D01*
X150435435Y-130576247D01*
X150451849Y-130709930D01*
X150401422Y-130851820D01*
X150342787Y-130926869D01*
X150609012Y-129503271D02*
X151134352Y-129913712D01*
X150162231Y-129456355D02*
X150578510Y-130083735D01*
X150959634Y-129595919D01*
%TO.C,J1*%
X176591380Y-136487333D02*
X177305666Y-136487333D01*
X177448523Y-136534952D01*
X177543761Y-136630190D01*
X177591380Y-136773047D01*
X177591380Y-136868285D01*
X177591380Y-135487333D02*
X177591380Y-136058761D01*
X177591380Y-135773047D02*
X176591380Y-135773047D01*
X176734238Y-135868285D01*
X176829476Y-135963523D01*
X176877095Y-136058761D01*
%TO.C,C8*%
X189288843Y-101188833D02*
X189222523Y-101200527D01*
X189078188Y-101157595D01*
X189000174Y-101102968D01*
X188910465Y-100982021D01*
X188887077Y-100849381D01*
X188902696Y-100744053D01*
X188972941Y-100560711D01*
X189054881Y-100443689D01*
X189203141Y-100314973D01*
X189296774Y-100264272D01*
X189429415Y-100240884D01*
X189573750Y-100283816D01*
X189651765Y-100338443D01*
X189741473Y-100459389D01*
X189753167Y-100525710D01*
X190030062Y-101126518D02*
X189979361Y-101032885D01*
X189967667Y-100966564D01*
X189983286Y-100861237D01*
X190010599Y-100822229D01*
X190104232Y-100771528D01*
X190170553Y-100759834D01*
X190275880Y-100775453D01*
X190431909Y-100884706D01*
X190482611Y-100978339D01*
X190494305Y-101044660D01*
X190478686Y-101149987D01*
X190451373Y-101188995D01*
X190357739Y-101239696D01*
X190291419Y-101251390D01*
X190186091Y-101235771D01*
X190030062Y-101126518D01*
X189924734Y-101110899D01*
X189858414Y-101122593D01*
X189764780Y-101173295D01*
X189655528Y-101329324D01*
X189639909Y-101434651D01*
X189651603Y-101500972D01*
X189702304Y-101594605D01*
X189858333Y-101703858D01*
X189963661Y-101719477D01*
X190029981Y-101707783D01*
X190123615Y-101657082D01*
X190232867Y-101501053D01*
X190248486Y-101395725D01*
X190236792Y-101329405D01*
X190186091Y-101235771D01*
%TO.C,C35*%
X155394142Y-112947142D02*
X155346523Y-112994761D01*
X155203666Y-113042380D01*
X155108428Y-113042380D01*
X154965571Y-112994761D01*
X154870333Y-112899523D01*
X154822714Y-112804285D01*
X154775095Y-112613809D01*
X154775095Y-112470952D01*
X154822714Y-112280476D01*
X154870333Y-112185238D01*
X154965571Y-112090000D01*
X155108428Y-112042380D01*
X155203666Y-112042380D01*
X155346523Y-112090000D01*
X155394142Y-112137619D01*
X155727476Y-112042380D02*
X156346523Y-112042380D01*
X156013190Y-112423333D01*
X156156047Y-112423333D01*
X156251285Y-112470952D01*
X156298904Y-112518571D01*
X156346523Y-112613809D01*
X156346523Y-112851904D01*
X156298904Y-112947142D01*
X156251285Y-112994761D01*
X156156047Y-113042380D01*
X155870333Y-113042380D01*
X155775095Y-112994761D01*
X155727476Y-112947142D01*
X157251285Y-112042380D02*
X156775095Y-112042380D01*
X156727476Y-112518571D01*
X156775095Y-112470952D01*
X156870333Y-112423333D01*
X157108428Y-112423333D01*
X157203666Y-112470952D01*
X157251285Y-112518571D01*
X157298904Y-112613809D01*
X157298904Y-112851904D01*
X157251285Y-112947142D01*
X157203666Y-112994761D01*
X157108428Y-113042380D01*
X156870333Y-113042380D01*
X156775095Y-112994761D01*
X156727476Y-112947142D01*
%TO.C,C6*%
X169827333Y-122185142D02*
X169779714Y-122232761D01*
X169636857Y-122280380D01*
X169541619Y-122280380D01*
X169398761Y-122232761D01*
X169303523Y-122137523D01*
X169255904Y-122042285D01*
X169208285Y-121851809D01*
X169208285Y-121708952D01*
X169255904Y-121518476D01*
X169303523Y-121423238D01*
X169398761Y-121328000D01*
X169541619Y-121280380D01*
X169636857Y-121280380D01*
X169779714Y-121328000D01*
X169827333Y-121375619D01*
X170684476Y-121280380D02*
X170494000Y-121280380D01*
X170398761Y-121328000D01*
X170351142Y-121375619D01*
X170255904Y-121518476D01*
X170208285Y-121708952D01*
X170208285Y-122089904D01*
X170255904Y-122185142D01*
X170303523Y-122232761D01*
X170398761Y-122280380D01*
X170589238Y-122280380D01*
X170684476Y-122232761D01*
X170732095Y-122185142D01*
X170779714Y-122089904D01*
X170779714Y-121851809D01*
X170732095Y-121756571D01*
X170684476Y-121708952D01*
X170589238Y-121661333D01*
X170398761Y-121661333D01*
X170303523Y-121708952D01*
X170255904Y-121756571D01*
X170208285Y-121851809D01*
%TO.C,Q6*%
X161702761Y-76549619D02*
X161607523Y-76502000D01*
X161512285Y-76406761D01*
X161369428Y-76263904D01*
X161274190Y-76216285D01*
X161178952Y-76216285D01*
X161226571Y-76454380D02*
X161131333Y-76406761D01*
X161036095Y-76311523D01*
X160988476Y-76121047D01*
X160988476Y-75787714D01*
X161036095Y-75597238D01*
X161131333Y-75502000D01*
X161226571Y-75454380D01*
X161417047Y-75454380D01*
X161512285Y-75502000D01*
X161607523Y-75597238D01*
X161655142Y-75787714D01*
X161655142Y-76121047D01*
X161607523Y-76311523D01*
X161512285Y-76406761D01*
X161417047Y-76454380D01*
X161226571Y-76454380D01*
X162512285Y-75454380D02*
X162321809Y-75454380D01*
X162226571Y-75502000D01*
X162178952Y-75549619D01*
X162083714Y-75692476D01*
X162036095Y-75882952D01*
X162036095Y-76263904D01*
X162083714Y-76359142D01*
X162131333Y-76406761D01*
X162226571Y-76454380D01*
X162417047Y-76454380D01*
X162512285Y-76406761D01*
X162559904Y-76359142D01*
X162607523Y-76263904D01*
X162607523Y-76025809D01*
X162559904Y-75930571D01*
X162512285Y-75882952D01*
X162417047Y-75835333D01*
X162226571Y-75835333D01*
X162131333Y-75882952D01*
X162083714Y-75930571D01*
X162036095Y-76025809D01*
%TO.C,C2*%
X194984625Y-86937959D02*
X194918305Y-86949653D01*
X194773970Y-86906721D01*
X194695956Y-86852094D01*
X194606247Y-86731147D01*
X194582859Y-86598507D01*
X194598478Y-86493179D01*
X194668723Y-86309837D01*
X194750663Y-86192815D01*
X194898923Y-86064099D01*
X194992556Y-86013398D01*
X195125197Y-85990010D01*
X195269532Y-86032942D01*
X195347547Y-86087569D01*
X195437255Y-86208515D01*
X195448949Y-86274836D01*
X195761007Y-86493341D02*
X195827328Y-86481647D01*
X195932655Y-86497266D01*
X196127691Y-86633832D01*
X196178393Y-86727465D01*
X196190087Y-86793786D01*
X196174468Y-86899113D01*
X196119841Y-86977128D01*
X195998895Y-87066836D01*
X195203050Y-87207165D01*
X195710144Y-87562236D01*
%TO.C,J6*%
X192917927Y-64290129D02*
X193327624Y-63705020D01*
X193448571Y-63615312D01*
X193581212Y-63591924D01*
X193725547Y-63634856D01*
X193803561Y-63689482D01*
X192176789Y-63771179D02*
X192332818Y-63880431D01*
X192438146Y-63896051D01*
X192504466Y-63884356D01*
X192664420Y-63821961D01*
X192812680Y-63693245D01*
X193031185Y-63381187D01*
X193046805Y-63275860D01*
X193035110Y-63209539D01*
X192984409Y-63115906D01*
X192828380Y-63006653D01*
X192723053Y-62991034D01*
X192656732Y-63002728D01*
X192563099Y-63053429D01*
X192426533Y-63248466D01*
X192410914Y-63353793D01*
X192422608Y-63420114D01*
X192473309Y-63513747D01*
X192629338Y-63623000D01*
X192734666Y-63638619D01*
X192800986Y-63626925D01*
X192894620Y-63576224D01*
X189676997Y-78922720D02*
X188740823Y-78267204D01*
X180666325Y-72613380D02*
X179730151Y-71957864D01*
X180525996Y-71817535D02*
X179870480Y-72753709D01*
%TO.C,J8*%
X153102589Y-54813188D02*
X153226624Y-55516622D01*
X153204535Y-55665578D01*
X153127282Y-55775907D01*
X152994864Y-55847609D01*
X152901073Y-55864147D01*
X153786653Y-55127752D02*
X153684593Y-55097394D01*
X153629428Y-55058767D01*
X153565994Y-54973245D01*
X153557726Y-54926350D01*
X153588083Y-54824289D01*
X153626710Y-54769125D01*
X153712232Y-54705691D01*
X153899815Y-54672615D01*
X154001875Y-54702973D01*
X154057039Y-54741600D01*
X154120473Y-54827122D01*
X154128742Y-54874018D01*
X154098384Y-54976078D01*
X154059757Y-55031242D01*
X153974235Y-55094676D01*
X153786653Y-55127752D01*
X153701130Y-55191185D01*
X153662504Y-55246350D01*
X153632146Y-55348410D01*
X153665222Y-55535992D01*
X153728656Y-55621515D01*
X153783820Y-55660141D01*
X153885880Y-55690499D01*
X154073463Y-55657423D01*
X154158985Y-55593990D01*
X154197612Y-55538825D01*
X154227969Y-55436765D01*
X154194893Y-55249182D01*
X154131460Y-55163660D01*
X154076295Y-55125034D01*
X153974235Y-55094676D01*
%TO.C,Q4*%
X153701761Y-76549619D02*
X153606523Y-76502000D01*
X153511285Y-76406761D01*
X153368428Y-76263904D01*
X153273190Y-76216285D01*
X153177952Y-76216285D01*
X153225571Y-76454380D02*
X153130333Y-76406761D01*
X153035095Y-76311523D01*
X152987476Y-76121047D01*
X152987476Y-75787714D01*
X153035095Y-75597238D01*
X153130333Y-75502000D01*
X153225571Y-75454380D01*
X153416047Y-75454380D01*
X153511285Y-75502000D01*
X153606523Y-75597238D01*
X153654142Y-75787714D01*
X153654142Y-76121047D01*
X153606523Y-76311523D01*
X153511285Y-76406761D01*
X153416047Y-76454380D01*
X153225571Y-76454380D01*
X154511285Y-75787714D02*
X154511285Y-76454380D01*
X154273190Y-75406761D02*
X154035095Y-76121047D01*
X154654142Y-76121047D01*
%TO.C,Q2*%
X145558761Y-76549619D02*
X145463523Y-76502000D01*
X145368285Y-76406761D01*
X145225428Y-76263904D01*
X145130190Y-76216285D01*
X145034952Y-76216285D01*
X145082571Y-76454380D02*
X144987333Y-76406761D01*
X144892095Y-76311523D01*
X144844476Y-76121047D01*
X144844476Y-75787714D01*
X144892095Y-75597238D01*
X144987333Y-75502000D01*
X145082571Y-75454380D01*
X145273047Y-75454380D01*
X145368285Y-75502000D01*
X145463523Y-75597238D01*
X145511142Y-75787714D01*
X145511142Y-76121047D01*
X145463523Y-76311523D01*
X145368285Y-76406761D01*
X145273047Y-76454380D01*
X145082571Y-76454380D01*
X145892095Y-75549619D02*
X145939714Y-75502000D01*
X146034952Y-75454380D01*
X146273047Y-75454380D01*
X146368285Y-75502000D01*
X146415904Y-75549619D01*
X146463523Y-75644857D01*
X146463523Y-75740095D01*
X146415904Y-75882952D01*
X145844476Y-76454380D01*
X146463523Y-76454380D01*
%TO.C,C4*%
X147851333Y-123293142D02*
X147803714Y-123340761D01*
X147660857Y-123388380D01*
X147565619Y-123388380D01*
X147422761Y-123340761D01*
X147327523Y-123245523D01*
X147279904Y-123150285D01*
X147232285Y-122959809D01*
X147232285Y-122816952D01*
X147279904Y-122626476D01*
X147327523Y-122531238D01*
X147422761Y-122436000D01*
X147565619Y-122388380D01*
X147660857Y-122388380D01*
X147803714Y-122436000D01*
X147851333Y-122483619D01*
X148708476Y-122721714D02*
X148708476Y-123388380D01*
X148470380Y-122340761D02*
X148232285Y-123055047D01*
X148851333Y-123055047D01*
%TO.C,C17*%
X147169142Y-95384857D02*
X147216761Y-95432476D01*
X147264380Y-95575333D01*
X147264380Y-95670571D01*
X147216761Y-95813428D01*
X147121523Y-95908666D01*
X147026285Y-95956285D01*
X146835809Y-96003904D01*
X146692952Y-96003904D01*
X146502476Y-95956285D01*
X146407238Y-95908666D01*
X146312000Y-95813428D01*
X146264380Y-95670571D01*
X146264380Y-95575333D01*
X146312000Y-95432476D01*
X146359619Y-95384857D01*
X147264380Y-94432476D02*
X147264380Y-95003904D01*
X147264380Y-94718190D02*
X146264380Y-94718190D01*
X146407238Y-94813428D01*
X146502476Y-94908666D01*
X146550095Y-95003904D01*
X146264380Y-94099142D02*
X146264380Y-93432476D01*
X147264380Y-93861047D01*
%TO.C,U1*%
X184731398Y-90064966D02*
X184267074Y-90728089D01*
X184251455Y-90833416D01*
X184263149Y-90899737D01*
X184313851Y-90993370D01*
X184469880Y-91102623D01*
X184575207Y-91118242D01*
X184641528Y-91106548D01*
X184735161Y-91055847D01*
X185199485Y-90392724D01*
X185445061Y-91785452D02*
X184976974Y-91457694D01*
X185211017Y-91621573D02*
X185784594Y-90802421D01*
X185624640Y-90864816D01*
X185491999Y-90888205D01*
X185386671Y-90872585D01*
%TO.C,D2*%
X169255904Y-119138380D02*
X169255904Y-118138380D01*
X169494000Y-118138380D01*
X169636857Y-118186000D01*
X169732095Y-118281238D01*
X169779714Y-118376476D01*
X169827333Y-118566952D01*
X169827333Y-118709809D01*
X169779714Y-118900285D01*
X169732095Y-118995523D01*
X169636857Y-119090761D01*
X169494000Y-119138380D01*
X169255904Y-119138380D01*
X170208285Y-118233619D02*
X170255904Y-118186000D01*
X170351142Y-118138380D01*
X170589238Y-118138380D01*
X170684476Y-118186000D01*
X170732095Y-118233619D01*
X170779714Y-118328857D01*
X170779714Y-118424095D01*
X170732095Y-118566952D01*
X170160666Y-119138380D01*
X170779714Y-119138380D01*
%TO.C,C36*%
X158950142Y-112947142D02*
X158902523Y-112994761D01*
X158759666Y-113042380D01*
X158664428Y-113042380D01*
X158521571Y-112994761D01*
X158426333Y-112899523D01*
X158378714Y-112804285D01*
X158331095Y-112613809D01*
X158331095Y-112470952D01*
X158378714Y-112280476D01*
X158426333Y-112185238D01*
X158521571Y-112090000D01*
X158664428Y-112042380D01*
X158759666Y-112042380D01*
X158902523Y-112090000D01*
X158950142Y-112137619D01*
X159283476Y-112042380D02*
X159902523Y-112042380D01*
X159569190Y-112423333D01*
X159712047Y-112423333D01*
X159807285Y-112470952D01*
X159854904Y-112518571D01*
X159902523Y-112613809D01*
X159902523Y-112851904D01*
X159854904Y-112947142D01*
X159807285Y-112994761D01*
X159712047Y-113042380D01*
X159426333Y-113042380D01*
X159331095Y-112994761D01*
X159283476Y-112947142D01*
X160759666Y-112042380D02*
X160569190Y-112042380D01*
X160473952Y-112090000D01*
X160426333Y-112137619D01*
X160331095Y-112280476D01*
X160283476Y-112470952D01*
X160283476Y-112851904D01*
X160331095Y-112947142D01*
X160378714Y-112994761D01*
X160473952Y-113042380D01*
X160664428Y-113042380D01*
X160759666Y-112994761D01*
X160807285Y-112947142D01*
X160854904Y-112851904D01*
X160854904Y-112613809D01*
X160807285Y-112518571D01*
X160759666Y-112470952D01*
X160664428Y-112423333D01*
X160473952Y-112423333D01*
X160378714Y-112470952D01*
X160331095Y-112518571D01*
X160283476Y-112613809D01*
%TO.C,C7*%
X176688304Y-86721612D02*
X176621984Y-86733306D01*
X176477649Y-86690374D01*
X176399635Y-86635747D01*
X176309926Y-86514800D01*
X176286538Y-86382160D01*
X176302157Y-86276832D01*
X176372402Y-86093490D01*
X176454342Y-85976468D01*
X176602602Y-85847752D01*
X176696235Y-85797051D01*
X176828876Y-85773663D01*
X176973211Y-85816595D01*
X177051226Y-85871222D01*
X177140934Y-85992168D01*
X177152628Y-86058489D01*
X177480305Y-86171666D02*
X178026407Y-86554051D01*
X177101765Y-87127384D01*
%TO.C,J3*%
X164790380Y-136544333D02*
X165504666Y-136544333D01*
X165647523Y-136591952D01*
X165742761Y-136687190D01*
X165790380Y-136830047D01*
X165790380Y-136925285D01*
X164790380Y-136163380D02*
X164790380Y-135544333D01*
X165171333Y-135877666D01*
X165171333Y-135734809D01*
X165218952Y-135639571D01*
X165266571Y-135591952D01*
X165361809Y-135544333D01*
X165599904Y-135544333D01*
X165695142Y-135591952D01*
X165742761Y-135639571D01*
X165790380Y-135734809D01*
X165790380Y-136020523D01*
X165742761Y-136115761D01*
X165695142Y-136163380D01*
%TO.C,R4*%
X166017333Y-116184380D02*
X165684000Y-115708190D01*
X165445904Y-116184380D02*
X165445904Y-115184380D01*
X165826857Y-115184380D01*
X165922095Y-115232000D01*
X165969714Y-115279619D01*
X166017333Y-115374857D01*
X166017333Y-115517714D01*
X165969714Y-115612952D01*
X165922095Y-115660571D01*
X165826857Y-115708190D01*
X165445904Y-115708190D01*
X166874476Y-115517714D02*
X166874476Y-116184380D01*
X166636380Y-115136761D02*
X166398285Y-115851047D01*
X167017333Y-115851047D01*
%TO.C,C15*%
X187207142Y-113672857D02*
X187254761Y-113720476D01*
X187302380Y-113863333D01*
X187302380Y-113958571D01*
X187254761Y-114101428D01*
X187159523Y-114196666D01*
X187064285Y-114244285D01*
X186873809Y-114291904D01*
X186730952Y-114291904D01*
X186540476Y-114244285D01*
X186445238Y-114196666D01*
X186350000Y-114101428D01*
X186302380Y-113958571D01*
X186302380Y-113863333D01*
X186350000Y-113720476D01*
X186397619Y-113672857D01*
X187302380Y-112720476D02*
X187302380Y-113291904D01*
X187302380Y-113006190D02*
X186302380Y-113006190D01*
X186445238Y-113101428D01*
X186540476Y-113196666D01*
X186588095Y-113291904D01*
X186302380Y-111815714D02*
X186302380Y-112291904D01*
X186778571Y-112339523D01*
X186730952Y-112291904D01*
X186683333Y-112196666D01*
X186683333Y-111958571D01*
X186730952Y-111863333D01*
X186778571Y-111815714D01*
X186873809Y-111768095D01*
X187111904Y-111768095D01*
X187207142Y-111815714D01*
X187254761Y-111863333D01*
X187302380Y-111958571D01*
X187302380Y-112196666D01*
X187254761Y-112291904D01*
X187207142Y-112339523D01*
%TO.C,R7*%
X191393216Y-98218849D02*
X191393297Y-97637585D01*
X190925129Y-97891091D02*
X191498706Y-97071939D01*
X191810764Y-97290445D01*
X191861465Y-97384078D01*
X191873159Y-97450398D01*
X191857540Y-97555726D01*
X191775600Y-97672748D01*
X191681967Y-97723449D01*
X191615646Y-97735143D01*
X191510319Y-97719524D01*
X191198261Y-97501019D01*
X192239843Y-97590889D02*
X192785945Y-97973274D01*
X191861303Y-98546607D01*
%TO.C,C13*%
X162155142Y-109354857D02*
X162202761Y-109402476D01*
X162250380Y-109545333D01*
X162250380Y-109640571D01*
X162202761Y-109783428D01*
X162107523Y-109878666D01*
X162012285Y-109926285D01*
X161821809Y-109973904D01*
X161678952Y-109973904D01*
X161488476Y-109926285D01*
X161393238Y-109878666D01*
X161298000Y-109783428D01*
X161250380Y-109640571D01*
X161250380Y-109545333D01*
X161298000Y-109402476D01*
X161345619Y-109354857D01*
X162250380Y-108402476D02*
X162250380Y-108973904D01*
X162250380Y-108688190D02*
X161250380Y-108688190D01*
X161393238Y-108783428D01*
X161488476Y-108878666D01*
X161536095Y-108973904D01*
X161250380Y-108069142D02*
X161250380Y-107450095D01*
X161631333Y-107783428D01*
X161631333Y-107640571D01*
X161678952Y-107545333D01*
X161726571Y-107497714D01*
X161821809Y-107450095D01*
X162059904Y-107450095D01*
X162155142Y-107497714D01*
X162202761Y-107545333D01*
X162250380Y-107640571D01*
X162250380Y-107926285D01*
X162202761Y-108021523D01*
X162155142Y-108069142D01*
%TO.C,R2*%
X193552218Y-95170848D02*
X193552299Y-94589584D01*
X193084131Y-94843090D02*
X193657708Y-94023938D01*
X193969766Y-94242444D01*
X194020467Y-94336077D01*
X194032161Y-94402397D01*
X194016542Y-94507725D01*
X193934602Y-94624747D01*
X193840969Y-94675448D01*
X193774648Y-94687142D01*
X193669321Y-94671523D01*
X193357263Y-94453018D01*
X194383226Y-94648216D02*
X194449547Y-94636522D01*
X194554874Y-94652141D01*
X194749910Y-94788707D01*
X194800612Y-94882340D01*
X194812306Y-94948661D01*
X194796687Y-95053988D01*
X194742060Y-95132003D01*
X194621114Y-95221711D01*
X193825269Y-95362040D01*
X194332363Y-95717111D01*
%TO.C,C5*%
X192590844Y-96489833D02*
X192524524Y-96501527D01*
X192380189Y-96458595D01*
X192302175Y-96403968D01*
X192212466Y-96283021D01*
X192189078Y-96150381D01*
X192204697Y-96045053D01*
X192274942Y-95861711D01*
X192356882Y-95744689D01*
X192505142Y-95615973D01*
X192598775Y-95565272D01*
X192731416Y-95541884D01*
X192875751Y-95584816D01*
X192953766Y-95639443D01*
X193043474Y-95760389D01*
X193055168Y-95826710D01*
X193850932Y-96267645D02*
X193460860Y-95994514D01*
X193148721Y-96357273D01*
X193215041Y-96345579D01*
X193320369Y-96361198D01*
X193515405Y-96497764D01*
X193566106Y-96591397D01*
X193577800Y-96657718D01*
X193562181Y-96763045D01*
X193425616Y-96958082D01*
X193331982Y-97008783D01*
X193265662Y-97020477D01*
X193160334Y-97004858D01*
X192965298Y-96868292D01*
X192914596Y-96774658D01*
X192902902Y-96708338D01*
%TO.C,J2*%
X137080666Y-102874380D02*
X137080666Y-103588666D01*
X137033047Y-103731523D01*
X136937809Y-103826761D01*
X136794952Y-103874380D01*
X136699714Y-103874380D01*
X137509238Y-102969619D02*
X137556857Y-102922000D01*
X137652095Y-102874380D01*
X137890190Y-102874380D01*
X137985428Y-102922000D01*
X138033047Y-102969619D01*
X138080666Y-103064857D01*
X138080666Y-103160095D01*
X138033047Y-103302952D01*
X137461619Y-103874380D01*
X138080666Y-103874380D01*
%TO.C,C22*%
X172307364Y-73711772D02*
X172374708Y-73711772D01*
X172509395Y-73779116D01*
X172576738Y-73846459D01*
X172644082Y-73981146D01*
X172644082Y-74115833D01*
X172610410Y-74216848D01*
X172509395Y-74385207D01*
X172408380Y-74486222D01*
X172240021Y-74587238D01*
X172139006Y-74620909D01*
X172004319Y-74620909D01*
X171869632Y-74553566D01*
X171802288Y-74486222D01*
X171734945Y-74351535D01*
X171734945Y-74284192D01*
X171465570Y-74014818D02*
X171398227Y-74014818D01*
X171297212Y-73981146D01*
X171128853Y-73812787D01*
X171095181Y-73711772D01*
X171095181Y-73644429D01*
X171128853Y-73543413D01*
X171196196Y-73476070D01*
X171330883Y-73408726D01*
X172139006Y-73408726D01*
X171701273Y-72970993D01*
X170792135Y-73341383D02*
X170724792Y-73341383D01*
X170623777Y-73307711D01*
X170455418Y-73139352D01*
X170421746Y-73038337D01*
X170421746Y-72970993D01*
X170455418Y-72869978D01*
X170522761Y-72802635D01*
X170657448Y-72735291D01*
X171465570Y-72735291D01*
X171027838Y-72297558D01*
%TO.C,R1*%
X147978333Y-121483380D02*
X147645000Y-121007190D01*
X147406904Y-121483380D02*
X147406904Y-120483380D01*
X147787857Y-120483380D01*
X147883095Y-120531000D01*
X147930714Y-120578619D01*
X147978333Y-120673857D01*
X147978333Y-120816714D01*
X147930714Y-120911952D01*
X147883095Y-120959571D01*
X147787857Y-121007190D01*
X147406904Y-121007190D01*
X148930714Y-121483380D02*
X148359285Y-121483380D01*
X148645000Y-121483380D02*
X148645000Y-120483380D01*
X148549761Y-120626238D01*
X148454523Y-120721476D01*
X148359285Y-120769095D01*
%TO.C,D3*%
X179350098Y-83791424D02*
X178530946Y-83217847D01*
X178667512Y-83022811D01*
X178788459Y-82933103D01*
X178921100Y-82909714D01*
X179026427Y-82925334D01*
X179209769Y-82995579D01*
X179326791Y-83077518D01*
X179455507Y-83225778D01*
X179506208Y-83319412D01*
X179529596Y-83452053D01*
X179486664Y-83596388D01*
X179350098Y-83791424D01*
X179049896Y-82476710D02*
X179404967Y-81969616D01*
X179525833Y-82461172D01*
X179607773Y-82344150D01*
X179701406Y-82293449D01*
X179767727Y-82281755D01*
X179873054Y-82297374D01*
X180068091Y-82433939D01*
X180118792Y-82527573D01*
X180130486Y-82593893D01*
X180114867Y-82699221D01*
X179950988Y-82933264D01*
X179857354Y-82983966D01*
X179791034Y-82995660D01*
%TO.C,R5*%
X166080333Y-119232380D02*
X165747000Y-118756190D01*
X165508904Y-119232380D02*
X165508904Y-118232380D01*
X165889857Y-118232380D01*
X165985095Y-118280000D01*
X166032714Y-118327619D01*
X166080333Y-118422857D01*
X166080333Y-118565714D01*
X166032714Y-118660952D01*
X165985095Y-118708571D01*
X165889857Y-118756190D01*
X165508904Y-118756190D01*
X166985095Y-118232380D02*
X166508904Y-118232380D01*
X166461285Y-118708571D01*
X166508904Y-118660952D01*
X166604142Y-118613333D01*
X166842238Y-118613333D01*
X166937476Y-118660952D01*
X166985095Y-118708571D01*
X167032714Y-118803809D01*
X167032714Y-119041904D01*
X166985095Y-119137142D01*
X166937476Y-119184761D01*
X166842238Y-119232380D01*
X166604142Y-119232380D01*
X166508904Y-119184761D01*
X166461285Y-119137142D01*
%TO.C,R8*%
X190377217Y-99615849D02*
X190377298Y-99034585D01*
X189909130Y-99288091D02*
X190482707Y-98468939D01*
X190794765Y-98687445D01*
X190845466Y-98781078D01*
X190857160Y-98847398D01*
X190841541Y-98952726D01*
X190759601Y-99069748D01*
X190665968Y-99120449D01*
X190599647Y-99132143D01*
X190494320Y-99116524D01*
X190182262Y-98898019D01*
X191173062Y-99475520D02*
X191122361Y-99381887D01*
X191110667Y-99315566D01*
X191126286Y-99210239D01*
X191153599Y-99171231D01*
X191247232Y-99120530D01*
X191313553Y-99108836D01*
X191418880Y-99124455D01*
X191574909Y-99233708D01*
X191625611Y-99327341D01*
X191637305Y-99393662D01*
X191621686Y-99498989D01*
X191594373Y-99537997D01*
X191500739Y-99588698D01*
X191434419Y-99600392D01*
X191329091Y-99584773D01*
X191173062Y-99475520D01*
X191067734Y-99459901D01*
X191001414Y-99471595D01*
X190907780Y-99522297D01*
X190798528Y-99678326D01*
X190782909Y-99783653D01*
X190794603Y-99849974D01*
X190845304Y-99943607D01*
X191001333Y-100052860D01*
X191106661Y-100068479D01*
X191172981Y-100056785D01*
X191266615Y-100006084D01*
X191375867Y-99850055D01*
X191391486Y-99744727D01*
X191379792Y-99678407D01*
X191329091Y-99584773D01*
%TO.C,U4*%
X173514380Y-102107904D02*
X174323904Y-102107904D01*
X174419142Y-102060285D01*
X174466761Y-102012666D01*
X174514380Y-101917428D01*
X174514380Y-101726952D01*
X174466761Y-101631714D01*
X174419142Y-101584095D01*
X174323904Y-101536476D01*
X173514380Y-101536476D01*
X173847714Y-100631714D02*
X174514380Y-100631714D01*
X173466761Y-100869809D02*
X174181047Y-101107904D01*
X174181047Y-100488857D01*
%TO.C,L1*%
X190273415Y-82693800D02*
X190663487Y-82966931D01*
X190089911Y-83786083D01*
X189571285Y-82202163D02*
X190039371Y-82529921D01*
X189805328Y-82366042D02*
X189231752Y-83185194D01*
X189391706Y-83122798D01*
X189524346Y-83099410D01*
X189629674Y-83115029D01*
%TO.C,D1*%
X169128904Y-116090380D02*
X169128904Y-115090380D01*
X169367000Y-115090380D01*
X169509857Y-115138000D01*
X169605095Y-115233238D01*
X169652714Y-115328476D01*
X169700333Y-115518952D01*
X169700333Y-115661809D01*
X169652714Y-115852285D01*
X169605095Y-115947523D01*
X169509857Y-116042761D01*
X169367000Y-116090380D01*
X169128904Y-116090380D01*
X170652714Y-116090380D02*
X170081285Y-116090380D01*
X170367000Y-116090380D02*
X170367000Y-115090380D01*
X170271761Y-115233238D01*
X170176523Y-115328476D01*
X170081285Y-115376095D01*
D13*
%TO.C,D4*%
X168386000Y-94270000D02*
X168386000Y-98170000D01*
X166386000Y-94270000D02*
X166386000Y-98170000D01*
X168386000Y-94270000D02*
X166386000Y-94270000D01*
%TO.C,Q5*%
X164229000Y-90182000D02*
X164229000Y-84062000D01*
X163929000Y-90182000D02*
X164229000Y-90182000D01*
X158859000Y-90182000D02*
X158859000Y-84062000D01*
X159159000Y-90182000D02*
X158859000Y-90182000D01*
X159209000Y-84062000D02*
X158859000Y-84062000D01*
%TO.C,R13*%
X144032500Y-94504742D02*
X144032500Y-94979258D01*
X142987500Y-94504742D02*
X142987500Y-94979258D01*
%TO.C,R6*%
X176315256Y-92565975D02*
X175926555Y-92293803D01*
X176914643Y-91709961D02*
X176525942Y-91437789D01*
%TO.C,C34*%
X166451580Y-123768000D02*
X166170420Y-123768000D01*
X166451580Y-122748000D02*
X166170420Y-122748000D01*
%TO.C,C14*%
X151890000Y-94882580D02*
X151890000Y-94601420D01*
X152910000Y-94882580D02*
X152910000Y-94601420D01*
%TO.C,U10*%
X138684000Y-111372000D02*
X140884000Y-111372000D01*
X138684000Y-111372000D02*
X136484000Y-111372000D01*
X138684000Y-106052000D02*
X140884000Y-106052000D01*
X138684000Y-106052000D02*
X135084000Y-106052000D01*
%TO.C,Q1*%
X142730000Y-90182000D02*
X142730000Y-84062000D01*
X143080000Y-84062000D02*
X142730000Y-84062000D01*
X148100000Y-90182000D02*
X148100000Y-84062000D01*
X147800000Y-90182000D02*
X148100000Y-90182000D01*
X143030000Y-90182000D02*
X142730000Y-90182000D01*
%TO.C,U2*%
X192880223Y-92408219D02*
X194354696Y-93440657D01*
X194669781Y-89852465D02*
X194014460Y-89393604D01*
X194669781Y-89852465D02*
X195325103Y-90311326D01*
X192880223Y-92408219D02*
X192224901Y-91949358D01*
%TO.C,D5*%
X171180000Y-94270000D02*
X171180000Y-98170000D01*
X171180000Y-94270000D02*
X169180000Y-94270000D01*
X169180000Y-94270000D02*
X169180000Y-98170000D01*
%TO.C,R14*%
X147813500Y-94504742D02*
X147813500Y-94979258D01*
X148858500Y-94504742D02*
X148858500Y-94979258D01*
%TO.C,C1*%
X183898000Y-104280580D02*
X183898000Y-103999420D01*
X182878000Y-104280580D02*
X182878000Y-103999420D01*
D12*
%TO.C,U5*%
X150153000Y-104604000D02*
X150153000Y-99104000D01*
X155663000Y-99104000D02*
X155363000Y-99104000D01*
X150153000Y-104604000D02*
X150358000Y-104604000D01*
X155663000Y-104604000D02*
X155663000Y-99104000D01*
X150153000Y-99104000D02*
X150453000Y-99104000D01*
X155663000Y-104604000D02*
X155363000Y-104604000D01*
X150358000Y-104604000D02*
X150358000Y-106354000D01*
D13*
%TO.C,R3*%
X169819742Y-114636500D02*
X170294258Y-114636500D01*
X169819742Y-113591500D02*
X170294258Y-113591500D01*
%TO.C,C10*%
X153926000Y-108571420D02*
X153926000Y-108852580D01*
X152906000Y-108571420D02*
X152906000Y-108852580D01*
%TO.C,C37*%
X166324580Y-113604000D02*
X166043420Y-113604000D01*
X166324580Y-114624000D02*
X166043420Y-114624000D01*
%TO.C,C18*%
X158494000Y-94882580D02*
X158494000Y-94601420D01*
X159514000Y-94882580D02*
X159514000Y-94601420D01*
%TO.C,C9*%
X147939580Y-115597000D02*
X147658420Y-115597000D01*
X147939580Y-116617000D02*
X147658420Y-116617000D01*
%TO.C,R9*%
X151144500Y-94504742D02*
X151144500Y-94979258D01*
X150099500Y-94504742D02*
X150099500Y-94979258D01*
%TO.C,U6*%
X180324000Y-114650000D02*
X178324000Y-114650000D01*
X179324000Y-111410000D02*
X176324000Y-111410000D01*
%TO.C,C3*%
X177694506Y-90904657D02*
X177266496Y-90604961D01*
X178537664Y-89700503D02*
X178109654Y-89400807D01*
%TO.C,Q3*%
X156228000Y-90182000D02*
X156228000Y-84062000D01*
X151158000Y-90182000D02*
X150858000Y-90182000D01*
X151208000Y-84062000D02*
X150858000Y-84062000D01*
X150858000Y-90182000D02*
X150858000Y-84062000D01*
X155928000Y-90182000D02*
X156228000Y-90182000D01*
%TO.C,C12*%
X146048000Y-108558420D02*
X146048000Y-108839580D01*
X147068000Y-108558420D02*
X147068000Y-108839580D01*
%TO.C,J4*%
X146770397Y-128917164D02*
X140718474Y-124188884D01*
X148408056Y-126821056D02*
X146770397Y-128917164D01*
X149408830Y-127602946D02*
X150456884Y-128421775D01*
X150456884Y-128421775D02*
X149638054Y-129469830D01*
X142356134Y-122092775D02*
X140718474Y-124188884D01*
X148408056Y-126821056D02*
X142356134Y-122092775D01*
%TO.C,R12*%
X154671500Y-94504742D02*
X154671500Y-94979258D01*
X155716500Y-94504742D02*
X155716500Y-94979258D01*
%TO.C,J1*%
X166869000Y-132811929D02*
X166869000Y-133209000D01*
X167629000Y-141869000D02*
X166869000Y-141869000D01*
X174829000Y-135869000D02*
X174829000Y-141869000D01*
X174869000Y-130499000D02*
X176139000Y-130499000D01*
X173599000Y-133209000D02*
X173599000Y-135869000D01*
X169409000Y-132811929D02*
X169409000Y-133209000D01*
X174949000Y-135869000D02*
X174949000Y-141869000D01*
X171949000Y-141869000D02*
X171949000Y-135869000D01*
X171949000Y-132811929D02*
X171949000Y-133209000D01*
X170169000Y-132811929D02*
X170169000Y-133209000D01*
X169409000Y-141869000D02*
X169409000Y-135869000D01*
X174709000Y-135869000D02*
X174709000Y-141869000D01*
X170169000Y-141869000D02*
X169409000Y-141869000D01*
X170169000Y-135869000D02*
X170169000Y-141869000D01*
X165919000Y-133209000D02*
X165919000Y-135869000D01*
X172709000Y-141869000D02*
X171949000Y-141869000D01*
X172709000Y-132811929D02*
X172709000Y-133209000D01*
X176199000Y-135869000D02*
X176199000Y-133209000D01*
X176139000Y-130499000D02*
X176139000Y-131769000D01*
X171059000Y-133209000D02*
X171059000Y-135869000D01*
X172709000Y-135869000D02*
X172709000Y-141869000D01*
X174489000Y-132879000D02*
X174489000Y-133209000D01*
X167629000Y-132811929D02*
X167629000Y-133209000D01*
X175249000Y-132879000D02*
X175249000Y-133209000D01*
X175189000Y-135869000D02*
X175189000Y-141869000D01*
X174589000Y-135869000D02*
X174589000Y-141869000D01*
X174489000Y-141869000D02*
X174489000Y-135869000D01*
X175069000Y-135869000D02*
X175069000Y-141869000D01*
X175249000Y-141869000D02*
X174489000Y-141869000D01*
X168519000Y-133209000D02*
X168519000Y-135869000D01*
X167629000Y-135869000D02*
X167629000Y-141869000D01*
X176199000Y-133209000D02*
X165919000Y-133209000D01*
X165919000Y-135869000D02*
X176199000Y-135869000D01*
X166869000Y-141869000D02*
X166869000Y-135869000D01*
X175249000Y-135869000D02*
X175249000Y-141869000D01*
%TO.C,C8*%
X187614623Y-98907347D02*
X187844935Y-99068614D01*
X187029575Y-99742882D02*
X187259887Y-99904149D01*
%TO.C,R16*%
X162320500Y-94504742D02*
X162320500Y-94979258D01*
X161275500Y-94504742D02*
X161275500Y-94979258D01*
%TO.C,C35*%
X156177580Y-114624000D02*
X155896420Y-114624000D01*
X156177580Y-113604000D02*
X155896420Y-113604000D01*
%TO.C,C6*%
X169853420Y-123768000D02*
X170134580Y-123768000D01*
X169853420Y-122748000D02*
X170134580Y-122748000D01*
%TO.C,Q6*%
X164858000Y-81887000D02*
X164858000Y-82187000D01*
X164858000Y-77117000D02*
X164858000Y-76817000D01*
X158738000Y-81837000D02*
X158738000Y-82187000D01*
X164858000Y-82187000D02*
X158738000Y-82187000D01*
X164858000Y-76817000D02*
X158738000Y-76817000D01*
D12*
%TO.C,U9*%
X156757000Y-99104000D02*
X157057000Y-99104000D01*
X162267000Y-99104000D02*
X161967000Y-99104000D01*
X156757000Y-104604000D02*
X156962000Y-104604000D01*
X156962000Y-104604000D02*
X156962000Y-106354000D01*
X162267000Y-104604000D02*
X162267000Y-99104000D01*
X162267000Y-104604000D02*
X161967000Y-104604000D01*
X156757000Y-104604000D02*
X156757000Y-99104000D01*
D13*
%TO.C,C2*%
X195514814Y-88005056D02*
X195284502Y-87843789D01*
X194929766Y-88840591D02*
X194699454Y-88679324D01*
D12*
%TO.C,U8*%
X143295000Y-104604000D02*
X143500000Y-104604000D01*
X148805000Y-104604000D02*
X148805000Y-99104000D01*
X143295000Y-104604000D02*
X143295000Y-99104000D01*
X148805000Y-104604000D02*
X148505000Y-104604000D01*
X148805000Y-99104000D02*
X148505000Y-99104000D01*
X143295000Y-99104000D02*
X143595000Y-99104000D01*
X143500000Y-104604000D02*
X143500000Y-106354000D01*
D13*
%TO.C,J6*%
X196363974Y-67609357D02*
X195159463Y-69329576D01*
X195159463Y-69329576D02*
X195642763Y-69667987D01*
X188074155Y-61804764D02*
X186869645Y-63524983D01*
X188074155Y-61804764D02*
X196363974Y-67609357D01*
X193886124Y-71148094D02*
X194369423Y-71486504D01*
X182785781Y-69357345D02*
X191075599Y-75161939D01*
X186386345Y-63186573D02*
X186869645Y-63524983D01*
X185596305Y-65343500D02*
X182785781Y-69357345D01*
X185113005Y-65005090D02*
X185596305Y-65343500D01*
X193886124Y-71148094D02*
X191075599Y-75161939D01*
X186386344Y-63186574D02*
G75*
G03*
X185113005Y-65005090I-636669J-909258D01*
G01*
X194369424Y-71486503D02*
G75*
G03*
X195642763Y-69667987I636669J909258D01*
G01*
%TO.C,J8*%
X148523567Y-65508431D02*
X149350805Y-65362567D01*
X148526457Y-57232194D02*
X158886635Y-55405416D01*
X148994826Y-63343711D02*
X149585711Y-63239522D01*
X160536773Y-61308554D02*
X160892752Y-63327410D01*
X148994826Y-63343711D02*
X149350805Y-65362567D01*
X158886635Y-55405416D02*
X159945889Y-61412743D01*
X160892752Y-63327410D02*
X161719990Y-63181545D01*
X148526457Y-57232194D02*
X149585711Y-63239522D01*
X148909066Y-67694704D02*
X162105489Y-65367819D01*
X159945889Y-61412743D02*
X160536773Y-61308554D01*
X148523567Y-65508432D02*
G75*
G03*
X148909066Y-67694704I192749J-1093136D01*
G01*
X162105489Y-65367819D02*
G75*
G03*
X161719990Y-63181545I-192749J1093137D01*
G01*
%TO.C,Q4*%
X156857000Y-81887000D02*
X156857000Y-82187000D01*
X156857000Y-76817000D02*
X150737000Y-76817000D01*
X156857000Y-77117000D02*
X156857000Y-76817000D01*
X156857000Y-82187000D02*
X150737000Y-82187000D01*
X150737000Y-81837000D02*
X150737000Y-82187000D01*
%TO.C,Q2*%
X148714000Y-82187000D02*
X142594000Y-82187000D01*
X148714000Y-81887000D02*
X148714000Y-82187000D01*
X142594000Y-81837000D02*
X142594000Y-82187000D01*
X148714000Y-76817000D02*
X142594000Y-76817000D01*
X148714000Y-77117000D02*
X148714000Y-76817000D01*
%TO.C,C4*%
X150481420Y-123446000D02*
X150762580Y-123446000D01*
X150481420Y-122426000D02*
X150762580Y-122426000D01*
%TO.C,C17*%
X144778000Y-94882580D02*
X144778000Y-94601420D01*
X145798000Y-94882580D02*
X145798000Y-94601420D01*
%TO.C,U1*%
X183158380Y-90657497D02*
X181733534Y-89659809D01*
X180221669Y-94851556D02*
X180025551Y-94714232D01*
X185960837Y-92619798D02*
X186156955Y-92757122D01*
X183024126Y-96813857D02*
X183220244Y-96951180D01*
%TO.C,D2*%
X171415000Y-120945000D02*
X171415000Y-119475000D01*
X171415000Y-119475000D02*
X169130000Y-119475000D01*
X169130000Y-120945000D02*
X171415000Y-120945000D01*
%TO.C,D6*%
X163592000Y-94270000D02*
X163592000Y-98170000D01*
X165592000Y-94270000D02*
X165592000Y-98170000D01*
X165592000Y-94270000D02*
X163592000Y-94270000D01*
%TO.C,C36*%
X159733580Y-113604000D02*
X159452420Y-113604000D01*
X159733580Y-114624000D02*
X159452420Y-114624000D01*
%TO.C,C11*%
X147897080Y-117883000D02*
X147615920Y-117883000D01*
X147897080Y-118903000D02*
X147615920Y-118903000D01*
%TO.C,C7*%
X179596359Y-87711520D02*
X179366047Y-87550253D01*
X179011311Y-88547055D02*
X178780999Y-88385788D01*
%TO.C,J3*%
X162688000Y-141926000D02*
X162688000Y-135926000D01*
X163448000Y-141926000D02*
X162688000Y-141926000D01*
X160148000Y-141926000D02*
X160148000Y-135926000D01*
X155068000Y-132868929D02*
X155068000Y-133266000D01*
X163068000Y-130556000D02*
X164338000Y-130556000D01*
X154118000Y-135926000D02*
X164398000Y-135926000D01*
X160908000Y-135926000D02*
X160908000Y-141926000D01*
X164398000Y-133266000D02*
X154118000Y-133266000D01*
X162788000Y-135926000D02*
X162788000Y-141926000D01*
X157608000Y-132868929D02*
X157608000Y-133266000D01*
X164398000Y-135926000D02*
X164398000Y-133266000D01*
X163388000Y-135926000D02*
X163388000Y-141926000D01*
X157608000Y-141926000D02*
X157608000Y-135926000D01*
X161798000Y-133266000D02*
X161798000Y-135926000D01*
X158368000Y-132868929D02*
X158368000Y-133266000D01*
X160148000Y-132868929D02*
X160148000Y-133266000D01*
X155828000Y-132868929D02*
X155828000Y-133266000D01*
X163448000Y-135926000D02*
X163448000Y-141926000D01*
X156718000Y-133266000D02*
X156718000Y-135926000D01*
X160908000Y-141926000D02*
X160148000Y-141926000D01*
X163028000Y-135926000D02*
X163028000Y-141926000D01*
X163148000Y-135926000D02*
X163148000Y-141926000D01*
X155828000Y-135926000D02*
X155828000Y-141926000D01*
X162908000Y-135926000D02*
X162908000Y-141926000D01*
X164338000Y-130556000D02*
X164338000Y-131826000D01*
X158368000Y-141926000D02*
X157608000Y-141926000D01*
X163448000Y-132936000D02*
X163448000Y-133266000D01*
X155828000Y-141926000D02*
X155068000Y-141926000D01*
X160908000Y-132868929D02*
X160908000Y-133266000D01*
X154118000Y-133266000D02*
X154118000Y-135926000D01*
X159258000Y-133266000D02*
X159258000Y-135926000D01*
X163268000Y-135926000D02*
X163268000Y-141926000D01*
X158368000Y-135926000D02*
X158368000Y-141926000D01*
X155068000Y-141926000D02*
X155068000Y-135926000D01*
X162688000Y-132936000D02*
X162688000Y-133266000D01*
%TO.C,R4*%
X165946742Y-117684500D02*
X166421258Y-117684500D01*
X165946742Y-116639500D02*
X166421258Y-116639500D01*
%TO.C,C15*%
X184910000Y-112889420D02*
X184910000Y-113170580D01*
X185930000Y-112889420D02*
X185930000Y-113170580D01*
%TO.C,R7*%
X189055694Y-96680734D02*
X189444395Y-96952906D01*
X189655081Y-95824720D02*
X190043782Y-96096892D01*
%TO.C,C13*%
X160784000Y-108571420D02*
X160784000Y-108852580D01*
X159764000Y-108571420D02*
X159764000Y-108852580D01*
%TO.C,R15*%
X156703500Y-94504742D02*
X156703500Y-94979258D01*
X157748500Y-94504742D02*
X157748500Y-94979258D01*
%TO.C,R2*%
X191168175Y-93663797D02*
X191556876Y-93935969D01*
X191767562Y-92807783D02*
X192156263Y-93079955D01*
%TO.C,C5*%
X190819769Y-94329925D02*
X191050081Y-94491192D01*
X190234721Y-95165460D02*
X190465033Y-95326727D01*
%TO.C,J2*%
X138744000Y-99822000D02*
X136084000Y-99822000D01*
X138744000Y-92142000D02*
X136084000Y-92142000D01*
X138744000Y-101092000D02*
X138744000Y-102422000D01*
X136084000Y-99822000D02*
X136084000Y-92142000D01*
X138744000Y-99822000D02*
X138744000Y-92142000D01*
X138744000Y-102422000D02*
X137414000Y-102422000D01*
%TO.C,C22*%
X174615671Y-73690452D02*
X173110329Y-73690452D01*
X176306452Y-70494329D02*
X173863000Y-68050877D01*
X173863000Y-68050877D02*
X173014472Y-68899405D01*
X174615671Y-73690452D02*
X174711528Y-73594595D01*
X176306452Y-71999671D02*
X176210595Y-72095528D01*
X176306452Y-71999671D02*
X176306452Y-70494329D01*
X170666877Y-71247000D02*
X171515405Y-70398472D01*
X174881234Y-74471407D02*
X174527680Y-74117854D01*
X173110329Y-73690452D02*
X170666877Y-71247000D01*
X174527680Y-74471407D02*
X174881234Y-74117854D01*
%TO.C,R1*%
X150859258Y-121553500D02*
X150384742Y-121553500D01*
X150859258Y-120508500D02*
X150384742Y-120508500D01*
%TO.C,D3*%
X180569793Y-86491159D02*
X182806741Y-83296466D01*
X178931489Y-85344006D02*
X180569793Y-86491159D01*
X178931489Y-85344006D02*
X181168437Y-82149313D01*
%TO.C,Y1*%
X149773000Y-115266500D02*
X149773000Y-119266500D01*
X153073000Y-115266500D02*
X149773000Y-115266500D01*
%TO.C,R5*%
X166009742Y-120732500D02*
X166484258Y-120732500D01*
X166009742Y-119687500D02*
X166484258Y-119687500D01*
%TO.C,U3*%
X162174000Y-116346000D02*
X162174000Y-116821000D01*
X155429000Y-116346000D02*
X154954000Y-116346000D01*
X162174000Y-123566000D02*
X162174000Y-123091000D01*
X161699000Y-123566000D02*
X162174000Y-123566000D01*
X155429000Y-123566000D02*
X154954000Y-123566000D01*
X154954000Y-123566000D02*
X154954000Y-123091000D01*
X161699000Y-116346000D02*
X162174000Y-116346000D01*
%TO.C,R8*%
X188635262Y-97281173D02*
X189023963Y-97553345D01*
X188035875Y-98137187D02*
X188424576Y-98409359D01*
%TO.C,U4*%
X181972000Y-103196000D02*
X181972000Y-99436000D01*
X181972000Y-99436000D02*
X180712000Y-99436000D01*
X175152000Y-99436000D02*
X176412000Y-99436000D01*
X175152000Y-105446000D02*
X175152000Y-99436000D01*
%TO.C,L1*%
X189552856Y-89883046D02*
X188233630Y-91767095D01*
X182171905Y-87522630D02*
X183491130Y-85638580D01*
X185097144Y-83344954D02*
X186416370Y-81460905D01*
X186416370Y-81460905D02*
X192478095Y-85705370D01*
X192478095Y-85705370D02*
X191158870Y-87589420D01*
X188233630Y-91767095D02*
X182171905Y-87522630D01*
%TO.C,D1*%
X169194000Y-117897000D02*
X171479000Y-117897000D01*
X171479000Y-117897000D02*
X171479000Y-116427000D01*
X171479000Y-116427000D02*
X169194000Y-116427000D01*
%TD*%
M02*
