%TF.GenerationSoftware,KiCad,Pcbnew,(6.0.6)*%
%TF.CreationDate,2022-10-05T22:51:16+08:00*%
%TF.ProjectId,rm_foc_driver,726d5f66-6f63-45f6-9472-697665722e6b,rev?*%
%TF.SameCoordinates,Original*%
%TF.FileFunction,Copper,L3,Inr*%
%TF.FilePolarity,Positive*%
%FSLAX46Y46*%
G04 Gerber Fmt 4.6, Leading zero omitted, Abs format (unit mm)*
G04 Created by KiCad (PCBNEW (6.0.6)) date 2022-10-05 22:51:16*
%MOMM*%
%LPD*%
G01*
G04 APERTURE LIST*
G04 Aperture macros list*
%AMHorizOval*
0 Thick line with rounded ends*
0 $1 width*
0 $2 $3 position (X,Y) of the first rounded end (center of the circle)*
0 $4 $5 position (X,Y) of the second rounded end (center of the circle)*
0 Add line between two ends*
20,1,$1,$2,$3,$4,$5,0*
0 Add two circle primitives to create the rounded ends*
1,1,$1,$2,$3*
1,1,$1,$4,$5*%
%AMRotRect*
0 Rectangle, with rotation*
0 The origin of the aperture is its center*
0 $1 length*
0 $2 width*
0 $3 Rotation angle, in degrees counterclockwise*
0 Add horizontal line*
21,1,$1,$2,0,0,$3*%
G04 Aperture macros list end*
%TA.AperFunction,ComponentPad*%
%ADD10RotRect,1.700000X1.700000X232.000000*%
%TD*%
%TA.AperFunction,ComponentPad*%
%ADD11HorizOval,1.700000X0.000000X0.000000X0.000000X0.000000X0*%
%TD*%
%TA.AperFunction,ComponentPad*%
%ADD12R,1.700000X1.700000*%
%TD*%
%TA.AperFunction,ComponentPad*%
%ADD13O,1.700000X1.700000*%
%TD*%
%TA.AperFunction,ComponentPad*%
%ADD14C,1.400000*%
%TD*%
%TA.AperFunction,ComponentPad*%
%ADD15RotRect,3.500000X3.500000X325.000000*%
%TD*%
%TA.AperFunction,ComponentPad*%
%ADD16C,3.500000*%
%TD*%
%TA.AperFunction,ComponentPad*%
%ADD17RotRect,3.000000X3.000000X10.000000*%
%TD*%
%TA.AperFunction,ComponentPad*%
%ADD18C,3.000000*%
%TD*%
%TA.AperFunction,ComponentPad*%
%ADD19C,0.500000*%
%TD*%
%TA.AperFunction,ViaPad*%
%ADD20C,0.400000*%
%TD*%
%TA.AperFunction,ViaPad*%
%ADD21C,0.800000*%
%TD*%
%TA.AperFunction,Conductor*%
%ADD22C,0.177800*%
%TD*%
G04 APERTURE END LIST*
D10*
%TO.N,/MOSI*%
%TO.C,J4*%
X148590000Y-128651000D03*
D11*
%TO.N,/MISO*%
X146588453Y-127087220D03*
%TO.N,/SCLK*%
X144586905Y-125523440D03*
%TO.N,/CS2*%
X142585358Y-123959660D03*
%TD*%
D12*
%TO.N,+3.3V*%
%TO.C,J1*%
X174869000Y-131769000D03*
D13*
%TO.N,/SWDIO*%
X172329000Y-131769000D03*
%TO.N,/SWCLK*%
X169789000Y-131769000D03*
%TO.N,GND*%
X167249000Y-131769000D03*
%TD*%
D14*
%TO.N,*%
%TO.C,J6*%
X194883220Y-70491209D03*
X185872548Y-64181868D03*
D15*
%TO.N,GND*%
X186690000Y-76962000D03*
D16*
%TO.N,+24V*%
X182594240Y-74094118D03*
%TD*%
D14*
%TO.N,*%
%TO.C,J8*%
X161715778Y-64309412D03*
X148913278Y-66566838D03*
D17*
%TO.N,/SH_C*%
X159629596Y-69754395D03*
D18*
%TO.N,/SH_B*%
X156182769Y-70362164D03*
%TO.N,/SH_A*%
X152735942Y-70969932D03*
%TD*%
D19*
%TO.N,GND*%
%TO.C,U1*%
X182878052Y-95173399D03*
X184369351Y-93043604D03*
X182558804Y-93362852D03*
X183304454Y-92297955D03*
X183623702Y-94108502D03*
X181813155Y-94427750D03*
%TD*%
D12*
%TO.N,+5V*%
%TO.C,J3*%
X163068000Y-131826000D03*
D13*
%TO.N,/TXD*%
X160528000Y-131826000D03*
%TO.N,/RXD*%
X157988000Y-131826000D03*
%TO.N,GND*%
X155448000Y-131826000D03*
%TD*%
D12*
%TO.N,/PWM1*%
%TO.C,J2*%
X137414000Y-101092000D03*
D13*
%TO.N,/PWM2*%
X137414000Y-98552000D03*
%TO.N,/PWM3*%
X137414000Y-96012000D03*
%TO.N,GND*%
X137414000Y-93472000D03*
%TD*%
D20*
%TO.N,*%
X148844000Y-83566000D03*
X149098000Y-84582000D03*
%TO.N,+5V*%
X185420000Y-112268000D03*
X178562000Y-105156000D03*
X178562000Y-104394000D03*
X162814000Y-105664000D03*
%TO.N,GND*%
X196088000Y-109728000D03*
X173482000Y-120904000D03*
X180340000Y-109982000D03*
X187452000Y-80264000D03*
X171704000Y-89916000D03*
X154940000Y-103886000D03*
X182880000Y-79502000D03*
X180086000Y-101854000D03*
X165100000Y-111760000D03*
X136144000Y-105156000D03*
X161544000Y-104902000D03*
X165100000Y-68834000D03*
X137160000Y-118872000D03*
X175260000Y-117856000D03*
X186436000Y-108712000D03*
X175768000Y-109220000D03*
X195580000Y-96520000D03*
X156972000Y-120396000D03*
X144526000Y-117094000D03*
X155194000Y-106172000D03*
X158496000Y-120142000D03*
X176530000Y-116078000D03*
X187706000Y-114046000D03*
X159004000Y-77470000D03*
X168402000Y-70104000D03*
X195580000Y-93980000D03*
X169164000Y-76962000D03*
X175006000Y-115316000D03*
X159512000Y-79502000D03*
X159258000Y-78486000D03*
X186690000Y-122174000D03*
X148082000Y-105664000D03*
X167894000Y-112014000D03*
X134366000Y-106934000D03*
X135128000Y-104648000D03*
X158496000Y-121158000D03*
X179832000Y-100838000D03*
X167640000Y-78994000D03*
X134112000Y-111252000D03*
X148082000Y-104648000D03*
X156972000Y-119634000D03*
X135382000Y-115570000D03*
X136652000Y-116840000D03*
X137414000Y-86106000D03*
X180848000Y-100330000D03*
X160274000Y-119380000D03*
X191516000Y-82550000D03*
X169926000Y-89662000D03*
X156972000Y-118618000D03*
X156718000Y-113792000D03*
X186690000Y-118364000D03*
X158750000Y-122174000D03*
X159004000Y-76708000D03*
X171704000Y-92202000D03*
X187960000Y-121666000D03*
X137414000Y-114300000D03*
X192786000Y-88138000D03*
X160528000Y-122174000D03*
X167894000Y-75946000D03*
X191770000Y-89662000D03*
X171450000Y-87376000D03*
X166116000Y-91948000D03*
X189484000Y-81026000D03*
X161544000Y-106680000D03*
X184150000Y-79756000D03*
X159766000Y-118618000D03*
X138176000Y-89408000D03*
X168910000Y-90678000D03*
X170180000Y-92202000D03*
X156972000Y-122174000D03*
X169418000Y-88392000D03*
X151130000Y-123444000D03*
X136906000Y-112014000D03*
X181356000Y-102362000D03*
X143510000Y-118618000D03*
X153416000Y-110490000D03*
X175768000Y-110998000D03*
X195580000Y-105156000D03*
X177292000Y-109474000D03*
X138430000Y-84582000D03*
X173228000Y-118364000D03*
X174752000Y-119126000D03*
X167894000Y-113792000D03*
X143002000Y-118364000D03*
X138938000Y-83058000D03*
X180848000Y-101600000D03*
X187706000Y-106426000D03*
X185674000Y-106934000D03*
X136652000Y-88138000D03*
X148844000Y-106172000D03*
X192532000Y-83820000D03*
X142494000Y-116840000D03*
X155956000Y-114808000D03*
X194310000Y-108204000D03*
X176530000Y-119380000D03*
X155194000Y-105410000D03*
X195580000Y-92964000D03*
X137414000Y-110490000D03*
X134620000Y-105664000D03*
X138938000Y-90424000D03*
X158242000Y-75946000D03*
X158496000Y-78994000D03*
X158496000Y-77216000D03*
X195580000Y-95250000D03*
X147828000Y-109728000D03*
X156972000Y-121666000D03*
X158242000Y-80010000D03*
X174752000Y-119888000D03*
X148844000Y-104902000D03*
X147066000Y-110236000D03*
X151130000Y-122682000D03*
X161544000Y-106172000D03*
X166878000Y-113284000D03*
X158750000Y-75692000D03*
X187706000Y-117348000D03*
X191770000Y-110490000D03*
X179832000Y-100076000D03*
X192278000Y-117602000D03*
X158242000Y-74676000D03*
X155194000Y-104394000D03*
X188976000Y-120142000D03*
X173228000Y-117348000D03*
X158496000Y-78232000D03*
X193548000Y-114300000D03*
X135382000Y-113538000D03*
X134366000Y-107442000D03*
X166878000Y-111760000D03*
X152908000Y-110236000D03*
X158750000Y-119126000D03*
X192278000Y-88646000D03*
X183896000Y-112776000D03*
X160528000Y-121158000D03*
X148590000Y-109220000D03*
X183134000Y-112776000D03*
D21*
%TO.N,+12V*%
X188214000Y-92964000D03*
X188722000Y-95758000D03*
D20*
%TO.N,/SH_A*%
X146812000Y-82296000D03*
X146304000Y-84328000D03*
X145288000Y-78740000D03*
X147320000Y-79248000D03*
X145288000Y-78232000D03*
X148336000Y-80264000D03*
X147828000Y-79756000D03*
X145288000Y-83312000D03*
X144780000Y-80772000D03*
X145796000Y-79248000D03*
X148336000Y-79756000D03*
X147320000Y-83820000D03*
X146812000Y-77724000D03*
X145796000Y-84328000D03*
X147320000Y-79756000D03*
X147320000Y-82804000D03*
X148336000Y-78740000D03*
X146304000Y-81280000D03*
X148336000Y-78232000D03*
X145288000Y-83820000D03*
X148336000Y-77724000D03*
X148336000Y-81280000D03*
X146812000Y-81788000D03*
X144780000Y-82296000D03*
X146812000Y-83312000D03*
X146304000Y-78740000D03*
X145288000Y-81788000D03*
X145796000Y-79756000D03*
X146812000Y-78232000D03*
X145288000Y-79248000D03*
X146812000Y-80772000D03*
X146304000Y-82804000D03*
X144780000Y-79756000D03*
X144780000Y-84328000D03*
X145288000Y-80772000D03*
X145288000Y-79756000D03*
X145796000Y-81788000D03*
X146812000Y-84328000D03*
X146304000Y-83312000D03*
X148336000Y-79248000D03*
X147320000Y-78740000D03*
X145796000Y-83312000D03*
X147320000Y-81788000D03*
X145288000Y-82804000D03*
X146304000Y-79248000D03*
X147320000Y-80772000D03*
X144780000Y-83820000D03*
X147828000Y-80772000D03*
X147320000Y-78232000D03*
X148844000Y-78232000D03*
X145796000Y-78232000D03*
X147828000Y-78232000D03*
X145796000Y-77724000D03*
X147828000Y-79248000D03*
X146812000Y-79248000D03*
X145796000Y-80772000D03*
X147828000Y-78740000D03*
X145288000Y-82296000D03*
X145796000Y-78740000D03*
X144780000Y-78740000D03*
X146304000Y-80772000D03*
X145288000Y-77724000D03*
X145796000Y-81280000D03*
X146304000Y-80264000D03*
X144780000Y-81788000D03*
X146304000Y-78232000D03*
X144780000Y-81280000D03*
X146304000Y-77724000D03*
X147320000Y-81280000D03*
X144780000Y-83312000D03*
X147320000Y-82296000D03*
X146304000Y-82296000D03*
X146304000Y-79756000D03*
X145288000Y-81280000D03*
X144780000Y-78232000D03*
X146812000Y-80264000D03*
X146812000Y-81280000D03*
X144780000Y-80264000D03*
X147320000Y-83312000D03*
X147828000Y-77724000D03*
X147320000Y-77724000D03*
X144780000Y-82804000D03*
X147828000Y-80264000D03*
X147320000Y-80264000D03*
X145288000Y-84328000D03*
X145796000Y-80264000D03*
X145796000Y-82804000D03*
X146304000Y-83820000D03*
X148336000Y-80772000D03*
X144780000Y-77724000D03*
X145796000Y-82296000D03*
X146812000Y-82804000D03*
X147320000Y-84328000D03*
X146812000Y-78740000D03*
X146304000Y-81788000D03*
X146812000Y-83820000D03*
X146812000Y-79756000D03*
X144780000Y-79248000D03*
X147828000Y-81280000D03*
X148844000Y-77724000D03*
X145288000Y-80264000D03*
X148844000Y-78740000D03*
X145796000Y-83820000D03*
%TO.N,/SH_B*%
X153924000Y-80264000D03*
X154432000Y-79756000D03*
X152908000Y-81788000D03*
X153924000Y-79248000D03*
X155448000Y-79248000D03*
X155956000Y-78740000D03*
X155956000Y-80772000D03*
X156464000Y-79756000D03*
X156464000Y-81280000D03*
X155448000Y-84328000D03*
X155956000Y-79248000D03*
X154940000Y-80772000D03*
X154940000Y-83820000D03*
X153416000Y-79756000D03*
X154432000Y-79248000D03*
X154432000Y-84328000D03*
X156464000Y-80772000D03*
X156972000Y-77724000D03*
X156464000Y-78740000D03*
X156464000Y-80264000D03*
X153924000Y-80772000D03*
X153416000Y-81280000D03*
X152908000Y-79248000D03*
X152908000Y-81280000D03*
X155956000Y-79756000D03*
X155448000Y-78232000D03*
X152908000Y-77724000D03*
X153924000Y-78232000D03*
X152908000Y-82804000D03*
X153924000Y-82804000D03*
X155448000Y-83312000D03*
X153416000Y-77724000D03*
X154940000Y-79248000D03*
X156972000Y-80264000D03*
X156972000Y-79248000D03*
X154432000Y-83312000D03*
X153924000Y-79756000D03*
X155448000Y-82804000D03*
X154940000Y-82804000D03*
X152908000Y-78740000D03*
X154432000Y-83820000D03*
X154432000Y-82804000D03*
X153416000Y-84328000D03*
X156464000Y-79248000D03*
X153416000Y-83820000D03*
X154940000Y-79756000D03*
X152908000Y-78232000D03*
X156972000Y-78740000D03*
X153416000Y-83312000D03*
X153416000Y-82296000D03*
X153924000Y-78740000D03*
X154940000Y-81280000D03*
X155448000Y-78740000D03*
X154940000Y-82296000D03*
X152908000Y-83820000D03*
X153416000Y-79248000D03*
X153924000Y-82296000D03*
X152908000Y-84328000D03*
X152908000Y-82296000D03*
X153416000Y-80772000D03*
X153924000Y-77724000D03*
X154432000Y-78232000D03*
X154432000Y-78740000D03*
X154432000Y-81788000D03*
X154940000Y-83312000D03*
X154940000Y-78740000D03*
X156464000Y-77724000D03*
X155448000Y-80772000D03*
X153416000Y-78740000D03*
X155956000Y-80264000D03*
X153924000Y-83820000D03*
X154940000Y-80264000D03*
X154940000Y-78232000D03*
X152400000Y-92964000D03*
X155448000Y-81788000D03*
X154432000Y-82296000D03*
X155448000Y-79756000D03*
X155448000Y-81280000D03*
X155448000Y-77724000D03*
X154432000Y-80264000D03*
X154432000Y-80772000D03*
X154432000Y-77724000D03*
X153924000Y-84328000D03*
X156464000Y-78232000D03*
X153416000Y-81788000D03*
X154940000Y-84328000D03*
X153416000Y-78232000D03*
X155448000Y-83820000D03*
X155956000Y-77724000D03*
X155956000Y-78232000D03*
X156972000Y-79756000D03*
X156972000Y-81280000D03*
X153416000Y-82804000D03*
X155448000Y-82296000D03*
X156972000Y-80772000D03*
X155448000Y-80264000D03*
X152908000Y-83312000D03*
X153416000Y-80264000D03*
X156972000Y-78232000D03*
X152908000Y-80772000D03*
X153924000Y-83312000D03*
X153924000Y-81788000D03*
X155956000Y-81280000D03*
X154432000Y-81280000D03*
X154940000Y-77724000D03*
X153924000Y-81280000D03*
X154940000Y-81788000D03*
%TO.N,+3.3V*%
X152908000Y-120812497D03*
X163576000Y-114046000D03*
X158750000Y-114046000D03*
X152654000Y-114046000D03*
D21*
X190246000Y-91440000D03*
D20*
X150368000Y-120904000D03*
X164592000Y-123190000D03*
%TO.N,Net-(D1-Pad1)*%
X159004000Y-115588500D03*
X164846000Y-115062000D03*
%TO.N,/SWDIO*%
X163322000Y-118110000D03*
%TO.N,/SWCLK*%
X161290000Y-115588500D03*
%TO.N,/TXD*%
X163830000Y-120650000D03*
%TO.N,/RXD*%
X163068000Y-119634000D03*
%TO.N,/SH_C*%
X161798000Y-78486000D03*
X162306000Y-81026000D03*
X161798000Y-77978000D03*
X161290000Y-79502000D03*
X159004000Y-92964000D03*
X162814000Y-82042000D03*
X161290000Y-77470000D03*
X162306000Y-77470000D03*
X162306000Y-83566000D03*
X164338000Y-78994000D03*
X163322000Y-80518000D03*
X161290000Y-80518000D03*
X161798000Y-83058000D03*
X163322000Y-84074000D03*
X164846000Y-77978000D03*
X160782000Y-81534000D03*
X163830000Y-78994000D03*
X162814000Y-82550000D03*
X163322000Y-79502000D03*
X162814000Y-83058000D03*
X161798000Y-83566000D03*
X164338000Y-80010000D03*
X162814000Y-77470000D03*
X161290000Y-80010000D03*
X162306000Y-81534000D03*
X164338000Y-77470000D03*
X164846000Y-80010000D03*
X162306000Y-82042000D03*
X163830000Y-81026000D03*
X160782000Y-82550000D03*
X164338000Y-81026000D03*
X162306000Y-77978000D03*
X161290000Y-82042000D03*
X163322000Y-81534000D03*
X161798000Y-80010000D03*
X163322000Y-83566000D03*
X162306000Y-83058000D03*
X162306000Y-82550000D03*
X162814000Y-78994000D03*
X161290000Y-84074000D03*
X160782000Y-79502000D03*
X160782000Y-77978000D03*
X163322000Y-82550000D03*
X163322000Y-77470000D03*
X164846000Y-80518000D03*
X163322000Y-82042000D03*
X160782000Y-83566000D03*
X162814000Y-79502000D03*
X162306000Y-80518000D03*
X163322000Y-81026000D03*
X163322000Y-80010000D03*
X161798000Y-80518000D03*
X164846000Y-79502000D03*
X161798000Y-78994000D03*
X163830000Y-81534000D03*
X162306000Y-80010000D03*
X160782000Y-80518000D03*
X161290000Y-83566000D03*
X164846000Y-77470000D03*
X164846000Y-78994000D03*
X161290000Y-83058000D03*
X162814000Y-77978000D03*
X161290000Y-78486000D03*
X160782000Y-83058000D03*
X162814000Y-81534000D03*
X164338000Y-78486000D03*
X163322000Y-78994000D03*
X162306000Y-78994000D03*
X161798000Y-82042000D03*
X162306000Y-78486000D03*
X162814000Y-81026000D03*
X162814000Y-80010000D03*
X162814000Y-84074000D03*
X160782000Y-82042000D03*
X163830000Y-80010000D03*
X163322000Y-78486000D03*
X164338000Y-81534000D03*
X164846000Y-78486000D03*
X160782000Y-81026000D03*
X161798000Y-82550000D03*
X160782000Y-78994000D03*
X161798000Y-84074000D03*
X161798000Y-81026000D03*
X162814000Y-78486000D03*
X163830000Y-79502000D03*
X161290000Y-77978000D03*
X160782000Y-77470000D03*
X163322000Y-77978000D03*
X164338000Y-80518000D03*
X164338000Y-77978000D03*
X164846000Y-81534000D03*
X162306000Y-84074000D03*
X162814000Y-83566000D03*
X160782000Y-84074000D03*
X162814000Y-80518000D03*
X162306000Y-79502000D03*
X161290000Y-82550000D03*
X161798000Y-77470000D03*
X164846000Y-81026000D03*
X161290000Y-78994000D03*
X164338000Y-79502000D03*
X161798000Y-81534000D03*
X163830000Y-80518000D03*
X160782000Y-78486000D03*
X163830000Y-78486000D03*
X163322000Y-83058000D03*
X161290000Y-81534000D03*
X161798000Y-79502000D03*
X161290000Y-81026000D03*
X163830000Y-77978000D03*
X160782000Y-80010000D03*
X163830000Y-77470000D03*
%TO.N,/GH_A*%
X143510000Y-84328000D03*
X143510000Y-93980000D03*
%TO.N,/GL_A*%
X148336000Y-93980000D03*
X142748000Y-81534000D03*
%TO.N,/SL_A*%
X142494000Y-77470000D03*
X141986000Y-80518000D03*
X143002000Y-77470000D03*
X142494000Y-80518000D03*
X140970000Y-80010000D03*
X141478000Y-80010000D03*
X143510000Y-77978000D03*
X143002000Y-78486000D03*
X142494000Y-80010000D03*
X140970000Y-81026000D03*
X143002000Y-80010000D03*
X143002000Y-79502000D03*
X143510000Y-78486000D03*
X141478000Y-80518000D03*
X141986000Y-77978000D03*
X143510000Y-80010000D03*
X141986000Y-77470000D03*
X141478000Y-81026000D03*
X141986000Y-78486000D03*
X141986000Y-78994000D03*
X143002000Y-78994000D03*
X143002000Y-80518000D03*
X141986000Y-79502000D03*
X143510000Y-78994000D03*
X142494000Y-79502000D03*
X143510000Y-77470000D03*
X143002000Y-77978000D03*
X142494000Y-78486000D03*
X143510000Y-80518000D03*
X155194000Y-111252000D03*
X140970000Y-80518000D03*
X141986000Y-80010000D03*
X142494000Y-77978000D03*
X142494000Y-78994000D03*
X143510000Y-79502000D03*
%TO.N,/GH_B*%
X151638000Y-84074000D03*
X150622000Y-93917000D03*
%TO.N,/GL_B*%
X155194000Y-93917000D03*
X151130000Y-81534000D03*
%TO.N,/SL_B*%
X150622000Y-80264000D03*
X150114000Y-79756000D03*
X151130000Y-79248000D03*
X151638000Y-78232000D03*
X150114000Y-78232000D03*
X150622000Y-77724000D03*
X151638000Y-79756000D03*
X150622000Y-78232000D03*
X151130000Y-80264000D03*
X151130000Y-77216000D03*
X151130000Y-79756000D03*
X151638000Y-80264000D03*
X150622000Y-79248000D03*
X149606000Y-79756000D03*
X150114000Y-79248000D03*
X150114000Y-78740000D03*
X151638000Y-77216000D03*
X150114000Y-80264000D03*
X150622000Y-78740000D03*
X151130000Y-78232000D03*
X151638000Y-79248000D03*
X150622000Y-77216000D03*
X150114000Y-77724000D03*
X183134000Y-114046000D03*
X151638000Y-78740000D03*
X149606000Y-80264000D03*
X150622000Y-79756000D03*
X151130000Y-77724000D03*
X151638000Y-77724000D03*
X150114000Y-77216000D03*
X151130000Y-78740000D03*
%TO.N,/GH_C*%
X157226000Y-93917000D03*
X159766000Y-84328000D03*
%TO.N,/GL_C*%
X159004000Y-81534000D03*
X161798000Y-93980000D03*
%TO.N,/CS1*%
X154178000Y-123444000D03*
%TO.N,/SO1*%
X158496000Y-127254000D03*
X152908000Y-121412000D03*
%TO.N,/SO2*%
X159388200Y-127762000D03*
X152276200Y-121920000D03*
%TO.N,/MODE*%
X159004000Y-124460000D03*
%TO.N,/ADC1*%
X158496000Y-125730000D03*
X160274000Y-102870000D03*
%TO.N,+24V*%
X146812000Y-89662000D03*
X160782000Y-90170000D03*
X155956000Y-90170000D03*
X151130000Y-89916000D03*
X152908000Y-89916000D03*
X149352000Y-89662000D03*
X157480000Y-89662000D03*
X150622000Y-89662000D03*
X162560000Y-89662000D03*
X163322000Y-89916000D03*
X148590000Y-89916000D03*
X153416000Y-89662000D03*
X146050000Y-89916000D03*
X158242000Y-89662000D03*
X143510000Y-89916000D03*
X156210000Y-89662000D03*
%TD*%
D22*
%TO.N,/SH_B*%
X152400000Y-92964000D02*
X152400000Y-84582000D01*
X152400000Y-84582000D02*
X152908000Y-84074000D01*
%TO.N,+3.3V*%
X150368000Y-120904000D02*
X152654000Y-118618000D01*
X152654000Y-118618000D02*
X152654000Y-114046000D01*
%TO.N,/SH_C*%
X161015000Y-84328000D02*
X160909000Y-84222000D01*
X161036000Y-84328000D02*
X161015000Y-84328000D01*
X159004000Y-92964000D02*
X159004000Y-87884000D01*
X159004000Y-87884000D02*
X161036000Y-85852000D01*
X161036000Y-85852000D02*
X161036000Y-84328000D01*
%TO.N,/SL_A*%
X140970000Y-108204000D02*
X144018000Y-111252000D01*
X144018000Y-111252000D02*
X152146000Y-111252000D01*
X140970000Y-81026000D02*
X140970000Y-108204000D01*
X152146000Y-111252000D02*
X155194000Y-111252000D01*
%TO.N,/SL_B*%
X150114000Y-80264000D02*
X150114000Y-82550000D01*
X150114000Y-91694000D02*
X172466000Y-114046000D01*
X150114000Y-84582000D02*
X150114000Y-91694000D01*
X150114000Y-82550000D02*
X150114000Y-84582000D01*
X172466000Y-114046000D02*
X183134000Y-114046000D01*
%TO.N,/SO1*%
X154686000Y-127254000D02*
X152908000Y-125476000D01*
X152908000Y-125476000D02*
X152908000Y-121412000D01*
X158496000Y-127254000D02*
X154686000Y-127254000D01*
%TO.N,/SO2*%
X159388200Y-127762000D02*
X154659710Y-127762000D01*
X154659710Y-127762000D02*
X152276200Y-125378490D01*
X152276200Y-125378490D02*
X152276200Y-121920000D01*
%TO.N,/ADC1*%
X158242000Y-125476000D02*
X154686000Y-125476000D01*
X153416000Y-124206000D02*
X153416000Y-114554000D01*
X158496000Y-125730000D02*
X158242000Y-125476000D01*
X160274000Y-107696000D02*
X160274000Y-102870000D01*
X154686000Y-125476000D02*
X153416000Y-124206000D01*
X153416000Y-114554000D02*
X160274000Y-107696000D01*
%TD*%
%TA.AperFunction,Conductor*%
%TO.N,/SH_C*%
G36*
X161270692Y-70763666D02*
G01*
X161327522Y-70806221D01*
X161335917Y-70818985D01*
X161732514Y-71509831D01*
X165081185Y-77343000D01*
X165227000Y-77597000D01*
X160655000Y-77597000D01*
X158418897Y-71509831D01*
X158414183Y-71438991D01*
X158448516Y-71376848D01*
X158510402Y-71343260D01*
X160922069Y-70818985D01*
X161199877Y-70758592D01*
X161270692Y-70763666D01*
G37*
%TD.AperFunction*%
%TD*%
%TA.AperFunction,Conductor*%
%TO.N,/SH_A*%
G36*
X149040121Y-77363002D02*
G01*
X149086614Y-77416658D01*
X149098000Y-77469000D01*
X149098000Y-79206739D01*
X149075087Y-79279190D01*
X148977010Y-79418739D01*
X148914718Y-79578509D01*
X148892335Y-79748526D01*
X148911153Y-79918975D01*
X148913763Y-79926106D01*
X148913763Y-79926108D01*
X148928142Y-79965400D01*
X148932768Y-80036246D01*
X148927209Y-80054470D01*
X148917479Y-80079426D01*
X148917478Y-80079430D01*
X148914718Y-80086509D01*
X148892335Y-80256526D01*
X148911153Y-80426975D01*
X148913762Y-80434106D01*
X148913763Y-80434108D01*
X148936802Y-80497064D01*
X148970085Y-80588015D01*
X149065730Y-80730349D01*
X149068145Y-80732547D01*
X149096751Y-80795502D01*
X149098000Y-80813196D01*
X149098000Y-81535000D01*
X149077998Y-81603121D01*
X149024342Y-81649614D01*
X148972000Y-81661000D01*
X147701000Y-81661000D01*
X147701000Y-84456000D01*
X147680998Y-84524121D01*
X147627342Y-84570614D01*
X147575000Y-84582000D01*
X144652000Y-84582000D01*
X144583879Y-84561998D01*
X144537386Y-84508342D01*
X144526000Y-84456000D01*
X144526000Y-77469000D01*
X144546002Y-77400879D01*
X144599658Y-77354386D01*
X144652000Y-77343000D01*
X148972000Y-77343000D01*
X149040121Y-77363002D01*
G37*
%TD.AperFunction*%
%TD*%
%TA.AperFunction,Conductor*%
%TO.N,/SH_C*%
G36*
X165169121Y-77363002D02*
G01*
X165215614Y-77416658D01*
X165227000Y-77469000D01*
X165227000Y-81535000D01*
X165206998Y-81603121D01*
X165153342Y-81649614D01*
X165101000Y-81661000D01*
X163830000Y-81661000D01*
X163830000Y-84456000D01*
X163809998Y-84524121D01*
X163756342Y-84570614D01*
X163704000Y-84582000D01*
X160781000Y-84582000D01*
X160712879Y-84561998D01*
X160666386Y-84508342D01*
X160655000Y-84456000D01*
X160655000Y-77343000D01*
X165101000Y-77343000D01*
X165169121Y-77363002D01*
G37*
%TD.AperFunction*%
%TD*%
%TA.AperFunction,Conductor*%
%TO.N,/SH_A*%
G36*
X151937975Y-69781543D02*
G01*
X151983288Y-69808918D01*
X153961823Y-71671069D01*
X153997719Y-71732320D01*
X153994801Y-71803256D01*
X153969640Y-71846530D01*
X148971000Y-77470000D01*
X144526000Y-77470000D01*
X144646754Y-77343000D01*
X144653770Y-77335621D01*
X144653771Y-77335621D01*
X151805619Y-69813849D01*
X151867054Y-69778265D01*
X151937975Y-69781543D01*
G37*
%TD.AperFunction*%
%TD*%
%TA.AperFunction,Conductor*%
%TO.N,GND*%
G36*
X165527226Y-66202925D02*
G01*
X166676548Y-66236033D01*
X166680695Y-66236221D01*
X167828258Y-66307414D01*
X167832423Y-66307742D01*
X168976962Y-66416941D01*
X168981114Y-66417406D01*
X170121445Y-66564497D01*
X170125580Y-66565100D01*
X171260402Y-66749918D01*
X171264514Y-66750658D01*
X171287021Y-66755094D01*
X172392609Y-66973003D01*
X172396633Y-66973866D01*
X172936729Y-67099054D01*
X173516732Y-67233492D01*
X173520786Y-67234503D01*
X173800799Y-67309270D01*
X174631659Y-67531121D01*
X174635635Y-67532254D01*
X175290703Y-67730655D01*
X175736039Y-67865534D01*
X175740017Y-67866811D01*
X176828752Y-68236387D01*
X176832679Y-68237793D01*
X177908607Y-68643279D01*
X177912458Y-68644803D01*
X178974370Y-69085748D01*
X178978150Y-69087392D01*
X179470017Y-69311030D01*
X180024838Y-69563292D01*
X180028613Y-69565085D01*
X181058905Y-70075407D01*
X181062617Y-70077323D01*
X182075426Y-70621524D01*
X182079068Y-70623559D01*
X183073321Y-71201068D01*
X183076831Y-71203184D01*
X183588410Y-71523476D01*
X184051405Y-71813350D01*
X184054909Y-71815626D01*
X184736508Y-72274505D01*
X185008372Y-72457534D01*
X185008642Y-72457716D01*
X185012063Y-72460102D01*
X185944056Y-73133513D01*
X185947370Y-73135993D01*
X186756314Y-73762344D01*
X186856470Y-73839893D01*
X186859731Y-73842506D01*
X187745013Y-74576178D01*
X187748185Y-74578896D01*
X188608634Y-75341496D01*
X188611708Y-75344312D01*
X189212684Y-75913622D01*
X189446415Y-76135037D01*
X189449400Y-76137960D01*
X190257425Y-76955918D01*
X190260312Y-76958939D01*
X190374811Y-77082803D01*
X190881916Y-77631385D01*
X191040776Y-77803239D01*
X191043556Y-77806348D01*
X191121305Y-77896263D01*
X191795594Y-78676058D01*
X191798274Y-78679263D01*
X191985972Y-78911464D01*
X192513628Y-79564228D01*
X192521078Y-79573445D01*
X192523643Y-79576730D01*
X193085664Y-80321203D01*
X193216372Y-80494344D01*
X193218834Y-80497719D01*
X193880797Y-81437853D01*
X193883145Y-81441309D01*
X194513541Y-82402822D01*
X194515774Y-82406354D01*
X195113955Y-83388259D01*
X195116069Y-83391862D01*
X195681365Y-84393056D01*
X195683359Y-84396728D01*
X196215164Y-85416144D01*
X196217034Y-85419880D01*
X196714725Y-86456319D01*
X196716471Y-86460115D01*
X197179538Y-87512512D01*
X197181155Y-87516360D01*
X197333151Y-87895416D01*
X197609065Y-88583509D01*
X197610556Y-88587412D01*
X198002862Y-89668198D01*
X198004222Y-89672148D01*
X198360469Y-90765317D01*
X198361696Y-90769304D01*
X198679939Y-91868282D01*
X198681514Y-91873722D01*
X198682603Y-91877731D01*
X198916730Y-92799609D01*
X198965625Y-92992132D01*
X198966586Y-92996198D01*
X199212498Y-94119342D01*
X199213324Y-94123437D01*
X199421865Y-95254128D01*
X199422555Y-95258249D01*
X199593497Y-96395265D01*
X199594049Y-96399407D01*
X199637462Y-96771766D01*
X199724462Y-97517977D01*
X199727194Y-97541413D01*
X199727608Y-97545560D01*
X199811530Y-98555522D01*
X199822819Y-98691384D01*
X199823096Y-98695553D01*
X199880263Y-99843883D01*
X199880402Y-99848059D01*
X199899475Y-100998246D01*
X199899488Y-101001306D01*
X199897115Y-101303447D01*
X199895219Y-101544844D01*
X199895157Y-101547922D01*
X199860153Y-102631658D01*
X199858022Y-102697625D01*
X199857819Y-102701770D01*
X199813029Y-103385146D01*
X199782620Y-103849092D01*
X199782278Y-103853256D01*
X199669082Y-104997439D01*
X199668602Y-105001589D01*
X199517531Y-106141400D01*
X199516913Y-106145533D01*
X199367594Y-107042638D01*
X199328139Y-107279679D01*
X199327388Y-107283771D01*
X199250345Y-107667593D01*
X199101108Y-108411070D01*
X199100218Y-108415152D01*
X198836692Y-109534306D01*
X198835667Y-109538357D01*
X198535177Y-110648174D01*
X198534020Y-110652181D01*
X198248077Y-111584550D01*
X198196906Y-111751401D01*
X198195622Y-111755353D01*
X197825018Y-112834727D01*
X197822235Y-112842832D01*
X197820817Y-112846749D01*
X197411791Y-113920696D01*
X197411586Y-113921233D01*
X197410041Y-113925097D01*
X197268847Y-114261805D01*
X196965408Y-114985422D01*
X196963729Y-114989247D01*
X196484196Y-116034229D01*
X196482391Y-116037997D01*
X195968458Y-117066538D01*
X195966530Y-117070240D01*
X195426057Y-118067744D01*
X195418801Y-118081135D01*
X195416753Y-118084770D01*
X195267597Y-118339509D01*
X194835803Y-119076957D01*
X194833633Y-119080527D01*
X194220100Y-120052919D01*
X194217814Y-120056413D01*
X193727872Y-120778696D01*
X193572363Y-121007950D01*
X193569960Y-121011368D01*
X192893354Y-121940929D01*
X192890840Y-121944266D01*
X192220074Y-122804354D01*
X192183746Y-122850935D01*
X192181136Y-122854169D01*
X191680661Y-123453793D01*
X191444391Y-123736870D01*
X191441661Y-123740033D01*
X191343965Y-123849492D01*
X190695403Y-124576145D01*
X190676064Y-124597812D01*
X190673232Y-124600882D01*
X189880778Y-125431589D01*
X189879589Y-125432835D01*
X189876668Y-125435797D01*
X189055860Y-126240996D01*
X189052874Y-126243829D01*
X188652708Y-126611157D01*
X188205845Y-127021349D01*
X188202721Y-127024123D01*
X187330366Y-127773144D01*
X187327151Y-127775812D01*
X186430497Y-128495452D01*
X186427196Y-128498013D01*
X185507144Y-129187553D01*
X185503760Y-129190003D01*
X184561356Y-129848657D01*
X184557901Y-129850988D01*
X184254618Y-130048319D01*
X183594143Y-130478056D01*
X183590603Y-130480276D01*
X182606616Y-131075027D01*
X182603005Y-131077128D01*
X181599858Y-131638918D01*
X181596179Y-131640899D01*
X180574949Y-132169123D01*
X180571207Y-132170981D01*
X179533012Y-132665063D01*
X179529210Y-132666796D01*
X178475187Y-133126193D01*
X178471330Y-133127798D01*
X177402688Y-133551983D01*
X177398779Y-133553460D01*
X176316668Y-133941977D01*
X176312713Y-133943324D01*
X175218269Y-134295765D01*
X175214272Y-134296979D01*
X174108798Y-134612925D01*
X174104762Y-134614007D01*
X173821520Y-134684890D01*
X172989347Y-134893146D01*
X172985335Y-134894079D01*
X171861288Y-135136080D01*
X171857190Y-135136891D01*
X170725783Y-135341483D01*
X170721660Y-135342158D01*
X169584083Y-135509126D01*
X169579939Y-135509664D01*
X168437476Y-135638821D01*
X168433318Y-135639222D01*
X167558958Y-135708804D01*
X167287146Y-135730434D01*
X167282986Y-135730696D01*
X167180979Y-135735417D01*
X166134458Y-135783854D01*
X166130281Y-135783978D01*
X164980634Y-135799028D01*
X164976456Y-135799014D01*
X163889415Y-135777193D01*
X163826907Y-135775938D01*
X163822735Y-135775785D01*
X163682401Y-135768308D01*
X162674580Y-135714608D01*
X162670412Y-135714316D01*
X162227853Y-135675987D01*
X161524939Y-135615108D01*
X161520839Y-135614685D01*
X160379241Y-135477546D01*
X160375100Y-135476979D01*
X159238721Y-135302074D01*
X159234602Y-135301370D01*
X158868679Y-135232559D01*
X158104604Y-135088876D01*
X158100540Y-135088041D01*
X157441133Y-134941250D01*
X156978263Y-134838210D01*
X156974201Y-134837235D01*
X155860825Y-134550333D01*
X155856796Y-134549224D01*
X154753465Y-134225542D01*
X154749531Y-134224316D01*
X153864763Y-133932563D01*
X153657583Y-133864245D01*
X153653638Y-133862871D01*
X153209294Y-133699825D01*
X152574237Y-133466799D01*
X152570375Y-133465309D01*
X151504662Y-133033651D01*
X151500845Y-133032030D01*
X150450080Y-132565297D01*
X150446290Y-132563538D01*
X149411559Y-132062215D01*
X149407830Y-132060331D01*
X149406941Y-132059863D01*
X148934428Y-131811262D01*
X156932520Y-131811262D01*
X156933036Y-131817406D01*
X156948096Y-131996744D01*
X156949759Y-132016553D01*
X156951458Y-132022478D01*
X157001887Y-132198344D01*
X157006544Y-132214586D01*
X157009359Y-132220063D01*
X157009360Y-132220066D01*
X157097897Y-132392341D01*
X157100712Y-132397818D01*
X157228677Y-132559270D01*
X157233370Y-132563264D01*
X157233371Y-132563265D01*
X157352984Y-132665063D01*
X157385564Y-132692791D01*
X157390942Y-132695797D01*
X157390944Y-132695798D01*
X157422563Y-132713469D01*
X157565398Y-132793297D01*
X157649280Y-132820552D01*
X157755471Y-132855056D01*
X157755475Y-132855057D01*
X157761329Y-132856959D01*
X157965894Y-132881351D01*
X157972029Y-132880879D01*
X157972031Y-132880879D01*
X158044625Y-132875293D01*
X158171300Y-132865546D01*
X158177230Y-132863890D01*
X158177232Y-132863890D01*
X158307770Y-132827443D01*
X158369725Y-132810145D01*
X158375214Y-132807372D01*
X158375220Y-132807370D01*
X158548116Y-132720033D01*
X158553610Y-132717258D01*
X158715951Y-132590424D01*
X158738375Y-132564446D01*
X158846540Y-132439134D01*
X158846540Y-132439133D01*
X158850564Y-132434472D01*
X158871387Y-132397818D01*
X158949276Y-132260707D01*
X158952323Y-132255344D01*
X159017351Y-132059863D01*
X159043171Y-131855474D01*
X159043583Y-131826000D01*
X159042138Y-131811262D01*
X159472520Y-131811262D01*
X159473036Y-131817406D01*
X159488096Y-131996744D01*
X159489759Y-132016553D01*
X159491458Y-132022478D01*
X159541887Y-132198344D01*
X159546544Y-132214586D01*
X159549359Y-132220063D01*
X159549360Y-132220066D01*
X159637897Y-132392341D01*
X159640712Y-132397818D01*
X159768677Y-132559270D01*
X159773370Y-132563264D01*
X159773371Y-132563265D01*
X159892984Y-132665063D01*
X159925564Y-132692791D01*
X159930942Y-132695797D01*
X159930944Y-132695798D01*
X159962563Y-132713469D01*
X160105398Y-132793297D01*
X160189280Y-132820552D01*
X160295471Y-132855056D01*
X160295475Y-132855057D01*
X160301329Y-132856959D01*
X160505894Y-132881351D01*
X160512029Y-132880879D01*
X160512031Y-132880879D01*
X160584625Y-132875293D01*
X160711300Y-132865546D01*
X160717230Y-132863890D01*
X160717232Y-132863890D01*
X160847770Y-132827443D01*
X160909725Y-132810145D01*
X160915214Y-132807372D01*
X160915220Y-132807370D01*
X161088116Y-132720033D01*
X161093610Y-132717258D01*
X161121142Y-132695748D01*
X162017500Y-132695748D01*
X162018707Y-132701816D01*
X162024968Y-132733290D01*
X162029133Y-132754231D01*
X162073448Y-132820552D01*
X162139769Y-132864867D01*
X162151938Y-132867288D01*
X162151939Y-132867288D01*
X162192184Y-132875293D01*
X162198252Y-132876500D01*
X163937748Y-132876500D01*
X163943816Y-132875293D01*
X163984061Y-132867288D01*
X163984062Y-132867288D01*
X163996231Y-132864867D01*
X164062552Y-132820552D01*
X164106867Y-132754231D01*
X164111033Y-132733290D01*
X164117293Y-132701816D01*
X164118500Y-132695748D01*
X164118500Y-131754262D01*
X168733520Y-131754262D01*
X168750759Y-131959553D01*
X168752458Y-131965478D01*
X168779657Y-132060331D01*
X168807544Y-132157586D01*
X168810359Y-132163063D01*
X168810360Y-132163066D01*
X168898897Y-132335341D01*
X168901712Y-132340818D01*
X169029677Y-132502270D01*
X169034370Y-132506264D01*
X169034371Y-132506265D01*
X169103734Y-132565297D01*
X169186564Y-132635791D01*
X169366398Y-132736297D01*
X169450280Y-132763552D01*
X169556471Y-132798056D01*
X169556475Y-132798057D01*
X169562329Y-132799959D01*
X169766894Y-132824351D01*
X169773029Y-132823879D01*
X169773031Y-132823879D01*
X169845625Y-132818293D01*
X169972300Y-132808546D01*
X169978230Y-132806890D01*
X169978232Y-132806890D01*
X170164797Y-132754800D01*
X170164796Y-132754800D01*
X170170725Y-132753145D01*
X170176214Y-132750372D01*
X170176220Y-132750370D01*
X170343312Y-132665965D01*
X170354610Y-132660258D01*
X170516951Y-132533424D01*
X170602364Y-132434472D01*
X170647540Y-132382134D01*
X170647540Y-132382133D01*
X170651564Y-132377472D01*
X170672387Y-132340818D01*
X170744096Y-132214586D01*
X170753323Y-132198344D01*
X170818351Y-132002863D01*
X170844171Y-131798474D01*
X170844583Y-131769000D01*
X170843138Y-131754262D01*
X171273520Y-131754262D01*
X171290759Y-131959553D01*
X171292458Y-131965478D01*
X171319657Y-132060331D01*
X171347544Y-132157586D01*
X171350359Y-132163063D01*
X171350360Y-132163066D01*
X171438897Y-132335341D01*
X171441712Y-132340818D01*
X171569677Y-132502270D01*
X171574370Y-132506264D01*
X171574371Y-132506265D01*
X171643734Y-132565297D01*
X171726564Y-132635791D01*
X171906398Y-132736297D01*
X171990280Y-132763552D01*
X172096471Y-132798056D01*
X172096475Y-132798057D01*
X172102329Y-132799959D01*
X172306894Y-132824351D01*
X172313029Y-132823879D01*
X172313031Y-132823879D01*
X172385625Y-132818293D01*
X172512300Y-132808546D01*
X172518230Y-132806890D01*
X172518232Y-132806890D01*
X172704797Y-132754800D01*
X172704796Y-132754800D01*
X172710725Y-132753145D01*
X172716214Y-132750372D01*
X172716220Y-132750370D01*
X172883312Y-132665965D01*
X172894610Y-132660258D01*
X172922142Y-132638748D01*
X173818500Y-132638748D01*
X173819707Y-132644816D01*
X173823331Y-132663033D01*
X173830133Y-132697231D01*
X173874448Y-132763552D01*
X173940769Y-132807867D01*
X173952938Y-132810288D01*
X173952939Y-132810288D01*
X173993184Y-132818293D01*
X173999252Y-132819500D01*
X175738748Y-132819500D01*
X175744816Y-132818293D01*
X175785061Y-132810288D01*
X175785062Y-132810288D01*
X175797231Y-132807867D01*
X175863552Y-132763552D01*
X175907867Y-132697231D01*
X175914670Y-132663033D01*
X175918293Y-132644816D01*
X175919500Y-132638748D01*
X175919500Y-130899252D01*
X175907867Y-130840769D01*
X175896086Y-130823137D01*
X175870443Y-130784761D01*
X175863552Y-130774448D01*
X175797231Y-130730133D01*
X175785062Y-130727712D01*
X175785061Y-130727712D01*
X175744816Y-130719707D01*
X175738748Y-130718500D01*
X173999252Y-130718500D01*
X173993184Y-130719707D01*
X173952939Y-130727712D01*
X173952938Y-130727712D01*
X173940769Y-130730133D01*
X173874448Y-130774448D01*
X173867557Y-130784761D01*
X173841915Y-130823137D01*
X173830133Y-130840769D01*
X173818500Y-130899252D01*
X173818500Y-132638748D01*
X172922142Y-132638748D01*
X173056951Y-132533424D01*
X173142364Y-132434472D01*
X173187540Y-132382134D01*
X173187540Y-132382133D01*
X173191564Y-132377472D01*
X173212387Y-132340818D01*
X173284096Y-132214586D01*
X173293323Y-132198344D01*
X173358351Y-132002863D01*
X173384171Y-131798474D01*
X173384583Y-131769000D01*
X173364480Y-131563970D01*
X173304935Y-131366749D01*
X173208218Y-131184849D01*
X173120363Y-131077128D01*
X173081906Y-131029975D01*
X173081903Y-131029972D01*
X173078011Y-131025200D01*
X173060786Y-131010950D01*
X172924025Y-130897811D01*
X172924021Y-130897809D01*
X172919275Y-130893882D01*
X172738055Y-130795897D01*
X172541254Y-130734977D01*
X172535129Y-130734333D01*
X172535128Y-130734333D01*
X172342498Y-130714087D01*
X172342496Y-130714087D01*
X172336369Y-130713443D01*
X172249529Y-130721346D01*
X172137342Y-130731555D01*
X172137339Y-130731556D01*
X172131203Y-130732114D01*
X171933572Y-130790280D01*
X171751002Y-130885726D01*
X171746201Y-130889586D01*
X171746198Y-130889588D01*
X171665841Y-130954197D01*
X171590447Y-131014815D01*
X171458024Y-131172630D01*
X171455056Y-131178028D01*
X171455053Y-131178033D01*
X171361743Y-131347765D01*
X171358776Y-131353162D01*
X171296484Y-131549532D01*
X171295798Y-131555649D01*
X171295797Y-131555653D01*
X171274207Y-131748137D01*
X171273520Y-131754262D01*
X170843138Y-131754262D01*
X170824480Y-131563970D01*
X170764935Y-131366749D01*
X170668218Y-131184849D01*
X170580363Y-131077128D01*
X170541906Y-131029975D01*
X170541903Y-131029972D01*
X170538011Y-131025200D01*
X170520786Y-131010950D01*
X170384025Y-130897811D01*
X170384021Y-130897809D01*
X170379275Y-130893882D01*
X170198055Y-130795897D01*
X170001254Y-130734977D01*
X169995129Y-130734333D01*
X169995128Y-130734333D01*
X169802498Y-130714087D01*
X169802496Y-130714087D01*
X169796369Y-130713443D01*
X169709529Y-130721346D01*
X169597342Y-130731555D01*
X169597339Y-130731556D01*
X169591203Y-130732114D01*
X169393572Y-130790280D01*
X169211002Y-130885726D01*
X169206201Y-130889586D01*
X169206198Y-130889588D01*
X169125841Y-130954197D01*
X169050447Y-131014815D01*
X168918024Y-131172630D01*
X168915056Y-131178028D01*
X168915053Y-131178033D01*
X168821743Y-131347765D01*
X168818776Y-131353162D01*
X168756484Y-131549532D01*
X168755798Y-131555649D01*
X168755797Y-131555653D01*
X168734207Y-131748137D01*
X168733520Y-131754262D01*
X164118500Y-131754262D01*
X164118500Y-130956252D01*
X164106867Y-130897769D01*
X164062552Y-130831448D01*
X163996231Y-130787133D01*
X163984062Y-130784712D01*
X163984061Y-130784712D01*
X163943816Y-130776707D01*
X163937748Y-130775500D01*
X162198252Y-130775500D01*
X162192184Y-130776707D01*
X162151939Y-130784712D01*
X162151938Y-130784712D01*
X162139769Y-130787133D01*
X162073448Y-130831448D01*
X162029133Y-130897769D01*
X162017500Y-130956252D01*
X162017500Y-132695748D01*
X161121142Y-132695748D01*
X161255951Y-132590424D01*
X161278375Y-132564446D01*
X161386540Y-132439134D01*
X161386540Y-132439133D01*
X161390564Y-132434472D01*
X161411387Y-132397818D01*
X161489276Y-132260707D01*
X161492323Y-132255344D01*
X161557351Y-132059863D01*
X161583171Y-131855474D01*
X161583583Y-131826000D01*
X161563480Y-131620970D01*
X161503935Y-131423749D01*
X161407218Y-131241849D01*
X161333859Y-131151902D01*
X161280906Y-131086975D01*
X161280903Y-131086972D01*
X161277011Y-131082200D01*
X161270173Y-131076543D01*
X161123025Y-130954811D01*
X161123021Y-130954809D01*
X161118275Y-130950882D01*
X160937055Y-130852897D01*
X160740254Y-130791977D01*
X160734129Y-130791333D01*
X160734128Y-130791333D01*
X160541498Y-130771087D01*
X160541496Y-130771087D01*
X160535369Y-130770443D01*
X160448529Y-130778346D01*
X160336342Y-130788555D01*
X160336339Y-130788556D01*
X160330203Y-130789114D01*
X160132572Y-130847280D01*
X159950002Y-130942726D01*
X159945201Y-130946586D01*
X159945198Y-130946588D01*
X159794254Y-131067950D01*
X159789447Y-131071815D01*
X159657024Y-131229630D01*
X159654056Y-131235028D01*
X159654053Y-131235033D01*
X159581642Y-131366749D01*
X159557776Y-131410162D01*
X159495484Y-131606532D01*
X159494798Y-131612649D01*
X159494797Y-131612653D01*
X159478224Y-131760406D01*
X159472520Y-131811262D01*
X159042138Y-131811262D01*
X159023480Y-131620970D01*
X158963935Y-131423749D01*
X158867218Y-131241849D01*
X158793859Y-131151902D01*
X158740906Y-131086975D01*
X158740903Y-131086972D01*
X158737011Y-131082200D01*
X158730173Y-131076543D01*
X158583025Y-130954811D01*
X158583021Y-130954809D01*
X158578275Y-130950882D01*
X158397055Y-130852897D01*
X158200254Y-130791977D01*
X158194129Y-130791333D01*
X158194128Y-130791333D01*
X158001498Y-130771087D01*
X158001496Y-130771087D01*
X157995369Y-130770443D01*
X157908529Y-130778346D01*
X157796342Y-130788555D01*
X157796339Y-130788556D01*
X157790203Y-130789114D01*
X157592572Y-130847280D01*
X157410002Y-130942726D01*
X157405201Y-130946586D01*
X157405198Y-130946588D01*
X157254254Y-131067950D01*
X157249447Y-131071815D01*
X157117024Y-131229630D01*
X157114056Y-131235028D01*
X157114053Y-131235033D01*
X157041642Y-131366749D01*
X157017776Y-131410162D01*
X156955484Y-131606532D01*
X156954798Y-131612649D01*
X156954797Y-131612653D01*
X156938224Y-131760406D01*
X156932520Y-131811262D01*
X148934428Y-131811262D01*
X148860795Y-131772522D01*
X148390323Y-131524995D01*
X148386658Y-131522989D01*
X147387435Y-130954197D01*
X147383839Y-130952070D01*
X146404010Y-130350454D01*
X146400486Y-130348209D01*
X146155659Y-130186468D01*
X145441193Y-129714469D01*
X145437745Y-129712109D01*
X145163688Y-129517707D01*
X144499919Y-129046862D01*
X144496560Y-129044394D01*
X144316620Y-128907564D01*
X144204637Y-128822410D01*
X147193975Y-128822410D01*
X147218954Y-128898162D01*
X147257877Y-128943335D01*
X147807687Y-129372894D01*
X148623737Y-130010463D01*
X148623740Y-130010465D01*
X148628618Y-130014276D01*
X148634147Y-130017063D01*
X148634149Y-130017064D01*
X148670784Y-130035529D01*
X148670786Y-130035530D01*
X148681866Y-130041114D01*
X148694238Y-130042033D01*
X148694240Y-130042034D01*
X148726721Y-130044447D01*
X148761410Y-130047025D01*
X148837162Y-130022046D01*
X148882335Y-129983123D01*
X149615751Y-129044394D01*
X149949463Y-128617263D01*
X149949465Y-128617260D01*
X149953276Y-128612382D01*
X149956064Y-128606851D01*
X149974529Y-128570216D01*
X149974530Y-128570214D01*
X149980114Y-128559134D01*
X149986025Y-128479590D01*
X149961046Y-128403838D01*
X149922123Y-128358665D01*
X149010577Y-127646487D01*
X148556263Y-127291537D01*
X148556260Y-127291535D01*
X148551382Y-127287724D01*
X148545853Y-127284937D01*
X148545851Y-127284936D01*
X148509216Y-127266471D01*
X148509214Y-127266470D01*
X148498134Y-127260886D01*
X148485762Y-127259967D01*
X148485760Y-127259966D01*
X148453279Y-127257553D01*
X148418590Y-127254975D01*
X148342838Y-127279954D01*
X148297665Y-127318877D01*
X147666104Y-128127238D01*
X147291389Y-128606851D01*
X147226724Y-128689618D01*
X147223937Y-128695147D01*
X147223936Y-128695149D01*
X147205471Y-128731784D01*
X147205470Y-128731786D01*
X147199886Y-128742866D01*
X147193975Y-128822410D01*
X144204637Y-128822410D01*
X143581349Y-128348451D01*
X143578067Y-128345868D01*
X142686444Y-127619972D01*
X142683249Y-127617282D01*
X142585880Y-127532491D01*
X142057632Y-127072482D01*
X145532973Y-127072482D01*
X145533489Y-127078626D01*
X145548717Y-127259966D01*
X145550212Y-127277773D01*
X145551911Y-127283698D01*
X145598677Y-127446789D01*
X145606997Y-127475806D01*
X145609812Y-127481283D01*
X145609813Y-127481286D01*
X145698350Y-127653561D01*
X145701165Y-127659038D01*
X145829130Y-127820490D01*
X145986017Y-127954011D01*
X145991395Y-127957017D01*
X145991397Y-127957018D01*
X146019677Y-127972823D01*
X146165851Y-128054517D01*
X146260691Y-128085333D01*
X146355924Y-128116276D01*
X146355928Y-128116277D01*
X146361782Y-128118179D01*
X146566347Y-128142571D01*
X146572482Y-128142099D01*
X146572484Y-128142099D01*
X146628492Y-128137789D01*
X146771753Y-128126766D01*
X146777683Y-128125110D01*
X146777685Y-128125110D01*
X146928366Y-128083039D01*
X146970178Y-128071365D01*
X146975667Y-128068592D01*
X146975673Y-128068590D01*
X147139825Y-127985670D01*
X147154063Y-127978478D01*
X147165500Y-127969543D01*
X147311554Y-127855433D01*
X147316404Y-127851644D01*
X147451017Y-127695692D01*
X147471840Y-127659038D01*
X147549729Y-127521927D01*
X147552776Y-127516564D01*
X147617804Y-127321083D01*
X147643624Y-127116694D01*
X147644036Y-127087220D01*
X147623933Y-126882190D01*
X147564388Y-126684969D01*
X147467671Y-126503069D01*
X147356815Y-126367146D01*
X147341359Y-126348195D01*
X147341356Y-126348192D01*
X147337464Y-126343420D01*
X147274889Y-126291653D01*
X147183478Y-126216031D01*
X147183474Y-126216029D01*
X147178728Y-126212102D01*
X146997508Y-126114117D01*
X146800707Y-126053197D01*
X146794582Y-126052553D01*
X146794581Y-126052553D01*
X146601951Y-126032307D01*
X146601949Y-126032307D01*
X146595822Y-126031663D01*
X146508982Y-126039566D01*
X146396795Y-126049775D01*
X146396792Y-126049776D01*
X146390656Y-126050334D01*
X146193025Y-126108500D01*
X146010455Y-126203946D01*
X146005654Y-126207806D01*
X146005651Y-126207808D01*
X145901369Y-126291653D01*
X145849900Y-126333035D01*
X145717477Y-126490850D01*
X145714509Y-126496248D01*
X145714506Y-126496253D01*
X145669131Y-126578791D01*
X145618229Y-126671382D01*
X145555937Y-126867752D01*
X145555251Y-126873869D01*
X145555250Y-126873873D01*
X145548277Y-126936041D01*
X145532973Y-127072482D01*
X142057632Y-127072482D01*
X141816159Y-126862203D01*
X141813090Y-126859441D01*
X140971460Y-126075979D01*
X140968490Y-126073121D01*
X140948462Y-126053197D01*
X140476092Y-125583295D01*
X140401108Y-125508702D01*
X143531425Y-125508702D01*
X143531941Y-125514846D01*
X143546242Y-125685145D01*
X143548664Y-125713993D01*
X143550363Y-125719918D01*
X143564742Y-125770062D01*
X143605449Y-125912026D01*
X143608264Y-125917503D01*
X143608265Y-125917506D01*
X143696802Y-126089781D01*
X143699617Y-126095258D01*
X143827582Y-126256710D01*
X143832275Y-126260704D01*
X143832276Y-126260705D01*
X143924850Y-126339491D01*
X143984469Y-126390231D01*
X144164303Y-126490737D01*
X144259143Y-126521553D01*
X144354376Y-126552496D01*
X144354380Y-126552497D01*
X144360234Y-126554399D01*
X144564799Y-126578791D01*
X144570934Y-126578319D01*
X144570936Y-126578319D01*
X144626944Y-126574009D01*
X144770205Y-126562986D01*
X144776135Y-126561330D01*
X144776137Y-126561330D01*
X144962702Y-126509240D01*
X144962701Y-126509240D01*
X144968630Y-126507585D01*
X144974119Y-126504812D01*
X144974125Y-126504810D01*
X145147021Y-126417473D01*
X145152515Y-126414698D01*
X145314856Y-126287864D01*
X145380252Y-126212102D01*
X145445445Y-126136574D01*
X145445445Y-126136573D01*
X145449469Y-126131912D01*
X145458710Y-126115646D01*
X145488872Y-126062550D01*
X145551228Y-125952784D01*
X145616256Y-125757303D01*
X145642076Y-125552914D01*
X145642488Y-125523440D01*
X145622385Y-125318410D01*
X145562840Y-125121189D01*
X145466123Y-124939289D01*
X145389749Y-124845646D01*
X145339811Y-124784415D01*
X145339808Y-124784412D01*
X145335916Y-124779640D01*
X145273341Y-124727873D01*
X145181930Y-124652251D01*
X145181926Y-124652249D01*
X145177180Y-124648322D01*
X144995960Y-124550337D01*
X144799159Y-124489417D01*
X144793034Y-124488773D01*
X144793033Y-124488773D01*
X144600403Y-124468527D01*
X144600401Y-124468527D01*
X144594274Y-124467883D01*
X144507434Y-124475786D01*
X144395247Y-124485995D01*
X144395244Y-124485996D01*
X144389108Y-124486554D01*
X144191477Y-124544720D01*
X144008907Y-124640166D01*
X144004106Y-124644026D01*
X144004103Y-124644028D01*
X143899821Y-124727873D01*
X143848352Y-124769255D01*
X143715929Y-124927070D01*
X143712961Y-124932468D01*
X143712958Y-124932473D01*
X143667583Y-125015011D01*
X143616681Y-125107602D01*
X143554389Y-125303972D01*
X143553703Y-125310089D01*
X143553702Y-125310093D01*
X143536050Y-125467467D01*
X143531425Y-125508702D01*
X140401108Y-125508702D01*
X140153358Y-125262246D01*
X140150445Y-125259251D01*
X139788727Y-124874733D01*
X139362630Y-124421779D01*
X139359832Y-124418704D01*
X139297825Y-124348246D01*
X138942872Y-123944922D01*
X141529878Y-123944922D01*
X141530394Y-123951066D01*
X141545206Y-124127450D01*
X141547117Y-124150213D01*
X141548816Y-124156138D01*
X141600017Y-124334696D01*
X141603902Y-124348246D01*
X141606717Y-124353723D01*
X141606718Y-124353726D01*
X141677390Y-124491239D01*
X141698070Y-124531478D01*
X141826035Y-124692930D01*
X141830728Y-124696924D01*
X141830729Y-124696925D01*
X141923303Y-124775711D01*
X141982922Y-124826451D01*
X141988300Y-124829457D01*
X141988302Y-124829458D01*
X142069312Y-124874733D01*
X142162756Y-124926957D01*
X142257596Y-124957773D01*
X142352829Y-124988716D01*
X142352833Y-124988717D01*
X142358687Y-124990619D01*
X142563252Y-125015011D01*
X142569387Y-125014539D01*
X142569389Y-125014539D01*
X142625397Y-125010229D01*
X142768658Y-124999206D01*
X142774588Y-124997550D01*
X142774590Y-124997550D01*
X142961155Y-124945460D01*
X142961154Y-124945460D01*
X142967083Y-124943805D01*
X142972572Y-124941032D01*
X142972578Y-124941030D01*
X143145474Y-124853693D01*
X143150968Y-124850918D01*
X143313309Y-124724084D01*
X143378705Y-124648322D01*
X143443898Y-124572794D01*
X143443898Y-124572793D01*
X143447922Y-124568132D01*
X143468745Y-124531478D01*
X143503786Y-124469793D01*
X143549681Y-124389004D01*
X143614709Y-124193523D01*
X143640529Y-123989134D01*
X143640941Y-123959660D01*
X143620838Y-123754630D01*
X143561293Y-123557409D01*
X143464576Y-123375509D01*
X143391217Y-123285562D01*
X143338264Y-123220635D01*
X143338261Y-123220632D01*
X143334369Y-123215860D01*
X143317144Y-123201610D01*
X143180383Y-123088471D01*
X143180379Y-123088469D01*
X143175633Y-123084542D01*
X142994413Y-122986557D01*
X142797612Y-122925637D01*
X142791487Y-122924993D01*
X142791486Y-122924993D01*
X142598856Y-122904747D01*
X142598854Y-122904747D01*
X142592727Y-122904103D01*
X142505887Y-122912006D01*
X142393700Y-122922215D01*
X142393697Y-122922216D01*
X142387561Y-122922774D01*
X142189930Y-122980940D01*
X142007360Y-123076386D01*
X142002559Y-123080246D01*
X142002556Y-123080248D01*
X141891998Y-123169139D01*
X141846805Y-123205475D01*
X141714382Y-123363290D01*
X141711414Y-123368688D01*
X141711411Y-123368693D01*
X141629302Y-123518050D01*
X141615134Y-123543822D01*
X141552842Y-123740192D01*
X141552156Y-123746309D01*
X141552155Y-123746313D01*
X141544208Y-123817167D01*
X141529878Y-123944922D01*
X138942872Y-123944922D01*
X138600225Y-123555581D01*
X138597519Y-123552401D01*
X138572955Y-123522550D01*
X137866939Y-122664561D01*
X137864352Y-122661308D01*
X137163628Y-121749754D01*
X137161137Y-121746400D01*
X136491008Y-120812098D01*
X136488630Y-120808663D01*
X136459798Y-120765513D01*
X135849854Y-119852667D01*
X135847625Y-119849210D01*
X135240865Y-118872509D01*
X135238720Y-118868924D01*
X134878726Y-118244137D01*
X134664703Y-117872689D01*
X134662689Y-117869056D01*
X134616277Y-117781950D01*
X134122021Y-116854344D01*
X134120118Y-116850625D01*
X133658066Y-115909539D01*
X133613395Y-115818555D01*
X133611616Y-115814776D01*
X133509686Y-115588500D01*
X133139373Y-114766437D01*
X133137731Y-114762624D01*
X133135853Y-114758054D01*
X132800877Y-113943324D01*
X141421210Y-113943324D01*
X141422547Y-113963721D01*
X141435640Y-114163488D01*
X141437061Y-114169084D01*
X141437062Y-114169089D01*
X141488530Y-114371741D01*
X141489951Y-114377336D01*
X141492368Y-114382578D01*
X141492368Y-114382579D01*
X141529302Y-114462695D01*
X141582323Y-114577705D01*
X141709662Y-114757886D01*
X141867704Y-114911845D01*
X141872500Y-114915050D01*
X141872503Y-114915052D01*
X142018666Y-115012714D01*
X142051157Y-115034424D01*
X142056460Y-115036702D01*
X142056463Y-115036704D01*
X142188101Y-115093260D01*
X142253876Y-115121519D01*
X142318779Y-115136205D01*
X142463435Y-115168938D01*
X142463441Y-115168939D01*
X142469072Y-115170213D01*
X142474843Y-115170440D01*
X142474845Y-115170440D01*
X142542651Y-115173104D01*
X142689538Y-115178875D01*
X142803681Y-115162325D01*
X142902178Y-115148044D01*
X142902183Y-115148043D01*
X142907892Y-115147215D01*
X142913356Y-115145360D01*
X142913361Y-115145359D01*
X143111347Y-115078152D01*
X143111352Y-115078150D01*
X143116819Y-115076294D01*
X143159830Y-115052207D01*
X143197315Y-115031214D01*
X143309324Y-114968486D01*
X143353170Y-114932020D01*
X143474526Y-114831088D01*
X143478958Y-114827402D01*
X143529642Y-114766462D01*
X143616348Y-114662210D01*
X143616350Y-114662207D01*
X143620042Y-114657768D01*
X143686210Y-114539617D01*
X143725026Y-114470306D01*
X143725027Y-114470304D01*
X143727850Y-114465263D01*
X143729706Y-114459796D01*
X143729708Y-114459791D01*
X143796915Y-114261805D01*
X143796916Y-114261800D01*
X143798771Y-114256336D01*
X143799599Y-114250627D01*
X143799600Y-114250622D01*
X143827438Y-114058622D01*
X143830431Y-114037982D01*
X143832083Y-113974884D01*
X143811894Y-113755173D01*
X143806656Y-113736598D01*
X143778387Y-113636363D01*
X143752005Y-113542820D01*
X143654420Y-113344937D01*
X143600898Y-113273262D01*
X143525860Y-113172775D01*
X143525860Y-113172774D01*
X143522407Y-113168151D01*
X143425026Y-113078133D01*
X143364629Y-113022302D01*
X143364626Y-113022300D01*
X143360389Y-113018383D01*
X143173790Y-112900648D01*
X142968861Y-112818890D01*
X142963201Y-112817764D01*
X142963197Y-112817763D01*
X142758131Y-112776973D01*
X142758128Y-112776973D01*
X142752464Y-112775846D01*
X142746689Y-112775770D01*
X142746685Y-112775770D01*
X142635944Y-112774321D01*
X142531846Y-112772958D01*
X142526149Y-112773937D01*
X142526148Y-112773937D01*
X142320094Y-112809343D01*
X142320093Y-112809343D01*
X142314397Y-112810322D01*
X142107397Y-112886688D01*
X142102436Y-112889640D01*
X142102435Y-112889640D01*
X142055419Y-112917612D01*
X141917781Y-112999498D01*
X141751897Y-113144974D01*
X141615303Y-113318244D01*
X141512571Y-113513504D01*
X141447143Y-113724217D01*
X141421210Y-113943324D01*
X132800877Y-113943324D01*
X132700504Y-113699197D01*
X132698988Y-113695328D01*
X132685369Y-113658803D01*
X132439520Y-112999498D01*
X132297282Y-112618050D01*
X132295887Y-112614112D01*
X132097411Y-112022647D01*
X131930094Y-111524036D01*
X131928838Y-111520074D01*
X131925495Y-111508894D01*
X131669286Y-110652188D01*
X131599412Y-110418543D01*
X131598281Y-110414521D01*
X131393298Y-109635943D01*
X131305531Y-109302582D01*
X131304551Y-109298586D01*
X131048844Y-108177618D01*
X131047983Y-108173535D01*
X130829577Y-107044672D01*
X130828852Y-107040557D01*
X130685963Y-106143462D01*
X130647999Y-105905114D01*
X130647413Y-105900998D01*
X130617684Y-105664000D01*
X130504303Y-104760155D01*
X130503852Y-104756003D01*
X130492489Y-104632342D01*
X130398648Y-103611079D01*
X130398335Y-103606927D01*
X130370041Y-103123551D01*
X130331147Y-102459097D01*
X130330972Y-102454932D01*
X130318488Y-101961748D01*
X136363500Y-101961748D01*
X136375133Y-102020231D01*
X136419448Y-102086552D01*
X136485769Y-102130867D01*
X136497938Y-102133288D01*
X136497939Y-102133288D01*
X136538184Y-102141293D01*
X136544252Y-102142500D01*
X138283748Y-102142500D01*
X138289816Y-102141293D01*
X138330061Y-102133288D01*
X138330062Y-102133288D01*
X138342231Y-102130867D01*
X138408552Y-102086552D01*
X138452867Y-102020231D01*
X138464500Y-101961748D01*
X138464500Y-100222252D01*
X138452867Y-100163769D01*
X138408552Y-100097448D01*
X138342231Y-100053133D01*
X138330062Y-100050712D01*
X138330061Y-100050712D01*
X138289816Y-100042707D01*
X138283748Y-100041500D01*
X136544252Y-100041500D01*
X136538184Y-100042707D01*
X136497939Y-100050712D01*
X136497938Y-100050712D01*
X136485769Y-100053133D01*
X136419448Y-100097448D01*
X136375133Y-100163769D01*
X136363500Y-100222252D01*
X136363500Y-101961748D01*
X130318488Y-101961748D01*
X130301878Y-101305522D01*
X130301842Y-101301344D01*
X130310872Y-100151631D01*
X130310974Y-100147455D01*
X130358118Y-98998674D01*
X130358358Y-98994502D01*
X130392337Y-98537262D01*
X136358520Y-98537262D01*
X136375759Y-98742553D01*
X136432544Y-98940586D01*
X136435359Y-98946063D01*
X136435360Y-98946066D01*
X136456247Y-98986707D01*
X136526712Y-99123818D01*
X136654677Y-99285270D01*
X136811564Y-99418791D01*
X136991398Y-99519297D01*
X137086238Y-99550113D01*
X137181471Y-99581056D01*
X137181475Y-99581057D01*
X137187329Y-99582959D01*
X137391894Y-99607351D01*
X137398029Y-99606879D01*
X137398031Y-99606879D01*
X137454039Y-99602569D01*
X137597300Y-99591546D01*
X137603230Y-99589890D01*
X137603232Y-99589890D01*
X137789797Y-99537800D01*
X137789796Y-99537800D01*
X137795725Y-99536145D01*
X137801214Y-99533372D01*
X137801220Y-99533370D01*
X137974116Y-99446033D01*
X137979610Y-99443258D01*
X138141951Y-99316424D01*
X138276564Y-99160472D01*
X138297387Y-99123818D01*
X138375276Y-98986707D01*
X138378323Y-98981344D01*
X138443351Y-98785863D01*
X138469171Y-98581474D01*
X138469583Y-98552000D01*
X138449480Y-98346970D01*
X138389935Y-98149749D01*
X138293218Y-97967849D01*
X138219859Y-97877902D01*
X138166906Y-97812975D01*
X138166903Y-97812972D01*
X138163011Y-97808200D01*
X138145786Y-97793950D01*
X138009025Y-97680811D01*
X138009021Y-97680809D01*
X138004275Y-97676882D01*
X137823055Y-97578897D01*
X137626254Y-97517977D01*
X137620129Y-97517333D01*
X137620128Y-97517333D01*
X137427498Y-97497087D01*
X137427496Y-97497087D01*
X137421369Y-97496443D01*
X137334529Y-97504346D01*
X137222342Y-97514555D01*
X137222339Y-97514556D01*
X137216203Y-97515114D01*
X137018572Y-97573280D01*
X136836002Y-97668726D01*
X136831201Y-97672586D01*
X136831198Y-97672588D01*
X136820971Y-97680811D01*
X136675447Y-97797815D01*
X136543024Y-97955630D01*
X136540056Y-97961028D01*
X136540053Y-97961033D01*
X136533315Y-97973290D01*
X136443776Y-98136162D01*
X136381484Y-98332532D01*
X136380798Y-98338649D01*
X136380797Y-98338653D01*
X136359207Y-98531137D01*
X136358520Y-98537262D01*
X130392337Y-98537262D01*
X130443567Y-97847874D01*
X130443946Y-97843713D01*
X130567123Y-96700558D01*
X130567640Y-96696412D01*
X130602956Y-96446707D01*
X130666522Y-95997262D01*
X136358520Y-95997262D01*
X136359036Y-96003406D01*
X136374393Y-96186282D01*
X136375759Y-96202553D01*
X136432544Y-96400586D01*
X136435359Y-96406063D01*
X136435360Y-96406066D01*
X136456247Y-96446707D01*
X136526712Y-96583818D01*
X136654677Y-96745270D01*
X136811564Y-96878791D01*
X136991398Y-96979297D01*
X137086238Y-97010113D01*
X137181471Y-97041056D01*
X137181475Y-97041057D01*
X137187329Y-97042959D01*
X137391894Y-97067351D01*
X137398029Y-97066879D01*
X137398031Y-97066879D01*
X137454039Y-97062569D01*
X137597300Y-97051546D01*
X137603230Y-97049890D01*
X137603232Y-97049890D01*
X137789797Y-96997800D01*
X137789796Y-96997800D01*
X137795725Y-96996145D01*
X137801214Y-96993372D01*
X137801220Y-96993370D01*
X137974116Y-96906033D01*
X137979610Y-96903258D01*
X138141951Y-96776424D01*
X138209215Y-96698498D01*
X138272540Y-96625134D01*
X138272540Y-96625133D01*
X138276564Y-96620472D01*
X138297387Y-96583818D01*
X138375276Y-96446707D01*
X138378323Y-96441344D01*
X138443351Y-96245863D01*
X138469171Y-96041474D01*
X138469583Y-96012000D01*
X138449480Y-95806970D01*
X138389935Y-95609749D01*
X138293218Y-95427849D01*
X138209087Y-95324695D01*
X138166906Y-95272975D01*
X138166903Y-95272972D01*
X138163011Y-95268200D01*
X138156173Y-95262543D01*
X138009025Y-95140811D01*
X138009021Y-95140809D01*
X138004275Y-95136882D01*
X137823055Y-95038897D01*
X137626254Y-94977977D01*
X137620129Y-94977333D01*
X137620128Y-94977333D01*
X137427498Y-94957087D01*
X137427496Y-94957087D01*
X137421369Y-94956443D01*
X137334529Y-94964346D01*
X137222342Y-94974555D01*
X137222339Y-94974556D01*
X137216203Y-94975114D01*
X137018572Y-95033280D01*
X136836002Y-95128726D01*
X136831201Y-95132586D01*
X136831198Y-95132588D01*
X136699481Y-95238491D01*
X136675447Y-95257815D01*
X136543024Y-95415630D01*
X136540056Y-95421028D01*
X136540053Y-95421033D01*
X136517098Y-95462789D01*
X136443776Y-95596162D01*
X136381484Y-95792532D01*
X136380798Y-95798649D01*
X136380797Y-95798653D01*
X136368692Y-95906574D01*
X136358520Y-95997262D01*
X130666522Y-95997262D01*
X130728649Y-95557986D01*
X130729298Y-95553884D01*
X130746617Y-95455159D01*
X130927971Y-94421376D01*
X130928756Y-94417299D01*
X130935756Y-94383941D01*
X131164869Y-93291999D01*
X131165780Y-93287988D01*
X131439067Y-92171158D01*
X131440127Y-92167117D01*
X131726528Y-91144789D01*
X131750295Y-91059950D01*
X131751487Y-91055954D01*
X131795918Y-90915464D01*
X132098181Y-89959717D01*
X132099500Y-89955773D01*
X132110492Y-89924647D01*
X132482371Y-88871571D01*
X132483822Y-88867672D01*
X132594899Y-88583509D01*
X132821472Y-88003873D01*
X132902398Y-87796844D01*
X132903983Y-87792978D01*
X133357854Y-86736564D01*
X133359567Y-86732753D01*
X133488468Y-86458203D01*
X133848206Y-85691986D01*
X133850038Y-85688246D01*
X133940299Y-85511480D01*
X134372930Y-84664223D01*
X134374883Y-84660551D01*
X134381251Y-84649039D01*
X134931417Y-83654470D01*
X134933488Y-83650867D01*
X134953898Y-83616698D01*
X135523092Y-82663757D01*
X135525293Y-82660207D01*
X135800481Y-82232379D01*
X136147288Y-81693208D01*
X136149598Y-81689744D01*
X136153574Y-81683992D01*
X136608340Y-81026000D01*
X140564508Y-81026000D01*
X140566059Y-81035793D01*
X140580744Y-81128508D01*
X140584354Y-81151304D01*
X140641950Y-81264342D01*
X140648961Y-81271353D01*
X140654789Y-81279374D01*
X140652041Y-81281371D01*
X140677721Y-81328399D01*
X140680600Y-81355182D01*
X140680600Y-108153763D01*
X140680429Y-108156088D01*
X140678746Y-108160991D01*
X140679182Y-108172616D01*
X140679182Y-108172618D01*
X140680511Y-108208012D01*
X140680600Y-108212738D01*
X140680600Y-108230917D01*
X140681458Y-108235527D01*
X140681660Y-108238639D01*
X140682790Y-108268726D01*
X140687383Y-108279416D01*
X140688698Y-108285251D01*
X140691045Y-108292977D01*
X140693196Y-108298552D01*
X140695326Y-108309988D01*
X140701430Y-108319890D01*
X140707601Y-108329901D01*
X140716109Y-108346280D01*
X140721835Y-108359607D01*
X140725347Y-108367781D01*
X140729211Y-108372484D01*
X140731389Y-108374662D01*
X140733450Y-108376935D01*
X140733233Y-108377131D01*
X140738647Y-108383979D01*
X140745792Y-108391859D01*
X140751897Y-108401763D01*
X140761155Y-108408803D01*
X140761157Y-108408805D01*
X140772627Y-108417527D01*
X140785456Y-108428729D01*
X143777835Y-111421108D01*
X143779363Y-111422879D01*
X143781640Y-111427536D01*
X143790169Y-111435448D01*
X143790170Y-111435449D01*
X143816158Y-111459556D01*
X143819563Y-111462836D01*
X143832397Y-111475670D01*
X143836266Y-111478324D01*
X143838591Y-111480366D01*
X143860680Y-111500856D01*
X143871483Y-111505166D01*
X143876545Y-111508366D01*
X143883660Y-111512165D01*
X143889128Y-111514588D01*
X143898721Y-111521169D01*
X143921489Y-111526572D01*
X143939082Y-111532136D01*
X143952554Y-111537511D01*
X143952559Y-111537512D01*
X143960815Y-111540806D01*
X143966873Y-111541400D01*
X143969960Y-111541400D01*
X143973024Y-111541550D01*
X143973010Y-111541843D01*
X143981657Y-111542855D01*
X143992296Y-111543375D01*
X144003617Y-111546062D01*
X144015146Y-111544493D01*
X144015148Y-111544493D01*
X144029416Y-111542551D01*
X144046407Y-111541400D01*
X154864818Y-111541400D01*
X154932939Y-111561402D01*
X154940449Y-111567454D01*
X154940626Y-111567211D01*
X154948646Y-111573038D01*
X154955658Y-111580050D01*
X155068696Y-111637646D01*
X155078485Y-111639196D01*
X155078487Y-111639197D01*
X155184207Y-111655941D01*
X155194000Y-111657492D01*
X155203793Y-111655941D01*
X155309513Y-111639197D01*
X155309515Y-111639196D01*
X155319304Y-111637646D01*
X155432342Y-111580050D01*
X155522050Y-111490342D01*
X155579646Y-111377304D01*
X155599492Y-111252000D01*
X155579646Y-111126696D01*
X155522050Y-111013658D01*
X155432342Y-110923950D01*
X155319304Y-110866354D01*
X155309515Y-110864804D01*
X155309513Y-110864803D01*
X155203793Y-110848059D01*
X155194000Y-110846508D01*
X155184207Y-110848059D01*
X155078487Y-110864803D01*
X155078485Y-110864804D01*
X155068696Y-110866354D01*
X154955658Y-110923950D01*
X154948646Y-110930962D01*
X154940626Y-110936789D01*
X154938629Y-110934041D01*
X154891601Y-110959721D01*
X154864818Y-110962600D01*
X144190063Y-110962600D01*
X144121942Y-110942598D01*
X144100968Y-110925695D01*
X141296305Y-108121031D01*
X141262279Y-108058719D01*
X141259400Y-108031936D01*
X141259400Y-93980000D01*
X143104508Y-93980000D01*
X143124354Y-94105304D01*
X143181950Y-94218342D01*
X143271658Y-94308050D01*
X143384696Y-94365646D01*
X143394485Y-94367196D01*
X143394487Y-94367197D01*
X143500207Y-94383941D01*
X143510000Y-94385492D01*
X143519793Y-94383941D01*
X143625513Y-94367197D01*
X143625515Y-94367196D01*
X143635304Y-94365646D01*
X143748342Y-94308050D01*
X143838050Y-94218342D01*
X143895646Y-94105304D01*
X143915492Y-93980000D01*
X147930508Y-93980000D01*
X147950354Y-94105304D01*
X148007950Y-94218342D01*
X148097658Y-94308050D01*
X148210696Y-94365646D01*
X148220485Y-94367196D01*
X148220487Y-94367197D01*
X148326207Y-94383941D01*
X148336000Y-94385492D01*
X148345793Y-94383941D01*
X148451513Y-94367197D01*
X148451515Y-94367196D01*
X148461304Y-94365646D01*
X148574342Y-94308050D01*
X148664050Y-94218342D01*
X148721646Y-94105304D01*
X148741492Y-93980000D01*
X148731514Y-93917000D01*
X150216508Y-93917000D01*
X150236354Y-94042304D01*
X150293950Y-94155342D01*
X150383658Y-94245050D01*
X150496696Y-94302646D01*
X150506485Y-94304196D01*
X150506487Y-94304197D01*
X150612207Y-94320941D01*
X150622000Y-94322492D01*
X150631793Y-94320941D01*
X150737513Y-94304197D01*
X150737515Y-94304196D01*
X150747304Y-94302646D01*
X150860342Y-94245050D01*
X150950050Y-94155342D01*
X151007646Y-94042304D01*
X151027492Y-93917000D01*
X151007646Y-93791696D01*
X150950050Y-93678658D01*
X150860342Y-93588950D01*
X150747304Y-93531354D01*
X150737515Y-93529804D01*
X150737513Y-93529803D01*
X150631793Y-93513059D01*
X150622000Y-93511508D01*
X150612207Y-93513059D01*
X150506487Y-93529803D01*
X150506485Y-93529804D01*
X150496696Y-93531354D01*
X150383658Y-93588950D01*
X150293950Y-93678658D01*
X150236354Y-93791696D01*
X150216508Y-93917000D01*
X148731514Y-93917000D01*
X148721646Y-93854696D01*
X148664050Y-93741658D01*
X148574342Y-93651950D01*
X148461304Y-93594354D01*
X148451515Y-93592804D01*
X148451513Y-93592803D01*
X148345793Y-93576059D01*
X148336000Y-93574508D01*
X148326207Y-93576059D01*
X148220487Y-93592803D01*
X148220485Y-93592804D01*
X148210696Y-93594354D01*
X148097658Y-93651950D01*
X148007950Y-93741658D01*
X147950354Y-93854696D01*
X147930508Y-93980000D01*
X143915492Y-93980000D01*
X143895646Y-93854696D01*
X143838050Y-93741658D01*
X143748342Y-93651950D01*
X143635304Y-93594354D01*
X143625515Y-93592804D01*
X143625513Y-93592803D01*
X143519793Y-93576059D01*
X143510000Y-93574508D01*
X143500207Y-93576059D01*
X143394487Y-93592803D01*
X143394485Y-93592804D01*
X143384696Y-93594354D01*
X143271658Y-93651950D01*
X143181950Y-93741658D01*
X143124354Y-93854696D01*
X143104508Y-93980000D01*
X141259400Y-93980000D01*
X141259400Y-89916000D01*
X143104508Y-89916000D01*
X143106059Y-89925793D01*
X143120281Y-90015586D01*
X143124354Y-90041304D01*
X143181950Y-90154342D01*
X143271658Y-90244050D01*
X143384696Y-90301646D01*
X143394485Y-90303196D01*
X143394487Y-90303197D01*
X143500207Y-90319941D01*
X143510000Y-90321492D01*
X143519793Y-90319941D01*
X143625513Y-90303197D01*
X143625515Y-90303196D01*
X143635304Y-90301646D01*
X143748342Y-90244050D01*
X143838050Y-90154342D01*
X143895646Y-90041304D01*
X143899720Y-90015586D01*
X143913941Y-89925793D01*
X143915492Y-89916000D01*
X145644508Y-89916000D01*
X145646059Y-89925793D01*
X145660281Y-90015586D01*
X145664354Y-90041304D01*
X145721950Y-90154342D01*
X145811658Y-90244050D01*
X145924696Y-90301646D01*
X145934485Y-90303196D01*
X145934487Y-90303197D01*
X146040207Y-90319941D01*
X146050000Y-90321492D01*
X146059793Y-90319941D01*
X146165513Y-90303197D01*
X146165515Y-90303196D01*
X146175304Y-90301646D01*
X146288342Y-90244050D01*
X146378050Y-90154342D01*
X146427621Y-90057054D01*
X146476370Y-90005439D01*
X146545284Y-89988373D01*
X146597092Y-90001990D01*
X146686696Y-90047646D01*
X146696485Y-90049196D01*
X146696487Y-90049197D01*
X146802207Y-90065941D01*
X146812000Y-90067492D01*
X146821793Y-90065941D01*
X146927513Y-90049197D01*
X146927515Y-90049196D01*
X146937304Y-90047646D01*
X147050342Y-89990050D01*
X147140050Y-89900342D01*
X147197646Y-89787304D01*
X147201257Y-89764508D01*
X147215941Y-89671793D01*
X147215941Y-89671791D01*
X147217492Y-89662000D01*
X147206874Y-89594961D01*
X147199197Y-89546487D01*
X147199196Y-89546485D01*
X147197646Y-89536696D01*
X147140050Y-89423658D01*
X147050342Y-89333950D01*
X146937304Y-89276354D01*
X146927515Y-89274804D01*
X146927513Y-89274803D01*
X146821793Y-89258059D01*
X146812000Y-89256508D01*
X146802207Y-89258059D01*
X146696487Y-89274803D01*
X146696485Y-89274804D01*
X146686696Y-89276354D01*
X146573658Y-89333950D01*
X146483950Y-89423658D01*
X146441497Y-89506976D01*
X146434379Y-89520946D01*
X146385630Y-89572561D01*
X146316716Y-89589627D01*
X146264909Y-89576010D01*
X146231903Y-89559193D01*
X146175304Y-89530354D01*
X146165515Y-89528804D01*
X146165513Y-89528803D01*
X146059793Y-89512059D01*
X146050000Y-89510508D01*
X146040207Y-89512059D01*
X145934487Y-89528803D01*
X145934485Y-89528804D01*
X145924696Y-89530354D01*
X145811658Y-89587950D01*
X145721950Y-89677658D01*
X145664354Y-89790696D01*
X145662804Y-89800485D01*
X145662803Y-89800487D01*
X145656949Y-89837448D01*
X145644508Y-89916000D01*
X143915492Y-89916000D01*
X143903051Y-89837448D01*
X143897197Y-89800487D01*
X143897196Y-89800485D01*
X143895646Y-89790696D01*
X143838050Y-89677658D01*
X143748342Y-89587950D01*
X143635304Y-89530354D01*
X143625515Y-89528804D01*
X143625513Y-89528803D01*
X143519793Y-89512059D01*
X143510000Y-89510508D01*
X143500207Y-89512059D01*
X143394487Y-89528803D01*
X143394485Y-89528804D01*
X143384696Y-89530354D01*
X143271658Y-89587950D01*
X143181950Y-89677658D01*
X143124354Y-89790696D01*
X143122804Y-89800485D01*
X143122803Y-89800487D01*
X143116949Y-89837448D01*
X143104508Y-89916000D01*
X141259400Y-89916000D01*
X141259400Y-81544397D01*
X141279402Y-81476276D01*
X141333058Y-81429783D01*
X141405110Y-81419948D01*
X141468206Y-81429941D01*
X141468207Y-81429941D01*
X141478000Y-81431492D01*
X141487793Y-81429941D01*
X141593513Y-81413197D01*
X141593515Y-81413196D01*
X141603304Y-81411646D01*
X141716342Y-81354050D01*
X141806050Y-81264342D01*
X141863646Y-81151304D01*
X141867257Y-81128508D01*
X141883187Y-81027926D01*
X141913599Y-80963772D01*
X141973867Y-80926245D01*
X141987926Y-80923187D01*
X142101512Y-80905197D01*
X142101513Y-80905197D01*
X142111304Y-80903646D01*
X142182798Y-80867218D01*
X142252573Y-80854114D01*
X142297201Y-80867218D01*
X142368696Y-80903646D01*
X142378485Y-80905196D01*
X142378487Y-80905197D01*
X142484207Y-80921941D01*
X142494000Y-80923492D01*
X142535380Y-80916938D01*
X142605791Y-80926038D01*
X142660105Y-80971759D01*
X142681078Y-81039588D01*
X142662051Y-81107987D01*
X142612294Y-81153654D01*
X142509658Y-81205950D01*
X142419950Y-81295658D01*
X142362354Y-81408696D01*
X142360804Y-81418485D01*
X142360803Y-81418487D01*
X142351650Y-81476276D01*
X142342508Y-81534000D01*
X142344059Y-81543793D01*
X142358459Y-81634710D01*
X142362354Y-81659304D01*
X142419950Y-81772342D01*
X142509658Y-81862050D01*
X142622696Y-81919646D01*
X142632485Y-81921196D01*
X142632487Y-81921197D01*
X142738207Y-81937941D01*
X142748000Y-81939492D01*
X142757793Y-81937941D01*
X142863513Y-81921197D01*
X142863515Y-81921196D01*
X142873304Y-81919646D01*
X142986342Y-81862050D01*
X143076050Y-81772342D01*
X143133646Y-81659304D01*
X143137542Y-81634710D01*
X143151941Y-81543793D01*
X143153492Y-81534000D01*
X143144350Y-81476276D01*
X143135197Y-81418487D01*
X143135196Y-81418485D01*
X143133646Y-81408696D01*
X143076050Y-81295658D01*
X142986342Y-81205950D01*
X142883706Y-81153654D01*
X142832091Y-81104905D01*
X142815025Y-81035990D01*
X142837926Y-80968789D01*
X142893524Y-80924637D01*
X142960620Y-80916938D01*
X143002000Y-80923492D01*
X143011793Y-80921941D01*
X143117513Y-80905197D01*
X143117515Y-80905196D01*
X143127304Y-80903646D01*
X143198798Y-80867218D01*
X143268573Y-80854114D01*
X143313201Y-80867218D01*
X143384696Y-80903646D01*
X143394485Y-80905196D01*
X143394487Y-80905197D01*
X143500207Y-80921941D01*
X143510000Y-80923492D01*
X143519793Y-80921941D01*
X143625513Y-80905197D01*
X143625515Y-80905196D01*
X143635304Y-80903646D01*
X143748342Y-80846050D01*
X143797405Y-80796987D01*
X143859717Y-80762961D01*
X143930532Y-80768026D01*
X143987368Y-80810573D01*
X144012179Y-80877093D01*
X144012500Y-80886082D01*
X144012500Y-83959918D01*
X143992498Y-84028039D01*
X143938842Y-84074532D01*
X143868568Y-84084636D01*
X143803988Y-84055142D01*
X143797405Y-84049013D01*
X143748342Y-83999950D01*
X143635304Y-83942354D01*
X143625515Y-83940804D01*
X143625513Y-83940803D01*
X143519793Y-83924059D01*
X143510000Y-83922508D01*
X143500207Y-83924059D01*
X143394487Y-83940803D01*
X143394485Y-83940804D01*
X143384696Y-83942354D01*
X143271658Y-83999950D01*
X143181950Y-84089658D01*
X143124354Y-84202696D01*
X143104508Y-84328000D01*
X143106059Y-84337793D01*
X143117260Y-84408511D01*
X143124354Y-84453304D01*
X143181950Y-84566342D01*
X143271658Y-84656050D01*
X143384696Y-84713646D01*
X143394485Y-84715196D01*
X143394487Y-84715197D01*
X143500207Y-84731941D01*
X143510000Y-84733492D01*
X143519793Y-84731941D01*
X143625513Y-84715197D01*
X143625515Y-84715196D01*
X143635304Y-84713646D01*
X143748342Y-84656050D01*
X143829278Y-84575114D01*
X143891590Y-84541088D01*
X143962405Y-84546153D01*
X144019241Y-84588700D01*
X144037925Y-84624417D01*
X144049952Y-84660551D01*
X144070290Y-84721657D01*
X144149308Y-84844612D01*
X144195801Y-84898268D01*
X144199194Y-84901208D01*
X144299450Y-84988081D01*
X144299453Y-84988083D01*
X144306261Y-84993982D01*
X144439210Y-85054698D01*
X144462964Y-85061673D01*
X144503008Y-85073431D01*
X144503012Y-85073432D01*
X144507331Y-85074700D01*
X144511780Y-85075340D01*
X144511786Y-85075341D01*
X144647553Y-85094861D01*
X144647558Y-85094861D01*
X144652000Y-85095500D01*
X147575000Y-85095500D01*
X147578346Y-85095140D01*
X147578351Y-85095140D01*
X147680785Y-85084128D01*
X147680792Y-85084127D01*
X147684149Y-85083766D01*
X147687450Y-85083048D01*
X147733210Y-85073094D01*
X147733215Y-85073093D01*
X147736491Y-85072380D01*
X147840657Y-85037710D01*
X147963612Y-84958692D01*
X148017268Y-84912199D01*
X148072888Y-84848010D01*
X148107081Y-84808550D01*
X148107083Y-84808547D01*
X148112982Y-84801739D01*
X148173698Y-84668790D01*
X148193700Y-84600669D01*
X148194977Y-84591793D01*
X148196385Y-84582000D01*
X148692508Y-84582000D01*
X148694059Y-84591793D01*
X148697610Y-84614210D01*
X148712354Y-84707304D01*
X148769950Y-84820342D01*
X148859658Y-84910050D01*
X148972696Y-84967646D01*
X148982485Y-84969196D01*
X148982487Y-84969197D01*
X149088207Y-84985941D01*
X149098000Y-84987492D01*
X149107793Y-84985941D01*
X149213513Y-84969197D01*
X149213515Y-84969196D01*
X149223304Y-84967646D01*
X149336342Y-84910050D01*
X149426050Y-84820342D01*
X149483646Y-84707304D01*
X149498391Y-84614210D01*
X149501941Y-84591793D01*
X149503492Y-84582000D01*
X149499613Y-84557509D01*
X149485197Y-84466487D01*
X149485196Y-84466485D01*
X149483646Y-84456696D01*
X149426050Y-84343658D01*
X149336342Y-84253950D01*
X149223304Y-84196354D01*
X149213515Y-84194804D01*
X149213513Y-84194803D01*
X149107793Y-84178059D01*
X149098000Y-84176508D01*
X149056620Y-84183062D01*
X148991694Y-84174671D01*
X148962294Y-84201654D01*
X148859658Y-84253950D01*
X148769950Y-84343658D01*
X148712354Y-84456696D01*
X148710804Y-84466485D01*
X148710803Y-84466487D01*
X148696387Y-84557509D01*
X148692508Y-84582000D01*
X148196385Y-84582000D01*
X148213861Y-84460447D01*
X148213861Y-84460442D01*
X148214500Y-84456000D01*
X148214500Y-83731312D01*
X148234502Y-83663191D01*
X148288158Y-83616698D01*
X148358432Y-83606594D01*
X148423012Y-83636088D01*
X148457956Y-83688791D01*
X148458354Y-83691304D01*
X148515950Y-83804342D01*
X148605658Y-83894050D01*
X148718696Y-83951646D01*
X148728485Y-83953196D01*
X148728487Y-83953197D01*
X148834207Y-83969941D01*
X148844000Y-83971492D01*
X148885380Y-83964938D01*
X148950306Y-83973329D01*
X148979706Y-83946346D01*
X149026490Y-83922508D01*
X149082342Y-83894050D01*
X149172050Y-83804342D01*
X149229646Y-83691304D01*
X149233257Y-83668508D01*
X149247941Y-83575793D01*
X149249492Y-83566000D01*
X149241218Y-83513760D01*
X149231197Y-83450487D01*
X149231196Y-83450485D01*
X149229646Y-83440696D01*
X149172050Y-83327658D01*
X149082342Y-83237950D01*
X148969304Y-83180354D01*
X148959515Y-83178804D01*
X148959513Y-83178803D01*
X148853793Y-83162059D01*
X148844000Y-83160508D01*
X148834207Y-83162059D01*
X148728487Y-83178803D01*
X148728485Y-83178804D01*
X148718696Y-83180354D01*
X148605658Y-83237950D01*
X148515950Y-83327658D01*
X148458354Y-83440696D01*
X148457978Y-83443068D01*
X148420260Y-83498230D01*
X148354863Y-83525867D01*
X148284906Y-83513760D01*
X148232600Y-83465754D01*
X148214500Y-83400688D01*
X148214500Y-82300500D01*
X148234502Y-82232379D01*
X148288158Y-82185886D01*
X148340500Y-82174500D01*
X148972000Y-82174500D01*
X148975346Y-82174140D01*
X148975351Y-82174140D01*
X149077785Y-82163128D01*
X149077792Y-82163127D01*
X149081149Y-82162766D01*
X149084450Y-82162048D01*
X149130210Y-82152094D01*
X149130215Y-82152093D01*
X149133491Y-82151380D01*
X149237657Y-82116710D01*
X149360612Y-82037692D01*
X149414268Y-81991199D01*
X149422297Y-81981933D01*
X149504081Y-81887550D01*
X149504083Y-81887547D01*
X149509982Y-81880739D01*
X149570698Y-81747790D01*
X149577704Y-81723928D01*
X149616088Y-81664203D01*
X149680669Y-81634710D01*
X149750943Y-81644815D01*
X149804598Y-81691308D01*
X149824600Y-81759428D01*
X149824600Y-89264018D01*
X149804598Y-89332139D01*
X149750942Y-89378632D01*
X149680668Y-89388736D01*
X149616088Y-89359242D01*
X149609505Y-89353113D01*
X149590342Y-89333950D01*
X149477304Y-89276354D01*
X149467515Y-89274804D01*
X149467513Y-89274803D01*
X149361793Y-89258059D01*
X149352000Y-89256508D01*
X149342207Y-89258059D01*
X149236487Y-89274803D01*
X149236485Y-89274804D01*
X149226696Y-89276354D01*
X149113658Y-89333950D01*
X149023950Y-89423658D01*
X148981497Y-89506976D01*
X148974379Y-89520946D01*
X148925630Y-89572561D01*
X148856716Y-89589627D01*
X148804909Y-89576010D01*
X148771903Y-89559193D01*
X148715304Y-89530354D01*
X148705515Y-89528804D01*
X148705513Y-89528803D01*
X148599793Y-89512059D01*
X148590000Y-89510508D01*
X148580207Y-89512059D01*
X148474487Y-89528803D01*
X148474485Y-89528804D01*
X148464696Y-89530354D01*
X148351658Y-89587950D01*
X148261950Y-89677658D01*
X148204354Y-89790696D01*
X148202804Y-89800485D01*
X148202803Y-89800487D01*
X148196949Y-89837448D01*
X148184508Y-89916000D01*
X148186059Y-89925793D01*
X148200281Y-90015586D01*
X148204354Y-90041304D01*
X148261950Y-90154342D01*
X148351658Y-90244050D01*
X148464696Y-90301646D01*
X148474485Y-90303196D01*
X148474487Y-90303197D01*
X148580207Y-90319941D01*
X148590000Y-90321492D01*
X148599793Y-90319941D01*
X148705513Y-90303197D01*
X148705515Y-90303196D01*
X148715304Y-90301646D01*
X148828342Y-90244050D01*
X148918050Y-90154342D01*
X148967621Y-90057054D01*
X149016370Y-90005439D01*
X149085284Y-89988373D01*
X149137092Y-90001990D01*
X149226696Y-90047646D01*
X149236485Y-90049196D01*
X149236487Y-90049197D01*
X149342207Y-90065941D01*
X149352000Y-90067492D01*
X149361793Y-90065941D01*
X149467513Y-90049197D01*
X149467515Y-90049196D01*
X149477304Y-90047646D01*
X149590342Y-89990050D01*
X149609505Y-89970887D01*
X149671817Y-89936861D01*
X149742632Y-89941926D01*
X149799468Y-89984473D01*
X149824279Y-90050993D01*
X149824600Y-90059982D01*
X149824600Y-91643763D01*
X149824429Y-91646088D01*
X149822746Y-91650991D01*
X149823182Y-91662616D01*
X149823182Y-91662618D01*
X149824511Y-91698012D01*
X149824600Y-91702738D01*
X149824600Y-91720917D01*
X149825458Y-91725527D01*
X149825660Y-91728639D01*
X149826194Y-91742841D01*
X149826790Y-91758726D01*
X149831383Y-91769416D01*
X149832698Y-91775251D01*
X149835045Y-91782977D01*
X149837196Y-91788552D01*
X149839326Y-91799988D01*
X149845430Y-91809890D01*
X149851601Y-91819901D01*
X149860109Y-91836280D01*
X149865835Y-91849607D01*
X149869347Y-91857781D01*
X149873211Y-91862484D01*
X149875389Y-91864662D01*
X149877450Y-91866935D01*
X149877233Y-91867131D01*
X149882647Y-91873979D01*
X149889792Y-91881859D01*
X149895897Y-91891763D01*
X149905155Y-91898803D01*
X149905157Y-91898805D01*
X149916627Y-91907527D01*
X149929456Y-91918729D01*
X160272861Y-102262134D01*
X160306887Y-102324446D01*
X160301822Y-102395261D01*
X160259275Y-102452097D01*
X160203477Y-102475678D01*
X160174427Y-102480279D01*
X160158488Y-102482803D01*
X160158487Y-102482803D01*
X160148696Y-102484354D01*
X160035658Y-102541950D01*
X159945950Y-102631658D01*
X159888354Y-102744696D01*
X159886804Y-102754485D01*
X159886803Y-102754487D01*
X159873282Y-102839857D01*
X159868508Y-102870000D01*
X159888354Y-102995304D01*
X159945950Y-103108342D01*
X159952962Y-103115354D01*
X159958789Y-103123374D01*
X159956041Y-103125371D01*
X159981721Y-103172399D01*
X159984600Y-103199182D01*
X159984600Y-107523937D01*
X159964598Y-107592058D01*
X159947695Y-107613032D01*
X156554079Y-111006647D01*
X153246887Y-114313839D01*
X153245120Y-114315364D01*
X153240464Y-114317640D01*
X153232552Y-114326169D01*
X153226543Y-114330632D01*
X153159929Y-114355189D01*
X153090613Y-114339834D01*
X153040602Y-114289441D01*
X153025775Y-114220010D01*
X153034116Y-114190233D01*
X153032080Y-114189571D01*
X153035146Y-114180137D01*
X153039646Y-114171304D01*
X153041742Y-114158075D01*
X153057941Y-114055793D01*
X153059492Y-114046000D01*
X153051502Y-113995553D01*
X153041197Y-113930487D01*
X153041196Y-113930485D01*
X153039646Y-113920696D01*
X152982050Y-113807658D01*
X152892342Y-113717950D01*
X152779304Y-113660354D01*
X152769515Y-113658804D01*
X152769513Y-113658803D01*
X152663793Y-113642059D01*
X152654000Y-113640508D01*
X152644207Y-113642059D01*
X152538487Y-113658803D01*
X152538485Y-113658804D01*
X152528696Y-113660354D01*
X152415658Y-113717950D01*
X152325950Y-113807658D01*
X152268354Y-113920696D01*
X152266804Y-113930485D01*
X152266803Y-113930487D01*
X152256498Y-113995553D01*
X152248508Y-114046000D01*
X152250059Y-114055793D01*
X152266259Y-114158075D01*
X152268354Y-114171304D01*
X152325950Y-114284342D01*
X152332961Y-114291353D01*
X152338789Y-114299374D01*
X152336041Y-114301371D01*
X152361721Y-114348399D01*
X152364600Y-114375182D01*
X152364600Y-118445936D01*
X152344598Y-118514057D01*
X152327695Y-118535031D01*
X150392456Y-120470270D01*
X150330144Y-120504296D01*
X150323072Y-120505624D01*
X150252488Y-120516803D01*
X150252487Y-120516803D01*
X150242696Y-120518354D01*
X150129658Y-120575950D01*
X150039950Y-120665658D01*
X149982354Y-120778696D01*
X149980804Y-120788485D01*
X149980803Y-120788487D01*
X149965553Y-120884775D01*
X149962508Y-120904000D01*
X149982354Y-121029304D01*
X150039950Y-121142342D01*
X150129658Y-121232050D01*
X150242696Y-121289646D01*
X150252485Y-121291196D01*
X150252487Y-121291197D01*
X150358207Y-121307941D01*
X150368000Y-121309492D01*
X150377793Y-121307941D01*
X150483513Y-121291197D01*
X150483515Y-121291196D01*
X150493304Y-121289646D01*
X150606342Y-121232050D01*
X150696050Y-121142342D01*
X150739256Y-121057546D01*
X150749145Y-121038138D01*
X150749145Y-121038137D01*
X150753646Y-121029304D01*
X150766376Y-120948928D01*
X150796788Y-120884775D01*
X150801730Y-120879543D01*
X151801921Y-119879353D01*
X152823113Y-118858161D01*
X152824880Y-118856636D01*
X152829536Y-118854360D01*
X152861543Y-118819856D01*
X152864823Y-118816451D01*
X152877670Y-118803604D01*
X152880325Y-118799734D01*
X152882384Y-118797389D01*
X152902856Y-118775320D01*
X152904053Y-118776431D01*
X152947404Y-118738297D01*
X153017601Y-118727669D01*
X153082400Y-118756680D01*
X153121228Y-118816118D01*
X153126600Y-118852517D01*
X153126600Y-120294100D01*
X153106598Y-120362221D01*
X153052942Y-120408714D01*
X152980890Y-120418549D01*
X152917794Y-120408556D01*
X152917793Y-120408556D01*
X152908000Y-120407005D01*
X152898207Y-120408556D01*
X152792487Y-120425300D01*
X152792485Y-120425301D01*
X152782696Y-120426851D01*
X152669658Y-120484447D01*
X152579950Y-120574155D01*
X152522354Y-120687193D01*
X152502508Y-120812497D01*
X152504059Y-120822290D01*
X152518552Y-120913793D01*
X152522354Y-120937801D01*
X152575218Y-121041551D01*
X152579950Y-121050839D01*
X152577613Y-121052030D01*
X152596533Y-121105052D01*
X152580773Y-121172835D01*
X152579950Y-121173658D01*
X152522354Y-121286696D01*
X152520804Y-121296485D01*
X152520803Y-121296487D01*
X152504059Y-121402207D01*
X152502508Y-121412000D01*
X152501485Y-121411838D01*
X152484057Y-121471191D01*
X152430401Y-121517684D01*
X152358349Y-121527519D01*
X152276200Y-121514508D01*
X152266407Y-121516059D01*
X152160687Y-121532803D01*
X152160685Y-121532804D01*
X152150896Y-121534354D01*
X152037858Y-121591950D01*
X151948150Y-121681658D01*
X151890554Y-121794696D01*
X151870708Y-121920000D01*
X151872259Y-121929793D01*
X151881823Y-121990176D01*
X151890554Y-122045304D01*
X151948150Y-122158342D01*
X151955162Y-122165354D01*
X151960989Y-122173374D01*
X151958241Y-122175371D01*
X151983921Y-122222399D01*
X151986800Y-122249182D01*
X151986800Y-125328253D01*
X151986629Y-125330578D01*
X151984946Y-125335481D01*
X151985382Y-125347106D01*
X151985382Y-125347108D01*
X151986711Y-125382502D01*
X151986800Y-125387228D01*
X151986800Y-125405407D01*
X151987658Y-125410017D01*
X151987860Y-125413129D01*
X151988990Y-125443216D01*
X151993583Y-125453906D01*
X151994898Y-125459741D01*
X151997245Y-125467467D01*
X151999396Y-125473042D01*
X152001526Y-125484478D01*
X152007630Y-125494380D01*
X152013801Y-125504391D01*
X152022309Y-125520770D01*
X152028035Y-125534097D01*
X152031547Y-125542271D01*
X152035411Y-125546974D01*
X152037589Y-125549152D01*
X152039650Y-125551425D01*
X152039433Y-125551621D01*
X152044847Y-125558469D01*
X152051992Y-125566349D01*
X152058097Y-125576253D01*
X152067355Y-125583293D01*
X152067357Y-125583295D01*
X152078827Y-125592017D01*
X152091656Y-125603219D01*
X154419549Y-127931113D01*
X154421074Y-127932880D01*
X154423350Y-127937536D01*
X154444352Y-127957018D01*
X154457854Y-127969543D01*
X154461259Y-127972823D01*
X154474106Y-127985670D01*
X154477976Y-127988325D01*
X154480320Y-127990383D01*
X154502390Y-128010856D01*
X154513195Y-128015167D01*
X154518259Y-128018368D01*
X154525370Y-128022165D01*
X154530838Y-128024588D01*
X154540431Y-128031169D01*
X154563199Y-128036572D01*
X154580792Y-128042136D01*
X154594264Y-128047511D01*
X154594269Y-128047512D01*
X154602525Y-128050806D01*
X154608583Y-128051400D01*
X154611670Y-128051400D01*
X154614734Y-128051550D01*
X154614720Y-128051843D01*
X154623367Y-128052855D01*
X154634006Y-128053375D01*
X154645327Y-128056062D01*
X154656856Y-128054493D01*
X154656857Y-128054493D01*
X154671124Y-128052551D01*
X154688116Y-128051400D01*
X159059018Y-128051400D01*
X159127139Y-128071402D01*
X159134649Y-128077454D01*
X159134826Y-128077211D01*
X159142846Y-128083038D01*
X159149858Y-128090050D01*
X159262896Y-128147646D01*
X159272685Y-128149196D01*
X159272687Y-128149197D01*
X159378407Y-128165941D01*
X159388200Y-128167492D01*
X159397993Y-128165941D01*
X159503713Y-128149197D01*
X159503715Y-128149196D01*
X159513504Y-128147646D01*
X159626542Y-128090050D01*
X159716250Y-128000342D01*
X159773846Y-127887304D01*
X159783796Y-127824485D01*
X159792141Y-127771793D01*
X159793692Y-127762000D01*
X159783190Y-127695692D01*
X159775397Y-127646487D01*
X159775396Y-127646485D01*
X159773846Y-127636696D01*
X159716250Y-127523658D01*
X159626542Y-127433950D01*
X159513504Y-127376354D01*
X159503715Y-127374804D01*
X159503713Y-127374803D01*
X159397993Y-127358059D01*
X159388200Y-127356508D01*
X159378407Y-127358059D01*
X159272687Y-127374803D01*
X159272685Y-127374804D01*
X159262896Y-127376354D01*
X159149858Y-127433950D01*
X159142846Y-127440962D01*
X159134826Y-127446789D01*
X159132829Y-127444041D01*
X159085801Y-127469721D01*
X159059018Y-127472600D01*
X159014397Y-127472600D01*
X158946276Y-127452598D01*
X158899783Y-127398942D01*
X158889948Y-127326890D01*
X158899941Y-127263794D01*
X158899941Y-127263793D01*
X158901492Y-127254000D01*
X158881646Y-127128696D01*
X158824050Y-127015658D01*
X158734342Y-126925950D01*
X158621304Y-126868354D01*
X158611515Y-126866804D01*
X158611513Y-126866803D01*
X158505793Y-126850059D01*
X158496000Y-126848508D01*
X158486207Y-126850059D01*
X158380487Y-126866803D01*
X158380485Y-126866804D01*
X158370696Y-126868354D01*
X158257658Y-126925950D01*
X158250646Y-126932962D01*
X158242626Y-126938789D01*
X158240629Y-126936041D01*
X158193601Y-126961721D01*
X158166818Y-126964600D01*
X154858063Y-126964600D01*
X154789942Y-126944598D01*
X154768968Y-126927695D01*
X153234305Y-125393031D01*
X153200279Y-125330719D01*
X153197400Y-125303936D01*
X153197400Y-124700863D01*
X153217402Y-124632742D01*
X153271058Y-124586249D01*
X153341332Y-124576145D01*
X153405912Y-124605639D01*
X153412493Y-124611766D01*
X153950421Y-125149695D01*
X154445839Y-125645113D01*
X154447364Y-125646880D01*
X154449640Y-125651536D01*
X154483458Y-125682906D01*
X154484144Y-125683543D01*
X154487549Y-125686823D01*
X154500396Y-125699670D01*
X154504266Y-125702325D01*
X154506610Y-125704383D01*
X154528680Y-125724856D01*
X154539485Y-125729167D01*
X154544549Y-125732368D01*
X154551660Y-125736165D01*
X154557128Y-125738588D01*
X154566721Y-125745169D01*
X154589489Y-125750572D01*
X154607082Y-125756136D01*
X154620554Y-125761511D01*
X154620559Y-125761512D01*
X154628815Y-125764806D01*
X154634873Y-125765400D01*
X154637960Y-125765400D01*
X154641024Y-125765550D01*
X154641010Y-125765843D01*
X154649657Y-125766855D01*
X154660296Y-125767375D01*
X154671617Y-125770062D01*
X154683146Y-125768493D01*
X154683147Y-125768493D01*
X154697414Y-125766551D01*
X154714406Y-125765400D01*
X157991229Y-125765400D01*
X158059350Y-125785402D01*
X158105843Y-125839058D01*
X158109110Y-125847450D01*
X158110354Y-125855304D01*
X158167950Y-125968342D01*
X158257658Y-126058050D01*
X158370696Y-126115646D01*
X158380485Y-126117196D01*
X158380487Y-126117197D01*
X158486207Y-126133941D01*
X158496000Y-126135492D01*
X158505793Y-126133941D01*
X158611513Y-126117197D01*
X158611515Y-126117196D01*
X158621304Y-126115646D01*
X158734342Y-126058050D01*
X158824050Y-125968342D01*
X158881646Y-125855304D01*
X158895862Y-125765550D01*
X158899941Y-125739793D01*
X158901492Y-125730000D01*
X158889065Y-125651536D01*
X158883197Y-125614487D01*
X158883196Y-125614485D01*
X158881646Y-125604696D01*
X158824050Y-125491658D01*
X158734342Y-125401950D01*
X158621304Y-125344354D01*
X158611513Y-125342803D01*
X158611512Y-125342803D01*
X158543853Y-125332087D01*
X158477874Y-125300013D01*
X158443856Y-125268457D01*
X158440451Y-125265177D01*
X158427604Y-125252330D01*
X158423734Y-125249675D01*
X158421389Y-125247616D01*
X158407849Y-125235056D01*
X158407850Y-125235056D01*
X158399320Y-125227144D01*
X158388515Y-125222833D01*
X158383451Y-125219632D01*
X158376340Y-125215835D01*
X158370872Y-125213412D01*
X158361279Y-125206831D01*
X158338511Y-125201428D01*
X158320918Y-125195864D01*
X158307446Y-125190489D01*
X158307441Y-125190488D01*
X158299185Y-125187194D01*
X158293127Y-125186600D01*
X158290040Y-125186600D01*
X158286976Y-125186450D01*
X158286990Y-125186157D01*
X158278343Y-125185145D01*
X158267704Y-125184625D01*
X158256383Y-125181938D01*
X158244854Y-125183507D01*
X158244852Y-125183507D01*
X158230584Y-125185449D01*
X158213593Y-125186600D01*
X154858064Y-125186600D01*
X154789943Y-125166598D01*
X154768969Y-125149695D01*
X154079274Y-124460000D01*
X158598508Y-124460000D01*
X158600059Y-124469793D01*
X158616373Y-124572794D01*
X158618354Y-124585304D01*
X158675950Y-124698342D01*
X158765658Y-124788050D01*
X158878696Y-124845646D01*
X158888485Y-124847196D01*
X158888487Y-124847197D01*
X158994207Y-124863941D01*
X159004000Y-124865492D01*
X159013793Y-124863941D01*
X159119513Y-124847197D01*
X159119515Y-124847196D01*
X159129304Y-124845646D01*
X159242342Y-124788050D01*
X159332050Y-124698342D01*
X159389646Y-124585304D01*
X159391628Y-124572794D01*
X159407941Y-124469793D01*
X159409492Y-124460000D01*
X159403199Y-124420267D01*
X159391197Y-124344487D01*
X159391196Y-124344485D01*
X159389646Y-124334696D01*
X159332050Y-124221658D01*
X159242342Y-124131950D01*
X159129304Y-124074354D01*
X159119515Y-124072804D01*
X159119513Y-124072803D01*
X159013793Y-124056059D01*
X159004000Y-124054508D01*
X158994207Y-124056059D01*
X158888487Y-124072803D01*
X158888485Y-124072804D01*
X158878696Y-124074354D01*
X158765658Y-124131950D01*
X158675950Y-124221658D01*
X158618354Y-124334696D01*
X158616804Y-124344485D01*
X158616803Y-124344487D01*
X158604801Y-124420267D01*
X158598508Y-124460000D01*
X154079274Y-124460000D01*
X153742305Y-124123031D01*
X153708279Y-124060719D01*
X153705400Y-124033936D01*
X153705400Y-123841982D01*
X153725402Y-123773861D01*
X153779058Y-123727368D01*
X153849332Y-123717264D01*
X153913912Y-123746758D01*
X153920495Y-123752887D01*
X153939658Y-123772050D01*
X154052696Y-123829646D01*
X154062485Y-123831196D01*
X154062487Y-123831197D01*
X154168207Y-123847941D01*
X154178000Y-123849492D01*
X154187793Y-123847941D01*
X154293513Y-123831197D01*
X154293515Y-123831196D01*
X154303304Y-123829646D01*
X154416342Y-123772050D01*
X154506050Y-123682342D01*
X154563646Y-123569304D01*
X154566068Y-123554016D01*
X154581941Y-123453793D01*
X154583492Y-123444000D01*
X154563646Y-123318696D01*
X154506050Y-123205658D01*
X154490392Y-123190000D01*
X164186508Y-123190000D01*
X164206354Y-123315304D01*
X164263950Y-123428342D01*
X164353658Y-123518050D01*
X164466696Y-123575646D01*
X164476485Y-123577196D01*
X164476487Y-123577197D01*
X164582207Y-123593941D01*
X164592000Y-123595492D01*
X164601793Y-123593941D01*
X164707513Y-123577197D01*
X164707515Y-123577196D01*
X164717304Y-123575646D01*
X164830342Y-123518050D01*
X164920050Y-123428342D01*
X164977646Y-123315304D01*
X164997492Y-123190000D01*
X164981412Y-123088471D01*
X164979197Y-123074487D01*
X164979196Y-123074485D01*
X164977646Y-123064696D01*
X164920050Y-122951658D01*
X164830342Y-122861950D01*
X164717304Y-122804354D01*
X164707515Y-122802804D01*
X164707513Y-122802803D01*
X164601793Y-122786059D01*
X164592000Y-122784508D01*
X164582207Y-122786059D01*
X164476487Y-122802803D01*
X164476485Y-122802804D01*
X164466696Y-122804354D01*
X164353658Y-122861950D01*
X164263950Y-122951658D01*
X164206354Y-123064696D01*
X164204804Y-123074485D01*
X164204803Y-123074487D01*
X164202588Y-123088471D01*
X164186508Y-123190000D01*
X154490392Y-123190000D01*
X154416342Y-123115950D01*
X154303304Y-123058354D01*
X154293515Y-123056804D01*
X154293513Y-123056803D01*
X154187793Y-123040059D01*
X154178000Y-123038508D01*
X154168207Y-123040059D01*
X154062487Y-123056803D01*
X154062485Y-123056804D01*
X154052696Y-123058354D01*
X153939658Y-123115950D01*
X153920495Y-123135113D01*
X153858183Y-123169139D01*
X153787368Y-123164074D01*
X153730532Y-123121527D01*
X153705721Y-123055007D01*
X153705400Y-123046018D01*
X153705400Y-120650000D01*
X163424508Y-120650000D01*
X163444354Y-120775304D01*
X163501950Y-120888342D01*
X163591658Y-120978050D01*
X163704696Y-121035646D01*
X163714485Y-121037196D01*
X163714487Y-121037197D01*
X163820207Y-121053941D01*
X163830000Y-121055492D01*
X163839793Y-121053941D01*
X163945513Y-121037197D01*
X163945515Y-121037196D01*
X163955304Y-121035646D01*
X164068342Y-120978050D01*
X164158050Y-120888342D01*
X164215646Y-120775304D01*
X164235492Y-120650000D01*
X164233941Y-120640207D01*
X164217197Y-120534487D01*
X164217196Y-120534485D01*
X164215646Y-120524696D01*
X164158050Y-120411658D01*
X164068342Y-120321950D01*
X163955304Y-120264354D01*
X163945515Y-120262804D01*
X163945513Y-120262803D01*
X163839793Y-120246059D01*
X163830000Y-120244508D01*
X163820207Y-120246059D01*
X163714487Y-120262803D01*
X163714485Y-120262804D01*
X163704696Y-120264354D01*
X163591658Y-120321950D01*
X163501950Y-120411658D01*
X163444354Y-120524696D01*
X163442804Y-120534485D01*
X163442803Y-120534487D01*
X163426059Y-120640207D01*
X163424508Y-120650000D01*
X153705400Y-120650000D01*
X153705400Y-119634000D01*
X162662508Y-119634000D01*
X162682354Y-119759304D01*
X162739950Y-119872342D01*
X162829658Y-119962050D01*
X162942696Y-120019646D01*
X162952485Y-120021196D01*
X162952487Y-120021197D01*
X163058207Y-120037941D01*
X163068000Y-120039492D01*
X163077793Y-120037941D01*
X163183513Y-120021197D01*
X163183515Y-120021196D01*
X163193304Y-120019646D01*
X163306342Y-119962050D01*
X163396050Y-119872342D01*
X163453646Y-119759304D01*
X163473492Y-119634000D01*
X163453646Y-119508696D01*
X163396050Y-119395658D01*
X163306342Y-119305950D01*
X163193304Y-119248354D01*
X163183515Y-119246804D01*
X163183513Y-119246803D01*
X163077793Y-119230059D01*
X163068000Y-119228508D01*
X163058207Y-119230059D01*
X162952487Y-119246803D01*
X162952485Y-119246804D01*
X162942696Y-119248354D01*
X162829658Y-119305950D01*
X162739950Y-119395658D01*
X162682354Y-119508696D01*
X162662508Y-119634000D01*
X153705400Y-119634000D01*
X153705400Y-118110000D01*
X162916508Y-118110000D01*
X162936354Y-118235304D01*
X162993950Y-118348342D01*
X163083658Y-118438050D01*
X163196696Y-118495646D01*
X163206485Y-118497196D01*
X163206487Y-118497197D01*
X163312207Y-118513941D01*
X163322000Y-118515492D01*
X163331793Y-118513941D01*
X163437513Y-118497197D01*
X163437515Y-118497196D01*
X163447304Y-118495646D01*
X163560342Y-118438050D01*
X163650050Y-118348342D01*
X163707646Y-118235304D01*
X163727492Y-118110000D01*
X163707646Y-117984696D01*
X163650050Y-117871658D01*
X163560342Y-117781950D01*
X163447304Y-117724354D01*
X163437515Y-117722804D01*
X163437513Y-117722803D01*
X163331793Y-117706059D01*
X163322000Y-117704508D01*
X163312207Y-117706059D01*
X163206487Y-117722803D01*
X163206485Y-117722804D01*
X163196696Y-117724354D01*
X163083658Y-117781950D01*
X162993950Y-117871658D01*
X162936354Y-117984696D01*
X162916508Y-118110000D01*
X153705400Y-118110000D01*
X153705400Y-115588500D01*
X158598508Y-115588500D01*
X158618354Y-115713804D01*
X158675950Y-115826842D01*
X158765658Y-115916550D01*
X158878696Y-115974146D01*
X158888485Y-115975696D01*
X158888487Y-115975697D01*
X158994207Y-115992441D01*
X159004000Y-115993992D01*
X159013793Y-115992441D01*
X159119513Y-115975697D01*
X159119515Y-115975696D01*
X159129304Y-115974146D01*
X159242342Y-115916550D01*
X159332050Y-115826842D01*
X159389646Y-115713804D01*
X159409492Y-115588500D01*
X160884508Y-115588500D01*
X160904354Y-115713804D01*
X160961950Y-115826842D01*
X161051658Y-115916550D01*
X161164696Y-115974146D01*
X161174485Y-115975696D01*
X161174487Y-115975697D01*
X161280207Y-115992441D01*
X161290000Y-115993992D01*
X161299793Y-115992441D01*
X161405513Y-115975697D01*
X161405515Y-115975696D01*
X161415304Y-115974146D01*
X161528342Y-115916550D01*
X161618050Y-115826842D01*
X161675646Y-115713804D01*
X161695492Y-115588500D01*
X161675646Y-115463196D01*
X161618050Y-115350158D01*
X161528342Y-115260450D01*
X161415304Y-115202854D01*
X161405515Y-115201304D01*
X161405513Y-115201303D01*
X161299793Y-115184559D01*
X161290000Y-115183008D01*
X161280207Y-115184559D01*
X161174487Y-115201303D01*
X161174485Y-115201304D01*
X161164696Y-115202854D01*
X161051658Y-115260450D01*
X160961950Y-115350158D01*
X160904354Y-115463196D01*
X160884508Y-115588500D01*
X159409492Y-115588500D01*
X159389646Y-115463196D01*
X159332050Y-115350158D01*
X159242342Y-115260450D01*
X159129304Y-115202854D01*
X159119515Y-115201304D01*
X159119513Y-115201303D01*
X159013793Y-115184559D01*
X159004000Y-115183008D01*
X158994207Y-115184559D01*
X158888487Y-115201303D01*
X158888485Y-115201304D01*
X158878696Y-115202854D01*
X158765658Y-115260450D01*
X158675950Y-115350158D01*
X158618354Y-115463196D01*
X158598508Y-115588500D01*
X153705400Y-115588500D01*
X153705400Y-115062000D01*
X164440508Y-115062000D01*
X164442059Y-115071793D01*
X164456692Y-115164181D01*
X164460354Y-115187304D01*
X164517950Y-115300342D01*
X164607658Y-115390050D01*
X164720696Y-115447646D01*
X164730485Y-115449196D01*
X164730487Y-115449197D01*
X164836207Y-115465941D01*
X164846000Y-115467492D01*
X164855793Y-115465941D01*
X164961513Y-115449197D01*
X164961515Y-115449196D01*
X164971304Y-115447646D01*
X165084342Y-115390050D01*
X165174050Y-115300342D01*
X165231646Y-115187304D01*
X165235309Y-115164181D01*
X165249941Y-115071793D01*
X165251492Y-115062000D01*
X165247486Y-115036704D01*
X165233197Y-114946487D01*
X165233196Y-114946485D01*
X165231646Y-114936696D01*
X165174050Y-114823658D01*
X165084342Y-114733950D01*
X164971304Y-114676354D01*
X164961515Y-114674804D01*
X164961513Y-114674803D01*
X164855793Y-114658059D01*
X164846000Y-114656508D01*
X164836207Y-114658059D01*
X164730487Y-114674803D01*
X164730485Y-114674804D01*
X164720696Y-114676354D01*
X164607658Y-114733950D01*
X164517950Y-114823658D01*
X164460354Y-114936696D01*
X164458804Y-114946485D01*
X164458803Y-114946487D01*
X164444514Y-115036704D01*
X164440508Y-115062000D01*
X153705400Y-115062000D01*
X153705400Y-114726063D01*
X153725402Y-114657942D01*
X153742305Y-114636968D01*
X154333273Y-114046000D01*
X158344508Y-114046000D01*
X158346059Y-114055793D01*
X158362259Y-114158075D01*
X158364354Y-114171304D01*
X158421950Y-114284342D01*
X158511658Y-114374050D01*
X158624696Y-114431646D01*
X158634485Y-114433196D01*
X158634487Y-114433197D01*
X158740207Y-114449941D01*
X158750000Y-114451492D01*
X158759793Y-114449941D01*
X158865513Y-114433197D01*
X158865515Y-114433196D01*
X158875304Y-114431646D01*
X158988342Y-114374050D01*
X159078050Y-114284342D01*
X159135646Y-114171304D01*
X159137742Y-114158075D01*
X159153941Y-114055793D01*
X159155492Y-114046000D01*
X163170508Y-114046000D01*
X163172059Y-114055793D01*
X163188259Y-114158075D01*
X163190354Y-114171304D01*
X163247950Y-114284342D01*
X163337658Y-114374050D01*
X163450696Y-114431646D01*
X163460485Y-114433196D01*
X163460487Y-114433197D01*
X163566207Y-114449941D01*
X163576000Y-114451492D01*
X163585793Y-114449941D01*
X163691513Y-114433197D01*
X163691515Y-114433196D01*
X163701304Y-114431646D01*
X163814342Y-114374050D01*
X163904050Y-114284342D01*
X163961646Y-114171304D01*
X163963742Y-114158075D01*
X163979941Y-114055793D01*
X163981492Y-114046000D01*
X163973502Y-113995553D01*
X163963197Y-113930487D01*
X163963196Y-113930485D01*
X163961646Y-113920696D01*
X163904050Y-113807658D01*
X163814342Y-113717950D01*
X163701304Y-113660354D01*
X163691515Y-113658804D01*
X163691513Y-113658803D01*
X163585793Y-113642059D01*
X163576000Y-113640508D01*
X163566207Y-113642059D01*
X163460487Y-113658803D01*
X163460485Y-113658804D01*
X163450696Y-113660354D01*
X163337658Y-113717950D01*
X163247950Y-113807658D01*
X163190354Y-113920696D01*
X163188804Y-113930485D01*
X163188803Y-113930487D01*
X163178498Y-113995553D01*
X163170508Y-114046000D01*
X159155492Y-114046000D01*
X159147502Y-113995553D01*
X159137197Y-113930487D01*
X159137196Y-113930485D01*
X159135646Y-113920696D01*
X159078050Y-113807658D01*
X158988342Y-113717950D01*
X158875304Y-113660354D01*
X158865515Y-113658804D01*
X158865513Y-113658803D01*
X158759793Y-113642059D01*
X158750000Y-113640508D01*
X158740207Y-113642059D01*
X158634487Y-113658803D01*
X158634485Y-113658804D01*
X158624696Y-113660354D01*
X158511658Y-113717950D01*
X158421950Y-113807658D01*
X158364354Y-113920696D01*
X158362804Y-113930485D01*
X158362803Y-113930487D01*
X158352498Y-113995553D01*
X158344508Y-114046000D01*
X154333273Y-114046000D01*
X160443108Y-107936165D01*
X160444879Y-107934637D01*
X160449536Y-107932360D01*
X160481556Y-107897842D01*
X160484836Y-107894437D01*
X160497670Y-107881603D01*
X160500324Y-107877734D01*
X160502368Y-107875406D01*
X160514946Y-107861847D01*
X160522856Y-107853320D01*
X160527166Y-107842517D01*
X160530366Y-107837455D01*
X160534165Y-107830340D01*
X160536588Y-107824872D01*
X160543169Y-107815279D01*
X160548572Y-107792511D01*
X160554136Y-107774918D01*
X160559511Y-107761446D01*
X160559512Y-107761441D01*
X160562806Y-107753185D01*
X160563400Y-107747127D01*
X160563400Y-107744040D01*
X160563550Y-107740976D01*
X160563843Y-107740990D01*
X160564855Y-107732342D01*
X160565375Y-107721703D01*
X160568062Y-107710382D01*
X160564551Y-107684585D01*
X160563400Y-107667593D01*
X160563400Y-103199182D01*
X160583402Y-103131061D01*
X160589454Y-103123551D01*
X160589211Y-103123374D01*
X160595038Y-103115354D01*
X160602050Y-103108342D01*
X160659646Y-102995304D01*
X160668322Y-102940523D01*
X160698734Y-102876371D01*
X160759002Y-102838844D01*
X160829991Y-102839857D01*
X160881866Y-102871139D01*
X163089918Y-105079191D01*
X163123944Y-105141503D01*
X163118879Y-105212318D01*
X163076332Y-105269154D01*
X163009812Y-105293965D01*
X162958345Y-105283537D01*
X162957571Y-105285920D01*
X162948137Y-105282854D01*
X162939304Y-105278354D01*
X162929515Y-105276804D01*
X162929513Y-105276803D01*
X162823793Y-105260059D01*
X162814000Y-105258508D01*
X162804207Y-105260059D01*
X162698487Y-105276803D01*
X162698485Y-105276804D01*
X162688696Y-105278354D01*
X162575658Y-105335950D01*
X162485950Y-105425658D01*
X162428354Y-105538696D01*
X162426804Y-105548485D01*
X162426803Y-105548487D01*
X162410059Y-105654207D01*
X162408508Y-105664000D01*
X162428354Y-105789304D01*
X162485950Y-105902342D01*
X162575658Y-105992050D01*
X162688696Y-106049646D01*
X162698485Y-106051196D01*
X162698487Y-106051197D01*
X162804207Y-106067941D01*
X162814000Y-106069492D01*
X162823793Y-106067941D01*
X162929513Y-106051197D01*
X162929515Y-106051196D01*
X162939304Y-106049646D01*
X163052342Y-105992050D01*
X163142050Y-105902342D01*
X163199646Y-105789304D01*
X163219492Y-105664000D01*
X163217941Y-105654207D01*
X163201197Y-105548487D01*
X163201196Y-105548485D01*
X163199646Y-105538696D01*
X163195146Y-105529863D01*
X163192080Y-105520429D01*
X163194669Y-105519588D01*
X163184343Y-105464600D01*
X163211045Y-105398816D01*
X163269073Y-105357911D01*
X163340005Y-105354872D01*
X163398809Y-105388082D01*
X172225835Y-114215108D01*
X172227363Y-114216879D01*
X172229640Y-114221536D01*
X172238169Y-114229448D01*
X172238170Y-114229449D01*
X172264158Y-114253556D01*
X172267563Y-114256836D01*
X172280397Y-114269670D01*
X172284266Y-114272324D01*
X172286591Y-114274366D01*
X172308680Y-114294856D01*
X172319483Y-114299166D01*
X172324545Y-114302366D01*
X172331660Y-114306165D01*
X172337128Y-114308588D01*
X172346721Y-114315169D01*
X172369489Y-114320572D01*
X172387082Y-114326136D01*
X172400554Y-114331511D01*
X172400559Y-114331512D01*
X172408815Y-114334806D01*
X172414873Y-114335400D01*
X172417960Y-114335400D01*
X172421024Y-114335550D01*
X172421010Y-114335843D01*
X172429658Y-114336855D01*
X172440297Y-114337375D01*
X172451618Y-114340062D01*
X172463147Y-114338493D01*
X172463148Y-114338493D01*
X172477415Y-114336551D01*
X172494407Y-114335400D01*
X182804818Y-114335400D01*
X182872939Y-114355402D01*
X182880449Y-114361454D01*
X182880626Y-114361211D01*
X182888646Y-114367038D01*
X182895658Y-114374050D01*
X183008696Y-114431646D01*
X183018485Y-114433196D01*
X183018487Y-114433197D01*
X183124207Y-114449941D01*
X183134000Y-114451492D01*
X183143793Y-114449941D01*
X183249513Y-114433197D01*
X183249515Y-114433196D01*
X183259304Y-114431646D01*
X183372342Y-114374050D01*
X183462050Y-114284342D01*
X183519646Y-114171304D01*
X183521742Y-114158075D01*
X183537941Y-114055793D01*
X183539492Y-114046000D01*
X183531502Y-113995553D01*
X183525917Y-113960289D01*
X189841824Y-113960289D01*
X189843161Y-113980686D01*
X189856254Y-114180453D01*
X189857675Y-114186049D01*
X189857676Y-114186054D01*
X189902161Y-114361211D01*
X189910565Y-114394301D01*
X189912982Y-114399543D01*
X189912982Y-114399544D01*
X189995116Y-114577705D01*
X190002937Y-114594671D01*
X190006270Y-114599387D01*
X190125152Y-114767601D01*
X190130276Y-114774852D01*
X190288319Y-114928810D01*
X190471771Y-115051390D01*
X190477074Y-115053668D01*
X190477077Y-115053670D01*
X190635001Y-115121519D01*
X190674491Y-115138485D01*
X190754143Y-115156508D01*
X190884050Y-115185904D01*
X190884056Y-115185905D01*
X190889687Y-115187179D01*
X190895458Y-115187406D01*
X190895460Y-115187406D01*
X190963400Y-115190075D01*
X191110154Y-115195841D01*
X191219330Y-115180011D01*
X191322793Y-115165010D01*
X191322798Y-115165009D01*
X191328507Y-115164181D01*
X191333971Y-115162326D01*
X191333976Y-115162325D01*
X191531963Y-115095118D01*
X191531968Y-115095116D01*
X191537435Y-115093260D01*
X191567730Y-115076294D01*
X191724901Y-114988274D01*
X191724905Y-114988271D01*
X191729939Y-114985452D01*
X191734376Y-114981762D01*
X191734380Y-114981759D01*
X191895136Y-114848059D01*
X191899574Y-114844368D01*
X191957925Y-114774209D01*
X192036965Y-114679174D01*
X192036968Y-114679170D01*
X192040658Y-114674733D01*
X192043477Y-114669699D01*
X192043480Y-114669695D01*
X192145643Y-114487270D01*
X192145643Y-114487269D01*
X192148466Y-114482229D01*
X192150322Y-114476762D01*
X192150324Y-114476757D01*
X192217531Y-114278770D01*
X192217532Y-114278765D01*
X192219387Y-114273301D01*
X192220215Y-114267592D01*
X192220216Y-114267587D01*
X192250514Y-114058622D01*
X192251047Y-114054948D01*
X192252699Y-113991849D01*
X192232510Y-113772138D01*
X192227726Y-113755173D01*
X192200984Y-113660354D01*
X192172621Y-113559785D01*
X192170068Y-113554608D01*
X192170066Y-113554603D01*
X192077589Y-113367081D01*
X192075035Y-113361902D01*
X191943023Y-113185116D01*
X191781005Y-113035347D01*
X191776122Y-113032266D01*
X191776118Y-113032263D01*
X191599289Y-112920693D01*
X191599290Y-112920693D01*
X191594406Y-112917612D01*
X191389476Y-112835854D01*
X191383816Y-112834728D01*
X191383812Y-112834727D01*
X191178746Y-112793937D01*
X191178743Y-112793937D01*
X191173079Y-112792810D01*
X191167304Y-112792734D01*
X191167300Y-112792734D01*
X191056559Y-112791285D01*
X190952461Y-112789922D01*
X190946764Y-112790901D01*
X190946763Y-112790901D01*
X190740708Y-112826307D01*
X190740707Y-112826307D01*
X190735011Y-112827286D01*
X190528012Y-112903652D01*
X190523051Y-112906604D01*
X190523050Y-112906604D01*
X190371876Y-112996544D01*
X190338395Y-113016463D01*
X190172512Y-113161938D01*
X190168945Y-113166463D01*
X190168940Y-113166468D01*
X190088553Y-113268439D01*
X190035917Y-113335208D01*
X190033228Y-113340319D01*
X190033226Y-113340322D01*
X190018260Y-113368768D01*
X189933185Y-113530469D01*
X189867757Y-113741182D01*
X189841824Y-113960289D01*
X183525917Y-113960289D01*
X183521197Y-113930487D01*
X183521196Y-113930485D01*
X183519646Y-113920696D01*
X183462050Y-113807658D01*
X183372342Y-113717950D01*
X183259304Y-113660354D01*
X183249515Y-113658804D01*
X183249513Y-113658803D01*
X183143793Y-113642059D01*
X183134000Y-113640508D01*
X183124207Y-113642059D01*
X183018487Y-113658803D01*
X183018485Y-113658804D01*
X183008696Y-113660354D01*
X182895658Y-113717950D01*
X182888646Y-113724962D01*
X182880626Y-113730789D01*
X182878629Y-113728041D01*
X182831601Y-113753721D01*
X182804818Y-113756600D01*
X172638063Y-113756600D01*
X172569942Y-113736598D01*
X172548968Y-113719695D01*
X171097273Y-112268000D01*
X185014508Y-112268000D01*
X185034354Y-112393304D01*
X185091950Y-112506342D01*
X185181658Y-112596050D01*
X185294696Y-112653646D01*
X185304485Y-112655196D01*
X185304487Y-112655197D01*
X185410207Y-112671941D01*
X185420000Y-112673492D01*
X185429793Y-112671941D01*
X185535513Y-112655197D01*
X185535515Y-112655196D01*
X185545304Y-112653646D01*
X185658342Y-112596050D01*
X185748050Y-112506342D01*
X185805646Y-112393304D01*
X185825492Y-112268000D01*
X185805646Y-112142696D01*
X185748050Y-112029658D01*
X185658342Y-111939950D01*
X185545304Y-111882354D01*
X185535515Y-111880804D01*
X185535513Y-111880803D01*
X185429793Y-111864059D01*
X185420000Y-111862508D01*
X185410207Y-111864059D01*
X185304487Y-111880803D01*
X185304485Y-111880804D01*
X185294696Y-111882354D01*
X185181658Y-111939950D01*
X185091950Y-112029658D01*
X185034354Y-112142696D01*
X185014508Y-112268000D01*
X171097273Y-112268000D01*
X163985273Y-105156000D01*
X178156508Y-105156000D01*
X178158059Y-105165793D01*
X178174430Y-105269154D01*
X178176354Y-105281304D01*
X178233950Y-105394342D01*
X178323658Y-105484050D01*
X178436696Y-105541646D01*
X178446485Y-105543196D01*
X178446487Y-105543197D01*
X178552207Y-105559941D01*
X178562000Y-105561492D01*
X178571793Y-105559941D01*
X178677513Y-105543197D01*
X178677515Y-105543196D01*
X178687304Y-105541646D01*
X178800342Y-105484050D01*
X178890050Y-105394342D01*
X178947646Y-105281304D01*
X178949571Y-105269154D01*
X178965941Y-105165793D01*
X178967492Y-105156000D01*
X178947646Y-105030696D01*
X178890050Y-104917658D01*
X178836487Y-104864095D01*
X178802461Y-104801783D01*
X178807526Y-104730968D01*
X178836487Y-104685905D01*
X178890050Y-104632342D01*
X178947646Y-104519304D01*
X178967492Y-104394000D01*
X178947646Y-104268696D01*
X178890050Y-104155658D01*
X178800342Y-104065950D01*
X178687304Y-104008354D01*
X178677515Y-104006804D01*
X178677513Y-104006803D01*
X178571793Y-103990059D01*
X178562000Y-103988508D01*
X178552207Y-103990059D01*
X178446487Y-104006803D01*
X178446485Y-104006804D01*
X178436696Y-104008354D01*
X178323658Y-104065950D01*
X178233950Y-104155658D01*
X178176354Y-104268696D01*
X178156508Y-104394000D01*
X178176354Y-104519304D01*
X178233950Y-104632342D01*
X178287513Y-104685905D01*
X178321539Y-104748217D01*
X178316474Y-104819032D01*
X178287513Y-104864095D01*
X178233950Y-104917658D01*
X178176354Y-105030696D01*
X178156508Y-105156000D01*
X163985273Y-105156000D01*
X154587274Y-95758000D01*
X188116318Y-95758000D01*
X188136956Y-95914762D01*
X188197464Y-96060841D01*
X188293718Y-96186282D01*
X188419159Y-96282536D01*
X188565238Y-96343044D01*
X188722000Y-96363682D01*
X188730188Y-96362604D01*
X188870574Y-96344122D01*
X188878762Y-96343044D01*
X189024841Y-96282536D01*
X189150282Y-96186282D01*
X189246536Y-96060841D01*
X189307044Y-95914762D01*
X189327682Y-95758000D01*
X189308941Y-95615649D01*
X189308122Y-95609426D01*
X189307044Y-95601238D01*
X189246536Y-95455159D01*
X189150282Y-95329718D01*
X189024841Y-95233464D01*
X188878762Y-95172956D01*
X188722000Y-95152318D01*
X188565238Y-95172956D01*
X188419159Y-95233464D01*
X188293718Y-95329718D01*
X188197464Y-95455159D01*
X188136956Y-95601238D01*
X188135878Y-95609426D01*
X188135059Y-95615649D01*
X188116318Y-95758000D01*
X154587274Y-95758000D01*
X152746274Y-93917000D01*
X154788508Y-93917000D01*
X154808354Y-94042304D01*
X154865950Y-94155342D01*
X154955658Y-94245050D01*
X155068696Y-94302646D01*
X155078485Y-94304196D01*
X155078487Y-94304197D01*
X155184207Y-94320941D01*
X155194000Y-94322492D01*
X155203793Y-94320941D01*
X155309513Y-94304197D01*
X155309515Y-94304196D01*
X155319304Y-94302646D01*
X155432342Y-94245050D01*
X155522050Y-94155342D01*
X155579646Y-94042304D01*
X155599492Y-93917000D01*
X156820508Y-93917000D01*
X156840354Y-94042304D01*
X156897950Y-94155342D01*
X156987658Y-94245050D01*
X157100696Y-94302646D01*
X157110485Y-94304196D01*
X157110487Y-94304197D01*
X157216207Y-94320941D01*
X157226000Y-94322492D01*
X157235793Y-94320941D01*
X157341513Y-94304197D01*
X157341515Y-94304196D01*
X157351304Y-94302646D01*
X157464342Y-94245050D01*
X157554050Y-94155342D01*
X157611646Y-94042304D01*
X157621514Y-93980000D01*
X161392508Y-93980000D01*
X161412354Y-94105304D01*
X161469950Y-94218342D01*
X161559658Y-94308050D01*
X161672696Y-94365646D01*
X161682485Y-94367196D01*
X161682487Y-94367197D01*
X161788207Y-94383941D01*
X161798000Y-94385492D01*
X161807793Y-94383941D01*
X161913513Y-94367197D01*
X161913515Y-94367196D01*
X161923304Y-94365646D01*
X162036342Y-94308050D01*
X162126050Y-94218342D01*
X162183646Y-94105304D01*
X162203492Y-93980000D01*
X162183646Y-93854696D01*
X162126050Y-93741658D01*
X162036342Y-93651950D01*
X161923304Y-93594354D01*
X161913515Y-93592804D01*
X161913513Y-93592803D01*
X161807793Y-93576059D01*
X161798000Y-93574508D01*
X161788207Y-93576059D01*
X161682487Y-93592803D01*
X161682485Y-93592804D01*
X161672696Y-93594354D01*
X161559658Y-93651950D01*
X161469950Y-93741658D01*
X161412354Y-93854696D01*
X161392508Y-93980000D01*
X157621514Y-93980000D01*
X157631492Y-93917000D01*
X157611646Y-93791696D01*
X157554050Y-93678658D01*
X157464342Y-93588950D01*
X157351304Y-93531354D01*
X157341515Y-93529804D01*
X157341513Y-93529803D01*
X157235793Y-93513059D01*
X157226000Y-93511508D01*
X157216207Y-93513059D01*
X157110487Y-93529803D01*
X157110485Y-93529804D01*
X157100696Y-93531354D01*
X156987658Y-93588950D01*
X156897950Y-93678658D01*
X156840354Y-93791696D01*
X156820508Y-93917000D01*
X155599492Y-93917000D01*
X155579646Y-93791696D01*
X155522050Y-93678658D01*
X155432342Y-93588950D01*
X155319304Y-93531354D01*
X155309515Y-93529804D01*
X155309513Y-93529803D01*
X155203793Y-93513059D01*
X155194000Y-93511508D01*
X155184207Y-93513059D01*
X155078487Y-93529803D01*
X155078485Y-93529804D01*
X155068696Y-93531354D01*
X154955658Y-93588950D01*
X154865950Y-93678658D01*
X154808354Y-93791696D01*
X154788508Y-93917000D01*
X152746274Y-93917000D01*
X152401140Y-93571866D01*
X152367114Y-93509554D01*
X152372179Y-93438739D01*
X152414726Y-93381903D01*
X152470525Y-93358322D01*
X152515512Y-93351197D01*
X152515513Y-93351197D01*
X152525304Y-93349646D01*
X152638342Y-93292050D01*
X152728050Y-93202342D01*
X152785646Y-93089304D01*
X152800558Y-92995156D01*
X152803941Y-92973793D01*
X152805492Y-92964000D01*
X152785646Y-92838696D01*
X152728050Y-92725658D01*
X152721038Y-92718646D01*
X152715211Y-92710626D01*
X152717959Y-92708629D01*
X152692279Y-92661601D01*
X152689400Y-92634818D01*
X152689400Y-90434397D01*
X152709402Y-90366276D01*
X152763058Y-90319783D01*
X152835110Y-90309948D01*
X152898206Y-90319941D01*
X152898207Y-90319941D01*
X152908000Y-90321492D01*
X152917793Y-90319941D01*
X153023513Y-90303197D01*
X153023515Y-90303196D01*
X153033304Y-90301646D01*
X153146342Y-90244050D01*
X153220392Y-90170000D01*
X155550508Y-90170000D01*
X155570354Y-90295304D01*
X155627950Y-90408342D01*
X155717658Y-90498050D01*
X155830696Y-90555646D01*
X155840485Y-90557196D01*
X155840487Y-90557197D01*
X155946207Y-90573941D01*
X155956000Y-90575492D01*
X155965793Y-90573941D01*
X156071513Y-90557197D01*
X156071515Y-90557196D01*
X156081304Y-90555646D01*
X156194342Y-90498050D01*
X156284050Y-90408342D01*
X156341646Y-90295304D01*
X156361492Y-90170000D01*
X156355925Y-90134852D01*
X156365024Y-90064443D01*
X156410746Y-90010128D01*
X156423172Y-90002875D01*
X156439508Y-89994552D01*
X156439512Y-89994549D01*
X156448342Y-89990050D01*
X156538050Y-89900342D01*
X156595646Y-89787304D01*
X156599257Y-89764508D01*
X156613941Y-89671793D01*
X156613941Y-89671791D01*
X156615492Y-89662000D01*
X156604874Y-89594961D01*
X156597197Y-89546487D01*
X156597196Y-89546485D01*
X156595646Y-89536696D01*
X156538050Y-89423658D01*
X156448342Y-89333950D01*
X156335304Y-89276354D01*
X156325515Y-89274804D01*
X156325513Y-89274803D01*
X156219793Y-89258059D01*
X156210000Y-89256508D01*
X156200207Y-89258059D01*
X156094487Y-89274803D01*
X156094485Y-89274804D01*
X156084696Y-89276354D01*
X155971658Y-89333950D01*
X155881950Y-89423658D01*
X155824354Y-89536696D01*
X155822804Y-89546485D01*
X155822803Y-89546487D01*
X155815126Y-89594961D01*
X155804508Y-89662000D01*
X155806116Y-89672148D01*
X155810075Y-89697146D01*
X155800976Y-89767557D01*
X155755254Y-89821872D01*
X155742828Y-89829125D01*
X155726492Y-89837448D01*
X155726488Y-89837451D01*
X155717658Y-89841950D01*
X155627950Y-89931658D01*
X155570354Y-90044696D01*
X155568804Y-90054485D01*
X155568803Y-90054487D01*
X155554387Y-90145508D01*
X155550508Y-90170000D01*
X153220392Y-90170000D01*
X153236050Y-90154342D01*
X153240551Y-90145509D01*
X153240552Y-90145508D01*
X153248875Y-90129172D01*
X153297622Y-90077556D01*
X153366537Y-90060490D01*
X153380846Y-90061924D01*
X153416000Y-90067492D01*
X153425793Y-90065941D01*
X153531513Y-90049197D01*
X153531515Y-90049196D01*
X153541304Y-90047646D01*
X153654342Y-89990050D01*
X153744050Y-89900342D01*
X153801646Y-89787304D01*
X153805257Y-89764508D01*
X153819941Y-89671793D01*
X153819941Y-89671791D01*
X153821492Y-89662000D01*
X153810874Y-89594961D01*
X153803197Y-89546487D01*
X153803196Y-89546485D01*
X153801646Y-89536696D01*
X153744050Y-89423658D01*
X153654342Y-89333950D01*
X153541304Y-89276354D01*
X153531515Y-89274804D01*
X153531513Y-89274803D01*
X153425793Y-89258059D01*
X153416000Y-89256508D01*
X153406207Y-89258059D01*
X153300487Y-89274803D01*
X153300485Y-89274804D01*
X153290696Y-89276354D01*
X153177658Y-89333950D01*
X153087950Y-89423658D01*
X153083451Y-89432488D01*
X153083448Y-89432492D01*
X153075125Y-89448828D01*
X153026378Y-89500444D01*
X152957463Y-89517510D01*
X152943154Y-89516076D01*
X152908000Y-89510508D01*
X152898207Y-89512059D01*
X152898206Y-89512059D01*
X152835110Y-89522052D01*
X152764699Y-89512952D01*
X152710385Y-89467230D01*
X152689400Y-89397603D01*
X152689400Y-85221500D01*
X152709402Y-85153379D01*
X152763058Y-85106886D01*
X152815400Y-85095500D01*
X155576000Y-85095500D01*
X155579346Y-85095140D01*
X155579351Y-85095140D01*
X155681785Y-85084128D01*
X155681792Y-85084127D01*
X155685149Y-85083766D01*
X155688450Y-85083048D01*
X155734210Y-85073094D01*
X155734215Y-85073093D01*
X155737491Y-85072380D01*
X155841657Y-85037710D01*
X155964612Y-84958692D01*
X156018268Y-84912199D01*
X156073888Y-84848010D01*
X156108081Y-84808550D01*
X156108083Y-84808547D01*
X156113982Y-84801739D01*
X156174698Y-84668790D01*
X156194700Y-84600669D01*
X156195977Y-84591793D01*
X156214861Y-84460447D01*
X156214861Y-84460442D01*
X156215500Y-84456000D01*
X156215500Y-82300500D01*
X156235502Y-82232379D01*
X156289158Y-82185886D01*
X156341500Y-82174500D01*
X156973000Y-82174500D01*
X156976346Y-82174140D01*
X156976351Y-82174140D01*
X157078785Y-82163128D01*
X157078792Y-82163127D01*
X157082149Y-82162766D01*
X157085450Y-82162048D01*
X157131210Y-82152094D01*
X157131215Y-82152093D01*
X157134491Y-82151380D01*
X157238657Y-82116710D01*
X157361612Y-82037692D01*
X157415268Y-81991199D01*
X157423297Y-81981933D01*
X157505081Y-81887550D01*
X157505083Y-81887547D01*
X157510982Y-81880739D01*
X157571698Y-81747790D01*
X157591700Y-81679669D01*
X157593359Y-81668137D01*
X157611861Y-81539447D01*
X157611861Y-81539442D01*
X157612500Y-81535000D01*
X157612500Y-81534000D01*
X158598508Y-81534000D01*
X158600059Y-81543793D01*
X158614459Y-81634710D01*
X158618354Y-81659304D01*
X158675950Y-81772342D01*
X158765658Y-81862050D01*
X158878696Y-81919646D01*
X158888485Y-81921196D01*
X158888487Y-81921197D01*
X158994207Y-81937941D01*
X159004000Y-81939492D01*
X159013793Y-81937941D01*
X159119513Y-81921197D01*
X159119515Y-81921196D01*
X159129304Y-81919646D01*
X159242342Y-81862050D01*
X159332050Y-81772342D01*
X159389646Y-81659304D01*
X159393542Y-81634710D01*
X159407941Y-81543793D01*
X159409492Y-81534000D01*
X159400350Y-81476276D01*
X159391197Y-81418487D01*
X159391196Y-81418485D01*
X159389646Y-81408696D01*
X159332050Y-81295658D01*
X159242342Y-81205950D01*
X159129304Y-81148354D01*
X159119515Y-81146804D01*
X159119513Y-81146803D01*
X159013793Y-81130059D01*
X159004000Y-81128508D01*
X158994207Y-81130059D01*
X158888487Y-81146803D01*
X158888485Y-81146804D01*
X158878696Y-81148354D01*
X158765658Y-81205950D01*
X158675950Y-81295658D01*
X158618354Y-81408696D01*
X158616804Y-81418485D01*
X158616803Y-81418487D01*
X158607650Y-81476276D01*
X158598508Y-81534000D01*
X157612500Y-81534000D01*
X157612500Y-77978702D01*
X157611721Y-77968207D01*
X157607369Y-77909636D01*
X157607368Y-77909633D01*
X157606862Y-77902816D01*
X157564910Y-77762809D01*
X157485214Y-77640292D01*
X157478373Y-77634430D01*
X157475705Y-77631385D01*
X157445857Y-77566968D01*
X157444530Y-77544590D01*
X157631322Y-71287036D01*
X157651295Y-71222633D01*
X157678863Y-71179774D01*
X157678865Y-71179771D01*
X157681388Y-71175848D01*
X157785197Y-70945400D01*
X157837184Y-70761067D01*
X157874925Y-70700933D01*
X157939186Y-70670750D01*
X158009565Y-70680100D01*
X158063715Y-70726016D01*
X158082539Y-70773388D01*
X158209508Y-71493462D01*
X158212091Y-71508112D01*
X158212868Y-71514539D01*
X158212933Y-71514530D01*
X158213551Y-71518984D01*
X158213850Y-71523476D01*
X158226000Y-71580691D01*
X160211805Y-76986492D01*
X160214993Y-76995171D01*
X160219707Y-77066011D01*
X160211334Y-77090961D01*
X160181102Y-77157160D01*
X160162300Y-77198330D01*
X160161018Y-77207245D01*
X160161018Y-77207246D01*
X160142139Y-77338552D01*
X160142138Y-77338559D01*
X160141500Y-77343000D01*
X160141500Y-83864222D01*
X160121498Y-83932343D01*
X160067842Y-83978836D01*
X159997568Y-83988940D01*
X159958297Y-83976489D01*
X159891304Y-83942354D01*
X159881515Y-83940804D01*
X159881513Y-83940803D01*
X159775793Y-83924059D01*
X159766000Y-83922508D01*
X159756207Y-83924059D01*
X159650487Y-83940803D01*
X159650485Y-83940804D01*
X159640696Y-83942354D01*
X159527658Y-83999950D01*
X159437950Y-84089658D01*
X159380354Y-84202696D01*
X159360508Y-84328000D01*
X159362059Y-84337793D01*
X159373260Y-84408511D01*
X159380354Y-84453304D01*
X159437950Y-84566342D01*
X159527658Y-84656050D01*
X159640696Y-84713646D01*
X159650485Y-84715196D01*
X159650487Y-84715197D01*
X159756207Y-84731941D01*
X159766000Y-84733492D01*
X159775793Y-84731941D01*
X159881513Y-84715197D01*
X159881515Y-84715196D01*
X159891304Y-84713646D01*
X160004342Y-84656050D01*
X160007111Y-84653281D01*
X160070840Y-84630541D01*
X160139992Y-84646620D01*
X160189473Y-84697532D01*
X160194742Y-84709876D01*
X160196802Y-84714182D01*
X160199290Y-84721657D01*
X160278308Y-84844612D01*
X160324801Y-84898268D01*
X160328194Y-84901208D01*
X160428450Y-84988081D01*
X160428453Y-84988083D01*
X160435261Y-84993982D01*
X160568210Y-85054698D01*
X160591964Y-85061673D01*
X160632008Y-85073431D01*
X160632012Y-85073432D01*
X160636331Y-85074700D01*
X160640785Y-85075340D01*
X160645187Y-85076298D01*
X160644838Y-85077901D01*
X160703099Y-85104498D01*
X160741491Y-85164219D01*
X160746600Y-85199734D01*
X160746600Y-85679937D01*
X160726598Y-85748058D01*
X160709695Y-85769032D01*
X158834887Y-87643839D01*
X158833120Y-87645364D01*
X158828464Y-87647640D01*
X158797094Y-87681458D01*
X158796457Y-87682144D01*
X158793177Y-87685549D01*
X158780330Y-87698396D01*
X158777675Y-87702266D01*
X158775617Y-87704610D01*
X158755144Y-87726680D01*
X158750833Y-87737485D01*
X158747632Y-87742549D01*
X158743835Y-87749660D01*
X158741412Y-87755128D01*
X158734831Y-87764721D01*
X158732145Y-87776041D01*
X158729428Y-87787489D01*
X158723864Y-87805082D01*
X158718489Y-87818554D01*
X158718488Y-87818559D01*
X158715194Y-87826815D01*
X158714600Y-87832873D01*
X158714600Y-87835960D01*
X158714450Y-87839024D01*
X158714157Y-87839010D01*
X158713145Y-87847657D01*
X158712625Y-87858296D01*
X158709938Y-87869617D01*
X158711507Y-87881146D01*
X158711507Y-87881148D01*
X158713449Y-87895416D01*
X158714600Y-87912407D01*
X158714600Y-89264018D01*
X158694598Y-89332139D01*
X158640942Y-89378632D01*
X158570668Y-89388736D01*
X158506088Y-89359242D01*
X158499505Y-89353113D01*
X158480342Y-89333950D01*
X158367304Y-89276354D01*
X158357515Y-89274804D01*
X158357513Y-89274803D01*
X158251793Y-89258059D01*
X158242000Y-89256508D01*
X158232207Y-89258059D01*
X158126487Y-89274803D01*
X158126485Y-89274804D01*
X158116696Y-89276354D01*
X158003658Y-89333950D01*
X157950095Y-89387513D01*
X157887783Y-89421539D01*
X157816968Y-89416474D01*
X157771905Y-89387513D01*
X157718342Y-89333950D01*
X157605304Y-89276354D01*
X157595515Y-89274804D01*
X157595513Y-89274803D01*
X157489793Y-89258059D01*
X157480000Y-89256508D01*
X157470207Y-89258059D01*
X157364487Y-89274803D01*
X157364485Y-89274804D01*
X157354696Y-89276354D01*
X157241658Y-89333950D01*
X157151950Y-89423658D01*
X157094354Y-89536696D01*
X157092804Y-89546485D01*
X157092803Y-89546487D01*
X157085126Y-89594961D01*
X157074508Y-89662000D01*
X157076059Y-89671791D01*
X157076059Y-89671793D01*
X157090744Y-89764508D01*
X157094354Y-89787304D01*
X157151950Y-89900342D01*
X157241658Y-89990050D01*
X157354696Y-90047646D01*
X157364485Y-90049196D01*
X157364487Y-90049197D01*
X157470207Y-90065941D01*
X157480000Y-90067492D01*
X157489793Y-90065941D01*
X157595513Y-90049197D01*
X157595515Y-90049196D01*
X157605304Y-90047646D01*
X157718342Y-89990050D01*
X157771905Y-89936487D01*
X157834217Y-89902461D01*
X157905032Y-89907526D01*
X157950095Y-89936487D01*
X158003658Y-89990050D01*
X158116696Y-90047646D01*
X158126485Y-90049196D01*
X158126487Y-90049197D01*
X158232207Y-90065941D01*
X158242000Y-90067492D01*
X158251793Y-90065941D01*
X158357513Y-90049197D01*
X158357515Y-90049196D01*
X158367304Y-90047646D01*
X158480342Y-89990050D01*
X158499505Y-89970887D01*
X158561817Y-89936861D01*
X158632632Y-89941926D01*
X158689468Y-89984473D01*
X158714279Y-90050993D01*
X158714600Y-90059982D01*
X158714600Y-92634818D01*
X158694598Y-92702939D01*
X158688546Y-92710449D01*
X158688789Y-92710626D01*
X158682962Y-92718646D01*
X158675950Y-92725658D01*
X158618354Y-92838696D01*
X158598508Y-92964000D01*
X158600059Y-92973793D01*
X158603443Y-92995156D01*
X158618354Y-93089304D01*
X158675950Y-93202342D01*
X158765658Y-93292050D01*
X158878696Y-93349646D01*
X158888485Y-93351196D01*
X158888487Y-93351197D01*
X158994207Y-93367941D01*
X159004000Y-93369492D01*
X159013793Y-93367941D01*
X159119513Y-93351197D01*
X159119515Y-93351196D01*
X159129304Y-93349646D01*
X159242342Y-93292050D01*
X159332050Y-93202342D01*
X159389646Y-93089304D01*
X159404558Y-92995156D01*
X159407941Y-92973793D01*
X159409492Y-92964000D01*
X187608318Y-92964000D01*
X187628956Y-93120762D01*
X187689464Y-93266841D01*
X187785718Y-93392282D01*
X187911159Y-93488536D01*
X188057238Y-93549044D01*
X188214000Y-93569682D01*
X188222188Y-93568604D01*
X188362574Y-93550122D01*
X188370762Y-93549044D01*
X188516841Y-93488536D01*
X188642282Y-93392282D01*
X188738536Y-93266841D01*
X188799044Y-93120762D01*
X188819682Y-92964000D01*
X188799044Y-92807238D01*
X188738536Y-92661159D01*
X188642282Y-92535718D01*
X188516841Y-92439464D01*
X188370762Y-92378956D01*
X188214000Y-92358318D01*
X188057238Y-92378956D01*
X187911159Y-92439464D01*
X187785718Y-92535718D01*
X187689464Y-92661159D01*
X187628956Y-92807238D01*
X187608318Y-92964000D01*
X159409492Y-92964000D01*
X159389646Y-92838696D01*
X159332050Y-92725658D01*
X159325038Y-92718646D01*
X159319211Y-92710626D01*
X159321959Y-92708629D01*
X159296279Y-92661601D01*
X159293400Y-92634818D01*
X159293400Y-91440000D01*
X189640318Y-91440000D01*
X189660956Y-91596762D01*
X189721464Y-91742841D01*
X189817718Y-91868282D01*
X189824264Y-91873305D01*
X189825142Y-91873979D01*
X189943159Y-91964536D01*
X190089238Y-92025044D01*
X190246000Y-92045682D01*
X190254188Y-92044604D01*
X190394574Y-92026122D01*
X190402762Y-92025044D01*
X190548841Y-91964536D01*
X190666858Y-91873979D01*
X190667736Y-91873305D01*
X190674282Y-91868282D01*
X190770536Y-91742841D01*
X190831044Y-91596762D01*
X190851682Y-91440000D01*
X190831044Y-91283238D01*
X190770536Y-91137159D01*
X190674282Y-91011718D01*
X190548841Y-90915464D01*
X190402762Y-90854956D01*
X190246000Y-90834318D01*
X190089238Y-90854956D01*
X189943159Y-90915464D01*
X189817718Y-91011718D01*
X189721464Y-91137159D01*
X189660956Y-91283238D01*
X189640318Y-91440000D01*
X159293400Y-91440000D01*
X159293400Y-90170000D01*
X160376508Y-90170000D01*
X160396354Y-90295304D01*
X160453950Y-90408342D01*
X160543658Y-90498050D01*
X160656696Y-90555646D01*
X160666485Y-90557196D01*
X160666487Y-90557197D01*
X160772207Y-90573941D01*
X160782000Y-90575492D01*
X160791793Y-90573941D01*
X160897513Y-90557197D01*
X160897515Y-90557196D01*
X160907304Y-90555646D01*
X161020342Y-90498050D01*
X161110050Y-90408342D01*
X161167646Y-90295304D01*
X161187492Y-90170000D01*
X161183613Y-90145508D01*
X161169197Y-90054487D01*
X161169196Y-90054485D01*
X161167646Y-90044696D01*
X161110050Y-89931658D01*
X161020342Y-89841950D01*
X160907304Y-89784354D01*
X160897515Y-89782804D01*
X160897513Y-89782803D01*
X160791793Y-89766059D01*
X160782000Y-89764508D01*
X160772207Y-89766059D01*
X160666487Y-89782803D01*
X160666485Y-89782804D01*
X160656696Y-89784354D01*
X160543658Y-89841950D01*
X160453950Y-89931658D01*
X160396354Y-90044696D01*
X160394804Y-90054485D01*
X160394803Y-90054487D01*
X160380387Y-90145508D01*
X160376508Y-90170000D01*
X159293400Y-90170000D01*
X159293400Y-89662000D01*
X162154508Y-89662000D01*
X162156059Y-89671791D01*
X162156059Y-89671793D01*
X162170744Y-89764508D01*
X162174354Y-89787304D01*
X162231950Y-89900342D01*
X162321658Y-89990050D01*
X162434696Y-90047646D01*
X162444485Y-90049196D01*
X162444487Y-90049197D01*
X162550207Y-90065941D01*
X162560000Y-90067492D01*
X162569793Y-90065941D01*
X162675513Y-90049197D01*
X162675515Y-90049196D01*
X162685304Y-90047646D01*
X162774908Y-90001990D01*
X162844686Y-89988886D01*
X162910471Y-90015586D01*
X162944379Y-90057054D01*
X162993950Y-90154342D01*
X163083658Y-90244050D01*
X163196696Y-90301646D01*
X163206485Y-90303196D01*
X163206487Y-90303197D01*
X163312207Y-90319941D01*
X163322000Y-90321492D01*
X163331793Y-90319941D01*
X163437513Y-90303197D01*
X163437515Y-90303196D01*
X163447304Y-90301646D01*
X163560342Y-90244050D01*
X163650050Y-90154342D01*
X163707646Y-90041304D01*
X163711720Y-90015586D01*
X163725941Y-89925793D01*
X163727492Y-89916000D01*
X163715051Y-89837448D01*
X163709197Y-89800487D01*
X163709196Y-89800485D01*
X163707646Y-89790696D01*
X163650050Y-89677658D01*
X163560342Y-89587950D01*
X163447304Y-89530354D01*
X163437515Y-89528804D01*
X163437513Y-89528803D01*
X163331793Y-89512059D01*
X163322000Y-89510508D01*
X163312207Y-89512059D01*
X163206487Y-89528803D01*
X163206485Y-89528804D01*
X163196696Y-89530354D01*
X163140097Y-89559193D01*
X163107091Y-89576010D01*
X163037314Y-89589114D01*
X162971529Y-89562414D01*
X162937621Y-89520946D01*
X162930503Y-89506976D01*
X162888050Y-89423658D01*
X162798342Y-89333950D01*
X162685304Y-89276354D01*
X162675515Y-89274804D01*
X162675513Y-89274803D01*
X162569793Y-89258059D01*
X162560000Y-89256508D01*
X162550207Y-89258059D01*
X162444487Y-89274803D01*
X162444485Y-89274804D01*
X162434696Y-89276354D01*
X162321658Y-89333950D01*
X162231950Y-89423658D01*
X162174354Y-89536696D01*
X162172804Y-89546485D01*
X162172803Y-89546487D01*
X162165126Y-89594961D01*
X162154508Y-89662000D01*
X159293400Y-89662000D01*
X159293400Y-88056063D01*
X159313402Y-87987942D01*
X159330305Y-87966968D01*
X161205108Y-86092165D01*
X161206879Y-86090637D01*
X161211536Y-86088360D01*
X161243556Y-86053842D01*
X161246836Y-86050437D01*
X161259670Y-86037603D01*
X161262324Y-86033734D01*
X161264368Y-86031406D01*
X161276946Y-86017847D01*
X161284856Y-86009320D01*
X161289166Y-85998517D01*
X161292366Y-85993455D01*
X161296165Y-85986340D01*
X161298588Y-85980872D01*
X161305169Y-85971279D01*
X161310572Y-85948511D01*
X161316136Y-85930918D01*
X161321511Y-85917446D01*
X161321512Y-85917441D01*
X161324806Y-85909185D01*
X161325400Y-85903127D01*
X161325400Y-85900040D01*
X161325550Y-85896976D01*
X161325843Y-85896990D01*
X161326855Y-85888343D01*
X161327375Y-85877704D01*
X161330062Y-85866383D01*
X161326551Y-85840584D01*
X161325400Y-85823593D01*
X161325400Y-85221500D01*
X161345402Y-85153379D01*
X161399058Y-85106886D01*
X161451400Y-85095500D01*
X163704000Y-85095500D01*
X163707346Y-85095140D01*
X163707351Y-85095140D01*
X163809785Y-85084128D01*
X163809792Y-85084127D01*
X163813149Y-85083766D01*
X163816450Y-85083048D01*
X163862210Y-85073094D01*
X163862215Y-85073093D01*
X163865491Y-85072380D01*
X163969657Y-85037710D01*
X164092612Y-84958692D01*
X164146268Y-84912199D01*
X164201888Y-84848010D01*
X164236081Y-84808550D01*
X164236083Y-84808547D01*
X164241982Y-84801739D01*
X164302698Y-84668790D01*
X164322700Y-84600669D01*
X164323977Y-84591793D01*
X164342861Y-84460447D01*
X164342861Y-84460442D01*
X164343500Y-84456000D01*
X164343500Y-82300500D01*
X164363502Y-82232379D01*
X164417158Y-82185886D01*
X164469500Y-82174500D01*
X165101000Y-82174500D01*
X165104346Y-82174140D01*
X165104351Y-82174140D01*
X165206785Y-82163128D01*
X165206792Y-82163127D01*
X165210149Y-82162766D01*
X165213450Y-82162048D01*
X165259210Y-82152094D01*
X165259215Y-82152093D01*
X165262491Y-82151380D01*
X165366657Y-82116710D01*
X165489612Y-82037692D01*
X165543268Y-81991199D01*
X165551297Y-81981933D01*
X165633081Y-81887550D01*
X165633083Y-81887547D01*
X165638982Y-81880739D01*
X165699698Y-81747790D01*
X165719700Y-81679669D01*
X165721359Y-81668137D01*
X165739861Y-81539447D01*
X165739861Y-81539442D01*
X165740500Y-81535000D01*
X165740500Y-77469000D01*
X165728766Y-77359851D01*
X165727599Y-77354487D01*
X165718094Y-77310790D01*
X165718093Y-77310785D01*
X165717380Y-77307509D01*
X165682710Y-77203343D01*
X165603692Y-77080388D01*
X165591235Y-77066011D01*
X165560139Y-77030125D01*
X165557199Y-77026732D01*
X165547933Y-77018703D01*
X165453550Y-76936919D01*
X165453547Y-76936917D01*
X165446739Y-76931018D01*
X165313790Y-76870302D01*
X165290036Y-76863327D01*
X165249992Y-76851569D01*
X165249988Y-76851568D01*
X165245669Y-76850300D01*
X165241220Y-76849660D01*
X165241214Y-76849659D01*
X165105447Y-76830139D01*
X165105442Y-76830139D01*
X165101000Y-76829500D01*
X165096307Y-76829500D01*
X165096244Y-76829481D01*
X165092014Y-76829179D01*
X165092080Y-76828259D01*
X165028186Y-76809498D01*
X164987033Y-76766231D01*
X163417781Y-74032695D01*
X180639723Y-74032695D01*
X180650567Y-74308701D01*
X180700193Y-74580427D01*
X180787610Y-74842449D01*
X180789603Y-74846437D01*
X180888087Y-75043534D01*
X180911074Y-75089539D01*
X181068122Y-75316769D01*
X181255620Y-75519603D01*
X181259074Y-75522415D01*
X181466371Y-75691181D01*
X181466375Y-75691184D01*
X181469828Y-75693995D01*
X181473650Y-75696296D01*
X181637001Y-75794641D01*
X181706470Y-75836465D01*
X181804987Y-75878182D01*
X181956722Y-75942434D01*
X181956727Y-75942436D01*
X181960825Y-75944171D01*
X181965122Y-75945310D01*
X181965127Y-75945312D01*
X182094322Y-75979567D01*
X182227819Y-76014963D01*
X182502124Y-76047429D01*
X182778267Y-76040922D01*
X182863827Y-76026681D01*
X183046348Y-75996301D01*
X183046352Y-75996300D01*
X183050738Y-75995570D01*
X183054979Y-75994229D01*
X183054982Y-75994228D01*
X183309855Y-75913622D01*
X183309857Y-75913621D01*
X183314101Y-75912279D01*
X183318112Y-75910353D01*
X183318117Y-75910351D01*
X183559082Y-75794641D01*
X183559083Y-75794640D01*
X183563101Y-75792711D01*
X183566807Y-75790235D01*
X183789061Y-75641730D01*
X183789065Y-75641727D01*
X183792769Y-75639252D01*
X183998523Y-75454963D01*
X184176258Y-75243521D01*
X184322428Y-75009146D01*
X184434115Y-74756514D01*
X184509093Y-74490665D01*
X184532945Y-74313081D01*
X184545436Y-74220086D01*
X184545437Y-74220079D01*
X184545863Y-74216904D01*
X184549722Y-74094118D01*
X184530213Y-73818588D01*
X184517151Y-73757914D01*
X184473013Y-73552903D01*
X184473013Y-73552901D01*
X184472077Y-73548556D01*
X184376473Y-73289409D01*
X184272845Y-73097352D01*
X184247421Y-73050234D01*
X184245308Y-73046318D01*
X184081200Y-72824134D01*
X184066895Y-72809602D01*
X183935969Y-72676604D01*
X183887423Y-72627289D01*
X183667844Y-72459712D01*
X183613688Y-72429383D01*
X183430730Y-72326921D01*
X183430727Y-72326920D01*
X183426844Y-72324745D01*
X183422699Y-72323141D01*
X183422696Y-72323140D01*
X183173374Y-72226685D01*
X183169231Y-72225082D01*
X183164906Y-72224079D01*
X183164901Y-72224078D01*
X182975787Y-72180244D01*
X182900145Y-72162711D01*
X182624955Y-72138877D01*
X182620520Y-72139121D01*
X182620516Y-72139121D01*
X182353596Y-72153811D01*
X182353589Y-72153812D01*
X182349153Y-72154056D01*
X182212986Y-72181141D01*
X182082604Y-72207075D01*
X182082602Y-72207076D01*
X182078241Y-72207943D01*
X181817624Y-72299465D01*
X181572503Y-72426796D01*
X181568888Y-72429379D01*
X181568882Y-72429383D01*
X181351390Y-72584805D01*
X181351386Y-72584808D01*
X181347769Y-72587393D01*
X181254252Y-72676604D01*
X181151613Y-72774517D01*
X181147905Y-72778054D01*
X181145149Y-72781549D01*
X181145148Y-72781551D01*
X180981869Y-72988670D01*
X180976899Y-72994974D01*
X180917433Y-73097352D01*
X180840401Y-73229971D01*
X180840398Y-73229977D01*
X180838163Y-73233825D01*
X180734466Y-73489841D01*
X180733395Y-73494154D01*
X180733393Y-73494159D01*
X180719881Y-73548556D01*
X180667876Y-73757914D01*
X180667422Y-73762342D01*
X180667422Y-73762344D01*
X180661203Y-73823040D01*
X180639723Y-74032695D01*
X163417781Y-74032695D01*
X162232038Y-71967208D01*
X165625978Y-71967208D01*
X165626356Y-71972974D01*
X165627315Y-71987605D01*
X165638767Y-72162327D01*
X165640408Y-72187372D01*
X165641829Y-72192968D01*
X165641830Y-72192973D01*
X165693298Y-72395624D01*
X165694719Y-72401219D01*
X165697136Y-72406462D01*
X165721866Y-72460106D01*
X165787090Y-72601588D01*
X165914429Y-72781769D01*
X166072472Y-72935727D01*
X166255924Y-73058306D01*
X166261227Y-73060584D01*
X166261230Y-73060586D01*
X166357703Y-73102034D01*
X166458642Y-73145401D01*
X166538294Y-73163424D01*
X166668201Y-73192820D01*
X166668207Y-73192821D01*
X166673838Y-73194095D01*
X166679609Y-73194322D01*
X166679611Y-73194322D01*
X166747417Y-73196986D01*
X166894304Y-73202757D01*
X167003481Y-73186927D01*
X167106943Y-73171926D01*
X167106948Y-73171925D01*
X167112657Y-73171097D01*
X167118121Y-73169242D01*
X167118126Y-73169241D01*
X167316112Y-73102034D01*
X167316117Y-73102032D01*
X167321584Y-73100176D01*
X167514089Y-72992368D01*
X167683723Y-72851285D01*
X167824806Y-72681651D01*
X167932614Y-72489146D01*
X167934470Y-72483679D01*
X167934472Y-72483674D01*
X168001679Y-72285688D01*
X168001680Y-72285683D01*
X168003535Y-72280219D01*
X168004363Y-72274510D01*
X168004364Y-72274505D01*
X168034662Y-72065540D01*
X168035195Y-72061866D01*
X168036847Y-71998768D01*
X168016658Y-71779057D01*
X167956769Y-71566705D01*
X167859184Y-71368822D01*
X167851874Y-71359032D01*
X167730625Y-71196661D01*
X167730624Y-71196660D01*
X167727172Y-71192037D01*
X167565154Y-71042269D01*
X167418391Y-70949668D01*
X167383436Y-70927613D01*
X167383435Y-70927613D01*
X167378556Y-70924534D01*
X167173627Y-70842776D01*
X167167967Y-70841650D01*
X167167963Y-70841649D01*
X166962897Y-70800859D01*
X166962894Y-70800859D01*
X166957230Y-70799732D01*
X166951455Y-70799656D01*
X166951451Y-70799656D01*
X166840710Y-70798207D01*
X166736612Y-70796844D01*
X166730915Y-70797823D01*
X166730914Y-70797823D01*
X166524860Y-70833229D01*
X166524859Y-70833229D01*
X166519163Y-70834208D01*
X166312164Y-70910574D01*
X166307203Y-70913526D01*
X166307202Y-70913526D01*
X166127516Y-71020428D01*
X166127513Y-71020430D01*
X166122548Y-71023384D01*
X166118208Y-71027190D01*
X166118204Y-71027193D01*
X165962096Y-71164097D01*
X165956665Y-71168860D01*
X165953090Y-71173395D01*
X165953089Y-71173396D01*
X165872707Y-71275360D01*
X165820070Y-71342129D01*
X165817382Y-71347238D01*
X165720028Y-71532277D01*
X165720026Y-71532282D01*
X165717339Y-71537389D01*
X165702581Y-71584917D01*
X165681343Y-71653316D01*
X165651911Y-71748101D01*
X165625978Y-71967208D01*
X162232038Y-71967208D01*
X162045564Y-71642382D01*
X161542247Y-70765637D01*
X161527435Y-70724786D01*
X161439156Y-70224133D01*
X161040360Y-67962447D01*
X161018748Y-67906872D01*
X160963590Y-67849254D01*
X160890581Y-67817129D01*
X160878175Y-67816858D01*
X160878174Y-67816858D01*
X160837155Y-67815963D01*
X160830967Y-67815828D01*
X157837648Y-68343631D01*
X157782073Y-68365243D01*
X157724455Y-68420401D01*
X157692330Y-68493410D01*
X157691029Y-68553024D01*
X157746699Y-68868746D01*
X157814010Y-69250486D01*
X157806141Y-69321046D01*
X157761373Y-69376149D01*
X157693922Y-69398303D01*
X157625201Y-69380472D01*
X157599240Y-69359717D01*
X157594380Y-69352889D01*
X157522502Y-69296341D01*
X157516105Y-69293312D01*
X157514504Y-69292321D01*
X157481883Y-69263198D01*
X157442923Y-69213778D01*
X157442915Y-69213770D01*
X157440024Y-69210102D01*
X157255929Y-69036922D01*
X157071371Y-68908889D01*
X157052100Y-68895520D01*
X157052097Y-68895518D01*
X157048258Y-68892855D01*
X157044065Y-68890787D01*
X156825762Y-68783132D01*
X156825759Y-68783131D01*
X156821574Y-68781067D01*
X156777148Y-68766846D01*
X156725172Y-68750209D01*
X156580856Y-68704013D01*
X156576249Y-68703263D01*
X156576246Y-68703262D01*
X156336004Y-68664136D01*
X156336005Y-68664136D01*
X156331393Y-68663385D01*
X156208795Y-68661780D01*
X156083342Y-68660138D01*
X156083339Y-68660138D01*
X156078665Y-68660077D01*
X155828224Y-68694160D01*
X155823734Y-68695469D01*
X155823728Y-68695470D01*
X155720620Y-68725524D01*
X155585572Y-68764887D01*
X155581325Y-68766845D01*
X155581322Y-68766846D01*
X155545995Y-68783132D01*
X155356039Y-68870703D01*
X155352130Y-68873266D01*
X155329251Y-68888266D01*
X155261316Y-68908889D01*
X155240516Y-68907352D01*
X155218532Y-68903881D01*
X155215489Y-68903699D01*
X155215479Y-68903698D01*
X155196297Y-68902552D01*
X155178839Y-68901508D01*
X155130340Y-68903313D01*
X155036482Y-68929988D01*
X155029912Y-68933720D01*
X155029910Y-68933721D01*
X154976425Y-68964103D01*
X154976413Y-68964111D01*
X154974750Y-68965055D01*
X154973148Y-68966099D01*
X154973139Y-68966105D01*
X154961239Y-68973864D01*
X154953692Y-68978785D01*
X154894258Y-69048297D01*
X154861285Y-69111172D01*
X154841769Y-69166311D01*
X154840887Y-69170722D01*
X154840886Y-69170725D01*
X154824934Y-69250486D01*
X154814384Y-69303238D01*
X154808024Y-69335036D01*
X154792192Y-69375688D01*
X154663364Y-69587989D01*
X154661555Y-69592303D01*
X154661554Y-69592305D01*
X154568309Y-69814670D01*
X154565623Y-69821075D01*
X154503408Y-70066047D01*
X154502939Y-70070703D01*
X154502939Y-70070704D01*
X154494112Y-70158360D01*
X154467385Y-70224133D01*
X154409341Y-70265016D01*
X154338408Y-70268028D01*
X154277108Y-70232213D01*
X154259353Y-70208258D01*
X154184517Y-70077323D01*
X154149673Y-70016358D01*
X154071435Y-69917114D01*
X153996089Y-69821538D01*
X153996086Y-69821535D01*
X153993197Y-69817870D01*
X153809102Y-69644690D01*
X153661374Y-69542207D01*
X153605273Y-69503288D01*
X153605270Y-69503286D01*
X153601431Y-69500623D01*
X153597238Y-69498555D01*
X153378935Y-69390900D01*
X153378932Y-69390899D01*
X153374747Y-69388835D01*
X153330321Y-69374614D01*
X153192092Y-69330367D01*
X153134029Y-69311781D01*
X153129422Y-69311031D01*
X153129419Y-69311030D01*
X152889177Y-69271904D01*
X152889178Y-69271904D01*
X152884566Y-69271153D01*
X152761968Y-69269548D01*
X152636515Y-69267906D01*
X152636512Y-69267906D01*
X152631838Y-69267845D01*
X152381397Y-69301928D01*
X152376907Y-69303237D01*
X152376901Y-69303238D01*
X152315806Y-69321046D01*
X152138745Y-69372655D01*
X152134498Y-69374613D01*
X152134495Y-69374614D01*
X152099168Y-69390900D01*
X151909212Y-69478471D01*
X151905303Y-69481034D01*
X151701754Y-69614486D01*
X151701749Y-69614490D01*
X151697841Y-69617052D01*
X151509275Y-69785353D01*
X151347657Y-69979678D01*
X151325200Y-70016686D01*
X151308799Y-70038135D01*
X150422828Y-70969932D01*
X144888687Y-76790322D01*
X144827252Y-76825906D01*
X144797374Y-76829500D01*
X144652000Y-76829500D01*
X144648654Y-76829860D01*
X144648649Y-76829860D01*
X144546215Y-76840872D01*
X144546208Y-76840873D01*
X144542851Y-76841234D01*
X144539551Y-76841952D01*
X144539550Y-76841952D01*
X144493790Y-76851906D01*
X144493785Y-76851907D01*
X144490509Y-76852620D01*
X144386343Y-76887290D01*
X144263388Y-76966308D01*
X144259993Y-76969250D01*
X144259990Y-76969252D01*
X144250289Y-76977658D01*
X144209732Y-77012801D01*
X144206792Y-77016194D01*
X144119919Y-77116450D01*
X144119917Y-77116453D01*
X144114018Y-77123261D01*
X144110276Y-77131455D01*
X144110274Y-77131458D01*
X144065882Y-77228664D01*
X144019389Y-77282320D01*
X143951268Y-77302322D01*
X143883147Y-77282320D01*
X143850909Y-77246683D01*
X143848383Y-77248518D01*
X143842550Y-77240490D01*
X143838050Y-77231658D01*
X143748342Y-77141950D01*
X143635304Y-77084354D01*
X143625515Y-77082804D01*
X143625513Y-77082803D01*
X143519793Y-77066059D01*
X143510000Y-77064508D01*
X143500207Y-77066059D01*
X143394487Y-77082803D01*
X143394485Y-77082804D01*
X143384696Y-77084354D01*
X143313202Y-77120782D01*
X143243427Y-77133886D01*
X143198799Y-77120782D01*
X143127304Y-77084354D01*
X143117515Y-77082804D01*
X143117513Y-77082803D01*
X143011793Y-77066059D01*
X143002000Y-77064508D01*
X142992207Y-77066059D01*
X142886487Y-77082803D01*
X142886485Y-77082804D01*
X142876696Y-77084354D01*
X142805202Y-77120782D01*
X142735427Y-77133886D01*
X142690799Y-77120782D01*
X142619304Y-77084354D01*
X142609515Y-77082804D01*
X142609513Y-77082803D01*
X142503793Y-77066059D01*
X142494000Y-77064508D01*
X142484207Y-77066059D01*
X142378487Y-77082803D01*
X142378485Y-77082804D01*
X142368696Y-77084354D01*
X142297202Y-77120782D01*
X142227427Y-77133886D01*
X142182799Y-77120782D01*
X142111304Y-77084354D01*
X142101515Y-77082804D01*
X142101513Y-77082803D01*
X141995793Y-77066059D01*
X141986000Y-77064508D01*
X141976207Y-77066059D01*
X141870487Y-77082803D01*
X141870485Y-77082804D01*
X141860696Y-77084354D01*
X141747658Y-77141950D01*
X141657950Y-77231658D01*
X141600354Y-77344696D01*
X141598804Y-77354485D01*
X141598803Y-77354487D01*
X141597421Y-77363215D01*
X141580508Y-77470000D01*
X141600354Y-77595304D01*
X141623277Y-77640292D01*
X141636782Y-77666797D01*
X141649886Y-77736573D01*
X141636782Y-77781201D01*
X141600354Y-77852696D01*
X141580508Y-77978000D01*
X141600354Y-78103304D01*
X141604855Y-78112137D01*
X141636782Y-78174797D01*
X141649886Y-78244573D01*
X141636782Y-78289201D01*
X141600354Y-78360696D01*
X141580508Y-78486000D01*
X141600354Y-78611304D01*
X141604855Y-78620137D01*
X141636782Y-78682797D01*
X141649886Y-78752573D01*
X141636782Y-78797201D01*
X141600354Y-78868696D01*
X141598804Y-78878485D01*
X141598803Y-78878487D01*
X141582988Y-78978342D01*
X141580508Y-78994000D01*
X141600354Y-79119304D01*
X141604855Y-79128137D01*
X141636782Y-79190797D01*
X141649886Y-79260573D01*
X141636782Y-79305201D01*
X141600354Y-79376696D01*
X141598803Y-79386487D01*
X141598803Y-79386488D01*
X141580813Y-79500074D01*
X141550401Y-79564228D01*
X141490133Y-79601755D01*
X141476074Y-79604813D01*
X141362488Y-79622803D01*
X141362487Y-79622803D01*
X141352696Y-79624354D01*
X141281202Y-79660782D01*
X141211427Y-79673886D01*
X141166799Y-79660782D01*
X141095304Y-79624354D01*
X141085515Y-79622804D01*
X141085513Y-79622803D01*
X140979793Y-79606059D01*
X140970000Y-79604508D01*
X140960207Y-79606059D01*
X140854487Y-79622803D01*
X140854485Y-79622804D01*
X140844696Y-79624354D01*
X140731658Y-79681950D01*
X140641950Y-79771658D01*
X140584354Y-79884696D01*
X140564508Y-80010000D01*
X140584354Y-80135304D01*
X140588855Y-80144137D01*
X140620782Y-80206797D01*
X140633886Y-80276573D01*
X140620782Y-80321201D01*
X140584354Y-80392696D01*
X140564508Y-80518000D01*
X140566059Y-80527793D01*
X140577877Y-80602407D01*
X140584354Y-80643304D01*
X140620782Y-80714797D01*
X140633886Y-80784573D01*
X140620782Y-80829201D01*
X140584354Y-80900696D01*
X140582804Y-80910485D01*
X140582803Y-80910487D01*
X140580562Y-80924637D01*
X140564508Y-81026000D01*
X136608340Y-81026000D01*
X136776704Y-80782397D01*
X136803312Y-80743899D01*
X136805744Y-80740502D01*
X137490460Y-79816848D01*
X137493004Y-79813533D01*
X138131291Y-79009658D01*
X138207970Y-78913086D01*
X138210618Y-78909863D01*
X138428203Y-78653749D01*
X138955030Y-78033634D01*
X138957779Y-78030505D01*
X139730861Y-77179408D01*
X139733721Y-77176362D01*
X140534562Y-76351400D01*
X140537521Y-76348451D01*
X141365290Y-75550479D01*
X141368346Y-75547629D01*
X142222122Y-74777535D01*
X142225270Y-74774789D01*
X142557002Y-74494950D01*
X143028343Y-74097340D01*
X143104096Y-74033437D01*
X143107334Y-74030796D01*
X144010270Y-73318980D01*
X144013594Y-73316448D01*
X144939619Y-72634969D01*
X144943024Y-72632549D01*
X145891160Y-71982131D01*
X145894644Y-71979825D01*
X145914411Y-71967208D01*
X146863830Y-71361196D01*
X146867289Y-71359068D01*
X147856514Y-70772876D01*
X147860094Y-70770834D01*
X147956622Y-70717877D01*
X148868176Y-70217781D01*
X148871844Y-70215847D01*
X149897686Y-69696533D01*
X149901389Y-69694736D01*
X150943867Y-69209728D01*
X150947676Y-69208031D01*
X150950330Y-69206902D01*
X151335721Y-69042916D01*
X152005658Y-68757855D01*
X152009529Y-68756284D01*
X153081864Y-68341428D01*
X153085785Y-68339985D01*
X153296211Y-68266501D01*
X154171265Y-67960919D01*
X154175194Y-67959619D01*
X155272676Y-67616740D01*
X155276639Y-67615574D01*
X156233944Y-67350989D01*
X156384890Y-67309270D01*
X156388935Y-67308224D01*
X157082129Y-67141163D01*
X157506719Y-67038836D01*
X157510780Y-67037929D01*
X158636845Y-66805757D01*
X158640950Y-66804981D01*
X159774116Y-66610267D01*
X159778245Y-66609628D01*
X160917227Y-66452595D01*
X160921375Y-66452093D01*
X161779464Y-66362661D01*
X162064959Y-66332906D01*
X162069102Y-66332544D01*
X162467108Y-66304363D01*
X163215998Y-66251339D01*
X163220170Y-66251113D01*
X164369111Y-66207979D01*
X164373288Y-66207891D01*
X164702135Y-66206456D01*
X165523062Y-66202874D01*
X165527226Y-66202925D01*
G37*
%TD.AperFunction*%
%TD*%
%TA.AperFunction,Conductor*%
%TO.N,/SH_B*%
G36*
X152628600Y-78003400D02*
G01*
X157099000Y-77978702D01*
X157099000Y-81535000D01*
X157078998Y-81603121D01*
X157025342Y-81649614D01*
X156973000Y-81661000D01*
X155702000Y-81661000D01*
X155702000Y-84456000D01*
X155681998Y-84524121D01*
X155628342Y-84570614D01*
X155576000Y-84582000D01*
X152653000Y-84582000D01*
X152584879Y-84561998D01*
X152538386Y-84508342D01*
X152527000Y-84456000D01*
X152527000Y-77469000D01*
X152547002Y-77400879D01*
X152600658Y-77354386D01*
X152653000Y-77343000D01*
X152828562Y-77343000D01*
X152628600Y-78003400D01*
G37*
%TD.AperFunction*%
%TD*%
%TA.AperFunction,Conductor*%
%TO.N,/SH_B*%
G36*
X156933613Y-69382728D02*
G01*
X157370396Y-69451694D01*
X157434564Y-69482075D01*
X157472120Y-69542326D01*
X157476689Y-69579912D01*
X157229629Y-77856434D01*
X157207603Y-77923927D01*
X157152584Y-77968798D01*
X157134217Y-77972561D01*
X157134469Y-77973402D01*
X157117115Y-77978602D01*
X152628600Y-78003400D01*
X154559000Y-71628000D01*
X154976135Y-69542326D01*
X155043278Y-69206613D01*
X155076251Y-69143738D01*
X155137983Y-69108671D01*
X155186482Y-69106866D01*
X156933613Y-69382728D01*
G37*
%TD.AperFunction*%
%TD*%
M02*
