%TF.GenerationSoftware,KiCad,Pcbnew,(6.0.6)*%
%TF.CreationDate,2022-10-05T22:51:16+08:00*%
%TF.ProjectId,rm_foc_driver,726d5f66-6f63-45f6-9472-697665722e6b,rev?*%
%TF.SameCoordinates,Original*%
%TF.FileFunction,Soldermask,Bot*%
%TF.FilePolarity,Negative*%
%FSLAX46Y46*%
G04 Gerber Fmt 4.6, Leading zero omitted, Abs format (unit mm)*
G04 Created by KiCad (PCBNEW (6.0.6)) date 2022-10-05 22:51:16*
%MOMM*%
%LPD*%
G01*
G04 APERTURE LIST*
G04 Aperture macros list*
%AMRoundRect*
0 Rectangle with rounded corners*
0 $1 Rounding radius*
0 $2 $3 $4 $5 $6 $7 $8 $9 X,Y pos of 4 corners*
0 Add a 4 corners polygon primitive as box body*
4,1,4,$2,$3,$4,$5,$6,$7,$8,$9,$2,$3,0*
0 Add four circle primitives for the rounded corners*
1,1,$1+$1,$2,$3*
1,1,$1+$1,$4,$5*
1,1,$1+$1,$6,$7*
1,1,$1+$1,$8,$9*
0 Add four rect primitives between the rounded corners*
20,1,$1+$1,$2,$3,$4,$5,0*
20,1,$1+$1,$4,$5,$6,$7,0*
20,1,$1+$1,$6,$7,$8,$9,0*
20,1,$1+$1,$8,$9,$2,$3,0*%
%AMHorizOval*
0 Thick line with rounded ends*
0 $1 width*
0 $2 $3 position (X,Y) of the first rounded end (center of the circle)*
0 $4 $5 position (X,Y) of the second rounded end (center of the circle)*
0 Add line between two ends*
20,1,$1,$2,$3,$4,$5,0*
0 Add two circle primitives to create the rounded ends*
1,1,$1,$2,$3*
1,1,$1,$4,$5*%
%AMRotRect*
0 Rectangle, with rotation*
0 The origin of the aperture is its center*
0 $1 length*
0 $2 width*
0 $3 Rotation angle, in degrees counterclockwise*
0 Add horizontal line*
21,1,$1,$2,0,0,$3*%
G04 Aperture macros list end*
%ADD10RotRect,1.700000X1.700000X232.000000*%
%ADD11HorizOval,1.700000X0.000000X0.000000X0.000000X0.000000X0*%
%ADD12R,1.700000X1.700000*%
%ADD13O,1.700000X1.700000*%
%ADD14C,1.400000*%
%ADD15RotRect,3.500000X3.500000X325.000000*%
%ADD16C,3.500000*%
%ADD17RotRect,3.000000X3.000000X10.000000*%
%ADD18C,3.000000*%
%ADD19RoundRect,0.250000X-0.475000X0.250000X-0.475000X-0.250000X0.475000X-0.250000X0.475000X0.250000X0*%
%ADD20RoundRect,0.225000X-0.225000X-0.250000X0.225000X-0.250000X0.225000X0.250000X-0.225000X0.250000X0*%
%ADD21RoundRect,0.150000X-0.675000X-0.150000X0.675000X-0.150000X0.675000X0.150000X-0.675000X0.150000X0*%
%ADD22RoundRect,0.250000X-1.425000X0.362500X-1.425000X-0.362500X1.425000X-0.362500X1.425000X0.362500X0*%
G04 APERTURE END LIST*
D10*
%TO.C,J4*%
X148590000Y-128651000D03*
D11*
X146588453Y-127087220D03*
X144586905Y-125523440D03*
X142585358Y-123959660D03*
%TD*%
D12*
%TO.C,J1*%
X174869000Y-131769000D03*
D13*
X172329000Y-131769000D03*
X169789000Y-131769000D03*
X167249000Y-131769000D03*
%TD*%
D14*
%TO.C,J6*%
X194883220Y-70491209D03*
X185872548Y-64181868D03*
D15*
X186690000Y-76962000D03*
D16*
X182594240Y-74094118D03*
%TD*%
D14*
%TO.C,J8*%
X161715778Y-64309412D03*
X148913278Y-66566838D03*
D17*
X159629596Y-69754395D03*
D18*
X156182769Y-70362164D03*
X152735942Y-70969932D03*
%TD*%
D12*
%TO.C,J3*%
X163068000Y-131826000D03*
D13*
X160528000Y-131826000D03*
X157988000Y-131826000D03*
X155448000Y-131826000D03*
%TD*%
D12*
%TO.C,J2*%
X137414000Y-101092000D03*
D13*
X137414000Y-98552000D03*
X137414000Y-96012000D03*
X137414000Y-93472000D03*
%TD*%
D19*
%TO.C,C33*%
X153370000Y-89857000D03*
X153370000Y-91757000D03*
%TD*%
D20*
%TO.C,C16*%
X162547000Y-104648000D03*
X164097000Y-104648000D03*
%TD*%
D19*
%TO.C,C24*%
X143891000Y-89855000D03*
X143891000Y-91755000D03*
%TD*%
%TO.C,C26*%
X148798000Y-89857000D03*
X148798000Y-91757000D03*
%TD*%
%TO.C,C29*%
X160355000Y-89857000D03*
X160355000Y-91757000D03*
%TD*%
D21*
%TO.C,U7*%
X162475000Y-102870000D03*
X162475000Y-101600000D03*
X162475000Y-100330000D03*
X162475000Y-99060000D03*
X167725000Y-99060000D03*
X167725000Y-100330000D03*
X167725000Y-101600000D03*
X167725000Y-102870000D03*
%TD*%
D22*
%TO.C,R10*%
X142240000Y-80476500D03*
X142240000Y-86401500D03*
%TD*%
%TO.C,R11*%
X150876000Y-80095500D03*
X150876000Y-86020500D03*
%TD*%
D19*
%TO.C,C30*%
X157942000Y-89857000D03*
X157942000Y-91757000D03*
%TD*%
%TO.C,C32*%
X151084000Y-89857000D03*
X151084000Y-91757000D03*
%TD*%
%TO.C,C27*%
X162768000Y-89857000D03*
X162768000Y-91757000D03*
%TD*%
%TO.C,C25*%
X146385000Y-89857000D03*
X146385000Y-91757000D03*
%TD*%
%TO.C,C31*%
X155656000Y-89857000D03*
X155656000Y-91757000D03*
%TD*%
M02*
