%TF.GenerationSoftware,KiCad,Pcbnew,(6.0.7)*%
%TF.CreationDate,2022-08-30T09:52:08+08:00*%
%TF.ProjectId,rm_foc_driver,726d5f66-6f63-45f6-9472-697665722e6b,rev?*%
%TF.SameCoordinates,Original*%
%TF.FileFunction,Legend,Bot*%
%TF.FilePolarity,Positive*%
%FSLAX46Y46*%
G04 Gerber Fmt 4.6, Leading zero omitted, Abs format (unit mm)*
G04 Created by KiCad (PCBNEW (6.0.7)) date 2022-08-30 09:52:08*
%MOMM*%
%LPD*%
G01*
G04 APERTURE LIST*
%ADD10C,0.150000*%
%ADD11C,0.120000*%
G04 APERTURE END LIST*
D10*
%TO.C,C16*%
X163456857Y-103829142D02*
X163504476Y-103876761D01*
X163647333Y-103924380D01*
X163742571Y-103924380D01*
X163885428Y-103876761D01*
X163980666Y-103781523D01*
X164028285Y-103686285D01*
X164075904Y-103495809D01*
X164075904Y-103352952D01*
X164028285Y-103162476D01*
X163980666Y-103067238D01*
X163885428Y-102972000D01*
X163742571Y-102924380D01*
X163647333Y-102924380D01*
X163504476Y-102972000D01*
X163456857Y-103019619D01*
X162504476Y-103924380D02*
X163075904Y-103924380D01*
X162790190Y-103924380D02*
X162790190Y-102924380D01*
X162885428Y-103067238D01*
X162980666Y-103162476D01*
X163075904Y-103210095D01*
X161647333Y-102924380D02*
X161837809Y-102924380D01*
X161933047Y-102972000D01*
X161980666Y-103019619D01*
X162075904Y-103162476D01*
X162123523Y-103352952D01*
X162123523Y-103733904D01*
X162075904Y-103829142D01*
X162028285Y-103876761D01*
X161933047Y-103924380D01*
X161742571Y-103924380D01*
X161647333Y-103876761D01*
X161599714Y-103829142D01*
X161552095Y-103733904D01*
X161552095Y-103495809D01*
X161599714Y-103400571D01*
X161647333Y-103352952D01*
X161742571Y-103305333D01*
X161933047Y-103305333D01*
X162028285Y-103352952D01*
X162075904Y-103400571D01*
X162123523Y-103495809D01*
%TO.C,U7*%
X165861904Y-103817380D02*
X165861904Y-104626904D01*
X165814285Y-104722142D01*
X165766666Y-104769761D01*
X165671428Y-104817380D01*
X165480952Y-104817380D01*
X165385714Y-104769761D01*
X165338095Y-104722142D01*
X165290476Y-104626904D01*
X165290476Y-103817380D01*
X164909523Y-103817380D02*
X164242857Y-103817380D01*
X164671428Y-104817380D01*
%TO.C,R10*%
X142933657Y-79370180D02*
X143266990Y-78893990D01*
X143505085Y-79370180D02*
X143505085Y-78370180D01*
X143124133Y-78370180D01*
X143028895Y-78417800D01*
X142981276Y-78465419D01*
X142933657Y-78560657D01*
X142933657Y-78703514D01*
X142981276Y-78798752D01*
X143028895Y-78846371D01*
X143124133Y-78893990D01*
X143505085Y-78893990D01*
X141981276Y-79370180D02*
X142552704Y-79370180D01*
X142266990Y-79370180D02*
X142266990Y-78370180D01*
X142362228Y-78513038D01*
X142457466Y-78608276D01*
X142552704Y-78655895D01*
X141362228Y-78370180D02*
X141266990Y-78370180D01*
X141171752Y-78417800D01*
X141124133Y-78465419D01*
X141076514Y-78560657D01*
X141028895Y-78751133D01*
X141028895Y-78989228D01*
X141076514Y-79179704D01*
X141124133Y-79274942D01*
X141171752Y-79322561D01*
X141266990Y-79370180D01*
X141362228Y-79370180D01*
X141457466Y-79322561D01*
X141505085Y-79274942D01*
X141552704Y-79179704D01*
X141600323Y-78989228D01*
X141600323Y-78751133D01*
X141552704Y-78560657D01*
X141505085Y-78465419D01*
X141457466Y-78417800D01*
X141362228Y-78370180D01*
%TO.C,R11*%
X151518857Y-78938380D02*
X151852190Y-78462190D01*
X152090285Y-78938380D02*
X152090285Y-77938380D01*
X151709333Y-77938380D01*
X151614095Y-77986000D01*
X151566476Y-78033619D01*
X151518857Y-78128857D01*
X151518857Y-78271714D01*
X151566476Y-78366952D01*
X151614095Y-78414571D01*
X151709333Y-78462190D01*
X152090285Y-78462190D01*
X150566476Y-78938380D02*
X151137904Y-78938380D01*
X150852190Y-78938380D02*
X150852190Y-77938380D01*
X150947428Y-78081238D01*
X151042666Y-78176476D01*
X151137904Y-78224095D01*
X149614095Y-78938380D02*
X150185523Y-78938380D01*
X149899809Y-78938380D02*
X149899809Y-77938380D01*
X149995047Y-78081238D01*
X150090285Y-78176476D01*
X150185523Y-78224095D01*
D11*
%TO.C,C33*%
X152635000Y-90545748D02*
X152635000Y-91068252D01*
X154105000Y-90545748D02*
X154105000Y-91068252D01*
%TO.C,C16*%
X162954580Y-104392000D02*
X162673420Y-104392000D01*
X162954580Y-105412000D02*
X162673420Y-105412000D01*
%TO.C,C24*%
X144626000Y-90543748D02*
X144626000Y-91066252D01*
X143156000Y-90543748D02*
X143156000Y-91066252D01*
%TO.C,C26*%
X149533000Y-90545748D02*
X149533000Y-91068252D01*
X148063000Y-90545748D02*
X148063000Y-91068252D01*
%TO.C,C29*%
X161090000Y-90545748D02*
X161090000Y-91068252D01*
X159620000Y-90545748D02*
X159620000Y-91068252D01*
%TO.C,U7*%
X165100000Y-103525000D02*
X167050000Y-103525000D01*
X165100000Y-98405000D02*
X167050000Y-98405000D01*
X165100000Y-103525000D02*
X161650000Y-103525000D01*
X165100000Y-98405000D02*
X163150000Y-98405000D01*
%TO.C,R10*%
X143950000Y-81261936D02*
X143950000Y-85616064D01*
X140530000Y-81261936D02*
X140530000Y-85616064D01*
%TO.C,R11*%
X149166000Y-80880936D02*
X149166000Y-85235064D01*
X152586000Y-80880936D02*
X152586000Y-85235064D01*
%TO.C,C30*%
X158677000Y-90545748D02*
X158677000Y-91068252D01*
X157207000Y-90545748D02*
X157207000Y-91068252D01*
%TO.C,C32*%
X150349000Y-90545748D02*
X150349000Y-91068252D01*
X151819000Y-90545748D02*
X151819000Y-91068252D01*
%TO.C,C27*%
X162033000Y-90545748D02*
X162033000Y-91068252D01*
X163503000Y-90545748D02*
X163503000Y-91068252D01*
%TO.C,C25*%
X145650000Y-90545748D02*
X145650000Y-91068252D01*
X147120000Y-90545748D02*
X147120000Y-91068252D01*
%TO.C,C31*%
X154921000Y-90545748D02*
X154921000Y-91068252D01*
X156391000Y-90545748D02*
X156391000Y-91068252D01*
%TD*%
M02*
