%TF.GenerationSoftware,KiCad,Pcbnew,(6.0.7)*%
%TF.CreationDate,2022-08-30T09:52:08+08:00*%
%TF.ProjectId,rm_foc_driver,726d5f66-6f63-45f6-9472-697665722e6b,rev?*%
%TF.SameCoordinates,Original*%
%TF.FileFunction,Copper,L3,Inr*%
%TF.FilePolarity,Positive*%
%FSLAX46Y46*%
G04 Gerber Fmt 4.6, Leading zero omitted, Abs format (unit mm)*
G04 Created by KiCad (PCBNEW (6.0.7)) date 2022-08-30 09:52:08*
%MOMM*%
%LPD*%
G01*
G04 APERTURE LIST*
G04 Aperture macros list*
%AMHorizOval*
0 Thick line with rounded ends*
0 $1 width*
0 $2 $3 position (X,Y) of the first rounded end (center of the circle)*
0 $4 $5 position (X,Y) of the second rounded end (center of the circle)*
0 Add line between two ends*
20,1,$1,$2,$3,$4,$5,0*
0 Add two circle primitives to create the rounded ends*
1,1,$1,$2,$3*
1,1,$1,$4,$5*%
%AMRotRect*
0 Rectangle, with rotation*
0 The origin of the aperture is its center*
0 $1 length*
0 $2 width*
0 $3 Rotation angle, in degrees counterclockwise*
0 Add horizontal line*
21,1,$1,$2,0,0,$3*%
G04 Aperture macros list end*
%TA.AperFunction,ComponentPad*%
%ADD10RotRect,1.700000X1.700000X232.000000*%
%TD*%
%TA.AperFunction,ComponentPad*%
%ADD11HorizOval,1.700000X0.000000X0.000000X0.000000X0.000000X0*%
%TD*%
%TA.AperFunction,ComponentPad*%
%ADD12R,1.700000X1.700000*%
%TD*%
%TA.AperFunction,ComponentPad*%
%ADD13O,1.700000X1.700000*%
%TD*%
%TA.AperFunction,ComponentPad*%
%ADD14C,1.400000*%
%TD*%
%TA.AperFunction,ComponentPad*%
%ADD15RotRect,3.500000X3.500000X325.000000*%
%TD*%
%TA.AperFunction,ComponentPad*%
%ADD16C,3.500000*%
%TD*%
%TA.AperFunction,ComponentPad*%
%ADD17RotRect,3.000000X3.000000X10.000000*%
%TD*%
%TA.AperFunction,ComponentPad*%
%ADD18C,3.000000*%
%TD*%
%TA.AperFunction,ComponentPad*%
%ADD19C,0.500000*%
%TD*%
%TA.AperFunction,ViaPad*%
%ADD20C,0.800000*%
%TD*%
%TA.AperFunction,ViaPad*%
%ADD21C,0.600000*%
%TD*%
%TA.AperFunction,Conductor*%
%ADD22C,0.177800*%
%TD*%
G04 APERTURE END LIST*
D10*
%TO.N,/MOSI*%
%TO.C,J4*%
X148590000Y-128651000D03*
D11*
%TO.N,/MISO*%
X146588453Y-127087220D03*
%TO.N,/SCLK*%
X144586905Y-125523440D03*
%TO.N,/CS2*%
X142585358Y-123959660D03*
%TD*%
D12*
%TO.N,+3.3V*%
%TO.C,J1*%
X174869000Y-131769000D03*
D13*
%TO.N,/SWDIO*%
X172329000Y-131769000D03*
%TO.N,/SWCLK*%
X169789000Y-131769000D03*
%TO.N,GND*%
X167249000Y-131769000D03*
%TD*%
D12*
%TO.N,/PWM1*%
%TO.C,J5*%
X135636000Y-109474000D03*
D13*
%TO.N,/PWM2*%
X135636000Y-106934000D03*
%TO.N,/PWM3*%
X135636000Y-104394000D03*
%TO.N,/PWM4*%
X135636000Y-101854000D03*
%TO.N,/PWM5*%
X135636000Y-99314000D03*
%TO.N,/PWM6*%
X135636000Y-96774000D03*
%TO.N,GND*%
X135636000Y-94234000D03*
%TD*%
D14*
%TO.N,*%
%TO.C,J6*%
X194883220Y-70491209D03*
X185872548Y-64181868D03*
D15*
%TO.N,GND*%
X186690000Y-76962000D03*
D16*
%TO.N,+12V*%
X182594240Y-74094118D03*
%TD*%
D14*
%TO.N,*%
%TO.C,J8*%
X161715778Y-64309412D03*
X148913278Y-66566838D03*
D17*
%TO.N,/SH_C*%
X159629596Y-69754395D03*
D18*
%TO.N,/SH_B*%
X156182769Y-70362164D03*
%TO.N,/SH_A*%
X152735942Y-70969932D03*
%TD*%
D19*
%TO.N,GND*%
%TO.C,U1*%
X182878052Y-95173399D03*
X184369351Y-93043604D03*
X182558804Y-93362852D03*
X183304454Y-92297955D03*
X183623702Y-94108502D03*
X181813155Y-94427750D03*
%TD*%
D12*
%TO.N,+5V*%
%TO.C,J3*%
X163068000Y-131826000D03*
D13*
%TO.N,/TXD*%
X160528000Y-131826000D03*
%TO.N,/RXD*%
X157988000Y-131826000D03*
%TO.N,GND*%
X155448000Y-131826000D03*
%TD*%
D20*
%TO.N,GND*%
X168478200Y-77317600D03*
X168757600Y-69291200D03*
X190703200Y-80594200D03*
X194284600Y-101346000D03*
X193421000Y-110769400D03*
X186588400Y-115646200D03*
X187198000Y-120218200D03*
X183870600Y-121691400D03*
X178206400Y-121056400D03*
X175437800Y-122478800D03*
X173609000Y-127076200D03*
X169316400Y-126847600D03*
X164211000Y-110794800D03*
X161518600Y-111125000D03*
X145542000Y-111023400D03*
X150037800Y-112090200D03*
X141224000Y-109220000D03*
X144653000Y-118440200D03*
X141681200Y-118567200D03*
X139014200Y-116027200D03*
X148056600Y-105308400D03*
D21*
X158369000Y-74244200D03*
X158267400Y-75158600D03*
X159410400Y-75920600D03*
X157911800Y-75971400D03*
X158648400Y-75946000D03*
X159385000Y-76682600D03*
X157886400Y-76733400D03*
X158623000Y-76708000D03*
X159435800Y-79832200D03*
X159435800Y-77546200D03*
X159435800Y-79070200D03*
X159435800Y-78308200D03*
X158673800Y-79857600D03*
X158673800Y-77571600D03*
X158673800Y-79095600D03*
X158673800Y-78333600D03*
X157937200Y-79883000D03*
X157937200Y-77597000D03*
X157937200Y-79121000D03*
X157937200Y-78359000D03*
D20*
X178638200Y-108788200D03*
D21*
%TO.N,+5V*%
X159359600Y-106196400D03*
X164592000Y-104902000D03*
X191881305Y-96631305D03*
X172720000Y-93980000D03*
%TO.N,GND*%
X161036000Y-120269000D03*
X157734000Y-122301000D03*
X148894800Y-91846400D03*
X152019000Y-122809000D03*
X162179000Y-113792000D03*
X146481800Y-91795600D03*
X147447000Y-114935000D03*
X176860200Y-87909400D03*
X150596600Y-92024200D03*
X160596000Y-117924000D03*
X149352000Y-114935000D03*
X153238200Y-91973400D03*
X160655000Y-122047000D03*
X162382200Y-91643200D03*
X160426400Y-91973400D03*
X157480000Y-91363800D03*
X163855400Y-96037400D03*
X160528000Y-118745000D03*
X151790400Y-107721400D03*
X152146000Y-119634000D03*
X157992500Y-120527500D03*
X148152250Y-119563750D03*
X156235400Y-91744800D03*
X158496000Y-111175800D03*
X192151000Y-94996000D03*
X152919300Y-114935000D03*
X170815000Y-94996000D03*
X177165000Y-89230200D03*
X146981500Y-117305500D03*
X151003000Y-114935000D03*
%TO.N,+12V*%
X155194000Y-89916000D03*
X144272000Y-89916000D03*
X153797000Y-89916000D03*
X157480000Y-89916000D03*
X150622000Y-89916000D03*
X146812000Y-89916000D03*
X156083000Y-89916000D03*
X148463000Y-89916000D03*
X145923000Y-89916000D03*
X152908000Y-89916000D03*
X160782000Y-89916000D03*
X159893000Y-89916000D03*
X162306000Y-89916000D03*
X163195000Y-89916000D03*
X143383000Y-89916000D03*
%TO.N,Net-(C6-Pad1)*%
X165608000Y-124460000D03*
X160655000Y-124460000D03*
%TO.N,/SH_A*%
X145672404Y-83445807D03*
X145672404Y-77349807D03*
X144910404Y-82683807D03*
X145672404Y-78873807D03*
X146431000Y-81915000D03*
X147955000Y-77343000D03*
X146431000Y-81153000D03*
X147196404Y-81159807D03*
X146431000Y-78105000D03*
X147955000Y-79629000D03*
X147196404Y-77349807D03*
X145672404Y-81921807D03*
X144910404Y-77349807D03*
X144910404Y-78873807D03*
X147955000Y-80391000D03*
X147955000Y-78867000D03*
X146431000Y-82677000D03*
X147196404Y-78111807D03*
X147196404Y-79635807D03*
X145672404Y-78111807D03*
X147196404Y-83445807D03*
X146427596Y-84194193D03*
X147196404Y-78873807D03*
X147955000Y-81153000D03*
X146431000Y-79629000D03*
X148717000Y-77343000D03*
X152654000Y-96037400D03*
X145672404Y-81159807D03*
X145669000Y-84201000D03*
X144910404Y-81921807D03*
X144910404Y-79635807D03*
X146431000Y-83439000D03*
X147193000Y-84201000D03*
X147955000Y-78105000D03*
X144910404Y-78111807D03*
X145672404Y-82683807D03*
X144910404Y-81159807D03*
X147196404Y-81921807D03*
X146431000Y-80391000D03*
X148717000Y-78105000D03*
X146431000Y-77343000D03*
X146431000Y-78867000D03*
X144907000Y-84201000D03*
X145672404Y-80397807D03*
X147196404Y-82683807D03*
X145672404Y-79635807D03*
X144910404Y-83445807D03*
X144910404Y-80397807D03*
X147196404Y-80397807D03*
%TO.N,/SH_B*%
X155321000Y-78867000D03*
X153797000Y-84201000D03*
X155321000Y-79629000D03*
X156845000Y-78867000D03*
X155321000Y-81153000D03*
X155321000Y-82677000D03*
X156083000Y-78105000D03*
X153797000Y-79629000D03*
X154559000Y-78867000D03*
X156083000Y-78867000D03*
X155321000Y-78105000D03*
X156083000Y-77343000D03*
X155321000Y-81915000D03*
X153797000Y-80391000D03*
X155321000Y-77343000D03*
X154559000Y-83439000D03*
X153797000Y-78105000D03*
X156845000Y-78105000D03*
X156845000Y-77343000D03*
X155321000Y-83439000D03*
X153035000Y-82677000D03*
X155321000Y-80391000D03*
X154559000Y-77343000D03*
X148691600Y-95834200D03*
X153797000Y-81153000D03*
X156083000Y-79629000D03*
X153797000Y-81915000D03*
X153797000Y-82677000D03*
X154559000Y-81153000D03*
X154559000Y-80391000D03*
X153035000Y-78105000D03*
X156083000Y-80391000D03*
X156083000Y-81153000D03*
X153035000Y-83439000D03*
X153797000Y-83439000D03*
X154559000Y-81915000D03*
X154559000Y-78105000D03*
X155321000Y-84201000D03*
X153035000Y-84201000D03*
X153035000Y-81915000D03*
X156845000Y-80391000D03*
X154559000Y-82677000D03*
X153035000Y-77343000D03*
X153797000Y-78867000D03*
X153035000Y-78867000D03*
X154559000Y-79629000D03*
X156845000Y-81153000D03*
X156845000Y-79629000D03*
X153797000Y-77343000D03*
X154559000Y-84201000D03*
%TO.N,+3.3V*%
X191389000Y-90424000D03*
X155194000Y-112649000D03*
X164338000Y-116713000D03*
X165481000Y-118237000D03*
X158877000Y-112649000D03*
X165481000Y-113792000D03*
X163068000Y-117221000D03*
X165481000Y-121793000D03*
X162433000Y-123571000D03*
X150114000Y-121539000D03*
%TO.N,/SH_C*%
X162560000Y-78867000D03*
X162560000Y-78105000D03*
X163322000Y-82677000D03*
X163322000Y-84201000D03*
X143738600Y-97129600D03*
X163322000Y-77343000D03*
X161036000Y-77343000D03*
X164846000Y-81153000D03*
X162560000Y-81915000D03*
X163322000Y-78867000D03*
X161798000Y-81915000D03*
X161798000Y-79629000D03*
X161036000Y-78867000D03*
X161036000Y-81153000D03*
X164846000Y-80391000D03*
X164084000Y-77343000D03*
X164084000Y-79629000D03*
X161798000Y-81153000D03*
X161036000Y-80391000D03*
X163322000Y-81915000D03*
X164846000Y-79629000D03*
X163322000Y-78105000D03*
X162560000Y-77343000D03*
X161798000Y-83439000D03*
X164084000Y-78105000D03*
X164084000Y-81153000D03*
X164084000Y-80391000D03*
X161036000Y-79629000D03*
X161798000Y-77343000D03*
X163322000Y-81153000D03*
X163322000Y-79629000D03*
X162560000Y-81153000D03*
X162560000Y-83439000D03*
X164846000Y-78867000D03*
X161036000Y-81915000D03*
X161036000Y-83439000D03*
X161798000Y-82677000D03*
X164846000Y-77343000D03*
X161798000Y-78105000D03*
X161036000Y-82677000D03*
X163322000Y-80391000D03*
X162560000Y-79629000D03*
X161036000Y-78105000D03*
X161036000Y-84201000D03*
X164084000Y-78867000D03*
X163322000Y-83439000D03*
X162560000Y-84201000D03*
X161798000Y-80391000D03*
X161798000Y-84201000D03*
X162560000Y-80391000D03*
X162560000Y-82677000D03*
X164846000Y-78105000D03*
X161798000Y-78867000D03*
%TO.N,/GL_A*%
X159461200Y-95605600D03*
X142875000Y-82423000D03*
%TO.N,/SL_A*%
X143510000Y-77597000D03*
X142748000Y-80645000D03*
X142748000Y-77597000D03*
X143510000Y-78359000D03*
X143510000Y-79883000D03*
X164977200Y-90144600D03*
X141986000Y-78359000D03*
X141986000Y-80645000D03*
X141986000Y-79121000D03*
X141986000Y-79883000D03*
X142748000Y-79121000D03*
X141986000Y-77597000D03*
X142748000Y-79883000D03*
X142748000Y-78359000D03*
X143510000Y-79121000D03*
X143510000Y-80645000D03*
%TO.N,/GL_B*%
X151003000Y-83439000D03*
X158150062Y-93853000D03*
%TO.N,/SL_B*%
X150876000Y-78105000D03*
X150114000Y-78867000D03*
X151638000Y-78867000D03*
X151638000Y-79629000D03*
X151638000Y-80391000D03*
X150114000Y-78105000D03*
X167259000Y-95758000D03*
X151638000Y-78105000D03*
X150876000Y-79629000D03*
X150114000Y-80391000D03*
X150114000Y-79629000D03*
X150876000Y-78867000D03*
X150876000Y-80391000D03*
X150876000Y-77343000D03*
X150114000Y-77343000D03*
X151638000Y-77343000D03*
%TO.N,/GH_C*%
X146685000Y-95885000D03*
X143510000Y-85217000D03*
%TO.N,/GL_C*%
X156845000Y-92964000D03*
X157988000Y-83312000D03*
%TO.N,/CS1*%
X154051000Y-124887600D03*
%TO.N,/SO1*%
X154131400Y-121634892D03*
X154178000Y-113919000D03*
%TO.N,/SO2*%
X154178000Y-112776000D03*
X153416000Y-122809000D03*
%TO.N,/MODE*%
X159512000Y-124333000D03*
%TO.N,/ADC1*%
X158369000Y-124714000D03*
%TD*%
D22*
%TO.N,/SH_A*%
X151294655Y-89725945D02*
X151294655Y-91197365D01*
X159994600Y-96240600D02*
X152857200Y-96240600D01*
X147196404Y-85627694D02*
X151294655Y-89725945D01*
X160375600Y-95859600D02*
X159994600Y-96240600D01*
X152857200Y-96240600D02*
X152654000Y-96037400D01*
X160375600Y-95123000D02*
X160375600Y-95859600D01*
X159694500Y-94441900D02*
X160375600Y-95123000D01*
X151294655Y-91197365D02*
X154539190Y-94441900D01*
X154539190Y-94441900D02*
X159024700Y-94441900D01*
X159024700Y-94441900D02*
X159694500Y-94441900D01*
X147196404Y-82683807D02*
X147196404Y-85627694D01*
%TO.N,/SH_B*%
X156845000Y-81153000D02*
X163783900Y-88091900D01*
X163783900Y-93136210D02*
X160168310Y-96751800D01*
X163783900Y-88091900D02*
X163783900Y-93136210D01*
X149609200Y-96751800D02*
X148691600Y-95834200D01*
X160168310Y-96751800D02*
X149609200Y-96751800D01*
%TO.N,/SH_C*%
X164388800Y-93065600D02*
X160324800Y-97129600D01*
X164388800Y-85267800D02*
X164388800Y-93065600D01*
X160324800Y-97129600D02*
X143738600Y-97129600D01*
X163322000Y-84201000D02*
X164388800Y-85267800D01*
%TO.N,/GL_A*%
X144272000Y-83820000D02*
X142875000Y-82423000D01*
X159461200Y-95605600D02*
X155168600Y-95605600D01*
X144272000Y-84709000D02*
X144272000Y-83820000D01*
X155168600Y-95605600D02*
X144272000Y-84709000D01*
%TO.N,/GL_B*%
X155956000Y-93853000D02*
X151003000Y-88900000D01*
X158150062Y-93853000D02*
X155956000Y-93853000D01*
X151003000Y-88900000D02*
X151003000Y-83439000D01*
%TO.N,/GH_C*%
X142494000Y-90805000D02*
X146685000Y-94996000D01*
X142875000Y-85217000D02*
X142494000Y-85598000D01*
X146685000Y-94996000D02*
X146685000Y-95885000D01*
X142494000Y-85598000D02*
X142494000Y-90805000D01*
X143510000Y-85217000D02*
X142875000Y-85217000D01*
%TO.N,/GL_C*%
X158369000Y-83693000D02*
X158369000Y-91440000D01*
X158369000Y-91440000D02*
X156845000Y-92964000D01*
X157988000Y-83312000D02*
X158369000Y-83693000D01*
%TD*%
%TA.AperFunction,Conductor*%
%TO.N,/SH_C*%
G36*
X161270692Y-70763666D02*
G01*
X161327522Y-70806221D01*
X161335917Y-70818985D01*
X161732514Y-71509831D01*
X165081185Y-77343000D01*
X165227000Y-77597000D01*
X160655000Y-77597000D01*
X160171502Y-76280810D01*
X160166788Y-76209970D01*
X160171986Y-76192620D01*
X160195954Y-76129524D01*
X160195956Y-76129517D01*
X160198455Y-76122938D01*
X160223699Y-75943317D01*
X160224016Y-75920600D01*
X160203797Y-75740345D01*
X160201480Y-75733691D01*
X160146464Y-75575706D01*
X160146462Y-75575703D01*
X160144145Y-75569048D01*
X160048026Y-75415224D01*
X159928555Y-75294916D01*
X159925178Y-75291515D01*
X159925174Y-75291512D01*
X159920215Y-75286518D01*
X159914267Y-75282743D01*
X159807647Y-75215080D01*
X159760848Y-75161691D01*
X159756889Y-75152142D01*
X158418897Y-71509831D01*
X158414183Y-71438991D01*
X158448516Y-71376848D01*
X158510402Y-71343260D01*
X160922069Y-70818985D01*
X161199877Y-70758592D01*
X161270692Y-70763666D01*
G37*
%TD.AperFunction*%
%TD*%
%TA.AperFunction,Conductor*%
%TO.N,/SH_A*%
G36*
X149040121Y-77363002D02*
G01*
X149086614Y-77416658D01*
X149098000Y-77469000D01*
X149098000Y-81535000D01*
X149077998Y-81603121D01*
X149024342Y-81649614D01*
X148972000Y-81661000D01*
X147701000Y-81661000D01*
X147701000Y-84456000D01*
X147680998Y-84524121D01*
X147627342Y-84570614D01*
X147575000Y-84582000D01*
X145042041Y-84582000D01*
X144973920Y-84561998D01*
X144952946Y-84545095D01*
X144906305Y-84498454D01*
X144872279Y-84436142D01*
X144869400Y-84409359D01*
X144869400Y-83867414D01*
X144870478Y-83850967D01*
X144873477Y-83828188D01*
X144874555Y-83820000D01*
X144854023Y-83664047D01*
X144793828Y-83518723D01*
X144698071Y-83393929D01*
X144673285Y-83374910D01*
X144660894Y-83364043D01*
X144562905Y-83266054D01*
X144528879Y-83203742D01*
X144526000Y-83176959D01*
X144526000Y-77469000D01*
X144546002Y-77400879D01*
X144599658Y-77354386D01*
X144652000Y-77343000D01*
X148972000Y-77343000D01*
X149040121Y-77363002D01*
G37*
%TD.AperFunction*%
%TD*%
%TA.AperFunction,Conductor*%
%TO.N,/SH_C*%
G36*
X165169121Y-77363002D02*
G01*
X165215614Y-77416658D01*
X165227000Y-77469000D01*
X165227000Y-81535000D01*
X165206998Y-81603121D01*
X165153342Y-81649614D01*
X165101000Y-81661000D01*
X163830000Y-81661000D01*
X163830000Y-84456000D01*
X163809998Y-84524121D01*
X163756342Y-84570614D01*
X163704000Y-84582000D01*
X161171041Y-84582000D01*
X161102920Y-84561998D01*
X161081946Y-84545095D01*
X160691905Y-84155054D01*
X160657879Y-84092742D01*
X160655000Y-84065959D01*
X160655000Y-77343000D01*
X165101000Y-77343000D01*
X165169121Y-77363002D01*
G37*
%TD.AperFunction*%
%TD*%
%TA.AperFunction,Conductor*%
%TO.N,GND*%
G36*
X165523463Y-66510902D02*
G01*
X166662577Y-66543716D01*
X166666724Y-66543904D01*
X167804093Y-66614465D01*
X167808258Y-66614793D01*
X168942630Y-66723022D01*
X168946782Y-66723487D01*
X170076983Y-66869271D01*
X170081118Y-66869874D01*
X171205860Y-67053050D01*
X171209972Y-67053790D01*
X171483121Y-67107627D01*
X172328035Y-67274158D01*
X172332083Y-67275026D01*
X172899225Y-67406483D01*
X173442220Y-67532343D01*
X173446274Y-67533354D01*
X173761138Y-67617427D01*
X174547279Y-67827338D01*
X174551255Y-67828471D01*
X175200953Y-68025245D01*
X175641885Y-68158790D01*
X175645863Y-68160067D01*
X176322699Y-68389822D01*
X176694829Y-68516143D01*
X176724927Y-68526360D01*
X176728854Y-68527766D01*
X177795226Y-68929650D01*
X177799076Y-68931174D01*
X178851557Y-69368202D01*
X178855336Y-69369846D01*
X179892716Y-69841515D01*
X179896462Y-69843293D01*
X180211397Y-69999286D01*
X180917665Y-70349113D01*
X180921377Y-70351030D01*
X181925165Y-70890384D01*
X181928807Y-70892419D01*
X182914228Y-71464798D01*
X182917738Y-71466914D01*
X183218787Y-71655396D01*
X183246039Y-71672458D01*
X183293163Y-71725561D01*
X183304097Y-71795710D01*
X183275369Y-71860635D01*
X183216101Y-71899722D01*
X183154594Y-71902833D01*
X182893705Y-71850938D01*
X182893699Y-71850937D01*
X182889666Y-71850135D01*
X182885561Y-71849866D01*
X182885554Y-71849865D01*
X182598359Y-71831042D01*
X182594240Y-71830772D01*
X182590121Y-71831042D01*
X182302926Y-71849865D01*
X182302919Y-71849866D01*
X182298814Y-71850135D01*
X182294781Y-71850937D01*
X182294775Y-71850938D01*
X182012493Y-71907088D01*
X182012487Y-71907090D01*
X182008443Y-71907894D01*
X182004534Y-71909221D01*
X182004530Y-71909222D01*
X181758426Y-71992763D01*
X181728095Y-72003059D01*
X181629337Y-72051761D01*
X181466271Y-72132176D01*
X181466266Y-72132179D01*
X181462567Y-72134003D01*
X181459134Y-72136297D01*
X181219833Y-72296192D01*
X181219828Y-72296196D01*
X181216402Y-72298485D01*
X181213308Y-72301199D01*
X181213302Y-72301203D01*
X181126957Y-72376926D01*
X180993813Y-72493691D01*
X180991104Y-72496780D01*
X180801325Y-72713180D01*
X180801321Y-72713186D01*
X180798607Y-72716280D01*
X180634125Y-72962445D01*
X180503181Y-73227973D01*
X180501856Y-73231878D01*
X180501855Y-73231879D01*
X180413115Y-73493301D01*
X180408016Y-73508321D01*
X180407212Y-73512365D01*
X180407210Y-73512371D01*
X180391716Y-73590267D01*
X180350257Y-73798692D01*
X180330894Y-74094118D01*
X180331164Y-74098237D01*
X180342561Y-74272120D01*
X180350257Y-74389544D01*
X180408016Y-74679915D01*
X180503181Y-74960263D01*
X180634125Y-75225791D01*
X180636419Y-75229224D01*
X180754301Y-75405647D01*
X180798607Y-75471956D01*
X180801321Y-75475050D01*
X180801325Y-75475056D01*
X180950989Y-75645714D01*
X180993813Y-75694545D01*
X180996902Y-75697254D01*
X181213302Y-75887033D01*
X181213308Y-75887037D01*
X181216402Y-75889751D01*
X181219828Y-75892040D01*
X181219833Y-75892044D01*
X181395211Y-76009227D01*
X181462567Y-76054233D01*
X181466266Y-76056057D01*
X181466271Y-76056060D01*
X181540937Y-76092881D01*
X181728095Y-76185177D01*
X181732000Y-76186502D01*
X181732001Y-76186503D01*
X182004530Y-76279014D01*
X182004534Y-76279015D01*
X182008443Y-76280342D01*
X182012487Y-76281146D01*
X182012493Y-76281148D01*
X182294775Y-76337298D01*
X182294781Y-76337299D01*
X182298814Y-76338101D01*
X182302919Y-76338370D01*
X182302926Y-76338371D01*
X182590121Y-76357194D01*
X182594240Y-76357464D01*
X182598359Y-76357194D01*
X182885554Y-76338371D01*
X182885561Y-76338370D01*
X182889666Y-76338101D01*
X182893699Y-76337299D01*
X182893705Y-76337298D01*
X183175987Y-76281148D01*
X183175993Y-76281146D01*
X183180037Y-76280342D01*
X183183946Y-76279015D01*
X183183950Y-76279014D01*
X183456479Y-76186503D01*
X183456480Y-76186502D01*
X183460385Y-76185177D01*
X183647543Y-76092881D01*
X183722209Y-76056060D01*
X183722214Y-76056057D01*
X183725913Y-76054233D01*
X183793269Y-76009227D01*
X183968647Y-75892044D01*
X183968652Y-75892040D01*
X183972078Y-75889751D01*
X183975172Y-75887037D01*
X183975178Y-75887033D01*
X184191578Y-75697254D01*
X184194667Y-75694545D01*
X184237491Y-75645714D01*
X184387155Y-75475056D01*
X184387159Y-75475050D01*
X184389873Y-75471956D01*
X184434180Y-75405647D01*
X184552061Y-75229224D01*
X184554355Y-75225791D01*
X184685299Y-74960263D01*
X184780464Y-74679915D01*
X184838223Y-74389544D01*
X184845920Y-74272120D01*
X184857316Y-74098237D01*
X184857586Y-74094118D01*
X184838223Y-73798692D01*
X184796765Y-73590267D01*
X184781270Y-73512371D01*
X184781268Y-73512365D01*
X184780464Y-73508321D01*
X184775366Y-73493301D01*
X184686625Y-73231879D01*
X184686624Y-73231878D01*
X184685299Y-73227973D01*
X184554355Y-72962445D01*
X184389873Y-72716280D01*
X184387151Y-72713176D01*
X184387147Y-72713171D01*
X184378851Y-72703711D01*
X184348973Y-72639308D01*
X184358657Y-72568975D01*
X184404829Y-72515043D01*
X184472829Y-72494634D01*
X184543948Y-72516112D01*
X184622469Y-72568975D01*
X184795892Y-72685730D01*
X184832421Y-72710323D01*
X184835842Y-72712709D01*
X185759556Y-73380138D01*
X185762870Y-73382618D01*
X186295021Y-73794653D01*
X186663895Y-74080266D01*
X186667150Y-74082873D01*
X186680719Y-74094118D01*
X187544575Y-74810033D01*
X187547747Y-74812752D01*
X188009604Y-75222087D01*
X188386919Y-75556494D01*
X188400553Y-75568578D01*
X188403627Y-75571394D01*
X189230919Y-76355095D01*
X189233904Y-76358018D01*
X190034751Y-77168709D01*
X190037638Y-77171730D01*
X190811184Y-78008548D01*
X190813968Y-78011663D01*
X191104488Y-78347640D01*
X191557006Y-78870962D01*
X191559292Y-78873606D01*
X191561966Y-78876803D01*
X192188361Y-79651717D01*
X192278371Y-79763069D01*
X192280936Y-79766354D01*
X192805095Y-80460675D01*
X192967511Y-80675817D01*
X192969973Y-80679192D01*
X193626057Y-81610975D01*
X193628405Y-81614431D01*
X194253201Y-82567403D01*
X194255434Y-82570935D01*
X194848301Y-83544117D01*
X194850415Y-83547720D01*
X195410689Y-84540021D01*
X195412683Y-84543693D01*
X195939765Y-85554053D01*
X195941635Y-85557789D01*
X196434905Y-86585022D01*
X196436651Y-86588818D01*
X196895604Y-87631867D01*
X196897223Y-87635719D01*
X197321330Y-88693384D01*
X197322821Y-88697287D01*
X197711642Y-89768473D01*
X197713002Y-89772423D01*
X197873786Y-90265799D01*
X198049230Y-90804159D01*
X198066085Y-90855881D01*
X198067312Y-90859868D01*
X198358689Y-91866071D01*
X198384289Y-91954476D01*
X198385378Y-91958485D01*
X198590478Y-92766066D01*
X198665886Y-93062987D01*
X198666847Y-93067053D01*
X198910574Y-94180221D01*
X198911400Y-94184316D01*
X199118089Y-95304963D01*
X199118779Y-95309081D01*
X199121306Y-95325893D01*
X199288203Y-96436000D01*
X199288755Y-96440142D01*
X199361842Y-97067023D01*
X199403192Y-97421685D01*
X199420717Y-97572004D01*
X199421131Y-97576151D01*
X199512010Y-98669840D01*
X199515496Y-98711797D01*
X199515772Y-98715951D01*
X199532581Y-99053588D01*
X199572432Y-99854095D01*
X199572571Y-99858271D01*
X199583629Y-100525114D01*
X199589134Y-100857051D01*
X199591475Y-100998246D01*
X199591488Y-101001325D01*
X199587257Y-101540006D01*
X199587195Y-101543084D01*
X199585564Y-101593588D01*
X199551023Y-102662990D01*
X199550390Y-102682579D01*
X199550187Y-102686724D01*
X199512495Y-103261800D01*
X199475655Y-103823855D01*
X199475313Y-103828019D01*
X199363123Y-104962039D01*
X199362643Y-104966189D01*
X199212914Y-106095874D01*
X199212296Y-106100007D01*
X199140561Y-106530990D01*
X199025534Y-107222069D01*
X199025199Y-107224079D01*
X199024448Y-107228171D01*
X198961087Y-107543829D01*
X198800178Y-108345457D01*
X198799288Y-108349539D01*
X198538103Y-109458752D01*
X198537078Y-109462803D01*
X198309852Y-110302029D01*
X198239383Y-110562297D01*
X198239257Y-110562761D01*
X198238100Y-110566768D01*
X197973680Y-111428959D01*
X197903981Y-111656224D01*
X197902697Y-111660176D01*
X197554036Y-112675639D01*
X197532626Y-112737995D01*
X197531208Y-112741912D01*
X197129760Y-113795962D01*
X197125612Y-113806852D01*
X197124067Y-113810716D01*
X197007724Y-114088160D01*
X196683384Y-114861622D01*
X196681705Y-114865447D01*
X196206432Y-115901147D01*
X196204627Y-115904915D01*
X195699747Y-116915338D01*
X195695259Y-116924319D01*
X195693331Y-116928021D01*
X195248590Y-117748841D01*
X195150467Y-117929937D01*
X195148419Y-117933572D01*
X195089733Y-118033800D01*
X194572630Y-118916945D01*
X194570460Y-118920515D01*
X193962367Y-119884284D01*
X193960079Y-119887780D01*
X193320383Y-120830834D01*
X193317980Y-120834253D01*
X192647375Y-121755570D01*
X192644861Y-121758907D01*
X192609653Y-121804052D01*
X191957074Y-122640821D01*
X191944048Y-122657523D01*
X191941438Y-122660757D01*
X191394957Y-123315500D01*
X191211237Y-123535617D01*
X191208507Y-123538780D01*
X190449711Y-124388939D01*
X190446879Y-124392009D01*
X189666150Y-125210424D01*
X189660285Y-125216572D01*
X189657364Y-125219534D01*
X188843846Y-126017581D01*
X188840861Y-126020414D01*
X188500952Y-126332430D01*
X188001356Y-126791027D01*
X187998232Y-126793801D01*
X187133625Y-127536169D01*
X187130410Y-127538837D01*
X186241722Y-128252085D01*
X186238421Y-128254646D01*
X185326541Y-128938060D01*
X185323157Y-128940510D01*
X184389125Y-129593313D01*
X184385661Y-129595650D01*
X183430472Y-130217143D01*
X183426932Y-130219363D01*
X182451685Y-130808830D01*
X182448074Y-130810931D01*
X181453838Y-131367731D01*
X181450186Y-131369698D01*
X180437944Y-131893274D01*
X180434292Y-131895087D01*
X179712849Y-132238425D01*
X179405287Y-132384795D01*
X179401485Y-132386528D01*
X178356824Y-132841844D01*
X178352966Y-132843449D01*
X177506471Y-133179456D01*
X177293818Y-133263866D01*
X177289909Y-133265343D01*
X176217410Y-133650409D01*
X176213455Y-133651756D01*
X175128733Y-134001067D01*
X175124736Y-134002281D01*
X174029082Y-134315420D01*
X174025046Y-134316502D01*
X173652210Y-134409806D01*
X172919539Y-134593161D01*
X172915527Y-134594094D01*
X171801464Y-134833946D01*
X171797366Y-134834757D01*
X170676009Y-135037531D01*
X170671886Y-135038206D01*
X169544414Y-135203691D01*
X169540270Y-135204229D01*
X168407956Y-135332239D01*
X168403798Y-135332640D01*
X167537449Y-135401584D01*
X167267806Y-135423042D01*
X167263646Y-135423304D01*
X167163575Y-135427936D01*
X166125321Y-135475990D01*
X166121144Y-135476114D01*
X164981709Y-135491030D01*
X164977531Y-135491016D01*
X163838196Y-135468145D01*
X163834021Y-135467992D01*
X162696065Y-135407358D01*
X162691897Y-135407066D01*
X162253423Y-135369090D01*
X161556599Y-135308739D01*
X161552498Y-135308316D01*
X160421022Y-135172394D01*
X160416926Y-135171833D01*
X159853757Y-135085153D01*
X159290611Y-134998476D01*
X159286493Y-134997772D01*
X158419610Y-134834757D01*
X158166536Y-134787167D01*
X158162472Y-134786332D01*
X157296962Y-134593660D01*
X157050164Y-134538720D01*
X157046102Y-134537745D01*
X155942616Y-134253392D01*
X155938587Y-134252283D01*
X155830658Y-134220620D01*
X154845057Y-133931476D01*
X154841123Y-133930250D01*
X154112778Y-133690078D01*
X153758874Y-133573378D01*
X153754929Y-133572004D01*
X153056268Y-133315639D01*
X152685116Y-133179449D01*
X152681254Y-133177959D01*
X151625007Y-132750135D01*
X151621190Y-132748514D01*
X150579759Y-132285928D01*
X150575969Y-132284169D01*
X149561566Y-131792695D01*
X156625251Y-131792695D01*
X156625548Y-131797848D01*
X156625548Y-131797851D01*
X156631104Y-131894210D01*
X156638110Y-132015715D01*
X156639247Y-132020761D01*
X156639248Y-132020767D01*
X156663304Y-132127508D01*
X156687222Y-132233639D01*
X156771266Y-132440616D01*
X156808685Y-132501678D01*
X156885291Y-132626688D01*
X156887987Y-132631088D01*
X157034250Y-132799938D01*
X157206126Y-132942632D01*
X157399000Y-133055338D01*
X157403825Y-133057180D01*
X157403826Y-133057181D01*
X157444642Y-133072767D01*
X157607692Y-133135030D01*
X157612760Y-133136061D01*
X157612763Y-133136062D01*
X157720017Y-133157883D01*
X157826597Y-133179567D01*
X157831772Y-133179757D01*
X157831774Y-133179757D01*
X158044673Y-133187564D01*
X158044677Y-133187564D01*
X158049837Y-133187753D01*
X158054957Y-133187097D01*
X158054959Y-133187097D01*
X158266288Y-133160025D01*
X158266289Y-133160025D01*
X158271416Y-133159368D01*
X158276366Y-133157883D01*
X158480429Y-133096661D01*
X158480434Y-133096659D01*
X158485384Y-133095174D01*
X158685994Y-132996896D01*
X158867860Y-132867173D01*
X159026096Y-132709489D01*
X159031248Y-132702320D01*
X159156453Y-132528077D01*
X159157776Y-132529028D01*
X159204645Y-132485857D01*
X159274580Y-132473625D01*
X159340026Y-132501144D01*
X159367875Y-132532994D01*
X159427987Y-132631088D01*
X159574250Y-132799938D01*
X159746126Y-132942632D01*
X159939000Y-133055338D01*
X159943825Y-133057180D01*
X159943826Y-133057181D01*
X159984642Y-133072767D01*
X160147692Y-133135030D01*
X160152760Y-133136061D01*
X160152763Y-133136062D01*
X160260017Y-133157883D01*
X160366597Y-133179567D01*
X160371772Y-133179757D01*
X160371774Y-133179757D01*
X160584673Y-133187564D01*
X160584677Y-133187564D01*
X160589837Y-133187753D01*
X160594957Y-133187097D01*
X160594959Y-133187097D01*
X160806288Y-133160025D01*
X160806289Y-133160025D01*
X160811416Y-133159368D01*
X160816366Y-133157883D01*
X161020429Y-133096661D01*
X161020434Y-133096659D01*
X161025384Y-133095174D01*
X161225994Y-132996896D01*
X161407860Y-132867173D01*
X161516091Y-132759319D01*
X161578462Y-132725404D01*
X161649268Y-132730592D01*
X161706030Y-132773238D01*
X161723012Y-132804341D01*
X161752248Y-132882327D01*
X161767385Y-132922705D01*
X161854739Y-133039261D01*
X161971295Y-133126615D01*
X162107684Y-133177745D01*
X162169866Y-133184500D01*
X163966134Y-133184500D01*
X164028316Y-133177745D01*
X164164705Y-133126615D01*
X164281261Y-133039261D01*
X164368615Y-132922705D01*
X164419745Y-132786316D01*
X164426500Y-132724134D01*
X164426500Y-131735695D01*
X168426251Y-131735695D01*
X168426548Y-131740848D01*
X168426548Y-131740851D01*
X168429835Y-131797851D01*
X168439110Y-131958715D01*
X168440247Y-131963761D01*
X168440248Y-131963767D01*
X168453094Y-132020767D01*
X168488222Y-132176639D01*
X168572266Y-132383616D01*
X168609685Y-132444678D01*
X168686291Y-132569688D01*
X168688987Y-132574088D01*
X168835250Y-132742938D01*
X169007126Y-132885632D01*
X169200000Y-132998338D01*
X169408692Y-133078030D01*
X169413760Y-133079061D01*
X169413763Y-133079062D01*
X169521017Y-133100883D01*
X169627597Y-133122567D01*
X169632772Y-133122757D01*
X169632774Y-133122757D01*
X169845673Y-133130564D01*
X169845677Y-133130564D01*
X169850837Y-133130753D01*
X169855957Y-133130097D01*
X169855959Y-133130097D01*
X170067288Y-133103025D01*
X170067289Y-133103025D01*
X170072416Y-133102368D01*
X170077366Y-133100883D01*
X170281429Y-133039661D01*
X170281434Y-133039659D01*
X170286384Y-133038174D01*
X170486994Y-132939896D01*
X170668860Y-132810173D01*
X170674713Y-132804341D01*
X170774108Y-132705292D01*
X170827096Y-132652489D01*
X170886594Y-132569689D01*
X170957453Y-132471077D01*
X170958776Y-132472028D01*
X171005645Y-132428857D01*
X171075580Y-132416625D01*
X171141026Y-132444144D01*
X171168875Y-132475994D01*
X171228987Y-132574088D01*
X171375250Y-132742938D01*
X171547126Y-132885632D01*
X171740000Y-132998338D01*
X171948692Y-133078030D01*
X171953760Y-133079061D01*
X171953763Y-133079062D01*
X172061017Y-133100883D01*
X172167597Y-133122567D01*
X172172772Y-133122757D01*
X172172774Y-133122757D01*
X172385673Y-133130564D01*
X172385677Y-133130564D01*
X172390837Y-133130753D01*
X172395957Y-133130097D01*
X172395959Y-133130097D01*
X172607288Y-133103025D01*
X172607289Y-133103025D01*
X172612416Y-133102368D01*
X172617366Y-133100883D01*
X172821429Y-133039661D01*
X172821434Y-133039659D01*
X172826384Y-133038174D01*
X173026994Y-132939896D01*
X173208860Y-132810173D01*
X173317091Y-132702319D01*
X173379462Y-132668404D01*
X173450268Y-132673592D01*
X173507030Y-132716238D01*
X173524012Y-132747341D01*
X173535678Y-132778460D01*
X173568385Y-132865705D01*
X173655739Y-132982261D01*
X173772295Y-133069615D01*
X173908684Y-133120745D01*
X173970866Y-133127500D01*
X175767134Y-133127500D01*
X175829316Y-133120745D01*
X175965705Y-133069615D01*
X176082261Y-132982261D01*
X176169615Y-132865705D01*
X176220745Y-132729316D01*
X176227500Y-132667134D01*
X176227500Y-130870866D01*
X176220745Y-130808684D01*
X176169615Y-130672295D01*
X176082261Y-130555739D01*
X175965705Y-130468385D01*
X175829316Y-130417255D01*
X175767134Y-130410500D01*
X173970866Y-130410500D01*
X173908684Y-130417255D01*
X173772295Y-130468385D01*
X173655739Y-130555739D01*
X173568385Y-130672295D01*
X173565233Y-130680703D01*
X173523919Y-130790907D01*
X173481277Y-130847671D01*
X173414716Y-130872371D01*
X173345367Y-130857163D01*
X173312743Y-130831476D01*
X173262151Y-130775875D01*
X173262142Y-130775866D01*
X173258670Y-130772051D01*
X173254619Y-130768852D01*
X173254615Y-130768848D01*
X173087414Y-130636800D01*
X173087410Y-130636798D01*
X173083359Y-130633598D01*
X173058580Y-130619919D01*
X173031136Y-130604769D01*
X172887789Y-130525638D01*
X172882920Y-130523914D01*
X172882916Y-130523912D01*
X172682087Y-130452795D01*
X172682083Y-130452794D01*
X172677212Y-130451069D01*
X172672119Y-130450162D01*
X172672116Y-130450161D01*
X172462373Y-130412800D01*
X172462367Y-130412799D01*
X172457284Y-130411894D01*
X172383452Y-130410992D01*
X172239081Y-130409228D01*
X172239079Y-130409228D01*
X172233911Y-130409165D01*
X172013091Y-130442955D01*
X171800756Y-130512357D01*
X171602607Y-130615507D01*
X171598474Y-130618610D01*
X171598471Y-130618612D01*
X171428100Y-130746530D01*
X171423965Y-130749635D01*
X171367536Y-130808684D01*
X171305559Y-130873540D01*
X171269629Y-130911138D01*
X171162201Y-131068621D01*
X171107293Y-131113621D01*
X171036768Y-131121792D01*
X170973021Y-131090538D01*
X170952324Y-131066054D01*
X170871822Y-130941617D01*
X170871820Y-130941614D01*
X170869014Y-130937277D01*
X170718670Y-130772051D01*
X170714619Y-130768852D01*
X170714615Y-130768848D01*
X170547414Y-130636800D01*
X170547410Y-130636798D01*
X170543359Y-130633598D01*
X170518580Y-130619919D01*
X170491136Y-130604769D01*
X170347789Y-130525638D01*
X170342920Y-130523914D01*
X170342916Y-130523912D01*
X170142087Y-130452795D01*
X170142083Y-130452794D01*
X170137212Y-130451069D01*
X170132119Y-130450162D01*
X170132116Y-130450161D01*
X169922373Y-130412800D01*
X169922367Y-130412799D01*
X169917284Y-130411894D01*
X169843452Y-130410992D01*
X169699081Y-130409228D01*
X169699079Y-130409228D01*
X169693911Y-130409165D01*
X169473091Y-130442955D01*
X169260756Y-130512357D01*
X169062607Y-130615507D01*
X169058474Y-130618610D01*
X169058471Y-130618612D01*
X168888100Y-130746530D01*
X168883965Y-130749635D01*
X168827536Y-130808684D01*
X168765559Y-130873540D01*
X168729629Y-130911138D01*
X168603743Y-131095680D01*
X168579271Y-131148401D01*
X168530798Y-131252828D01*
X168509688Y-131298305D01*
X168449989Y-131513570D01*
X168426251Y-131735695D01*
X164426500Y-131735695D01*
X164426500Y-130927866D01*
X164419745Y-130865684D01*
X164368615Y-130729295D01*
X164281261Y-130612739D01*
X164164705Y-130525385D01*
X164028316Y-130474255D01*
X163966134Y-130467500D01*
X162169866Y-130467500D01*
X162107684Y-130474255D01*
X161971295Y-130525385D01*
X161854739Y-130612739D01*
X161767385Y-130729295D01*
X161764233Y-130737703D01*
X161722919Y-130847907D01*
X161680277Y-130904671D01*
X161613716Y-130929371D01*
X161544367Y-130914163D01*
X161511743Y-130888476D01*
X161461151Y-130832875D01*
X161461142Y-130832866D01*
X161457670Y-130829051D01*
X161453619Y-130825852D01*
X161453615Y-130825848D01*
X161286414Y-130693800D01*
X161286410Y-130693798D01*
X161282359Y-130690598D01*
X161275773Y-130686962D01*
X161230136Y-130661769D01*
X161086789Y-130582638D01*
X161081920Y-130580914D01*
X161081916Y-130580912D01*
X160881087Y-130509795D01*
X160881083Y-130509794D01*
X160876212Y-130508069D01*
X160871119Y-130507162D01*
X160871116Y-130507161D01*
X160661373Y-130469800D01*
X160661367Y-130469799D01*
X160656284Y-130468894D01*
X160582452Y-130467992D01*
X160438081Y-130466228D01*
X160438079Y-130466228D01*
X160432911Y-130466165D01*
X160212091Y-130499955D01*
X159999756Y-130569357D01*
X159801607Y-130672507D01*
X159797474Y-130675610D01*
X159797471Y-130675612D01*
X159627100Y-130803530D01*
X159622965Y-130806635D01*
X159583750Y-130847671D01*
X159523100Y-130911138D01*
X159468629Y-130968138D01*
X159361201Y-131125621D01*
X159306293Y-131170621D01*
X159235768Y-131178792D01*
X159172021Y-131147538D01*
X159151324Y-131123054D01*
X159070822Y-130998617D01*
X159070820Y-130998614D01*
X159068014Y-130994277D01*
X158917670Y-130829051D01*
X158913619Y-130825852D01*
X158913615Y-130825848D01*
X158746414Y-130693800D01*
X158746410Y-130693798D01*
X158742359Y-130690598D01*
X158735773Y-130686962D01*
X158690136Y-130661769D01*
X158546789Y-130582638D01*
X158541920Y-130580914D01*
X158541916Y-130580912D01*
X158341087Y-130509795D01*
X158341083Y-130509794D01*
X158336212Y-130508069D01*
X158331119Y-130507162D01*
X158331116Y-130507161D01*
X158121373Y-130469800D01*
X158121367Y-130469799D01*
X158116284Y-130468894D01*
X158042452Y-130467992D01*
X157898081Y-130466228D01*
X157898079Y-130466228D01*
X157892911Y-130466165D01*
X157672091Y-130499955D01*
X157459756Y-130569357D01*
X157261607Y-130672507D01*
X157257474Y-130675610D01*
X157257471Y-130675612D01*
X157087100Y-130803530D01*
X157082965Y-130806635D01*
X157043750Y-130847671D01*
X156983100Y-130911138D01*
X156928629Y-130968138D01*
X156802743Y-131152680D01*
X156708688Y-131355305D01*
X156648989Y-131570570D01*
X156625251Y-131792695D01*
X149561566Y-131792695D01*
X149550429Y-131787299D01*
X149546700Y-131785415D01*
X148538232Y-131254834D01*
X148534567Y-131252828D01*
X147544220Y-130689089D01*
X147540623Y-130686962D01*
X146569498Y-130090689D01*
X146565975Y-130088444D01*
X145615203Y-129460334D01*
X145611755Y-129457974D01*
X144880585Y-128939319D01*
X144682259Y-128798636D01*
X144678900Y-128796168D01*
X144596083Y-128733192D01*
X143771819Y-128106407D01*
X143768537Y-128103824D01*
X143020541Y-127494859D01*
X142884834Y-127384376D01*
X142881639Y-127381686D01*
X142543491Y-127087220D01*
X142022265Y-126633327D01*
X142019165Y-126630536D01*
X141879668Y-126500680D01*
X141185047Y-125854068D01*
X141182042Y-125851176D01*
X141098813Y-125768381D01*
X140712438Y-125384024D01*
X140374167Y-125047519D01*
X140371254Y-125044524D01*
X140039366Y-124691717D01*
X139590436Y-124214491D01*
X139587638Y-124211416D01*
X139583959Y-124207235D01*
X139336765Y-123926355D01*
X141222609Y-123926355D01*
X141222906Y-123931508D01*
X141222906Y-123931511D01*
X141232554Y-124098841D01*
X141235468Y-124149375D01*
X141236605Y-124154421D01*
X141236606Y-124154427D01*
X141260064Y-124258515D01*
X141284580Y-124367299D01*
X141329838Y-124478757D01*
X141350674Y-124530069D01*
X141368624Y-124574276D01*
X141371323Y-124578680D01*
X141450169Y-124707345D01*
X141485345Y-124764748D01*
X141631608Y-124933598D01*
X141803484Y-125076292D01*
X141996358Y-125188998D01*
X142205050Y-125268690D01*
X142210118Y-125269721D01*
X142210121Y-125269722D01*
X142317375Y-125291543D01*
X142423955Y-125313227D01*
X142429130Y-125313417D01*
X142429132Y-125313417D01*
X142642031Y-125321224D01*
X142642035Y-125321224D01*
X142647195Y-125321413D01*
X142652315Y-125320757D01*
X142652317Y-125320757D01*
X142863646Y-125293685D01*
X142863647Y-125293685D01*
X142868774Y-125293028D01*
X142873724Y-125291543D01*
X143076043Y-125230844D01*
X143147039Y-125230428D01*
X143206989Y-125268460D01*
X143236861Y-125332866D01*
X143237538Y-125364916D01*
X143229902Y-125436364D01*
X143229228Y-125442679D01*
X143224156Y-125490135D01*
X143224453Y-125495287D01*
X143224453Y-125495291D01*
X143231429Y-125616279D01*
X143237015Y-125713155D01*
X143238152Y-125718201D01*
X143238153Y-125718207D01*
X143262209Y-125824948D01*
X143286127Y-125931079D01*
X143370171Y-126138056D01*
X143486892Y-126328528D01*
X143633155Y-126497378D01*
X143805031Y-126640072D01*
X143997905Y-126752778D01*
X144206597Y-126832470D01*
X144211665Y-126833501D01*
X144211668Y-126833502D01*
X144318917Y-126855322D01*
X144425502Y-126877007D01*
X144430677Y-126877197D01*
X144430679Y-126877197D01*
X144643578Y-126885004D01*
X144643582Y-126885004D01*
X144648742Y-126885193D01*
X144653862Y-126884537D01*
X144653864Y-126884537D01*
X144865193Y-126857465D01*
X144865194Y-126857465D01*
X144870321Y-126856808D01*
X144875272Y-126855323D01*
X144875275Y-126855322D01*
X145077592Y-126794624D01*
X145148587Y-126794208D01*
X145208537Y-126832240D01*
X145238409Y-126896646D01*
X145239086Y-126928696D01*
X145233208Y-126983700D01*
X145228298Y-127029645D01*
X145225704Y-127053915D01*
X145226001Y-127059067D01*
X145226001Y-127059071D01*
X145226673Y-127070723D01*
X145238563Y-127276935D01*
X145239700Y-127281981D01*
X145239701Y-127281987D01*
X145262170Y-127381686D01*
X145287675Y-127494859D01*
X145371719Y-127701836D01*
X145488440Y-127892308D01*
X145634703Y-128061158D01*
X145806579Y-128203852D01*
X145999453Y-128316558D01*
X146208145Y-128396250D01*
X146213213Y-128397281D01*
X146213216Y-128397282D01*
X146320832Y-128419177D01*
X146427050Y-128440787D01*
X146432225Y-128440977D01*
X146432227Y-128440977D01*
X146645126Y-128448784D01*
X146645130Y-128448784D01*
X146650290Y-128448973D01*
X146791681Y-128430860D01*
X146861790Y-128442044D01*
X146914724Y-128489357D01*
X146933675Y-128557778D01*
X146927891Y-128593623D01*
X146889902Y-128714477D01*
X146886979Y-128860105D01*
X146925046Y-129000700D01*
X147001043Y-129124960D01*
X147006706Y-129130467D01*
X147043437Y-129166186D01*
X147043442Y-129166191D01*
X147045885Y-129168566D01*
X147048574Y-129170667D01*
X147048581Y-129170673D01*
X148390843Y-130219363D01*
X148461363Y-130274459D01*
X148514522Y-130307419D01*
X148522054Y-130309787D01*
X148522057Y-130309788D01*
X148644915Y-130348407D01*
X148644917Y-130348407D01*
X148653477Y-130351098D01*
X148705674Y-130352146D01*
X148790131Y-130353841D01*
X148790132Y-130353841D01*
X148799105Y-130354021D01*
X148939700Y-130315954D01*
X149063960Y-130239957D01*
X149069467Y-130234294D01*
X149105186Y-130197563D01*
X149105191Y-130197558D01*
X149107566Y-130195115D01*
X149109667Y-130192426D01*
X149109673Y-130192419D01*
X150211355Y-128782330D01*
X150213459Y-128779637D01*
X150246419Y-128726478D01*
X150250192Y-128714477D01*
X150287407Y-128596085D01*
X150287407Y-128596083D01*
X150290098Y-128587523D01*
X150293021Y-128441895D01*
X150254954Y-128301300D01*
X150178957Y-128177040D01*
X150166341Y-128164772D01*
X150136563Y-128135814D01*
X150136558Y-128135809D01*
X150134115Y-128133434D01*
X150131426Y-128131333D01*
X150131419Y-128131327D01*
X148721330Y-127029645D01*
X148718637Y-127027541D01*
X148665478Y-126994581D01*
X148657946Y-126992213D01*
X148657943Y-126992212D01*
X148535085Y-126953593D01*
X148535083Y-126953593D01*
X148526523Y-126950902D01*
X148474326Y-126949854D01*
X148389869Y-126948159D01*
X148389868Y-126948159D01*
X148380895Y-126947979D01*
X148240300Y-126986046D01*
X148172453Y-127027541D01*
X148132062Y-127052244D01*
X148063512Y-127070723D01*
X147995854Y-127049207D01*
X147950569Y-126994528D01*
X147940745Y-126955078D01*
X147935941Y-126896646D01*
X147933305Y-126864581D01*
X147878884Y-126647922D01*
X147789807Y-126443060D01*
X147668467Y-126255497D01*
X147518123Y-126090271D01*
X147514072Y-126087072D01*
X147514068Y-126087068D01*
X147346867Y-125955020D01*
X147346863Y-125955018D01*
X147342812Y-125951818D01*
X147313526Y-125935651D01*
X147287545Y-125921309D01*
X147147242Y-125843858D01*
X147142373Y-125842134D01*
X147142369Y-125842132D01*
X146941540Y-125771015D01*
X146941536Y-125771014D01*
X146936665Y-125769289D01*
X146931572Y-125768382D01*
X146931569Y-125768381D01*
X146721826Y-125731020D01*
X146721820Y-125731019D01*
X146716737Y-125730114D01*
X146642905Y-125729212D01*
X146498534Y-125727448D01*
X146498532Y-125727448D01*
X146493364Y-125727385D01*
X146272544Y-125761175D01*
X146180518Y-125791254D01*
X146100498Y-125817408D01*
X146029534Y-125819559D01*
X145968672Y-125783003D01*
X145937236Y-125719345D01*
X145936431Y-125681196D01*
X145936855Y-125677980D01*
X145948434Y-125590030D01*
X145949881Y-125530811D01*
X145949979Y-125526805D01*
X145949979Y-125526800D01*
X145950061Y-125523440D01*
X145931757Y-125300801D01*
X145877336Y-125084142D01*
X145788259Y-124879280D01*
X145786292Y-124876240D01*
X153237463Y-124876240D01*
X153255163Y-125056760D01*
X153312418Y-125228873D01*
X153316065Y-125234895D01*
X153316066Y-125234897D01*
X153395269Y-125365677D01*
X153406380Y-125384024D01*
X153532382Y-125514502D01*
X153557305Y-125530811D01*
X153642682Y-125586680D01*
X153684159Y-125613822D01*
X153690763Y-125616278D01*
X153690765Y-125616279D01*
X153847558Y-125674590D01*
X153847560Y-125674590D01*
X153854168Y-125677048D01*
X153937995Y-125688233D01*
X154026980Y-125700107D01*
X154026984Y-125700107D01*
X154033961Y-125701038D01*
X154040972Y-125700400D01*
X154040976Y-125700400D01*
X154183459Y-125687432D01*
X154214600Y-125684598D01*
X154221302Y-125682420D01*
X154221304Y-125682420D01*
X154380409Y-125630724D01*
X154380412Y-125630723D01*
X154387108Y-125628547D01*
X154542912Y-125535669D01*
X154674266Y-125410582D01*
X154774643Y-125259502D01*
X154823626Y-125130556D01*
X154836555Y-125096520D01*
X154836556Y-125096518D01*
X154839055Y-125089938D01*
X154840973Y-125076292D01*
X154863748Y-124914239D01*
X154863748Y-124914236D01*
X154864299Y-124910317D01*
X154864616Y-124887600D01*
X154844397Y-124707345D01*
X154842759Y-124702640D01*
X157555463Y-124702640D01*
X157573163Y-124883160D01*
X157630418Y-125055273D01*
X157634065Y-125061295D01*
X157634066Y-125061297D01*
X157718641Y-125200947D01*
X157724380Y-125210424D01*
X157729269Y-125215487D01*
X157729270Y-125215488D01*
X157780425Y-125268460D01*
X157850382Y-125340902D01*
X157888242Y-125365677D01*
X157964290Y-125415441D01*
X158002159Y-125440222D01*
X158008763Y-125442678D01*
X158008765Y-125442679D01*
X158165558Y-125500990D01*
X158165560Y-125500990D01*
X158172168Y-125503448D01*
X158255012Y-125514502D01*
X158344980Y-125526507D01*
X158344984Y-125526507D01*
X158351961Y-125527438D01*
X158358972Y-125526800D01*
X158358976Y-125526800D01*
X158501459Y-125513832D01*
X158532600Y-125510998D01*
X158539302Y-125508820D01*
X158539304Y-125508820D01*
X158698409Y-125457124D01*
X158698412Y-125457123D01*
X158705108Y-125454947D01*
X158860912Y-125362069D01*
X158992266Y-125236982D01*
X159061997Y-125132028D01*
X159116354Y-125086358D01*
X159186774Y-125077325D01*
X159210856Y-125083655D01*
X159315168Y-125122448D01*
X159398995Y-125133633D01*
X159487980Y-125145507D01*
X159487984Y-125145507D01*
X159494961Y-125146438D01*
X159501972Y-125145800D01*
X159501976Y-125145800D01*
X159653295Y-125132028D01*
X159675600Y-125129998D01*
X159682302Y-125127820D01*
X159682304Y-125127820D01*
X159841409Y-125076124D01*
X159841412Y-125076123D01*
X159848108Y-125073947D01*
X159937340Y-125020754D01*
X160006094Y-125003054D01*
X160073504Y-125025336D01*
X160092492Y-125041455D01*
X160131483Y-125081830D01*
X160131488Y-125081834D01*
X160136382Y-125086902D01*
X160288159Y-125186222D01*
X160294763Y-125188678D01*
X160294765Y-125188679D01*
X160451558Y-125246990D01*
X160451560Y-125246990D01*
X160458168Y-125249448D01*
X160533518Y-125259502D01*
X160630980Y-125272507D01*
X160630984Y-125272507D01*
X160637961Y-125273438D01*
X160644972Y-125272800D01*
X160644976Y-125272800D01*
X160787459Y-125259832D01*
X160818600Y-125256998D01*
X160825302Y-125254820D01*
X160825304Y-125254820D01*
X160984409Y-125203124D01*
X160984412Y-125203123D01*
X160991108Y-125200947D01*
X161087513Y-125143478D01*
X161140860Y-125111677D01*
X161140862Y-125111676D01*
X161146912Y-125108069D01*
X161278266Y-124982982D01*
X161378643Y-124831902D01*
X161443055Y-124662338D01*
X161444035Y-124655366D01*
X161467748Y-124486639D01*
X161467748Y-124486636D01*
X161468299Y-124482717D01*
X161468616Y-124460000D01*
X161467342Y-124448640D01*
X164794463Y-124448640D01*
X164812163Y-124629160D01*
X164869418Y-124801273D01*
X164873065Y-124807295D01*
X164873066Y-124807297D01*
X164933059Y-124906357D01*
X164963380Y-124956424D01*
X164968269Y-124961487D01*
X164968270Y-124961488D01*
X164989027Y-124982982D01*
X165089382Y-125086902D01*
X165241159Y-125186222D01*
X165247763Y-125188678D01*
X165247765Y-125188679D01*
X165404558Y-125246990D01*
X165404560Y-125246990D01*
X165411168Y-125249448D01*
X165486518Y-125259502D01*
X165583980Y-125272507D01*
X165583984Y-125272507D01*
X165590961Y-125273438D01*
X165597972Y-125272800D01*
X165597976Y-125272800D01*
X165740459Y-125259832D01*
X165771600Y-125256998D01*
X165778302Y-125254820D01*
X165778304Y-125254820D01*
X165937409Y-125203124D01*
X165937412Y-125203123D01*
X165944108Y-125200947D01*
X166040513Y-125143478D01*
X166093860Y-125111677D01*
X166093862Y-125111676D01*
X166099912Y-125108069D01*
X166231266Y-124982982D01*
X166331643Y-124831902D01*
X166396055Y-124662338D01*
X166397035Y-124655366D01*
X166420748Y-124486639D01*
X166420748Y-124486636D01*
X166421299Y-124482717D01*
X166421616Y-124460000D01*
X166401397Y-124279745D01*
X166399080Y-124273091D01*
X166344064Y-124115106D01*
X166344062Y-124115103D01*
X166341745Y-124108448D01*
X166292456Y-124029568D01*
X166249359Y-123960598D01*
X166245626Y-123954624D01*
X166231941Y-123940843D01*
X166122778Y-123830915D01*
X166122774Y-123830912D01*
X166117815Y-123825918D01*
X166106697Y-123818862D01*
X166058538Y-123788300D01*
X165964666Y-123728727D01*
X165910297Y-123709367D01*
X165800425Y-123670243D01*
X165800420Y-123670242D01*
X165793790Y-123667881D01*
X165786802Y-123667048D01*
X165786799Y-123667047D01*
X165663698Y-123652368D01*
X165613680Y-123646404D01*
X165606677Y-123647140D01*
X165606676Y-123647140D01*
X165440288Y-123664628D01*
X165440286Y-123664629D01*
X165433288Y-123665364D01*
X165261579Y-123723818D01*
X165247457Y-123732506D01*
X165113095Y-123815166D01*
X165113092Y-123815168D01*
X165107088Y-123818862D01*
X165102053Y-123823793D01*
X165102050Y-123823795D01*
X164987150Y-123936314D01*
X164977493Y-123945771D01*
X164879235Y-124098238D01*
X164876826Y-124104858D01*
X164876824Y-124104861D01*
X164819606Y-124262066D01*
X164817197Y-124268685D01*
X164794463Y-124448640D01*
X161467342Y-124448640D01*
X161448397Y-124279745D01*
X161446080Y-124273091D01*
X161391064Y-124115106D01*
X161391062Y-124115103D01*
X161388745Y-124108448D01*
X161339456Y-124029568D01*
X161296359Y-123960598D01*
X161292626Y-123954624D01*
X161278941Y-123940843D01*
X161169778Y-123830915D01*
X161169774Y-123830912D01*
X161164815Y-123825918D01*
X161153697Y-123818862D01*
X161105538Y-123788300D01*
X161011666Y-123728727D01*
X160957297Y-123709367D01*
X160847425Y-123670243D01*
X160847420Y-123670242D01*
X160840790Y-123667881D01*
X160833802Y-123667048D01*
X160833799Y-123667047D01*
X160710698Y-123652368D01*
X160660680Y-123646404D01*
X160653677Y-123647140D01*
X160653676Y-123647140D01*
X160487288Y-123664628D01*
X160487286Y-123664629D01*
X160480288Y-123665364D01*
X160308579Y-123723818D01*
X160230975Y-123771561D01*
X160162476Y-123790219D01*
X160094761Y-123768880D01*
X160075548Y-123753027D01*
X160026778Y-123703915D01*
X160026774Y-123703912D01*
X160021815Y-123698918D01*
X160010697Y-123691862D01*
X159940380Y-123647238D01*
X159868666Y-123601727D01*
X159793501Y-123574962D01*
X159750472Y-123559640D01*
X161619463Y-123559640D01*
X161637163Y-123740160D01*
X161694418Y-123912273D01*
X161698065Y-123918295D01*
X161698066Y-123918297D01*
X161765454Y-124029568D01*
X161788380Y-124067424D01*
X161793269Y-124072487D01*
X161793270Y-124072488D01*
X161817755Y-124097843D01*
X161914382Y-124197902D01*
X161935034Y-124211416D01*
X162037323Y-124278352D01*
X162066159Y-124297222D01*
X162072763Y-124299678D01*
X162072765Y-124299679D01*
X162229558Y-124357990D01*
X162229560Y-124357990D01*
X162236168Y-124360448D01*
X162319995Y-124371633D01*
X162408980Y-124383507D01*
X162408984Y-124383507D01*
X162415961Y-124384438D01*
X162422972Y-124383800D01*
X162422976Y-124383800D01*
X162565459Y-124370832D01*
X162596600Y-124367998D01*
X162603302Y-124365820D01*
X162603304Y-124365820D01*
X162762409Y-124314124D01*
X162762412Y-124314123D01*
X162769108Y-124311947D01*
X162873456Y-124249743D01*
X162918860Y-124222677D01*
X162918862Y-124222676D01*
X162924912Y-124219069D01*
X163056266Y-124093982D01*
X163156643Y-123942902D01*
X163203762Y-123818862D01*
X163218555Y-123779920D01*
X163218556Y-123779918D01*
X163221055Y-123773338D01*
X163223910Y-123753027D01*
X163245748Y-123597639D01*
X163245748Y-123597636D01*
X163246299Y-123593717D01*
X163246616Y-123571000D01*
X163226397Y-123390745D01*
X163224080Y-123384091D01*
X163169064Y-123226106D01*
X163169062Y-123226103D01*
X163166745Y-123219448D01*
X163070626Y-123065624D01*
X163023254Y-123017920D01*
X162947778Y-122941915D01*
X162947774Y-122941912D01*
X162942815Y-122936918D01*
X162931697Y-122929862D01*
X162883538Y-122899300D01*
X162789666Y-122839727D01*
X162746224Y-122824258D01*
X162625425Y-122781243D01*
X162625420Y-122781242D01*
X162618790Y-122778881D01*
X162611802Y-122778048D01*
X162611799Y-122778047D01*
X162488698Y-122763368D01*
X162438680Y-122757404D01*
X162431677Y-122758140D01*
X162431676Y-122758140D01*
X162265288Y-122775628D01*
X162265286Y-122775629D01*
X162258288Y-122776364D01*
X162086579Y-122834818D01*
X162080575Y-122838512D01*
X161938095Y-122926166D01*
X161938092Y-122926168D01*
X161932088Y-122929862D01*
X161927053Y-122934793D01*
X161927050Y-122934795D01*
X161842166Y-123017920D01*
X161802493Y-123056771D01*
X161704235Y-123209238D01*
X161701826Y-123215858D01*
X161701824Y-123215861D01*
X161657791Y-123336841D01*
X161642197Y-123379685D01*
X161619463Y-123559640D01*
X159750472Y-123559640D01*
X159704425Y-123543243D01*
X159704420Y-123543242D01*
X159697790Y-123540881D01*
X159690802Y-123540048D01*
X159690799Y-123540047D01*
X159567698Y-123525368D01*
X159517680Y-123519404D01*
X159510677Y-123520140D01*
X159510676Y-123520140D01*
X159344288Y-123537628D01*
X159344286Y-123537629D01*
X159337288Y-123538364D01*
X159165579Y-123596818D01*
X159149619Y-123606637D01*
X159017095Y-123688166D01*
X159017092Y-123688168D01*
X159011088Y-123691862D01*
X159006053Y-123696793D01*
X159006050Y-123696795D01*
X158921166Y-123779920D01*
X158881493Y-123818771D01*
X158820564Y-123913315D01*
X158766852Y-123959737D01*
X158696566Y-123969752D01*
X158672391Y-123963757D01*
X158595323Y-123936314D01*
X158561424Y-123924243D01*
X158561422Y-123924243D01*
X158554790Y-123921881D01*
X158547802Y-123921048D01*
X158547799Y-123921047D01*
X158418171Y-123905590D01*
X158374680Y-123900404D01*
X158367677Y-123901140D01*
X158367676Y-123901140D01*
X158201288Y-123918628D01*
X158201286Y-123918629D01*
X158194288Y-123919364D01*
X158022579Y-123977818D01*
X158016575Y-123981512D01*
X157874095Y-124069166D01*
X157874092Y-124069168D01*
X157868088Y-124072862D01*
X157863053Y-124077793D01*
X157863050Y-124077795D01*
X157745577Y-124192834D01*
X157738493Y-124199771D01*
X157640235Y-124352238D01*
X157637826Y-124358858D01*
X157637824Y-124358861D01*
X157592744Y-124482717D01*
X157578197Y-124522685D01*
X157555463Y-124702640D01*
X154842759Y-124702640D01*
X154842080Y-124700691D01*
X154787064Y-124542706D01*
X154787062Y-124542703D01*
X154784745Y-124536048D01*
X154688626Y-124382224D01*
X154678558Y-124372085D01*
X154565778Y-124258515D01*
X154565774Y-124258512D01*
X154560815Y-124253518D01*
X154549697Y-124246462D01*
X154487884Y-124207235D01*
X154407666Y-124156327D01*
X154373629Y-124144207D01*
X154243425Y-124097843D01*
X154243420Y-124097842D01*
X154236790Y-124095481D01*
X154229802Y-124094648D01*
X154229799Y-124094647D01*
X154088472Y-124077795D01*
X154056680Y-124074004D01*
X154049677Y-124074740D01*
X154049676Y-124074740D01*
X153883288Y-124092228D01*
X153883286Y-124092229D01*
X153876288Y-124092964D01*
X153704579Y-124151418D01*
X153684667Y-124163668D01*
X153556095Y-124242766D01*
X153556092Y-124242768D01*
X153550088Y-124246462D01*
X153545053Y-124251393D01*
X153545050Y-124251395D01*
X153425525Y-124368443D01*
X153420493Y-124373371D01*
X153322235Y-124525838D01*
X153319826Y-124532458D01*
X153319824Y-124532461D01*
X153282196Y-124635844D01*
X153260197Y-124696285D01*
X153237463Y-124876240D01*
X145786292Y-124876240D01*
X145681557Y-124714344D01*
X145669727Y-124696057D01*
X145669725Y-124696054D01*
X145666919Y-124691717D01*
X145516575Y-124526491D01*
X145512524Y-124523292D01*
X145512520Y-124523288D01*
X145345319Y-124391240D01*
X145345315Y-124391238D01*
X145341264Y-124388038D01*
X145325423Y-124379293D01*
X145207368Y-124314124D01*
X145145694Y-124280078D01*
X145140825Y-124278354D01*
X145140821Y-124278352D01*
X144939992Y-124207235D01*
X144939988Y-124207234D01*
X144935117Y-124205509D01*
X144930024Y-124204602D01*
X144930021Y-124204601D01*
X144720278Y-124167240D01*
X144720272Y-124167239D01*
X144715189Y-124166334D01*
X144641357Y-124165432D01*
X144496986Y-124163668D01*
X144496984Y-124163668D01*
X144491816Y-124163605D01*
X144270996Y-124197395D01*
X144137146Y-124241144D01*
X144098951Y-124253628D01*
X144027987Y-124255779D01*
X143967125Y-124219223D01*
X143935689Y-124155565D01*
X143934884Y-124117416D01*
X143935189Y-124115106D01*
X143946887Y-124026250D01*
X143947278Y-124010250D01*
X143948432Y-123963025D01*
X143948432Y-123963021D01*
X143948514Y-123959660D01*
X143930210Y-123737021D01*
X143875789Y-123520362D01*
X143786712Y-123315500D01*
X143679822Y-123150273D01*
X143668180Y-123132277D01*
X143668178Y-123132274D01*
X143665372Y-123127937D01*
X143515028Y-122962711D01*
X143510977Y-122959512D01*
X143510973Y-122959508D01*
X143343772Y-122827460D01*
X143343768Y-122827458D01*
X143339717Y-122824258D01*
X143304203Y-122804653D01*
X143291499Y-122797640D01*
X152602463Y-122797640D01*
X152620163Y-122978160D01*
X152677418Y-123150273D01*
X152681065Y-123156295D01*
X152681066Y-123156297D01*
X152762666Y-123291035D01*
X152771380Y-123305424D01*
X152776269Y-123310487D01*
X152776270Y-123310488D01*
X152847348Y-123384091D01*
X152897382Y-123435902D01*
X152903278Y-123439760D01*
X153026451Y-123520362D01*
X153049159Y-123535222D01*
X153055763Y-123537678D01*
X153055765Y-123537679D01*
X153212558Y-123595990D01*
X153212560Y-123595990D01*
X153219168Y-123598448D01*
X153302995Y-123609633D01*
X153391980Y-123621507D01*
X153391984Y-123621507D01*
X153398961Y-123622438D01*
X153405972Y-123621800D01*
X153405976Y-123621800D01*
X153548459Y-123608832D01*
X153579600Y-123605998D01*
X153586302Y-123603820D01*
X153586304Y-123603820D01*
X153745409Y-123552124D01*
X153745412Y-123552123D01*
X153752108Y-123549947D01*
X153907912Y-123457069D01*
X154039266Y-123331982D01*
X154139643Y-123180902D01*
X154185332Y-123060627D01*
X154201555Y-123017920D01*
X154201556Y-123017918D01*
X154204055Y-123011338D01*
X154205035Y-123004366D01*
X154228748Y-122835639D01*
X154228748Y-122835636D01*
X154229299Y-122831717D01*
X154229616Y-122809000D01*
X154209397Y-122628745D01*
X154198201Y-122596594D01*
X154194689Y-122525687D01*
X154230070Y-122464135D01*
X154290836Y-122432269D01*
X154295000Y-122431890D01*
X154301694Y-122429715D01*
X154301699Y-122429714D01*
X154460809Y-122378016D01*
X154460812Y-122378015D01*
X154467508Y-122375839D01*
X154577768Y-122310111D01*
X154617260Y-122286569D01*
X154617262Y-122286568D01*
X154623312Y-122282961D01*
X154754666Y-122157874D01*
X154855043Y-122006794D01*
X154919455Y-121837230D01*
X154921927Y-121819639D01*
X154927268Y-121781640D01*
X164667463Y-121781640D01*
X164685163Y-121962160D01*
X164742418Y-122134273D01*
X164746065Y-122140295D01*
X164746066Y-122140297D01*
X164830641Y-122279947D01*
X164836380Y-122289424D01*
X164841269Y-122294487D01*
X164841270Y-122294488D01*
X164874065Y-122328448D01*
X164962382Y-122419902D01*
X165114159Y-122519222D01*
X165120763Y-122521678D01*
X165120765Y-122521679D01*
X165277558Y-122579990D01*
X165277560Y-122579990D01*
X165284168Y-122582448D01*
X165367995Y-122593633D01*
X165456980Y-122605507D01*
X165456984Y-122605507D01*
X165463961Y-122606438D01*
X165470972Y-122605800D01*
X165470976Y-122605800D01*
X165613459Y-122592832D01*
X165644600Y-122589998D01*
X165651302Y-122587820D01*
X165651304Y-122587820D01*
X165810409Y-122536124D01*
X165810412Y-122536123D01*
X165817108Y-122533947D01*
X165925095Y-122469574D01*
X165966860Y-122444677D01*
X165966862Y-122444676D01*
X165972912Y-122441069D01*
X166104266Y-122315982D01*
X166204643Y-122164902D01*
X166269055Y-121995338D01*
X166271750Y-121976165D01*
X166293748Y-121819639D01*
X166293748Y-121819636D01*
X166294299Y-121815717D01*
X166294616Y-121793000D01*
X166274397Y-121612745D01*
X166272080Y-121606091D01*
X166217064Y-121448106D01*
X166217062Y-121448103D01*
X166214745Y-121441448D01*
X166118626Y-121287624D01*
X166109835Y-121278771D01*
X165995778Y-121163915D01*
X165995774Y-121163912D01*
X165990815Y-121158918D01*
X165979697Y-121151862D01*
X165922769Y-121115735D01*
X165837666Y-121061727D01*
X165808463Y-121051328D01*
X165673425Y-121003243D01*
X165673420Y-121003242D01*
X165666790Y-121000881D01*
X165659802Y-121000048D01*
X165659799Y-121000047D01*
X165536698Y-120985368D01*
X165486680Y-120979404D01*
X165479677Y-120980140D01*
X165479676Y-120980140D01*
X165313288Y-120997628D01*
X165313286Y-120997629D01*
X165306288Y-120998364D01*
X165134579Y-121056818D01*
X165128575Y-121060512D01*
X164986095Y-121148166D01*
X164986092Y-121148168D01*
X164980088Y-121151862D01*
X164975053Y-121156793D01*
X164975050Y-121156795D01*
X164856253Y-121273130D01*
X164850493Y-121278771D01*
X164752235Y-121431238D01*
X164749826Y-121437858D01*
X164749824Y-121437861D01*
X164703317Y-121565639D01*
X164690197Y-121601685D01*
X164667463Y-121781640D01*
X154927268Y-121781640D01*
X154944148Y-121661531D01*
X154944148Y-121661528D01*
X154944699Y-121657609D01*
X154945016Y-121634892D01*
X154924797Y-121454637D01*
X154922480Y-121447983D01*
X154867464Y-121289998D01*
X154867462Y-121289995D01*
X154865145Y-121283340D01*
X154769026Y-121129516D01*
X154755341Y-121115735D01*
X154646178Y-121005807D01*
X154646174Y-121005804D01*
X154641215Y-121000810D01*
X154630097Y-120993754D01*
X154581938Y-120963192D01*
X154488066Y-120903619D01*
X154458863Y-120893220D01*
X154323825Y-120845135D01*
X154323820Y-120845134D01*
X154317190Y-120842773D01*
X154310202Y-120841940D01*
X154310199Y-120841939D01*
X154187098Y-120827260D01*
X154137080Y-120821296D01*
X154130077Y-120822032D01*
X154130076Y-120822032D01*
X153963688Y-120839520D01*
X153963686Y-120839521D01*
X153956688Y-120840256D01*
X153784979Y-120898710D01*
X153770857Y-120907398D01*
X153636495Y-120990058D01*
X153636492Y-120990060D01*
X153630488Y-120993754D01*
X153625453Y-120998685D01*
X153625450Y-120998687D01*
X153568408Y-121054547D01*
X153500893Y-121120663D01*
X153402635Y-121273130D01*
X153400226Y-121279750D01*
X153400224Y-121279753D01*
X153368926Y-121365744D01*
X153340597Y-121443577D01*
X153317863Y-121623532D01*
X153335563Y-121804052D01*
X153340748Y-121819639D01*
X153350510Y-121848984D01*
X153353033Y-121919936D01*
X153316796Y-121980988D01*
X153255117Y-122011851D01*
X153255175Y-122012115D01*
X153254130Y-122012345D01*
X153253304Y-122012758D01*
X153250312Y-122013184D01*
X153248295Y-122013628D01*
X153241288Y-122014364D01*
X153069579Y-122072818D01*
X153063575Y-122076512D01*
X152921095Y-122164166D01*
X152921092Y-122164168D01*
X152915088Y-122167862D01*
X152910053Y-122172793D01*
X152910050Y-122172795D01*
X152790953Y-122289424D01*
X152785493Y-122294771D01*
X152687235Y-122447238D01*
X152684826Y-122453858D01*
X152684824Y-122453861D01*
X152627606Y-122611066D01*
X152625197Y-122617685D01*
X152602463Y-122797640D01*
X143291499Y-122797640D01*
X143257067Y-122778633D01*
X143144147Y-122716298D01*
X143139278Y-122714574D01*
X143139274Y-122714572D01*
X142938445Y-122643455D01*
X142938441Y-122643454D01*
X142933570Y-122641729D01*
X142928477Y-122640822D01*
X142928474Y-122640821D01*
X142718731Y-122603460D01*
X142718725Y-122603459D01*
X142713642Y-122602554D01*
X142639810Y-122601652D01*
X142495439Y-122599888D01*
X142495437Y-122599888D01*
X142490269Y-122599825D01*
X142269449Y-122633615D01*
X142057114Y-122703017D01*
X142026801Y-122718797D01*
X141888781Y-122790646D01*
X141858965Y-122806167D01*
X141854832Y-122809270D01*
X141854829Y-122809272D01*
X141684458Y-122937190D01*
X141680323Y-122940295D01*
X141525987Y-123101798D01*
X141523073Y-123106070D01*
X141523072Y-123106071D01*
X141445732Y-123219448D01*
X141400101Y-123286340D01*
X141384361Y-123320250D01*
X141320852Y-123457069D01*
X141306046Y-123488965D01*
X141246347Y-123704230D01*
X141222609Y-123926355D01*
X139336765Y-123926355D01*
X138834778Y-123355961D01*
X138832072Y-123352781D01*
X138818956Y-123336841D01*
X138650626Y-123132277D01*
X138107998Y-122472844D01*
X138105397Y-122469574D01*
X137410896Y-121566116D01*
X137408405Y-121562762D01*
X137383214Y-121527640D01*
X149300463Y-121527640D01*
X149318163Y-121708160D01*
X149375418Y-121880273D01*
X149379065Y-121886295D01*
X149379066Y-121886297D01*
X149456626Y-122014364D01*
X149469380Y-122035424D01*
X149595382Y-122165902D01*
X149747159Y-122265222D01*
X149753763Y-122267678D01*
X149753765Y-122267679D01*
X149910558Y-122325990D01*
X149910560Y-122325990D01*
X149917168Y-122328448D01*
X150000995Y-122339633D01*
X150089980Y-122351507D01*
X150089984Y-122351507D01*
X150096961Y-122352438D01*
X150103972Y-122351800D01*
X150103976Y-122351800D01*
X150246459Y-122338832D01*
X150277600Y-122335998D01*
X150284302Y-122333820D01*
X150284304Y-122333820D01*
X150443409Y-122282124D01*
X150443412Y-122282123D01*
X150450108Y-122279947D01*
X150605912Y-122187069D01*
X150737266Y-122061982D01*
X150837643Y-121910902D01*
X150902055Y-121741338D01*
X150903035Y-121734366D01*
X150926748Y-121565639D01*
X150926748Y-121565636D01*
X150927299Y-121561717D01*
X150927616Y-121539000D01*
X150907397Y-121358745D01*
X150905080Y-121352091D01*
X150850064Y-121194106D01*
X150850062Y-121194103D01*
X150847745Y-121187448D01*
X150808423Y-121124519D01*
X150755359Y-121039598D01*
X150751626Y-121033624D01*
X150737941Y-121019843D01*
X150628778Y-120909915D01*
X150628774Y-120909912D01*
X150623815Y-120904918D01*
X150612697Y-120897862D01*
X150564538Y-120867300D01*
X150470666Y-120807727D01*
X150441463Y-120797328D01*
X150306425Y-120749243D01*
X150306420Y-120749242D01*
X150299790Y-120746881D01*
X150292802Y-120746048D01*
X150292799Y-120746047D01*
X150169698Y-120731368D01*
X150119680Y-120725404D01*
X150112677Y-120726140D01*
X150112676Y-120726140D01*
X149946288Y-120743628D01*
X149946286Y-120743629D01*
X149939288Y-120744364D01*
X149767579Y-120802818D01*
X149707921Y-120839520D01*
X149619095Y-120894166D01*
X149619092Y-120894168D01*
X149613088Y-120897862D01*
X149608053Y-120902793D01*
X149608050Y-120902795D01*
X149502858Y-121005807D01*
X149483493Y-121024771D01*
X149385235Y-121177238D01*
X149382826Y-121183858D01*
X149382824Y-121183861D01*
X149344193Y-121289998D01*
X149323197Y-121347685D01*
X149300463Y-121527640D01*
X137383214Y-121527640D01*
X136744229Y-120636760D01*
X136741851Y-120633325D01*
X136108753Y-119685827D01*
X136106490Y-119682315D01*
X135713367Y-119049507D01*
X135505155Y-118714347D01*
X135503016Y-118710775D01*
X135426670Y-118578273D01*
X135223488Y-118225640D01*
X164667463Y-118225640D01*
X164685163Y-118406160D01*
X164742418Y-118578273D01*
X164746065Y-118584295D01*
X164746066Y-118584297D01*
X164824835Y-118714360D01*
X164836380Y-118733424D01*
X164962382Y-118863902D01*
X165114159Y-118963222D01*
X165120763Y-118965678D01*
X165120765Y-118965679D01*
X165277558Y-119023990D01*
X165277560Y-119023990D01*
X165284168Y-119026448D01*
X165367995Y-119037633D01*
X165456980Y-119049507D01*
X165456984Y-119049507D01*
X165463961Y-119050438D01*
X165470972Y-119049800D01*
X165470976Y-119049800D01*
X165613459Y-119036832D01*
X165644600Y-119033998D01*
X165651302Y-119031820D01*
X165651304Y-119031820D01*
X165810409Y-118980124D01*
X165810412Y-118980123D01*
X165817108Y-118977947D01*
X165972912Y-118885069D01*
X166104266Y-118759982D01*
X166204643Y-118608902D01*
X166269055Y-118439338D01*
X166270035Y-118432366D01*
X166293748Y-118263639D01*
X166293748Y-118263636D01*
X166294299Y-118259717D01*
X166294616Y-118237000D01*
X166274397Y-118056745D01*
X166272080Y-118050091D01*
X166217064Y-117892106D01*
X166217062Y-117892103D01*
X166214745Y-117885448D01*
X166126348Y-117743982D01*
X166122359Y-117737598D01*
X166118626Y-117731624D01*
X166113664Y-117726627D01*
X165995778Y-117607915D01*
X165995774Y-117607912D01*
X165990815Y-117602918D01*
X165979697Y-117595862D01*
X165931538Y-117565300D01*
X165837666Y-117505727D01*
X165808463Y-117495328D01*
X165673425Y-117447243D01*
X165673420Y-117447242D01*
X165666790Y-117444881D01*
X165659802Y-117444048D01*
X165659799Y-117444047D01*
X165536698Y-117429368D01*
X165486680Y-117423404D01*
X165479677Y-117424140D01*
X165479676Y-117424140D01*
X165313288Y-117441628D01*
X165313286Y-117441629D01*
X165306288Y-117442364D01*
X165134579Y-117500818D01*
X165118619Y-117510637D01*
X164986095Y-117592166D01*
X164986092Y-117592168D01*
X164980088Y-117595862D01*
X164975053Y-117600793D01*
X164975050Y-117600795D01*
X164855953Y-117717424D01*
X164850493Y-117722771D01*
X164752235Y-117875238D01*
X164749826Y-117881858D01*
X164749824Y-117881861D01*
X164692606Y-118039066D01*
X164690197Y-118045685D01*
X164667463Y-118225640D01*
X135223488Y-118225640D01*
X134934085Y-117723368D01*
X134932071Y-117719735D01*
X134927631Y-117711401D01*
X134660278Y-117209640D01*
X162254463Y-117209640D01*
X162272163Y-117390160D01*
X162329418Y-117562273D01*
X162333065Y-117568295D01*
X162333066Y-117568297D01*
X162357060Y-117607915D01*
X162423380Y-117717424D01*
X162428269Y-117722487D01*
X162428270Y-117722488D01*
X162429141Y-117723390D01*
X162549382Y-117847902D01*
X162601277Y-117881861D01*
X162674745Y-117929937D01*
X162701159Y-117947222D01*
X162707763Y-117949678D01*
X162707765Y-117949679D01*
X162864558Y-118007990D01*
X162864560Y-118007990D01*
X162871168Y-118010448D01*
X162954995Y-118021633D01*
X163043980Y-118033507D01*
X163043984Y-118033507D01*
X163050961Y-118034438D01*
X163057972Y-118033800D01*
X163057976Y-118033800D01*
X163200459Y-118020832D01*
X163231600Y-118017998D01*
X163238302Y-118015820D01*
X163238304Y-118015820D01*
X163397409Y-117964124D01*
X163397412Y-117964123D01*
X163404108Y-117961947D01*
X163532436Y-117885448D01*
X163553860Y-117872677D01*
X163553862Y-117872676D01*
X163559912Y-117869069D01*
X163691266Y-117743982D01*
X163791643Y-117592902D01*
X163820584Y-117516715D01*
X163863473Y-117460137D01*
X163930142Y-117435728D01*
X163982290Y-117443362D01*
X164141168Y-117502448D01*
X164224995Y-117513633D01*
X164313980Y-117525507D01*
X164313984Y-117525507D01*
X164320961Y-117526438D01*
X164327972Y-117525800D01*
X164327976Y-117525800D01*
X164470459Y-117512832D01*
X164501600Y-117509998D01*
X164508302Y-117507820D01*
X164508304Y-117507820D01*
X164667409Y-117456124D01*
X164667412Y-117456123D01*
X164674108Y-117453947D01*
X164770513Y-117396478D01*
X164823860Y-117364677D01*
X164823862Y-117364676D01*
X164829912Y-117361069D01*
X164961266Y-117235982D01*
X165061643Y-117084902D01*
X165121236Y-116928025D01*
X165123555Y-116921920D01*
X165123556Y-116921918D01*
X165126055Y-116915338D01*
X165151299Y-116735717D01*
X165151616Y-116713000D01*
X165131397Y-116532745D01*
X165129080Y-116526091D01*
X165074064Y-116368106D01*
X165074062Y-116368103D01*
X165071745Y-116361448D01*
X164975626Y-116207624D01*
X164889270Y-116120663D01*
X164852778Y-116083915D01*
X164852774Y-116083912D01*
X164847815Y-116078918D01*
X164836697Y-116071862D01*
X164788538Y-116041300D01*
X164694666Y-115981727D01*
X164665463Y-115971328D01*
X164530425Y-115923243D01*
X164530420Y-115923242D01*
X164523790Y-115920881D01*
X164516802Y-115920048D01*
X164516799Y-115920047D01*
X164389896Y-115904915D01*
X164343680Y-115899404D01*
X164336677Y-115900140D01*
X164336676Y-115900140D01*
X164170288Y-115917628D01*
X164170286Y-115917629D01*
X164163288Y-115918364D01*
X163991579Y-115976818D01*
X163985575Y-115980512D01*
X163843095Y-116068166D01*
X163843092Y-116068168D01*
X163837088Y-116071862D01*
X163832053Y-116076793D01*
X163832050Y-116076795D01*
X163787254Y-116120663D01*
X163707493Y-116198771D01*
X163609235Y-116351238D01*
X163606826Y-116357858D01*
X163606824Y-116357861D01*
X163586194Y-116414542D01*
X163544100Y-116471713D01*
X163477778Y-116497051D01*
X163425576Y-116487172D01*
X163424666Y-116489727D01*
X163260425Y-116431243D01*
X163260420Y-116431242D01*
X163253790Y-116428881D01*
X163246802Y-116428048D01*
X163246799Y-116428047D01*
X163123698Y-116413368D01*
X163073680Y-116407404D01*
X163066677Y-116408140D01*
X163066676Y-116408140D01*
X162900288Y-116425628D01*
X162900286Y-116425629D01*
X162893288Y-116426364D01*
X162721579Y-116484818D01*
X162715575Y-116488512D01*
X162573095Y-116576166D01*
X162573092Y-116576168D01*
X162567088Y-116579862D01*
X162562053Y-116584793D01*
X162562050Y-116584795D01*
X162442525Y-116701843D01*
X162437493Y-116706771D01*
X162339235Y-116859238D01*
X162336826Y-116865858D01*
X162336824Y-116865861D01*
X162314198Y-116928025D01*
X162277197Y-117029685D01*
X162254463Y-117209640D01*
X134660278Y-117209640D01*
X134396206Y-116714036D01*
X134394303Y-116710317D01*
X133892082Y-115687416D01*
X133890303Y-115683636D01*
X133801448Y-115486385D01*
X133422255Y-114644609D01*
X133420613Y-114640796D01*
X133405814Y-114604800D01*
X133146824Y-113974884D01*
X141113275Y-113974884D01*
X141113663Y-113979814D01*
X141113663Y-113979817D01*
X141114220Y-113986892D01*
X141131905Y-114211595D01*
X141133059Y-114216402D01*
X141133060Y-114216408D01*
X141163041Y-114341285D01*
X141187335Y-114442478D01*
X141189228Y-114447049D01*
X141189229Y-114447051D01*
X141271314Y-114645222D01*
X141278200Y-114661847D01*
X141280786Y-114666067D01*
X141399681Y-114860086D01*
X141399685Y-114860092D01*
X141402264Y-114864300D01*
X141556471Y-115044853D01*
X141737024Y-115199060D01*
X141741232Y-115201639D01*
X141741238Y-115201643D01*
X141859841Y-115274323D01*
X141939477Y-115323124D01*
X141944047Y-115325017D01*
X141944051Y-115325019D01*
X142154273Y-115412095D01*
X142158846Y-115413989D01*
X142221626Y-115429061D01*
X142384916Y-115468264D01*
X142384922Y-115468265D01*
X142389729Y-115469419D01*
X142626440Y-115488049D01*
X142863151Y-115469419D01*
X142867958Y-115468265D01*
X142867964Y-115468264D01*
X143031254Y-115429061D01*
X143094034Y-115413989D01*
X143098607Y-115412095D01*
X143308829Y-115325019D01*
X143308833Y-115325017D01*
X143313403Y-115323124D01*
X143393039Y-115274323D01*
X143511642Y-115201643D01*
X143511648Y-115201639D01*
X143515856Y-115199060D01*
X143696409Y-115044853D01*
X143850616Y-114864300D01*
X143853195Y-114860092D01*
X143853199Y-114860086D01*
X143972094Y-114666067D01*
X143974680Y-114661847D01*
X143981567Y-114645222D01*
X144063651Y-114447051D01*
X144063652Y-114447049D01*
X144065545Y-114442478D01*
X144089839Y-114341285D01*
X144119820Y-114216408D01*
X144119821Y-114216402D01*
X144120975Y-114211595D01*
X144139605Y-113974884D01*
X144134313Y-113907640D01*
X153364463Y-113907640D01*
X153382163Y-114088160D01*
X153439418Y-114260273D01*
X153443065Y-114266295D01*
X153443066Y-114266297D01*
X153505877Y-114370010D01*
X153533380Y-114415424D01*
X153538269Y-114420487D01*
X153538270Y-114420488D01*
X153560664Y-114443677D01*
X153659382Y-114545902D01*
X153811159Y-114645222D01*
X153817763Y-114647678D01*
X153817765Y-114647679D01*
X153974558Y-114705990D01*
X153974560Y-114705990D01*
X153981168Y-114708448D01*
X154064995Y-114719633D01*
X154153980Y-114731507D01*
X154153984Y-114731507D01*
X154160961Y-114732438D01*
X154167972Y-114731800D01*
X154167976Y-114731800D01*
X154310459Y-114718832D01*
X154341600Y-114715998D01*
X154348302Y-114713820D01*
X154348304Y-114713820D01*
X154507409Y-114662124D01*
X154507412Y-114662123D01*
X154514108Y-114659947D01*
X154633126Y-114588998D01*
X154663860Y-114570677D01*
X154663862Y-114570676D01*
X154669912Y-114567069D01*
X154801266Y-114441982D01*
X154901643Y-114290902D01*
X154959233Y-114139297D01*
X154963555Y-114127920D01*
X154963556Y-114127918D01*
X154966055Y-114121338D01*
X154968062Y-114107058D01*
X154990748Y-113945639D01*
X154990748Y-113945636D01*
X154991299Y-113941717D01*
X154991616Y-113919000D01*
X154976096Y-113780640D01*
X164667463Y-113780640D01*
X164685163Y-113961160D01*
X164742418Y-114133273D01*
X164746065Y-114139295D01*
X164746066Y-114139297D01*
X164822980Y-114266297D01*
X164836380Y-114288424D01*
X164841269Y-114293487D01*
X164841270Y-114293488D01*
X164856357Y-114309111D01*
X164962382Y-114418902D01*
X165114159Y-114518222D01*
X165120763Y-114520678D01*
X165120765Y-114520679D01*
X165277558Y-114578990D01*
X165277560Y-114578990D01*
X165284168Y-114581448D01*
X165367995Y-114592633D01*
X165456980Y-114604507D01*
X165456984Y-114604507D01*
X165463961Y-114605438D01*
X165470972Y-114604800D01*
X165470976Y-114604800D01*
X165613459Y-114591832D01*
X165644600Y-114588998D01*
X165651302Y-114586820D01*
X165651304Y-114586820D01*
X165810409Y-114535124D01*
X165810412Y-114535123D01*
X165817108Y-114532947D01*
X165972912Y-114440069D01*
X166104266Y-114314982D01*
X166204643Y-114163902D01*
X166269055Y-113994338D01*
X166269405Y-113991849D01*
X189533889Y-113991849D01*
X189552519Y-114228560D01*
X189553673Y-114233367D01*
X189553674Y-114233373D01*
X189579582Y-114341285D01*
X189607949Y-114459443D01*
X189609842Y-114464014D01*
X189609843Y-114464016D01*
X189693535Y-114666067D01*
X189698814Y-114678812D01*
X189822878Y-114881266D01*
X189977085Y-115061819D01*
X190157638Y-115216026D01*
X190360092Y-115340090D01*
X190364662Y-115341983D01*
X190364666Y-115341985D01*
X190574888Y-115429061D01*
X190579461Y-115430955D01*
X190659664Y-115450210D01*
X190805531Y-115485230D01*
X190805537Y-115485231D01*
X190810344Y-115486385D01*
X191047055Y-115505015D01*
X191283766Y-115486385D01*
X191288573Y-115485231D01*
X191288579Y-115485230D01*
X191434446Y-115450210D01*
X191514649Y-115430955D01*
X191519222Y-115429061D01*
X191729444Y-115341985D01*
X191729448Y-115341983D01*
X191734018Y-115340090D01*
X191936472Y-115216026D01*
X192117025Y-115061819D01*
X192271232Y-114881266D01*
X192395296Y-114678812D01*
X192400576Y-114666067D01*
X192484267Y-114464016D01*
X192484268Y-114464014D01*
X192486161Y-114459443D01*
X192514528Y-114341285D01*
X192540436Y-114233373D01*
X192540437Y-114233367D01*
X192541591Y-114228560D01*
X192560221Y-113991849D01*
X192541591Y-113755138D01*
X192537656Y-113738745D01*
X192496531Y-113567448D01*
X192486161Y-113524255D01*
X192460556Y-113462438D01*
X192397191Y-113309460D01*
X192397189Y-113309456D01*
X192395296Y-113304886D01*
X192271232Y-113102432D01*
X192117025Y-112921879D01*
X191936472Y-112767672D01*
X191734018Y-112643608D01*
X191729448Y-112641715D01*
X191729444Y-112641713D01*
X191519222Y-112554637D01*
X191519220Y-112554636D01*
X191514649Y-112552743D01*
X191434446Y-112533488D01*
X191288579Y-112498468D01*
X191288573Y-112498467D01*
X191283766Y-112497313D01*
X191047055Y-112478683D01*
X190810344Y-112497313D01*
X190805537Y-112498467D01*
X190805531Y-112498468D01*
X190659664Y-112533488D01*
X190579461Y-112552743D01*
X190574890Y-112554636D01*
X190574888Y-112554637D01*
X190364666Y-112641713D01*
X190364662Y-112641715D01*
X190360092Y-112643608D01*
X190157638Y-112767672D01*
X189977085Y-112921879D01*
X189822878Y-113102432D01*
X189698814Y-113304886D01*
X189696921Y-113309456D01*
X189696919Y-113309460D01*
X189633554Y-113462438D01*
X189607949Y-113524255D01*
X189597579Y-113567448D01*
X189556455Y-113738745D01*
X189552519Y-113755138D01*
X189534362Y-113985844D01*
X189533889Y-113991849D01*
X166269405Y-113991849D01*
X166270098Y-113986919D01*
X166293748Y-113818639D01*
X166293748Y-113818636D01*
X166294299Y-113814717D01*
X166294616Y-113792000D01*
X166274397Y-113611745D01*
X166271877Y-113604508D01*
X166217064Y-113447106D01*
X166217062Y-113447103D01*
X166214745Y-113440448D01*
X166118626Y-113286624D01*
X166098541Y-113266398D01*
X165995778Y-113162915D01*
X165995774Y-113162912D01*
X165990815Y-113157918D01*
X165979697Y-113150862D01*
X165931538Y-113120300D01*
X165837666Y-113060727D01*
X165808463Y-113050328D01*
X165673425Y-113002243D01*
X165673420Y-113002242D01*
X165666790Y-112999881D01*
X165659802Y-112999048D01*
X165659799Y-112999047D01*
X165530171Y-112983590D01*
X165486680Y-112978404D01*
X165479677Y-112979140D01*
X165479676Y-112979140D01*
X165313288Y-112996628D01*
X165313286Y-112996629D01*
X165306288Y-112997364D01*
X165134579Y-113055818D01*
X165128575Y-113059512D01*
X164986095Y-113147166D01*
X164986092Y-113147168D01*
X164980088Y-113150862D01*
X164975053Y-113155793D01*
X164975050Y-113155795D01*
X164857577Y-113270834D01*
X164850493Y-113277771D01*
X164752235Y-113430238D01*
X164749826Y-113436858D01*
X164749824Y-113436861D01*
X164695936Y-113584916D01*
X164690197Y-113600685D01*
X164667463Y-113780640D01*
X154976096Y-113780640D01*
X154971397Y-113738745D01*
X154967546Y-113727685D01*
X154927826Y-113613626D01*
X154924312Y-113542717D01*
X154959694Y-113481164D01*
X155022736Y-113448512D01*
X155063480Y-113447296D01*
X155108809Y-113453344D01*
X155169980Y-113461507D01*
X155169984Y-113461507D01*
X155176961Y-113462438D01*
X155183972Y-113461800D01*
X155183976Y-113461800D01*
X155329977Y-113448512D01*
X155357600Y-113445998D01*
X155364302Y-113443820D01*
X155364304Y-113443820D01*
X155523409Y-113392124D01*
X155523412Y-113392123D01*
X155530108Y-113389947D01*
X155685912Y-113297069D01*
X155817266Y-113171982D01*
X155917643Y-113020902D01*
X155982055Y-112851338D01*
X155983035Y-112844366D01*
X156006748Y-112675639D01*
X156006748Y-112675636D01*
X156007299Y-112671717D01*
X156007616Y-112649000D01*
X156006342Y-112637640D01*
X158063463Y-112637640D01*
X158081163Y-112818160D01*
X158138418Y-112990273D01*
X158142065Y-112996295D01*
X158142066Y-112996297D01*
X158218980Y-113123297D01*
X158232380Y-113145424D01*
X158358382Y-113275902D01*
X158396242Y-113300677D01*
X158467869Y-113347548D01*
X158510159Y-113375222D01*
X158516763Y-113377678D01*
X158516765Y-113377679D01*
X158673558Y-113435990D01*
X158673560Y-113435990D01*
X158680168Y-113438448D01*
X158755593Y-113448512D01*
X158852980Y-113461507D01*
X158852984Y-113461507D01*
X158859961Y-113462438D01*
X158866972Y-113461800D01*
X158866976Y-113461800D01*
X159012977Y-113448512D01*
X159040600Y-113445998D01*
X159047302Y-113443820D01*
X159047304Y-113443820D01*
X159206409Y-113392124D01*
X159206412Y-113392123D01*
X159213108Y-113389947D01*
X159368912Y-113297069D01*
X159500266Y-113171982D01*
X159600643Y-113020902D01*
X159665055Y-112851338D01*
X159666035Y-112844366D01*
X159689748Y-112675639D01*
X159689748Y-112675636D01*
X159690299Y-112671717D01*
X159690616Y-112649000D01*
X159670397Y-112468745D01*
X159667950Y-112461719D01*
X159613064Y-112304106D01*
X159613062Y-112304103D01*
X159610745Y-112297448D01*
X159514626Y-112143624D01*
X159500941Y-112129843D01*
X159391778Y-112019915D01*
X159391774Y-112019912D01*
X159386815Y-112014918D01*
X159375697Y-112007862D01*
X159305380Y-111963238D01*
X159233666Y-111917727D01*
X159204463Y-111907328D01*
X159069425Y-111859243D01*
X159069420Y-111859242D01*
X159062790Y-111856881D01*
X159055802Y-111856048D01*
X159055799Y-111856047D01*
X158932698Y-111841368D01*
X158882680Y-111835404D01*
X158875677Y-111836140D01*
X158875676Y-111836140D01*
X158709288Y-111853628D01*
X158709286Y-111853629D01*
X158702288Y-111854364D01*
X158530579Y-111912818D01*
X158524575Y-111916512D01*
X158382095Y-112004166D01*
X158382092Y-112004168D01*
X158376088Y-112007862D01*
X158371055Y-112012791D01*
X158371050Y-112012795D01*
X158327120Y-112055815D01*
X158246493Y-112134771D01*
X158148235Y-112287238D01*
X158145826Y-112293858D01*
X158145824Y-112293861D01*
X158099600Y-112420861D01*
X158086197Y-112457685D01*
X158063463Y-112637640D01*
X156006342Y-112637640D01*
X155987397Y-112468745D01*
X155984950Y-112461719D01*
X155930064Y-112304106D01*
X155930062Y-112304103D01*
X155927745Y-112297448D01*
X155831626Y-112143624D01*
X155817941Y-112129843D01*
X155708778Y-112019915D01*
X155708774Y-112019912D01*
X155703815Y-112014918D01*
X155692697Y-112007862D01*
X155622380Y-111963238D01*
X155550666Y-111917727D01*
X155521463Y-111907328D01*
X155386425Y-111859243D01*
X155386420Y-111859242D01*
X155379790Y-111856881D01*
X155372802Y-111856048D01*
X155372799Y-111856047D01*
X155249698Y-111841368D01*
X155199680Y-111835404D01*
X155192677Y-111836140D01*
X155192676Y-111836140D01*
X155026288Y-111853628D01*
X155026286Y-111853629D01*
X155019288Y-111854364D01*
X154847579Y-111912818D01*
X154841575Y-111916512D01*
X154699095Y-112004166D01*
X154699092Y-112004168D01*
X154693088Y-112007862D01*
X154678197Y-112022445D01*
X154615535Y-112055815D01*
X154544776Y-112050010D01*
X154539090Y-112047534D01*
X154534666Y-112044727D01*
X154514502Y-112037547D01*
X154370425Y-111986243D01*
X154370420Y-111986242D01*
X154363790Y-111983881D01*
X154356802Y-111983048D01*
X154356799Y-111983047D01*
X154233698Y-111968368D01*
X154183680Y-111962404D01*
X154176677Y-111963140D01*
X154176676Y-111963140D01*
X154010288Y-111980628D01*
X154010286Y-111980629D01*
X154003288Y-111981364D01*
X153831579Y-112039818D01*
X153769109Y-112078250D01*
X153683095Y-112131166D01*
X153683092Y-112131168D01*
X153677088Y-112134862D01*
X153672053Y-112139793D01*
X153672050Y-112139795D01*
X153662040Y-112149598D01*
X153547493Y-112261771D01*
X153449235Y-112414238D01*
X153446826Y-112420858D01*
X153446824Y-112420861D01*
X153389606Y-112578066D01*
X153387197Y-112584685D01*
X153364463Y-112764640D01*
X153382163Y-112945160D01*
X153439418Y-113117273D01*
X153443065Y-113123295D01*
X153443066Y-113123297D01*
X153529730Y-113266398D01*
X153529733Y-113266401D01*
X153533380Y-113272424D01*
X153534496Y-113273579D01*
X153559433Y-113337749D01*
X153545291Y-113407322D01*
X153539809Y-113416694D01*
X153449235Y-113557238D01*
X153446826Y-113563858D01*
X153446824Y-113563861D01*
X153393605Y-113710078D01*
X153387197Y-113727685D01*
X153364463Y-113907640D01*
X144134313Y-113907640D01*
X144120975Y-113738173D01*
X144118458Y-113727685D01*
X144066700Y-113512102D01*
X144065545Y-113507290D01*
X144057526Y-113487931D01*
X143976575Y-113292495D01*
X143976573Y-113292491D01*
X143974680Y-113287921D01*
X143906610Y-113176841D01*
X143853199Y-113089682D01*
X143853195Y-113089676D01*
X143850616Y-113085468D01*
X143696409Y-112904915D01*
X143515856Y-112750708D01*
X143511648Y-112748129D01*
X143511642Y-112748125D01*
X143317623Y-112629230D01*
X143313403Y-112626644D01*
X143308833Y-112624751D01*
X143308829Y-112624749D01*
X143098607Y-112537673D01*
X143098605Y-112537672D01*
X143094034Y-112535779D01*
X143000265Y-112513267D01*
X142867964Y-112481504D01*
X142867958Y-112481503D01*
X142863151Y-112480349D01*
X142626440Y-112461719D01*
X142389729Y-112480349D01*
X142384922Y-112481503D01*
X142384916Y-112481504D01*
X142252615Y-112513267D01*
X142158846Y-112535779D01*
X142154275Y-112537672D01*
X142154273Y-112537673D01*
X141944051Y-112624749D01*
X141944047Y-112624751D01*
X141939477Y-112626644D01*
X141935257Y-112629230D01*
X141741238Y-112748125D01*
X141741232Y-112748129D01*
X141737024Y-112750708D01*
X141556471Y-112904915D01*
X141402264Y-113085468D01*
X141399685Y-113089676D01*
X141399681Y-113089682D01*
X141346270Y-113176841D01*
X141278200Y-113287921D01*
X141276307Y-113292491D01*
X141276305Y-113292495D01*
X141195354Y-113487931D01*
X141187335Y-113507290D01*
X141186180Y-113512102D01*
X141134423Y-113727685D01*
X141131905Y-113738173D01*
X141113748Y-113968879D01*
X141113275Y-113974884D01*
X133146824Y-113974884D01*
X132987269Y-113586815D01*
X132985753Y-113582946D01*
X132978637Y-113563861D01*
X132712944Y-112851338D01*
X132587616Y-112515237D01*
X132586221Y-112511299D01*
X132365775Y-111854364D01*
X132223677Y-111430906D01*
X132222421Y-111426944D01*
X131895921Y-110335198D01*
X131894790Y-110331176D01*
X131773530Y-109870600D01*
X131604640Y-109229114D01*
X131603660Y-109225118D01*
X131350224Y-108114107D01*
X131349363Y-108110024D01*
X131344777Y-108086318D01*
X131218920Y-107435811D01*
X131132897Y-106991188D01*
X131132172Y-106987073D01*
X131118414Y-106900695D01*
X134273251Y-106900695D01*
X134273548Y-106905848D01*
X134273548Y-106905851D01*
X134279011Y-107000590D01*
X134286110Y-107123715D01*
X134287247Y-107128761D01*
X134287248Y-107128767D01*
X134295778Y-107166615D01*
X134335222Y-107341639D01*
X134419266Y-107548616D01*
X134535987Y-107739088D01*
X134682250Y-107907938D01*
X134686230Y-107911242D01*
X134690981Y-107915187D01*
X134730616Y-107974090D01*
X134732113Y-108045071D01*
X134694997Y-108105593D01*
X134654724Y-108130112D01*
X134539295Y-108173385D01*
X134422739Y-108260739D01*
X134335385Y-108377295D01*
X134284255Y-108513684D01*
X134277500Y-108575866D01*
X134277500Y-110372134D01*
X134284255Y-110434316D01*
X134335385Y-110570705D01*
X134422739Y-110687261D01*
X134539295Y-110774615D01*
X134675684Y-110825745D01*
X134737866Y-110832500D01*
X136534134Y-110832500D01*
X136596316Y-110825745D01*
X136732705Y-110774615D01*
X136849261Y-110687261D01*
X136936615Y-110570705D01*
X136987745Y-110434316D01*
X136994500Y-110372134D01*
X136994500Y-108575866D01*
X136987745Y-108513684D01*
X136936615Y-108377295D01*
X136849261Y-108260739D01*
X136732705Y-108173385D01*
X136720132Y-108168672D01*
X136614203Y-108128960D01*
X136557439Y-108086318D01*
X136532739Y-108019756D01*
X136547947Y-107950408D01*
X136569493Y-107921727D01*
X136670435Y-107821137D01*
X136674096Y-107817489D01*
X136733594Y-107734689D01*
X136801435Y-107640277D01*
X136804453Y-107636077D01*
X136903430Y-107435811D01*
X136968370Y-107222069D01*
X136997529Y-107000590D01*
X136997759Y-106991188D01*
X136999074Y-106937365D01*
X136999074Y-106937361D01*
X136999156Y-106934000D01*
X136980852Y-106711361D01*
X136926431Y-106494702D01*
X136837354Y-106289840D01*
X136769556Y-106185040D01*
X158546063Y-106185040D01*
X158563763Y-106365560D01*
X158621018Y-106537673D01*
X158624665Y-106543695D01*
X158624666Y-106543697D01*
X158709459Y-106683707D01*
X158714980Y-106692824D01*
X158840982Y-106823302D01*
X158992759Y-106922622D01*
X158999363Y-106925078D01*
X158999365Y-106925079D01*
X159156158Y-106983390D01*
X159156160Y-106983390D01*
X159162768Y-106985848D01*
X159246595Y-106997033D01*
X159335580Y-107008907D01*
X159335584Y-107008907D01*
X159342561Y-107009838D01*
X159349572Y-107009200D01*
X159349576Y-107009200D01*
X159492059Y-106996232D01*
X159523200Y-106993398D01*
X159529902Y-106991220D01*
X159529904Y-106991220D01*
X159689009Y-106939524D01*
X159689012Y-106939523D01*
X159695708Y-106937347D01*
X159851512Y-106844469D01*
X159982866Y-106719382D01*
X160083243Y-106568302D01*
X160147655Y-106398738D01*
X160148635Y-106391766D01*
X160172348Y-106223039D01*
X160172348Y-106223036D01*
X160172899Y-106219117D01*
X160173216Y-106196400D01*
X160152997Y-106016145D01*
X160150680Y-106009491D01*
X160095664Y-105851506D01*
X160095662Y-105851503D01*
X160093345Y-105844848D01*
X159997226Y-105691024D01*
X159981211Y-105674897D01*
X159874378Y-105567315D01*
X159874374Y-105567312D01*
X159869415Y-105562318D01*
X159858297Y-105555262D01*
X159792083Y-105513242D01*
X159716266Y-105465127D01*
X159640565Y-105438171D01*
X159552025Y-105406643D01*
X159552020Y-105406642D01*
X159545390Y-105404281D01*
X159538402Y-105403448D01*
X159538399Y-105403447D01*
X159415298Y-105388768D01*
X159365280Y-105382804D01*
X159358277Y-105383540D01*
X159358276Y-105383540D01*
X159191888Y-105401028D01*
X159191886Y-105401029D01*
X159184888Y-105401764D01*
X159013179Y-105460218D01*
X159007175Y-105463912D01*
X158864695Y-105551566D01*
X158864692Y-105551568D01*
X158858688Y-105555262D01*
X158853653Y-105560193D01*
X158853650Y-105560195D01*
X158736521Y-105674897D01*
X158729093Y-105682171D01*
X158630835Y-105834638D01*
X158628426Y-105841258D01*
X158628424Y-105841261D01*
X158594725Y-105933848D01*
X158568797Y-106005085D01*
X158546063Y-106185040D01*
X136769556Y-106185040D01*
X136716014Y-106102277D01*
X136565670Y-105937051D01*
X136561619Y-105933852D01*
X136561615Y-105933848D01*
X136394414Y-105801800D01*
X136394410Y-105801798D01*
X136390359Y-105798598D01*
X136349053Y-105775796D01*
X136299084Y-105725364D01*
X136284312Y-105655921D01*
X136309428Y-105589516D01*
X136336780Y-105562909D01*
X136391561Y-105523834D01*
X136515860Y-105435173D01*
X136567576Y-105383638D01*
X136670435Y-105281137D01*
X136674096Y-105277489D01*
X136681408Y-105267314D01*
X136801435Y-105100277D01*
X136804453Y-105096077D01*
X136813465Y-105077844D01*
X136901136Y-104900453D01*
X136901137Y-104900451D01*
X136903430Y-104895811D01*
X136905001Y-104890640D01*
X163778463Y-104890640D01*
X163796163Y-105071160D01*
X163853418Y-105243273D01*
X163857065Y-105249295D01*
X163857066Y-105249297D01*
X163867978Y-105267314D01*
X163947380Y-105398424D01*
X163952269Y-105403487D01*
X163952270Y-105403488D01*
X163953036Y-105404281D01*
X164073382Y-105528902D01*
X164225159Y-105628222D01*
X164231763Y-105630678D01*
X164231765Y-105630679D01*
X164388558Y-105688990D01*
X164388560Y-105688990D01*
X164395168Y-105691448D01*
X164478995Y-105702633D01*
X164567980Y-105714507D01*
X164567984Y-105714507D01*
X164574961Y-105715438D01*
X164581972Y-105714800D01*
X164581976Y-105714800D01*
X164724459Y-105701832D01*
X164755600Y-105698998D01*
X164762302Y-105696820D01*
X164762304Y-105696820D01*
X164921409Y-105645124D01*
X164921412Y-105645123D01*
X164928108Y-105642947D01*
X165083912Y-105550069D01*
X165215266Y-105424982D01*
X165315643Y-105273902D01*
X165380055Y-105104338D01*
X165383253Y-105081584D01*
X165404748Y-104928639D01*
X165404748Y-104928636D01*
X165405299Y-104924717D01*
X165405616Y-104902000D01*
X165385397Y-104721745D01*
X165383080Y-104715091D01*
X165328064Y-104557106D01*
X165328062Y-104557103D01*
X165325745Y-104550448D01*
X165229626Y-104396624D01*
X165188850Y-104355562D01*
X165106778Y-104272915D01*
X165106774Y-104272912D01*
X165101815Y-104267918D01*
X165090697Y-104260862D01*
X164957797Y-104176522D01*
X164948666Y-104170727D01*
X164872785Y-104143707D01*
X164784425Y-104112243D01*
X164784420Y-104112242D01*
X164777790Y-104109881D01*
X164770802Y-104109048D01*
X164770799Y-104109047D01*
X164647698Y-104094368D01*
X164597680Y-104088404D01*
X164590677Y-104089140D01*
X164590676Y-104089140D01*
X164424288Y-104106628D01*
X164424286Y-104106629D01*
X164417288Y-104107364D01*
X164245579Y-104165818D01*
X164239575Y-104169512D01*
X164097095Y-104257166D01*
X164097092Y-104257168D01*
X164091088Y-104260862D01*
X164086053Y-104265793D01*
X164086050Y-104265795D01*
X163989142Y-104360695D01*
X163961493Y-104387771D01*
X163863235Y-104540238D01*
X163860826Y-104546858D01*
X163860824Y-104546861D01*
X163811612Y-104682069D01*
X163801197Y-104710685D01*
X163778463Y-104890640D01*
X136905001Y-104890640D01*
X136955379Y-104724828D01*
X136966865Y-104687023D01*
X136966865Y-104687021D01*
X136968370Y-104682069D01*
X136997529Y-104460590D01*
X136999156Y-104394000D01*
X136980852Y-104171361D01*
X136926431Y-103954702D01*
X136837354Y-103749840D01*
X136732655Y-103588000D01*
X136718822Y-103566617D01*
X136718820Y-103566614D01*
X136716014Y-103562277D01*
X136565670Y-103397051D01*
X136561619Y-103393852D01*
X136561615Y-103393848D01*
X136394414Y-103261800D01*
X136394410Y-103261798D01*
X136390359Y-103258598D01*
X136349053Y-103235796D01*
X136299084Y-103185364D01*
X136284312Y-103115921D01*
X136309428Y-103049516D01*
X136336780Y-103022909D01*
X136380603Y-102991650D01*
X136515860Y-102895173D01*
X136674096Y-102737489D01*
X136733594Y-102654689D01*
X136801435Y-102560277D01*
X136804453Y-102556077D01*
X136903430Y-102355811D01*
X136968370Y-102142069D01*
X136997529Y-101920590D01*
X136999156Y-101854000D01*
X136980852Y-101631361D01*
X136926431Y-101414702D01*
X136837354Y-101209840D01*
X136716014Y-101022277D01*
X136565670Y-100857051D01*
X136561619Y-100853852D01*
X136561615Y-100853848D01*
X136394414Y-100721800D01*
X136394410Y-100721798D01*
X136390359Y-100718598D01*
X136349053Y-100695796D01*
X136299084Y-100645364D01*
X136284312Y-100575921D01*
X136309428Y-100509516D01*
X136336780Y-100482909D01*
X136380603Y-100451650D01*
X136515860Y-100355173D01*
X136674096Y-100197489D01*
X136733594Y-100114689D01*
X136801435Y-100020277D01*
X136804453Y-100016077D01*
X136903430Y-99815811D01*
X136968370Y-99602069D01*
X136997529Y-99380590D01*
X136999156Y-99314000D01*
X136980852Y-99091361D01*
X136926431Y-98874702D01*
X136837354Y-98669840D01*
X136716014Y-98482277D01*
X136565670Y-98317051D01*
X136561619Y-98313852D01*
X136561615Y-98313848D01*
X136394414Y-98181800D01*
X136394410Y-98181798D01*
X136390359Y-98178598D01*
X136349053Y-98155796D01*
X136299084Y-98105364D01*
X136284312Y-98035921D01*
X136309428Y-97969516D01*
X136336780Y-97942909D01*
X136380603Y-97911650D01*
X136515860Y-97815173D01*
X136674096Y-97657489D01*
X136682064Y-97646401D01*
X136801435Y-97480277D01*
X136804453Y-97476077D01*
X136820255Y-97444105D01*
X136901136Y-97280453D01*
X136901137Y-97280451D01*
X136903430Y-97275811D01*
X136968370Y-97062069D01*
X136997529Y-96840590D01*
X136998346Y-96807149D01*
X136999074Y-96777365D01*
X136999074Y-96777361D01*
X136999156Y-96774000D01*
X136980852Y-96551361D01*
X136926431Y-96334702D01*
X136837354Y-96129840D01*
X136765678Y-96019046D01*
X136718822Y-95946617D01*
X136718820Y-95946614D01*
X136716014Y-95942277D01*
X136565670Y-95777051D01*
X136561619Y-95773852D01*
X136561615Y-95773848D01*
X136394414Y-95641800D01*
X136394410Y-95641798D01*
X136390359Y-95638598D01*
X136194789Y-95530638D01*
X136189920Y-95528914D01*
X136189916Y-95528912D01*
X135989087Y-95457795D01*
X135989083Y-95457794D01*
X135984212Y-95456069D01*
X135979119Y-95455162D01*
X135979116Y-95455161D01*
X135769373Y-95417800D01*
X135769367Y-95417799D01*
X135764284Y-95416894D01*
X135690452Y-95415992D01*
X135546081Y-95414228D01*
X135546079Y-95414228D01*
X135540911Y-95414165D01*
X135320091Y-95447955D01*
X135107756Y-95517357D01*
X134909607Y-95620507D01*
X134905474Y-95623610D01*
X134905471Y-95623612D01*
X134741613Y-95746640D01*
X134730965Y-95754635D01*
X134688551Y-95799019D01*
X134588461Y-95903757D01*
X134576629Y-95916138D01*
X134450743Y-96100680D01*
X134430758Y-96143735D01*
X134372360Y-96269543D01*
X134356688Y-96303305D01*
X134296989Y-96518570D01*
X134273251Y-96740695D01*
X134273548Y-96745848D01*
X134273548Y-96745851D01*
X134278990Y-96840225D01*
X134286110Y-96963715D01*
X134287247Y-96968761D01*
X134287248Y-96968767D01*
X134293525Y-96996619D01*
X134335222Y-97181639D01*
X134419266Y-97388616D01*
X134443586Y-97428303D01*
X134532919Y-97574081D01*
X134535987Y-97579088D01*
X134682250Y-97747938D01*
X134854126Y-97890632D01*
X134915675Y-97926598D01*
X134927445Y-97933476D01*
X134976169Y-97985114D01*
X134989240Y-98054897D01*
X134962509Y-98120669D01*
X134922055Y-98154027D01*
X134909607Y-98160507D01*
X134905474Y-98163610D01*
X134905471Y-98163612D01*
X134881247Y-98181800D01*
X134730965Y-98294635D01*
X134576629Y-98456138D01*
X134450743Y-98640680D01*
X134356688Y-98843305D01*
X134296989Y-99058570D01*
X134273251Y-99280695D01*
X134273548Y-99285848D01*
X134273548Y-99285851D01*
X134279011Y-99380590D01*
X134286110Y-99503715D01*
X134287247Y-99508761D01*
X134287248Y-99508767D01*
X134307119Y-99596939D01*
X134335222Y-99721639D01*
X134419266Y-99928616D01*
X134535987Y-100119088D01*
X134682250Y-100287938D01*
X134854126Y-100430632D01*
X134924595Y-100471811D01*
X134927445Y-100473476D01*
X134976169Y-100525114D01*
X134989240Y-100594897D01*
X134962509Y-100660669D01*
X134922055Y-100694027D01*
X134909607Y-100700507D01*
X134905474Y-100703610D01*
X134905471Y-100703612D01*
X134881247Y-100721800D01*
X134730965Y-100834635D01*
X134576629Y-100996138D01*
X134450743Y-101180680D01*
X134356688Y-101383305D01*
X134296989Y-101598570D01*
X134273251Y-101820695D01*
X134273548Y-101825848D01*
X134273548Y-101825851D01*
X134279011Y-101920590D01*
X134286110Y-102043715D01*
X134287247Y-102048761D01*
X134287248Y-102048767D01*
X134307119Y-102136939D01*
X134335222Y-102261639D01*
X134373461Y-102355811D01*
X134410168Y-102446209D01*
X134419266Y-102468616D01*
X134535987Y-102659088D01*
X134682250Y-102827938D01*
X134854126Y-102970632D01*
X134924595Y-103011811D01*
X134927445Y-103013476D01*
X134976169Y-103065114D01*
X134989240Y-103134897D01*
X134962509Y-103200669D01*
X134922055Y-103234027D01*
X134909607Y-103240507D01*
X134905474Y-103243610D01*
X134905471Y-103243612D01*
X134881247Y-103261800D01*
X134730965Y-103374635D01*
X134576629Y-103536138D01*
X134450743Y-103720680D01*
X134435003Y-103754590D01*
X134363009Y-103909688D01*
X134356688Y-103923305D01*
X134296989Y-104138570D01*
X134273251Y-104360695D01*
X134273548Y-104365848D01*
X134273548Y-104365851D01*
X134279011Y-104460590D01*
X134286110Y-104583715D01*
X134287247Y-104588761D01*
X134287248Y-104588767D01*
X134307119Y-104676939D01*
X134335222Y-104801639D01*
X134419266Y-105008616D01*
X134535987Y-105199088D01*
X134682250Y-105367938D01*
X134854126Y-105510632D01*
X134891994Y-105532760D01*
X134927445Y-105553476D01*
X134976169Y-105605114D01*
X134989240Y-105674897D01*
X134962509Y-105740669D01*
X134922055Y-105774027D01*
X134909607Y-105780507D01*
X134905474Y-105783610D01*
X134905471Y-105783612D01*
X134735100Y-105911530D01*
X134730965Y-105914635D01*
X134576629Y-106076138D01*
X134450743Y-106260680D01*
X134435003Y-106294590D01*
X134383604Y-106405320D01*
X134356688Y-106463305D01*
X134296989Y-106678570D01*
X134273251Y-106900695D01*
X131118414Y-106900695D01*
X131017220Y-106265375D01*
X130952926Y-105861717D01*
X130952340Y-105857601D01*
X130951576Y-105851506D01*
X130810501Y-104726891D01*
X130810050Y-104722739D01*
X130797740Y-104588767D01*
X130705781Y-103587986D01*
X130705468Y-103583834D01*
X130702458Y-103532401D01*
X130638877Y-102446199D01*
X130638702Y-102442034D01*
X130636520Y-102355811D01*
X130628747Y-102048767D01*
X130609866Y-101302834D01*
X130609830Y-101298656D01*
X130618780Y-100159157D01*
X130618882Y-100154981D01*
X130665607Y-99016403D01*
X130665847Y-99012231D01*
X130750299Y-97875788D01*
X130750678Y-97871627D01*
X130872761Y-96738628D01*
X130873278Y-96734482D01*
X130890848Y-96610252D01*
X131032857Y-95606168D01*
X131033506Y-95602066D01*
X131039713Y-95566685D01*
X131230414Y-94479618D01*
X131231199Y-94475541D01*
X131232278Y-94470401D01*
X131465215Y-93360236D01*
X131466135Y-93356187D01*
X131468231Y-93347624D01*
X131649005Y-92608861D01*
X131736985Y-92249317D01*
X131738045Y-92245275D01*
X132020647Y-91236507D01*
X132045458Y-91147942D01*
X132046650Y-91143946D01*
X132390265Y-90057446D01*
X132391584Y-90053502D01*
X132423069Y-89964345D01*
X132771054Y-88978931D01*
X132772505Y-88975032D01*
X133187363Y-87913717D01*
X133188948Y-87909851D01*
X133638787Y-86862821D01*
X133640500Y-86859010D01*
X133767355Y-86588818D01*
X134124799Y-85827487D01*
X134126631Y-85823747D01*
X134644878Y-84808821D01*
X134646831Y-84805149D01*
X135198421Y-83808004D01*
X135200492Y-83804401D01*
X135214904Y-83780273D01*
X135784875Y-82826032D01*
X135787043Y-82822536D01*
X136403529Y-81864100D01*
X136405839Y-81860636D01*
X136455407Y-81788918D01*
X137053747Y-80923193D01*
X137056179Y-80919796D01*
X137734813Y-80004346D01*
X137737357Y-80001031D01*
X138445968Y-79108588D01*
X138448620Y-79105360D01*
X138591929Y-78936675D01*
X138804260Y-78686745D01*
X139186425Y-78236907D01*
X139189183Y-78233768D01*
X139620295Y-77759151D01*
X139955379Y-77390252D01*
X139958228Y-77387218D01*
X139981530Y-77363215D01*
X140717816Y-76604752D01*
X140751971Y-76569568D01*
X140754930Y-76566619D01*
X141575346Y-75775736D01*
X141578402Y-75772886D01*
X142424594Y-75009632D01*
X142427742Y-75006886D01*
X142659524Y-74811362D01*
X143159562Y-74389544D01*
X143298761Y-74272120D01*
X143301999Y-74269479D01*
X144196914Y-73563985D01*
X144200238Y-73561453D01*
X145118037Y-72886029D01*
X145121442Y-72883609D01*
X146061156Y-72238968D01*
X146064640Y-72236662D01*
X146130700Y-72194496D01*
X147025218Y-71623527D01*
X147028677Y-71621399D01*
X148009115Y-71040414D01*
X148012695Y-71038372D01*
X148205572Y-70932556D01*
X149011823Y-70490232D01*
X149015491Y-70488298D01*
X150032221Y-69973597D01*
X150035924Y-69971800D01*
X151017686Y-69515039D01*
X151087887Y-69504439D01*
X151152674Y-69533475D01*
X151191478Y-69592929D01*
X151191980Y-69663924D01*
X151173158Y-69702806D01*
X151087011Y-69822692D01*
X151076002Y-69835988D01*
X144685458Y-76557078D01*
X144634750Y-76589534D01*
X144570654Y-76611354D01*
X144563983Y-76613625D01*
X144504356Y-76650308D01*
X144415499Y-76704973D01*
X144415496Y-76704975D01*
X144409492Y-76708669D01*
X144404457Y-76713600D01*
X144404454Y-76713602D01*
X144307508Y-76808539D01*
X144279897Y-76835578D01*
X144248715Y-76883963D01*
X144212451Y-76940234D01*
X144158737Y-76986659D01*
X144088450Y-76996674D01*
X144027588Y-76970176D01*
X144024783Y-76967920D01*
X144019815Y-76962918D01*
X144008697Y-76955862D01*
X143895401Y-76883963D01*
X143866666Y-76865727D01*
X143837463Y-76855328D01*
X143702425Y-76807243D01*
X143702420Y-76807242D01*
X143695790Y-76804881D01*
X143688802Y-76804048D01*
X143688799Y-76804047D01*
X143565698Y-76789368D01*
X143515680Y-76783404D01*
X143508677Y-76784140D01*
X143508676Y-76784140D01*
X143342288Y-76801628D01*
X143342286Y-76801629D01*
X143335288Y-76802364D01*
X143167947Y-76859331D01*
X143097016Y-76862349D01*
X143085088Y-76858756D01*
X142980455Y-76821498D01*
X142940424Y-76807243D01*
X142940422Y-76807243D01*
X142933790Y-76804881D01*
X142926802Y-76804048D01*
X142926799Y-76804047D01*
X142803698Y-76789368D01*
X142753680Y-76783404D01*
X142746677Y-76784140D01*
X142746676Y-76784140D01*
X142580288Y-76801628D01*
X142580286Y-76801629D01*
X142573288Y-76802364D01*
X142405947Y-76859331D01*
X142335016Y-76862349D01*
X142323088Y-76858756D01*
X142218455Y-76821498D01*
X142178424Y-76807243D01*
X142178422Y-76807243D01*
X142171790Y-76804881D01*
X142164802Y-76804048D01*
X142164799Y-76804047D01*
X142041698Y-76789368D01*
X141991680Y-76783404D01*
X141984677Y-76784140D01*
X141984676Y-76784140D01*
X141818288Y-76801628D01*
X141818286Y-76801629D01*
X141811288Y-76802364D01*
X141639579Y-76860818D01*
X141633575Y-76864512D01*
X141491095Y-76952166D01*
X141491092Y-76952168D01*
X141485088Y-76955862D01*
X141480053Y-76960793D01*
X141480050Y-76960795D01*
X141429606Y-77010194D01*
X141355493Y-77082771D01*
X141257235Y-77235238D01*
X141195197Y-77405685D01*
X141172463Y-77585640D01*
X141190163Y-77766160D01*
X141230267Y-77886715D01*
X141247418Y-77938273D01*
X141245156Y-77939026D01*
X141253928Y-77998178D01*
X141247533Y-78023893D01*
X141209744Y-78127717D01*
X141195197Y-78167685D01*
X141172463Y-78347640D01*
X141190163Y-78528160D01*
X141224875Y-78632506D01*
X141247418Y-78700273D01*
X141245156Y-78701026D01*
X141253928Y-78760178D01*
X141247533Y-78785893D01*
X141209744Y-78889717D01*
X141195197Y-78929685D01*
X141172463Y-79109640D01*
X141190163Y-79290160D01*
X141224875Y-79394506D01*
X141247418Y-79462273D01*
X141245156Y-79463026D01*
X141253928Y-79522178D01*
X141247533Y-79547893D01*
X141209744Y-79651717D01*
X141195197Y-79691685D01*
X141172463Y-79871640D01*
X141190163Y-80052160D01*
X141224875Y-80156506D01*
X141247418Y-80224273D01*
X141245156Y-80225026D01*
X141253928Y-80284178D01*
X141247533Y-80309893D01*
X141209744Y-80413717D01*
X141195197Y-80453685D01*
X141172463Y-80633640D01*
X141190163Y-80814160D01*
X141247418Y-80986273D01*
X141251065Y-80992295D01*
X141251066Y-80992297D01*
X141336960Y-81134125D01*
X141341380Y-81141424D01*
X141346269Y-81146487D01*
X141346270Y-81146488D01*
X141378575Y-81179940D01*
X141467382Y-81271902D01*
X141473278Y-81275760D01*
X141602785Y-81360507D01*
X141619159Y-81371222D01*
X141625763Y-81373678D01*
X141625765Y-81373679D01*
X141782558Y-81431990D01*
X141782560Y-81431990D01*
X141789168Y-81434448D01*
X141872995Y-81445633D01*
X141961980Y-81457507D01*
X141961984Y-81457507D01*
X141968961Y-81458438D01*
X141975972Y-81457800D01*
X141975976Y-81457800D01*
X142118459Y-81444832D01*
X142149600Y-81441998D01*
X142156302Y-81439820D01*
X142156304Y-81439820D01*
X142247686Y-81410128D01*
X142322108Y-81385947D01*
X142322219Y-81386288D01*
X142388503Y-81376927D01*
X142414174Y-81383500D01*
X142551168Y-81434448D01*
X142553601Y-81434773D01*
X142613292Y-81469745D01*
X142645421Y-81533056D01*
X142638221Y-81603687D01*
X142593978Y-81659212D01*
X142562152Y-81675389D01*
X142535252Y-81684546D01*
X142535249Y-81684547D01*
X142528579Y-81686818D01*
X142522575Y-81690512D01*
X142380095Y-81778166D01*
X142380092Y-81778168D01*
X142374088Y-81781862D01*
X142369053Y-81786793D01*
X142369050Y-81786795D01*
X142273118Y-81880739D01*
X142244493Y-81908771D01*
X142146235Y-82061238D01*
X142143826Y-82067858D01*
X142143824Y-82067861D01*
X142091578Y-82211405D01*
X142084197Y-82231685D01*
X142061463Y-82411640D01*
X142079163Y-82592160D01*
X142136418Y-82764273D01*
X142140065Y-82770295D01*
X142140066Y-82770297D01*
X142173837Y-82826059D01*
X142230380Y-82919424D01*
X142235269Y-82924487D01*
X142235270Y-82924488D01*
X142239267Y-82928627D01*
X142356382Y-83049902D01*
X142408277Y-83083861D01*
X142489826Y-83137225D01*
X142508159Y-83149222D01*
X142514763Y-83151678D01*
X142514765Y-83151679D01*
X142671558Y-83209990D01*
X142671560Y-83209990D01*
X142678168Y-83212448D01*
X142685153Y-83213380D01*
X142685157Y-83213381D01*
X142755695Y-83222793D01*
X142799101Y-83228584D01*
X142863977Y-83257420D01*
X142871531Y-83264382D01*
X143637695Y-84030546D01*
X143671721Y-84092858D01*
X143674600Y-84119641D01*
X143674600Y-84280436D01*
X143654598Y-84348557D01*
X143600942Y-84395050D01*
X143533684Y-84405550D01*
X143522678Y-84404238D01*
X143522674Y-84404238D01*
X143515680Y-84403404D01*
X143508677Y-84404140D01*
X143508676Y-84404140D01*
X143342288Y-84421628D01*
X143342286Y-84421629D01*
X143335288Y-84422364D01*
X143163579Y-84480818D01*
X143157575Y-84484512D01*
X143015090Y-84572169D01*
X143015087Y-84572171D01*
X143009088Y-84575862D01*
X143004058Y-84580787D01*
X143004055Y-84580790D01*
X143002279Y-84582530D01*
X143000865Y-84583283D01*
X142998502Y-84585129D01*
X142998178Y-84584714D01*
X142939614Y-84615902D01*
X142897673Y-84617430D01*
X142883188Y-84615523D01*
X142875000Y-84614445D01*
X142835845Y-84619600D01*
X142719047Y-84634977D01*
X142573723Y-84695172D01*
X142448929Y-84790929D01*
X142443901Y-84797482D01*
X142429910Y-84815715D01*
X142419043Y-84828106D01*
X142105110Y-85142039D01*
X142092719Y-85152907D01*
X142067929Y-85171929D01*
X142024410Y-85228645D01*
X141972172Y-85296723D01*
X141911977Y-85442047D01*
X141891445Y-85598000D01*
X141892523Y-85606188D01*
X141892523Y-85606189D01*
X141895522Y-85628969D01*
X141896600Y-85645415D01*
X141896600Y-90757586D01*
X141895522Y-90774033D01*
X141891445Y-90805000D01*
X141896600Y-90844155D01*
X141911977Y-90960953D01*
X141972172Y-91106277D01*
X141977199Y-91112828D01*
X142058529Y-91218820D01*
X142067929Y-91231071D01*
X142076227Y-91237438D01*
X142092715Y-91250090D01*
X142105106Y-91260957D01*
X146046613Y-95202464D01*
X146080639Y-95264776D01*
X146075574Y-95335591D01*
X146056570Y-95368737D01*
X146054493Y-95370771D01*
X145956235Y-95523238D01*
X145953826Y-95529858D01*
X145953824Y-95529861D01*
X145898355Y-95682261D01*
X145894197Y-95693685D01*
X145871463Y-95873640D01*
X145889163Y-96054160D01*
X145946418Y-96226273D01*
X145950065Y-96232295D01*
X145950066Y-96232297D01*
X145968523Y-96262773D01*
X146015124Y-96339720D01*
X146015856Y-96340929D01*
X146034035Y-96409558D01*
X146012225Y-96477122D01*
X145957349Y-96522168D01*
X145908080Y-96532200D01*
X144337157Y-96532200D01*
X144269036Y-96512198D01*
X144258207Y-96504398D01*
X144253377Y-96500514D01*
X144248415Y-96495518D01*
X144237297Y-96488462D01*
X144161156Y-96440142D01*
X144095266Y-96398327D01*
X144047797Y-96381424D01*
X143931025Y-96339843D01*
X143931020Y-96339842D01*
X143924390Y-96337481D01*
X143917402Y-96336648D01*
X143917399Y-96336647D01*
X143794298Y-96321968D01*
X143744280Y-96316004D01*
X143737277Y-96316740D01*
X143737276Y-96316740D01*
X143570888Y-96334228D01*
X143570886Y-96334229D01*
X143563888Y-96334964D01*
X143392179Y-96393418D01*
X143368506Y-96407982D01*
X143243695Y-96484766D01*
X143243692Y-96484768D01*
X143237688Y-96488462D01*
X143232653Y-96493393D01*
X143232650Y-96493395D01*
X143113320Y-96610252D01*
X143108093Y-96615371D01*
X143009835Y-96767838D01*
X143007426Y-96774458D01*
X143007424Y-96774461D01*
X142950206Y-96931666D01*
X142947797Y-96938285D01*
X142925063Y-97118240D01*
X142942763Y-97298760D01*
X143000018Y-97470873D01*
X143003665Y-97476895D01*
X143003666Y-97476897D01*
X143065555Y-97579088D01*
X143093980Y-97626024D01*
X143098869Y-97631087D01*
X143098870Y-97631088D01*
X143127888Y-97661137D01*
X143219982Y-97756502D01*
X143371759Y-97855822D01*
X143378363Y-97858278D01*
X143378365Y-97858279D01*
X143535158Y-97916590D01*
X143535160Y-97916590D01*
X143541768Y-97919048D01*
X143625595Y-97930233D01*
X143714580Y-97942107D01*
X143714584Y-97942107D01*
X143721561Y-97943038D01*
X143728572Y-97942400D01*
X143728576Y-97942400D01*
X143871059Y-97929432D01*
X143902200Y-97926598D01*
X143908902Y-97924420D01*
X143908904Y-97924420D01*
X144068009Y-97872724D01*
X144068012Y-97872723D01*
X144074708Y-97870547D01*
X144230512Y-97777669D01*
X144235610Y-97772814D01*
X144235613Y-97772812D01*
X144247223Y-97761755D01*
X144310347Y-97729262D01*
X144334116Y-97727000D01*
X160277386Y-97727000D01*
X160293833Y-97728078D01*
X160324800Y-97732155D01*
X160363955Y-97727000D01*
X160480753Y-97711623D01*
X160626077Y-97651428D01*
X160726086Y-97574689D01*
X160744320Y-97560698D01*
X160744321Y-97560697D01*
X160750871Y-97555671D01*
X160769890Y-97530885D01*
X160780757Y-97518494D01*
X161679306Y-96619945D01*
X191067768Y-96619945D01*
X191085468Y-96800465D01*
X191142723Y-96972578D01*
X191146370Y-96978600D01*
X191146371Y-96978602D01*
X191226703Y-97111246D01*
X191236685Y-97127729D01*
X191362687Y-97258207D01*
X191514464Y-97357527D01*
X191521068Y-97359983D01*
X191521070Y-97359984D01*
X191677863Y-97418295D01*
X191677865Y-97418295D01*
X191684473Y-97420753D01*
X191768300Y-97431938D01*
X191857285Y-97443812D01*
X191857289Y-97443812D01*
X191864266Y-97444743D01*
X191871277Y-97444105D01*
X191871281Y-97444105D01*
X192013764Y-97431137D01*
X192044905Y-97428303D01*
X192051607Y-97426125D01*
X192051609Y-97426125D01*
X192210714Y-97374429D01*
X192210717Y-97374428D01*
X192217413Y-97372252D01*
X192340697Y-97298760D01*
X192367165Y-97282982D01*
X192367167Y-97282981D01*
X192373217Y-97279374D01*
X192504571Y-97154287D01*
X192604948Y-97003207D01*
X192669360Y-96833643D01*
X192670340Y-96826671D01*
X192694053Y-96657944D01*
X192694053Y-96657941D01*
X192694604Y-96654022D01*
X192694921Y-96631305D01*
X192674702Y-96451050D01*
X192672385Y-96444396D01*
X192617369Y-96286411D01*
X192617367Y-96286408D01*
X192615050Y-96279753D01*
X192595459Y-96248401D01*
X192522664Y-96131903D01*
X192518931Y-96125929D01*
X192498520Y-96105375D01*
X192396083Y-96002220D01*
X192396079Y-96002217D01*
X192391120Y-95997223D01*
X192380002Y-95990167D01*
X192311377Y-95946617D01*
X192237971Y-95900032D01*
X192184697Y-95881062D01*
X192073730Y-95841548D01*
X192073725Y-95841547D01*
X192067095Y-95839186D01*
X192060107Y-95838353D01*
X192060104Y-95838352D01*
X191930014Y-95822840D01*
X191886985Y-95817709D01*
X191879982Y-95818445D01*
X191879981Y-95818445D01*
X191713593Y-95835933D01*
X191713591Y-95835934D01*
X191706593Y-95836669D01*
X191534884Y-95895123D01*
X191528880Y-95898817D01*
X191386400Y-95986471D01*
X191386397Y-95986473D01*
X191380393Y-95990167D01*
X191375358Y-95995098D01*
X191375355Y-95995100D01*
X191255830Y-96112148D01*
X191250798Y-96117076D01*
X191180426Y-96226273D01*
X191162284Y-96254424D01*
X191152540Y-96269543D01*
X191150131Y-96276163D01*
X191150129Y-96276166D01*
X191107453Y-96393418D01*
X191090502Y-96439990D01*
X191067768Y-96619945D01*
X161679306Y-96619945D01*
X162552611Y-95746640D01*
X166445463Y-95746640D01*
X166463163Y-95927160D01*
X166520418Y-96099273D01*
X166524065Y-96105295D01*
X166524066Y-96105297D01*
X166600980Y-96232297D01*
X166614380Y-96254424D01*
X166619269Y-96259487D01*
X166619270Y-96259488D01*
X166674558Y-96316740D01*
X166740382Y-96384902D01*
X166778242Y-96409677D01*
X166862892Y-96465070D01*
X166892159Y-96484222D01*
X166898763Y-96486678D01*
X166898765Y-96486679D01*
X167055558Y-96544990D01*
X167055560Y-96544990D01*
X167062168Y-96547448D01*
X167145995Y-96558633D01*
X167234980Y-96570507D01*
X167234984Y-96570507D01*
X167241961Y-96571438D01*
X167248972Y-96570800D01*
X167248976Y-96570800D01*
X167391459Y-96557832D01*
X167422600Y-96554998D01*
X167429302Y-96552820D01*
X167429304Y-96552820D01*
X167588409Y-96501124D01*
X167588412Y-96501123D01*
X167595108Y-96498947D01*
X167750912Y-96406069D01*
X167882266Y-96280982D01*
X167982643Y-96129902D01*
X168047055Y-95960338D01*
X168048035Y-95953366D01*
X168071748Y-95784639D01*
X168071748Y-95784636D01*
X168072299Y-95780717D01*
X168072616Y-95758000D01*
X168052397Y-95577745D01*
X168050080Y-95571091D01*
X167995064Y-95413106D01*
X167995062Y-95413103D01*
X167992745Y-95406448D01*
X167896626Y-95252624D01*
X167868835Y-95224638D01*
X167773778Y-95128915D01*
X167773774Y-95128912D01*
X167768815Y-95123918D01*
X167757697Y-95116862D01*
X167709538Y-95086300D01*
X167615666Y-95026727D01*
X167552369Y-95004188D01*
X167451425Y-94968243D01*
X167451420Y-94968242D01*
X167444790Y-94965881D01*
X167437802Y-94965048D01*
X167437799Y-94965047D01*
X167314698Y-94950368D01*
X167264680Y-94944404D01*
X167257677Y-94945140D01*
X167257676Y-94945140D01*
X167091288Y-94962628D01*
X167091286Y-94962629D01*
X167084288Y-94963364D01*
X166912579Y-95021818D01*
X166875803Y-95044443D01*
X166764095Y-95113166D01*
X166764092Y-95113168D01*
X166758088Y-95116862D01*
X166753053Y-95121793D01*
X166753050Y-95121795D01*
X166648131Y-95224540D01*
X166628493Y-95243771D01*
X166530235Y-95396238D01*
X166527826Y-95402858D01*
X166527824Y-95402861D01*
X166480294Y-95533448D01*
X166468197Y-95566685D01*
X166445463Y-95746640D01*
X162552611Y-95746640D01*
X164330611Y-93968640D01*
X171906463Y-93968640D01*
X171924163Y-94149160D01*
X171981418Y-94321273D01*
X171985065Y-94327295D01*
X171985066Y-94327297D01*
X171995978Y-94345314D01*
X172075380Y-94476424D01*
X172080269Y-94481487D01*
X172080270Y-94481488D01*
X172142457Y-94545884D01*
X172201382Y-94606902D01*
X172207278Y-94610760D01*
X172347247Y-94702353D01*
X172353159Y-94706222D01*
X172359763Y-94708678D01*
X172359765Y-94708679D01*
X172516558Y-94766990D01*
X172516560Y-94766990D01*
X172523168Y-94769448D01*
X172606995Y-94780633D01*
X172695980Y-94792507D01*
X172695984Y-94792507D01*
X172702961Y-94793438D01*
X172709972Y-94792800D01*
X172709976Y-94792800D01*
X172852459Y-94779832D01*
X172883600Y-94776998D01*
X172890302Y-94774820D01*
X172890304Y-94774820D01*
X173049409Y-94723124D01*
X173049412Y-94723123D01*
X173056108Y-94720947D01*
X173211912Y-94628069D01*
X173343266Y-94502982D01*
X173443643Y-94351902D01*
X173508055Y-94182338D01*
X173509035Y-94175366D01*
X173532748Y-94006639D01*
X173532748Y-94006636D01*
X173533299Y-94002717D01*
X173533616Y-93980000D01*
X173513397Y-93799745D01*
X173511080Y-93793091D01*
X173456064Y-93635106D01*
X173456062Y-93635103D01*
X173453745Y-93628448D01*
X173357626Y-93474624D01*
X173257134Y-93373428D01*
X173234778Y-93350915D01*
X173234774Y-93350912D01*
X173229815Y-93345918D01*
X173218697Y-93338862D01*
X173170538Y-93308300D01*
X173076666Y-93248727D01*
X173006986Y-93223915D01*
X172912425Y-93190243D01*
X172912420Y-93190242D01*
X172905790Y-93187881D01*
X172898802Y-93187048D01*
X172898799Y-93187047D01*
X172775698Y-93172368D01*
X172725680Y-93166404D01*
X172718677Y-93167140D01*
X172718676Y-93167140D01*
X172552288Y-93184628D01*
X172552286Y-93184629D01*
X172545288Y-93185364D01*
X172373579Y-93243818D01*
X172367575Y-93247512D01*
X172225095Y-93335166D01*
X172225092Y-93335168D01*
X172219088Y-93338862D01*
X172214053Y-93343793D01*
X172214050Y-93343795D01*
X172197236Y-93360261D01*
X172089493Y-93465771D01*
X171991235Y-93618238D01*
X171988826Y-93624858D01*
X171988824Y-93624861D01*
X171949630Y-93732546D01*
X171929197Y-93788685D01*
X171906463Y-93968640D01*
X164330611Y-93968640D01*
X164777690Y-93521561D01*
X164790081Y-93510693D01*
X164808325Y-93496694D01*
X164808326Y-93496693D01*
X164814871Y-93491671D01*
X164910628Y-93366877D01*
X164970823Y-93221553D01*
X164986200Y-93104755D01*
X164991355Y-93065600D01*
X164987278Y-93034631D01*
X164986200Y-93018185D01*
X164986200Y-91070721D01*
X165006202Y-91002600D01*
X165059858Y-90956107D01*
X165100780Y-90945240D01*
X165140800Y-90941598D01*
X165147502Y-90939420D01*
X165147504Y-90939420D01*
X165306609Y-90887724D01*
X165306612Y-90887723D01*
X165313308Y-90885547D01*
X165448427Y-90805000D01*
X165463060Y-90796277D01*
X165463062Y-90796276D01*
X165469112Y-90792669D01*
X165600466Y-90667582D01*
X165700843Y-90516502D01*
X165740297Y-90412640D01*
X190575463Y-90412640D01*
X190593163Y-90593160D01*
X190650418Y-90765273D01*
X190654065Y-90771295D01*
X190654066Y-90771297D01*
X190707711Y-90859875D01*
X190744380Y-90920424D01*
X190749269Y-90925487D01*
X190749270Y-90925488D01*
X190778415Y-90955668D01*
X190870382Y-91050902D01*
X190876278Y-91054760D01*
X191015628Y-91145948D01*
X191022159Y-91150222D01*
X191028763Y-91152678D01*
X191028765Y-91152679D01*
X191185558Y-91210990D01*
X191185560Y-91210990D01*
X191192168Y-91213448D01*
X191275147Y-91224520D01*
X191364980Y-91236507D01*
X191364984Y-91236507D01*
X191371961Y-91237438D01*
X191378972Y-91236800D01*
X191378976Y-91236800D01*
X191521459Y-91223832D01*
X191552600Y-91220998D01*
X191559302Y-91218820D01*
X191559304Y-91218820D01*
X191718409Y-91167124D01*
X191718412Y-91167123D01*
X191725108Y-91164947D01*
X191880912Y-91072069D01*
X192012266Y-90946982D01*
X192112643Y-90795902D01*
X192165428Y-90656947D01*
X192174555Y-90632920D01*
X192174556Y-90632918D01*
X192177055Y-90626338D01*
X192178718Y-90614505D01*
X192201748Y-90450639D01*
X192201748Y-90450636D01*
X192202299Y-90446717D01*
X192202616Y-90424000D01*
X192182397Y-90243745D01*
X192179465Y-90235326D01*
X192125064Y-90079106D01*
X192125062Y-90079103D01*
X192122745Y-90072448D01*
X192026626Y-89918624D01*
X192012941Y-89904843D01*
X191903778Y-89794915D01*
X191903774Y-89794912D01*
X191898815Y-89789918D01*
X191887697Y-89782862D01*
X191813452Y-89735745D01*
X191745666Y-89692727D01*
X191716463Y-89682328D01*
X191581425Y-89634243D01*
X191581420Y-89634242D01*
X191574790Y-89631881D01*
X191567802Y-89631048D01*
X191567799Y-89631047D01*
X191444698Y-89616368D01*
X191394680Y-89610404D01*
X191387677Y-89611140D01*
X191387676Y-89611140D01*
X191221288Y-89628628D01*
X191221286Y-89628629D01*
X191214288Y-89629364D01*
X191042579Y-89687818D01*
X191036575Y-89691512D01*
X190894095Y-89779166D01*
X190894092Y-89779168D01*
X190888088Y-89782862D01*
X190883053Y-89787793D01*
X190883050Y-89787795D01*
X190763525Y-89904843D01*
X190758493Y-89909771D01*
X190660235Y-90062238D01*
X190657826Y-90068858D01*
X190657824Y-90068861D01*
X190614860Y-90186904D01*
X190598197Y-90232685D01*
X190575463Y-90412640D01*
X165740297Y-90412640D01*
X165747194Y-90394483D01*
X165762755Y-90353520D01*
X165762756Y-90353518D01*
X165765255Y-90346938D01*
X165767238Y-90332829D01*
X165789948Y-90171239D01*
X165789948Y-90171236D01*
X165790499Y-90167317D01*
X165790816Y-90144600D01*
X165770597Y-89964345D01*
X165768280Y-89957691D01*
X165713264Y-89799706D01*
X165713262Y-89799703D01*
X165710945Y-89793048D01*
X165695589Y-89768473D01*
X165618559Y-89645198D01*
X165614826Y-89639224D01*
X165587035Y-89611238D01*
X165491978Y-89515515D01*
X165491974Y-89515512D01*
X165487015Y-89510518D01*
X165472588Y-89501362D01*
X165377185Y-89440818D01*
X165333866Y-89413327D01*
X165301413Y-89401771D01*
X165169625Y-89354843D01*
X165169620Y-89354842D01*
X165162990Y-89352481D01*
X165156002Y-89351648D01*
X165155999Y-89351647D01*
X165119765Y-89347327D01*
X165097281Y-89344646D01*
X165032008Y-89316719D01*
X164992195Y-89257936D01*
X164986200Y-89219532D01*
X164986200Y-85315214D01*
X164987278Y-85298767D01*
X164990277Y-85275988D01*
X164991355Y-85267800D01*
X164970823Y-85111847D01*
X164910628Y-84966523D01*
X164885633Y-84933949D01*
X164814871Y-84841729D01*
X164790085Y-84822710D01*
X164777694Y-84811843D01*
X164380405Y-84414554D01*
X164346379Y-84352242D01*
X164343500Y-84325459D01*
X164343500Y-82300500D01*
X164363502Y-82232379D01*
X164417158Y-82185886D01*
X164469500Y-82174500D01*
X165101000Y-82174500D01*
X165104346Y-82174140D01*
X165104351Y-82174140D01*
X165206785Y-82163128D01*
X165206792Y-82163127D01*
X165210149Y-82162766D01*
X165213450Y-82162048D01*
X165259210Y-82152094D01*
X165259215Y-82152093D01*
X165262491Y-82151380D01*
X165366657Y-82116710D01*
X165489612Y-82037692D01*
X165543268Y-81991199D01*
X165601845Y-81923598D01*
X165633081Y-81887550D01*
X165633083Y-81887547D01*
X165638982Y-81880739D01*
X165699698Y-81747790D01*
X165715050Y-81695506D01*
X165718431Y-81683992D01*
X165718432Y-81683988D01*
X165719700Y-81679669D01*
X165722642Y-81659212D01*
X165739861Y-81539447D01*
X165739861Y-81539442D01*
X165740500Y-81535000D01*
X165740500Y-77469000D01*
X165734445Y-77412675D01*
X165729128Y-77363215D01*
X165729127Y-77363208D01*
X165728766Y-77359851D01*
X165717380Y-77307509D01*
X165682710Y-77203343D01*
X165627105Y-77116818D01*
X165614113Y-77090138D01*
X165582063Y-76998102D01*
X165582060Y-76998096D01*
X165579745Y-76991448D01*
X165483626Y-76837624D01*
X165478664Y-76832627D01*
X165360778Y-76713915D01*
X165360774Y-76713912D01*
X165355815Y-76708918D01*
X165308870Y-76679126D01*
X165267111Y-76635472D01*
X162605299Y-71998768D01*
X165318043Y-71998768D01*
X165336673Y-72235479D01*
X165337827Y-72240286D01*
X165337828Y-72240292D01*
X165355731Y-72314863D01*
X165392102Y-72466361D01*
X165393995Y-72470932D01*
X165393996Y-72470934D01*
X165412710Y-72516112D01*
X165482968Y-72685730D01*
X165607031Y-72888183D01*
X165761238Y-73068736D01*
X165941791Y-73222943D01*
X166144244Y-73347006D01*
X166148814Y-73348899D01*
X166148818Y-73348901D01*
X166352611Y-73433315D01*
X166363613Y-73437872D01*
X166442270Y-73456756D01*
X166589682Y-73492146D01*
X166589688Y-73492147D01*
X166594495Y-73493301D01*
X166831206Y-73511931D01*
X167067917Y-73493301D01*
X167072724Y-73492147D01*
X167072730Y-73492146D01*
X167220142Y-73456756D01*
X167298799Y-73437872D01*
X167309801Y-73433315D01*
X167513594Y-73348901D01*
X167513598Y-73348899D01*
X167518168Y-73347006D01*
X167720621Y-73222943D01*
X167901174Y-73068736D01*
X168055381Y-72888183D01*
X168179444Y-72685730D01*
X168249703Y-72516112D01*
X168268416Y-72470934D01*
X168268417Y-72470932D01*
X168270310Y-72466361D01*
X168306681Y-72314863D01*
X168324584Y-72240292D01*
X168324585Y-72240286D01*
X168325739Y-72235479D01*
X168344369Y-71998768D01*
X168325739Y-71762057D01*
X168318995Y-71733963D01*
X168271465Y-71535987D01*
X168270310Y-71531175D01*
X168224471Y-71420510D01*
X168181339Y-71316380D01*
X168181337Y-71316376D01*
X168179444Y-71311806D01*
X168055381Y-71109353D01*
X167901174Y-70928800D01*
X167720621Y-70774593D01*
X167518168Y-70650530D01*
X167513598Y-70648637D01*
X167513594Y-70648635D01*
X167303372Y-70561558D01*
X167303370Y-70561557D01*
X167298799Y-70559664D01*
X167220142Y-70540780D01*
X167072730Y-70505390D01*
X167072724Y-70505389D01*
X167067917Y-70504235D01*
X166831206Y-70485605D01*
X166594495Y-70504235D01*
X166589688Y-70505389D01*
X166589682Y-70505390D01*
X166442270Y-70540780D01*
X166363613Y-70559664D01*
X166359042Y-70561557D01*
X166359040Y-70561558D01*
X166148818Y-70648635D01*
X166148814Y-70648637D01*
X166144244Y-70650530D01*
X165941791Y-70774593D01*
X165761238Y-70928800D01*
X165607031Y-71109353D01*
X165482968Y-71311806D01*
X165481075Y-71316376D01*
X165481073Y-71316380D01*
X165437941Y-71420510D01*
X165392102Y-71531175D01*
X165390947Y-71535987D01*
X165343418Y-71733963D01*
X165336673Y-71762057D01*
X165318516Y-71992763D01*
X165318043Y-71998768D01*
X162605299Y-71998768D01*
X161836206Y-70659057D01*
X161821394Y-70618206D01*
X161639254Y-69585239D01*
X161338752Y-67881008D01*
X161331743Y-67856882D01*
X161323507Y-67828532D01*
X161323505Y-67828528D01*
X161321302Y-67820944D01*
X161317287Y-67814142D01*
X161317286Y-67814139D01*
X161251826Y-67703234D01*
X161247265Y-67695506D01*
X161240721Y-67689372D01*
X161240719Y-67689369D01*
X161147548Y-67602029D01*
X161140998Y-67595889D01*
X161132992Y-67591836D01*
X161132989Y-67591834D01*
X161019052Y-67534156D01*
X161019053Y-67534156D01*
X161011044Y-67530102D01*
X160867848Y-67503433D01*
X160859971Y-67503956D01*
X160859969Y-67503956D01*
X160819805Y-67506624D01*
X160805438Y-67507578D01*
X160802082Y-67508170D01*
X160802080Y-67508170D01*
X159695817Y-67703234D01*
X157756209Y-68045239D01*
X157732083Y-68052248D01*
X157703733Y-68060484D01*
X157703729Y-68060486D01*
X157696145Y-68062689D01*
X157689343Y-68066704D01*
X157689340Y-68066705D01*
X157640500Y-68095532D01*
X157570707Y-68136726D01*
X157564573Y-68143270D01*
X157564570Y-68143272D01*
X157477230Y-68236443D01*
X157471090Y-68242993D01*
X157467037Y-68250999D01*
X157467035Y-68251002D01*
X157416829Y-68350178D01*
X157405303Y-68372947D01*
X157378634Y-68516143D01*
X157379076Y-68522791D01*
X157355282Y-68589102D01*
X157298982Y-68632355D01*
X157228235Y-68638303D01*
X157187645Y-68622291D01*
X157119142Y-68580313D01*
X157119138Y-68580311D01*
X157115473Y-68578065D01*
X157111537Y-68576337D01*
X156868642Y-68469713D01*
X156868638Y-68469712D01*
X156864714Y-68467989D01*
X156601335Y-68392964D01*
X156597093Y-68392360D01*
X156597087Y-68392359D01*
X156396603Y-68363826D01*
X156330212Y-68354377D01*
X156186358Y-68353624D01*
X156060646Y-68352966D01*
X156060640Y-68352966D01*
X156056360Y-68352944D01*
X156052116Y-68353503D01*
X156052112Y-68353503D01*
X155933071Y-68369175D01*
X155784847Y-68388689D01*
X155780707Y-68389822D01*
X155780705Y-68389822D01*
X155707777Y-68409773D01*
X155520697Y-68460952D01*
X155516749Y-68462636D01*
X155272744Y-68566713D01*
X155272740Y-68566715D01*
X155268799Y-68568396D01*
X155265124Y-68570596D01*
X155265117Y-68570599D01*
X155254504Y-68576951D01*
X155182277Y-68594610D01*
X155170433Y-68593902D01*
X155170423Y-68593902D01*
X155167380Y-68593720D01*
X155164342Y-68593833D01*
X155164336Y-68593833D01*
X155143467Y-68594610D01*
X155118883Y-68595525D01*
X155115868Y-68595932D01*
X155115865Y-68595932D01*
X155087941Y-68599699D01*
X155020417Y-68608809D01*
X155013381Y-68611569D01*
X155013380Y-68611569D01*
X154960387Y-68632355D01*
X154884352Y-68662179D01*
X154880448Y-68664397D01*
X154880441Y-68664400D01*
X154826526Y-68695027D01*
X154822620Y-68697246D01*
X154707100Y-68786790D01*
X154621490Y-68905251D01*
X154619402Y-68909232D01*
X154619401Y-68909234D01*
X154591654Y-68962145D01*
X154588518Y-68968124D01*
X154587017Y-68972363D01*
X154587015Y-68972369D01*
X154562225Y-69042406D01*
X154539750Y-69105904D01*
X154538867Y-69110319D01*
X154517158Y-69218866D01*
X154495928Y-69267682D01*
X154471771Y-69301300D01*
X154469767Y-69305085D01*
X154357078Y-69517918D01*
X154307525Y-69568761D01*
X154238350Y-69584743D01*
X154171517Y-69560789D01*
X154153427Y-69544733D01*
X154114067Y-69502377D01*
X154110752Y-69499663D01*
X154110748Y-69499660D01*
X153905465Y-69331638D01*
X153902147Y-69328922D01*
X153668646Y-69185833D01*
X153646620Y-69176164D01*
X153421815Y-69077481D01*
X153421811Y-69077480D01*
X153417887Y-69075757D01*
X153154508Y-69000732D01*
X153150266Y-69000128D01*
X153150260Y-69000127D01*
X152957543Y-68972699D01*
X152892920Y-68943298D01*
X152854452Y-68883626D01*
X152854350Y-68812630D01*
X152892649Y-68752849D01*
X152929835Y-68730443D01*
X153110537Y-68660535D01*
X153188219Y-68630482D01*
X153192137Y-68629041D01*
X153242169Y-68611569D01*
X154267974Y-68253342D01*
X154271903Y-68252042D01*
X155359638Y-67912209D01*
X155363601Y-67911043D01*
X156233430Y-67670635D01*
X156462007Y-67607460D01*
X156466052Y-67606414D01*
X157573896Y-67339421D01*
X157577974Y-67338510D01*
X158694024Y-67108403D01*
X158698129Y-67107627D01*
X159821236Y-66914642D01*
X159825365Y-66914003D01*
X160954229Y-66758364D01*
X160958377Y-66757862D01*
X161809367Y-66669170D01*
X162091803Y-66639734D01*
X162095946Y-66639372D01*
X162490026Y-66611469D01*
X163232655Y-66558888D01*
X163236827Y-66558662D01*
X164375562Y-66515912D01*
X164379739Y-66515824D01*
X164708509Y-66514389D01*
X165519300Y-66510851D01*
X165523463Y-66510902D01*
G37*
%TD.AperFunction*%
%TA.AperFunction,Conductor*%
G36*
X147723131Y-90265799D02*
G01*
X147746954Y-90294485D01*
X147814731Y-90406398D01*
X147818380Y-90412424D01*
X147823269Y-90417487D01*
X147823270Y-90417488D01*
X147892532Y-90489210D01*
X147944382Y-90542902D01*
X148019242Y-90591889D01*
X148085123Y-90635000D01*
X148096159Y-90642222D01*
X148102763Y-90644678D01*
X148102765Y-90644679D01*
X148259558Y-90702990D01*
X148259560Y-90702990D01*
X148266168Y-90705448D01*
X148345168Y-90715989D01*
X148438980Y-90728507D01*
X148438984Y-90728507D01*
X148445961Y-90729438D01*
X148452972Y-90728800D01*
X148452976Y-90728800D01*
X148617183Y-90713855D01*
X148626600Y-90712998D01*
X148633302Y-90710820D01*
X148633304Y-90710820D01*
X148792409Y-90659124D01*
X148792412Y-90659123D01*
X148799108Y-90656947D01*
X148895513Y-90599478D01*
X148948860Y-90567677D01*
X148948862Y-90567676D01*
X148954912Y-90564069D01*
X148960011Y-90559213D01*
X148960018Y-90559208D01*
X149033522Y-90489210D01*
X149096646Y-90456717D01*
X149167317Y-90463510D01*
X149209509Y-90491360D01*
X154146254Y-95428105D01*
X154180280Y-95490417D01*
X154175215Y-95561232D01*
X154132668Y-95618068D01*
X154066148Y-95642879D01*
X154057159Y-95643200D01*
X153430939Y-95643200D01*
X153362818Y-95623198D01*
X153324085Y-95583970D01*
X153317652Y-95573675D01*
X153291626Y-95532024D01*
X153282835Y-95523171D01*
X153168778Y-95408315D01*
X153168774Y-95408312D01*
X153163815Y-95403318D01*
X153152697Y-95396262D01*
X153104538Y-95365700D01*
X153010666Y-95306127D01*
X152957465Y-95287183D01*
X152846425Y-95247643D01*
X152846420Y-95247642D01*
X152839790Y-95245281D01*
X152832802Y-95244448D01*
X152832799Y-95244447D01*
X152709698Y-95229768D01*
X152659680Y-95223804D01*
X152652677Y-95224540D01*
X152652676Y-95224540D01*
X152486288Y-95242028D01*
X152486286Y-95242029D01*
X152479288Y-95242764D01*
X152307579Y-95301218D01*
X152285107Y-95315043D01*
X152159095Y-95392566D01*
X152159092Y-95392568D01*
X152153088Y-95396262D01*
X152148053Y-95401193D01*
X152148050Y-95401195D01*
X152056940Y-95490417D01*
X152023493Y-95523171D01*
X151925235Y-95675638D01*
X151922826Y-95682258D01*
X151922824Y-95682261D01*
X151865798Y-95838938D01*
X151863197Y-95846085D01*
X151840463Y-96026040D01*
X151840945Y-96030958D01*
X151820237Y-96097997D01*
X151765937Y-96143735D01*
X151715203Y-96154400D01*
X149908841Y-96154400D01*
X149840720Y-96134398D01*
X149819746Y-96117495D01*
X149532471Y-95830220D01*
X149498445Y-95767908D01*
X149496351Y-95755170D01*
X149495395Y-95746640D01*
X149484997Y-95653945D01*
X149481255Y-95643200D01*
X149427664Y-95489306D01*
X149427662Y-95489303D01*
X149425345Y-95482648D01*
X149382592Y-95414228D01*
X149332959Y-95334798D01*
X149329226Y-95328824D01*
X149315541Y-95315043D01*
X149206378Y-95205115D01*
X149206374Y-95205112D01*
X149201415Y-95200118D01*
X149190297Y-95193062D01*
X149104095Y-95138357D01*
X149048266Y-95102927D01*
X149019063Y-95092528D01*
X148884025Y-95044443D01*
X148884020Y-95044442D01*
X148877390Y-95042081D01*
X148870402Y-95041248D01*
X148870399Y-95041247D01*
X148728795Y-95024362D01*
X148697280Y-95020604D01*
X148690277Y-95021340D01*
X148690276Y-95021340D01*
X148523888Y-95038828D01*
X148523886Y-95038829D01*
X148516888Y-95039564D01*
X148345179Y-95098018D01*
X148294957Y-95128915D01*
X148196695Y-95189366D01*
X148196692Y-95189368D01*
X148190688Y-95193062D01*
X148185653Y-95197993D01*
X148185650Y-95197995D01*
X148075230Y-95306127D01*
X148061093Y-95319971D01*
X147962835Y-95472438D01*
X147960426Y-95479058D01*
X147960424Y-95479061D01*
X147907812Y-95623612D01*
X147900797Y-95642885D01*
X147878063Y-95822840D01*
X147895763Y-96003360D01*
X147953018Y-96175473D01*
X147956665Y-96181495D01*
X147956666Y-96181497D01*
X147997184Y-96248401D01*
X148046980Y-96330624D01*
X148047807Y-96331481D01*
X148072685Y-96395497D01*
X148058542Y-96465070D01*
X148009029Y-96515953D01*
X147947140Y-96532200D01*
X147460724Y-96532200D01*
X147392603Y-96512198D01*
X147346110Y-96458542D01*
X147336006Y-96388268D01*
X147355776Y-96336473D01*
X147359662Y-96330624D01*
X147408643Y-96256902D01*
X147454656Y-96135773D01*
X147470555Y-96093920D01*
X147470556Y-96093918D01*
X147473055Y-96087338D01*
X147474035Y-96080366D01*
X147497748Y-95911639D01*
X147497748Y-95911636D01*
X147498299Y-95907717D01*
X147498475Y-95895123D01*
X147498561Y-95888962D01*
X147498561Y-95888957D01*
X147498616Y-95885000D01*
X147478397Y-95704745D01*
X147476080Y-95698091D01*
X147421064Y-95540106D01*
X147421062Y-95540103D01*
X147418745Y-95533448D01*
X147407686Y-95515750D01*
X147326359Y-95385598D01*
X147322626Y-95379624D01*
X147317664Y-95374627D01*
X147313285Y-95369102D01*
X147314680Y-95367997D01*
X147285188Y-95313544D01*
X147282400Y-95287183D01*
X147282400Y-95043414D01*
X147283478Y-95026967D01*
X147286477Y-95004188D01*
X147287555Y-94996000D01*
X147267023Y-94840047D01*
X147206828Y-94694723D01*
X147185124Y-94666438D01*
X147111071Y-94569929D01*
X147086285Y-94550910D01*
X147073894Y-94540043D01*
X143462051Y-90928200D01*
X143428025Y-90865888D01*
X143433090Y-90795073D01*
X143475637Y-90738237D01*
X143532927Y-90716233D01*
X143532685Y-90715052D01*
X143539579Y-90713637D01*
X143546600Y-90712998D01*
X143553302Y-90710820D01*
X143553304Y-90710820D01*
X143712409Y-90659124D01*
X143712412Y-90659123D01*
X143719108Y-90656947D01*
X143750281Y-90638364D01*
X143760613Y-90632205D01*
X143829368Y-90614505D01*
X143894121Y-90635000D01*
X143899260Y-90638362D01*
X143905159Y-90642222D01*
X143973350Y-90667582D01*
X144068558Y-90702990D01*
X144068560Y-90702990D01*
X144075168Y-90705448D01*
X144154168Y-90715989D01*
X144247980Y-90728507D01*
X144247984Y-90728507D01*
X144254961Y-90729438D01*
X144261972Y-90728800D01*
X144261976Y-90728800D01*
X144426183Y-90713855D01*
X144435600Y-90712998D01*
X144442302Y-90710820D01*
X144442304Y-90710820D01*
X144601409Y-90659124D01*
X144601412Y-90659123D01*
X144608108Y-90656947D01*
X144704513Y-90599478D01*
X144757860Y-90567677D01*
X144757862Y-90567676D01*
X144763912Y-90564069D01*
X144895266Y-90438982D01*
X144907837Y-90420062D01*
X144994230Y-90290029D01*
X145048587Y-90244358D01*
X145119007Y-90235326D01*
X145183131Y-90265799D01*
X145206954Y-90294485D01*
X145274731Y-90406398D01*
X145278380Y-90412424D01*
X145283269Y-90417487D01*
X145283270Y-90417488D01*
X145352532Y-90489210D01*
X145404382Y-90542902D01*
X145479242Y-90591889D01*
X145545123Y-90635000D01*
X145556159Y-90642222D01*
X145562763Y-90644678D01*
X145562765Y-90644679D01*
X145719558Y-90702990D01*
X145719560Y-90702990D01*
X145726168Y-90705448D01*
X145805168Y-90715989D01*
X145898980Y-90728507D01*
X145898984Y-90728507D01*
X145905961Y-90729438D01*
X145912972Y-90728800D01*
X145912976Y-90728800D01*
X146077183Y-90713855D01*
X146086600Y-90712998D01*
X146093302Y-90710820D01*
X146093304Y-90710820D01*
X146252409Y-90659124D01*
X146252412Y-90659123D01*
X146259108Y-90656947D01*
X146290281Y-90638364D01*
X146300613Y-90632205D01*
X146369368Y-90614505D01*
X146434121Y-90635000D01*
X146439260Y-90638362D01*
X146445159Y-90642222D01*
X146513350Y-90667582D01*
X146608558Y-90702990D01*
X146608560Y-90702990D01*
X146615168Y-90705448D01*
X146694168Y-90715989D01*
X146787980Y-90728507D01*
X146787984Y-90728507D01*
X146794961Y-90729438D01*
X146801972Y-90728800D01*
X146801976Y-90728800D01*
X146966183Y-90713855D01*
X146975600Y-90712998D01*
X146982302Y-90710820D01*
X146982304Y-90710820D01*
X147141409Y-90659124D01*
X147141412Y-90659123D01*
X147148108Y-90656947D01*
X147244513Y-90599478D01*
X147297860Y-90567677D01*
X147297862Y-90567676D01*
X147303912Y-90564069D01*
X147435266Y-90438982D01*
X147447837Y-90420062D01*
X147534230Y-90290029D01*
X147588587Y-90244358D01*
X147659007Y-90235326D01*
X147723131Y-90265799D01*
G37*
%TD.AperFunction*%
%TA.AperFunction,Conductor*%
G36*
X159174912Y-90302876D02*
G01*
X159200176Y-90332829D01*
X159244731Y-90406398D01*
X159248380Y-90412424D01*
X159253269Y-90417487D01*
X159253270Y-90417488D01*
X159322532Y-90489210D01*
X159374382Y-90542902D01*
X159449242Y-90591889D01*
X159515123Y-90635000D01*
X159526159Y-90642222D01*
X159532763Y-90644678D01*
X159532765Y-90644679D01*
X159689558Y-90702990D01*
X159689560Y-90702990D01*
X159696168Y-90705448D01*
X159775168Y-90715989D01*
X159868980Y-90728507D01*
X159868984Y-90728507D01*
X159875961Y-90729438D01*
X159882972Y-90728800D01*
X159882976Y-90728800D01*
X160047183Y-90713855D01*
X160056600Y-90712998D01*
X160063302Y-90710820D01*
X160063304Y-90710820D01*
X160222409Y-90659124D01*
X160222412Y-90659123D01*
X160229108Y-90656947D01*
X160260281Y-90638364D01*
X160270613Y-90632205D01*
X160339368Y-90614505D01*
X160404121Y-90635000D01*
X160409260Y-90638362D01*
X160415159Y-90642222D01*
X160483350Y-90667582D01*
X160578558Y-90702990D01*
X160578560Y-90702990D01*
X160585168Y-90705448D01*
X160664168Y-90715989D01*
X160757980Y-90728507D01*
X160757984Y-90728507D01*
X160764961Y-90729438D01*
X160771972Y-90728800D01*
X160771976Y-90728800D01*
X160936183Y-90713855D01*
X160945600Y-90712998D01*
X160952302Y-90710820D01*
X160952304Y-90710820D01*
X161111409Y-90659124D01*
X161111412Y-90659123D01*
X161118108Y-90656947D01*
X161214513Y-90599478D01*
X161267860Y-90567677D01*
X161267862Y-90567676D01*
X161273912Y-90564069D01*
X161405266Y-90438982D01*
X161417837Y-90420062D01*
X161437791Y-90390028D01*
X161492149Y-90344357D01*
X161562568Y-90335325D01*
X161626692Y-90365798D01*
X161650514Y-90394483D01*
X161657730Y-90406398D01*
X161657733Y-90406401D01*
X161661380Y-90412424D01*
X161666269Y-90417487D01*
X161666270Y-90417488D01*
X161735532Y-90489210D01*
X161787382Y-90542902D01*
X161862242Y-90591889D01*
X161928123Y-90635000D01*
X161939159Y-90642222D01*
X161945763Y-90644678D01*
X161945765Y-90644679D01*
X162102558Y-90702990D01*
X162102560Y-90702990D01*
X162109168Y-90705448D01*
X162188168Y-90715989D01*
X162281980Y-90728507D01*
X162281984Y-90728507D01*
X162288961Y-90729438D01*
X162295972Y-90728800D01*
X162295976Y-90728800D01*
X162460183Y-90713855D01*
X162469600Y-90712998D01*
X162476302Y-90710820D01*
X162476304Y-90710820D01*
X162635409Y-90659124D01*
X162635412Y-90659123D01*
X162642108Y-90656947D01*
X162673281Y-90638364D01*
X162683613Y-90632205D01*
X162752368Y-90614505D01*
X162817121Y-90635000D01*
X162822260Y-90638362D01*
X162828159Y-90642222D01*
X162896350Y-90667582D01*
X162991558Y-90702990D01*
X162991560Y-90702990D01*
X162998168Y-90705448D01*
X163045176Y-90711720D01*
X163077165Y-90715989D01*
X163142042Y-90744825D01*
X163181030Y-90804159D01*
X163186500Y-90840882D01*
X163186500Y-92836569D01*
X163166498Y-92904690D01*
X163149595Y-92925664D01*
X161135070Y-94940189D01*
X161072758Y-94974215D01*
X161001943Y-94969150D01*
X160945107Y-94926603D01*
X160929566Y-94899312D01*
X160900588Y-94829353D01*
X160897428Y-94821723D01*
X160874624Y-94792004D01*
X160861438Y-94774820D01*
X160806698Y-94703480D01*
X160806697Y-94703479D01*
X160801671Y-94696929D01*
X160776885Y-94677910D01*
X160764494Y-94667043D01*
X160150461Y-94053010D01*
X160139593Y-94040619D01*
X160125594Y-94022375D01*
X160125593Y-94022374D01*
X160120571Y-94015829D01*
X159995777Y-93920072D01*
X159850453Y-93859877D01*
X159733655Y-93844500D01*
X159694500Y-93839345D01*
X159686312Y-93840423D01*
X159686311Y-93840423D01*
X159663531Y-93843422D01*
X159647085Y-93844500D01*
X159075382Y-93844500D01*
X159007261Y-93824498D01*
X158960768Y-93770842D01*
X158950167Y-93732546D01*
X158944244Y-93679744D01*
X158943459Y-93672745D01*
X158890811Y-93521561D01*
X158886126Y-93508106D01*
X158886124Y-93508103D01*
X158883807Y-93501448D01*
X158803812Y-93373428D01*
X158791421Y-93353598D01*
X158787688Y-93347624D01*
X158775317Y-93335166D01*
X158664840Y-93223915D01*
X158664836Y-93223912D01*
X158659877Y-93218918D01*
X158651126Y-93213364D01*
X158578442Y-93167238D01*
X158506728Y-93121727D01*
X158439671Y-93097849D01*
X158342487Y-93063243D01*
X158342482Y-93063242D01*
X158335852Y-93060881D01*
X158328864Y-93060048D01*
X158328861Y-93060047D01*
X158205760Y-93045368D01*
X158155742Y-93039404D01*
X158148739Y-93040140D01*
X158148738Y-93040140D01*
X157982350Y-93057628D01*
X157982348Y-93057629D01*
X157975350Y-93058364D01*
X157930042Y-93073788D01*
X157911991Y-93079933D01*
X157841059Y-93082951D01*
X157779755Y-93047141D01*
X157747543Y-92983872D01*
X157754651Y-92913232D01*
X157782291Y-92871560D01*
X158757890Y-91895961D01*
X158770281Y-91885093D01*
X158788525Y-91871094D01*
X158788526Y-91871093D01*
X158795071Y-91866071D01*
X158890828Y-91741277D01*
X158951023Y-91595953D01*
X158966400Y-91479155D01*
X158971555Y-91440000D01*
X158967478Y-91409031D01*
X158966400Y-91392585D01*
X158966400Y-90398100D01*
X158986402Y-90329979D01*
X159040058Y-90283486D01*
X159110332Y-90273382D01*
X159174912Y-90302876D01*
G37*
%TD.AperFunction*%
%TA.AperFunction,Conductor*%
G36*
X156830071Y-90422796D02*
G01*
X156873805Y-90452214D01*
X156961382Y-90542902D01*
X157036242Y-90591889D01*
X157102123Y-90635000D01*
X157113159Y-90642222D01*
X157119763Y-90644678D01*
X157119765Y-90644679D01*
X157276558Y-90702990D01*
X157276560Y-90702990D01*
X157283168Y-90705448D01*
X157362168Y-90715989D01*
X157455980Y-90728507D01*
X157455984Y-90728507D01*
X157462961Y-90729438D01*
X157469972Y-90728800D01*
X157469976Y-90728800D01*
X157565194Y-90720134D01*
X157634181Y-90713855D01*
X157703833Y-90727600D01*
X157754998Y-90776821D01*
X157771600Y-90839336D01*
X157771600Y-91140359D01*
X157751598Y-91208480D01*
X157734695Y-91229454D01*
X156840958Y-92123191D01*
X156778646Y-92157217D01*
X156765035Y-92159406D01*
X156731232Y-92162959D01*
X156677289Y-92168628D01*
X156677288Y-92168628D01*
X156670288Y-92169364D01*
X156498579Y-92227818D01*
X156492575Y-92231512D01*
X156350095Y-92319166D01*
X156350092Y-92319168D01*
X156344088Y-92322862D01*
X156339053Y-92327793D01*
X156339050Y-92327795D01*
X156219525Y-92444843D01*
X156214493Y-92449771D01*
X156116235Y-92602238D01*
X156054197Y-92772685D01*
X156053314Y-92779673D01*
X156053314Y-92779674D01*
X156049009Y-92813753D01*
X156020628Y-92878829D01*
X155961568Y-92918231D01*
X155890582Y-92919448D01*
X155834908Y-92887056D01*
X153876051Y-90928200D01*
X153842026Y-90865888D01*
X153847090Y-90795073D01*
X153889637Y-90738237D01*
X153946927Y-90716233D01*
X153946685Y-90715052D01*
X153953579Y-90713637D01*
X153960600Y-90712998D01*
X153967302Y-90710820D01*
X153967304Y-90710820D01*
X154126409Y-90659124D01*
X154126412Y-90659123D01*
X154133108Y-90656947D01*
X154229513Y-90599478D01*
X154282860Y-90567677D01*
X154282862Y-90567676D01*
X154288912Y-90564069D01*
X154294018Y-90559207D01*
X154410276Y-90448496D01*
X154473401Y-90416003D01*
X154544071Y-90422796D01*
X154587805Y-90452214D01*
X154675382Y-90542902D01*
X154750242Y-90591889D01*
X154816123Y-90635000D01*
X154827159Y-90642222D01*
X154833763Y-90644678D01*
X154833765Y-90644679D01*
X154990558Y-90702990D01*
X154990560Y-90702990D01*
X154997168Y-90705448D01*
X155076168Y-90715989D01*
X155169980Y-90728507D01*
X155169984Y-90728507D01*
X155176961Y-90729438D01*
X155183972Y-90728800D01*
X155183976Y-90728800D01*
X155348183Y-90713855D01*
X155357600Y-90712998D01*
X155364302Y-90710820D01*
X155364304Y-90710820D01*
X155523409Y-90659124D01*
X155523412Y-90659123D01*
X155530108Y-90656947D01*
X155561281Y-90638364D01*
X155571613Y-90632205D01*
X155640368Y-90614505D01*
X155705121Y-90635000D01*
X155710260Y-90638362D01*
X155716159Y-90642222D01*
X155784350Y-90667582D01*
X155879558Y-90702990D01*
X155879560Y-90702990D01*
X155886168Y-90705448D01*
X155965168Y-90715989D01*
X156058980Y-90728507D01*
X156058984Y-90728507D01*
X156065961Y-90729438D01*
X156072972Y-90728800D01*
X156072976Y-90728800D01*
X156237183Y-90713855D01*
X156246600Y-90712998D01*
X156253302Y-90710820D01*
X156253304Y-90710820D01*
X156412409Y-90659124D01*
X156412412Y-90659123D01*
X156419108Y-90656947D01*
X156515513Y-90599478D01*
X156568860Y-90567677D01*
X156568862Y-90567676D01*
X156574912Y-90564069D01*
X156580018Y-90559207D01*
X156696276Y-90448496D01*
X156759401Y-90416003D01*
X156830071Y-90422796D01*
G37*
%TD.AperFunction*%
%TA.AperFunction,Conductor*%
G36*
X158120038Y-72225903D02*
G01*
X158152993Y-72275176D01*
X158600468Y-73493301D01*
X159274882Y-75329206D01*
X159282541Y-75348806D01*
X159286500Y-75358355D01*
X159294979Y-75377674D01*
X159374700Y-75500176D01*
X159421499Y-75553565D01*
X159424915Y-75556491D01*
X159424918Y-75556494D01*
X159529080Y-75645714D01*
X159529085Y-75645717D01*
X159532499Y-75648642D01*
X159536300Y-75651054D01*
X159536301Y-75651055D01*
X159584506Y-75681648D01*
X159606394Y-75699246D01*
X159633114Y-75726152D01*
X159650562Y-75748166D01*
X159667790Y-75775736D01*
X159670661Y-75780330D01*
X159682799Y-75805665D01*
X159695269Y-75841476D01*
X159701492Y-75868865D01*
X159705987Y-75908935D01*
X159705546Y-75940516D01*
X159699935Y-75980442D01*
X159692949Y-76007649D01*
X159691951Y-76010277D01*
X159691589Y-76011343D01*
X159691584Y-76011358D01*
X159680446Y-76044192D01*
X159680437Y-76044219D01*
X159680088Y-76045249D01*
X159674890Y-76062599D01*
X159665570Y-76098334D01*
X159654421Y-76244065D01*
X159654719Y-76248544D01*
X159654719Y-76248548D01*
X159656889Y-76281148D01*
X159659135Y-76314905D01*
X159689495Y-76457874D01*
X159969880Y-77221144D01*
X160133772Y-77667296D01*
X160141500Y-77710743D01*
X160141500Y-83300459D01*
X160121498Y-83368580D01*
X160067842Y-83415073D01*
X159997568Y-83425177D01*
X159932988Y-83395683D01*
X159926405Y-83389554D01*
X157685871Y-81149020D01*
X157651845Y-81086708D01*
X157649751Y-81073970D01*
X157639182Y-80979744D01*
X157638397Y-80972745D01*
X157619509Y-80918506D01*
X157612500Y-80877069D01*
X157612500Y-80670575D01*
X157620712Y-80625831D01*
X157630555Y-80599920D01*
X157630556Y-80599918D01*
X157633055Y-80593338D01*
X157658299Y-80413717D01*
X157658616Y-80391000D01*
X157638397Y-80210745D01*
X157619509Y-80156506D01*
X157612500Y-80115069D01*
X157612500Y-79908575D01*
X157620712Y-79863831D01*
X157630555Y-79837920D01*
X157630556Y-79837918D01*
X157633055Y-79831338D01*
X157658299Y-79651717D01*
X157658616Y-79629000D01*
X157638397Y-79448745D01*
X157619509Y-79394506D01*
X157612500Y-79353069D01*
X157612500Y-79146575D01*
X157620712Y-79101831D01*
X157630555Y-79075920D01*
X157630556Y-79075918D01*
X157633055Y-79069338D01*
X157658299Y-78889717D01*
X157658479Y-78876811D01*
X157658561Y-78870962D01*
X157658561Y-78870957D01*
X157658616Y-78867000D01*
X157638397Y-78686745D01*
X157619509Y-78632506D01*
X157612500Y-78591069D01*
X157612500Y-78384575D01*
X157620712Y-78339831D01*
X157630555Y-78313920D01*
X157630556Y-78313918D01*
X157633055Y-78307338D01*
X157634035Y-78300366D01*
X157657748Y-78131639D01*
X157657748Y-78131636D01*
X157658299Y-78127717D01*
X157658616Y-78105000D01*
X157658174Y-78101057D01*
X157655930Y-78081049D01*
X157659062Y-78035851D01*
X157662499Y-78027558D01*
X157678145Y-77882241D01*
X157675622Y-77811289D01*
X157667487Y-77766160D01*
X157650494Y-77671891D01*
X157650493Y-77671887D01*
X157649693Y-77667449D01*
X157648717Y-77664515D01*
X157645639Y-77646979D01*
X157641712Y-77606923D01*
X157642105Y-77578837D01*
X157646859Y-77541206D01*
X157653464Y-77513903D01*
X157683196Y-77432217D01*
X157683199Y-77432207D01*
X157684068Y-77429820D01*
X157706004Y-77350085D01*
X157713557Y-77310351D01*
X157714207Y-77304319D01*
X157721654Y-77235150D01*
X157721654Y-77235147D01*
X157722408Y-77228144D01*
X157705471Y-77082972D01*
X157687292Y-77014343D01*
X157649031Y-76924285D01*
X157631901Y-76883963D01*
X157631899Y-76883960D01*
X157630141Y-76879821D01*
X157624204Y-76870018D01*
X157612423Y-76844522D01*
X157600453Y-76808539D01*
X157594612Y-76781061D01*
X157590912Y-76743320D01*
X157591304Y-76715237D01*
X157591511Y-76713602D01*
X157596058Y-76677604D01*
X157602661Y-76650312D01*
X157637912Y-76553461D01*
X157639147Y-76550363D01*
X157639600Y-76549459D01*
X157640786Y-76546265D01*
X157640789Y-76546257D01*
X157646027Y-76532142D01*
X157646602Y-76530594D01*
X157662722Y-76478981D01*
X157678368Y-76333664D01*
X157675845Y-76262713D01*
X157672484Y-76244065D01*
X157650714Y-76123301D01*
X157649916Y-76118873D01*
X157644954Y-76103955D01*
X157625853Y-76046539D01*
X157620012Y-76019060D01*
X157616312Y-75981319D01*
X157616705Y-75953233D01*
X157621458Y-75915609D01*
X157628062Y-75888308D01*
X157641035Y-75852666D01*
X157653523Y-75827510D01*
X157676204Y-75792317D01*
X157712924Y-75735338D01*
X157713713Y-75735847D01*
X157713883Y-75735583D01*
X157711412Y-75734364D01*
X157752505Y-75651055D01*
X157769659Y-75616279D01*
X157791409Y-75549629D01*
X157816515Y-75405647D01*
X157908777Y-72314862D01*
X157930803Y-72247370D01*
X157985822Y-72202499D01*
X158056366Y-72194496D01*
X158120038Y-72225903D01*
G37*
%TD.AperFunction*%
%TD*%
%TA.AperFunction,Conductor*%
%TO.N,/SH_A*%
G36*
X151937975Y-69781543D02*
G01*
X151983288Y-69808918D01*
X153954226Y-71663918D01*
X153990122Y-71725170D01*
X153987204Y-71796106D01*
X153982661Y-71807620D01*
X153972498Y-71830077D01*
X153969561Y-71835037D01*
X153969094Y-71834823D01*
X153967060Y-71839261D01*
X153967059Y-71839263D01*
X153965292Y-71843120D01*
X153959725Y-71851652D01*
X153958460Y-71853788D01*
X153957474Y-71855101D01*
X153944920Y-71874340D01*
X149715243Y-76632727D01*
X149687091Y-76656335D01*
X149619087Y-76698171D01*
X149619085Y-76698173D01*
X149613088Y-76701862D01*
X149483493Y-76828771D01*
X149385235Y-76981238D01*
X149382826Y-76987858D01*
X149382825Y-76987859D01*
X149379448Y-76997137D01*
X149355221Y-77037751D01*
X148971000Y-77470000D01*
X144526000Y-77470000D01*
X144646754Y-77343000D01*
X144653770Y-77335621D01*
X144653771Y-77335621D01*
X151805619Y-69813849D01*
X151867054Y-69778265D01*
X151937975Y-69781543D01*
G37*
%TD.AperFunction*%
%TD*%
%TA.AperFunction,Conductor*%
%TO.N,/SH_B*%
G36*
X152628600Y-78003400D02*
G01*
X157099000Y-77978702D01*
X157099000Y-81535000D01*
X157078998Y-81603121D01*
X157025342Y-81649614D01*
X156973000Y-81661000D01*
X155702000Y-81661000D01*
X155702000Y-84456000D01*
X155681998Y-84524121D01*
X155628342Y-84570614D01*
X155576000Y-84582000D01*
X152653000Y-84582000D01*
X152584879Y-84561998D01*
X152538386Y-84508342D01*
X152527000Y-84456000D01*
X152527000Y-77469000D01*
X152547002Y-77400879D01*
X152600658Y-77354386D01*
X152653000Y-77343000D01*
X152828562Y-77343000D01*
X152628600Y-78003400D01*
G37*
%TD.AperFunction*%
%TD*%
%TA.AperFunction,Conductor*%
%TO.N,/SH_B*%
G36*
X157370396Y-69451694D02*
G01*
X157434564Y-69482075D01*
X157472120Y-69542326D01*
X157476689Y-69579911D01*
X157303244Y-75390325D01*
X157281494Y-75456975D01*
X157281293Y-75457171D01*
X157183035Y-75609638D01*
X157120997Y-75780085D01*
X157098263Y-75960040D01*
X157115963Y-76140560D01*
X157127000Y-76173738D01*
X157162669Y-76280961D01*
X157165192Y-76351912D01*
X157158190Y-76370777D01*
X157157635Y-76371638D01*
X157095597Y-76542085D01*
X157072863Y-76722040D01*
X157090563Y-76902560D01*
X157147818Y-77074673D01*
X157151465Y-77080695D01*
X157151466Y-77080697D01*
X157190911Y-77145828D01*
X157209090Y-77214457D01*
X157201537Y-77254191D01*
X157146397Y-77405685D01*
X157123663Y-77585640D01*
X157141363Y-77766160D01*
X157152400Y-77799338D01*
X157162446Y-77829537D01*
X157164969Y-77900489D01*
X157128732Y-77961541D01*
X157112415Y-77970890D01*
X157105754Y-77978664D01*
X152628600Y-78003400D01*
X153249424Y-75953046D01*
X154423212Y-72076460D01*
X154435911Y-72048749D01*
X154435737Y-72048655D01*
X154437128Y-72046093D01*
X154530926Y-71873339D01*
X154564360Y-71811762D01*
X154564361Y-71811760D01*
X154566410Y-71807986D01*
X154663211Y-71551809D01*
X154724349Y-71284865D01*
X154748693Y-71012093D01*
X154749135Y-70969932D01*
X154735402Y-70768489D01*
X154737557Y-70735216D01*
X155043278Y-69206610D01*
X155076250Y-69143737D01*
X155137982Y-69108670D01*
X155186479Y-69106865D01*
X157370396Y-69451694D01*
G37*
%TD.AperFunction*%
%TD*%
M02*
