%TF.GenerationSoftware,KiCad,Pcbnew,(6.0.6)*%
%TF.CreationDate,2022-10-06T10:21:30+08:00*%
%TF.ProjectId,rm_foc_driver,726d5f66-6f63-45f6-9472-697665722e6b,rev?*%
%TF.SameCoordinates,Original*%
%TF.FileFunction,Copper,L3,Inr*%
%TF.FilePolarity,Positive*%
%FSLAX46Y46*%
G04 Gerber Fmt 4.6, Leading zero omitted, Abs format (unit mm)*
G04 Created by KiCad (PCBNEW (6.0.6)) date 2022-10-06 10:21:30*
%MOMM*%
%LPD*%
G01*
G04 APERTURE LIST*
G04 Aperture macros list*
%AMHorizOval*
0 Thick line with rounded ends*
0 $1 width*
0 $2 $3 position (X,Y) of the first rounded end (center of the circle)*
0 $4 $5 position (X,Y) of the second rounded end (center of the circle)*
0 Add line between two ends*
20,1,$1,$2,$3,$4,$5,0*
0 Add two circle primitives to create the rounded ends*
1,1,$1,$2,$3*
1,1,$1,$4,$5*%
%AMRotRect*
0 Rectangle, with rotation*
0 The origin of the aperture is its center*
0 $1 length*
0 $2 width*
0 $3 Rotation angle, in degrees counterclockwise*
0 Add horizontal line*
21,1,$1,$2,0,0,$3*%
G04 Aperture macros list end*
%TA.AperFunction,ComponentPad*%
%ADD10RotRect,1.700000X1.700000X232.000000*%
%TD*%
%TA.AperFunction,ComponentPad*%
%ADD11HorizOval,1.700000X0.000000X0.000000X0.000000X0.000000X0*%
%TD*%
%TA.AperFunction,ComponentPad*%
%ADD12R,1.700000X1.700000*%
%TD*%
%TA.AperFunction,ComponentPad*%
%ADD13O,1.700000X1.700000*%
%TD*%
%TA.AperFunction,ComponentPad*%
%ADD14C,1.400000*%
%TD*%
%TA.AperFunction,ComponentPad*%
%ADD15RotRect,3.500000X3.500000X325.000000*%
%TD*%
%TA.AperFunction,ComponentPad*%
%ADD16C,3.500000*%
%TD*%
%TA.AperFunction,ComponentPad*%
%ADD17RotRect,3.000000X3.000000X10.000000*%
%TD*%
%TA.AperFunction,ComponentPad*%
%ADD18C,3.000000*%
%TD*%
%TA.AperFunction,ComponentPad*%
%ADD19C,0.500000*%
%TD*%
%TA.AperFunction,ViaPad*%
%ADD20C,0.500000*%
%TD*%
%TA.AperFunction,Conductor*%
%ADD21C,0.177800*%
%TD*%
G04 APERTURE END LIST*
D10*
%TO.N,/MOSI*%
%TO.C,J4*%
X148590000Y-128651000D03*
D11*
%TO.N,/MISO*%
X146588453Y-127087220D03*
%TO.N,/SCLK*%
X144586905Y-125523440D03*
%TO.N,/CS2*%
X142585358Y-123959660D03*
%TD*%
D12*
%TO.N,+3.3V*%
%TO.C,J1*%
X174869000Y-131769000D03*
D13*
%TO.N,/SWDIO*%
X172329000Y-131769000D03*
%TO.N,/SWCLK*%
X169789000Y-131769000D03*
%TO.N,GND*%
X167249000Y-131769000D03*
%TD*%
D14*
%TO.N,*%
%TO.C,J6*%
X194883220Y-70491209D03*
X185872548Y-64181868D03*
D15*
%TO.N,GND*%
X186690000Y-76962000D03*
D16*
%TO.N,+24V*%
X182594240Y-74094118D03*
%TD*%
D14*
%TO.N,*%
%TO.C,J8*%
X161715778Y-64309412D03*
X148913278Y-66566838D03*
D17*
%TO.N,/SH_C*%
X159629596Y-69754395D03*
D18*
%TO.N,/SH_B*%
X156182769Y-70362164D03*
%TO.N,/SH_A*%
X152735942Y-70969932D03*
%TD*%
D19*
%TO.N,GND*%
%TO.C,U1*%
X182878052Y-95173399D03*
X184369351Y-93043604D03*
X182558804Y-93362852D03*
X183304454Y-92297955D03*
X183623702Y-94108502D03*
X181813155Y-94427750D03*
%TD*%
D12*
%TO.N,+5V*%
%TO.C,J3*%
X163068000Y-131826000D03*
D13*
%TO.N,/TXD*%
X160528000Y-131826000D03*
%TO.N,/RXD*%
X157988000Y-131826000D03*
%TO.N,GND*%
X155448000Y-131826000D03*
%TD*%
D12*
%TO.N,/PWM1*%
%TO.C,J2*%
X137414000Y-101092000D03*
D13*
%TO.N,/PWM2*%
X137414000Y-98552000D03*
%TO.N,/PWM3*%
X137414000Y-96012000D03*
%TO.N,GND*%
X137414000Y-93472000D03*
%TD*%
D20*
%TO.N,*%
X148844000Y-83566000D03*
X149098000Y-84582000D03*
%TO.N,+5V*%
X185420000Y-112268000D03*
X178562000Y-105156000D03*
X178562000Y-104394000D03*
X162814000Y-105664000D03*
%TO.N,GND*%
X196088000Y-109728000D03*
X173482000Y-120904000D03*
X180340000Y-109982000D03*
X187452000Y-80264000D03*
X171704000Y-89916000D03*
X154940000Y-103886000D03*
X182880000Y-79502000D03*
X180086000Y-101854000D03*
X136144000Y-105156000D03*
X161544000Y-104902000D03*
X165100000Y-68834000D03*
X137160000Y-118872000D03*
X175260000Y-117856000D03*
X186436000Y-108712000D03*
X175768000Y-109220000D03*
X195580000Y-96520000D03*
X156972000Y-120396000D03*
X144526000Y-117094000D03*
X155194000Y-106172000D03*
X158496000Y-120142000D03*
X176530000Y-116078000D03*
X187706000Y-114046000D03*
X159004000Y-77470000D03*
X168402000Y-70104000D03*
X195580000Y-93980000D03*
X169164000Y-76962000D03*
X175006000Y-115316000D03*
X159512000Y-79502000D03*
X159258000Y-78486000D03*
X186690000Y-122174000D03*
X148082000Y-105664000D03*
X167894000Y-112014000D03*
X135128000Y-104648000D03*
X158496000Y-121158000D03*
X179832000Y-100838000D03*
X167640000Y-78994000D03*
X134112000Y-111252000D03*
X148082000Y-104648000D03*
X156972000Y-119634000D03*
X135382000Y-115570000D03*
X136652000Y-116840000D03*
X137414000Y-86106000D03*
X180848000Y-100330000D03*
X160274000Y-119380000D03*
X191516000Y-82550000D03*
X169926000Y-89662000D03*
X156972000Y-118618000D03*
X156718000Y-113792000D03*
X186690000Y-118364000D03*
X158750000Y-122174000D03*
X159004000Y-76708000D03*
X171704000Y-92202000D03*
X187960000Y-121666000D03*
X137414000Y-114300000D03*
X192786000Y-88138000D03*
X160528000Y-122174000D03*
X167894000Y-75946000D03*
X191770000Y-89662000D03*
X171450000Y-87376000D03*
X166116000Y-91948000D03*
X189484000Y-81026000D03*
X184150000Y-79756000D03*
X159766000Y-118618000D03*
X138176000Y-89408000D03*
X168910000Y-90678000D03*
X170180000Y-92202000D03*
X169418000Y-88392000D03*
X151384000Y-123444000D03*
X136906000Y-112014000D03*
X181356000Y-102362000D03*
X143510000Y-118618000D03*
X153416000Y-110490000D03*
X175768000Y-110998000D03*
X195580000Y-105156000D03*
X177292000Y-109474000D03*
X138430000Y-84582000D03*
X173228000Y-118364000D03*
X174752000Y-119126000D03*
X167894000Y-113792000D03*
X143002000Y-118364000D03*
X138938000Y-83058000D03*
X180848000Y-101600000D03*
X187706000Y-106426000D03*
X185674000Y-106934000D03*
X136652000Y-88138000D03*
X148844000Y-106172000D03*
X192532000Y-83820000D03*
X142494000Y-116840000D03*
X156464000Y-114554000D03*
X194310000Y-108204000D03*
X176530000Y-119380000D03*
X155194000Y-105410000D03*
X195580000Y-92964000D03*
X137414000Y-110490000D03*
X134620000Y-105664000D03*
X138938000Y-90424000D03*
X158242000Y-75946000D03*
X158496000Y-78994000D03*
X158496000Y-77216000D03*
X195580000Y-95250000D03*
X147828000Y-109728000D03*
X156972000Y-121666000D03*
X158242000Y-80010000D03*
X174752000Y-119888000D03*
X148844000Y-104902000D03*
X147066000Y-110236000D03*
X151130000Y-122682000D03*
X161544000Y-106172000D03*
X166878000Y-113284000D03*
X158750000Y-75692000D03*
X187706000Y-117348000D03*
X191770000Y-110490000D03*
X179832000Y-100076000D03*
X192278000Y-117602000D03*
X158242000Y-74676000D03*
X155194000Y-104394000D03*
X188976000Y-120142000D03*
X173228000Y-117348000D03*
X158496000Y-78232000D03*
X193548000Y-114300000D03*
X135382000Y-113538000D03*
X134366000Y-107188000D03*
X152908000Y-110236000D03*
X158750000Y-119126000D03*
X192278000Y-88646000D03*
X183896000Y-112776000D03*
X160528000Y-121158000D03*
X148590000Y-109220000D03*
X183134000Y-112776000D03*
%TO.N,+12V*%
X188214000Y-92964000D03*
X188722000Y-95758000D03*
%TO.N,/SH_A*%
X148590000Y-80010000D03*
X144780000Y-81534000D03*
X146304000Y-79248000D03*
X145542000Y-81534000D03*
X147066000Y-78486000D03*
X147828000Y-80010000D03*
X147828000Y-79248000D03*
X145542000Y-78486000D03*
X145542000Y-80772000D03*
X148590000Y-79248000D03*
X147066000Y-80010000D03*
X144780000Y-80772000D03*
X147828000Y-81534000D03*
X146304000Y-77724000D03*
X144780000Y-78486000D03*
X147066000Y-79248000D03*
X148590000Y-77724000D03*
X147828000Y-80772000D03*
X144780000Y-77724000D03*
X144780000Y-80010000D03*
X147066000Y-81534000D03*
X146304000Y-78486000D03*
X147066000Y-77724000D03*
X147828000Y-78486000D03*
X145542000Y-80010000D03*
X147066000Y-80772000D03*
X148590000Y-81534000D03*
X146304000Y-80772000D03*
X146304000Y-80010000D03*
X148590000Y-78486000D03*
X147828000Y-77724000D03*
X145542000Y-77724000D03*
X146304000Y-81534000D03*
X145542000Y-79248000D03*
X144780000Y-79248000D03*
X148590000Y-80772000D03*
%TO.N,/SH_B*%
X155956000Y-78486000D03*
X154432000Y-77724000D03*
X155194000Y-80010000D03*
X155956000Y-79248000D03*
X153670000Y-80010000D03*
X153670000Y-78486000D03*
X152908000Y-81534000D03*
X153670000Y-81534000D03*
X153670000Y-79248000D03*
X154432000Y-80010000D03*
X155956000Y-80772000D03*
X155956000Y-81534000D03*
X154432000Y-79248000D03*
X156718000Y-80010000D03*
X152908000Y-77724000D03*
X155194000Y-81534000D03*
X155956000Y-80010000D03*
X153670000Y-77724000D03*
X155194000Y-79248000D03*
X156718000Y-80772000D03*
X156718000Y-81534000D03*
X154432000Y-80772000D03*
X156718000Y-78486000D03*
X152400000Y-92964000D03*
X152908000Y-78486000D03*
X156718000Y-77724000D03*
X154432000Y-81534000D03*
X156718000Y-79248000D03*
X153670000Y-80772000D03*
X155194000Y-78486000D03*
X154432000Y-78486000D03*
X152908000Y-79248000D03*
X155194000Y-77724000D03*
X155194000Y-80772000D03*
X155956000Y-77724000D03*
%TO.N,+3.3V*%
X152635114Y-120767922D03*
X163576000Y-114046000D03*
X158750000Y-114046000D03*
X152654000Y-114046000D03*
X190246000Y-91440000D03*
X149860000Y-120904000D03*
X164592000Y-123190000D03*
%TO.N,Net-(D1-Pad1)*%
X159004000Y-115588500D03*
X164846000Y-115062000D03*
%TO.N,/SWDIO*%
X163322000Y-118110000D03*
%TO.N,/SWCLK*%
X161290000Y-115588500D03*
%TO.N,/TXD*%
X163830000Y-120650000D03*
%TO.N,/RXD*%
X163068000Y-119634000D03*
%TO.N,/SH_C*%
X162560000Y-78486000D03*
X161798000Y-81534000D03*
X161036000Y-79248000D03*
X164084000Y-80772000D03*
X162560000Y-80772000D03*
X161798000Y-79248000D03*
X159004000Y-92964000D03*
X163322000Y-77724000D03*
X164846000Y-77724000D03*
X161798000Y-78486000D03*
X164084000Y-78486000D03*
X164084000Y-77724000D03*
X162560000Y-80010000D03*
X163322000Y-80010000D03*
X161036000Y-80772000D03*
X162560000Y-79248000D03*
X161036000Y-77724000D03*
X162560000Y-81534000D03*
X164846000Y-78486000D03*
X164846000Y-81534000D03*
X164846000Y-80772000D03*
X164846000Y-79248000D03*
X161036000Y-78486000D03*
X162560000Y-77724000D03*
X163322000Y-79248000D03*
X163322000Y-80772000D03*
X161036000Y-81534000D03*
X164084000Y-79248000D03*
X164084000Y-80010000D03*
X161798000Y-77724000D03*
X164846000Y-80010000D03*
X161798000Y-80010000D03*
X163322000Y-78486000D03*
X161036000Y-80010000D03*
X161798000Y-80772000D03*
X164084000Y-81534000D03*
X163322000Y-81534000D03*
%TO.N,/GH_A*%
X143510000Y-84328000D03*
X143510000Y-93980000D03*
%TO.N,/GL_A*%
X148336000Y-93980000D03*
X142748000Y-81538500D03*
%TO.N,/SL_A*%
X142748000Y-79756000D03*
X142748000Y-78994000D03*
X143510000Y-78994000D03*
X141986000Y-77470000D03*
X142748000Y-77470000D03*
X143510000Y-79756000D03*
X143510000Y-77470000D03*
X141986000Y-80518000D03*
X143510000Y-80518000D03*
X143510000Y-78232000D03*
X142748000Y-80518000D03*
X141986000Y-78994000D03*
X155194000Y-111252000D03*
X142748000Y-78232000D03*
X141986000Y-79756000D03*
X141986000Y-78232000D03*
%TO.N,/GH_B*%
X151638000Y-84074000D03*
X150622000Y-93917000D03*
%TO.N,/GL_B*%
X151130000Y-81534000D03*
X155194000Y-93917000D03*
%TO.N,/SL_B*%
X150622000Y-77470000D03*
X151384000Y-78994000D03*
X150635956Y-79661098D03*
X151384000Y-78232000D03*
X151384000Y-77470000D03*
X149860000Y-78994000D03*
X149860000Y-77470000D03*
X149873956Y-79661098D03*
X151397956Y-79661098D03*
X150622000Y-78994000D03*
X149860000Y-80518000D03*
X183134000Y-114046000D03*
X151384000Y-80518000D03*
X149860000Y-78232000D03*
X150622000Y-80518000D03*
X150622000Y-78232000D03*
%TO.N,/GH_C*%
X157226000Y-93917000D03*
X159512000Y-84328000D03*
%TO.N,/GL_C*%
X159004000Y-81534000D03*
X161798000Y-93980000D03*
%TO.N,/CS1*%
X154178000Y-123444000D03*
%TO.N,/SO1*%
X158496000Y-127254000D03*
X152908000Y-121412000D03*
%TO.N,/SO2*%
X158750000Y-128016000D03*
X152146000Y-122174000D03*
%TO.N,/MODE*%
X159004000Y-124460000D03*
%TO.N,/ADC1*%
X158496000Y-125730000D03*
X160274000Y-102870000D03*
%TO.N,+24V*%
X146812000Y-89662000D03*
X160812400Y-89916000D03*
X155956000Y-90170000D03*
X150876000Y-89916000D03*
X149352000Y-89662000D03*
X157480000Y-89662000D03*
X162560000Y-89662000D03*
X163322000Y-89916000D03*
X148590000Y-89916000D03*
X153416000Y-89662000D03*
X146050000Y-89916000D03*
X158242000Y-89662000D03*
X143510000Y-89916000D03*
X156210000Y-89662000D03*
%TD*%
D21*
%TO.N,/SH_B*%
X152400000Y-92964000D02*
X152400000Y-84582000D01*
X152400000Y-84582000D02*
X152908000Y-84074000D01*
%TO.N,+3.3V*%
X152654000Y-118618000D02*
X152654000Y-114046000D01*
X149860000Y-120904000D02*
X150368000Y-120904000D01*
X150368000Y-120904000D02*
X152654000Y-118618000D01*
%TO.N,/SH_C*%
X161015000Y-84328000D02*
X160909000Y-84222000D01*
X161036000Y-84328000D02*
X161015000Y-84328000D01*
X159004000Y-92964000D02*
X159004000Y-87884000D01*
X159004000Y-87884000D02*
X161036000Y-85852000D01*
X161036000Y-85852000D02*
X161036000Y-84328000D01*
%TO.N,/SL_A*%
X141224000Y-80518000D02*
X141986000Y-80518000D01*
X140970000Y-80772000D02*
X141224000Y-80518000D01*
X155194000Y-111252000D02*
X144018000Y-111252000D01*
X140970000Y-108204000D02*
X140970000Y-80772000D01*
X144018000Y-111252000D02*
X140970000Y-108204000D01*
%TO.N,/SL_B*%
X150114000Y-82550000D02*
X149860000Y-82296000D01*
X150114000Y-91694000D02*
X172466000Y-114046000D01*
X150114000Y-82550000D02*
X150114000Y-91694000D01*
X149860000Y-82296000D02*
X149860000Y-81280000D01*
X149860000Y-81280000D02*
X149860000Y-80518000D01*
X172466000Y-114046000D02*
X183134000Y-114046000D01*
%TO.N,/SO1*%
X154686000Y-127254000D02*
X152908000Y-125476000D01*
X152908000Y-125476000D02*
X152908000Y-121412000D01*
X158496000Y-127254000D02*
X154686000Y-127254000D01*
%TO.N,/SO2*%
X152146000Y-125248290D02*
X152146000Y-122174000D01*
X158750000Y-128016000D02*
X154913710Y-128016000D01*
X154913710Y-128016000D02*
X152146000Y-125248290D01*
%TO.N,/ADC1*%
X153639100Y-123220780D02*
X153670000Y-123189880D01*
X158242000Y-125476000D02*
X154686000Y-125476000D01*
X158496000Y-125730000D02*
X158242000Y-125476000D01*
X153670000Y-114300000D02*
X160274000Y-107696000D01*
X153670000Y-123189880D02*
X153670000Y-114300000D01*
X160274000Y-107696000D02*
X160274000Y-102870000D01*
X153639100Y-124429100D02*
X153639100Y-123220780D01*
X154686000Y-125476000D02*
X153639100Y-124429100D01*
%TD*%
%TA.AperFunction,Conductor*%
%TO.N,/SH_C*%
G36*
X161270692Y-70763666D02*
G01*
X161327522Y-70806221D01*
X161335917Y-70818985D01*
X161732514Y-71509831D01*
X165081185Y-77343000D01*
X165227000Y-77597000D01*
X160655000Y-77597000D01*
X158418897Y-71509831D01*
X158414183Y-71438991D01*
X158448516Y-71376848D01*
X158510402Y-71343260D01*
X160922069Y-70818985D01*
X161199877Y-70758592D01*
X161270692Y-70763666D01*
G37*
%TD.AperFunction*%
%TD*%
%TA.AperFunction,Conductor*%
%TO.N,/SH_A*%
G36*
X149040121Y-77363002D02*
G01*
X149086614Y-77416658D01*
X149098000Y-77469000D01*
X149098000Y-81535000D01*
X149077998Y-81603121D01*
X149024342Y-81649614D01*
X148972000Y-81661000D01*
X147701000Y-81661000D01*
X147701000Y-84456000D01*
X147680998Y-84524121D01*
X147627342Y-84570614D01*
X147575000Y-84582000D01*
X144652000Y-84582000D01*
X144583879Y-84561998D01*
X144537386Y-84508342D01*
X144526000Y-84456000D01*
X144526000Y-77469000D01*
X144546002Y-77400879D01*
X144599658Y-77354386D01*
X144652000Y-77343000D01*
X148972000Y-77343000D01*
X149040121Y-77363002D01*
G37*
%TD.AperFunction*%
%TD*%
%TA.AperFunction,Conductor*%
%TO.N,/SH_C*%
G36*
X165169121Y-77363002D02*
G01*
X165215614Y-77416658D01*
X165227000Y-77469000D01*
X165227000Y-81535000D01*
X165206998Y-81603121D01*
X165153342Y-81649614D01*
X165101000Y-81661000D01*
X163830000Y-81661000D01*
X163830000Y-84456000D01*
X163809998Y-84524121D01*
X163756342Y-84570614D01*
X163704000Y-84582000D01*
X160781000Y-84582000D01*
X160712879Y-84561998D01*
X160666386Y-84508342D01*
X160655000Y-84456000D01*
X160655000Y-77343000D01*
X165101000Y-77343000D01*
X165169121Y-77363002D01*
G37*
%TD.AperFunction*%
%TD*%
%TA.AperFunction,Conductor*%
%TO.N,/SH_A*%
G36*
X151937975Y-69781543D02*
G01*
X151983288Y-69808918D01*
X153961823Y-71671069D01*
X153997719Y-71732320D01*
X153994801Y-71803256D01*
X153969640Y-71846530D01*
X148971000Y-77470000D01*
X144526000Y-77470000D01*
X144646754Y-77343000D01*
X144653770Y-77335621D01*
X144653771Y-77335621D01*
X151805619Y-69813849D01*
X151867054Y-69778265D01*
X151937975Y-69781543D01*
G37*
%TD.AperFunction*%
%TD*%
%TA.AperFunction,Conductor*%
%TO.N,GND*%
G36*
X165527836Y-66152929D02*
G01*
X166678816Y-66186084D01*
X166682963Y-66186272D01*
X167832181Y-66257568D01*
X167836346Y-66257896D01*
X168982536Y-66367253D01*
X168986688Y-66367718D01*
X170128662Y-66515021D01*
X170132797Y-66515624D01*
X171269257Y-66700708D01*
X171273369Y-66701448D01*
X171545548Y-66755094D01*
X172403078Y-66924112D01*
X172407126Y-66924980D01*
X172685730Y-66989557D01*
X173528828Y-67184977D01*
X173532882Y-67185988D01*
X173813299Y-67260863D01*
X174645357Y-67483034D01*
X174649333Y-67484167D01*
X174924814Y-67567602D01*
X175751324Y-67817928D01*
X175755302Y-67819205D01*
X176845607Y-68189313D01*
X176849534Y-68190719D01*
X177927014Y-68596790D01*
X177930865Y-68598314D01*
X178994308Y-69039895D01*
X178998088Y-69041539D01*
X180046275Y-69518121D01*
X180050021Y-69519899D01*
X180315850Y-69651569D01*
X181081862Y-70030988D01*
X181085574Y-70032905D01*
X181864452Y-70451411D01*
X182085128Y-70569984D01*
X182099819Y-70577878D01*
X182103461Y-70579913D01*
X183099147Y-71158254D01*
X183102657Y-71160370D01*
X183444809Y-71374586D01*
X184078637Y-71771416D01*
X184082141Y-71773692D01*
X184752617Y-72225082D01*
X184920479Y-72338093D01*
X185037250Y-72416708D01*
X185040671Y-72419093D01*
X185974007Y-73093476D01*
X185977321Y-73095956D01*
X186567476Y-73552903D01*
X186887732Y-73800872D01*
X186890987Y-73803479D01*
X186909218Y-73818588D01*
X187777552Y-74538214D01*
X187780724Y-74540933D01*
X188028555Y-74760581D01*
X188395232Y-75085559D01*
X188642414Y-75304632D01*
X188645488Y-75307448D01*
X189203930Y-75836465D01*
X189481399Y-76099313D01*
X189484384Y-76102236D01*
X190293574Y-76921373D01*
X190296461Y-76924394D01*
X191078065Y-77769930D01*
X191080849Y-77773045D01*
X191370311Y-78107798D01*
X191811546Y-78618072D01*
X191833937Y-78643967D01*
X191836611Y-78647164D01*
X192525504Y-79499394D01*
X192560479Y-79542662D01*
X192563044Y-79545947D01*
X193118132Y-80281238D01*
X193256771Y-80464885D01*
X193259233Y-80468260D01*
X193922151Y-81409749D01*
X193924499Y-81413205D01*
X194555804Y-82376105D01*
X194558037Y-82379637D01*
X195157081Y-83362957D01*
X195159195Y-83366560D01*
X195725306Y-84369198D01*
X195727300Y-84372870D01*
X196259872Y-85393756D01*
X196261742Y-85397492D01*
X196760151Y-86435425D01*
X196761897Y-86439221D01*
X197225631Y-87493137D01*
X197227248Y-87496985D01*
X197286653Y-87645133D01*
X197655775Y-88565672D01*
X197657266Y-88569575D01*
X198050138Y-89651920D01*
X198051498Y-89655870D01*
X198220135Y-90173345D01*
X198352918Y-90580796D01*
X198408259Y-90750615D01*
X198409486Y-90754602D01*
X198729606Y-91860062D01*
X198729765Y-91860612D01*
X198730854Y-91864621D01*
X198979875Y-92845145D01*
X199014284Y-92980630D01*
X199015245Y-92984696D01*
X199261511Y-94109460D01*
X199262337Y-94113555D01*
X199471179Y-95245875D01*
X199471869Y-95249993D01*
X199473755Y-95262543D01*
X199643058Y-96388652D01*
X199643610Y-96392794D01*
X199687794Y-96771766D01*
X199774794Y-97517977D01*
X199776947Y-97536447D01*
X199777361Y-97540594D01*
X199864143Y-98584978D01*
X199872709Y-98688071D01*
X199872985Y-98692225D01*
X199877342Y-98779744D01*
X199930235Y-99842226D01*
X199930374Y-99846402D01*
X199949475Y-100998246D01*
X199949488Y-101001325D01*
X199945213Y-101545629D01*
X199945151Y-101548707D01*
X199909096Y-102664971D01*
X199907962Y-102700067D01*
X199907759Y-102704212D01*
X199880679Y-103117384D01*
X199832452Y-103853189D01*
X199832110Y-103857353D01*
X199718750Y-105003186D01*
X199718270Y-105007336D01*
X199566981Y-106148790D01*
X199566363Y-106152922D01*
X199377318Y-107288704D01*
X199376567Y-107292797D01*
X199301334Y-107667601D01*
X199149961Y-108421721D01*
X199149071Y-108425803D01*
X198885165Y-109546572D01*
X198884140Y-109550623D01*
X198583216Y-110662040D01*
X198582059Y-110666047D01*
X198263895Y-111703478D01*
X198244459Y-111766852D01*
X198243175Y-111770804D01*
X197876071Y-112839981D01*
X197869249Y-112859851D01*
X197867831Y-112863768D01*
X197464867Y-113921798D01*
X197458010Y-113939801D01*
X197456465Y-113943665D01*
X197283986Y-114354979D01*
X197011192Y-115005519D01*
X197009513Y-115009344D01*
X196529288Y-116055833D01*
X196527483Y-116059601D01*
X196120850Y-116873402D01*
X196012809Y-117089625D01*
X196010881Y-117093327D01*
X195576438Y-117895141D01*
X195462362Y-118105680D01*
X195460311Y-118109320D01*
X194878526Y-119102933D01*
X194876356Y-119106503D01*
X194261938Y-120080298D01*
X194259652Y-120083792D01*
X193712567Y-120890316D01*
X193613271Y-121036701D01*
X193610868Y-121040119D01*
X192933286Y-121971020D01*
X192930772Y-121974357D01*
X192874697Y-122046259D01*
X192244892Y-122853826D01*
X192222659Y-122882334D01*
X192220049Y-122885568D01*
X191740669Y-123459917D01*
X191482241Y-123769541D01*
X191479511Y-123772704D01*
X191375565Y-123889166D01*
X190749499Y-124590614D01*
X190712810Y-124631720D01*
X190709978Y-124634790D01*
X189916112Y-125466978D01*
X189915191Y-125467943D01*
X189912270Y-125470905D01*
X189090278Y-126277265D01*
X189087292Y-126280098D01*
X188787675Y-126555128D01*
X188239042Y-127058739D01*
X188235918Y-127061513D01*
X187362304Y-127811614D01*
X187359089Y-127814282D01*
X186461142Y-128534960D01*
X186457841Y-128537521D01*
X185536462Y-129228055D01*
X185533078Y-129230505D01*
X184589316Y-129890109D01*
X184585861Y-129892440D01*
X184357360Y-130041114D01*
X183620713Y-130520412D01*
X183617173Y-130522632D01*
X182631767Y-131118241D01*
X182628156Y-131120342D01*
X181623574Y-131682935D01*
X181619895Y-131684916D01*
X180597168Y-132213915D01*
X180593426Y-132215773D01*
X179553747Y-132710561D01*
X179549945Y-132712294D01*
X178494402Y-133172353D01*
X178490545Y-133173958D01*
X177420362Y-133598755D01*
X177416453Y-133600232D01*
X176332781Y-133989309D01*
X176328826Y-133990656D01*
X175232804Y-134343606D01*
X175228807Y-134344820D01*
X174121739Y-134661221D01*
X174117703Y-134662303D01*
X173000715Y-134941835D01*
X172996646Y-134942782D01*
X171870995Y-135185129D01*
X171866896Y-135185940D01*
X170733863Y-135390825D01*
X170729740Y-135391500D01*
X169590523Y-135558709D01*
X169586379Y-135559247D01*
X168442269Y-135688591D01*
X168438110Y-135688992D01*
X167489451Y-135764486D01*
X167290289Y-135780335D01*
X167286125Y-135780597D01*
X167185721Y-135785244D01*
X166135942Y-135833832D01*
X166131765Y-135833956D01*
X164980460Y-135849028D01*
X164976282Y-135849014D01*
X163825077Y-135825905D01*
X163820902Y-135825752D01*
X162671092Y-135764486D01*
X162666924Y-135764194D01*
X162223678Y-135725805D01*
X161519799Y-135664843D01*
X161515698Y-135664420D01*
X160372436Y-135527082D01*
X160368340Y-135526521D01*
X159788266Y-135437239D01*
X159230291Y-135351358D01*
X159226173Y-135350654D01*
X158639831Y-135240394D01*
X158094538Y-135137853D01*
X158090498Y-135137023D01*
X157345741Y-134971232D01*
X156966591Y-134886829D01*
X156962529Y-134885854D01*
X155847547Y-134598538D01*
X155843518Y-134597429D01*
X155732552Y-134564875D01*
X154738596Y-134273280D01*
X154734662Y-134272054D01*
X153877212Y-133989309D01*
X153641140Y-133911464D01*
X153637195Y-133910090D01*
X152790824Y-133599525D01*
X152556237Y-133513446D01*
X152552375Y-133511956D01*
X151485126Y-133079676D01*
X151481309Y-133078055D01*
X150429028Y-132610649D01*
X150425238Y-132608890D01*
X149505057Y-132163066D01*
X149389014Y-132106843D01*
X149385286Y-132104960D01*
X148827058Y-131811262D01*
X156932520Y-131811262D01*
X156933036Y-131817406D01*
X156948096Y-131996744D01*
X156949759Y-132016553D01*
X156951458Y-132022478D01*
X157001887Y-132198344D01*
X157006544Y-132214586D01*
X157009359Y-132220063D01*
X157009360Y-132220066D01*
X157097897Y-132392341D01*
X157100712Y-132397818D01*
X157228677Y-132559270D01*
X157233370Y-132563264D01*
X157233371Y-132563265D01*
X157342886Y-132656469D01*
X157385564Y-132692791D01*
X157390942Y-132695797D01*
X157390944Y-132695798D01*
X157420460Y-132712294D01*
X157565398Y-132793297D01*
X157649280Y-132820552D01*
X157755471Y-132855056D01*
X157755475Y-132855057D01*
X157761329Y-132856959D01*
X157965894Y-132881351D01*
X157972029Y-132880879D01*
X157972031Y-132880879D01*
X158044625Y-132875293D01*
X158171300Y-132865546D01*
X158177230Y-132863890D01*
X158177232Y-132863890D01*
X158307770Y-132827443D01*
X158369725Y-132810145D01*
X158375214Y-132807372D01*
X158375220Y-132807370D01*
X158548116Y-132720033D01*
X158553610Y-132717258D01*
X158561028Y-132711463D01*
X158654099Y-132638748D01*
X158715951Y-132590424D01*
X158769173Y-132528766D01*
X158846540Y-132439134D01*
X158846540Y-132439133D01*
X158850564Y-132434472D01*
X158871387Y-132397818D01*
X158949276Y-132260707D01*
X158952323Y-132255344D01*
X159017351Y-132059863D01*
X159043171Y-131855474D01*
X159043583Y-131826000D01*
X159042138Y-131811262D01*
X159472520Y-131811262D01*
X159473036Y-131817406D01*
X159488096Y-131996744D01*
X159489759Y-132016553D01*
X159491458Y-132022478D01*
X159541887Y-132198344D01*
X159546544Y-132214586D01*
X159549359Y-132220063D01*
X159549360Y-132220066D01*
X159637897Y-132392341D01*
X159640712Y-132397818D01*
X159768677Y-132559270D01*
X159773370Y-132563264D01*
X159773371Y-132563265D01*
X159882886Y-132656469D01*
X159925564Y-132692791D01*
X159930942Y-132695797D01*
X159930944Y-132695798D01*
X159960460Y-132712294D01*
X160105398Y-132793297D01*
X160189280Y-132820552D01*
X160295471Y-132855056D01*
X160295475Y-132855057D01*
X160301329Y-132856959D01*
X160505894Y-132881351D01*
X160512029Y-132880879D01*
X160512031Y-132880879D01*
X160584625Y-132875293D01*
X160711300Y-132865546D01*
X160717230Y-132863890D01*
X160717232Y-132863890D01*
X160847770Y-132827443D01*
X160909725Y-132810145D01*
X160915214Y-132807372D01*
X160915220Y-132807370D01*
X161088116Y-132720033D01*
X161093610Y-132717258D01*
X161101028Y-132711463D01*
X161121142Y-132695748D01*
X162017500Y-132695748D01*
X162018707Y-132701816D01*
X162024968Y-132733290D01*
X162029133Y-132754231D01*
X162073448Y-132820552D01*
X162139769Y-132864867D01*
X162151938Y-132867288D01*
X162151939Y-132867288D01*
X162192184Y-132875293D01*
X162198252Y-132876500D01*
X163937748Y-132876500D01*
X163943816Y-132875293D01*
X163984061Y-132867288D01*
X163984062Y-132867288D01*
X163996231Y-132864867D01*
X164062552Y-132820552D01*
X164106867Y-132754231D01*
X164111033Y-132733290D01*
X164117293Y-132701816D01*
X164118500Y-132695748D01*
X164118500Y-131754262D01*
X168733520Y-131754262D01*
X168750759Y-131959553D01*
X168807544Y-132157586D01*
X168810359Y-132163063D01*
X168810360Y-132163066D01*
X168898897Y-132335341D01*
X168901712Y-132340818D01*
X169029677Y-132502270D01*
X169034370Y-132506264D01*
X169034371Y-132506265D01*
X169090976Y-132554439D01*
X169186564Y-132635791D01*
X169366398Y-132736297D01*
X169450280Y-132763552D01*
X169556471Y-132798056D01*
X169556475Y-132798057D01*
X169562329Y-132799959D01*
X169766894Y-132824351D01*
X169773029Y-132823879D01*
X169773031Y-132823879D01*
X169845625Y-132818293D01*
X169972300Y-132808546D01*
X169978230Y-132806890D01*
X169978232Y-132806890D01*
X170164797Y-132754800D01*
X170164796Y-132754800D01*
X170170725Y-132753145D01*
X170176214Y-132750372D01*
X170176220Y-132750370D01*
X170349116Y-132663033D01*
X170354610Y-132660258D01*
X170516951Y-132533424D01*
X170602364Y-132434472D01*
X170647540Y-132382134D01*
X170647540Y-132382133D01*
X170651564Y-132377472D01*
X170672387Y-132340818D01*
X170744477Y-132213915D01*
X170753323Y-132198344D01*
X170818351Y-132002863D01*
X170844171Y-131798474D01*
X170844583Y-131769000D01*
X170843138Y-131754262D01*
X171273520Y-131754262D01*
X171290759Y-131959553D01*
X171347544Y-132157586D01*
X171350359Y-132163063D01*
X171350360Y-132163066D01*
X171438897Y-132335341D01*
X171441712Y-132340818D01*
X171569677Y-132502270D01*
X171574370Y-132506264D01*
X171574371Y-132506265D01*
X171630976Y-132554439D01*
X171726564Y-132635791D01*
X171906398Y-132736297D01*
X171990280Y-132763552D01*
X172096471Y-132798056D01*
X172096475Y-132798057D01*
X172102329Y-132799959D01*
X172306894Y-132824351D01*
X172313029Y-132823879D01*
X172313031Y-132823879D01*
X172385625Y-132818293D01*
X172512300Y-132808546D01*
X172518230Y-132806890D01*
X172518232Y-132806890D01*
X172704797Y-132754800D01*
X172704796Y-132754800D01*
X172710725Y-132753145D01*
X172716214Y-132750372D01*
X172716220Y-132750370D01*
X172889116Y-132663033D01*
X172894610Y-132660258D01*
X172922142Y-132638748D01*
X173818500Y-132638748D01*
X173819707Y-132644816D01*
X173823331Y-132663033D01*
X173830133Y-132697231D01*
X173874448Y-132763552D01*
X173940769Y-132807867D01*
X173952938Y-132810288D01*
X173952939Y-132810288D01*
X173993184Y-132818293D01*
X173999252Y-132819500D01*
X175738748Y-132819500D01*
X175744816Y-132818293D01*
X175785061Y-132810288D01*
X175785062Y-132810288D01*
X175797231Y-132807867D01*
X175863552Y-132763552D01*
X175907867Y-132697231D01*
X175914670Y-132663033D01*
X175918293Y-132644816D01*
X175919500Y-132638748D01*
X175919500Y-130899252D01*
X175907867Y-130840769D01*
X175863552Y-130774448D01*
X175797231Y-130730133D01*
X175785062Y-130727712D01*
X175785061Y-130727712D01*
X175744816Y-130719707D01*
X175738748Y-130718500D01*
X173999252Y-130718500D01*
X173993184Y-130719707D01*
X173952939Y-130727712D01*
X173952938Y-130727712D01*
X173940769Y-130730133D01*
X173874448Y-130774448D01*
X173830133Y-130840769D01*
X173818500Y-130899252D01*
X173818500Y-132638748D01*
X172922142Y-132638748D01*
X173056951Y-132533424D01*
X173142364Y-132434472D01*
X173187540Y-132382134D01*
X173187540Y-132382133D01*
X173191564Y-132377472D01*
X173212387Y-132340818D01*
X173284477Y-132213915D01*
X173293323Y-132198344D01*
X173358351Y-132002863D01*
X173384171Y-131798474D01*
X173384583Y-131769000D01*
X173364480Y-131563970D01*
X173304935Y-131366749D01*
X173208218Y-131184849D01*
X173121295Y-131078271D01*
X173081906Y-131029975D01*
X173081903Y-131029972D01*
X173078011Y-131025200D01*
X173044206Y-130997234D01*
X172924025Y-130897811D01*
X172924021Y-130897809D01*
X172919275Y-130893882D01*
X172738055Y-130795897D01*
X172541254Y-130734977D01*
X172535129Y-130734333D01*
X172535128Y-130734333D01*
X172342498Y-130714087D01*
X172342496Y-130714087D01*
X172336369Y-130713443D01*
X172249529Y-130721346D01*
X172137342Y-130731555D01*
X172137339Y-130731556D01*
X172131203Y-130732114D01*
X171933572Y-130790280D01*
X171751002Y-130885726D01*
X171746201Y-130889586D01*
X171746198Y-130889588D01*
X171673609Y-130947951D01*
X171590447Y-131014815D01*
X171458024Y-131172630D01*
X171455056Y-131178028D01*
X171455053Y-131178033D01*
X171416979Y-131247290D01*
X171358776Y-131353162D01*
X171296484Y-131549532D01*
X171295798Y-131555649D01*
X171295797Y-131555653D01*
X171281405Y-131683964D01*
X171273520Y-131754262D01*
X170843138Y-131754262D01*
X170824480Y-131563970D01*
X170764935Y-131366749D01*
X170668218Y-131184849D01*
X170581295Y-131078271D01*
X170541906Y-131029975D01*
X170541903Y-131029972D01*
X170538011Y-131025200D01*
X170504206Y-130997234D01*
X170384025Y-130897811D01*
X170384021Y-130897809D01*
X170379275Y-130893882D01*
X170198055Y-130795897D01*
X170001254Y-130734977D01*
X169995129Y-130734333D01*
X169995128Y-130734333D01*
X169802498Y-130714087D01*
X169802496Y-130714087D01*
X169796369Y-130713443D01*
X169709529Y-130721346D01*
X169597342Y-130731555D01*
X169597339Y-130731556D01*
X169591203Y-130732114D01*
X169393572Y-130790280D01*
X169211002Y-130885726D01*
X169206201Y-130889586D01*
X169206198Y-130889588D01*
X169133609Y-130947951D01*
X169050447Y-131014815D01*
X168918024Y-131172630D01*
X168915056Y-131178028D01*
X168915053Y-131178033D01*
X168876979Y-131247290D01*
X168818776Y-131353162D01*
X168756484Y-131549532D01*
X168755798Y-131555649D01*
X168755797Y-131555653D01*
X168741405Y-131683964D01*
X168733520Y-131754262D01*
X164118500Y-131754262D01*
X164118500Y-130956252D01*
X164106867Y-130897769D01*
X164062552Y-130831448D01*
X163996231Y-130787133D01*
X163984062Y-130784712D01*
X163984061Y-130784712D01*
X163943816Y-130776707D01*
X163937748Y-130775500D01*
X162198252Y-130775500D01*
X162192184Y-130776707D01*
X162151939Y-130784712D01*
X162151938Y-130784712D01*
X162139769Y-130787133D01*
X162073448Y-130831448D01*
X162029133Y-130897769D01*
X162017500Y-130956252D01*
X162017500Y-132695748D01*
X161121142Y-132695748D01*
X161194099Y-132638748D01*
X161255951Y-132590424D01*
X161309173Y-132528766D01*
X161386540Y-132439134D01*
X161386540Y-132439133D01*
X161390564Y-132434472D01*
X161411387Y-132397818D01*
X161489276Y-132260707D01*
X161492323Y-132255344D01*
X161557351Y-132059863D01*
X161583171Y-131855474D01*
X161583583Y-131826000D01*
X161563480Y-131620970D01*
X161503935Y-131423749D01*
X161407218Y-131241849D01*
X161307280Y-131119313D01*
X161280906Y-131086975D01*
X161280903Y-131086972D01*
X161277011Y-131082200D01*
X161174305Y-130997234D01*
X161123025Y-130954811D01*
X161123021Y-130954809D01*
X161118275Y-130950882D01*
X160937055Y-130852897D01*
X160740254Y-130791977D01*
X160734129Y-130791333D01*
X160734128Y-130791333D01*
X160541498Y-130771087D01*
X160541496Y-130771087D01*
X160535369Y-130770443D01*
X160448529Y-130778346D01*
X160336342Y-130788555D01*
X160336339Y-130788556D01*
X160330203Y-130789114D01*
X160132572Y-130847280D01*
X159950002Y-130942726D01*
X159945201Y-130946586D01*
X159945198Y-130946588D01*
X159794254Y-131067950D01*
X159789447Y-131071815D01*
X159657024Y-131229630D01*
X159654056Y-131235028D01*
X159654053Y-131235033D01*
X159581642Y-131366749D01*
X159557776Y-131410162D01*
X159495484Y-131606532D01*
X159494798Y-131612649D01*
X159494797Y-131612653D01*
X159478224Y-131760406D01*
X159472520Y-131811262D01*
X159042138Y-131811262D01*
X159023480Y-131620970D01*
X158963935Y-131423749D01*
X158867218Y-131241849D01*
X158767280Y-131119313D01*
X158740906Y-131086975D01*
X158740903Y-131086972D01*
X158737011Y-131082200D01*
X158634305Y-130997234D01*
X158583025Y-130954811D01*
X158583021Y-130954809D01*
X158578275Y-130950882D01*
X158397055Y-130852897D01*
X158200254Y-130791977D01*
X158194129Y-130791333D01*
X158194128Y-130791333D01*
X158001498Y-130771087D01*
X158001496Y-130771087D01*
X157995369Y-130770443D01*
X157908529Y-130778346D01*
X157796342Y-130788555D01*
X157796339Y-130788556D01*
X157790203Y-130789114D01*
X157592572Y-130847280D01*
X157410002Y-130942726D01*
X157405201Y-130946586D01*
X157405198Y-130946588D01*
X157254254Y-131067950D01*
X157249447Y-131071815D01*
X157117024Y-131229630D01*
X157114056Y-131235028D01*
X157114053Y-131235033D01*
X157041642Y-131366749D01*
X157017776Y-131410162D01*
X156955484Y-131606532D01*
X156954798Y-131612649D01*
X156954797Y-131612653D01*
X156938224Y-131760406D01*
X156932520Y-131811262D01*
X148827058Y-131811262D01*
X148366312Y-131568852D01*
X148362647Y-131566846D01*
X147361983Y-130997234D01*
X147358386Y-130995107D01*
X146377144Y-130392623D01*
X146373621Y-130390378D01*
X145412944Y-129755725D01*
X145409496Y-129753365D01*
X144670720Y-129229314D01*
X144470319Y-129087159D01*
X144466960Y-129084691D01*
X144234027Y-128907564D01*
X144122044Y-128822410D01*
X147193975Y-128822410D01*
X147218954Y-128898162D01*
X147257877Y-128943335D01*
X147625438Y-129230505D01*
X148623737Y-130010463D01*
X148623740Y-130010465D01*
X148628618Y-130014276D01*
X148634147Y-130017063D01*
X148634149Y-130017064D01*
X148670784Y-130035529D01*
X148670786Y-130035530D01*
X148681866Y-130041114D01*
X148694238Y-130042033D01*
X148694240Y-130042034D01*
X148726721Y-130044447D01*
X148761410Y-130047025D01*
X148837162Y-130022046D01*
X148882335Y-129983123D01*
X149584268Y-129084691D01*
X149949463Y-128617263D01*
X149949465Y-128617260D01*
X149953276Y-128612382D01*
X149956064Y-128606851D01*
X149974529Y-128570216D01*
X149974530Y-128570214D01*
X149980114Y-128559134D01*
X149981911Y-128534960D01*
X149985105Y-128491966D01*
X149986025Y-128479590D01*
X149961046Y-128403838D01*
X149922123Y-128358665D01*
X149019632Y-127653561D01*
X148556263Y-127291537D01*
X148556260Y-127291535D01*
X148551382Y-127287724D01*
X148545853Y-127284937D01*
X148545851Y-127284936D01*
X148509216Y-127266471D01*
X148509214Y-127266470D01*
X148498134Y-127260886D01*
X148485762Y-127259967D01*
X148485760Y-127259966D01*
X148453279Y-127257553D01*
X148418590Y-127254975D01*
X148406802Y-127258862D01*
X148400664Y-127260886D01*
X148342838Y-127279954D01*
X148297665Y-127318877D01*
X147666104Y-128127238D01*
X147291389Y-128606851D01*
X147226724Y-128689618D01*
X147223937Y-128695147D01*
X147223936Y-128695149D01*
X147205471Y-128731784D01*
X147205470Y-128731786D01*
X147199886Y-128742866D01*
X147193975Y-128822410D01*
X144122044Y-128822410D01*
X143550429Y-128387744D01*
X143547147Y-128385161D01*
X143514602Y-128358665D01*
X142654238Y-127658218D01*
X142651043Y-127655528D01*
X142590540Y-127602841D01*
X141981505Y-127072482D01*
X145532973Y-127072482D01*
X145533489Y-127078626D01*
X145548717Y-127259966D01*
X145550212Y-127277773D01*
X145551911Y-127283698D01*
X145598684Y-127446814D01*
X145606997Y-127475806D01*
X145609812Y-127481283D01*
X145609813Y-127481286D01*
X145630700Y-127521927D01*
X145701165Y-127659038D01*
X145829130Y-127820490D01*
X145833823Y-127824484D01*
X145833824Y-127824485D01*
X145919200Y-127897145D01*
X145986017Y-127954011D01*
X146165851Y-128054517D01*
X146260691Y-128085333D01*
X146355924Y-128116276D01*
X146355928Y-128116277D01*
X146361782Y-128118179D01*
X146566347Y-128142571D01*
X146572482Y-128142099D01*
X146572484Y-128142099D01*
X146628492Y-128137789D01*
X146771753Y-128126766D01*
X146777683Y-128125110D01*
X146777685Y-128125110D01*
X146964250Y-128073020D01*
X146964249Y-128073020D01*
X146970178Y-128071365D01*
X146975667Y-128068592D01*
X146975673Y-128068590D01*
X147148569Y-127981253D01*
X147154063Y-127978478D01*
X147316404Y-127851644D01*
X147386197Y-127770788D01*
X147446993Y-127700354D01*
X147446993Y-127700353D01*
X147451017Y-127695692D01*
X147468569Y-127664796D01*
X147549729Y-127521927D01*
X147552776Y-127516564D01*
X147617804Y-127321083D01*
X147643624Y-127116694D01*
X147644036Y-127087220D01*
X147623933Y-126882190D01*
X147564388Y-126684969D01*
X147467671Y-126503069D01*
X147372386Y-126386238D01*
X147341359Y-126348195D01*
X147341356Y-126348192D01*
X147337464Y-126343420D01*
X147324911Y-126333035D01*
X147183478Y-126216031D01*
X147183474Y-126216029D01*
X147178728Y-126212102D01*
X146997508Y-126114117D01*
X146800707Y-126053197D01*
X146794582Y-126052553D01*
X146794581Y-126052553D01*
X146601951Y-126032307D01*
X146601949Y-126032307D01*
X146595822Y-126031663D01*
X146508982Y-126039566D01*
X146396795Y-126049775D01*
X146396792Y-126049776D01*
X146390656Y-126050334D01*
X146193025Y-126108500D01*
X146010455Y-126203946D01*
X146005654Y-126207806D01*
X146005651Y-126207808D01*
X145901369Y-126291653D01*
X145849900Y-126333035D01*
X145717477Y-126490850D01*
X145714509Y-126496248D01*
X145714506Y-126496253D01*
X145669131Y-126578791D01*
X145618229Y-126671382D01*
X145555937Y-126867752D01*
X145555251Y-126873869D01*
X145555250Y-126873873D01*
X145534355Y-127060158D01*
X145532973Y-127072482D01*
X141981505Y-127072482D01*
X141782716Y-126899373D01*
X141779616Y-126896581D01*
X140936816Y-126112030D01*
X140933805Y-126109133D01*
X140330222Y-125508702D01*
X143531425Y-125508702D01*
X143531941Y-125514846D01*
X143546242Y-125685145D01*
X143548664Y-125713993D01*
X143550363Y-125719918D01*
X143595248Y-125876450D01*
X143605449Y-125912026D01*
X143608264Y-125917503D01*
X143608265Y-125917506D01*
X143691867Y-126080179D01*
X143699617Y-126095258D01*
X143827582Y-126256710D01*
X143832275Y-126260704D01*
X143832276Y-126260705D01*
X143924850Y-126339491D01*
X143984469Y-126390231D01*
X144164303Y-126490737D01*
X144259143Y-126521553D01*
X144354376Y-126552496D01*
X144354380Y-126552497D01*
X144360234Y-126554399D01*
X144564799Y-126578791D01*
X144570934Y-126578319D01*
X144570936Y-126578319D01*
X144626944Y-126574009D01*
X144770205Y-126562986D01*
X144776135Y-126561330D01*
X144776137Y-126561330D01*
X144962702Y-126509240D01*
X144962701Y-126509240D01*
X144968630Y-126507585D01*
X144974119Y-126504812D01*
X144974125Y-126504810D01*
X145147021Y-126417473D01*
X145152515Y-126414698D01*
X145314856Y-126287864D01*
X145321541Y-126280120D01*
X145445445Y-126136574D01*
X145445445Y-126136573D01*
X145449469Y-126131912D01*
X145470292Y-126095258D01*
X145496129Y-126049775D01*
X145551228Y-125952784D01*
X145616256Y-125757303D01*
X145642076Y-125552914D01*
X145642488Y-125523440D01*
X145622385Y-125318410D01*
X145562840Y-125121189D01*
X145466123Y-124939289D01*
X145360823Y-124810179D01*
X145339811Y-124784415D01*
X145339808Y-124784412D01*
X145335916Y-124779640D01*
X145273341Y-124727873D01*
X145181930Y-124652251D01*
X145181926Y-124652249D01*
X145177180Y-124648322D01*
X144995960Y-124550337D01*
X144799159Y-124489417D01*
X144793034Y-124488773D01*
X144793033Y-124488773D01*
X144600403Y-124468527D01*
X144600401Y-124468527D01*
X144594274Y-124467883D01*
X144507434Y-124475786D01*
X144395247Y-124485995D01*
X144395244Y-124485996D01*
X144389108Y-124486554D01*
X144191477Y-124544720D01*
X144186012Y-124547577D01*
X144146694Y-124568132D01*
X144008907Y-124640166D01*
X144004106Y-124644026D01*
X144004103Y-124644028D01*
X143899821Y-124727873D01*
X143848352Y-124769255D01*
X143715929Y-124927070D01*
X143712961Y-124932468D01*
X143712958Y-124932473D01*
X143667583Y-125015011D01*
X143616681Y-125107602D01*
X143614818Y-125113475D01*
X143570028Y-125254673D01*
X143554389Y-125303972D01*
X143553703Y-125310089D01*
X143553702Y-125310093D01*
X143532112Y-125502577D01*
X143531425Y-125508702D01*
X140330222Y-125508702D01*
X140117513Y-125297104D01*
X140114600Y-125294109D01*
X139771008Y-124928861D01*
X139325648Y-124455430D01*
X139322850Y-124452355D01*
X139316877Y-124445567D01*
X138876275Y-123944922D01*
X141529878Y-123944922D01*
X141530394Y-123951066D01*
X141544026Y-124113399D01*
X141547117Y-124150213D01*
X141548816Y-124156138D01*
X141600333Y-124335798D01*
X141603902Y-124348246D01*
X141606717Y-124353723D01*
X141606718Y-124353726D01*
X141695255Y-124526001D01*
X141698070Y-124531478D01*
X141826035Y-124692930D01*
X141830728Y-124696924D01*
X141830729Y-124696925D01*
X141923303Y-124775711D01*
X141982922Y-124826451D01*
X142162756Y-124926957D01*
X142257596Y-124957773D01*
X142352829Y-124988716D01*
X142352833Y-124988717D01*
X142358687Y-124990619D01*
X142563252Y-125015011D01*
X142569387Y-125014539D01*
X142569389Y-125014539D01*
X142625397Y-125010229D01*
X142768658Y-124999206D01*
X142774588Y-124997550D01*
X142774590Y-124997550D01*
X142961155Y-124945460D01*
X142961154Y-124945460D01*
X142967083Y-124943805D01*
X142972572Y-124941032D01*
X142972578Y-124941030D01*
X143145474Y-124853693D01*
X143150968Y-124850918D01*
X143211633Y-124803522D01*
X143308459Y-124727873D01*
X143313309Y-124724084D01*
X143333658Y-124700510D01*
X143443898Y-124572794D01*
X143443898Y-124572793D01*
X143447922Y-124568132D01*
X143468745Y-124531478D01*
X143500307Y-124475917D01*
X143549681Y-124389004D01*
X143614709Y-124193523D01*
X143640529Y-123989134D01*
X143640941Y-123959660D01*
X143620838Y-123754630D01*
X143561293Y-123557409D01*
X143464576Y-123375509D01*
X143354589Y-123240652D01*
X143338264Y-123220635D01*
X143338261Y-123220632D01*
X143334369Y-123215860D01*
X143327531Y-123210203D01*
X143180383Y-123088471D01*
X143180379Y-123088469D01*
X143175633Y-123084542D01*
X142994413Y-122986557D01*
X142797612Y-122925637D01*
X142791487Y-122924993D01*
X142791486Y-122924993D01*
X142598856Y-122904747D01*
X142598854Y-122904747D01*
X142592727Y-122904103D01*
X142505887Y-122912006D01*
X142393700Y-122922215D01*
X142393697Y-122922216D01*
X142387561Y-122922774D01*
X142189930Y-122980940D01*
X142184465Y-122983797D01*
X142179186Y-122986557D01*
X142007360Y-123076386D01*
X142002559Y-123080246D01*
X142002556Y-123080248D01*
X141851612Y-123201610D01*
X141846805Y-123205475D01*
X141714382Y-123363290D01*
X141711414Y-123368688D01*
X141711411Y-123368693D01*
X141623122Y-123529291D01*
X141615134Y-123543822D01*
X141552842Y-123740192D01*
X141552156Y-123746309D01*
X141552155Y-123746313D01*
X141549195Y-123772704D01*
X141529878Y-123944922D01*
X138876275Y-123944922D01*
X138562148Y-123587987D01*
X138559442Y-123584807D01*
X138530549Y-123549695D01*
X137827809Y-122695687D01*
X137825222Y-122692434D01*
X137687513Y-122513291D01*
X137273226Y-121974357D01*
X137123487Y-121779565D01*
X137120996Y-121776211D01*
X136491414Y-120898440D01*
X149404901Y-120898440D01*
X149406065Y-120907342D01*
X149406065Y-120907345D01*
X149420468Y-121017489D01*
X149420469Y-121017493D01*
X149421633Y-121026394D01*
X149425250Y-121034614D01*
X149454169Y-121100337D01*
X149473605Y-121144510D01*
X149479382Y-121151383D01*
X149479383Y-121151384D01*
X149520826Y-121200686D01*
X149556639Y-121243291D01*
X149664060Y-121314796D01*
X149787233Y-121353278D01*
X149796203Y-121353442D01*
X149796207Y-121353443D01*
X149854942Y-121354519D01*
X149916255Y-121355643D01*
X149978505Y-121338672D01*
X150032092Y-121324062D01*
X150032093Y-121324062D01*
X150040755Y-121321700D01*
X150048405Y-121317003D01*
X150048407Y-121317002D01*
X150143072Y-121258878D01*
X150143075Y-121258875D01*
X150150724Y-121254179D01*
X150168224Y-121234845D01*
X150228767Y-121197764D01*
X150261640Y-121193400D01*
X150317763Y-121193400D01*
X150320088Y-121193571D01*
X150324991Y-121195254D01*
X150336616Y-121194818D01*
X150336618Y-121194818D01*
X150372012Y-121193489D01*
X150376738Y-121193400D01*
X150394917Y-121193400D01*
X150399527Y-121192542D01*
X150402639Y-121192340D01*
X150421099Y-121191647D01*
X150421101Y-121191646D01*
X150432726Y-121191210D01*
X150443416Y-121186617D01*
X150449251Y-121185302D01*
X150456977Y-121182955D01*
X150462552Y-121180804D01*
X150473988Y-121178674D01*
X150493902Y-121166399D01*
X150510280Y-121157891D01*
X150523607Y-121152165D01*
X150523609Y-121152164D01*
X150531781Y-121148653D01*
X150536484Y-121144789D01*
X150538662Y-121142611D01*
X150540935Y-121140550D01*
X150541131Y-121140767D01*
X150547979Y-121135353D01*
X150555859Y-121128208D01*
X150565763Y-121122103D01*
X150572803Y-121112845D01*
X150572805Y-121112843D01*
X150581527Y-121101373D01*
X150592729Y-121088544D01*
X152823113Y-118858161D01*
X152824880Y-118856636D01*
X152829536Y-118854360D01*
X152861543Y-118819856D01*
X152864823Y-118816451D01*
X152877670Y-118803604D01*
X152880325Y-118799734D01*
X152882384Y-118797389D01*
X152894944Y-118783849D01*
X152902856Y-118775320D01*
X152907167Y-118764515D01*
X152910368Y-118759451D01*
X152914165Y-118752340D01*
X152916588Y-118746872D01*
X152923169Y-118737279D01*
X152928572Y-118714511D01*
X152934136Y-118696918D01*
X152939511Y-118683446D01*
X152939512Y-118683441D01*
X152942806Y-118675185D01*
X152943400Y-118669127D01*
X152943400Y-118666040D01*
X152943550Y-118662976D01*
X152943843Y-118662990D01*
X152944855Y-118654343D01*
X152945375Y-118643704D01*
X152948062Y-118632383D01*
X152944551Y-118606586D01*
X152943400Y-118589594D01*
X152943400Y-114446197D01*
X152963402Y-114378076D01*
X152975978Y-114361650D01*
X153031322Y-114300507D01*
X153087588Y-114184375D01*
X153089570Y-114172598D01*
X153108190Y-114061917D01*
X153108997Y-114057120D01*
X153109133Y-114046000D01*
X153097872Y-113967370D01*
X153092112Y-113927145D01*
X153092111Y-113927142D01*
X153090839Y-113918259D01*
X153084724Y-113904809D01*
X153041145Y-113808962D01*
X153041143Y-113808959D01*
X153037428Y-113800788D01*
X152995064Y-113751622D01*
X152959051Y-113709826D01*
X152959049Y-113709824D01*
X152953193Y-113703028D01*
X152844906Y-113632841D01*
X152836311Y-113630271D01*
X152836310Y-113630270D01*
X152729874Y-113598438D01*
X152729872Y-113598438D01*
X152721273Y-113595866D01*
X152712298Y-113595811D01*
X152712297Y-113595811D01*
X152657641Y-113595477D01*
X152592231Y-113595078D01*
X152580475Y-113598438D01*
X152476786Y-113628072D01*
X152476784Y-113628073D01*
X152468155Y-113630539D01*
X152359019Y-113699399D01*
X152353076Y-113706128D01*
X152353075Y-113706129D01*
X152312897Y-113751622D01*
X152273596Y-113796122D01*
X152269782Y-113804245D01*
X152269781Y-113804247D01*
X152264626Y-113815228D01*
X152218754Y-113912932D01*
X152212069Y-113955868D01*
X152200282Y-114031567D01*
X152200282Y-114031571D01*
X152198901Y-114040440D01*
X152200065Y-114049342D01*
X152200065Y-114049345D01*
X152214468Y-114159489D01*
X152214469Y-114159493D01*
X152215633Y-114168394D01*
X152219250Y-114176614D01*
X152254121Y-114255864D01*
X152267605Y-114286510D01*
X152273382Y-114293383D01*
X152273383Y-114293384D01*
X152335051Y-114366747D01*
X152363572Y-114431763D01*
X152364600Y-114447822D01*
X152364600Y-118445936D01*
X152344598Y-118514057D01*
X152327695Y-118535031D01*
X150317630Y-120545096D01*
X150255318Y-120579122D01*
X150184503Y-120574057D01*
X150160146Y-120559557D01*
X150159193Y-120561028D01*
X150050906Y-120490841D01*
X150042311Y-120488271D01*
X150042310Y-120488270D01*
X149935874Y-120456438D01*
X149935872Y-120456438D01*
X149927273Y-120453866D01*
X149918298Y-120453811D01*
X149918297Y-120453811D01*
X149863641Y-120453477D01*
X149798231Y-120453078D01*
X149786475Y-120456438D01*
X149682786Y-120486072D01*
X149682784Y-120486073D01*
X149674155Y-120488539D01*
X149666565Y-120493328D01*
X149607043Y-120530884D01*
X149565019Y-120557399D01*
X149479596Y-120654122D01*
X149424754Y-120770932D01*
X149422038Y-120788375D01*
X149406282Y-120889567D01*
X149406282Y-120889571D01*
X149404901Y-120898440D01*
X136491414Y-120898440D01*
X136449901Y-120840562D01*
X136447523Y-120837127D01*
X135807830Y-119879758D01*
X135805567Y-119876246D01*
X135581238Y-119515145D01*
X135197967Y-118898195D01*
X135195829Y-118894623D01*
X135174820Y-118858161D01*
X134620972Y-117896930D01*
X134618958Y-117893297D01*
X134601282Y-117860122D01*
X134077510Y-116877121D01*
X134075607Y-116873402D01*
X133613411Y-115932022D01*
X133568154Y-115839844D01*
X133566375Y-115836065D01*
X133513202Y-115718026D01*
X133093451Y-114786214D01*
X133091809Y-114782401D01*
X133075298Y-114742241D01*
X132747363Y-113944638D01*
X141471407Y-113944638D01*
X141473389Y-113974884D01*
X141485236Y-114155633D01*
X141486657Y-114161229D01*
X141486658Y-114161234D01*
X141535864Y-114354979D01*
X141537285Y-114360574D01*
X141539702Y-114365817D01*
X141545510Y-114378415D01*
X141625809Y-114552598D01*
X141747845Y-114725275D01*
X141899305Y-114872821D01*
X141904101Y-114876026D01*
X141904104Y-114876028D01*
X142004552Y-114943145D01*
X142075117Y-114990295D01*
X142080425Y-114992576D01*
X142080426Y-114992576D01*
X142264090Y-115071484D01*
X142264093Y-115071485D01*
X142269393Y-115073762D01*
X142275022Y-115075036D01*
X142275023Y-115075036D01*
X142469990Y-115119153D01*
X142469993Y-115119153D01*
X142475626Y-115120428D01*
X142481397Y-115120655D01*
X142481399Y-115120655D01*
X142543429Y-115123092D01*
X142686910Y-115128730D01*
X142692619Y-115127902D01*
X142692623Y-115127902D01*
X142890455Y-115099217D01*
X142890459Y-115099216D01*
X142896170Y-115098388D01*
X142968716Y-115073762D01*
X143090923Y-115032279D01*
X143090928Y-115032277D01*
X143096395Y-115030421D01*
X143101438Y-115027597D01*
X143275835Y-114929930D01*
X143275839Y-114929927D01*
X143280882Y-114927103D01*
X143443452Y-114791896D01*
X143578659Y-114629326D01*
X143581483Y-114624283D01*
X143581486Y-114624279D01*
X143679153Y-114449882D01*
X143679154Y-114449880D01*
X143681977Y-114444839D01*
X143683833Y-114439372D01*
X143683835Y-114439367D01*
X143736025Y-114285617D01*
X143749944Y-114244614D01*
X143753291Y-114221536D01*
X143779754Y-114039024D01*
X143779754Y-114039022D01*
X143780286Y-114035354D01*
X143781869Y-113974884D01*
X143762521Y-113764324D01*
X143705126Y-113560815D01*
X143702359Y-113555203D01*
X143614159Y-113376353D01*
X143611605Y-113371174D01*
X143485091Y-113201751D01*
X143329821Y-113058221D01*
X143161359Y-112951929D01*
X143155874Y-112948468D01*
X143155873Y-112948468D01*
X143150994Y-112945389D01*
X142954600Y-112867036D01*
X142948943Y-112865911D01*
X142948937Y-112865909D01*
X142752882Y-112826912D01*
X142752880Y-112826912D01*
X142747215Y-112825785D01*
X142741440Y-112825709D01*
X142741436Y-112825709D01*
X142635416Y-112824321D01*
X142535786Y-112823017D01*
X142530089Y-112823996D01*
X142530088Y-112823996D01*
X142333090Y-112857846D01*
X142333089Y-112857846D01*
X142327393Y-112858825D01*
X142129015Y-112932011D01*
X142124054Y-112934963D01*
X142124053Y-112934963D01*
X142106529Y-112945389D01*
X141947296Y-113040122D01*
X141788321Y-113179539D01*
X141657416Y-113345592D01*
X141654727Y-113350703D01*
X141654725Y-113350706D01*
X141604840Y-113445522D01*
X141558963Y-113532720D01*
X141496260Y-113734657D01*
X141471407Y-113944638D01*
X132747363Y-113944638D01*
X132653951Y-113717440D01*
X132652435Y-113713571D01*
X132647151Y-113699399D01*
X132414387Y-113075185D01*
X132250150Y-112634740D01*
X132248755Y-112630802D01*
X132042443Y-112015985D01*
X131882435Y-111539155D01*
X131881179Y-111535193D01*
X131877789Y-111523855D01*
X131691398Y-110900608D01*
X131551277Y-110432073D01*
X131550146Y-110428051D01*
X131319138Y-109550623D01*
X131256974Y-109314509D01*
X131255994Y-109310513D01*
X130999918Y-108187928D01*
X130999057Y-108183845D01*
X130780336Y-107053354D01*
X130779611Y-107049239D01*
X130643721Y-106196084D01*
X130598498Y-105912159D01*
X130597912Y-105908043D01*
X130568694Y-105675120D01*
X130454595Y-104765555D01*
X130454144Y-104761403D01*
X130421406Y-104405120D01*
X130348789Y-103614828D01*
X130348476Y-103610676D01*
X130324559Y-103202076D01*
X130281191Y-102461191D01*
X130281016Y-102457026D01*
X130280076Y-102419866D01*
X130271813Y-102093443D01*
X130268480Y-101961748D01*
X136363500Y-101961748D01*
X136375133Y-102020231D01*
X136419448Y-102086552D01*
X136485769Y-102130867D01*
X136497938Y-102133288D01*
X136497939Y-102133288D01*
X136538184Y-102141293D01*
X136544252Y-102142500D01*
X138283748Y-102142500D01*
X138289816Y-102141293D01*
X138330061Y-102133288D01*
X138330062Y-102133288D01*
X138342231Y-102130867D01*
X138408552Y-102086552D01*
X138452867Y-102020231D01*
X138464500Y-101961748D01*
X138464500Y-100222252D01*
X138452867Y-100163769D01*
X138442544Y-100148319D01*
X138415443Y-100107761D01*
X138408552Y-100097448D01*
X138342231Y-100053133D01*
X138330062Y-100050712D01*
X138330061Y-100050712D01*
X138289816Y-100042707D01*
X138283748Y-100041500D01*
X136544252Y-100041500D01*
X136538184Y-100042707D01*
X136497939Y-100050712D01*
X136497938Y-100050712D01*
X136485769Y-100053133D01*
X136419448Y-100097448D01*
X136412557Y-100107761D01*
X136385457Y-100148319D01*
X136375133Y-100163769D01*
X136363500Y-100222252D01*
X136363500Y-101961748D01*
X130268480Y-101961748D01*
X130251880Y-101305958D01*
X130251844Y-101301780D01*
X130260887Y-100150410D01*
X130260989Y-100146234D01*
X130308201Y-98995795D01*
X130308441Y-98991623D01*
X130342206Y-98537262D01*
X136358520Y-98537262D01*
X136375759Y-98742553D01*
X136432544Y-98940586D01*
X136435359Y-98946063D01*
X136435360Y-98946066D01*
X136460917Y-98995795D01*
X136526712Y-99123818D01*
X136654677Y-99285270D01*
X136811564Y-99418791D01*
X136991398Y-99519297D01*
X137086238Y-99550113D01*
X137181471Y-99581056D01*
X137181475Y-99581057D01*
X137187329Y-99582959D01*
X137391894Y-99607351D01*
X137398029Y-99606879D01*
X137398031Y-99606879D01*
X137454039Y-99602569D01*
X137597300Y-99591546D01*
X137603230Y-99589890D01*
X137603232Y-99589890D01*
X137789797Y-99537800D01*
X137789796Y-99537800D01*
X137795725Y-99536145D01*
X137801214Y-99533372D01*
X137801220Y-99533370D01*
X137974116Y-99446033D01*
X137979610Y-99443258D01*
X138141951Y-99316424D01*
X138276564Y-99160472D01*
X138297387Y-99123818D01*
X138315056Y-99092714D01*
X138378323Y-98981344D01*
X138443351Y-98785863D01*
X138469171Y-98581474D01*
X138469583Y-98552000D01*
X138449480Y-98346970D01*
X138389935Y-98149749D01*
X138293218Y-97967849D01*
X138219859Y-97877902D01*
X138166906Y-97812975D01*
X138166903Y-97812972D01*
X138163011Y-97808200D01*
X138145786Y-97793950D01*
X138009025Y-97680811D01*
X138009021Y-97680809D01*
X138004275Y-97676882D01*
X137823055Y-97578897D01*
X137626254Y-97517977D01*
X137620129Y-97517333D01*
X137620128Y-97517333D01*
X137427498Y-97497087D01*
X137427496Y-97497087D01*
X137421369Y-97496443D01*
X137334529Y-97504346D01*
X137222342Y-97514555D01*
X137222339Y-97514556D01*
X137216203Y-97515114D01*
X137018572Y-97573280D01*
X136836002Y-97668726D01*
X136831201Y-97672586D01*
X136831198Y-97672588D01*
X136820971Y-97680811D01*
X136675447Y-97797815D01*
X136543024Y-97955630D01*
X136540056Y-97961028D01*
X136540053Y-97961033D01*
X136533315Y-97973290D01*
X136443776Y-98136162D01*
X136381484Y-98332532D01*
X136380798Y-98338649D01*
X136380797Y-98338653D01*
X136359207Y-98531137D01*
X136358520Y-98537262D01*
X130342206Y-98537262D01*
X130393773Y-97843342D01*
X130394152Y-97839181D01*
X130517506Y-96694378D01*
X130518023Y-96690232D01*
X130580043Y-96251715D01*
X130616031Y-95997262D01*
X136358520Y-95997262D01*
X136359036Y-96003406D01*
X136373110Y-96171002D01*
X136375759Y-96202553D01*
X136377458Y-96208478D01*
X136430310Y-96392794D01*
X136432544Y-96400586D01*
X136435359Y-96406063D01*
X136435360Y-96406066D01*
X136456247Y-96446707D01*
X136526712Y-96583818D01*
X136654677Y-96745270D01*
X136811564Y-96878791D01*
X136991398Y-96979297D01*
X137086238Y-97010113D01*
X137181471Y-97041056D01*
X137181475Y-97041057D01*
X137187329Y-97042959D01*
X137391894Y-97067351D01*
X137398029Y-97066879D01*
X137398031Y-97066879D01*
X137454039Y-97062569D01*
X137597300Y-97051546D01*
X137603230Y-97049890D01*
X137603232Y-97049890D01*
X137789797Y-96997800D01*
X137789796Y-96997800D01*
X137795725Y-96996145D01*
X137801214Y-96993372D01*
X137801220Y-96993370D01*
X137974116Y-96906033D01*
X137979610Y-96903258D01*
X138141951Y-96776424D01*
X138216350Y-96690232D01*
X138272540Y-96625134D01*
X138272540Y-96625133D01*
X138276564Y-96620472D01*
X138297387Y-96583818D01*
X138375276Y-96446707D01*
X138378323Y-96441344D01*
X138443351Y-96245863D01*
X138469171Y-96041474D01*
X138469583Y-96012000D01*
X138449480Y-95806970D01*
X138389935Y-95609749D01*
X138293218Y-95427849D01*
X138197460Y-95310438D01*
X138166906Y-95272975D01*
X138166903Y-95272972D01*
X138163011Y-95268200D01*
X138145786Y-95253950D01*
X138009025Y-95140811D01*
X138009021Y-95140809D01*
X138004275Y-95136882D01*
X137823055Y-95038897D01*
X137626254Y-94977977D01*
X137620129Y-94977333D01*
X137620128Y-94977333D01*
X137427498Y-94957087D01*
X137427496Y-94957087D01*
X137421369Y-94956443D01*
X137334529Y-94964346D01*
X137222342Y-94974555D01*
X137222339Y-94974556D01*
X137216203Y-94975114D01*
X137018572Y-95033280D01*
X136836002Y-95128726D01*
X136831201Y-95132586D01*
X136831198Y-95132588D01*
X136820971Y-95140811D01*
X136675447Y-95257815D01*
X136543024Y-95415630D01*
X136540056Y-95421028D01*
X136540053Y-95421033D01*
X136470195Y-95548105D01*
X136443776Y-95596162D01*
X136381484Y-95792532D01*
X136380798Y-95798649D01*
X136380797Y-95798653D01*
X136371629Y-95880394D01*
X136358520Y-95997262D01*
X130616031Y-95997262D01*
X130679264Y-95550164D01*
X130679913Y-95546062D01*
X130878873Y-94411921D01*
X130879658Y-94407844D01*
X130881787Y-94397700D01*
X131116112Y-93280922D01*
X131117032Y-93276873D01*
X131133123Y-93211117D01*
X131287445Y-92580451D01*
X131390703Y-92158472D01*
X131391763Y-92154430D01*
X131686085Y-91103826D01*
X131702378Y-91045665D01*
X131703570Y-91041669D01*
X131707473Y-91029328D01*
X132050765Y-89943851D01*
X132052084Y-89939907D01*
X132059071Y-89920122D01*
X132435507Y-88854142D01*
X132436958Y-88850243D01*
X132856138Y-87777872D01*
X132857723Y-87774006D01*
X133312248Y-86716068D01*
X133313961Y-86712257D01*
X133503085Y-86309436D01*
X133803305Y-85669989D01*
X133805137Y-85666249D01*
X133942371Y-85397492D01*
X134328783Y-84640750D01*
X134330736Y-84637078D01*
X134331200Y-84636239D01*
X134888072Y-83629546D01*
X134890143Y-83625943D01*
X134891384Y-83623866D01*
X135480614Y-82637382D01*
X135482782Y-82633886D01*
X136105690Y-81665466D01*
X136108000Y-81662002D01*
X136114921Y-81651989D01*
X136733060Y-80757617D01*
X140675938Y-80757617D01*
X140677507Y-80769146D01*
X140677507Y-80769148D01*
X140679449Y-80783416D01*
X140680600Y-80800407D01*
X140680600Y-108153763D01*
X140680429Y-108156088D01*
X140678746Y-108160991D01*
X140679182Y-108172616D01*
X140679182Y-108172618D01*
X140680511Y-108208012D01*
X140680600Y-108212738D01*
X140680600Y-108230917D01*
X140681458Y-108235527D01*
X140681660Y-108238639D01*
X140682049Y-108248982D01*
X140682790Y-108268726D01*
X140687383Y-108279416D01*
X140688698Y-108285251D01*
X140691045Y-108292977D01*
X140693196Y-108298552D01*
X140695326Y-108309988D01*
X140701430Y-108319890D01*
X140707601Y-108329901D01*
X140716109Y-108346280D01*
X140721835Y-108359607D01*
X140725347Y-108367781D01*
X140729211Y-108372484D01*
X140731389Y-108374662D01*
X140733450Y-108376935D01*
X140733233Y-108377131D01*
X140738647Y-108383979D01*
X140745792Y-108391859D01*
X140751897Y-108401763D01*
X140761155Y-108408803D01*
X140761157Y-108408805D01*
X140772627Y-108417527D01*
X140785456Y-108428729D01*
X143777835Y-111421108D01*
X143779363Y-111422879D01*
X143781640Y-111427536D01*
X143790169Y-111435448D01*
X143790170Y-111435449D01*
X143816158Y-111459556D01*
X143819563Y-111462836D01*
X143832397Y-111475670D01*
X143836266Y-111478324D01*
X143838591Y-111480366D01*
X143860680Y-111500856D01*
X143871483Y-111505166D01*
X143876545Y-111508366D01*
X143883660Y-111512165D01*
X143889128Y-111514588D01*
X143898721Y-111521169D01*
X143921489Y-111526572D01*
X143939082Y-111532136D01*
X143952554Y-111537511D01*
X143952559Y-111537512D01*
X143960815Y-111540806D01*
X143966873Y-111541400D01*
X143969960Y-111541400D01*
X143973024Y-111541550D01*
X143973010Y-111541843D01*
X143981657Y-111542855D01*
X143992296Y-111543375D01*
X144003617Y-111546062D01*
X144015146Y-111544493D01*
X144015148Y-111544493D01*
X144029416Y-111542551D01*
X144046407Y-111541400D01*
X154790013Y-111541400D01*
X154858134Y-111561402D01*
X154877873Y-111578768D01*
X154878170Y-111578436D01*
X154884865Y-111584422D01*
X154890639Y-111591291D01*
X154998060Y-111662796D01*
X155121233Y-111701278D01*
X155130203Y-111701442D01*
X155130207Y-111701443D01*
X155188942Y-111702519D01*
X155250255Y-111703643D01*
X155312505Y-111686671D01*
X155366092Y-111672062D01*
X155366093Y-111672062D01*
X155374755Y-111669700D01*
X155382405Y-111665003D01*
X155382407Y-111665002D01*
X155477072Y-111606878D01*
X155477075Y-111606875D01*
X155484724Y-111602179D01*
X155490750Y-111595522D01*
X155565300Y-111513161D01*
X155565303Y-111513157D01*
X155571322Y-111506507D01*
X155627588Y-111390375D01*
X155648997Y-111263120D01*
X155649133Y-111252000D01*
X155630839Y-111124259D01*
X155577428Y-111006788D01*
X155522119Y-110942598D01*
X155499051Y-110915826D01*
X155499049Y-110915824D01*
X155493193Y-110909028D01*
X155384906Y-110838841D01*
X155376311Y-110836271D01*
X155376310Y-110836270D01*
X155269874Y-110804438D01*
X155269872Y-110804438D01*
X155261273Y-110801866D01*
X155252298Y-110801811D01*
X155252297Y-110801811D01*
X155197641Y-110801477D01*
X155132231Y-110801078D01*
X155120475Y-110804438D01*
X155016786Y-110834072D01*
X155016784Y-110834073D01*
X155008155Y-110836539D01*
X154899019Y-110905399D01*
X154886118Y-110920007D01*
X154826033Y-110957826D01*
X154791676Y-110962600D01*
X144190063Y-110962600D01*
X144121942Y-110942598D01*
X144100968Y-110925695D01*
X141296305Y-108121031D01*
X141262279Y-108058719D01*
X141259400Y-108031936D01*
X141259400Y-93974440D01*
X143054901Y-93974440D01*
X143056065Y-93983342D01*
X143056065Y-93983345D01*
X143070468Y-94093489D01*
X143070469Y-94093493D01*
X143071633Y-94102394D01*
X143123605Y-94220510D01*
X143129382Y-94227383D01*
X143129383Y-94227384D01*
X143162834Y-94267179D01*
X143206639Y-94319291D01*
X143314060Y-94390796D01*
X143437233Y-94429278D01*
X143446203Y-94429442D01*
X143446207Y-94429443D01*
X143504942Y-94430519D01*
X143566255Y-94431643D01*
X143653548Y-94407844D01*
X143682092Y-94400062D01*
X143682093Y-94400062D01*
X143690755Y-94397700D01*
X143698405Y-94393003D01*
X143698407Y-94393002D01*
X143793072Y-94334878D01*
X143793075Y-94334875D01*
X143800724Y-94330179D01*
X143806750Y-94323522D01*
X143881300Y-94241161D01*
X143881303Y-94241157D01*
X143887322Y-94234507D01*
X143943588Y-94118375D01*
X143952829Y-94063450D01*
X143964190Y-93995917D01*
X143964997Y-93991120D01*
X143965133Y-93980000D01*
X143964337Y-93974440D01*
X147880901Y-93974440D01*
X147882065Y-93983342D01*
X147882065Y-93983345D01*
X147896468Y-94093489D01*
X147896469Y-94093493D01*
X147897633Y-94102394D01*
X147949605Y-94220510D01*
X147955382Y-94227383D01*
X147955383Y-94227384D01*
X147988834Y-94267179D01*
X148032639Y-94319291D01*
X148140060Y-94390796D01*
X148263233Y-94429278D01*
X148272203Y-94429442D01*
X148272207Y-94429443D01*
X148330942Y-94430519D01*
X148392255Y-94431643D01*
X148479548Y-94407844D01*
X148508092Y-94400062D01*
X148508093Y-94400062D01*
X148516755Y-94397700D01*
X148524405Y-94393003D01*
X148524407Y-94393002D01*
X148619072Y-94334878D01*
X148619075Y-94334875D01*
X148626724Y-94330179D01*
X148632750Y-94323522D01*
X148707300Y-94241161D01*
X148707303Y-94241157D01*
X148713322Y-94234507D01*
X148769588Y-94118375D01*
X148778829Y-94063450D01*
X148790190Y-93995917D01*
X148790997Y-93991120D01*
X148791133Y-93980000D01*
X148781421Y-93912184D01*
X148781314Y-93911440D01*
X150166901Y-93911440D01*
X150168065Y-93920342D01*
X150168065Y-93920345D01*
X150182468Y-94030489D01*
X150182469Y-94030493D01*
X150183633Y-94039394D01*
X150235605Y-94157510D01*
X150318639Y-94256291D01*
X150426060Y-94327796D01*
X150549233Y-94366278D01*
X150558203Y-94366442D01*
X150558207Y-94366443D01*
X150616942Y-94367519D01*
X150678255Y-94368643D01*
X150740505Y-94351671D01*
X150794092Y-94337062D01*
X150794093Y-94337062D01*
X150802755Y-94334700D01*
X150810405Y-94330003D01*
X150810407Y-94330002D01*
X150905072Y-94271878D01*
X150905075Y-94271875D01*
X150912724Y-94267179D01*
X150918750Y-94260522D01*
X150993300Y-94178161D01*
X150993303Y-94178157D01*
X150999322Y-94171507D01*
X151055588Y-94055375D01*
X151067452Y-93984859D01*
X151076190Y-93932917D01*
X151076997Y-93928120D01*
X151077133Y-93917000D01*
X151067861Y-93852259D01*
X151060112Y-93798145D01*
X151060111Y-93798142D01*
X151058839Y-93789259D01*
X151037789Y-93742962D01*
X151009145Y-93679962D01*
X151009143Y-93679959D01*
X151005428Y-93671788D01*
X150921193Y-93574028D01*
X150812906Y-93503841D01*
X150804311Y-93501271D01*
X150804310Y-93501270D01*
X150697874Y-93469438D01*
X150697872Y-93469438D01*
X150689273Y-93466866D01*
X150680298Y-93466811D01*
X150680297Y-93466811D01*
X150625641Y-93466477D01*
X150560231Y-93466078D01*
X150548475Y-93469438D01*
X150444786Y-93499072D01*
X150444784Y-93499073D01*
X150436155Y-93501539D01*
X150428565Y-93506328D01*
X150392509Y-93529078D01*
X150327019Y-93570399D01*
X150321076Y-93577128D01*
X150321075Y-93577129D01*
X150275610Y-93628608D01*
X150241596Y-93667122D01*
X150237782Y-93675245D01*
X150237781Y-93675247D01*
X150215176Y-93723394D01*
X150186754Y-93783932D01*
X150185374Y-93792798D01*
X150168282Y-93902567D01*
X150168282Y-93902571D01*
X150166901Y-93911440D01*
X148781314Y-93911440D01*
X148774112Y-93861145D01*
X148774111Y-93861142D01*
X148772839Y-93852259D01*
X148744195Y-93789259D01*
X148723145Y-93742962D01*
X148723143Y-93742959D01*
X148719428Y-93734788D01*
X148672187Y-93679962D01*
X148641051Y-93643826D01*
X148641049Y-93643824D01*
X148635193Y-93637028D01*
X148526906Y-93566841D01*
X148518311Y-93564271D01*
X148518310Y-93564270D01*
X148411874Y-93532438D01*
X148411872Y-93532438D01*
X148403273Y-93529866D01*
X148394298Y-93529811D01*
X148394297Y-93529811D01*
X148339641Y-93529477D01*
X148274231Y-93529078D01*
X148262475Y-93532438D01*
X148158786Y-93562072D01*
X148158784Y-93562073D01*
X148150155Y-93564539D01*
X148041019Y-93633399D01*
X147955596Y-93730122D01*
X147951782Y-93738245D01*
X147951781Y-93738247D01*
X147934146Y-93775809D01*
X147900754Y-93846932D01*
X147899374Y-93855798D01*
X147882282Y-93965567D01*
X147882282Y-93965571D01*
X147880901Y-93974440D01*
X143964337Y-93974440D01*
X143955421Y-93912184D01*
X143948112Y-93861145D01*
X143948111Y-93861142D01*
X143946839Y-93852259D01*
X143918195Y-93789259D01*
X143897145Y-93742962D01*
X143897143Y-93742959D01*
X143893428Y-93734788D01*
X143846187Y-93679962D01*
X143815051Y-93643826D01*
X143815049Y-93643824D01*
X143809193Y-93637028D01*
X143700906Y-93566841D01*
X143692311Y-93564271D01*
X143692310Y-93564270D01*
X143585874Y-93532438D01*
X143585872Y-93532438D01*
X143577273Y-93529866D01*
X143568298Y-93529811D01*
X143568297Y-93529811D01*
X143513641Y-93529477D01*
X143448231Y-93529078D01*
X143436475Y-93532438D01*
X143332786Y-93562072D01*
X143332784Y-93562073D01*
X143324155Y-93564539D01*
X143215019Y-93633399D01*
X143129596Y-93730122D01*
X143125782Y-93738245D01*
X143125781Y-93738247D01*
X143108146Y-93775809D01*
X143074754Y-93846932D01*
X143073374Y-93855798D01*
X143056282Y-93965567D01*
X143056282Y-93965571D01*
X143054901Y-93974440D01*
X141259400Y-93974440D01*
X141259400Y-89910440D01*
X143054901Y-89910440D01*
X143056065Y-89919342D01*
X143056065Y-89919345D01*
X143070468Y-90029489D01*
X143070469Y-90029493D01*
X143071633Y-90038394D01*
X143123605Y-90156510D01*
X143129382Y-90163383D01*
X143129383Y-90163384D01*
X143135371Y-90170507D01*
X143206639Y-90255291D01*
X143314060Y-90326796D01*
X143437233Y-90365278D01*
X143446203Y-90365442D01*
X143446207Y-90365443D01*
X143504942Y-90366519D01*
X143566255Y-90367643D01*
X143628505Y-90350671D01*
X143682092Y-90336062D01*
X143682093Y-90336062D01*
X143690755Y-90333700D01*
X143698405Y-90329003D01*
X143698407Y-90329002D01*
X143793072Y-90270878D01*
X143793075Y-90270875D01*
X143800724Y-90266179D01*
X143806750Y-90259522D01*
X143881300Y-90177161D01*
X143881303Y-90177157D01*
X143887322Y-90170507D01*
X143943588Y-90054375D01*
X143949897Y-90016878D01*
X143964190Y-89931917D01*
X143964997Y-89927120D01*
X143965133Y-89916000D01*
X143964337Y-89910440D01*
X145594901Y-89910440D01*
X145596065Y-89919342D01*
X145596065Y-89919345D01*
X145610468Y-90029489D01*
X145610469Y-90029493D01*
X145611633Y-90038394D01*
X145663605Y-90156510D01*
X145669382Y-90163383D01*
X145669383Y-90163384D01*
X145675371Y-90170507D01*
X145746639Y-90255291D01*
X145854060Y-90326796D01*
X145977233Y-90365278D01*
X145986203Y-90365442D01*
X145986207Y-90365443D01*
X146044942Y-90366519D01*
X146106255Y-90367643D01*
X146168505Y-90350671D01*
X146222092Y-90336062D01*
X146222093Y-90336062D01*
X146230755Y-90333700D01*
X146238405Y-90329003D01*
X146238407Y-90329002D01*
X146333072Y-90270878D01*
X146333075Y-90270875D01*
X146340724Y-90266179D01*
X146346750Y-90259522D01*
X146421300Y-90177161D01*
X146421303Y-90177157D01*
X146427322Y-90170507D01*
X146447157Y-90129568D01*
X146494860Y-90076985D01*
X146563418Y-90058540D01*
X146612052Y-90070128D01*
X146616060Y-90072796D01*
X146624632Y-90075474D01*
X146624634Y-90075475D01*
X146730664Y-90108601D01*
X146739233Y-90111278D01*
X146748203Y-90111442D01*
X146748207Y-90111443D01*
X146806942Y-90112519D01*
X146868255Y-90113643D01*
X146930505Y-90096672D01*
X146984092Y-90082062D01*
X146984093Y-90082062D01*
X146992755Y-90079700D01*
X147000405Y-90075003D01*
X147000407Y-90075002D01*
X147095072Y-90016878D01*
X147095075Y-90016875D01*
X147102724Y-90012179D01*
X147108920Y-90005334D01*
X147183300Y-89923161D01*
X147183303Y-89923157D01*
X147189322Y-89916507D01*
X147245588Y-89800375D01*
X147247627Y-89788259D01*
X147266190Y-89677917D01*
X147266997Y-89673120D01*
X147267133Y-89662000D01*
X147255365Y-89579826D01*
X147250112Y-89543145D01*
X147250111Y-89543142D01*
X147248839Y-89534259D01*
X147236773Y-89507721D01*
X147199145Y-89424962D01*
X147199143Y-89424959D01*
X147195428Y-89416788D01*
X147111193Y-89319028D01*
X147002906Y-89248841D01*
X146994311Y-89246271D01*
X146994310Y-89246270D01*
X146887874Y-89214438D01*
X146887872Y-89214438D01*
X146879273Y-89211866D01*
X146870298Y-89211811D01*
X146870297Y-89211811D01*
X146815641Y-89211477D01*
X146750231Y-89211078D01*
X146738475Y-89214438D01*
X146634786Y-89244072D01*
X146634784Y-89244073D01*
X146626155Y-89246539D01*
X146517019Y-89315399D01*
X146431596Y-89412122D01*
X146427781Y-89420247D01*
X146427780Y-89420249D01*
X146415285Y-89446863D01*
X146368229Y-89500025D01*
X146299902Y-89519308D01*
X146248404Y-89507701D01*
X146240906Y-89502841D01*
X146232311Y-89500271D01*
X146232310Y-89500270D01*
X146125874Y-89468438D01*
X146125872Y-89468438D01*
X146117273Y-89465866D01*
X146108298Y-89465811D01*
X146108297Y-89465811D01*
X146053641Y-89465477D01*
X145988231Y-89465078D01*
X145976475Y-89468438D01*
X145872786Y-89498072D01*
X145872784Y-89498073D01*
X145864155Y-89500539D01*
X145856565Y-89505328D01*
X145770637Y-89559545D01*
X145755019Y-89569399D01*
X145669596Y-89666122D01*
X145665782Y-89674245D01*
X145665781Y-89674247D01*
X145639794Y-89729598D01*
X145614754Y-89782932D01*
X145605626Y-89841558D01*
X145596282Y-89901567D01*
X145596282Y-89901571D01*
X145594901Y-89910440D01*
X143964337Y-89910440D01*
X143952835Y-89830129D01*
X143948112Y-89797145D01*
X143948111Y-89797142D01*
X143946839Y-89788259D01*
X143940724Y-89774809D01*
X143897145Y-89678962D01*
X143897143Y-89678959D01*
X143893428Y-89670788D01*
X143867625Y-89640842D01*
X143815051Y-89579826D01*
X143815049Y-89579824D01*
X143809193Y-89573028D01*
X143700906Y-89502841D01*
X143692311Y-89500271D01*
X143692310Y-89500270D01*
X143585874Y-89468438D01*
X143585872Y-89468438D01*
X143577273Y-89465866D01*
X143568298Y-89465811D01*
X143568297Y-89465811D01*
X143513641Y-89465477D01*
X143448231Y-89465078D01*
X143436475Y-89468438D01*
X143332786Y-89498072D01*
X143332784Y-89498073D01*
X143324155Y-89500539D01*
X143316565Y-89505328D01*
X143230637Y-89559545D01*
X143215019Y-89569399D01*
X143129596Y-89666122D01*
X143125782Y-89674245D01*
X143125781Y-89674247D01*
X143099794Y-89729598D01*
X143074754Y-89782932D01*
X143065626Y-89841558D01*
X143056282Y-89901567D01*
X143056282Y-89901571D01*
X143054901Y-89910440D01*
X141259400Y-89910440D01*
X141259400Y-80944064D01*
X141279402Y-80875943D01*
X141296309Y-80854964D01*
X141306974Y-80844300D01*
X141369288Y-80810278D01*
X141396065Y-80807400D01*
X141582013Y-80807400D01*
X141650134Y-80827402D01*
X141669873Y-80844768D01*
X141670170Y-80844436D01*
X141676865Y-80850422D01*
X141682639Y-80857291D01*
X141690110Y-80862264D01*
X141690111Y-80862265D01*
X141734591Y-80891873D01*
X141790060Y-80928796D01*
X141913233Y-80967278D01*
X141922203Y-80967442D01*
X141922207Y-80967443D01*
X141980942Y-80968519D01*
X142042255Y-80969643D01*
X142136077Y-80944064D01*
X142158092Y-80938062D01*
X142158093Y-80938062D01*
X142166755Y-80935700D01*
X142174405Y-80931003D01*
X142174407Y-80931002D01*
X142264079Y-80875943D01*
X142276724Y-80868179D01*
X142282750Y-80861522D01*
X142286604Y-80858322D01*
X142351793Y-80830198D01*
X142421838Y-80841782D01*
X142444143Y-80856701D01*
X142444639Y-80857291D01*
X142544959Y-80924069D01*
X142590581Y-80978466D01*
X142599553Y-81048893D01*
X142569024Y-81112991D01*
X142542376Y-81135517D01*
X142460616Y-81187104D01*
X142460609Y-81187110D01*
X142453019Y-81191899D01*
X142367596Y-81288622D01*
X142363782Y-81296745D01*
X142363781Y-81296747D01*
X142337794Y-81352098D01*
X142312754Y-81405432D01*
X142311374Y-81414298D01*
X142294282Y-81524067D01*
X142294282Y-81524071D01*
X142292901Y-81532940D01*
X142294065Y-81541842D01*
X142294065Y-81541845D01*
X142308468Y-81651989D01*
X142308469Y-81651993D01*
X142309633Y-81660894D01*
X142313250Y-81669114D01*
X142347963Y-81748005D01*
X142361605Y-81779010D01*
X142444639Y-81877791D01*
X142552060Y-81949296D01*
X142640938Y-81977064D01*
X142661358Y-81983443D01*
X142675233Y-81987778D01*
X142684203Y-81987942D01*
X142684207Y-81987943D01*
X142742942Y-81989019D01*
X142804255Y-81990143D01*
X142866505Y-81973171D01*
X142920092Y-81958562D01*
X142920093Y-81958562D01*
X142928755Y-81956200D01*
X142936405Y-81951503D01*
X142936407Y-81951502D01*
X143031072Y-81893378D01*
X143031075Y-81893375D01*
X143038724Y-81888679D01*
X143048148Y-81878268D01*
X143119300Y-81799661D01*
X143119303Y-81799657D01*
X143125322Y-81793007D01*
X143181588Y-81676875D01*
X143183506Y-81665478D01*
X143202190Y-81554417D01*
X143202997Y-81549620D01*
X143203133Y-81538500D01*
X143184839Y-81410759D01*
X143131428Y-81293288D01*
X143047193Y-81195528D01*
X143021054Y-81178586D01*
X142951294Y-81133370D01*
X142905010Y-81079534D01*
X142895179Y-81009221D01*
X142924923Y-80944755D01*
X142953898Y-80920262D01*
X142967761Y-80911750D01*
X143038724Y-80868179D01*
X143044750Y-80861522D01*
X143048604Y-80858322D01*
X143113793Y-80830198D01*
X143183838Y-80841782D01*
X143206143Y-80856701D01*
X143206639Y-80857291D01*
X143214110Y-80862264D01*
X143214111Y-80862265D01*
X143258591Y-80891873D01*
X143314060Y-80928796D01*
X143437233Y-80967278D01*
X143446203Y-80967442D01*
X143446207Y-80967443D01*
X143504942Y-80968519D01*
X143566255Y-80969643D01*
X143660077Y-80944064D01*
X143682092Y-80938062D01*
X143682093Y-80938062D01*
X143690755Y-80935700D01*
X143698405Y-80931003D01*
X143698407Y-80931002D01*
X143793072Y-80872878D01*
X143793075Y-80872875D01*
X143800724Y-80868179D01*
X143806315Y-80862002D01*
X143871204Y-80834008D01*
X143941250Y-80845593D01*
X143993912Y-80893207D01*
X144012500Y-80959076D01*
X144012500Y-83886950D01*
X143992498Y-83955071D01*
X143938842Y-84001564D01*
X143868568Y-84011668D01*
X143809491Y-83984569D01*
X143809193Y-83985028D01*
X143806049Y-83982990D01*
X143806048Y-83982990D01*
X143700906Y-83914841D01*
X143692311Y-83912271D01*
X143692310Y-83912270D01*
X143585874Y-83880438D01*
X143585872Y-83880438D01*
X143577273Y-83877866D01*
X143568298Y-83877811D01*
X143568297Y-83877811D01*
X143513641Y-83877477D01*
X143448231Y-83877078D01*
X143386193Y-83894808D01*
X143332786Y-83910072D01*
X143332784Y-83910073D01*
X143324155Y-83912539D01*
X143215019Y-83981399D01*
X143129596Y-84078122D01*
X143125782Y-84086245D01*
X143125781Y-84086247D01*
X143104733Y-84131078D01*
X143074754Y-84194932D01*
X143069266Y-84230180D01*
X143056282Y-84313567D01*
X143056282Y-84313571D01*
X143054901Y-84322440D01*
X143056065Y-84331342D01*
X143056065Y-84331345D01*
X143070468Y-84441489D01*
X143070469Y-84441493D01*
X143071633Y-84450394D01*
X143123605Y-84568510D01*
X143129382Y-84575383D01*
X143129383Y-84575384D01*
X143180537Y-84636239D01*
X143206639Y-84667291D01*
X143314060Y-84738796D01*
X143437233Y-84777278D01*
X143446203Y-84777442D01*
X143446207Y-84777443D01*
X143504942Y-84778519D01*
X143566255Y-84779643D01*
X143668744Y-84751701D01*
X143682092Y-84748062D01*
X143682093Y-84748062D01*
X143690755Y-84745700D01*
X143698405Y-84741003D01*
X143698407Y-84741002D01*
X143793072Y-84682878D01*
X143793075Y-84682875D01*
X143800724Y-84678179D01*
X143810580Y-84667291D01*
X143842419Y-84632115D01*
X143902962Y-84595034D01*
X143973942Y-84596571D01*
X144032823Y-84636239D01*
X144055386Y-84676878D01*
X144070290Y-84721657D01*
X144149308Y-84844612D01*
X144195801Y-84898268D01*
X144199192Y-84901206D01*
X144299450Y-84988081D01*
X144299453Y-84988083D01*
X144306261Y-84993982D01*
X144314459Y-84997726D01*
X144323954Y-85002062D01*
X144439210Y-85054698D01*
X144462964Y-85061673D01*
X144503008Y-85073431D01*
X144503012Y-85073432D01*
X144507331Y-85074700D01*
X144511780Y-85075340D01*
X144511786Y-85075341D01*
X144647553Y-85094861D01*
X144647558Y-85094861D01*
X144652000Y-85095500D01*
X147575000Y-85095500D01*
X147578346Y-85095140D01*
X147578351Y-85095140D01*
X147680785Y-85084128D01*
X147680792Y-85084127D01*
X147684149Y-85083766D01*
X147687450Y-85083048D01*
X147733210Y-85073094D01*
X147733215Y-85073093D01*
X147736491Y-85072380D01*
X147840657Y-85037710D01*
X147963612Y-84958692D01*
X148001032Y-84926268D01*
X148013875Y-84915139D01*
X148017268Y-84912199D01*
X148072888Y-84848010D01*
X148107081Y-84808550D01*
X148107083Y-84808547D01*
X148112982Y-84801739D01*
X148173698Y-84668790D01*
X148193700Y-84600669D01*
X148194511Y-84595034D01*
X148213861Y-84460447D01*
X148213861Y-84460442D01*
X148214500Y-84456000D01*
X148214500Y-83853220D01*
X148234502Y-83785099D01*
X148288158Y-83738606D01*
X148358432Y-83728502D01*
X148423012Y-83757996D01*
X148447791Y-83791579D01*
X148449247Y-83790673D01*
X148453988Y-83798290D01*
X148457605Y-83806510D01*
X148463382Y-83813383D01*
X148463383Y-83813384D01*
X148516970Y-83877133D01*
X148540639Y-83905291D01*
X148648060Y-83976796D01*
X148759678Y-84011668D01*
X148767021Y-84013962D01*
X148826078Y-84053368D01*
X148854455Y-84118447D01*
X148843143Y-84188536D01*
X148811113Y-84230180D01*
X148810604Y-84230613D01*
X148803019Y-84235399D01*
X148717596Y-84332122D01*
X148713782Y-84340245D01*
X148713781Y-84340247D01*
X148698465Y-84372870D01*
X148662754Y-84448932D01*
X148656753Y-84487473D01*
X148644282Y-84567567D01*
X148644282Y-84567571D01*
X148642901Y-84576440D01*
X148644065Y-84585342D01*
X148644065Y-84585345D01*
X148658468Y-84695489D01*
X148658469Y-84695493D01*
X148659633Y-84704394D01*
X148663250Y-84712614D01*
X148702466Y-84801739D01*
X148711605Y-84822510D01*
X148717382Y-84829383D01*
X148717383Y-84829384D01*
X148733040Y-84848010D01*
X148794639Y-84921291D01*
X148902060Y-84992796D01*
X149025233Y-85031278D01*
X149034203Y-85031442D01*
X149034207Y-85031443D01*
X149092942Y-85032519D01*
X149154255Y-85033643D01*
X149216505Y-85016672D01*
X149270092Y-85002062D01*
X149270093Y-85002062D01*
X149278755Y-84999700D01*
X149286405Y-84995003D01*
X149286407Y-84995002D01*
X149381072Y-84936878D01*
X149381075Y-84936875D01*
X149388724Y-84932179D01*
X149394750Y-84925522D01*
X149469300Y-84843161D01*
X149469303Y-84843157D01*
X149475322Y-84836507D01*
X149531588Y-84720375D01*
X149537897Y-84682878D01*
X149552190Y-84597917D01*
X149552997Y-84593120D01*
X149553133Y-84582000D01*
X149539528Y-84487002D01*
X149536112Y-84463145D01*
X149536111Y-84463142D01*
X149534839Y-84454259D01*
X149528724Y-84440809D01*
X149485145Y-84344962D01*
X149485143Y-84344959D01*
X149481428Y-84336788D01*
X149397193Y-84239028D01*
X149288906Y-84168841D01*
X149280311Y-84166271D01*
X149280310Y-84166270D01*
X149175726Y-84134992D01*
X149116193Y-84096310D01*
X149087023Y-84031582D01*
X149097479Y-83961360D01*
X149129998Y-83919081D01*
X149134724Y-83916179D01*
X149140749Y-83909523D01*
X149215300Y-83827161D01*
X149215303Y-83827157D01*
X149221322Y-83820507D01*
X149277588Y-83704375D01*
X149284191Y-83665130D01*
X149298190Y-83581917D01*
X149298997Y-83577120D01*
X149299133Y-83566000D01*
X149280839Y-83438259D01*
X149257580Y-83387104D01*
X149231145Y-83328962D01*
X149231143Y-83328959D01*
X149227428Y-83320788D01*
X149143193Y-83223028D01*
X149034906Y-83152841D01*
X149026311Y-83150271D01*
X149026310Y-83150270D01*
X148919874Y-83118438D01*
X148919872Y-83118438D01*
X148911273Y-83115866D01*
X148902298Y-83115811D01*
X148902297Y-83115811D01*
X148847641Y-83115477D01*
X148782231Y-83115078D01*
X148770475Y-83118438D01*
X148666786Y-83148072D01*
X148666784Y-83148073D01*
X148658155Y-83150539D01*
X148549019Y-83219399D01*
X148463596Y-83316122D01*
X148459781Y-83324247D01*
X148459780Y-83324249D01*
X148454555Y-83335378D01*
X148407499Y-83388540D01*
X148339171Y-83407823D01*
X148271265Y-83387104D01*
X148225341Y-83332961D01*
X148214500Y-83281830D01*
X148214500Y-82300500D01*
X148234502Y-82232379D01*
X148288158Y-82185886D01*
X148340500Y-82174500D01*
X148972000Y-82174500D01*
X148975346Y-82174140D01*
X148975351Y-82174140D01*
X149077785Y-82163128D01*
X149077792Y-82163127D01*
X149081149Y-82162766D01*
X149084450Y-82162048D01*
X149130210Y-82152094D01*
X149130215Y-82152093D01*
X149133491Y-82151380D01*
X149211460Y-82125429D01*
X149230182Y-82119198D01*
X149237657Y-82116710D01*
X149360612Y-82037692D01*
X149364011Y-82034747D01*
X149367615Y-82032049D01*
X149368642Y-82033421D01*
X149426666Y-82006921D01*
X149496941Y-82017024D01*
X149550597Y-82063516D01*
X149570600Y-82131638D01*
X149570600Y-82245763D01*
X149570429Y-82248088D01*
X149568746Y-82252991D01*
X149569182Y-82264616D01*
X149569182Y-82264618D01*
X149570511Y-82300012D01*
X149570600Y-82304738D01*
X149570600Y-82322917D01*
X149571458Y-82327527D01*
X149571660Y-82330639D01*
X149571880Y-82336480D01*
X149572790Y-82360726D01*
X149577383Y-82371416D01*
X149578698Y-82377251D01*
X149581045Y-82384977D01*
X149583196Y-82390552D01*
X149585326Y-82401988D01*
X149591430Y-82411890D01*
X149597601Y-82421901D01*
X149606109Y-82438280D01*
X149608572Y-82444012D01*
X149615347Y-82459781D01*
X149619211Y-82464484D01*
X149621389Y-82466662D01*
X149623450Y-82468935D01*
X149623233Y-82469131D01*
X149628647Y-82475980D01*
X149635794Y-82483862D01*
X149641897Y-82493763D01*
X149651156Y-82500804D01*
X149651157Y-82500805D01*
X149662622Y-82509523D01*
X149675449Y-82520723D01*
X149787695Y-82632969D01*
X149821721Y-82695281D01*
X149824600Y-82722064D01*
X149824600Y-89199603D01*
X149804598Y-89267724D01*
X149750942Y-89314217D01*
X149680668Y-89324321D01*
X149630068Y-89305336D01*
X149542906Y-89248841D01*
X149534311Y-89246271D01*
X149534310Y-89246270D01*
X149427874Y-89214438D01*
X149427872Y-89214438D01*
X149419273Y-89211866D01*
X149410298Y-89211811D01*
X149410297Y-89211811D01*
X149355641Y-89211477D01*
X149290231Y-89211078D01*
X149278475Y-89214438D01*
X149174786Y-89244072D01*
X149174784Y-89244073D01*
X149166155Y-89246539D01*
X149057019Y-89315399D01*
X148971596Y-89412122D01*
X148967781Y-89420247D01*
X148967780Y-89420249D01*
X148955285Y-89446863D01*
X148908229Y-89500025D01*
X148839902Y-89519308D01*
X148788404Y-89507701D01*
X148780906Y-89502841D01*
X148772311Y-89500271D01*
X148772310Y-89500270D01*
X148665874Y-89468438D01*
X148665872Y-89468438D01*
X148657273Y-89465866D01*
X148648298Y-89465811D01*
X148648297Y-89465811D01*
X148593641Y-89465477D01*
X148528231Y-89465078D01*
X148516475Y-89468438D01*
X148412786Y-89498072D01*
X148412784Y-89498073D01*
X148404155Y-89500539D01*
X148396565Y-89505328D01*
X148310637Y-89559545D01*
X148295019Y-89569399D01*
X148209596Y-89666122D01*
X148205782Y-89674245D01*
X148205781Y-89674247D01*
X148179794Y-89729598D01*
X148154754Y-89782932D01*
X148145626Y-89841558D01*
X148136282Y-89901567D01*
X148136282Y-89901571D01*
X148134901Y-89910440D01*
X148136065Y-89919342D01*
X148136065Y-89919345D01*
X148150468Y-90029489D01*
X148150469Y-90029493D01*
X148151633Y-90038394D01*
X148203605Y-90156510D01*
X148209382Y-90163383D01*
X148209383Y-90163384D01*
X148215371Y-90170507D01*
X148286639Y-90255291D01*
X148394060Y-90326796D01*
X148517233Y-90365278D01*
X148526203Y-90365442D01*
X148526207Y-90365443D01*
X148584942Y-90366519D01*
X148646255Y-90367643D01*
X148708505Y-90350671D01*
X148762092Y-90336062D01*
X148762093Y-90336062D01*
X148770755Y-90333700D01*
X148778405Y-90329003D01*
X148778407Y-90329002D01*
X148873072Y-90270878D01*
X148873075Y-90270875D01*
X148880724Y-90266179D01*
X148886750Y-90259522D01*
X148961300Y-90177161D01*
X148961303Y-90177157D01*
X148967322Y-90170507D01*
X148987157Y-90129568D01*
X149034860Y-90076985D01*
X149103418Y-90058540D01*
X149152052Y-90070128D01*
X149156060Y-90072796D01*
X149164632Y-90075474D01*
X149164634Y-90075475D01*
X149270664Y-90108601D01*
X149279233Y-90111278D01*
X149288203Y-90111442D01*
X149288207Y-90111443D01*
X149346942Y-90112519D01*
X149408255Y-90113643D01*
X149470505Y-90096672D01*
X149524092Y-90082062D01*
X149524093Y-90082062D01*
X149532755Y-90079700D01*
X149540405Y-90075003D01*
X149540407Y-90075002D01*
X149632672Y-90018351D01*
X149701189Y-89999753D01*
X149768884Y-90021150D01*
X149814265Y-90075750D01*
X149824600Y-90125726D01*
X149824600Y-91643763D01*
X149824429Y-91646088D01*
X149822746Y-91650991D01*
X149823182Y-91662616D01*
X149823182Y-91662618D01*
X149824511Y-91698012D01*
X149824600Y-91702738D01*
X149824600Y-91720917D01*
X149825458Y-91725527D01*
X149825660Y-91728639D01*
X149826790Y-91758726D01*
X149831383Y-91769416D01*
X149832698Y-91775251D01*
X149835045Y-91782977D01*
X149837196Y-91788552D01*
X149839326Y-91799988D01*
X149845430Y-91809890D01*
X149851601Y-91819901D01*
X149860109Y-91836280D01*
X149865835Y-91849607D01*
X149869347Y-91857781D01*
X149873211Y-91862484D01*
X149875389Y-91864662D01*
X149877450Y-91866935D01*
X149877233Y-91867131D01*
X149882647Y-91873979D01*
X149889792Y-91881859D01*
X149895897Y-91891763D01*
X149905155Y-91898803D01*
X149905157Y-91898805D01*
X149916627Y-91907527D01*
X149929456Y-91918729D01*
X160230039Y-102219312D01*
X160264065Y-102281624D01*
X160259000Y-102352439D01*
X160216453Y-102409275D01*
X160175569Y-102429556D01*
X160096786Y-102452072D01*
X160096784Y-102452073D01*
X160088155Y-102454539D01*
X159979019Y-102523399D01*
X159893596Y-102620122D01*
X159889782Y-102628245D01*
X159889781Y-102628247D01*
X159863794Y-102683598D01*
X159838754Y-102736932D01*
X159837374Y-102745798D01*
X159820282Y-102855567D01*
X159820282Y-102855571D01*
X159818901Y-102864440D01*
X159820065Y-102873342D01*
X159820065Y-102873345D01*
X159834468Y-102983489D01*
X159834469Y-102983493D01*
X159835633Y-102992394D01*
X159887605Y-103110510D01*
X159893382Y-103117383D01*
X159893383Y-103117384D01*
X159955051Y-103190747D01*
X159983572Y-103255763D01*
X159984600Y-103271822D01*
X159984600Y-107523936D01*
X159964598Y-107592057D01*
X159947695Y-107613031D01*
X153500887Y-114059839D01*
X153499120Y-114061364D01*
X153494464Y-114063640D01*
X153463094Y-114097458D01*
X153462457Y-114098144D01*
X153459177Y-114101549D01*
X153446330Y-114114396D01*
X153443675Y-114118266D01*
X153441617Y-114120610D01*
X153421144Y-114142680D01*
X153416833Y-114153485D01*
X153413632Y-114158549D01*
X153409835Y-114165660D01*
X153407412Y-114171128D01*
X153400831Y-114180721D01*
X153398145Y-114192041D01*
X153395428Y-114203489D01*
X153389864Y-114221082D01*
X153384489Y-114234554D01*
X153384488Y-114234559D01*
X153381194Y-114242815D01*
X153380600Y-114248873D01*
X153380600Y-114251960D01*
X153380450Y-114255024D01*
X153380157Y-114255010D01*
X153379145Y-114263657D01*
X153378625Y-114274296D01*
X153375938Y-114285617D01*
X153377507Y-114297146D01*
X153377507Y-114297148D01*
X153379449Y-114311416D01*
X153380600Y-114328407D01*
X153380600Y-120949603D01*
X153360598Y-121017724D01*
X153306942Y-121064217D01*
X153236668Y-121074321D01*
X153186068Y-121055336D01*
X153159961Y-121038414D01*
X153127086Y-121017106D01*
X153080803Y-120963271D01*
X153071365Y-120890470D01*
X153089304Y-120783839D01*
X153090111Y-120779042D01*
X153090247Y-120767922D01*
X153074952Y-120661120D01*
X153073226Y-120649067D01*
X153073225Y-120649064D01*
X153071953Y-120640181D01*
X153044191Y-120579122D01*
X153022259Y-120530884D01*
X153022257Y-120530881D01*
X153018542Y-120522710D01*
X152961439Y-120456438D01*
X152940165Y-120431748D01*
X152940163Y-120431746D01*
X152934307Y-120424950D01*
X152826020Y-120354763D01*
X152817425Y-120352193D01*
X152817424Y-120352192D01*
X152710988Y-120320360D01*
X152710986Y-120320360D01*
X152702387Y-120317788D01*
X152693412Y-120317733D01*
X152693411Y-120317733D01*
X152638755Y-120317399D01*
X152573345Y-120317000D01*
X152561589Y-120320360D01*
X152457900Y-120349994D01*
X152457898Y-120349995D01*
X152449269Y-120352461D01*
X152340133Y-120421321D01*
X152334190Y-120428050D01*
X152334189Y-120428051D01*
X152280768Y-120488539D01*
X152254710Y-120518044D01*
X152250896Y-120526167D01*
X152250895Y-120526169D01*
X152248559Y-120531145D01*
X152199868Y-120634854D01*
X152190740Y-120693480D01*
X152181396Y-120753489D01*
X152181396Y-120753493D01*
X152180015Y-120762362D01*
X152181179Y-120771264D01*
X152181179Y-120771267D01*
X152195582Y-120881411D01*
X152195583Y-120881415D01*
X152196747Y-120890316D01*
X152200364Y-120898536D01*
X152245088Y-121000179D01*
X152248719Y-121008432D01*
X152254496Y-121015305D01*
X152254497Y-121015306D01*
X152292735Y-121060796D01*
X152331753Y-121107213D01*
X152416661Y-121163732D01*
X152462283Y-121218129D01*
X152471342Y-121288002D01*
X152452901Y-121406440D01*
X152454065Y-121415342D01*
X152454065Y-121415345D01*
X152468468Y-121525489D01*
X152468469Y-121525493D01*
X152469633Y-121534394D01*
X152473250Y-121542614D01*
X152495227Y-121592561D01*
X152504355Y-121662969D01*
X152473968Y-121727134D01*
X152413714Y-121764684D01*
X152342725Y-121763699D01*
X152339274Y-121762376D01*
X152336906Y-121760841D01*
X152287301Y-121746006D01*
X152221874Y-121726438D01*
X152221872Y-121726438D01*
X152213273Y-121723866D01*
X152204298Y-121723811D01*
X152204297Y-121723811D01*
X152149641Y-121723477D01*
X152084231Y-121723078D01*
X152022193Y-121740808D01*
X151968786Y-121756072D01*
X151968784Y-121756073D01*
X151960155Y-121758539D01*
X151851019Y-121827399D01*
X151765596Y-121924122D01*
X151761782Y-121932245D01*
X151761781Y-121932247D01*
X151742779Y-121972721D01*
X151710754Y-122040932D01*
X151709374Y-122049798D01*
X151692282Y-122159567D01*
X151692282Y-122159571D01*
X151690901Y-122168440D01*
X151692065Y-122177342D01*
X151692065Y-122177345D01*
X151706468Y-122287489D01*
X151706469Y-122287493D01*
X151707633Y-122296394D01*
X151759605Y-122414510D01*
X151765382Y-122421383D01*
X151765383Y-122421384D01*
X151827051Y-122494747D01*
X151855572Y-122559763D01*
X151856600Y-122575822D01*
X151856600Y-125198053D01*
X151856429Y-125200378D01*
X151854746Y-125205281D01*
X151855182Y-125216906D01*
X151855182Y-125216908D01*
X151856511Y-125252302D01*
X151856600Y-125257028D01*
X151856600Y-125275207D01*
X151857458Y-125279817D01*
X151857660Y-125282929D01*
X151858230Y-125298099D01*
X151858790Y-125313016D01*
X151863383Y-125323706D01*
X151864698Y-125329541D01*
X151867045Y-125337267D01*
X151869196Y-125342842D01*
X151871326Y-125354278D01*
X151877430Y-125364180D01*
X151883601Y-125374191D01*
X151892109Y-125390570D01*
X151897835Y-125403897D01*
X151901347Y-125412071D01*
X151905211Y-125416774D01*
X151907389Y-125418952D01*
X151909450Y-125421225D01*
X151909233Y-125421421D01*
X151914647Y-125428269D01*
X151921792Y-125436149D01*
X151927897Y-125446053D01*
X151937155Y-125453093D01*
X151937157Y-125453095D01*
X151948627Y-125461817D01*
X151961456Y-125473019D01*
X154673549Y-128185113D01*
X154675074Y-128186880D01*
X154677350Y-128191536D01*
X154711168Y-128222906D01*
X154711854Y-128223543D01*
X154715259Y-128226823D01*
X154728106Y-128239670D01*
X154731976Y-128242325D01*
X154734320Y-128244383D01*
X154756390Y-128264856D01*
X154767195Y-128269167D01*
X154772259Y-128272368D01*
X154779370Y-128276165D01*
X154784838Y-128278588D01*
X154794431Y-128285169D01*
X154817199Y-128290572D01*
X154834792Y-128296136D01*
X154848264Y-128301511D01*
X154848269Y-128301512D01*
X154856525Y-128304806D01*
X154862583Y-128305400D01*
X154865670Y-128305400D01*
X154868734Y-128305550D01*
X154868720Y-128305843D01*
X154877367Y-128306855D01*
X154888006Y-128307375D01*
X154899327Y-128310062D01*
X154910856Y-128308493D01*
X154910858Y-128308493D01*
X154925126Y-128306551D01*
X154942117Y-128305400D01*
X158346013Y-128305400D01*
X158414134Y-128325402D01*
X158433873Y-128342768D01*
X158434170Y-128342436D01*
X158440865Y-128348422D01*
X158446639Y-128355291D01*
X158454110Y-128360264D01*
X158454111Y-128360265D01*
X158537279Y-128415626D01*
X158554060Y-128426796D01*
X158677233Y-128465278D01*
X158686203Y-128465442D01*
X158686207Y-128465443D01*
X158744942Y-128466519D01*
X158806255Y-128467643D01*
X158868505Y-128450672D01*
X158922092Y-128436062D01*
X158922093Y-128436062D01*
X158930755Y-128433700D01*
X158938405Y-128429003D01*
X158938407Y-128429002D01*
X159033072Y-128370878D01*
X159033075Y-128370875D01*
X159040724Y-128366179D01*
X159046750Y-128359522D01*
X159121300Y-128277161D01*
X159121303Y-128277157D01*
X159127322Y-128270507D01*
X159183588Y-128154375D01*
X159185654Y-128142099D01*
X159204190Y-128031917D01*
X159204997Y-128027120D01*
X159205133Y-128016000D01*
X159196686Y-127957018D01*
X159188112Y-127897145D01*
X159188111Y-127897142D01*
X159186839Y-127888259D01*
X159170191Y-127851644D01*
X159137145Y-127778962D01*
X159137143Y-127778959D01*
X159133428Y-127770788D01*
X159095353Y-127726600D01*
X159055051Y-127679826D01*
X159055049Y-127679824D01*
X159049193Y-127673028D01*
X159041661Y-127668146D01*
X158948073Y-127607486D01*
X158901788Y-127553650D01*
X158891957Y-127483338D01*
X158903212Y-127446814D01*
X158925676Y-127400450D01*
X158925677Y-127400448D01*
X158929588Y-127392375D01*
X158940598Y-127326935D01*
X158950190Y-127269917D01*
X158950997Y-127265120D01*
X158951133Y-127254000D01*
X158932839Y-127126259D01*
X158928490Y-127116694D01*
X158883145Y-127016962D01*
X158883143Y-127016959D01*
X158879428Y-127008788D01*
X158824119Y-126944598D01*
X158801051Y-126917826D01*
X158801049Y-126917824D01*
X158795193Y-126911028D01*
X158686906Y-126840841D01*
X158678311Y-126838271D01*
X158678310Y-126838270D01*
X158571874Y-126806438D01*
X158571872Y-126806438D01*
X158563273Y-126803866D01*
X158554298Y-126803811D01*
X158554297Y-126803811D01*
X158499641Y-126803477D01*
X158434231Y-126803078D01*
X158422475Y-126806438D01*
X158318786Y-126836072D01*
X158318784Y-126836073D01*
X158310155Y-126838539D01*
X158302565Y-126843328D01*
X158273164Y-126861879D01*
X158201019Y-126907399D01*
X158188118Y-126922007D01*
X158128033Y-126959826D01*
X158093676Y-126964600D01*
X154858063Y-126964600D01*
X154789942Y-126944598D01*
X154768968Y-126927695D01*
X153234305Y-125393031D01*
X153200279Y-125330719D01*
X153197400Y-125303936D01*
X153197400Y-124703636D01*
X153217402Y-124635515D01*
X153271058Y-124589022D01*
X153341332Y-124578918D01*
X153405912Y-124608412D01*
X153415252Y-124617544D01*
X153420997Y-124626863D01*
X153430255Y-124633903D01*
X153430257Y-124633905D01*
X153441727Y-124642627D01*
X153454556Y-124653829D01*
X154445839Y-125645113D01*
X154447364Y-125646880D01*
X154449640Y-125651536D01*
X154483458Y-125682906D01*
X154484144Y-125683543D01*
X154487549Y-125686823D01*
X154500396Y-125699670D01*
X154504266Y-125702325D01*
X154506610Y-125704383D01*
X154528680Y-125724856D01*
X154539485Y-125729167D01*
X154544549Y-125732368D01*
X154551660Y-125736165D01*
X154557128Y-125738588D01*
X154566721Y-125745169D01*
X154589489Y-125750572D01*
X154607082Y-125756136D01*
X154620554Y-125761511D01*
X154620559Y-125761512D01*
X154628815Y-125764806D01*
X154634873Y-125765400D01*
X154637960Y-125765400D01*
X154641024Y-125765550D01*
X154641010Y-125765843D01*
X154649657Y-125766855D01*
X154660296Y-125767375D01*
X154671617Y-125770062D01*
X154683146Y-125768493D01*
X154683147Y-125768493D01*
X154697414Y-125766551D01*
X154714406Y-125765400D01*
X157939026Y-125765400D01*
X158007147Y-125785402D01*
X158053640Y-125839058D01*
X158057143Y-125848644D01*
X158057633Y-125852394D01*
X158061248Y-125860609D01*
X158061248Y-125860610D01*
X158083872Y-125912026D01*
X158109605Y-125970510D01*
X158115382Y-125977383D01*
X158115383Y-125977384D01*
X158180642Y-126055019D01*
X158192639Y-126069291D01*
X158300060Y-126140796D01*
X158423233Y-126179278D01*
X158432203Y-126179442D01*
X158432207Y-126179443D01*
X158490942Y-126180519D01*
X158552255Y-126181643D01*
X158614505Y-126164671D01*
X158668092Y-126150062D01*
X158668093Y-126150062D01*
X158676755Y-126147700D01*
X158684405Y-126143003D01*
X158684407Y-126143002D01*
X158779072Y-126084878D01*
X158779075Y-126084875D01*
X158786724Y-126080179D01*
X158792750Y-126073522D01*
X158867300Y-125991161D01*
X158867303Y-125991157D01*
X158873322Y-125984507D01*
X158929588Y-125868375D01*
X158947567Y-125761511D01*
X158950190Y-125745917D01*
X158950997Y-125741120D01*
X158951133Y-125730000D01*
X158932839Y-125602259D01*
X158929125Y-125594090D01*
X158883145Y-125492962D01*
X158883143Y-125492959D01*
X158879428Y-125484788D01*
X158831242Y-125428865D01*
X158801051Y-125393826D01*
X158801049Y-125393824D01*
X158795193Y-125387028D01*
X158686906Y-125316841D01*
X158678311Y-125314271D01*
X158678310Y-125314270D01*
X158571874Y-125282438D01*
X158571872Y-125282438D01*
X158563273Y-125279866D01*
X158554299Y-125279811D01*
X158554297Y-125279811D01*
X158504443Y-125279507D01*
X158436446Y-125259089D01*
X158419522Y-125245884D01*
X158407850Y-125235056D01*
X158407848Y-125235054D01*
X158399320Y-125227144D01*
X158388516Y-125222834D01*
X158383451Y-125219632D01*
X158376340Y-125215835D01*
X158370872Y-125213412D01*
X158361279Y-125206831D01*
X158338511Y-125201428D01*
X158320918Y-125195864D01*
X158307446Y-125190489D01*
X158307441Y-125190488D01*
X158299185Y-125187194D01*
X158293127Y-125186600D01*
X158290040Y-125186600D01*
X158286976Y-125186450D01*
X158286990Y-125186157D01*
X158278343Y-125185145D01*
X158267704Y-125184625D01*
X158256383Y-125181938D01*
X158244854Y-125183507D01*
X158244852Y-125183507D01*
X158230584Y-125185449D01*
X158213593Y-125186600D01*
X154858064Y-125186600D01*
X154789943Y-125166598D01*
X154768969Y-125149695D01*
X154073714Y-124454440D01*
X158548901Y-124454440D01*
X158550065Y-124463342D01*
X158550065Y-124463345D01*
X158564468Y-124573489D01*
X158564469Y-124573493D01*
X158565633Y-124582394D01*
X158617605Y-124700510D01*
X158623382Y-124707383D01*
X158623383Y-124707384D01*
X158688134Y-124784415D01*
X158700639Y-124799291D01*
X158741441Y-124826451D01*
X158778198Y-124850918D01*
X158808060Y-124870796D01*
X158931233Y-124909278D01*
X158940203Y-124909442D01*
X158940207Y-124909443D01*
X158998942Y-124910519D01*
X159060255Y-124911643D01*
X159122505Y-124894671D01*
X159176092Y-124880062D01*
X159176093Y-124880062D01*
X159184755Y-124877700D01*
X159192405Y-124873003D01*
X159192407Y-124873002D01*
X159287072Y-124814878D01*
X159287075Y-124814875D01*
X159294724Y-124810179D01*
X159300750Y-124803522D01*
X159375300Y-124721161D01*
X159375303Y-124721157D01*
X159381322Y-124714507D01*
X159437588Y-124598375D01*
X159440862Y-124578918D01*
X159458190Y-124475917D01*
X159458997Y-124471120D01*
X159459133Y-124460000D01*
X159448966Y-124389004D01*
X159442112Y-124341145D01*
X159442111Y-124341142D01*
X159440839Y-124332259D01*
X159434724Y-124318809D01*
X159391145Y-124222962D01*
X159391143Y-124222959D01*
X159387428Y-124214788D01*
X159303193Y-124117028D01*
X159194906Y-124046841D01*
X159186311Y-124044271D01*
X159186310Y-124044270D01*
X159079874Y-124012438D01*
X159079872Y-124012438D01*
X159071273Y-124009866D01*
X159062298Y-124009811D01*
X159062297Y-124009811D01*
X159007641Y-124009477D01*
X158942231Y-124009078D01*
X158930475Y-124012438D01*
X158826786Y-124042072D01*
X158826784Y-124042073D01*
X158818155Y-124044539D01*
X158709019Y-124113399D01*
X158623596Y-124210122D01*
X158619782Y-124218245D01*
X158619781Y-124218247D01*
X158601570Y-124257036D01*
X158568754Y-124326932D01*
X158564582Y-124353726D01*
X158550282Y-124445567D01*
X158550282Y-124445571D01*
X158548901Y-124454440D01*
X154073714Y-124454440D01*
X153965405Y-124346131D01*
X153931379Y-124283819D01*
X153928500Y-124257036D01*
X153928500Y-124009434D01*
X153948502Y-123941313D01*
X154002158Y-123894820D01*
X154072432Y-123884716D01*
X154092067Y-123889165D01*
X154105233Y-123893278D01*
X154114203Y-123893442D01*
X154114207Y-123893443D01*
X154172942Y-123894519D01*
X154234255Y-123895643D01*
X154296505Y-123878672D01*
X154350092Y-123864062D01*
X154350093Y-123864062D01*
X154358755Y-123861700D01*
X154366405Y-123857003D01*
X154366407Y-123857002D01*
X154461072Y-123798878D01*
X154461075Y-123798875D01*
X154468724Y-123794179D01*
X154474750Y-123787522D01*
X154549300Y-123705161D01*
X154549303Y-123705157D01*
X154555322Y-123698507D01*
X154611588Y-123582375D01*
X154617897Y-123544878D01*
X154632190Y-123459917D01*
X154632997Y-123455120D01*
X154633133Y-123444000D01*
X154622348Y-123368693D01*
X154616112Y-123325145D01*
X154616111Y-123325142D01*
X154614839Y-123316259D01*
X154609033Y-123303489D01*
X154565145Y-123206962D01*
X154565143Y-123206959D01*
X154561428Y-123198788D01*
X154549065Y-123184440D01*
X164136901Y-123184440D01*
X164138065Y-123193342D01*
X164138065Y-123193345D01*
X164152468Y-123303489D01*
X164152469Y-123303493D01*
X164153633Y-123312394D01*
X164205605Y-123430510D01*
X164211382Y-123437383D01*
X164211383Y-123437384D01*
X164217371Y-123444507D01*
X164288639Y-123529291D01*
X164396060Y-123600796D01*
X164519233Y-123639278D01*
X164528203Y-123639442D01*
X164528207Y-123639443D01*
X164586942Y-123640519D01*
X164648255Y-123641643D01*
X164710505Y-123624672D01*
X164764092Y-123610062D01*
X164764093Y-123610062D01*
X164772755Y-123607700D01*
X164780405Y-123603003D01*
X164780407Y-123603002D01*
X164875072Y-123544878D01*
X164875075Y-123544875D01*
X164882724Y-123540179D01*
X164888750Y-123533522D01*
X164963300Y-123451161D01*
X164963303Y-123451157D01*
X164969322Y-123444507D01*
X165025588Y-123328375D01*
X165027627Y-123316259D01*
X165046190Y-123205917D01*
X165046997Y-123201120D01*
X165047133Y-123190000D01*
X165034391Y-123101028D01*
X165030112Y-123071145D01*
X165030111Y-123071142D01*
X165028839Y-123062259D01*
X165014554Y-123030841D01*
X164979145Y-122952962D01*
X164979143Y-122952959D01*
X164975428Y-122944788D01*
X164924416Y-122885585D01*
X164897051Y-122853826D01*
X164897049Y-122853824D01*
X164891193Y-122847028D01*
X164782906Y-122776841D01*
X164774311Y-122774271D01*
X164774310Y-122774270D01*
X164667874Y-122742438D01*
X164667872Y-122742438D01*
X164659273Y-122739866D01*
X164650298Y-122739811D01*
X164650297Y-122739811D01*
X164595641Y-122739477D01*
X164530231Y-122739078D01*
X164518475Y-122742438D01*
X164414786Y-122772072D01*
X164414784Y-122772073D01*
X164406155Y-122774539D01*
X164297019Y-122843399D01*
X164291076Y-122850128D01*
X164291075Y-122850129D01*
X164224389Y-122925637D01*
X164211596Y-122940122D01*
X164207782Y-122948245D01*
X164207781Y-122948247D01*
X164193249Y-122979200D01*
X164156754Y-123056932D01*
X164150648Y-123096148D01*
X164138282Y-123175567D01*
X164138282Y-123175571D01*
X164136901Y-123184440D01*
X154549065Y-123184440D01*
X154477193Y-123101028D01*
X154368906Y-123030841D01*
X154360311Y-123028271D01*
X154360310Y-123028270D01*
X154253874Y-122996438D01*
X154253872Y-122996438D01*
X154245273Y-122993866D01*
X154236298Y-122993811D01*
X154236297Y-122993811D01*
X154183335Y-122993488D01*
X154116231Y-122993078D01*
X154107602Y-122995544D01*
X154102501Y-122996243D01*
X154032296Y-122985672D01*
X153978951Y-122938823D01*
X153959400Y-122871409D01*
X153959400Y-120644440D01*
X163374901Y-120644440D01*
X163376065Y-120653342D01*
X163376065Y-120653345D01*
X163390468Y-120763489D01*
X163390469Y-120763493D01*
X163391633Y-120772394D01*
X163443605Y-120890510D01*
X163449382Y-120897383D01*
X163449383Y-120897384D01*
X163455371Y-120904507D01*
X163526639Y-120989291D01*
X163569354Y-121017724D01*
X163625858Y-121055336D01*
X163634060Y-121060796D01*
X163722876Y-121088544D01*
X163742212Y-121094585D01*
X163757233Y-121099278D01*
X163766203Y-121099442D01*
X163766207Y-121099443D01*
X163824942Y-121100519D01*
X163886255Y-121101643D01*
X163986470Y-121074321D01*
X164002092Y-121070062D01*
X164002093Y-121070062D01*
X164010755Y-121067700D01*
X164018405Y-121063003D01*
X164018407Y-121063002D01*
X164113072Y-121004878D01*
X164113075Y-121004875D01*
X164120724Y-121000179D01*
X164126750Y-120993522D01*
X164201300Y-120911161D01*
X164201303Y-120911157D01*
X164207322Y-120904507D01*
X164263588Y-120788375D01*
X164266212Y-120772781D01*
X164284190Y-120665917D01*
X164284997Y-120661120D01*
X164285133Y-120650000D01*
X164277748Y-120598433D01*
X164268112Y-120531145D01*
X164268111Y-120531142D01*
X164266839Y-120522259D01*
X164252554Y-120490841D01*
X164217145Y-120412962D01*
X164217143Y-120412959D01*
X164213428Y-120404788D01*
X164170324Y-120354763D01*
X164135051Y-120313826D01*
X164135049Y-120313824D01*
X164129193Y-120307028D01*
X164020906Y-120236841D01*
X164012311Y-120234271D01*
X164012310Y-120234270D01*
X163905874Y-120202438D01*
X163905872Y-120202438D01*
X163897273Y-120199866D01*
X163888298Y-120199811D01*
X163888297Y-120199811D01*
X163833641Y-120199477D01*
X163768231Y-120199078D01*
X163756475Y-120202438D01*
X163652786Y-120232072D01*
X163652784Y-120232073D01*
X163644155Y-120234539D01*
X163535019Y-120303399D01*
X163529076Y-120310128D01*
X163529075Y-120310129D01*
X163491926Y-120352192D01*
X163449596Y-120400122D01*
X163445782Y-120408245D01*
X163445781Y-120408247D01*
X163424733Y-120453078D01*
X163394754Y-120516932D01*
X163385860Y-120574057D01*
X163376282Y-120635567D01*
X163376282Y-120635571D01*
X163374901Y-120644440D01*
X153959400Y-120644440D01*
X153959400Y-119628440D01*
X162612901Y-119628440D01*
X162614065Y-119637342D01*
X162614065Y-119637345D01*
X162628468Y-119747489D01*
X162628469Y-119747493D01*
X162629633Y-119756394D01*
X162681605Y-119874510D01*
X162764639Y-119973291D01*
X162872060Y-120044796D01*
X162960938Y-120072564D01*
X162985695Y-120080298D01*
X162995233Y-120083278D01*
X163004203Y-120083442D01*
X163004207Y-120083443D01*
X163062942Y-120084519D01*
X163124255Y-120085643D01*
X163186505Y-120068672D01*
X163240092Y-120054062D01*
X163240093Y-120054062D01*
X163248755Y-120051700D01*
X163256405Y-120047003D01*
X163256407Y-120047002D01*
X163351072Y-119988878D01*
X163351075Y-119988875D01*
X163358724Y-119984179D01*
X163364750Y-119977522D01*
X163439300Y-119895161D01*
X163439303Y-119895157D01*
X163445322Y-119888507D01*
X163501588Y-119772375D01*
X163522997Y-119645120D01*
X163523133Y-119634000D01*
X163504839Y-119506259D01*
X163451428Y-119388788D01*
X163367193Y-119291028D01*
X163258906Y-119220841D01*
X163250311Y-119218271D01*
X163250310Y-119218270D01*
X163143874Y-119186438D01*
X163143872Y-119186438D01*
X163135273Y-119183866D01*
X163126298Y-119183811D01*
X163126297Y-119183811D01*
X163071641Y-119183477D01*
X163006231Y-119183078D01*
X162994475Y-119186438D01*
X162890786Y-119216072D01*
X162890784Y-119216073D01*
X162882155Y-119218539D01*
X162874565Y-119223328D01*
X162810534Y-119263729D01*
X162773019Y-119287399D01*
X162687596Y-119384122D01*
X162683782Y-119392245D01*
X162683781Y-119392247D01*
X162657794Y-119447598D01*
X162632754Y-119500932D01*
X162631374Y-119509798D01*
X162614282Y-119619567D01*
X162614282Y-119619571D01*
X162612901Y-119628440D01*
X153959400Y-119628440D01*
X153959400Y-118104440D01*
X162866901Y-118104440D01*
X162868065Y-118113342D01*
X162868065Y-118113345D01*
X162882468Y-118223489D01*
X162882469Y-118223493D01*
X162883633Y-118232394D01*
X162935605Y-118350510D01*
X163018639Y-118449291D01*
X163126060Y-118520796D01*
X163249233Y-118559278D01*
X163258203Y-118559442D01*
X163258207Y-118559443D01*
X163316942Y-118560519D01*
X163378255Y-118561643D01*
X163475866Y-118535031D01*
X163494092Y-118530062D01*
X163494093Y-118530062D01*
X163502755Y-118527700D01*
X163510405Y-118523003D01*
X163510407Y-118523002D01*
X163605072Y-118464878D01*
X163605075Y-118464875D01*
X163612724Y-118460179D01*
X163618750Y-118453522D01*
X163693300Y-118371161D01*
X163693303Y-118371157D01*
X163699322Y-118364507D01*
X163755588Y-118248375D01*
X163776997Y-118121120D01*
X163777133Y-118110000D01*
X163758839Y-117982259D01*
X163752724Y-117968809D01*
X163709145Y-117872962D01*
X163709143Y-117872959D01*
X163705428Y-117864788D01*
X163621193Y-117767028D01*
X163512906Y-117696841D01*
X163504311Y-117694271D01*
X163504310Y-117694270D01*
X163397874Y-117662438D01*
X163397872Y-117662438D01*
X163389273Y-117659866D01*
X163380298Y-117659811D01*
X163380297Y-117659811D01*
X163325641Y-117659477D01*
X163260231Y-117659078D01*
X163248475Y-117662438D01*
X163144786Y-117692072D01*
X163144784Y-117692073D01*
X163136155Y-117694539D01*
X163027019Y-117763399D01*
X162941596Y-117860122D01*
X162937782Y-117868245D01*
X162937781Y-117868247D01*
X162924304Y-117896952D01*
X162886754Y-117976932D01*
X162885374Y-117985798D01*
X162868282Y-118095567D01*
X162868282Y-118095571D01*
X162866901Y-118104440D01*
X153959400Y-118104440D01*
X153959400Y-115582940D01*
X158548901Y-115582940D01*
X158550065Y-115591842D01*
X158550065Y-115591845D01*
X158564468Y-115701989D01*
X158564469Y-115701993D01*
X158565633Y-115710894D01*
X158617605Y-115829010D01*
X158700639Y-115927791D01*
X158808060Y-115999296D01*
X158931233Y-116037778D01*
X158940203Y-116037942D01*
X158940207Y-116037943D01*
X158998942Y-116039019D01*
X159060255Y-116040143D01*
X159122505Y-116023172D01*
X159176092Y-116008562D01*
X159176093Y-116008562D01*
X159184755Y-116006200D01*
X159192405Y-116001503D01*
X159192407Y-116001502D01*
X159287072Y-115943378D01*
X159287075Y-115943375D01*
X159294724Y-115938679D01*
X159300750Y-115932022D01*
X159375300Y-115849661D01*
X159375303Y-115849657D01*
X159381322Y-115843007D01*
X159437588Y-115726875D01*
X159458997Y-115599620D01*
X159459133Y-115588500D01*
X159458337Y-115582940D01*
X160834901Y-115582940D01*
X160836065Y-115591842D01*
X160836065Y-115591845D01*
X160850468Y-115701989D01*
X160850469Y-115701993D01*
X160851633Y-115710894D01*
X160903605Y-115829010D01*
X160986639Y-115927791D01*
X161094060Y-115999296D01*
X161217233Y-116037778D01*
X161226203Y-116037942D01*
X161226207Y-116037943D01*
X161284942Y-116039019D01*
X161346255Y-116040143D01*
X161408505Y-116023172D01*
X161462092Y-116008562D01*
X161462093Y-116008562D01*
X161470755Y-116006200D01*
X161478405Y-116001503D01*
X161478407Y-116001502D01*
X161573072Y-115943378D01*
X161573075Y-115943375D01*
X161580724Y-115938679D01*
X161586750Y-115932022D01*
X161661300Y-115849661D01*
X161661303Y-115849657D01*
X161667322Y-115843007D01*
X161723588Y-115726875D01*
X161744997Y-115599620D01*
X161745133Y-115588500D01*
X161729552Y-115479700D01*
X161728112Y-115469645D01*
X161728111Y-115469642D01*
X161726839Y-115460759D01*
X161720724Y-115447309D01*
X161677145Y-115351462D01*
X161677143Y-115351459D01*
X161673428Y-115343288D01*
X161589193Y-115245528D01*
X161480906Y-115175341D01*
X161472311Y-115172771D01*
X161472310Y-115172770D01*
X161365874Y-115140938D01*
X161365872Y-115140938D01*
X161357273Y-115138366D01*
X161348298Y-115138311D01*
X161348297Y-115138311D01*
X161293641Y-115137977D01*
X161228231Y-115137578D01*
X161216475Y-115140938D01*
X161112786Y-115170572D01*
X161112784Y-115170573D01*
X161104155Y-115173039D01*
X160995019Y-115241899D01*
X160909596Y-115338622D01*
X160905782Y-115346745D01*
X160905781Y-115346747D01*
X160883401Y-115394415D01*
X160854754Y-115455432D01*
X160850608Y-115482062D01*
X160836282Y-115574067D01*
X160836282Y-115574071D01*
X160834901Y-115582940D01*
X159458337Y-115582940D01*
X159443552Y-115479700D01*
X159442112Y-115469645D01*
X159442111Y-115469642D01*
X159440839Y-115460759D01*
X159434724Y-115447309D01*
X159391145Y-115351462D01*
X159391143Y-115351459D01*
X159387428Y-115343288D01*
X159303193Y-115245528D01*
X159194906Y-115175341D01*
X159186311Y-115172771D01*
X159186310Y-115172770D01*
X159079874Y-115140938D01*
X159079872Y-115140938D01*
X159071273Y-115138366D01*
X159062298Y-115138311D01*
X159062297Y-115138311D01*
X159007641Y-115137977D01*
X158942231Y-115137578D01*
X158930475Y-115140938D01*
X158826786Y-115170572D01*
X158826784Y-115170573D01*
X158818155Y-115173039D01*
X158709019Y-115241899D01*
X158623596Y-115338622D01*
X158619782Y-115346745D01*
X158619781Y-115346747D01*
X158597401Y-115394415D01*
X158568754Y-115455432D01*
X158564608Y-115482062D01*
X158550282Y-115574067D01*
X158550282Y-115574071D01*
X158548901Y-115582940D01*
X153959400Y-115582940D01*
X153959400Y-115056440D01*
X164390901Y-115056440D01*
X164392065Y-115065342D01*
X164392065Y-115065345D01*
X164406468Y-115175489D01*
X164406469Y-115175493D01*
X164407633Y-115184394D01*
X164459605Y-115302510D01*
X164542639Y-115401291D01*
X164550116Y-115406268D01*
X164637294Y-115464298D01*
X164650060Y-115472796D01*
X164773233Y-115511278D01*
X164782203Y-115511442D01*
X164782207Y-115511443D01*
X164840942Y-115512519D01*
X164902255Y-115513643D01*
X164964505Y-115496671D01*
X165018092Y-115482062D01*
X165018093Y-115482062D01*
X165026755Y-115479700D01*
X165034405Y-115475003D01*
X165034407Y-115475002D01*
X165129072Y-115416878D01*
X165129075Y-115416875D01*
X165136724Y-115412179D01*
X165142750Y-115405522D01*
X165217300Y-115323161D01*
X165217303Y-115323157D01*
X165223322Y-115316507D01*
X165279588Y-115200375D01*
X165288927Y-115144868D01*
X165300190Y-115077917D01*
X165300997Y-115073120D01*
X165301133Y-115062000D01*
X165290404Y-114987085D01*
X165284112Y-114943145D01*
X165284111Y-114943142D01*
X165282839Y-114934259D01*
X165276724Y-114920809D01*
X165233145Y-114824962D01*
X165233143Y-114824959D01*
X165229428Y-114816788D01*
X165199798Y-114782401D01*
X165151051Y-114725826D01*
X165151049Y-114725824D01*
X165145193Y-114719028D01*
X165036906Y-114648841D01*
X165028311Y-114646271D01*
X165028310Y-114646270D01*
X164921874Y-114614438D01*
X164921872Y-114614438D01*
X164913273Y-114611866D01*
X164904298Y-114611811D01*
X164904297Y-114611811D01*
X164849641Y-114611477D01*
X164784231Y-114611078D01*
X164722193Y-114628808D01*
X164668786Y-114644072D01*
X164668784Y-114644073D01*
X164660155Y-114646539D01*
X164652565Y-114651328D01*
X164558668Y-114710573D01*
X164551019Y-114715399D01*
X164465596Y-114812122D01*
X164461782Y-114820245D01*
X164461781Y-114820247D01*
X164438989Y-114868794D01*
X164410754Y-114928932D01*
X164401700Y-114987085D01*
X164392282Y-115047567D01*
X164392282Y-115047571D01*
X164390901Y-115056440D01*
X153959400Y-115056440D01*
X153959400Y-114472063D01*
X153979402Y-114403942D01*
X153996305Y-114382968D01*
X154338833Y-114040440D01*
X158294901Y-114040440D01*
X158296065Y-114049342D01*
X158296065Y-114049345D01*
X158310468Y-114159489D01*
X158310469Y-114159493D01*
X158311633Y-114168394D01*
X158315250Y-114176614D01*
X158350121Y-114255864D01*
X158363605Y-114286510D01*
X158369382Y-114293383D01*
X158369383Y-114293384D01*
X158392098Y-114320407D01*
X158446639Y-114385291D01*
X158554060Y-114456796D01*
X158642938Y-114484564D01*
X158664094Y-114491173D01*
X158677233Y-114495278D01*
X158686203Y-114495442D01*
X158686207Y-114495443D01*
X158744942Y-114496519D01*
X158806255Y-114497643D01*
X158892213Y-114474208D01*
X158922092Y-114466062D01*
X158922093Y-114466062D01*
X158930755Y-114463700D01*
X158938405Y-114459003D01*
X158938407Y-114459002D01*
X159033072Y-114400878D01*
X159033075Y-114400875D01*
X159040724Y-114396179D01*
X159046750Y-114389522D01*
X159121300Y-114307161D01*
X159121303Y-114307157D01*
X159127322Y-114300507D01*
X159183588Y-114184375D01*
X159185570Y-114172598D01*
X159204190Y-114061917D01*
X159204997Y-114057120D01*
X159205133Y-114046000D01*
X159204337Y-114040440D01*
X163120901Y-114040440D01*
X163122065Y-114049342D01*
X163122065Y-114049345D01*
X163136468Y-114159489D01*
X163136469Y-114159493D01*
X163137633Y-114168394D01*
X163141250Y-114176614D01*
X163176121Y-114255864D01*
X163189605Y-114286510D01*
X163195382Y-114293383D01*
X163195383Y-114293384D01*
X163218098Y-114320407D01*
X163272639Y-114385291D01*
X163380060Y-114456796D01*
X163468938Y-114484564D01*
X163490094Y-114491173D01*
X163503233Y-114495278D01*
X163512203Y-114495442D01*
X163512207Y-114495443D01*
X163570942Y-114496519D01*
X163632255Y-114497643D01*
X163718213Y-114474208D01*
X163748092Y-114466062D01*
X163748093Y-114466062D01*
X163756755Y-114463700D01*
X163764405Y-114459003D01*
X163764407Y-114459002D01*
X163859072Y-114400878D01*
X163859075Y-114400875D01*
X163866724Y-114396179D01*
X163872750Y-114389522D01*
X163947300Y-114307161D01*
X163947303Y-114307157D01*
X163953322Y-114300507D01*
X164009588Y-114184375D01*
X164011570Y-114172598D01*
X164030190Y-114061917D01*
X164030997Y-114057120D01*
X164031133Y-114046000D01*
X164019872Y-113967370D01*
X164014112Y-113927145D01*
X164014111Y-113927142D01*
X164012839Y-113918259D01*
X164006724Y-113904809D01*
X163963145Y-113808962D01*
X163963143Y-113808959D01*
X163959428Y-113800788D01*
X163917064Y-113751622D01*
X163881051Y-113709826D01*
X163881049Y-113709824D01*
X163875193Y-113703028D01*
X163766906Y-113632841D01*
X163758311Y-113630271D01*
X163758310Y-113630270D01*
X163651874Y-113598438D01*
X163651872Y-113598438D01*
X163643273Y-113595866D01*
X163634298Y-113595811D01*
X163634297Y-113595811D01*
X163579641Y-113595477D01*
X163514231Y-113595078D01*
X163502475Y-113598438D01*
X163398786Y-113628072D01*
X163398784Y-113628073D01*
X163390155Y-113630539D01*
X163281019Y-113699399D01*
X163275076Y-113706128D01*
X163275075Y-113706129D01*
X163234897Y-113751622D01*
X163195596Y-113796122D01*
X163191782Y-113804245D01*
X163191781Y-113804247D01*
X163186626Y-113815228D01*
X163140754Y-113912932D01*
X163134069Y-113955868D01*
X163122282Y-114031567D01*
X163122282Y-114031571D01*
X163120901Y-114040440D01*
X159204337Y-114040440D01*
X159193872Y-113967370D01*
X159188112Y-113927145D01*
X159188111Y-113927142D01*
X159186839Y-113918259D01*
X159180724Y-113904809D01*
X159137145Y-113808962D01*
X159137143Y-113808959D01*
X159133428Y-113800788D01*
X159091064Y-113751622D01*
X159055051Y-113709826D01*
X159055049Y-113709824D01*
X159049193Y-113703028D01*
X158940906Y-113632841D01*
X158932311Y-113630271D01*
X158932310Y-113630270D01*
X158825874Y-113598438D01*
X158825872Y-113598438D01*
X158817273Y-113595866D01*
X158808298Y-113595811D01*
X158808297Y-113595811D01*
X158753641Y-113595477D01*
X158688231Y-113595078D01*
X158676475Y-113598438D01*
X158572786Y-113628072D01*
X158572784Y-113628073D01*
X158564155Y-113630539D01*
X158455019Y-113699399D01*
X158449076Y-113706128D01*
X158449075Y-113706129D01*
X158408897Y-113751622D01*
X158369596Y-113796122D01*
X158365782Y-113804245D01*
X158365781Y-113804247D01*
X158360626Y-113815228D01*
X158314754Y-113912932D01*
X158308069Y-113955868D01*
X158296282Y-114031567D01*
X158296282Y-114031571D01*
X158294901Y-114040440D01*
X154338833Y-114040440D01*
X160443113Y-107936161D01*
X160444880Y-107934636D01*
X160449536Y-107932360D01*
X160481543Y-107897856D01*
X160484823Y-107894451D01*
X160497670Y-107881604D01*
X160500325Y-107877734D01*
X160502384Y-107875389D01*
X160514942Y-107861851D01*
X160522856Y-107853320D01*
X160527168Y-107842511D01*
X160530371Y-107837445D01*
X160534166Y-107830338D01*
X160536590Y-107824869D01*
X160543168Y-107815279D01*
X160548571Y-107792511D01*
X160554131Y-107774928D01*
X160562806Y-107753185D01*
X160563400Y-107747127D01*
X160563400Y-107744051D01*
X160563550Y-107740976D01*
X160563842Y-107740990D01*
X160564854Y-107732345D01*
X160565374Y-107721704D01*
X160568061Y-107710383D01*
X160564551Y-107684591D01*
X160563400Y-107667601D01*
X160563400Y-103270197D01*
X160583402Y-103202076D01*
X160595978Y-103185650D01*
X160651322Y-103124507D01*
X160707588Y-103008375D01*
X160709077Y-102999526D01*
X160709078Y-102999522D01*
X160711906Y-102982715D01*
X160742933Y-102918858D01*
X160803560Y-102881912D01*
X160874536Y-102883609D01*
X160925254Y-102914527D01*
X163018327Y-105007600D01*
X163052353Y-105069912D01*
X163047288Y-105140727D01*
X163004741Y-105197563D01*
X162938221Y-105222374D01*
X162893127Y-105217411D01*
X162889875Y-105216438D01*
X162889871Y-105216437D01*
X162881273Y-105213866D01*
X162872298Y-105213811D01*
X162872297Y-105213811D01*
X162817641Y-105213477D01*
X162752231Y-105213078D01*
X162719705Y-105222374D01*
X162636786Y-105246072D01*
X162636784Y-105246073D01*
X162628155Y-105248539D01*
X162620565Y-105253328D01*
X162542712Y-105302450D01*
X162519019Y-105317399D01*
X162433596Y-105414122D01*
X162429782Y-105422245D01*
X162429781Y-105422247D01*
X162412971Y-105458051D01*
X162378754Y-105530932D01*
X162372753Y-105569473D01*
X162360282Y-105649567D01*
X162360282Y-105649571D01*
X162358901Y-105658440D01*
X162360065Y-105667342D01*
X162360065Y-105667345D01*
X162374468Y-105777489D01*
X162374469Y-105777493D01*
X162375633Y-105786394D01*
X162427605Y-105904510D01*
X162433382Y-105911383D01*
X162433383Y-105911384D01*
X162504859Y-105996415D01*
X162510639Y-106003291D01*
X162618060Y-106074796D01*
X162741233Y-106113278D01*
X162750203Y-106113442D01*
X162750207Y-106113443D01*
X162808942Y-106114519D01*
X162870255Y-106115643D01*
X162932505Y-106098672D01*
X162986092Y-106084062D01*
X162986093Y-106084062D01*
X162994755Y-106081700D01*
X163002405Y-106077003D01*
X163002407Y-106077002D01*
X163097072Y-106018878D01*
X163097075Y-106018875D01*
X163104724Y-106014179D01*
X163110750Y-106007522D01*
X163185300Y-105925161D01*
X163185303Y-105925157D01*
X163191322Y-105918507D01*
X163247588Y-105802375D01*
X163268997Y-105675120D01*
X163269133Y-105664000D01*
X163254956Y-105565008D01*
X163265098Y-105494740D01*
X163311621Y-105441110D01*
X163379753Y-105421146D01*
X163447862Y-105441186D01*
X163468778Y-105458051D01*
X172225835Y-114215108D01*
X172227363Y-114216879D01*
X172229640Y-114221536D01*
X172238169Y-114229448D01*
X172238170Y-114229449D01*
X172264158Y-114253556D01*
X172267563Y-114256836D01*
X172280397Y-114269670D01*
X172284266Y-114272324D01*
X172286591Y-114274366D01*
X172308680Y-114294856D01*
X172319483Y-114299166D01*
X172324545Y-114302366D01*
X172331660Y-114306165D01*
X172337128Y-114308588D01*
X172346721Y-114315169D01*
X172368794Y-114320407D01*
X172369489Y-114320572D01*
X172387082Y-114326136D01*
X172400554Y-114331511D01*
X172400559Y-114331512D01*
X172408815Y-114334806D01*
X172414873Y-114335400D01*
X172417960Y-114335400D01*
X172421024Y-114335550D01*
X172421010Y-114335843D01*
X172429658Y-114336855D01*
X172440297Y-114337375D01*
X172451618Y-114340062D01*
X172463147Y-114338493D01*
X172463148Y-114338493D01*
X172477415Y-114336551D01*
X172494407Y-114335400D01*
X182730013Y-114335400D01*
X182798134Y-114355402D01*
X182817873Y-114372768D01*
X182818170Y-114372436D01*
X182824865Y-114378422D01*
X182830639Y-114385291D01*
X182838110Y-114390264D01*
X182838111Y-114390265D01*
X182920097Y-114444839D01*
X182938060Y-114456796D01*
X183026938Y-114484564D01*
X183048094Y-114491173D01*
X183061233Y-114495278D01*
X183070203Y-114495442D01*
X183070207Y-114495443D01*
X183128942Y-114496519D01*
X183190255Y-114497643D01*
X183276213Y-114474208D01*
X183306092Y-114466062D01*
X183306093Y-114466062D01*
X183314755Y-114463700D01*
X183322405Y-114459003D01*
X183322407Y-114459002D01*
X183417072Y-114400878D01*
X183417075Y-114400875D01*
X183424724Y-114396179D01*
X183430750Y-114389522D01*
X183505300Y-114307161D01*
X183505303Y-114307157D01*
X183511322Y-114300507D01*
X183567588Y-114184375D01*
X183569570Y-114172598D01*
X183588190Y-114061917D01*
X183588997Y-114057120D01*
X183589133Y-114046000D01*
X183577872Y-113967370D01*
X183577046Y-113961603D01*
X189892021Y-113961603D01*
X189894003Y-113991849D01*
X189905850Y-114172598D01*
X189907271Y-114178194D01*
X189907272Y-114178199D01*
X189934780Y-114286510D01*
X189957899Y-114377539D01*
X189960316Y-114382782D01*
X189989551Y-114446197D01*
X190046423Y-114569564D01*
X190168459Y-114742241D01*
X190319919Y-114889787D01*
X190324715Y-114892992D01*
X190324718Y-114892994D01*
X190465536Y-114987085D01*
X190495731Y-115007261D01*
X190501039Y-115009542D01*
X190501040Y-115009542D01*
X190684704Y-115088450D01*
X190684707Y-115088451D01*
X190690007Y-115090728D01*
X190695636Y-115092002D01*
X190695637Y-115092002D01*
X190890604Y-115136119D01*
X190890610Y-115136120D01*
X190896241Y-115137394D01*
X190902012Y-115137621D01*
X190902014Y-115137621D01*
X190963709Y-115140045D01*
X191107526Y-115145696D01*
X191113235Y-115144868D01*
X191113239Y-115144868D01*
X191311070Y-115116183D01*
X191311074Y-115116182D01*
X191316785Y-115115354D01*
X191322256Y-115113497D01*
X191511539Y-115049245D01*
X191511544Y-115049243D01*
X191517011Y-115047387D01*
X191552349Y-115027597D01*
X191618956Y-114990295D01*
X191701498Y-114944069D01*
X191713294Y-114934259D01*
X191850377Y-114820247D01*
X191864067Y-114808861D01*
X191941799Y-114715399D01*
X191995581Y-114650734D01*
X191995583Y-114650731D01*
X191999275Y-114646292D01*
X192083755Y-114495443D01*
X192099769Y-114466848D01*
X192099770Y-114466846D01*
X192102593Y-114461805D01*
X192104449Y-114456338D01*
X192104451Y-114456333D01*
X192168703Y-114267050D01*
X192168703Y-114267049D01*
X192170560Y-114261579D01*
X192171511Y-114255024D01*
X192200370Y-114055990D01*
X192200370Y-114055988D01*
X192200902Y-114052320D01*
X192202485Y-113991849D01*
X192183137Y-113781289D01*
X192178353Y-113764324D01*
X192140621Y-113630539D01*
X192125742Y-113577780D01*
X192032221Y-113388138D01*
X192019554Y-113371174D01*
X191909160Y-113223339D01*
X191909159Y-113223338D01*
X191905707Y-113218715D01*
X191892358Y-113206375D01*
X191754677Y-113079105D01*
X191754675Y-113079103D01*
X191750436Y-113075185D01*
X191571609Y-112962353D01*
X191375215Y-112884000D01*
X191369558Y-112882875D01*
X191369552Y-112882873D01*
X191173497Y-112843876D01*
X191173495Y-112843876D01*
X191167830Y-112842749D01*
X191162055Y-112842673D01*
X191162051Y-112842673D01*
X191056031Y-112841285D01*
X190956401Y-112839981D01*
X190950704Y-112840960D01*
X190950703Y-112840960D01*
X190753705Y-112874810D01*
X190753704Y-112874810D01*
X190748008Y-112875789D01*
X190549630Y-112948975D01*
X190367910Y-113057086D01*
X190363570Y-113060892D01*
X190363566Y-113060895D01*
X190265381Y-113147002D01*
X190208936Y-113196503D01*
X190205361Y-113201038D01*
X190205360Y-113201039D01*
X190187780Y-113223339D01*
X190078030Y-113362557D01*
X190075341Y-113367668D01*
X190075339Y-113367671D01*
X190064571Y-113388138D01*
X189979577Y-113549685D01*
X189916874Y-113751622D01*
X189892021Y-113961603D01*
X183577046Y-113961603D01*
X183572112Y-113927145D01*
X183572111Y-113927142D01*
X183570839Y-113918259D01*
X183564724Y-113904809D01*
X183521145Y-113808962D01*
X183521143Y-113808959D01*
X183517428Y-113800788D01*
X183475064Y-113751622D01*
X183439051Y-113709826D01*
X183439049Y-113709824D01*
X183433193Y-113703028D01*
X183324906Y-113632841D01*
X183316311Y-113630271D01*
X183316310Y-113630270D01*
X183209874Y-113598438D01*
X183209872Y-113598438D01*
X183201273Y-113595866D01*
X183192298Y-113595811D01*
X183192297Y-113595811D01*
X183137641Y-113595477D01*
X183072231Y-113595078D01*
X183060475Y-113598438D01*
X182956786Y-113628072D01*
X182956784Y-113628073D01*
X182948155Y-113630539D01*
X182839019Y-113699399D01*
X182826503Y-113713571D01*
X182826118Y-113714007D01*
X182766033Y-113751826D01*
X182731676Y-113756600D01*
X172638063Y-113756600D01*
X172569942Y-113736598D01*
X172548968Y-113719695D01*
X171091713Y-112262440D01*
X184964901Y-112262440D01*
X184966065Y-112271342D01*
X184966065Y-112271345D01*
X184980468Y-112381489D01*
X184980469Y-112381493D01*
X184981633Y-112390394D01*
X185033605Y-112508510D01*
X185116639Y-112607291D01*
X185224060Y-112678796D01*
X185347233Y-112717278D01*
X185356203Y-112717442D01*
X185356207Y-112717443D01*
X185414942Y-112718519D01*
X185476255Y-112719643D01*
X185538505Y-112702672D01*
X185592092Y-112688062D01*
X185592093Y-112688062D01*
X185600755Y-112685700D01*
X185608405Y-112681003D01*
X185608407Y-112681002D01*
X185703072Y-112622878D01*
X185703075Y-112622875D01*
X185710724Y-112618179D01*
X185716750Y-112611522D01*
X185791300Y-112529161D01*
X185791303Y-112529157D01*
X185797322Y-112522507D01*
X185853588Y-112406375D01*
X185874997Y-112279120D01*
X185875133Y-112268000D01*
X185856839Y-112140259D01*
X185803428Y-112022788D01*
X185719193Y-111925028D01*
X185610906Y-111854841D01*
X185602311Y-111852271D01*
X185602310Y-111852270D01*
X185495874Y-111820438D01*
X185495872Y-111820438D01*
X185487273Y-111817866D01*
X185478298Y-111817811D01*
X185478297Y-111817811D01*
X185423641Y-111817477D01*
X185358231Y-111817078D01*
X185346475Y-111820438D01*
X185242786Y-111850072D01*
X185242784Y-111850073D01*
X185234155Y-111852539D01*
X185125019Y-111921399D01*
X185039596Y-112018122D01*
X185035782Y-112026245D01*
X185035781Y-112026247D01*
X185009794Y-112081598D01*
X184984754Y-112134932D01*
X184983374Y-112143798D01*
X184966282Y-112253567D01*
X184966282Y-112253571D01*
X184964901Y-112262440D01*
X171091713Y-112262440D01*
X163979713Y-105150440D01*
X178106901Y-105150440D01*
X178108065Y-105159342D01*
X178108065Y-105159345D01*
X178122468Y-105269489D01*
X178122469Y-105269493D01*
X178123633Y-105278394D01*
X178175605Y-105396510D01*
X178181382Y-105403383D01*
X178181383Y-105403384D01*
X178252859Y-105488415D01*
X178258639Y-105495291D01*
X178366060Y-105566796D01*
X178489233Y-105605278D01*
X178498203Y-105605442D01*
X178498207Y-105605443D01*
X178556942Y-105606519D01*
X178618255Y-105607643D01*
X178680505Y-105590671D01*
X178734092Y-105576062D01*
X178734093Y-105576062D01*
X178742755Y-105573700D01*
X178750405Y-105569003D01*
X178750407Y-105569002D01*
X178845072Y-105510878D01*
X178845075Y-105510875D01*
X178852724Y-105506179D01*
X178858750Y-105499522D01*
X178933300Y-105417161D01*
X178933303Y-105417157D01*
X178939322Y-105410507D01*
X178995588Y-105294375D01*
X179003300Y-105248539D01*
X179016190Y-105171917D01*
X179016997Y-105167120D01*
X179017133Y-105156000D01*
X178998839Y-105028259D01*
X178945428Y-104910788D01*
X178939568Y-104903987D01*
X178939564Y-104903981D01*
X178899309Y-104857263D01*
X178869995Y-104792601D01*
X178880294Y-104722355D01*
X178901347Y-104690461D01*
X178933300Y-104655160D01*
X178939322Y-104648507D01*
X178995588Y-104532375D01*
X179016997Y-104405120D01*
X179017133Y-104394000D01*
X178998839Y-104266259D01*
X178945428Y-104148788D01*
X178861193Y-104051028D01*
X178752906Y-103980841D01*
X178744311Y-103978271D01*
X178744310Y-103978270D01*
X178637874Y-103946438D01*
X178637872Y-103946438D01*
X178629273Y-103943866D01*
X178620298Y-103943811D01*
X178620297Y-103943811D01*
X178565641Y-103943477D01*
X178500231Y-103943078D01*
X178488475Y-103946438D01*
X178384786Y-103976072D01*
X178384784Y-103976073D01*
X178376155Y-103978539D01*
X178267019Y-104047399D01*
X178181596Y-104144122D01*
X178177782Y-104152245D01*
X178177781Y-104152247D01*
X178151794Y-104207598D01*
X178126754Y-104260932D01*
X178125374Y-104269798D01*
X178108282Y-104379567D01*
X178108282Y-104379571D01*
X178106901Y-104388440D01*
X178108065Y-104397342D01*
X178108065Y-104397345D01*
X178122468Y-104507489D01*
X178122469Y-104507493D01*
X178123633Y-104516394D01*
X178175605Y-104634510D01*
X178225645Y-104694039D01*
X178254166Y-104759053D01*
X178243010Y-104829168D01*
X178223635Y-104858522D01*
X178181596Y-104906122D01*
X178177782Y-104914245D01*
X178177781Y-104914247D01*
X178151794Y-104969598D01*
X178126754Y-105022932D01*
X178125374Y-105031798D01*
X178108282Y-105141567D01*
X178108282Y-105141571D01*
X178106901Y-105150440D01*
X163979713Y-105150440D01*
X154581713Y-95752440D01*
X188266901Y-95752440D01*
X188268065Y-95761342D01*
X188268065Y-95761345D01*
X188282468Y-95871489D01*
X188282469Y-95871493D01*
X188283633Y-95880394D01*
X188335605Y-95998510D01*
X188341382Y-96005383D01*
X188341383Y-96005384D01*
X188347371Y-96012507D01*
X188418639Y-96097291D01*
X188526060Y-96168796D01*
X188649233Y-96207278D01*
X188658203Y-96207442D01*
X188658207Y-96207443D01*
X188716942Y-96208519D01*
X188778255Y-96209643D01*
X188840505Y-96192671D01*
X188894092Y-96178062D01*
X188894093Y-96178062D01*
X188902755Y-96175700D01*
X188910405Y-96171003D01*
X188910407Y-96171002D01*
X189005072Y-96112878D01*
X189005075Y-96112875D01*
X189012724Y-96108179D01*
X189018750Y-96101522D01*
X189093300Y-96019161D01*
X189093303Y-96019157D01*
X189099322Y-96012507D01*
X189155588Y-95896375D01*
X189169598Y-95813103D01*
X189176190Y-95773917D01*
X189176997Y-95769120D01*
X189177133Y-95758000D01*
X189158839Y-95630259D01*
X189147041Y-95604310D01*
X189109145Y-95520962D01*
X189109143Y-95520959D01*
X189105428Y-95512788D01*
X189079625Y-95482842D01*
X189027051Y-95421826D01*
X189027049Y-95421824D01*
X189021193Y-95415028D01*
X188912906Y-95344841D01*
X188904311Y-95342271D01*
X188904310Y-95342270D01*
X188797874Y-95310438D01*
X188797872Y-95310438D01*
X188789273Y-95307866D01*
X188780298Y-95307811D01*
X188780297Y-95307811D01*
X188725641Y-95307477D01*
X188660231Y-95307078D01*
X188648475Y-95310438D01*
X188544786Y-95340072D01*
X188544784Y-95340073D01*
X188536155Y-95342539D01*
X188427019Y-95411399D01*
X188421076Y-95418128D01*
X188421075Y-95418129D01*
X188417810Y-95421826D01*
X188341596Y-95508122D01*
X188337782Y-95516245D01*
X188337781Y-95516247D01*
X188323783Y-95546062D01*
X188286754Y-95624932D01*
X188285374Y-95633798D01*
X188268282Y-95743567D01*
X188268282Y-95743571D01*
X188266901Y-95752440D01*
X154581713Y-95752440D01*
X152740713Y-93911440D01*
X154738901Y-93911440D01*
X154740065Y-93920342D01*
X154740065Y-93920345D01*
X154754468Y-94030489D01*
X154754469Y-94030493D01*
X154755633Y-94039394D01*
X154807605Y-94157510D01*
X154890639Y-94256291D01*
X154998060Y-94327796D01*
X155121233Y-94366278D01*
X155130203Y-94366442D01*
X155130207Y-94366443D01*
X155188942Y-94367519D01*
X155250255Y-94368643D01*
X155312505Y-94351671D01*
X155366092Y-94337062D01*
X155366093Y-94337062D01*
X155374755Y-94334700D01*
X155382405Y-94330003D01*
X155382407Y-94330002D01*
X155477072Y-94271878D01*
X155477075Y-94271875D01*
X155484724Y-94267179D01*
X155490750Y-94260522D01*
X155565300Y-94178161D01*
X155565303Y-94178157D01*
X155571322Y-94171507D01*
X155627588Y-94055375D01*
X155639452Y-93984859D01*
X155648190Y-93932917D01*
X155648997Y-93928120D01*
X155649133Y-93917000D01*
X155648337Y-93911440D01*
X156770901Y-93911440D01*
X156772065Y-93920342D01*
X156772065Y-93920345D01*
X156786468Y-94030489D01*
X156786469Y-94030493D01*
X156787633Y-94039394D01*
X156839605Y-94157510D01*
X156922639Y-94256291D01*
X157030060Y-94327796D01*
X157153233Y-94366278D01*
X157162203Y-94366442D01*
X157162207Y-94366443D01*
X157220942Y-94367519D01*
X157282255Y-94368643D01*
X157344505Y-94351671D01*
X157398092Y-94337062D01*
X157398093Y-94337062D01*
X157406755Y-94334700D01*
X157414405Y-94330003D01*
X157414407Y-94330002D01*
X157509072Y-94271878D01*
X157509075Y-94271875D01*
X157516724Y-94267179D01*
X157522750Y-94260522D01*
X157597300Y-94178161D01*
X157597303Y-94178157D01*
X157603322Y-94171507D01*
X157659588Y-94055375D01*
X157671452Y-93984859D01*
X157673205Y-93974440D01*
X161342901Y-93974440D01*
X161344065Y-93983342D01*
X161344065Y-93983345D01*
X161358468Y-94093489D01*
X161358469Y-94093493D01*
X161359633Y-94102394D01*
X161411605Y-94220510D01*
X161417382Y-94227383D01*
X161417383Y-94227384D01*
X161450834Y-94267179D01*
X161494639Y-94319291D01*
X161602060Y-94390796D01*
X161725233Y-94429278D01*
X161734203Y-94429442D01*
X161734207Y-94429443D01*
X161792942Y-94430519D01*
X161854255Y-94431643D01*
X161941548Y-94407844D01*
X161970092Y-94400062D01*
X161970093Y-94400062D01*
X161978755Y-94397700D01*
X161986405Y-94393003D01*
X161986407Y-94393002D01*
X162081072Y-94334878D01*
X162081075Y-94334875D01*
X162088724Y-94330179D01*
X162094750Y-94323522D01*
X162169300Y-94241161D01*
X162169303Y-94241157D01*
X162175322Y-94234507D01*
X162231588Y-94118375D01*
X162240829Y-94063450D01*
X162252190Y-93995917D01*
X162252997Y-93991120D01*
X162253133Y-93980000D01*
X162243421Y-93912184D01*
X162236112Y-93861145D01*
X162236111Y-93861142D01*
X162234839Y-93852259D01*
X162206195Y-93789259D01*
X162185145Y-93742962D01*
X162185143Y-93742959D01*
X162181428Y-93734788D01*
X162134187Y-93679962D01*
X162103051Y-93643826D01*
X162103049Y-93643824D01*
X162097193Y-93637028D01*
X161988906Y-93566841D01*
X161980311Y-93564271D01*
X161980310Y-93564270D01*
X161873874Y-93532438D01*
X161873872Y-93532438D01*
X161865273Y-93529866D01*
X161856298Y-93529811D01*
X161856297Y-93529811D01*
X161801641Y-93529477D01*
X161736231Y-93529078D01*
X161724475Y-93532438D01*
X161620786Y-93562072D01*
X161620784Y-93562073D01*
X161612155Y-93564539D01*
X161503019Y-93633399D01*
X161417596Y-93730122D01*
X161413782Y-93738245D01*
X161413781Y-93738247D01*
X161396146Y-93775809D01*
X161362754Y-93846932D01*
X161361374Y-93855798D01*
X161344282Y-93965567D01*
X161344282Y-93965571D01*
X161342901Y-93974440D01*
X157673205Y-93974440D01*
X157680190Y-93932917D01*
X157680997Y-93928120D01*
X157681133Y-93917000D01*
X157671861Y-93852259D01*
X157664112Y-93798145D01*
X157664111Y-93798142D01*
X157662839Y-93789259D01*
X157641789Y-93742962D01*
X157613145Y-93679962D01*
X157613143Y-93679959D01*
X157609428Y-93671788D01*
X157525193Y-93574028D01*
X157416906Y-93503841D01*
X157408311Y-93501271D01*
X157408310Y-93501270D01*
X157301874Y-93469438D01*
X157301872Y-93469438D01*
X157293273Y-93466866D01*
X157284298Y-93466811D01*
X157284297Y-93466811D01*
X157229641Y-93466477D01*
X157164231Y-93466078D01*
X157152475Y-93469438D01*
X157048786Y-93499072D01*
X157048784Y-93499073D01*
X157040155Y-93501539D01*
X157032565Y-93506328D01*
X156996509Y-93529078D01*
X156931019Y-93570399D01*
X156925076Y-93577128D01*
X156925075Y-93577129D01*
X156879610Y-93628608D01*
X156845596Y-93667122D01*
X156841782Y-93675245D01*
X156841781Y-93675247D01*
X156819176Y-93723394D01*
X156790754Y-93783932D01*
X156789374Y-93792798D01*
X156772282Y-93902567D01*
X156772282Y-93902571D01*
X156770901Y-93911440D01*
X155648337Y-93911440D01*
X155639861Y-93852259D01*
X155632112Y-93798145D01*
X155632111Y-93798142D01*
X155630839Y-93789259D01*
X155609789Y-93742962D01*
X155581145Y-93679962D01*
X155581143Y-93679959D01*
X155577428Y-93671788D01*
X155493193Y-93574028D01*
X155384906Y-93503841D01*
X155376311Y-93501271D01*
X155376310Y-93501270D01*
X155269874Y-93469438D01*
X155269872Y-93469438D01*
X155261273Y-93466866D01*
X155252298Y-93466811D01*
X155252297Y-93466811D01*
X155197641Y-93466477D01*
X155132231Y-93466078D01*
X155120475Y-93469438D01*
X155016786Y-93499072D01*
X155016784Y-93499073D01*
X155008155Y-93501539D01*
X155000565Y-93506328D01*
X154964509Y-93529078D01*
X154899019Y-93570399D01*
X154893076Y-93577128D01*
X154893075Y-93577129D01*
X154847610Y-93628608D01*
X154813596Y-93667122D01*
X154809782Y-93675245D01*
X154809781Y-93675247D01*
X154787176Y-93723394D01*
X154758754Y-93783932D01*
X154757374Y-93792798D01*
X154740282Y-93902567D01*
X154740282Y-93902571D01*
X154738901Y-93911440D01*
X152740713Y-93911440D01*
X152443733Y-93614460D01*
X152409707Y-93552148D01*
X152414772Y-93481333D01*
X152457319Y-93424497D01*
X152499685Y-93403802D01*
X152523045Y-93397434D01*
X152572093Y-93384062D01*
X152572096Y-93384061D01*
X152580755Y-93381700D01*
X152588405Y-93377003D01*
X152588407Y-93377002D01*
X152683072Y-93318878D01*
X152683075Y-93318875D01*
X152690724Y-93314179D01*
X152696750Y-93307522D01*
X152771300Y-93225161D01*
X152771303Y-93225157D01*
X152777322Y-93218507D01*
X152833588Y-93102375D01*
X152854997Y-92975120D01*
X152855133Y-92964000D01*
X152847722Y-92912251D01*
X152838112Y-92845145D01*
X152838111Y-92845142D01*
X152836839Y-92836259D01*
X152783428Y-92718788D01*
X152719946Y-92645113D01*
X152690633Y-92580451D01*
X152689400Y-92562866D01*
X152689400Y-90164440D01*
X155500901Y-90164440D01*
X155502065Y-90173342D01*
X155502065Y-90173345D01*
X155516468Y-90283489D01*
X155516469Y-90283493D01*
X155517633Y-90292394D01*
X155569605Y-90410510D01*
X155652639Y-90509291D01*
X155760060Y-90580796D01*
X155883233Y-90619278D01*
X155892203Y-90619442D01*
X155892207Y-90619443D01*
X155950942Y-90620519D01*
X156012255Y-90621643D01*
X156074505Y-90604672D01*
X156128092Y-90590062D01*
X156128093Y-90590062D01*
X156136755Y-90587700D01*
X156144405Y-90583003D01*
X156144407Y-90583002D01*
X156239072Y-90524878D01*
X156239075Y-90524875D01*
X156246724Y-90520179D01*
X156252750Y-90513522D01*
X156327300Y-90431161D01*
X156327303Y-90431157D01*
X156333322Y-90424507D01*
X156389588Y-90308375D01*
X156395897Y-90270878D01*
X156410190Y-90185917D01*
X156410997Y-90181120D01*
X156411133Y-90170000D01*
X156409332Y-90157425D01*
X156419477Y-90087157D01*
X156468132Y-90032191D01*
X156493073Y-90016877D01*
X156493074Y-90016876D01*
X156500724Y-90012179D01*
X156509646Y-90002322D01*
X156581300Y-89923161D01*
X156581303Y-89923157D01*
X156587322Y-89916507D01*
X156643588Y-89800375D01*
X156645627Y-89788259D01*
X156664190Y-89677917D01*
X156664997Y-89673120D01*
X156665133Y-89662000D01*
X156653365Y-89579826D01*
X156648112Y-89543145D01*
X156648111Y-89543142D01*
X156646839Y-89534259D01*
X156634773Y-89507721D01*
X156597145Y-89424962D01*
X156597143Y-89424959D01*
X156593428Y-89416788D01*
X156509193Y-89319028D01*
X156400906Y-89248841D01*
X156392311Y-89246271D01*
X156392310Y-89246270D01*
X156285874Y-89214438D01*
X156285872Y-89214438D01*
X156277273Y-89211866D01*
X156268298Y-89211811D01*
X156268297Y-89211811D01*
X156213641Y-89211477D01*
X156148231Y-89211078D01*
X156136475Y-89214438D01*
X156032786Y-89244072D01*
X156032784Y-89244073D01*
X156024155Y-89246539D01*
X155915019Y-89315399D01*
X155829596Y-89412122D01*
X155825782Y-89420245D01*
X155825781Y-89420247D01*
X155814075Y-89445180D01*
X155774754Y-89528932D01*
X155766962Y-89578979D01*
X155756282Y-89647567D01*
X155756282Y-89647571D01*
X155754901Y-89656440D01*
X155757466Y-89676052D01*
X155746467Y-89746189D01*
X155699764Y-89798952D01*
X155668617Y-89818604D01*
X155668612Y-89818608D01*
X155661019Y-89823399D01*
X155655076Y-89830128D01*
X155655075Y-89830129D01*
X155598410Y-89894290D01*
X155575596Y-89920122D01*
X155571782Y-89928245D01*
X155571781Y-89928247D01*
X155564447Y-89943869D01*
X155520754Y-90036932D01*
X155514753Y-90075473D01*
X155502282Y-90155567D01*
X155502282Y-90155571D01*
X155500901Y-90164440D01*
X152689400Y-90164440D01*
X152689400Y-89656440D01*
X152960901Y-89656440D01*
X152962065Y-89665342D01*
X152962065Y-89665345D01*
X152976468Y-89775489D01*
X152976469Y-89775493D01*
X152977633Y-89784394D01*
X153029605Y-89902510D01*
X153035382Y-89909383D01*
X153035383Y-89909384D01*
X153041371Y-89916507D01*
X153112639Y-90001291D01*
X153220060Y-90072796D01*
X153343233Y-90111278D01*
X153352203Y-90111442D01*
X153352207Y-90111443D01*
X153410942Y-90112519D01*
X153472255Y-90113643D01*
X153534505Y-90096672D01*
X153588092Y-90082062D01*
X153588093Y-90082062D01*
X153596755Y-90079700D01*
X153604405Y-90075003D01*
X153604407Y-90075002D01*
X153699072Y-90016878D01*
X153699075Y-90016875D01*
X153706724Y-90012179D01*
X153712920Y-90005334D01*
X153787300Y-89923161D01*
X153787303Y-89923157D01*
X153793322Y-89916507D01*
X153849588Y-89800375D01*
X153851627Y-89788259D01*
X153870190Y-89677917D01*
X153870997Y-89673120D01*
X153871133Y-89662000D01*
X153859365Y-89579826D01*
X153854112Y-89543145D01*
X153854111Y-89543142D01*
X153852839Y-89534259D01*
X153840773Y-89507721D01*
X153803145Y-89424962D01*
X153803143Y-89424959D01*
X153799428Y-89416788D01*
X153715193Y-89319028D01*
X153606906Y-89248841D01*
X153598311Y-89246271D01*
X153598310Y-89246270D01*
X153491874Y-89214438D01*
X153491872Y-89214438D01*
X153483273Y-89211866D01*
X153474298Y-89211811D01*
X153474297Y-89211811D01*
X153419641Y-89211477D01*
X153354231Y-89211078D01*
X153342475Y-89214438D01*
X153238786Y-89244072D01*
X153238784Y-89244073D01*
X153230155Y-89246539D01*
X153121019Y-89315399D01*
X153035596Y-89412122D01*
X153031782Y-89420245D01*
X153031781Y-89420247D01*
X153020075Y-89445180D01*
X152980754Y-89528932D01*
X152972962Y-89578979D01*
X152962282Y-89647567D01*
X152962282Y-89647571D01*
X152960901Y-89656440D01*
X152689400Y-89656440D01*
X152689400Y-85221500D01*
X152709402Y-85153379D01*
X152763058Y-85106886D01*
X152815400Y-85095500D01*
X155576000Y-85095500D01*
X155579346Y-85095140D01*
X155579351Y-85095140D01*
X155681785Y-85084128D01*
X155681792Y-85084127D01*
X155685149Y-85083766D01*
X155688450Y-85083048D01*
X155734210Y-85073094D01*
X155734215Y-85073093D01*
X155737491Y-85072380D01*
X155841657Y-85037710D01*
X155964612Y-84958692D01*
X156002032Y-84926268D01*
X156014875Y-84915139D01*
X156018268Y-84912199D01*
X156073888Y-84848010D01*
X156108081Y-84808550D01*
X156108083Y-84808547D01*
X156113982Y-84801739D01*
X156174698Y-84668790D01*
X156194700Y-84600669D01*
X156195511Y-84595034D01*
X156214861Y-84460447D01*
X156214861Y-84460442D01*
X156215500Y-84456000D01*
X156215500Y-82300500D01*
X156235502Y-82232379D01*
X156289158Y-82185886D01*
X156341500Y-82174500D01*
X156973000Y-82174500D01*
X156976346Y-82174140D01*
X156976351Y-82174140D01*
X157078785Y-82163128D01*
X157078792Y-82163127D01*
X157082149Y-82162766D01*
X157085450Y-82162048D01*
X157131210Y-82152094D01*
X157131215Y-82152093D01*
X157134491Y-82151380D01*
X157212460Y-82125429D01*
X157231182Y-82119198D01*
X157238657Y-82116710D01*
X157361612Y-82037692D01*
X157368125Y-82032049D01*
X157411875Y-81994139D01*
X157415268Y-81991199D01*
X157445595Y-81956200D01*
X157505081Y-81887550D01*
X157505083Y-81887547D01*
X157510982Y-81880739D01*
X157515469Y-81870915D01*
X157569829Y-81751882D01*
X157571698Y-81747790D01*
X157578673Y-81724036D01*
X157590431Y-81683992D01*
X157590432Y-81683988D01*
X157591700Y-81679669D01*
X157593741Y-81665478D01*
X157611861Y-81539447D01*
X157611861Y-81539442D01*
X157612500Y-81535000D01*
X157612500Y-81528440D01*
X158548901Y-81528440D01*
X158550065Y-81537342D01*
X158550065Y-81537345D01*
X158564468Y-81647489D01*
X158564469Y-81647493D01*
X158565633Y-81656394D01*
X158569250Y-81664614D01*
X158605943Y-81748005D01*
X158617605Y-81774510D01*
X158623382Y-81781383D01*
X158623383Y-81781384D01*
X158694859Y-81866415D01*
X158700639Y-81873291D01*
X158808060Y-81944796D01*
X158931233Y-81983278D01*
X158940203Y-81983442D01*
X158940207Y-81983443D01*
X158998942Y-81984519D01*
X159060255Y-81985643D01*
X159159586Y-81958562D01*
X159176092Y-81954062D01*
X159176093Y-81954062D01*
X159184755Y-81951700D01*
X159192405Y-81947003D01*
X159192407Y-81947002D01*
X159287072Y-81888878D01*
X159287075Y-81888875D01*
X159294724Y-81884179D01*
X159300750Y-81877522D01*
X159375300Y-81795161D01*
X159375303Y-81795157D01*
X159381322Y-81788507D01*
X159437588Y-81672375D01*
X159458997Y-81545120D01*
X159459133Y-81534000D01*
X159440839Y-81406259D01*
X159387428Y-81288788D01*
X159312928Y-81202326D01*
X159309051Y-81197826D01*
X159309049Y-81197824D01*
X159303193Y-81191028D01*
X159194906Y-81120841D01*
X159186311Y-81118271D01*
X159186310Y-81118270D01*
X159079874Y-81086438D01*
X159079872Y-81086438D01*
X159071273Y-81083866D01*
X159062298Y-81083811D01*
X159062297Y-81083811D01*
X159007641Y-81083477D01*
X158942231Y-81083078D01*
X158923729Y-81088366D01*
X158826786Y-81116072D01*
X158826784Y-81116073D01*
X158818155Y-81118539D01*
X158810565Y-81123328D01*
X158720361Y-81180243D01*
X158709019Y-81187399D01*
X158703076Y-81194128D01*
X158703075Y-81194129D01*
X158699810Y-81197826D01*
X158623596Y-81284122D01*
X158619782Y-81292245D01*
X158619781Y-81292247D01*
X158615455Y-81301462D01*
X158568754Y-81400932D01*
X158559626Y-81459558D01*
X158550282Y-81519567D01*
X158550282Y-81519571D01*
X158548901Y-81528440D01*
X157612500Y-81528440D01*
X157612500Y-77978702D01*
X157612255Y-77975394D01*
X157607369Y-77909636D01*
X157607368Y-77909633D01*
X157606862Y-77902816D01*
X157564910Y-77762809D01*
X157485214Y-77640292D01*
X157478373Y-77634430D01*
X157475705Y-77631385D01*
X157445857Y-77566968D01*
X157444530Y-77544590D01*
X157631322Y-71287036D01*
X157651295Y-71222633D01*
X157678863Y-71179774D01*
X157678865Y-71179771D01*
X157681388Y-71175848D01*
X157785197Y-70945400D01*
X157837184Y-70761067D01*
X157874925Y-70700933D01*
X157939186Y-70670750D01*
X158009565Y-70680100D01*
X158063715Y-70726016D01*
X158082539Y-70773388D01*
X158192157Y-71395059D01*
X158212091Y-71508112D01*
X158212868Y-71514539D01*
X158212933Y-71514530D01*
X158213551Y-71518984D01*
X158213850Y-71523476D01*
X158226000Y-71580691D01*
X160214993Y-76995171D01*
X160219707Y-77066011D01*
X160211334Y-77090961D01*
X160171560Y-77178054D01*
X160162300Y-77198330D01*
X160161018Y-77207245D01*
X160161018Y-77207246D01*
X160142139Y-77338552D01*
X160142138Y-77338559D01*
X160141500Y-77343000D01*
X160141500Y-84042450D01*
X160121498Y-84110571D01*
X160067842Y-84157064D01*
X159997568Y-84167168D01*
X159932988Y-84137674D01*
X159900799Y-84094601D01*
X159895428Y-84082788D01*
X159836124Y-84013962D01*
X159817051Y-83991826D01*
X159817049Y-83991824D01*
X159811193Y-83985028D01*
X159702906Y-83914841D01*
X159694311Y-83912271D01*
X159694310Y-83912270D01*
X159587874Y-83880438D01*
X159587872Y-83880438D01*
X159579273Y-83877866D01*
X159570298Y-83877811D01*
X159570297Y-83877811D01*
X159515641Y-83877477D01*
X159450231Y-83877078D01*
X159388193Y-83894808D01*
X159334786Y-83910072D01*
X159334784Y-83910073D01*
X159326155Y-83912539D01*
X159217019Y-83981399D01*
X159131596Y-84078122D01*
X159127782Y-84086245D01*
X159127781Y-84086247D01*
X159106733Y-84131078D01*
X159076754Y-84194932D01*
X159071266Y-84230180D01*
X159058282Y-84313567D01*
X159058282Y-84313571D01*
X159056901Y-84322440D01*
X159058065Y-84331342D01*
X159058065Y-84331345D01*
X159072468Y-84441489D01*
X159072469Y-84441493D01*
X159073633Y-84450394D01*
X159125605Y-84568510D01*
X159131382Y-84575383D01*
X159131383Y-84575384D01*
X159182537Y-84636239D01*
X159208639Y-84667291D01*
X159316060Y-84738796D01*
X159439233Y-84777278D01*
X159448203Y-84777442D01*
X159448207Y-84777443D01*
X159506942Y-84778519D01*
X159568255Y-84779643D01*
X159670744Y-84751701D01*
X159684092Y-84748062D01*
X159684093Y-84748062D01*
X159692755Y-84745700D01*
X159700405Y-84741003D01*
X159700407Y-84741002D01*
X159795072Y-84682878D01*
X159795075Y-84682875D01*
X159802724Y-84678179D01*
X159811223Y-84668790D01*
X159883300Y-84589161D01*
X159883303Y-84589157D01*
X159889322Y-84582507D01*
X159915381Y-84528722D01*
X159963084Y-84476139D01*
X160031642Y-84457694D01*
X160099290Y-84479242D01*
X160144549Y-84533942D01*
X160153003Y-84563002D01*
X160153234Y-84565149D01*
X160153948Y-84568433D01*
X160153949Y-84568437D01*
X160160961Y-84600669D01*
X160164620Y-84617491D01*
X160199290Y-84721657D01*
X160278308Y-84844612D01*
X160324801Y-84898268D01*
X160328192Y-84901206D01*
X160428450Y-84988081D01*
X160428453Y-84988083D01*
X160435261Y-84993982D01*
X160443459Y-84997726D01*
X160452954Y-85002062D01*
X160568210Y-85054698D01*
X160591964Y-85061673D01*
X160632008Y-85073431D01*
X160632012Y-85073432D01*
X160636331Y-85074700D01*
X160640785Y-85075340D01*
X160645187Y-85076298D01*
X160644838Y-85077901D01*
X160703099Y-85104498D01*
X160741491Y-85164219D01*
X160746600Y-85199734D01*
X160746600Y-85679937D01*
X160726598Y-85748058D01*
X160709695Y-85769032D01*
X158834887Y-87643839D01*
X158833120Y-87645364D01*
X158828464Y-87647640D01*
X158797094Y-87681458D01*
X158796457Y-87682144D01*
X158793177Y-87685549D01*
X158780330Y-87698396D01*
X158777675Y-87702266D01*
X158775617Y-87704610D01*
X158755144Y-87726680D01*
X158750833Y-87737485D01*
X158747632Y-87742549D01*
X158743835Y-87749660D01*
X158741412Y-87755128D01*
X158734831Y-87764721D01*
X158732145Y-87776041D01*
X158729428Y-87787489D01*
X158723864Y-87805082D01*
X158718489Y-87818554D01*
X158718488Y-87818559D01*
X158715194Y-87826815D01*
X158714600Y-87832873D01*
X158714600Y-87835960D01*
X158714450Y-87839024D01*
X158714157Y-87839010D01*
X158713145Y-87847657D01*
X158712625Y-87858296D01*
X158709938Y-87869617D01*
X158711507Y-87881146D01*
X158711507Y-87881148D01*
X158713449Y-87895416D01*
X158714600Y-87912407D01*
X158714600Y-89199603D01*
X158694598Y-89267724D01*
X158640942Y-89314217D01*
X158570668Y-89324321D01*
X158520068Y-89305336D01*
X158432906Y-89248841D01*
X158424311Y-89246271D01*
X158424310Y-89246270D01*
X158317874Y-89214438D01*
X158317872Y-89214438D01*
X158309273Y-89211866D01*
X158300298Y-89211811D01*
X158300297Y-89211811D01*
X158245641Y-89211477D01*
X158180231Y-89211078D01*
X158168475Y-89214438D01*
X158064786Y-89244072D01*
X158064784Y-89244073D01*
X158056155Y-89246539D01*
X157947019Y-89315399D01*
X157941996Y-89321087D01*
X157877792Y-89349721D01*
X157807611Y-89338993D01*
X157782051Y-89322344D01*
X157779193Y-89319028D01*
X157670906Y-89248841D01*
X157662311Y-89246271D01*
X157662310Y-89246270D01*
X157555874Y-89214438D01*
X157555872Y-89214438D01*
X157547273Y-89211866D01*
X157538298Y-89211811D01*
X157538297Y-89211811D01*
X157483641Y-89211477D01*
X157418231Y-89211078D01*
X157406475Y-89214438D01*
X157302786Y-89244072D01*
X157302784Y-89244073D01*
X157294155Y-89246539D01*
X157185019Y-89315399D01*
X157099596Y-89412122D01*
X157095782Y-89420245D01*
X157095781Y-89420247D01*
X157084075Y-89445180D01*
X157044754Y-89528932D01*
X157036962Y-89578979D01*
X157026282Y-89647567D01*
X157026282Y-89647571D01*
X157024901Y-89656440D01*
X157026065Y-89665342D01*
X157026065Y-89665345D01*
X157040468Y-89775489D01*
X157040469Y-89775493D01*
X157041633Y-89784394D01*
X157093605Y-89902510D01*
X157099382Y-89909383D01*
X157099383Y-89909384D01*
X157105371Y-89916507D01*
X157176639Y-90001291D01*
X157284060Y-90072796D01*
X157407233Y-90111278D01*
X157416203Y-90111442D01*
X157416207Y-90111443D01*
X157474942Y-90112519D01*
X157536255Y-90113643D01*
X157598505Y-90096672D01*
X157652092Y-90082062D01*
X157652093Y-90082062D01*
X157660755Y-90079700D01*
X157668405Y-90075003D01*
X157668407Y-90075002D01*
X157716413Y-90045526D01*
X157770724Y-90012179D01*
X157776750Y-90005522D01*
X157780604Y-90002322D01*
X157845793Y-89974198D01*
X157915838Y-89985782D01*
X157938143Y-90000701D01*
X157938639Y-90001291D01*
X157946110Y-90006264D01*
X157946111Y-90006265D01*
X158005501Y-90045798D01*
X158046060Y-90072796D01*
X158169233Y-90111278D01*
X158178203Y-90111442D01*
X158178207Y-90111443D01*
X158236942Y-90112519D01*
X158298255Y-90113643D01*
X158360505Y-90096672D01*
X158414092Y-90082062D01*
X158414093Y-90082062D01*
X158422755Y-90079700D01*
X158430405Y-90075003D01*
X158430407Y-90075002D01*
X158522672Y-90018351D01*
X158591189Y-89999753D01*
X158658884Y-90021150D01*
X158704265Y-90075750D01*
X158714600Y-90125726D01*
X158714600Y-92563405D01*
X158694598Y-92631526D01*
X158683041Y-92646812D01*
X158629541Y-92707390D01*
X158629540Y-92707392D01*
X158623596Y-92714122D01*
X158619782Y-92722245D01*
X158619781Y-92722247D01*
X158593794Y-92777598D01*
X158568754Y-92830932D01*
X158566541Y-92845145D01*
X158550282Y-92949567D01*
X158550282Y-92949571D01*
X158548901Y-92958440D01*
X158550065Y-92967342D01*
X158550065Y-92967345D01*
X158564468Y-93077489D01*
X158564469Y-93077493D01*
X158565633Y-93086394D01*
X158617605Y-93204510D01*
X158700639Y-93303291D01*
X158808060Y-93374796D01*
X158931233Y-93413278D01*
X158940203Y-93413442D01*
X158940207Y-93413443D01*
X158998942Y-93414519D01*
X159060255Y-93415643D01*
X159122505Y-93398671D01*
X159176092Y-93384062D01*
X159176093Y-93384062D01*
X159184755Y-93381700D01*
X159192405Y-93377003D01*
X159192407Y-93377002D01*
X159287072Y-93318878D01*
X159287075Y-93318875D01*
X159294724Y-93314179D01*
X159300750Y-93307522D01*
X159375300Y-93225161D01*
X159375303Y-93225157D01*
X159381322Y-93218507D01*
X159437588Y-93102375D01*
X159458997Y-92975120D01*
X159459133Y-92964000D01*
X159458337Y-92958440D01*
X187758901Y-92958440D01*
X187760065Y-92967342D01*
X187760065Y-92967345D01*
X187774468Y-93077489D01*
X187774469Y-93077493D01*
X187775633Y-93086394D01*
X187827605Y-93204510D01*
X187910639Y-93303291D01*
X188018060Y-93374796D01*
X188141233Y-93413278D01*
X188150203Y-93413442D01*
X188150207Y-93413443D01*
X188208942Y-93414519D01*
X188270255Y-93415643D01*
X188332505Y-93398671D01*
X188386092Y-93384062D01*
X188386093Y-93384062D01*
X188394755Y-93381700D01*
X188402405Y-93377003D01*
X188402407Y-93377002D01*
X188497072Y-93318878D01*
X188497075Y-93318875D01*
X188504724Y-93314179D01*
X188510750Y-93307522D01*
X188585300Y-93225161D01*
X188585303Y-93225157D01*
X188591322Y-93218507D01*
X188647588Y-93102375D01*
X188668997Y-92975120D01*
X188669133Y-92964000D01*
X188661722Y-92912251D01*
X188652112Y-92845145D01*
X188652111Y-92845142D01*
X188650839Y-92836259D01*
X188597428Y-92718788D01*
X188513193Y-92621028D01*
X188404906Y-92550841D01*
X188396311Y-92548271D01*
X188396310Y-92548270D01*
X188289874Y-92516438D01*
X188289872Y-92516438D01*
X188281273Y-92513866D01*
X188272298Y-92513811D01*
X188272297Y-92513811D01*
X188217641Y-92513477D01*
X188152231Y-92513078D01*
X188140475Y-92516438D01*
X188036786Y-92546072D01*
X188036784Y-92546073D01*
X188028155Y-92548539D01*
X187919019Y-92617399D01*
X187833596Y-92714122D01*
X187829782Y-92722245D01*
X187829781Y-92722247D01*
X187803794Y-92777598D01*
X187778754Y-92830932D01*
X187776541Y-92845145D01*
X187760282Y-92949567D01*
X187760282Y-92949571D01*
X187758901Y-92958440D01*
X159458337Y-92958440D01*
X159451722Y-92912251D01*
X159442112Y-92845145D01*
X159442111Y-92845142D01*
X159440839Y-92836259D01*
X159387428Y-92718788D01*
X159323946Y-92645113D01*
X159294633Y-92580451D01*
X159293400Y-92562866D01*
X159293400Y-91434440D01*
X189790901Y-91434440D01*
X189792065Y-91443342D01*
X189792065Y-91443345D01*
X189806468Y-91553489D01*
X189806469Y-91553493D01*
X189807633Y-91562394D01*
X189859605Y-91680510D01*
X189865382Y-91687383D01*
X189865383Y-91687384D01*
X189915579Y-91747099D01*
X189942639Y-91779291D01*
X190050060Y-91850796D01*
X190173233Y-91889278D01*
X190182203Y-91889442D01*
X190182207Y-91889443D01*
X190240942Y-91890519D01*
X190302255Y-91891643D01*
X190406017Y-91863354D01*
X190418092Y-91860062D01*
X190418093Y-91860062D01*
X190426755Y-91857700D01*
X190434405Y-91853003D01*
X190434407Y-91853002D01*
X190529072Y-91794878D01*
X190529075Y-91794875D01*
X190536724Y-91790179D01*
X190543790Y-91782373D01*
X190617300Y-91701161D01*
X190617303Y-91701157D01*
X190623322Y-91694507D01*
X190679588Y-91578375D01*
X190700997Y-91451120D01*
X190701133Y-91440000D01*
X190682839Y-91312259D01*
X190629428Y-91194788D01*
X190545193Y-91097028D01*
X190436906Y-91026841D01*
X190428311Y-91024271D01*
X190428310Y-91024270D01*
X190321874Y-90992438D01*
X190321872Y-90992438D01*
X190313273Y-90989866D01*
X190304298Y-90989811D01*
X190304297Y-90989811D01*
X190249641Y-90989477D01*
X190184231Y-90989078D01*
X190172475Y-90992438D01*
X190068786Y-91022072D01*
X190068784Y-91022073D01*
X190060155Y-91024539D01*
X189951019Y-91093399D01*
X189865596Y-91190122D01*
X189861782Y-91198245D01*
X189861781Y-91198247D01*
X189835794Y-91253598D01*
X189810754Y-91306932D01*
X189809374Y-91315798D01*
X189792282Y-91425567D01*
X189792282Y-91425571D01*
X189790901Y-91434440D01*
X159293400Y-91434440D01*
X159293400Y-89910440D01*
X160357301Y-89910440D01*
X160358465Y-89919342D01*
X160358465Y-89919345D01*
X160372868Y-90029489D01*
X160372869Y-90029493D01*
X160374033Y-90038394D01*
X160426005Y-90156510D01*
X160431782Y-90163383D01*
X160431783Y-90163384D01*
X160437771Y-90170507D01*
X160509039Y-90255291D01*
X160616460Y-90326796D01*
X160739633Y-90365278D01*
X160748603Y-90365442D01*
X160748607Y-90365443D01*
X160807342Y-90366519D01*
X160868655Y-90367643D01*
X160930905Y-90350671D01*
X160984492Y-90336062D01*
X160984493Y-90336062D01*
X160993155Y-90333700D01*
X161000805Y-90329003D01*
X161000807Y-90329002D01*
X161095472Y-90270878D01*
X161095475Y-90270875D01*
X161103124Y-90266179D01*
X161109150Y-90259522D01*
X161183700Y-90177161D01*
X161183703Y-90177157D01*
X161189722Y-90170507D01*
X161245988Y-90054375D01*
X161252297Y-90016878D01*
X161266590Y-89931917D01*
X161267397Y-89927120D01*
X161267533Y-89916000D01*
X161255235Y-89830129D01*
X161250512Y-89797145D01*
X161250511Y-89797142D01*
X161249239Y-89788259D01*
X161243124Y-89774809D01*
X161199545Y-89678962D01*
X161199543Y-89678959D01*
X161195828Y-89670788D01*
X161183465Y-89656440D01*
X162104901Y-89656440D01*
X162106065Y-89665342D01*
X162106065Y-89665345D01*
X162120468Y-89775489D01*
X162120469Y-89775493D01*
X162121633Y-89784394D01*
X162173605Y-89902510D01*
X162179382Y-89909383D01*
X162179383Y-89909384D01*
X162185371Y-89916507D01*
X162256639Y-90001291D01*
X162364060Y-90072796D01*
X162487233Y-90111278D01*
X162496203Y-90111442D01*
X162496207Y-90111443D01*
X162554942Y-90112519D01*
X162616255Y-90113643D01*
X162678505Y-90096672D01*
X162732092Y-90082062D01*
X162732093Y-90082062D01*
X162740755Y-90079700D01*
X162748407Y-90075002D01*
X162756642Y-90071438D01*
X162757678Y-90073833D01*
X162812997Y-90058824D01*
X162880690Y-90080229D01*
X162925723Y-90134050D01*
X162935605Y-90156510D01*
X162941382Y-90163383D01*
X162941383Y-90163384D01*
X162947371Y-90170507D01*
X163018639Y-90255291D01*
X163126060Y-90326796D01*
X163249233Y-90365278D01*
X163258203Y-90365442D01*
X163258207Y-90365443D01*
X163316942Y-90366519D01*
X163378255Y-90367643D01*
X163440505Y-90350671D01*
X163494092Y-90336062D01*
X163494093Y-90336062D01*
X163502755Y-90333700D01*
X163510405Y-90329003D01*
X163510407Y-90329002D01*
X163605072Y-90270878D01*
X163605075Y-90270875D01*
X163612724Y-90266179D01*
X163618750Y-90259522D01*
X163693300Y-90177161D01*
X163693303Y-90177157D01*
X163699322Y-90170507D01*
X163755588Y-90054375D01*
X163761897Y-90016878D01*
X163776190Y-89931917D01*
X163776997Y-89927120D01*
X163777133Y-89916000D01*
X163764835Y-89830129D01*
X163760112Y-89797145D01*
X163760111Y-89797142D01*
X163758839Y-89788259D01*
X163752724Y-89774809D01*
X163709145Y-89678962D01*
X163709143Y-89678959D01*
X163705428Y-89670788D01*
X163679625Y-89640842D01*
X163627051Y-89579826D01*
X163627049Y-89579824D01*
X163621193Y-89573028D01*
X163512906Y-89502841D01*
X163504311Y-89500271D01*
X163504310Y-89500270D01*
X163397874Y-89468438D01*
X163397872Y-89468438D01*
X163389273Y-89465866D01*
X163380298Y-89465811D01*
X163380297Y-89465811D01*
X163325641Y-89465477D01*
X163260231Y-89465078D01*
X163248475Y-89468438D01*
X163144787Y-89498072D01*
X163136155Y-89500539D01*
X163128568Y-89505326D01*
X163122485Y-89508047D01*
X163052135Y-89517603D01*
X162987786Y-89487607D01*
X162956337Y-89445180D01*
X162943428Y-89416788D01*
X162859193Y-89319028D01*
X162750906Y-89248841D01*
X162742311Y-89246271D01*
X162742310Y-89246270D01*
X162635874Y-89214438D01*
X162635872Y-89214438D01*
X162627273Y-89211866D01*
X162618298Y-89211811D01*
X162618297Y-89211811D01*
X162563641Y-89211477D01*
X162498231Y-89211078D01*
X162486475Y-89214438D01*
X162382786Y-89244072D01*
X162382784Y-89244073D01*
X162374155Y-89246539D01*
X162265019Y-89315399D01*
X162179596Y-89412122D01*
X162175782Y-89420245D01*
X162175781Y-89420247D01*
X162164075Y-89445180D01*
X162124754Y-89528932D01*
X162116962Y-89578979D01*
X162106282Y-89647567D01*
X162106282Y-89647571D01*
X162104901Y-89656440D01*
X161183465Y-89656440D01*
X161170025Y-89640842D01*
X161117451Y-89579826D01*
X161117449Y-89579824D01*
X161111593Y-89573028D01*
X161003306Y-89502841D01*
X160994711Y-89500271D01*
X160994710Y-89500270D01*
X160888274Y-89468438D01*
X160888272Y-89468438D01*
X160879673Y-89465866D01*
X160870698Y-89465811D01*
X160870697Y-89465811D01*
X160816041Y-89465477D01*
X160750631Y-89465078D01*
X160738875Y-89468438D01*
X160635186Y-89498072D01*
X160635184Y-89498073D01*
X160626555Y-89500539D01*
X160618965Y-89505328D01*
X160533037Y-89559545D01*
X160517419Y-89569399D01*
X160431996Y-89666122D01*
X160428182Y-89674245D01*
X160428181Y-89674247D01*
X160402194Y-89729598D01*
X160377154Y-89782932D01*
X160368026Y-89841558D01*
X160358682Y-89901567D01*
X160358682Y-89901571D01*
X160357301Y-89910440D01*
X159293400Y-89910440D01*
X159293400Y-88056063D01*
X159313402Y-87987942D01*
X159330305Y-87966968D01*
X161205108Y-86092165D01*
X161206879Y-86090637D01*
X161211536Y-86088360D01*
X161243556Y-86053842D01*
X161246836Y-86050437D01*
X161259670Y-86037603D01*
X161262324Y-86033734D01*
X161264368Y-86031406D01*
X161276946Y-86017847D01*
X161284856Y-86009320D01*
X161289166Y-85998517D01*
X161292366Y-85993455D01*
X161296165Y-85986340D01*
X161298588Y-85980872D01*
X161305169Y-85971279D01*
X161310572Y-85948511D01*
X161316136Y-85930918D01*
X161321511Y-85917446D01*
X161321512Y-85917441D01*
X161324806Y-85909185D01*
X161325400Y-85903127D01*
X161325400Y-85900040D01*
X161325550Y-85896976D01*
X161325843Y-85896990D01*
X161326855Y-85888343D01*
X161327375Y-85877704D01*
X161330062Y-85866383D01*
X161326551Y-85840584D01*
X161325400Y-85823593D01*
X161325400Y-85221500D01*
X161345402Y-85153379D01*
X161399058Y-85106886D01*
X161451400Y-85095500D01*
X163704000Y-85095500D01*
X163707346Y-85095140D01*
X163707351Y-85095140D01*
X163809785Y-85084128D01*
X163809792Y-85084127D01*
X163813149Y-85083766D01*
X163816450Y-85083048D01*
X163862210Y-85073094D01*
X163862215Y-85073093D01*
X163865491Y-85072380D01*
X163969657Y-85037710D01*
X164092612Y-84958692D01*
X164130032Y-84926268D01*
X164142875Y-84915139D01*
X164146268Y-84912199D01*
X164201888Y-84848010D01*
X164236081Y-84808550D01*
X164236083Y-84808547D01*
X164241982Y-84801739D01*
X164302698Y-84668790D01*
X164322700Y-84600669D01*
X164323511Y-84595034D01*
X164342861Y-84460447D01*
X164342861Y-84460442D01*
X164343500Y-84456000D01*
X164343500Y-82300500D01*
X164363502Y-82232379D01*
X164417158Y-82185886D01*
X164469500Y-82174500D01*
X165101000Y-82174500D01*
X165104346Y-82174140D01*
X165104351Y-82174140D01*
X165206785Y-82163128D01*
X165206792Y-82163127D01*
X165210149Y-82162766D01*
X165213450Y-82162048D01*
X165259210Y-82152094D01*
X165259215Y-82152093D01*
X165262491Y-82151380D01*
X165340460Y-82125429D01*
X165359182Y-82119198D01*
X165366657Y-82116710D01*
X165489612Y-82037692D01*
X165496125Y-82032049D01*
X165539875Y-81994139D01*
X165543268Y-81991199D01*
X165573595Y-81956200D01*
X165633081Y-81887550D01*
X165633083Y-81887547D01*
X165638982Y-81880739D01*
X165643469Y-81870915D01*
X165697829Y-81751882D01*
X165699698Y-81747790D01*
X165706673Y-81724036D01*
X165718431Y-81683992D01*
X165718432Y-81683988D01*
X165719700Y-81679669D01*
X165721741Y-81665478D01*
X165739861Y-81539447D01*
X165739861Y-81539442D01*
X165740500Y-81535000D01*
X165740500Y-77469000D01*
X165728766Y-77359851D01*
X165727765Y-77355251D01*
X165718094Y-77310790D01*
X165718093Y-77310785D01*
X165717380Y-77307509D01*
X165682710Y-77203343D01*
X165603692Y-77080388D01*
X165591235Y-77066011D01*
X165560139Y-77030125D01*
X165557199Y-77026732D01*
X165547680Y-77018484D01*
X165453550Y-76936919D01*
X165453547Y-76936917D01*
X165446739Y-76931018D01*
X165425620Y-76921373D01*
X165345540Y-76884802D01*
X165313790Y-76870302D01*
X165290036Y-76863327D01*
X165249992Y-76851569D01*
X165249988Y-76851568D01*
X165245669Y-76850300D01*
X165241220Y-76849660D01*
X165241214Y-76849659D01*
X165105447Y-76830139D01*
X165105442Y-76830139D01*
X165101000Y-76829500D01*
X165096307Y-76829500D01*
X165096244Y-76829481D01*
X165092014Y-76829179D01*
X165092080Y-76828259D01*
X165028186Y-76809498D01*
X164987033Y-76766231D01*
X163417781Y-74032695D01*
X180639723Y-74032695D01*
X180650567Y-74308701D01*
X180651367Y-74313081D01*
X180692484Y-74538214D01*
X180700193Y-74580427D01*
X180787610Y-74842449D01*
X180789603Y-74846437D01*
X180872790Y-75012920D01*
X180911074Y-75089539D01*
X181068122Y-75316769D01*
X181255620Y-75519603D01*
X181259074Y-75522415D01*
X181466371Y-75691181D01*
X181466375Y-75691184D01*
X181469828Y-75693995D01*
X181473650Y-75696296D01*
X181637001Y-75794641D01*
X181706470Y-75836465D01*
X181804987Y-75878182D01*
X181956722Y-75942434D01*
X181956727Y-75942436D01*
X181960825Y-75944171D01*
X181965122Y-75945310D01*
X181965127Y-75945312D01*
X182094322Y-75979567D01*
X182227819Y-76014963D01*
X182502124Y-76047429D01*
X182778267Y-76040922D01*
X182863827Y-76026681D01*
X183046348Y-75996301D01*
X183046352Y-75996300D01*
X183050738Y-75995570D01*
X183054979Y-75994229D01*
X183054982Y-75994228D01*
X183309855Y-75913622D01*
X183309857Y-75913621D01*
X183314101Y-75912279D01*
X183318112Y-75910353D01*
X183318117Y-75910351D01*
X183559082Y-75794641D01*
X183559083Y-75794640D01*
X183563101Y-75792711D01*
X183566807Y-75790235D01*
X183789061Y-75641730D01*
X183789065Y-75641727D01*
X183792769Y-75639252D01*
X183998523Y-75454963D01*
X184176258Y-75243521D01*
X184322428Y-75009146D01*
X184434115Y-74756514D01*
X184509093Y-74490665D01*
X184532945Y-74313081D01*
X184545436Y-74220086D01*
X184545437Y-74220079D01*
X184545863Y-74216904D01*
X184549722Y-74094118D01*
X184530213Y-73818588D01*
X184517151Y-73757914D01*
X184473013Y-73552903D01*
X184473013Y-73552901D01*
X184472077Y-73548556D01*
X184376473Y-73289409D01*
X184249617Y-73054303D01*
X184247421Y-73050234D01*
X184245308Y-73046318D01*
X184081200Y-72824134D01*
X184072975Y-72815778D01*
X183912939Y-72653209D01*
X183887423Y-72627289D01*
X183667844Y-72459712D01*
X183613688Y-72429383D01*
X183430730Y-72326921D01*
X183430727Y-72326920D01*
X183426844Y-72324745D01*
X183422699Y-72323141D01*
X183422696Y-72323140D01*
X183279950Y-72267916D01*
X183169231Y-72225082D01*
X183164906Y-72224079D01*
X183164901Y-72224078D01*
X182975787Y-72180244D01*
X182900145Y-72162711D01*
X182624955Y-72138877D01*
X182620520Y-72139121D01*
X182620516Y-72139121D01*
X182353596Y-72153811D01*
X182353589Y-72153812D01*
X182349153Y-72154056D01*
X182212986Y-72181141D01*
X182082604Y-72207075D01*
X182082602Y-72207076D01*
X182078241Y-72207943D01*
X181817624Y-72299465D01*
X181572503Y-72426796D01*
X181568888Y-72429379D01*
X181568882Y-72429383D01*
X181351390Y-72584805D01*
X181351386Y-72584808D01*
X181347769Y-72587393D01*
X181344549Y-72590465D01*
X181183144Y-72744438D01*
X181147905Y-72778054D01*
X181145149Y-72781549D01*
X181145148Y-72781551D01*
X181054370Y-72896703D01*
X180976899Y-72994974D01*
X180944076Y-73051483D01*
X180840401Y-73229971D01*
X180840398Y-73229977D01*
X180838163Y-73233825D01*
X180734466Y-73489841D01*
X180733395Y-73494154D01*
X180733393Y-73494159D01*
X180668949Y-73753593D01*
X180667876Y-73757914D01*
X180667422Y-73762342D01*
X180667422Y-73762344D01*
X180661203Y-73823040D01*
X180639723Y-74032695D01*
X163417781Y-74032695D01*
X162232793Y-71968522D01*
X165676175Y-71968522D01*
X165678157Y-71998768D01*
X165690004Y-72179517D01*
X165691425Y-72185113D01*
X165691426Y-72185118D01*
X165716851Y-72285226D01*
X165742053Y-72384457D01*
X165744470Y-72389700D01*
X165761571Y-72426796D01*
X165830577Y-72576481D01*
X165833910Y-72581197D01*
X165884803Y-72653209D01*
X165952612Y-72749158D01*
X165956754Y-72753193D01*
X166026311Y-72820952D01*
X166104072Y-72896703D01*
X166279884Y-73014177D01*
X166285187Y-73016455D01*
X166285190Y-73016457D01*
X166464432Y-73093465D01*
X166474159Y-73097644D01*
X166550377Y-73114890D01*
X166674756Y-73143035D01*
X166674762Y-73143036D01*
X166680393Y-73144310D01*
X166686164Y-73144537D01*
X166686166Y-73144537D01*
X166748038Y-73146968D01*
X166891676Y-73152612D01*
X166897385Y-73151784D01*
X166897389Y-73151784D01*
X167095220Y-73123099D01*
X167095224Y-73123098D01*
X167100935Y-73122270D01*
X167301160Y-73054303D01*
X167485647Y-72950986D01*
X167648216Y-72815778D01*
X167783424Y-72653209D01*
X167796384Y-72630068D01*
X167883921Y-72473757D01*
X167886741Y-72468722D01*
X167954708Y-72268497D01*
X167967375Y-72181141D01*
X167984518Y-72062908D01*
X167984518Y-72062906D01*
X167985050Y-72059238D01*
X167986633Y-71998768D01*
X167967285Y-71788208D01*
X167929222Y-71653246D01*
X167911460Y-71590265D01*
X167911458Y-71590260D01*
X167909890Y-71584700D01*
X167906562Y-71577950D01*
X167818923Y-71400238D01*
X167816369Y-71395059D01*
X167689856Y-71225636D01*
X167652221Y-71190847D01*
X167538826Y-71086026D01*
X167538824Y-71086024D01*
X167534585Y-71082106D01*
X167511938Y-71067817D01*
X167360639Y-70972354D01*
X167355759Y-70969275D01*
X167159365Y-70890922D01*
X167153705Y-70889796D01*
X167153701Y-70889795D01*
X166957648Y-70850798D01*
X166957646Y-70850798D01*
X166951981Y-70849671D01*
X166946206Y-70849595D01*
X166946202Y-70849595D01*
X166840182Y-70848207D01*
X166740552Y-70846903D01*
X166734855Y-70847882D01*
X166734854Y-70847882D01*
X166537856Y-70881732D01*
X166537855Y-70881732D01*
X166532159Y-70882711D01*
X166333782Y-70955897D01*
X166328821Y-70958849D01*
X166328820Y-70958849D01*
X166157031Y-71061052D01*
X166157028Y-71061054D01*
X166152063Y-71064008D01*
X166147723Y-71067814D01*
X166147719Y-71067817D01*
X166037934Y-71164097D01*
X165993089Y-71203425D01*
X165989513Y-71207961D01*
X165875683Y-71352353D01*
X165862183Y-71369477D01*
X165859495Y-71374586D01*
X165766420Y-71551493D01*
X165766418Y-71551498D01*
X165763731Y-71556605D01*
X165701028Y-71758541D01*
X165676175Y-71968522D01*
X162232793Y-71968522D01*
X162015645Y-71590265D01*
X161542247Y-70765637D01*
X161527435Y-70724786D01*
X161517907Y-70670750D01*
X161040360Y-67962447D01*
X161018748Y-67906872D01*
X160963590Y-67849254D01*
X160890581Y-67817129D01*
X160878175Y-67816858D01*
X160878174Y-67816858D01*
X160837155Y-67815963D01*
X160830967Y-67815828D01*
X157837648Y-68343631D01*
X157782073Y-68365243D01*
X157724455Y-68420401D01*
X157692330Y-68493410D01*
X157691029Y-68553024D01*
X157728386Y-68764887D01*
X157814010Y-69250486D01*
X157806141Y-69321046D01*
X157761373Y-69376149D01*
X157693922Y-69398303D01*
X157625201Y-69380472D01*
X157599240Y-69359717D01*
X157594380Y-69352889D01*
X157522502Y-69296341D01*
X157516105Y-69293312D01*
X157514504Y-69292321D01*
X157481883Y-69263198D01*
X157442923Y-69213778D01*
X157442915Y-69213770D01*
X157440024Y-69210102D01*
X157255929Y-69036922D01*
X157071371Y-68908889D01*
X157052100Y-68895520D01*
X157052097Y-68895518D01*
X157048258Y-68892855D01*
X157044065Y-68890787D01*
X156825762Y-68783132D01*
X156825759Y-68783131D01*
X156821574Y-68781067D01*
X156777148Y-68766846D01*
X156725172Y-68750209D01*
X156580856Y-68704013D01*
X156576249Y-68703263D01*
X156576246Y-68703262D01*
X156336004Y-68664136D01*
X156336005Y-68664136D01*
X156331393Y-68663385D01*
X156208795Y-68661780D01*
X156083342Y-68660138D01*
X156083339Y-68660138D01*
X156078665Y-68660077D01*
X155828224Y-68694160D01*
X155823734Y-68695469D01*
X155823728Y-68695470D01*
X155768637Y-68711528D01*
X155585572Y-68764887D01*
X155581325Y-68766845D01*
X155581322Y-68766846D01*
X155545995Y-68783132D01*
X155356039Y-68870703D01*
X155352130Y-68873266D01*
X155329251Y-68888266D01*
X155261316Y-68908889D01*
X155240516Y-68907352D01*
X155218532Y-68903881D01*
X155215489Y-68903699D01*
X155215479Y-68903698D01*
X155196297Y-68902552D01*
X155178839Y-68901508D01*
X155130340Y-68903313D01*
X155036482Y-68929988D01*
X155029912Y-68933720D01*
X155029910Y-68933721D01*
X154976425Y-68964103D01*
X154976413Y-68964111D01*
X154974750Y-68965055D01*
X154973148Y-68966099D01*
X154973139Y-68966105D01*
X154961239Y-68973864D01*
X154953692Y-68978785D01*
X154894258Y-69048297D01*
X154861285Y-69111172D01*
X154841769Y-69166311D01*
X154840887Y-69170722D01*
X154840886Y-69170725D01*
X154826521Y-69242551D01*
X154814384Y-69303238D01*
X154808024Y-69335036D01*
X154792192Y-69375688D01*
X154663364Y-69587989D01*
X154661555Y-69592303D01*
X154661554Y-69592305D01*
X154568309Y-69814670D01*
X154565623Y-69821075D01*
X154503408Y-70066047D01*
X154502939Y-70070703D01*
X154502939Y-70070704D01*
X154494112Y-70158360D01*
X154467385Y-70224133D01*
X154409341Y-70265016D01*
X154338408Y-70268028D01*
X154277108Y-70232213D01*
X154259353Y-70208258D01*
X154238952Y-70172563D01*
X154149673Y-70016358D01*
X154059417Y-69901869D01*
X153996089Y-69821538D01*
X153996086Y-69821535D01*
X153993197Y-69817870D01*
X153809102Y-69644690D01*
X153626644Y-69518114D01*
X153605273Y-69503288D01*
X153605270Y-69503286D01*
X153601431Y-69500623D01*
X153597238Y-69498555D01*
X153378935Y-69390900D01*
X153378932Y-69390899D01*
X153374747Y-69388835D01*
X153330321Y-69374614D01*
X153206678Y-69335036D01*
X153134029Y-69311781D01*
X153129422Y-69311031D01*
X153129419Y-69311030D01*
X152889177Y-69271904D01*
X152889178Y-69271904D01*
X152884566Y-69271153D01*
X152761968Y-69269548D01*
X152636515Y-69267906D01*
X152636512Y-69267906D01*
X152631838Y-69267845D01*
X152381397Y-69301928D01*
X152376907Y-69303237D01*
X152376901Y-69303238D01*
X152315806Y-69321046D01*
X152138745Y-69372655D01*
X152134498Y-69374613D01*
X152134495Y-69374614D01*
X152099168Y-69390900D01*
X151909212Y-69478471D01*
X151905303Y-69481034D01*
X151701754Y-69614486D01*
X151701749Y-69614490D01*
X151697841Y-69617052D01*
X151509275Y-69785353D01*
X151347657Y-69979678D01*
X151325200Y-70016686D01*
X151308799Y-70038135D01*
X150438073Y-70953899D01*
X144888687Y-76790322D01*
X144827252Y-76825906D01*
X144797374Y-76829500D01*
X144652000Y-76829500D01*
X144648654Y-76829860D01*
X144648649Y-76829860D01*
X144546215Y-76840872D01*
X144546208Y-76840873D01*
X144542851Y-76841234D01*
X144539551Y-76841952D01*
X144539550Y-76841952D01*
X144493790Y-76851906D01*
X144493785Y-76851907D01*
X144490509Y-76852620D01*
X144386343Y-76887290D01*
X144263388Y-76966308D01*
X144209732Y-77012801D01*
X144206792Y-77016194D01*
X144119919Y-77116450D01*
X144119917Y-77116453D01*
X144114018Y-77123261D01*
X144110276Y-77131455D01*
X144110274Y-77131458D01*
X144088995Y-77178054D01*
X144042502Y-77231710D01*
X143974381Y-77251712D01*
X143906260Y-77231710D01*
X143878928Y-77207959D01*
X143815054Y-77133829D01*
X143815050Y-77133826D01*
X143809193Y-77127028D01*
X143700906Y-77056841D01*
X143692311Y-77054271D01*
X143692310Y-77054270D01*
X143585874Y-77022438D01*
X143585872Y-77022438D01*
X143577273Y-77019866D01*
X143568298Y-77019811D01*
X143568297Y-77019811D01*
X143513641Y-77019477D01*
X143448231Y-77019078D01*
X143386193Y-77036808D01*
X143332786Y-77052072D01*
X143332784Y-77052073D01*
X143324155Y-77054539D01*
X143215019Y-77123399D01*
X143209996Y-77129087D01*
X143145792Y-77157721D01*
X143075611Y-77146993D01*
X143050051Y-77130344D01*
X143047193Y-77127028D01*
X142938906Y-77056841D01*
X142930311Y-77054271D01*
X142930310Y-77054270D01*
X142823874Y-77022438D01*
X142823872Y-77022438D01*
X142815273Y-77019866D01*
X142806298Y-77019811D01*
X142806297Y-77019811D01*
X142751641Y-77019477D01*
X142686231Y-77019078D01*
X142624193Y-77036808D01*
X142570786Y-77052072D01*
X142570784Y-77052073D01*
X142562155Y-77054539D01*
X142453019Y-77123399D01*
X142447996Y-77129087D01*
X142383792Y-77157721D01*
X142313611Y-77146993D01*
X142288051Y-77130344D01*
X142285193Y-77127028D01*
X142176906Y-77056841D01*
X142168311Y-77054271D01*
X142168310Y-77054270D01*
X142061874Y-77022438D01*
X142061872Y-77022438D01*
X142053273Y-77019866D01*
X142044298Y-77019811D01*
X142044297Y-77019811D01*
X141989641Y-77019477D01*
X141924231Y-77019078D01*
X141862193Y-77036808D01*
X141808786Y-77052072D01*
X141808784Y-77052073D01*
X141800155Y-77054539D01*
X141691019Y-77123399D01*
X141685076Y-77130128D01*
X141685075Y-77130129D01*
X141624842Y-77198330D01*
X141605596Y-77220122D01*
X141601782Y-77228245D01*
X141601781Y-77228247D01*
X141590574Y-77252118D01*
X141550754Y-77336932D01*
X141547186Y-77359851D01*
X141532282Y-77455567D01*
X141532282Y-77455571D01*
X141530901Y-77464440D01*
X141532065Y-77473342D01*
X141532065Y-77473345D01*
X141546468Y-77583489D01*
X141546469Y-77583493D01*
X141547633Y-77592394D01*
X141599605Y-77710510D01*
X141649645Y-77770039D01*
X141678166Y-77835053D01*
X141667010Y-77905168D01*
X141647635Y-77934522D01*
X141605596Y-77982122D01*
X141601782Y-77990245D01*
X141601781Y-77990247D01*
X141597859Y-77998601D01*
X141550754Y-78098932D01*
X141549374Y-78107798D01*
X141532282Y-78217567D01*
X141532282Y-78217571D01*
X141530901Y-78226440D01*
X141532065Y-78235342D01*
X141532065Y-78235345D01*
X141546468Y-78345489D01*
X141546469Y-78345493D01*
X141547633Y-78354394D01*
X141599605Y-78472510D01*
X141649645Y-78532039D01*
X141678166Y-78597053D01*
X141667010Y-78667168D01*
X141647635Y-78696522D01*
X141605596Y-78744122D01*
X141601782Y-78752245D01*
X141601781Y-78752247D01*
X141597859Y-78760601D01*
X141550754Y-78860932D01*
X141541626Y-78919558D01*
X141532282Y-78979567D01*
X141532282Y-78979571D01*
X141530901Y-78988440D01*
X141532065Y-78997342D01*
X141532065Y-78997345D01*
X141546468Y-79107489D01*
X141546469Y-79107493D01*
X141547633Y-79116394D01*
X141599605Y-79234510D01*
X141649645Y-79294039D01*
X141678166Y-79359053D01*
X141667010Y-79429168D01*
X141647635Y-79458522D01*
X141605596Y-79506122D01*
X141601782Y-79514245D01*
X141601781Y-79514247D01*
X141575794Y-79569598D01*
X141550754Y-79622932D01*
X141549374Y-79631798D01*
X141532282Y-79741567D01*
X141532282Y-79741571D01*
X141530901Y-79750440D01*
X141532065Y-79759342D01*
X141532065Y-79759345D01*
X141546468Y-79869489D01*
X141546469Y-79869493D01*
X141547633Y-79878394D01*
X141599605Y-79996510D01*
X141605384Y-80003385D01*
X141620632Y-80021525D01*
X141649153Y-80086541D01*
X141637997Y-80156656D01*
X141590704Y-80209608D01*
X141524181Y-80228600D01*
X141274237Y-80228600D01*
X141271912Y-80228429D01*
X141267009Y-80226746D01*
X141255384Y-80227182D01*
X141255382Y-80227182D01*
X141219988Y-80228511D01*
X141215262Y-80228600D01*
X141197083Y-80228600D01*
X141192473Y-80229458D01*
X141189361Y-80229660D01*
X141170899Y-80230353D01*
X141170896Y-80230354D01*
X141159274Y-80230790D01*
X141148587Y-80235382D01*
X141142752Y-80236697D01*
X141135019Y-80239046D01*
X141129444Y-80241197D01*
X141118012Y-80243326D01*
X141108111Y-80249429D01*
X141098092Y-80255605D01*
X141081715Y-80264113D01*
X141060219Y-80273348D01*
X141055515Y-80277211D01*
X141053334Y-80279392D01*
X141051059Y-80281455D01*
X141050862Y-80281238D01*
X141044029Y-80286639D01*
X141036139Y-80293793D01*
X141026237Y-80299897D01*
X141010472Y-80320629D01*
X140999278Y-80333448D01*
X140800887Y-80531839D01*
X140799120Y-80533364D01*
X140794464Y-80535640D01*
X140763094Y-80569458D01*
X140762457Y-80570144D01*
X140759177Y-80573549D01*
X140746330Y-80586396D01*
X140743675Y-80590266D01*
X140741617Y-80592610D01*
X140721144Y-80614680D01*
X140716833Y-80625485D01*
X140713632Y-80630549D01*
X140709835Y-80637660D01*
X140707412Y-80643128D01*
X140700831Y-80652721D01*
X140698145Y-80664041D01*
X140695428Y-80675489D01*
X140689864Y-80693082D01*
X140684489Y-80706554D01*
X140684488Y-80706559D01*
X140681194Y-80714815D01*
X140680600Y-80720873D01*
X140680600Y-80723960D01*
X140680450Y-80727024D01*
X140680157Y-80727010D01*
X140679145Y-80735657D01*
X140678625Y-80746296D01*
X140675938Y-80757617D01*
X136733060Y-80757617D01*
X136762657Y-80714793D01*
X136765089Y-80711396D01*
X137450793Y-79786410D01*
X137453337Y-79783095D01*
X137989775Y-79107489D01*
X138169333Y-78881349D01*
X138171981Y-78878126D01*
X138186589Y-78860932D01*
X138624490Y-78345489D01*
X138917473Y-78000627D01*
X138920208Y-77997513D01*
X139694437Y-77145153D01*
X139697257Y-77142151D01*
X139707637Y-77131459D01*
X140499269Y-76315983D01*
X140502228Y-76313034D01*
X141331190Y-75513911D01*
X141334246Y-75511061D01*
X141895210Y-75005080D01*
X142189262Y-74739849D01*
X142192401Y-74737111D01*
X142383333Y-74576047D01*
X142809074Y-74216904D01*
X143072495Y-73994690D01*
X143075733Y-73992049D01*
X143979970Y-73279206D01*
X143983294Y-73276674D01*
X144910655Y-72594213D01*
X144914060Y-72591793D01*
X145863563Y-71940437D01*
X145867047Y-71938131D01*
X146126507Y-71772518D01*
X146837631Y-71318609D01*
X146841090Y-71316481D01*
X147831741Y-70729444D01*
X147835321Y-70727402D01*
X148844857Y-70173552D01*
X148848525Y-70171618D01*
X149875846Y-69651555D01*
X149879549Y-69649758D01*
X150923530Y-69164051D01*
X150927339Y-69162354D01*
X151986847Y-68711528D01*
X151990718Y-68709957D01*
X153064599Y-68294503D01*
X153068520Y-68293060D01*
X154155565Y-67913448D01*
X154159494Y-67912148D01*
X155258559Y-67568775D01*
X155262522Y-67567609D01*
X156322697Y-67274592D01*
X156372371Y-67260863D01*
X156376416Y-67259817D01*
X157043476Y-67099054D01*
X157495812Y-66990040D01*
X157499855Y-66989137D01*
X158297724Y-66824632D01*
X158627560Y-66756626D01*
X158631666Y-66755850D01*
X159766467Y-66560856D01*
X159770596Y-66560217D01*
X160911220Y-66402957D01*
X160915368Y-66402455D01*
X161774465Y-66312918D01*
X162060601Y-66283096D01*
X162064744Y-66282734D01*
X162463476Y-66254502D01*
X163213294Y-66201412D01*
X163217466Y-66201186D01*
X164368064Y-66157990D01*
X164372241Y-66157902D01*
X164700388Y-66156470D01*
X165523672Y-66152878D01*
X165527836Y-66152929D01*
G37*
%TD.AperFunction*%
%TD*%
%TA.AperFunction,Conductor*%
%TO.N,/SH_B*%
G36*
X152628600Y-78003400D02*
G01*
X157099000Y-77978702D01*
X157099000Y-81535000D01*
X157078998Y-81603121D01*
X157025342Y-81649614D01*
X156973000Y-81661000D01*
X155702000Y-81661000D01*
X155702000Y-84456000D01*
X155681998Y-84524121D01*
X155628342Y-84570614D01*
X155576000Y-84582000D01*
X152653000Y-84582000D01*
X152584879Y-84561998D01*
X152538386Y-84508342D01*
X152527000Y-84456000D01*
X152527000Y-77469000D01*
X152547002Y-77400879D01*
X152600658Y-77354386D01*
X152653000Y-77343000D01*
X152828562Y-77343000D01*
X152628600Y-78003400D01*
G37*
%TD.AperFunction*%
%TD*%
%TA.AperFunction,Conductor*%
%TO.N,/SH_B*%
G36*
X156933613Y-69382728D02*
G01*
X157370396Y-69451694D01*
X157434564Y-69482075D01*
X157472120Y-69542326D01*
X157476689Y-69579912D01*
X157229629Y-77856434D01*
X157207603Y-77923927D01*
X157152584Y-77968798D01*
X157134217Y-77972561D01*
X157134469Y-77973402D01*
X157117115Y-77978602D01*
X152628600Y-78003400D01*
X154559000Y-71628000D01*
X154976135Y-69542326D01*
X155043278Y-69206613D01*
X155076251Y-69143738D01*
X155137983Y-69108671D01*
X155186482Y-69106866D01*
X156933613Y-69382728D01*
G37*
%TD.AperFunction*%
%TD*%
M02*
