%TF.GenerationSoftware,KiCad,Pcbnew,(6.0.6)*%
%TF.CreationDate,2022-10-06T10:21:30+08:00*%
%TF.ProjectId,rm_foc_driver,726d5f66-6f63-45f6-9472-697665722e6b,rev?*%
%TF.SameCoordinates,Original*%
%TF.FileFunction,Paste,Top*%
%TF.FilePolarity,Positive*%
%FSLAX46Y46*%
G04 Gerber Fmt 4.6, Leading zero omitted, Abs format (unit mm)*
G04 Created by KiCad (PCBNEW (6.0.6)) date 2022-10-06 10:21:30*
%MOMM*%
%LPD*%
G01*
G04 APERTURE LIST*
G04 Aperture macros list*
%AMRoundRect*
0 Rectangle with rounded corners*
0 $1 Rounding radius*
0 $2 $3 $4 $5 $6 $7 $8 $9 X,Y pos of 4 corners*
0 Add a 4 corners polygon primitive as box body*
4,1,4,$2,$3,$4,$5,$6,$7,$8,$9,$2,$3,0*
0 Add four circle primitives for the rounded corners*
1,1,$1+$1,$2,$3*
1,1,$1+$1,$4,$5*
1,1,$1+$1,$6,$7*
1,1,$1+$1,$8,$9*
0 Add four rect primitives between the rounded corners*
20,1,$1+$1,$2,$3,$4,$5,0*
20,1,$1+$1,$4,$5,$6,$7,0*
20,1,$1+$1,$6,$7,$8,$9,0*
20,1,$1+$1,$8,$9,$2,$3,0*%
%AMRotRect*
0 Rectangle, with rotation*
0 The origin of the aperture is its center*
0 $1 length*
0 $2 width*
0 $3 Rotation angle, in degrees counterclockwise*
0 Add horizontal line*
21,1,$1,$2,0,0,$3*%
G04 Aperture macros list end*
%ADD10R,1.200000X0.900000*%
%ADD11R,1.500000X1.500000*%
%ADD12R,0.500000X0.750000*%
%ADD13R,0.400000X0.750000*%
%ADD14RoundRect,0.200000X-0.275000X0.200000X-0.275000X-0.200000X0.275000X-0.200000X0.275000X0.200000X0*%
%ADD15RoundRect,0.200000X0.321564X0.110552X-0.006097X0.339982X-0.321564X-0.110552X0.006097X-0.339982X0*%
%ADD16RoundRect,0.225000X0.225000X0.250000X-0.225000X0.250000X-0.225000X-0.250000X0.225000X-0.250000X0*%
%ADD17RoundRect,0.225000X0.250000X-0.225000X0.250000X0.225000X-0.250000X0.225000X-0.250000X-0.225000X0*%
%ADD18RoundRect,0.075000X-0.662500X-0.075000X0.662500X-0.075000X0.662500X0.075000X-0.662500X0.075000X0*%
%ADD19RoundRect,0.150000X0.505852X-0.171085X-0.333779X0.416831X-0.505852X0.171085X0.333779X-0.416831X0*%
%ADD20R,0.650000X1.700000*%
%ADD21RoundRect,0.200000X-0.200000X-0.275000X0.200000X-0.275000X0.200000X0.275000X-0.200000X0.275000X0*%
%ADD22RoundRect,0.225000X-0.250000X0.225000X-0.250000X-0.225000X0.250000X-0.225000X0.250000X0.225000X0*%
%ADD23R,1.450000X0.450000*%
%ADD24RoundRect,0.250000X0.477237X0.245703X0.067661X0.532491X-0.477237X-0.245703X-0.067661X-0.532491X0*%
%ADD25RoundRect,0.225000X-0.327703X-0.075733X0.040915X-0.333843X0.327703X0.075733X-0.040915X0.333843X0*%
%ADD26RoundRect,0.225000X-0.225000X-0.250000X0.225000X-0.250000X0.225000X0.250000X-0.225000X0.250000X0*%
%ADD27R,0.750000X0.500000*%
%ADD28R,0.750000X0.400000*%
%ADD29RoundRect,0.225000X0.327703X0.075733X-0.040915X0.333843X-0.327703X-0.075733X0.040915X-0.333843X0*%
%ADD30RoundRect,0.222500X-0.371318X-0.011622X0.116077X-0.352900X0.371318X0.011622X-0.116077X0.352900X0*%
%ADD31RoundRect,0.150000X-0.690161X0.300140X0.518088X-0.545885X0.690161X-0.300140X-0.518088X0.545885X0*%
%ADD32RoundRect,0.218750X0.218750X0.256250X-0.218750X0.256250X-0.218750X-0.256250X0.218750X-0.256250X0*%
%ADD33RoundRect,0.200000X-0.321564X-0.110552X0.006097X-0.339982X0.321564X0.110552X-0.006097X0.339982X0*%
%ADD34RoundRect,0.250000X1.131371X-0.353553X-0.353553X1.131371X-1.131371X0.353553X0.353553X-1.131371X0*%
%ADD35RoundRect,0.200000X0.200000X0.275000X-0.200000X0.275000X-0.200000X-0.275000X0.200000X-0.275000X0*%
%ADD36RotRect,0.900000X1.200000X55.000000*%
%ADD37R,1.200000X1.400000*%
%ADD38RoundRect,0.250000X-0.315000X-0.315000X0.315000X-0.315000X0.315000X0.315000X-0.315000X0.315000X0*%
%ADD39RoundRect,0.062500X-0.375000X-0.062500X0.375000X-0.062500X0.375000X0.062500X-0.375000X0.062500X0*%
%ADD40RoundRect,0.062500X-0.062500X-0.375000X0.062500X-0.375000X0.062500X0.375000X-0.062500X0.375000X0*%
%ADD41R,1.500000X2.000000*%
%ADD42R,3.800000X2.000000*%
%ADD43RotRect,1.500000X2.200000X325.000000*%
G04 APERTURE END LIST*
D10*
%TO.C,D4*%
X167386000Y-94870000D03*
X167386000Y-98170000D03*
%TD*%
D11*
%TO.C,Q5*%
X160694000Y-86922000D03*
X160694000Y-88622000D03*
D12*
X160909000Y-90027000D03*
D11*
X162394000Y-86922000D03*
X162394000Y-88622000D03*
D12*
X159639000Y-90027000D03*
X163449000Y-90027000D03*
X162179000Y-90027000D03*
D13*
X163449000Y-84222000D03*
X162179000Y-84222000D03*
X160909000Y-84222000D03*
X159639000Y-84222000D03*
%TD*%
D14*
%TO.C,R13*%
X143510000Y-93917000D03*
X143510000Y-95567000D03*
%TD*%
D15*
%TO.C,R6*%
X177096399Y-92475083D03*
X175744799Y-91528681D03*
%TD*%
D16*
%TO.C,C34*%
X167086000Y-123258000D03*
X165536000Y-123258000D03*
%TD*%
D17*
%TO.C,C14*%
X152400000Y-95517000D03*
X152400000Y-93967000D03*
%TD*%
D18*
%TO.C,U10*%
X135821500Y-106462000D03*
X135821500Y-106962000D03*
X135821500Y-107462000D03*
X135821500Y-107962000D03*
X135821500Y-108462000D03*
X135821500Y-108962000D03*
X135821500Y-109462000D03*
X135821500Y-109962000D03*
X135821500Y-110462000D03*
X135821500Y-110962000D03*
X141546500Y-110962000D03*
X141546500Y-110462000D03*
X141546500Y-109962000D03*
X141546500Y-109462000D03*
X141546500Y-108962000D03*
X141546500Y-108462000D03*
X141546500Y-107962000D03*
X141546500Y-107462000D03*
X141546500Y-106962000D03*
X141546500Y-106462000D03*
%TD*%
D12*
%TO.C,Q1*%
X147320000Y-90027000D03*
D11*
X146265000Y-88622000D03*
X144565000Y-86922000D03*
D12*
X144780000Y-90027000D03*
D11*
X146265000Y-86922000D03*
D12*
X146050000Y-90027000D03*
X143510000Y-90027000D03*
D11*
X144565000Y-88622000D03*
D13*
X147320000Y-84222000D03*
X146050000Y-84222000D03*
X144780000Y-84222000D03*
X143510000Y-84222000D03*
%TD*%
D19*
%TO.C,U2*%
X194161890Y-92560980D03*
X194706787Y-91782785D03*
X195251685Y-91004591D03*
X193388114Y-89699704D03*
X192298319Y-91256093D03*
%TD*%
D10*
%TO.C,D5*%
X170180000Y-94870000D03*
X170180000Y-98170000D03*
%TD*%
D14*
%TO.C,R14*%
X148336000Y-93917000D03*
X148336000Y-95567000D03*
%TD*%
D17*
%TO.C,C1*%
X183388000Y-104915000D03*
X183388000Y-103365000D03*
%TD*%
D20*
%TO.C,U5*%
X151003000Y-105504000D03*
X152273000Y-105504000D03*
X153543000Y-105504000D03*
X154813000Y-105504000D03*
X154813000Y-98204000D03*
X153543000Y-98204000D03*
X152273000Y-98204000D03*
X151003000Y-98204000D03*
%TD*%
D21*
%TO.C,R3*%
X169232000Y-114114000D03*
X170882000Y-114114000D03*
%TD*%
D22*
%TO.C,C10*%
X153416000Y-107937000D03*
X153416000Y-109487000D03*
%TD*%
D16*
%TO.C,C37*%
X166959000Y-114114000D03*
X165409000Y-114114000D03*
%TD*%
D17*
%TO.C,C18*%
X159004000Y-95517000D03*
X159004000Y-93967000D03*
%TD*%
D16*
%TO.C,C9*%
X148574000Y-116107000D03*
X147024000Y-116107000D03*
%TD*%
D14*
%TO.C,R9*%
X150622000Y-93917000D03*
X150622000Y-95567000D03*
%TD*%
D23*
%TO.C,U6*%
X177124000Y-112055000D03*
X177124000Y-112705000D03*
X177124000Y-113355000D03*
X177124000Y-114005000D03*
X181524000Y-114005000D03*
X181524000Y-113355000D03*
X181524000Y-112705000D03*
X181524000Y-112055000D03*
%TD*%
D24*
%TO.C,C3*%
X178680274Y-90697630D03*
X177123886Y-89607834D03*
%TD*%
D11*
%TO.C,Q3*%
X152693000Y-88622000D03*
X152693000Y-86922000D03*
X154393000Y-88622000D03*
D12*
X152908000Y-90027000D03*
X151638000Y-90027000D03*
X155448000Y-90027000D03*
D11*
X154393000Y-86922000D03*
D12*
X154178000Y-90027000D03*
D13*
X155448000Y-84222000D03*
X154178000Y-84222000D03*
X152908000Y-84222000D03*
X151638000Y-84222000D03*
%TD*%
D22*
%TO.C,C12*%
X146558000Y-107924000D03*
X146558000Y-109474000D03*
%TD*%
D14*
%TO.C,R12*%
X155194000Y-93917000D03*
X155194000Y-95567000D03*
%TD*%
D25*
%TO.C,C8*%
X186802412Y-98961226D03*
X188072098Y-99850270D03*
%TD*%
D14*
%TO.C,R16*%
X161798000Y-93917000D03*
X161798000Y-95567000D03*
%TD*%
D16*
%TO.C,C35*%
X156812000Y-114114000D03*
X155262000Y-114114000D03*
%TD*%
D26*
%TO.C,C6*%
X169219000Y-123258000D03*
X170769000Y-123258000D03*
%TD*%
D11*
%TO.C,Q6*%
X163298000Y-78652000D03*
D27*
X164703000Y-81407000D03*
D11*
X161598000Y-80352000D03*
X161598000Y-78652000D03*
X163298000Y-80352000D03*
D27*
X164703000Y-80137000D03*
X164703000Y-78867000D03*
X164703000Y-77597000D03*
D28*
X158898000Y-77597000D03*
X158898000Y-78867000D03*
X158898000Y-80137000D03*
X158898000Y-81407000D03*
%TD*%
D20*
%TO.C,U9*%
X157607000Y-105504000D03*
X158877000Y-105504000D03*
X160147000Y-105504000D03*
X161417000Y-105504000D03*
X161417000Y-98204000D03*
X160147000Y-98204000D03*
X158877000Y-98204000D03*
X157607000Y-98204000D03*
%TD*%
D29*
%TO.C,C2*%
X195741977Y-88786712D03*
X194472291Y-87897668D03*
%TD*%
D20*
%TO.C,U8*%
X144145000Y-105504000D03*
X145415000Y-105504000D03*
X146685000Y-105504000D03*
X147955000Y-105504000D03*
X147955000Y-98204000D03*
X146685000Y-98204000D03*
X145415000Y-98204000D03*
X144145000Y-98204000D03*
%TD*%
D27*
%TO.C,Q4*%
X156702000Y-77597000D03*
X156702000Y-81407000D03*
D11*
X153597000Y-80352000D03*
D27*
X156702000Y-78867000D03*
D11*
X153597000Y-78652000D03*
D27*
X156702000Y-80137000D03*
D11*
X155297000Y-80352000D03*
X155297000Y-78652000D03*
D28*
X150897000Y-77597000D03*
X150897000Y-78867000D03*
X150897000Y-80137000D03*
X150897000Y-81407000D03*
%TD*%
D27*
%TO.C,Q2*%
X148559000Y-80137000D03*
D11*
X145454000Y-80352000D03*
X145454000Y-78652000D03*
D27*
X148559000Y-81407000D03*
X148559000Y-77597000D03*
X148559000Y-78867000D03*
D11*
X147154000Y-78652000D03*
X147154000Y-80352000D03*
D28*
X142754000Y-77597000D03*
X142754000Y-78867000D03*
X142754000Y-80137000D03*
X142754000Y-81407000D03*
%TD*%
D26*
%TO.C,C4*%
X149847000Y-122936000D03*
X151397000Y-122936000D03*
%TD*%
D17*
%TO.C,C17*%
X145288000Y-95517000D03*
X145288000Y-93967000D03*
%TD*%
D30*
%TO.C,U1*%
X182008978Y-94235258D03*
X183582744Y-94079823D03*
X182599762Y-93391531D03*
X183190546Y-92547805D03*
X182991960Y-94923549D03*
X184173528Y-93236096D03*
D31*
X182084839Y-90705403D03*
X181356397Y-91745726D03*
X180627955Y-92786049D03*
X179899513Y-93826372D03*
X184097667Y-96765951D03*
X184826109Y-95725628D03*
X185554551Y-94685305D03*
X186282993Y-93644982D03*
%TD*%
D32*
%TO.C,D2*%
X170717500Y-120210000D03*
X169142500Y-120210000D03*
%TD*%
D10*
%TO.C,D6*%
X164592000Y-94870000D03*
X164592000Y-98170000D03*
%TD*%
D16*
%TO.C,C36*%
X160368000Y-114114000D03*
X158818000Y-114114000D03*
%TD*%
%TO.C,C11*%
X148531500Y-118393000D03*
X146981500Y-118393000D03*
%TD*%
D29*
%TO.C,C7*%
X179823522Y-88493176D03*
X178553836Y-87604132D03*
%TD*%
D21*
%TO.C,R4*%
X165359000Y-117162000D03*
X167009000Y-117162000D03*
%TD*%
D22*
%TO.C,C15*%
X185420000Y-112255000D03*
X185420000Y-113805000D03*
%TD*%
D33*
%TO.C,R7*%
X188873938Y-95915612D03*
X190225538Y-96862014D03*
%TD*%
D22*
%TO.C,C13*%
X160274000Y-107937000D03*
X160274000Y-109487000D03*
%TD*%
D14*
%TO.C,R15*%
X157226000Y-93917000D03*
X157226000Y-95567000D03*
%TD*%
D33*
%TO.C,R2*%
X190986419Y-92898675D03*
X192338019Y-93845077D03*
%TD*%
D25*
%TO.C,C5*%
X190007558Y-94383804D03*
X191277244Y-95272848D03*
%TD*%
D34*
%TO.C,C22*%
X175135792Y-72519792D03*
X172590208Y-69974208D03*
%TD*%
D35*
%TO.C,R1*%
X151447000Y-121031000D03*
X149797000Y-121031000D03*
%TD*%
D36*
%TO.C,D3*%
X180094787Y-85426091D03*
X181987589Y-82722889D03*
%TD*%
D37*
%TO.C,Y1*%
X150573000Y-116166500D03*
X150573000Y-118366500D03*
X152273000Y-118366500D03*
X152273000Y-116166500D03*
%TD*%
D21*
%TO.C,R5*%
X165422000Y-120210000D03*
X167072000Y-120210000D03*
%TD*%
D38*
%TO.C,U3*%
X157864000Y-117856000D03*
X156464000Y-120656000D03*
X156464000Y-122056000D03*
X160664000Y-122056000D03*
X159264000Y-119256000D03*
X157864000Y-120656000D03*
X160664000Y-119256000D03*
X156464000Y-117856000D03*
X159264000Y-122056000D03*
X159264000Y-120656000D03*
X159264000Y-117856000D03*
X157864000Y-122056000D03*
X160664000Y-117856000D03*
X160664000Y-120656000D03*
X156464000Y-119256000D03*
X157864000Y-119256000D03*
D39*
X155126500Y-117206000D03*
X155126500Y-117706000D03*
X155126500Y-118206000D03*
X155126500Y-118706000D03*
X155126500Y-119206000D03*
X155126500Y-119706000D03*
X155126500Y-120206000D03*
X155126500Y-120706000D03*
X155126500Y-121206000D03*
X155126500Y-121706000D03*
X155126500Y-122206000D03*
X155126500Y-122706000D03*
D40*
X155814000Y-123393500D03*
X156314000Y-123393500D03*
X156814000Y-123393500D03*
X157314000Y-123393500D03*
X157814000Y-123393500D03*
X158314000Y-123393500D03*
X158814000Y-123393500D03*
X159314000Y-123393500D03*
X159814000Y-123393500D03*
X160314000Y-123393500D03*
X160814000Y-123393500D03*
X161314000Y-123393500D03*
D39*
X162001500Y-122706000D03*
X162001500Y-122206000D03*
X162001500Y-121706000D03*
X162001500Y-121206000D03*
X162001500Y-120706000D03*
X162001500Y-120206000D03*
X162001500Y-119706000D03*
X162001500Y-119206000D03*
X162001500Y-118706000D03*
X162001500Y-118206000D03*
X162001500Y-117706000D03*
X162001500Y-117206000D03*
D40*
X161314000Y-116518500D03*
X160814000Y-116518500D03*
X160314000Y-116518500D03*
X159814000Y-116518500D03*
X159314000Y-116518500D03*
X158814000Y-116518500D03*
X158314000Y-116518500D03*
X157814000Y-116518500D03*
X157314000Y-116518500D03*
X156814000Y-116518500D03*
X156314000Y-116518500D03*
X155814000Y-116518500D03*
%TD*%
D33*
%TO.C,R8*%
X187854119Y-97372065D03*
X189205719Y-98318467D03*
%TD*%
D41*
%TO.C,U4*%
X176262000Y-104496000D03*
X178562000Y-104496000D03*
D42*
X178562000Y-98196000D03*
D41*
X180862000Y-104496000D03*
%TD*%
D43*
%TO.C,L1*%
X184703713Y-84778555D03*
X189946287Y-88449445D03*
%TD*%
D32*
%TO.C,D1*%
X170781500Y-117162000D03*
X169206500Y-117162000D03*
%TD*%
M02*
