M48
; DRILL file {KiCad (6.0.6)} date Wed Oct  5 22:51:18 2022
; FORMAT={-:-/ absolute / inch / decimal}
; #@! TF.CreationDate,2022-10-05T22:51:18+08:00
; #@! TF.GenerationSoftware,Kicad,Pcbnew,(6.0.6)
; #@! TF.FileFunction,Plated,1,4,PTH
FMAT,2
INCH
; #@! TA.AperFunction,Plated,PTH,ComponentDrill
T1C0.0079
; #@! TA.AperFunction,Plated,PTH,ViaDrill
T2C0.0118
; #@! TA.AperFunction,Plated,PTH,ViaDrill
T3C0.0157
; #@! TA.AperFunction,Plated,PTH,ComponentDrill
T4C0.0394
; #@! TA.AperFunction,Plated,PTH,ComponentDrill
T5C0.0748
%
G90
G05
T1
X7.158Y-3.7176
X7.1874Y-3.6757
X7.1999Y-3.747
X7.2167Y-3.6338
X7.2293Y-3.7051
X7.2586Y-3.6631
T2
X5.28Y-4.38
X5.29Y-4.21
X5.29Y-4.23
X5.3Y-4.16
X5.32Y-4.12
X5.33Y-4.47
X5.33Y-4.55
X5.36Y-4.14
X5.38Y-3.47
X5.38Y-4.6
X5.39Y-4.41
X5.4Y-4.68
X5.41Y-3.39
X5.41Y-4.35
X5.41Y-4.5
X5.44Y-3.52
X5.45Y-3.33
X5.47Y-3.27
X5.47Y-3.56
X5.55Y-3.15
X5.55Y-3.17
X5.55Y-3.19
X5.57Y-3.15
X5.57Y-3.17
X5.57Y-3.19
X5.59Y-3.05
X5.59Y-3.07
X5.59Y-3.09
X5.59Y-3.11
X5.59Y-3.13
X5.59Y-3.15
X5.59Y-3.17
X5.61Y-3.05
X5.61Y-3.07
X5.61Y-3.09
X5.61Y-3.11
X5.61Y-3.13
X5.61Y-3.15
X5.61Y-3.17
X5.61Y-4.6
X5.62Y-3.21
X5.63Y-3.05
X5.63Y-3.07
X5.63Y-3.09
X5.63Y-3.11
X5.63Y-3.13
X5.63Y-3.15
X5.63Y-3.17
X5.63Y-4.66
X5.65Y-3.05
X5.65Y-3.07
X5.65Y-3.09
X5.65Y-3.11
X5.65Y-3.13
X5.65Y-3.15
X5.65Y-3.17
X5.65Y-3.32
X5.65Y-3.54
X5.65Y-3.7
X5.65Y-4.67
X5.69Y-4.61
X5.7Y-3.06
X5.7Y-3.08
X5.7Y-3.1
X5.7Y-3.12
X5.7Y-3.14
X5.7Y-3.16
X5.7Y-3.18
X5.7Y-3.2
X5.7Y-3.22
X5.7Y-3.24
X5.7Y-3.26
X5.7Y-3.28
X5.7Y-3.3
X5.7Y-3.32
X5.72Y-3.06
X5.72Y-3.08
X5.72Y-3.1
X5.72Y-3.12
X5.72Y-3.14
X5.72Y-3.16
X5.72Y-3.18
X5.72Y-3.2
X5.72Y-3.22
X5.72Y-3.24
X5.72Y-3.26
X5.72Y-3.28
X5.72Y-3.3
X5.72Y-3.32
X5.74Y-3.06
X5.74Y-3.08
X5.74Y-3.1
X5.74Y-3.12
X5.74Y-3.14
X5.74Y-3.16
X5.74Y-3.18
X5.74Y-3.2
X5.74Y-3.22
X5.74Y-3.24
X5.74Y-3.26
X5.74Y-3.28
X5.74Y-3.3
X5.74Y-3.32
X5.75Y-3.54
X5.76Y-3.06
X5.76Y-3.08
X5.76Y-3.1
X5.76Y-3.12
X5.76Y-3.14
X5.76Y-3.16
X5.76Y-3.18
X5.76Y-3.2
X5.76Y-3.22
X5.76Y-3.24
X5.76Y-3.26
X5.76Y-3.28
X5.76Y-3.3
X5.76Y-3.32
X5.78Y-3.06
X5.78Y-3.08
X5.78Y-3.1
X5.78Y-3.12
X5.78Y-3.14
X5.78Y-3.16
X5.78Y-3.18
X5.78Y-3.2
X5.78Y-3.22
X5.78Y-3.24
X5.78Y-3.26
X5.78Y-3.28
X5.78Y-3.3
X5.78Y-3.32
X5.78Y-3.53
X5.79Y-4.34
X5.8Y-3.06
X5.8Y-3.08
X5.8Y-3.1
X5.8Y-3.12
X5.8Y-3.14
X5.8Y-3.16
X5.8Y-3.18
X5.8Y-3.2
X5.8Y-3.22
X5.8Y-3.24
X5.8Y-3.26
X5.8Y-3.28
X5.8Y-3.3
X5.8Y-3.32
X5.82Y-3.06
X5.82Y-3.08
X5.82Y-3.1
X5.82Y-3.12
X5.82Y-3.14
X5.82Y-3.16
X5.82Y-3.18
X5.82Y-3.2
X5.82Y-4.32
X5.83Y-4.12
X5.83Y-4.16
X5.84Y-3.06
X5.84Y-3.08
X5.84Y-3.1
X5.84Y-3.12
X5.84Y-3.14
X5.84Y-3.16
X5.84Y-3.18
X5.84Y-3.2
X5.84Y-3.7
X5.85Y-3.54
X5.85Y-4.3
X5.86Y-3.06
X5.86Y-3.08
X5.86Y-3.1
X5.86Y-3.29
X5.86Y-4.13
X5.86Y-4.18
X5.87Y-3.33
X5.88Y-3.53
X5.89Y-3.14
X5.89Y-3.16
X5.91Y-3.04
X5.91Y-3.06
X5.91Y-3.08
X5.91Y-3.1
X5.91Y-3.12
X5.91Y-3.14
X5.91Y-3.16
X5.92Y-4.76
X5.93Y-3.04
X5.93Y-3.06
X5.93Y-3.08
X5.93Y-3.1
X5.93Y-3.12
X5.93Y-3.14
X5.93Y-3.16
X5.93Y-3.53
X5.93Y-3.6975
X5.95Y-3.04
X5.95Y-3.06
X5.95Y-3.08
X5.95Y-3.1
X5.95Y-3.12
X5.95Y-3.14
X5.95Y-3.16
X5.95Y-3.21
X5.95Y-3.54
X5.95Y-4.83
X5.95Y-4.86
X5.97Y-3.04
X5.97Y-3.06
X5.97Y-3.08
X5.97Y-3.1
X5.97Y-3.12
X5.97Y-3.14
X5.97Y-3.16
X5.97Y-3.31
X5.9951Y-4.8
X6.0Y-3.66
X6.01Y-4.49
X6.02Y-3.06
X6.02Y-3.08
X6.02Y-3.1
X6.02Y-3.12
X6.02Y-3.18
X6.02Y-3.2
X6.02Y-3.22
X6.02Y-3.24
X6.02Y-3.26
X6.02Y-3.28
X6.02Y-3.3
X6.02Y-3.32
X6.02Y-3.54
X6.02Y-4.34
X6.02Y-4.7564
X6.02Y-4.78
X6.04Y-3.06
X6.04Y-3.08
X6.04Y-3.1
X6.04Y-3.12
X6.04Y-3.14
X6.04Y-3.16
X6.04Y-3.18
X6.04Y-3.2
X6.04Y-3.22
X6.04Y-3.24
X6.04Y-3.26
X6.04Y-3.28
X6.04Y-3.3
X6.04Y-3.32
X6.04Y-3.53
X6.04Y-4.35
X6.06Y-3.06
X6.06Y-3.08
X6.06Y-3.1
X6.06Y-3.12
X6.06Y-3.14
X6.06Y-3.16
X6.06Y-3.18
X6.06Y-3.2
X6.06Y-3.22
X6.06Y-3.24
X6.06Y-3.26
X6.06Y-3.28
X6.06Y-3.3
X6.06Y-3.32
X6.07Y-4.86
X6.08Y-3.06
X6.08Y-3.08
X6.08Y-3.1
X6.08Y-3.12
X6.08Y-3.14
X6.08Y-3.16
X6.08Y-3.18
X6.08Y-3.2
X6.08Y-3.22
X6.08Y-3.24
X6.08Y-3.26
X6.08Y-3.28
X6.08Y-3.3
X6.08Y-3.32
X6.1Y-3.06
X6.1Y-3.08
X6.1Y-3.1
X6.1Y-3.12
X6.1Y-3.14
X6.1Y-3.16
X6.1Y-3.18
X6.1Y-3.2
X6.1Y-3.22
X6.1Y-3.24
X6.1Y-3.26
X6.1Y-3.28
X6.1Y-3.3
X6.1Y-3.32
X6.1Y-4.09
X6.11Y-3.6975
X6.11Y-4.11
X6.11Y-4.15
X6.11Y-4.18
X6.11Y-4.38
X6.12Y-3.06
X6.12Y-3.08
X6.12Y-3.1
X6.12Y-3.12
X6.12Y-3.14
X6.12Y-3.16
X6.12Y-3.18
X6.12Y-3.2
X6.12Y-3.22
X6.12Y-3.24
X6.12Y-3.26
X6.12Y-3.28
X6.12Y-3.3
X6.12Y-3.32
X6.14Y-3.06
X6.14Y-3.08
X6.14Y-3.1
X6.14Y-3.12
X6.14Y-3.14
X6.14Y-3.16
X6.14Y-3.18
X6.14Y-3.2
X6.14Y-3.55
X6.14Y-4.52
X6.15Y-3.53
X6.16Y-3.06
X6.16Y-3.08
X6.16Y-3.1
X6.16Y-3.12
X6.16Y-3.14
X6.16Y-3.16
X6.16Y-3.18
X6.16Y-3.2
X6.17Y-4.48
X6.18Y-3.06
X6.18Y-3.08
X6.18Y-3.1
X6.18Y-3.12
X6.18Y-3.14
X6.18Y-3.16
X6.18Y-3.18
X6.18Y-3.2
X6.18Y-4.67
X6.18Y-4.71
X6.18Y-4.74
X6.18Y-4.79
X6.18Y-4.81
X6.19Y-3.6975
X6.2Y-3.53
X6.23Y-2.94
X6.23Y-2.99
X6.23Y-3.15
X6.23Y-3.53
X6.24Y-3.04
X6.24Y-3.08
X6.24Y-3.11
X6.24Y-4.73
X6.24Y-4.77
X6.24Y-4.95
X6.24Y-5.01
X6.25Y-2.98
X6.25Y-4.49
X6.25Y-4.69
X6.25Y-4.81
X6.26Y-3.02
X6.26Y-3.05
X6.26Y-3.21
X6.26Y-3.66
X6.26Y-4.5507
X6.26Y-4.9
X6.27Y-3.09
X6.2751Y-5.03
X6.28Y-3.13
X6.29Y-3.32
X6.29Y-4.67
X6.31Y-4.05
X6.31Y-4.7
X6.32Y-4.77
X6.32Y-4.81
X6.33Y-3.05
X6.33Y-3.07
X6.33Y-3.09
X6.33Y-3.11
X6.33Y-3.13
X6.33Y-3.15
X6.33Y-3.17
X6.33Y-3.19
X6.33Y-3.21
X6.33Y-3.23
X6.33Y-3.25
X6.33Y-3.27
X6.33Y-3.29
X6.33Y-3.31
X6.33Y-3.55
X6.35Y-3.05
X6.35Y-3.07
X6.35Y-3.09
X6.35Y-3.11
X6.35Y-3.13
X6.35Y-3.15
X6.35Y-3.17
X6.35Y-3.19
X6.35Y-3.21
X6.35Y-3.23
X6.35Y-3.25
X6.35Y-3.27
X6.35Y-3.29
X6.35Y-3.31
X6.35Y-4.5507
X6.36Y-4.13
X6.36Y-4.18
X6.36Y-4.2
X6.37Y-3.05
X6.37Y-3.07
X6.37Y-3.09
X6.37Y-3.11
X6.37Y-3.13
X6.37Y-3.15
X6.37Y-3.17
X6.37Y-3.19
X6.37Y-3.21
X6.37Y-3.23
X6.37Y-3.25
X6.37Y-3.27
X6.37Y-3.29
X6.37Y-3.31
X6.37Y-3.7
X6.39Y-3.05
X6.39Y-3.07
X6.39Y-3.09
X6.39Y-3.11
X6.39Y-3.13
X6.39Y-3.15
X6.39Y-3.17
X6.39Y-3.19
X6.39Y-3.21
X6.39Y-3.23
X6.39Y-3.25
X6.39Y-3.27
X6.39Y-3.29
X6.39Y-3.31
X6.4Y-3.53
X6.41Y-3.05
X6.41Y-3.07
X6.41Y-3.09
X6.41Y-3.11
X6.41Y-3.13
X6.41Y-3.15
X6.41Y-3.17
X6.41Y-3.19
X6.41Y-3.21
X6.41Y-3.23
X6.41Y-3.25
X6.41Y-3.27
X6.41Y-3.29
X6.41Y-3.31
X6.41Y-4.16
X6.42Y-4.71
X6.43Y-3.05
X6.43Y-3.07
X6.43Y-3.09
X6.43Y-3.11
X6.43Y-3.13
X6.43Y-3.15
X6.43Y-3.17
X6.43Y-3.19
X6.43Y-3.21
X6.43Y-3.23
X6.43Y-3.25
X6.43Y-3.27
X6.43Y-3.29
X6.43Y-3.31
X6.43Y-3.54
X6.43Y-4.65
X6.44Y-4.49
X6.45Y-3.05
X6.45Y-3.07
X6.45Y-3.09
X6.45Y-3.11
X6.45Y-3.13
X6.45Y-3.15
X6.45Y-3.17
X6.45Y-3.19
X6.45Y-3.21
X6.45Y-4.75
X6.47Y-3.05
X6.47Y-3.07
X6.47Y-3.09
X6.47Y-3.11
X6.47Y-3.13
X6.47Y-3.15
X6.47Y-3.17
X6.47Y-3.19
X6.47Y-3.21
X6.48Y-4.85
X6.49Y-3.05
X6.49Y-3.07
X6.49Y-3.09
X6.49Y-3.11
X6.49Y-3.13
X6.49Y-3.15
X6.49Y-3.17
X6.49Y-3.19
X6.49Y-3.21
X6.49Y-4.53
X6.5Y-2.71
X6.5Y-4.4
X6.54Y-3.62
X6.57Y-4.4
X6.57Y-4.46
X6.6Y-3.11
X6.61Y-2.99
X6.61Y-4.41
X6.61Y-4.48
X6.63Y-2.76
X6.65Y-3.57
X6.66Y-3.03
X6.67Y-3.48
X6.69Y-3.53
X6.7Y-3.63
X6.75Y-3.44
X6.76Y-3.54
X6.76Y-3.63
X6.82Y-4.62
X6.82Y-4.66
X6.83Y-4.76
X6.88Y-4.69
X6.88Y-4.72
X6.89Y-4.54
X6.9Y-4.64
X6.92Y-4.3
X6.92Y-4.37
X6.95Y-4.57
X6.95Y-4.7
X6.98Y-4.31
X7.03Y-4.11
X7.03Y-4.14
X7.08Y-3.94
X7.08Y-3.97
X7.09Y-4.01
X7.1Y-4.33
X7.12Y-3.95
X7.12Y-4.0
X7.14Y-4.03
X7.2Y-3.13
X7.21Y-4.44
X7.21Y-4.49
X7.24Y-4.44
X7.25Y-3.14
X7.3Y-4.42
X7.31Y-4.21
X7.34Y-4.28
X7.35Y-4.66
X7.35Y-4.81
X7.38Y-3.16
X7.39Y-4.19
X7.39Y-4.49
X7.39Y-4.62
X7.4Y-4.79
X7.44Y-4.73
X7.46Y-3.19
X7.54Y-3.25
X7.55Y-3.53
X7.55Y-4.35
X7.57Y-3.49
X7.57Y-4.63
X7.58Y-3.3
X7.59Y-3.47
X7.62Y-4.5
X7.65Y-4.26
X7.7Y-3.66
X7.7Y-3.7
X7.7Y-3.75
X7.7Y-3.8
X7.7Y-4.14
X7.72Y-4.32
T3
X7.41Y-3.66
X7.43Y-3.77
X7.49Y-3.6
T4
X5.41Y-3.68
X5.41Y-3.78
X5.41Y-3.88
X5.41Y-3.98
X5.6136Y-4.8803
X5.6924Y-4.9419
X5.7712Y-5.0034
X5.85Y-5.065
X5.8627Y-2.6207
X6.12Y-5.19
X6.22Y-5.19
X6.32Y-5.19
X6.3668Y-2.5319
X6.42Y-5.19
X6.5846Y-5.1878
X6.6846Y-5.1878
X6.7846Y-5.1878
X6.8846Y-5.1878
X7.3178Y-2.5268
X7.6726Y-2.7752
T5
X6.0132Y-2.7941
X6.1489Y-2.7702
X6.2846Y-2.7462
X7.1887Y-2.9171
X7.35Y-3.03
T0
M30
