%TF.GenerationSoftware,KiCad,Pcbnew,(6.0.7)*%
%TF.CreationDate,2022-08-30T09:52:08+08:00*%
%TF.ProjectId,rm_foc_driver,726d5f66-6f63-45f6-9472-697665722e6b,rev?*%
%TF.SameCoordinates,Original*%
%TF.FileFunction,Copper,L2,Inr*%
%TF.FilePolarity,Positive*%
%FSLAX46Y46*%
G04 Gerber Fmt 4.6, Leading zero omitted, Abs format (unit mm)*
G04 Created by KiCad (PCBNEW (6.0.7)) date 2022-08-30 09:52:08*
%MOMM*%
%LPD*%
G01*
G04 APERTURE LIST*
G04 Aperture macros list*
%AMHorizOval*
0 Thick line with rounded ends*
0 $1 width*
0 $2 $3 position (X,Y) of the first rounded end (center of the circle)*
0 $4 $5 position (X,Y) of the second rounded end (center of the circle)*
0 Add line between two ends*
20,1,$1,$2,$3,$4,$5,0*
0 Add two circle primitives to create the rounded ends*
1,1,$1,$2,$3*
1,1,$1,$4,$5*%
%AMRotRect*
0 Rectangle, with rotation*
0 The origin of the aperture is its center*
0 $1 length*
0 $2 width*
0 $3 Rotation angle, in degrees counterclockwise*
0 Add horizontal line*
21,1,$1,$2,0,0,$3*%
G04 Aperture macros list end*
%TA.AperFunction,ComponentPad*%
%ADD10RotRect,1.700000X1.700000X232.000000*%
%TD*%
%TA.AperFunction,ComponentPad*%
%ADD11HorizOval,1.700000X0.000000X0.000000X0.000000X0.000000X0*%
%TD*%
%TA.AperFunction,ComponentPad*%
%ADD12R,1.700000X1.700000*%
%TD*%
%TA.AperFunction,ComponentPad*%
%ADD13O,1.700000X1.700000*%
%TD*%
%TA.AperFunction,ComponentPad*%
%ADD14C,1.400000*%
%TD*%
%TA.AperFunction,ComponentPad*%
%ADD15RotRect,3.500000X3.500000X325.000000*%
%TD*%
%TA.AperFunction,ComponentPad*%
%ADD16C,3.500000*%
%TD*%
%TA.AperFunction,ComponentPad*%
%ADD17RotRect,3.000000X3.000000X10.000000*%
%TD*%
%TA.AperFunction,ComponentPad*%
%ADD18C,3.000000*%
%TD*%
%TA.AperFunction,ComponentPad*%
%ADD19C,0.500000*%
%TD*%
%TA.AperFunction,ViaPad*%
%ADD20C,0.800000*%
%TD*%
%TA.AperFunction,ViaPad*%
%ADD21C,0.600000*%
%TD*%
%TA.AperFunction,Conductor*%
%ADD22C,0.254000*%
%TD*%
%TA.AperFunction,Conductor*%
%ADD23C,0.508000*%
%TD*%
%TA.AperFunction,Conductor*%
%ADD24C,0.381000*%
%TD*%
G04 APERTURE END LIST*
D10*
%TO.N,/MOSI*%
%TO.C,J4*%
X148590000Y-128651000D03*
D11*
%TO.N,/MISO*%
X146588453Y-127087220D03*
%TO.N,/SCLK*%
X144586905Y-125523440D03*
%TO.N,/CS2*%
X142585358Y-123959660D03*
%TD*%
D12*
%TO.N,+3.3V*%
%TO.C,J1*%
X174869000Y-131769000D03*
D13*
%TO.N,/SWDIO*%
X172329000Y-131769000D03*
%TO.N,/SWCLK*%
X169789000Y-131769000D03*
%TO.N,GND*%
X167249000Y-131769000D03*
%TD*%
D12*
%TO.N,/PWM1*%
%TO.C,J5*%
X135636000Y-109474000D03*
D13*
%TO.N,/PWM2*%
X135636000Y-106934000D03*
%TO.N,/PWM3*%
X135636000Y-104394000D03*
%TO.N,/PWM4*%
X135636000Y-101854000D03*
%TO.N,/PWM5*%
X135636000Y-99314000D03*
%TO.N,/PWM6*%
X135636000Y-96774000D03*
%TO.N,GND*%
X135636000Y-94234000D03*
%TD*%
D14*
%TO.N,*%
%TO.C,J6*%
X194883220Y-70491209D03*
X185872548Y-64181868D03*
D15*
%TO.N,GND*%
X186690000Y-76962000D03*
D16*
%TO.N,+12V*%
X182594240Y-74094118D03*
%TD*%
D14*
%TO.N,*%
%TO.C,J8*%
X161715778Y-64309412D03*
X148913278Y-66566838D03*
D17*
%TO.N,/SH_C*%
X159629596Y-69754395D03*
D18*
%TO.N,/SH_B*%
X156182769Y-70362164D03*
%TO.N,/SH_A*%
X152735942Y-70969932D03*
%TD*%
D19*
%TO.N,GND*%
%TO.C,U1*%
X182878052Y-95173399D03*
X184369351Y-93043604D03*
X182558804Y-93362852D03*
X183304454Y-92297955D03*
X183623702Y-94108502D03*
X181813155Y-94427750D03*
%TD*%
D12*
%TO.N,+5V*%
%TO.C,J3*%
X163068000Y-131826000D03*
D13*
%TO.N,/TXD*%
X160528000Y-131826000D03*
%TO.N,/RXD*%
X157988000Y-131826000D03*
%TO.N,GND*%
X155448000Y-131826000D03*
%TD*%
D20*
%TO.N,GND*%
X168478200Y-77317600D03*
X168757600Y-69291200D03*
X190703200Y-80594200D03*
X194284600Y-101346000D03*
X193421000Y-110769400D03*
X186588400Y-115646200D03*
X187198000Y-120218200D03*
X183870600Y-121691400D03*
X178206400Y-121056400D03*
X175437800Y-122478800D03*
X173609000Y-127076200D03*
X169316400Y-126847600D03*
X164211000Y-110794800D03*
X161518600Y-111125000D03*
X145542000Y-111023400D03*
X150037800Y-112090200D03*
X141224000Y-109220000D03*
X144653000Y-118440200D03*
X141681200Y-118567200D03*
X139014200Y-116027200D03*
X148056600Y-105308400D03*
D21*
X158369000Y-74244200D03*
X158267400Y-75158600D03*
X159410400Y-75920600D03*
X157911800Y-75971400D03*
X158648400Y-75946000D03*
X159385000Y-76682600D03*
X157886400Y-76733400D03*
X158623000Y-76708000D03*
X159435800Y-79832200D03*
X159435800Y-77546200D03*
X159435800Y-79070200D03*
X159435800Y-78308200D03*
X158673800Y-79857600D03*
X158673800Y-77571600D03*
X158673800Y-79095600D03*
X158673800Y-78333600D03*
X157937200Y-79883000D03*
X157937200Y-77597000D03*
X157937200Y-79121000D03*
X157937200Y-78359000D03*
D20*
X178638200Y-108788200D03*
D21*
%TO.N,+5V*%
X159359600Y-106196400D03*
X164592000Y-104902000D03*
X191881305Y-96631305D03*
X172720000Y-93980000D03*
%TO.N,GND*%
X161036000Y-120269000D03*
X157734000Y-122301000D03*
X148894800Y-91846400D03*
X152019000Y-122809000D03*
X162179000Y-113792000D03*
X146481800Y-91795600D03*
X147447000Y-114935000D03*
X176860200Y-87909400D03*
X150596600Y-92024200D03*
X160596000Y-117924000D03*
X149352000Y-114935000D03*
X153238200Y-91973400D03*
X160655000Y-122047000D03*
X162382200Y-91643200D03*
X160426400Y-91973400D03*
X157480000Y-91363800D03*
X163855400Y-96037400D03*
X160528000Y-118745000D03*
X151790400Y-107721400D03*
X152146000Y-119634000D03*
X157992500Y-120527500D03*
X148152250Y-119563750D03*
X156235400Y-91744800D03*
X158496000Y-111175800D03*
X192151000Y-94996000D03*
X152919300Y-114935000D03*
X170815000Y-94996000D03*
X177165000Y-89230200D03*
X146981500Y-117305500D03*
X151003000Y-114935000D03*
%TO.N,+12V*%
X155194000Y-89916000D03*
X144272000Y-89916000D03*
X153797000Y-89916000D03*
X157480000Y-89916000D03*
X150622000Y-89916000D03*
X146812000Y-89916000D03*
X156083000Y-89916000D03*
X148463000Y-89916000D03*
X145923000Y-89916000D03*
X152908000Y-89916000D03*
X160782000Y-89916000D03*
X159893000Y-89916000D03*
X162306000Y-89916000D03*
X163195000Y-89916000D03*
X143383000Y-89916000D03*
%TO.N,Net-(C6-Pad1)*%
X165608000Y-124460000D03*
X160655000Y-124460000D03*
%TO.N,/SH_A*%
X145672404Y-83445807D03*
X145672404Y-77349807D03*
X144910404Y-82683807D03*
X145672404Y-78873807D03*
X146431000Y-81915000D03*
X147955000Y-77343000D03*
X146431000Y-81153000D03*
X147196404Y-81159807D03*
X146431000Y-78105000D03*
X147955000Y-79629000D03*
X147196404Y-77349807D03*
X145672404Y-81921807D03*
X144910404Y-77349807D03*
X144910404Y-78873807D03*
X147955000Y-80391000D03*
X147955000Y-78867000D03*
X146431000Y-82677000D03*
X147196404Y-78111807D03*
X147196404Y-79635807D03*
X145672404Y-78111807D03*
X147196404Y-83445807D03*
X146427596Y-84194193D03*
X147196404Y-78873807D03*
X147955000Y-81153000D03*
X146431000Y-79629000D03*
X148717000Y-77343000D03*
X152654000Y-96037400D03*
X145672404Y-81159807D03*
X145669000Y-84201000D03*
X144910404Y-81921807D03*
X144910404Y-79635807D03*
X146431000Y-83439000D03*
X147193000Y-84201000D03*
X147955000Y-78105000D03*
X144910404Y-78111807D03*
X145672404Y-82683807D03*
X144910404Y-81159807D03*
X147196404Y-81921807D03*
X146431000Y-80391000D03*
X148717000Y-78105000D03*
X146431000Y-77343000D03*
X146431000Y-78867000D03*
X144907000Y-84201000D03*
X145672404Y-80397807D03*
X147196404Y-82683807D03*
X145672404Y-79635807D03*
X144910404Y-83445807D03*
X144910404Y-80397807D03*
X147196404Y-80397807D03*
%TO.N,/SH_B*%
X155321000Y-78867000D03*
X153797000Y-84201000D03*
X155321000Y-79629000D03*
X156845000Y-78867000D03*
X155321000Y-81153000D03*
X155321000Y-82677000D03*
X156083000Y-78105000D03*
X153797000Y-79629000D03*
X154559000Y-78867000D03*
X156083000Y-78867000D03*
X155321000Y-78105000D03*
X156083000Y-77343000D03*
X155321000Y-81915000D03*
X153797000Y-80391000D03*
X155321000Y-77343000D03*
X154559000Y-83439000D03*
X153797000Y-78105000D03*
X156845000Y-78105000D03*
X156845000Y-77343000D03*
X155321000Y-83439000D03*
X153035000Y-82677000D03*
X155321000Y-80391000D03*
X154559000Y-77343000D03*
X148691600Y-95834200D03*
X153797000Y-81153000D03*
X156083000Y-79629000D03*
X153797000Y-81915000D03*
X153797000Y-82677000D03*
X154559000Y-81153000D03*
X154559000Y-80391000D03*
X153035000Y-78105000D03*
X156083000Y-80391000D03*
X156083000Y-81153000D03*
X153035000Y-83439000D03*
X153797000Y-83439000D03*
X154559000Y-81915000D03*
X154559000Y-78105000D03*
X155321000Y-84201000D03*
X153035000Y-84201000D03*
X153035000Y-81915000D03*
X156845000Y-80391000D03*
X154559000Y-82677000D03*
X153035000Y-77343000D03*
X153797000Y-78867000D03*
X153035000Y-78867000D03*
X154559000Y-79629000D03*
X156845000Y-81153000D03*
X156845000Y-79629000D03*
X153797000Y-77343000D03*
X154559000Y-84201000D03*
%TO.N,+3.3V*%
X191389000Y-90424000D03*
X155194000Y-112649000D03*
X164338000Y-116713000D03*
X165481000Y-118237000D03*
X158877000Y-112649000D03*
X165481000Y-113792000D03*
X163068000Y-117221000D03*
X165481000Y-121793000D03*
X162433000Y-123571000D03*
X150114000Y-121539000D03*
%TO.N,/SH_C*%
X162560000Y-78867000D03*
X162560000Y-78105000D03*
X163322000Y-82677000D03*
X163322000Y-84201000D03*
X143738600Y-97129600D03*
X163322000Y-77343000D03*
X161036000Y-77343000D03*
X164846000Y-81153000D03*
X162560000Y-81915000D03*
X163322000Y-78867000D03*
X161798000Y-81915000D03*
X161798000Y-79629000D03*
X161036000Y-78867000D03*
X161036000Y-81153000D03*
X164846000Y-80391000D03*
X164084000Y-77343000D03*
X164084000Y-79629000D03*
X161798000Y-81153000D03*
X161036000Y-80391000D03*
X163322000Y-81915000D03*
X164846000Y-79629000D03*
X163322000Y-78105000D03*
X162560000Y-77343000D03*
X161798000Y-83439000D03*
X164084000Y-78105000D03*
X164084000Y-81153000D03*
X164084000Y-80391000D03*
X161036000Y-79629000D03*
X161798000Y-77343000D03*
X163322000Y-81153000D03*
X163322000Y-79629000D03*
X162560000Y-81153000D03*
X162560000Y-83439000D03*
X164846000Y-78867000D03*
X161036000Y-81915000D03*
X161036000Y-83439000D03*
X161798000Y-82677000D03*
X164846000Y-77343000D03*
X161798000Y-78105000D03*
X161036000Y-82677000D03*
X163322000Y-80391000D03*
X162560000Y-79629000D03*
X161036000Y-78105000D03*
X161036000Y-84201000D03*
X164084000Y-78867000D03*
X163322000Y-83439000D03*
X162560000Y-84201000D03*
X161798000Y-80391000D03*
X161798000Y-84201000D03*
X162560000Y-80391000D03*
X162560000Y-82677000D03*
X164846000Y-78105000D03*
X161798000Y-78867000D03*
%TO.N,/GL_A*%
X159461200Y-95605600D03*
X142875000Y-82423000D03*
%TO.N,/SL_A*%
X143510000Y-77597000D03*
X142748000Y-80645000D03*
X142748000Y-77597000D03*
X143510000Y-78359000D03*
X143510000Y-79883000D03*
X164977200Y-90144600D03*
X141986000Y-78359000D03*
X141986000Y-80645000D03*
X141986000Y-79121000D03*
X141986000Y-79883000D03*
X142748000Y-79121000D03*
X141986000Y-77597000D03*
X142748000Y-79883000D03*
X142748000Y-78359000D03*
X143510000Y-79121000D03*
X143510000Y-80645000D03*
%TO.N,/GL_B*%
X151003000Y-83439000D03*
X158150062Y-93853000D03*
%TO.N,/SL_B*%
X150876000Y-78105000D03*
X150114000Y-78867000D03*
X151638000Y-78867000D03*
X151638000Y-79629000D03*
X151638000Y-80391000D03*
X150114000Y-78105000D03*
X167259000Y-95758000D03*
X151638000Y-78105000D03*
X150876000Y-79629000D03*
X150114000Y-80391000D03*
X150114000Y-79629000D03*
X150876000Y-78867000D03*
X150876000Y-80391000D03*
X150876000Y-77343000D03*
X150114000Y-77343000D03*
X151638000Y-77343000D03*
%TO.N,/GH_C*%
X146685000Y-95885000D03*
X143510000Y-85217000D03*
%TO.N,/GL_C*%
X156845000Y-92964000D03*
X157988000Y-83312000D03*
%TO.N,/CS1*%
X154051000Y-124887600D03*
%TO.N,/SO1*%
X154131400Y-121634892D03*
X154178000Y-113919000D03*
%TO.N,/SO2*%
X154178000Y-112776000D03*
X153416000Y-122809000D03*
%TO.N,/MODE*%
X159512000Y-124333000D03*
%TO.N,/ADC1*%
X158369000Y-124714000D03*
%TD*%
D22*
%TO.N,+5V*%
X191881305Y-96631305D02*
X183610610Y-104902000D01*
D23*
X163068000Y-129667000D02*
X163068000Y-131826000D01*
X175498305Y-96631305D02*
X172974000Y-94107000D01*
X191881305Y-96631305D02*
X175498305Y-96631305D01*
D22*
X183610610Y-104902000D02*
X164592000Y-104902000D01*
X164592000Y-104902000D02*
X163297600Y-106196400D01*
D23*
X191881305Y-96631305D02*
X191881305Y-100853695D01*
X172974000Y-94107000D02*
X172847000Y-93980000D01*
X191881305Y-100853695D02*
X163068000Y-129667000D01*
D22*
X163297600Y-106196400D02*
X159359600Y-106196400D01*
D23*
X172847000Y-93980000D02*
X172720000Y-93980000D01*
D22*
X164592000Y-104902000D02*
X164465000Y-104902000D01*
D23*
%TO.N,+3.3V*%
X154940000Y-129159000D02*
X153289000Y-130810000D01*
X153289000Y-132207000D02*
X155067000Y-133985000D01*
X172720000Y-133985000D02*
X174869000Y-131836000D01*
X159258000Y-129159000D02*
X154940000Y-129159000D01*
D24*
X154868500Y-112323500D02*
X155194000Y-112649000D01*
X165608000Y-95885000D02*
X154868500Y-106624500D01*
D23*
X164338000Y-112649000D02*
X165481000Y-113792000D01*
X158877000Y-112649000D02*
X164338000Y-112649000D01*
X150114000Y-123317000D02*
X150114000Y-121539000D01*
D24*
X171069000Y-90424000D02*
X165608000Y-95885000D01*
D23*
X153289000Y-130810000D02*
X153289000Y-132207000D01*
X165481000Y-118237000D02*
X165481000Y-121793000D01*
D24*
X155194000Y-112649000D02*
X158877000Y-112649000D01*
D23*
X165481000Y-121793000D02*
X165481000Y-122936000D01*
X165481000Y-122936000D02*
X159258000Y-129159000D01*
X154940000Y-128143000D02*
X150114000Y-123317000D01*
D24*
X154868500Y-106624500D02*
X154868500Y-112323500D01*
D23*
X154940000Y-129159000D02*
X154940000Y-128143000D01*
X155067000Y-133985000D02*
X172720000Y-133985000D01*
X165481000Y-113792000D02*
X165481000Y-118237000D01*
D24*
X191389000Y-90424000D02*
X171196000Y-90424000D01*
D23*
X174869000Y-131836000D02*
X174869000Y-131769000D01*
%TD*%
%TA.AperFunction,Conductor*%
%TO.N,/SH_C*%
G36*
X161270692Y-70763666D02*
G01*
X161327522Y-70806221D01*
X161335917Y-70818985D01*
X161732514Y-71509831D01*
X165081185Y-77343000D01*
X165227000Y-77597000D01*
X160655000Y-77597000D01*
X160171502Y-76280810D01*
X160166788Y-76209970D01*
X160171986Y-76192620D01*
X160195954Y-76129524D01*
X160195956Y-76129517D01*
X160198455Y-76122938D01*
X160223699Y-75943317D01*
X160224016Y-75920600D01*
X160203797Y-75740345D01*
X160201480Y-75733691D01*
X160146464Y-75575706D01*
X160146462Y-75575703D01*
X160144145Y-75569048D01*
X160048026Y-75415224D01*
X159928555Y-75294916D01*
X159925178Y-75291515D01*
X159925174Y-75291512D01*
X159920215Y-75286518D01*
X159914267Y-75282743D01*
X159807647Y-75215080D01*
X159760848Y-75161691D01*
X159756889Y-75152142D01*
X158418897Y-71509831D01*
X158414183Y-71438991D01*
X158448516Y-71376848D01*
X158510402Y-71343260D01*
X160922069Y-70818985D01*
X161199877Y-70758592D01*
X161270692Y-70763666D01*
G37*
%TD.AperFunction*%
%TD*%
%TA.AperFunction,Conductor*%
%TO.N,/SH_A*%
G36*
X149040121Y-77363002D02*
G01*
X149086614Y-77416658D01*
X149098000Y-77469000D01*
X149098000Y-81535000D01*
X149077998Y-81603121D01*
X149024342Y-81649614D01*
X148972000Y-81661000D01*
X147701000Y-81661000D01*
X147701000Y-84456000D01*
X147680998Y-84524121D01*
X147627342Y-84570614D01*
X147575000Y-84582000D01*
X144652000Y-84582000D01*
X144583879Y-84561998D01*
X144537386Y-84508342D01*
X144526000Y-84456000D01*
X144526000Y-77469000D01*
X144546002Y-77400879D01*
X144599658Y-77354386D01*
X144652000Y-77343000D01*
X148972000Y-77343000D01*
X149040121Y-77363002D01*
G37*
%TD.AperFunction*%
%TD*%
%TA.AperFunction,Conductor*%
%TO.N,/SH_C*%
G36*
X165169121Y-77363002D02*
G01*
X165215614Y-77416658D01*
X165227000Y-77469000D01*
X165227000Y-81535000D01*
X165206998Y-81603121D01*
X165153342Y-81649614D01*
X165101000Y-81661000D01*
X163830000Y-81661000D01*
X163830000Y-84456000D01*
X163809998Y-84524121D01*
X163756342Y-84570614D01*
X163704000Y-84582000D01*
X160781000Y-84582000D01*
X160712879Y-84561998D01*
X160666386Y-84508342D01*
X160655000Y-84456000D01*
X160655000Y-77343000D01*
X165101000Y-77343000D01*
X165169121Y-77363002D01*
G37*
%TD.AperFunction*%
%TD*%
%TA.AperFunction,Conductor*%
%TO.N,GND*%
G36*
X165523463Y-66510902D02*
G01*
X166662577Y-66543716D01*
X166666724Y-66543904D01*
X167804093Y-66614465D01*
X167808258Y-66614793D01*
X168942630Y-66723022D01*
X168946782Y-66723487D01*
X170076983Y-66869271D01*
X170081118Y-66869874D01*
X171205860Y-67053050D01*
X171209972Y-67053790D01*
X171483121Y-67107627D01*
X172328035Y-67274158D01*
X172332083Y-67275026D01*
X172899225Y-67406483D01*
X173442220Y-67532343D01*
X173446274Y-67533354D01*
X173761138Y-67617427D01*
X174547279Y-67827338D01*
X174551255Y-67828471D01*
X175200953Y-68025245D01*
X175641885Y-68158790D01*
X175645863Y-68160067D01*
X176322699Y-68389822D01*
X176694829Y-68516143D01*
X176724927Y-68526360D01*
X176728854Y-68527766D01*
X177795226Y-68929650D01*
X177799076Y-68931174D01*
X178851557Y-69368202D01*
X178855336Y-69369846D01*
X179892716Y-69841515D01*
X179896462Y-69843293D01*
X180211397Y-69999286D01*
X180917665Y-70349113D01*
X180921377Y-70351030D01*
X181925165Y-70890384D01*
X181928807Y-70892419D01*
X182914228Y-71464798D01*
X182917738Y-71466914D01*
X183218787Y-71655396D01*
X183246039Y-71672458D01*
X183293163Y-71725561D01*
X183304097Y-71795710D01*
X183275369Y-71860635D01*
X183216101Y-71899722D01*
X183154594Y-71902833D01*
X182893705Y-71850938D01*
X182893699Y-71850937D01*
X182889666Y-71850135D01*
X182885561Y-71849866D01*
X182885554Y-71849865D01*
X182598359Y-71831042D01*
X182594240Y-71830772D01*
X182590121Y-71831042D01*
X182302926Y-71849865D01*
X182302919Y-71849866D01*
X182298814Y-71850135D01*
X182294781Y-71850937D01*
X182294775Y-71850938D01*
X182012493Y-71907088D01*
X182012487Y-71907090D01*
X182008443Y-71907894D01*
X182004534Y-71909221D01*
X182004530Y-71909222D01*
X181758426Y-71992763D01*
X181728095Y-72003059D01*
X181629337Y-72051761D01*
X181466271Y-72132176D01*
X181466266Y-72132179D01*
X181462567Y-72134003D01*
X181459134Y-72136297D01*
X181219833Y-72296192D01*
X181219828Y-72296196D01*
X181216402Y-72298485D01*
X181213308Y-72301199D01*
X181213302Y-72301203D01*
X181126957Y-72376926D01*
X180993813Y-72493691D01*
X180991104Y-72496780D01*
X180801325Y-72713180D01*
X180801321Y-72713186D01*
X180798607Y-72716280D01*
X180634125Y-72962445D01*
X180503181Y-73227973D01*
X180501856Y-73231878D01*
X180501855Y-73231879D01*
X180413115Y-73493301D01*
X180408016Y-73508321D01*
X180407212Y-73512365D01*
X180407210Y-73512371D01*
X180391716Y-73590267D01*
X180350257Y-73798692D01*
X180330894Y-74094118D01*
X180331164Y-74098237D01*
X180342561Y-74272120D01*
X180350257Y-74389544D01*
X180408016Y-74679915D01*
X180503181Y-74960263D01*
X180634125Y-75225791D01*
X180636419Y-75229224D01*
X180754301Y-75405647D01*
X180798607Y-75471956D01*
X180801321Y-75475050D01*
X180801325Y-75475056D01*
X180950989Y-75645714D01*
X180993813Y-75694545D01*
X180996902Y-75697254D01*
X181213302Y-75887033D01*
X181213308Y-75887037D01*
X181216402Y-75889751D01*
X181219828Y-75892040D01*
X181219833Y-75892044D01*
X181395211Y-76009227D01*
X181462567Y-76054233D01*
X181466266Y-76056057D01*
X181466271Y-76056060D01*
X181540937Y-76092881D01*
X181728095Y-76185177D01*
X181732000Y-76186502D01*
X181732001Y-76186503D01*
X182004530Y-76279014D01*
X182004534Y-76279015D01*
X182008443Y-76280342D01*
X182012487Y-76281146D01*
X182012493Y-76281148D01*
X182294775Y-76337298D01*
X182294781Y-76337299D01*
X182298814Y-76338101D01*
X182302919Y-76338370D01*
X182302926Y-76338371D01*
X182590121Y-76357194D01*
X182594240Y-76357464D01*
X182598359Y-76357194D01*
X182885554Y-76338371D01*
X182885561Y-76338370D01*
X182889666Y-76338101D01*
X182893699Y-76337299D01*
X182893705Y-76337298D01*
X183175987Y-76281148D01*
X183175993Y-76281146D01*
X183180037Y-76280342D01*
X183183946Y-76279015D01*
X183183950Y-76279014D01*
X183456479Y-76186503D01*
X183456480Y-76186502D01*
X183460385Y-76185177D01*
X183647543Y-76092881D01*
X183722209Y-76056060D01*
X183722214Y-76056057D01*
X183725913Y-76054233D01*
X183793269Y-76009227D01*
X183968647Y-75892044D01*
X183968652Y-75892040D01*
X183972078Y-75889751D01*
X183975172Y-75887037D01*
X183975178Y-75887033D01*
X184191578Y-75697254D01*
X184194667Y-75694545D01*
X184237491Y-75645714D01*
X184387155Y-75475056D01*
X184387159Y-75475050D01*
X184389873Y-75471956D01*
X184434180Y-75405647D01*
X184552061Y-75229224D01*
X184554355Y-75225791D01*
X184685299Y-74960263D01*
X184780464Y-74679915D01*
X184838223Y-74389544D01*
X184845920Y-74272120D01*
X184857316Y-74098237D01*
X184857586Y-74094118D01*
X184838223Y-73798692D01*
X184796765Y-73590267D01*
X184781270Y-73512371D01*
X184781268Y-73512365D01*
X184780464Y-73508321D01*
X184775366Y-73493301D01*
X184686625Y-73231879D01*
X184686624Y-73231878D01*
X184685299Y-73227973D01*
X184554355Y-72962445D01*
X184389873Y-72716280D01*
X184387151Y-72713176D01*
X184387147Y-72713171D01*
X184378851Y-72703711D01*
X184348973Y-72639308D01*
X184358657Y-72568975D01*
X184404829Y-72515043D01*
X184472829Y-72494634D01*
X184543948Y-72516112D01*
X184622469Y-72568975D01*
X184795892Y-72685730D01*
X184832421Y-72710323D01*
X184835842Y-72712709D01*
X185759556Y-73380138D01*
X185762870Y-73382618D01*
X186295021Y-73794653D01*
X186663895Y-74080266D01*
X186667150Y-74082873D01*
X186680719Y-74094118D01*
X187544575Y-74810033D01*
X187547747Y-74812752D01*
X188009604Y-75222087D01*
X188386919Y-75556494D01*
X188400553Y-75568578D01*
X188403627Y-75571394D01*
X189230919Y-76355095D01*
X189233904Y-76358018D01*
X190034751Y-77168709D01*
X190037638Y-77171730D01*
X190811184Y-78008548D01*
X190813968Y-78011663D01*
X191104488Y-78347640D01*
X191557006Y-78870962D01*
X191559292Y-78873606D01*
X191561966Y-78876803D01*
X192188361Y-79651717D01*
X192278371Y-79763069D01*
X192280936Y-79766354D01*
X192805095Y-80460675D01*
X192967511Y-80675817D01*
X192969973Y-80679192D01*
X193626057Y-81610975D01*
X193628405Y-81614431D01*
X194253201Y-82567403D01*
X194255434Y-82570935D01*
X194848301Y-83544117D01*
X194850415Y-83547720D01*
X195410689Y-84540021D01*
X195412683Y-84543693D01*
X195939765Y-85554053D01*
X195941635Y-85557789D01*
X196434905Y-86585022D01*
X196436651Y-86588818D01*
X196895604Y-87631867D01*
X196897223Y-87635719D01*
X197321330Y-88693384D01*
X197322821Y-88697287D01*
X197711642Y-89768473D01*
X197713002Y-89772423D01*
X197878841Y-90281312D01*
X198036936Y-90766434D01*
X198066085Y-90855881D01*
X198067312Y-90859868D01*
X198307275Y-91688524D01*
X198384289Y-91954476D01*
X198385378Y-91958485D01*
X198639746Y-92960062D01*
X198665886Y-93062987D01*
X198666847Y-93067053D01*
X198910574Y-94180221D01*
X198911400Y-94184316D01*
X199118089Y-95304963D01*
X199118779Y-95309081D01*
X199121306Y-95325893D01*
X199288203Y-96436000D01*
X199288755Y-96440142D01*
X199361842Y-97067023D01*
X199399850Y-97393020D01*
X199420717Y-97572004D01*
X199421131Y-97576151D01*
X199512010Y-98669840D01*
X199515496Y-98711797D01*
X199515772Y-98715951D01*
X199532581Y-99053588D01*
X199572432Y-99854095D01*
X199572571Y-99858271D01*
X199583629Y-100525114D01*
X199590559Y-100942978D01*
X199591475Y-100998246D01*
X199591488Y-101001306D01*
X199587664Y-101488188D01*
X199587257Y-101540006D01*
X199587195Y-101543084D01*
X199585564Y-101593588D01*
X199551023Y-102662990D01*
X199550390Y-102682579D01*
X199550187Y-102686724D01*
X199512495Y-103261800D01*
X199475655Y-103823855D01*
X199475313Y-103828019D01*
X199363123Y-104962039D01*
X199362643Y-104966189D01*
X199212914Y-106095874D01*
X199212296Y-106100007D01*
X199143750Y-106511830D01*
X199025534Y-107222069D01*
X199025199Y-107224079D01*
X199024448Y-107228171D01*
X198961087Y-107543829D01*
X198800178Y-108345457D01*
X198799288Y-108349539D01*
X198538103Y-109458752D01*
X198537078Y-109462803D01*
X198309852Y-110302029D01*
X198239383Y-110562297D01*
X198239257Y-110562761D01*
X198238100Y-110566768D01*
X197973680Y-111428959D01*
X197903981Y-111656224D01*
X197902697Y-111660176D01*
X197565034Y-112643608D01*
X197532626Y-112737995D01*
X197531208Y-112741912D01*
X197129760Y-113795962D01*
X197125612Y-113806852D01*
X197124067Y-113810716D01*
X197009160Y-114084737D01*
X196683384Y-114861622D01*
X196681705Y-114865447D01*
X196206432Y-115901147D01*
X196204627Y-115904915D01*
X196191944Y-115930297D01*
X195914866Y-116484818D01*
X195695259Y-116924319D01*
X195693331Y-116928021D01*
X195248590Y-117748841D01*
X195150467Y-117929937D01*
X195148419Y-117933572D01*
X195089733Y-118033800D01*
X194572630Y-118916945D01*
X194570460Y-118920515D01*
X193962367Y-119884284D01*
X193960079Y-119887780D01*
X193320383Y-120830834D01*
X193317980Y-120834253D01*
X192647375Y-121755570D01*
X192644861Y-121758907D01*
X192609653Y-121804052D01*
X191944404Y-122657067D01*
X191944048Y-122657523D01*
X191941438Y-122660757D01*
X191366197Y-123349958D01*
X191211237Y-123535617D01*
X191208507Y-123538780D01*
X190449711Y-124388939D01*
X190446879Y-124392009D01*
X189666150Y-125210424D01*
X189660285Y-125216572D01*
X189657364Y-125219534D01*
X188843846Y-126017581D01*
X188840861Y-126020414D01*
X188500952Y-126332430D01*
X188001356Y-126791027D01*
X187998232Y-126793801D01*
X187133625Y-127536169D01*
X187130410Y-127538837D01*
X186241722Y-128252085D01*
X186238421Y-128254646D01*
X185326541Y-128938060D01*
X185323157Y-128940510D01*
X184675901Y-129392883D01*
X184403409Y-129583330D01*
X184389125Y-129593313D01*
X184385670Y-129595644D01*
X183912361Y-129903602D01*
X183430472Y-130217143D01*
X183426932Y-130219363D01*
X182451685Y-130808830D01*
X182448074Y-130810931D01*
X181453838Y-131367731D01*
X181450186Y-131369698D01*
X180437944Y-131893274D01*
X180434292Y-131895087D01*
X179713143Y-132238285D01*
X179405287Y-132384795D01*
X179401485Y-132386528D01*
X178356824Y-132841844D01*
X178352966Y-132843449D01*
X177398031Y-133222500D01*
X177293818Y-133263866D01*
X177289909Y-133265343D01*
X176217410Y-133650409D01*
X176213455Y-133651756D01*
X175128733Y-134001067D01*
X175124736Y-134002281D01*
X174029082Y-134315420D01*
X174025046Y-134316502D01*
X173898152Y-134348258D01*
X173722008Y-134392339D01*
X173651070Y-134389473D01*
X173592942Y-134348709D01*
X173566080Y-134282990D01*
X173579013Y-134213182D01*
X173602325Y-134181013D01*
X174618933Y-133164405D01*
X174681245Y-133130379D01*
X174708028Y-133127500D01*
X175767134Y-133127500D01*
X175829316Y-133120745D01*
X175965705Y-133069615D01*
X176082261Y-132982261D01*
X176169615Y-132865705D01*
X176220745Y-132729316D01*
X176227500Y-132667134D01*
X176227500Y-130870866D01*
X176220745Y-130808684D01*
X176169615Y-130672295D01*
X176082261Y-130555739D01*
X175965705Y-130468385D01*
X175829316Y-130417255D01*
X175767134Y-130410500D01*
X173970866Y-130410500D01*
X173908684Y-130417255D01*
X173772295Y-130468385D01*
X173655739Y-130555739D01*
X173568385Y-130672295D01*
X173565233Y-130680703D01*
X173523919Y-130790907D01*
X173481277Y-130847671D01*
X173414716Y-130872371D01*
X173345367Y-130857163D01*
X173312743Y-130831476D01*
X173262151Y-130775875D01*
X173262142Y-130775866D01*
X173258670Y-130772051D01*
X173254619Y-130768852D01*
X173254615Y-130768848D01*
X173087414Y-130636800D01*
X173087410Y-130636798D01*
X173083359Y-130633598D01*
X173058580Y-130619919D01*
X173031136Y-130604769D01*
X172887789Y-130525638D01*
X172882920Y-130523914D01*
X172882916Y-130523912D01*
X172682087Y-130452795D01*
X172682083Y-130452794D01*
X172677212Y-130451069D01*
X172672119Y-130450162D01*
X172672116Y-130450161D01*
X172462373Y-130412800D01*
X172462367Y-130412799D01*
X172457284Y-130411894D01*
X172383452Y-130410992D01*
X172239081Y-130409228D01*
X172239079Y-130409228D01*
X172233911Y-130409165D01*
X172013091Y-130442955D01*
X171800756Y-130512357D01*
X171602607Y-130615507D01*
X171598474Y-130618610D01*
X171598471Y-130618612D01*
X171428100Y-130746530D01*
X171423965Y-130749635D01*
X171367536Y-130808684D01*
X171305559Y-130873540D01*
X171269629Y-130911138D01*
X171162201Y-131068621D01*
X171107293Y-131113621D01*
X171036768Y-131121792D01*
X170973021Y-131090538D01*
X170952324Y-131066054D01*
X170871822Y-130941617D01*
X170871820Y-130941614D01*
X170869014Y-130937277D01*
X170718670Y-130772051D01*
X170714619Y-130768852D01*
X170714615Y-130768848D01*
X170547414Y-130636800D01*
X170547410Y-130636798D01*
X170543359Y-130633598D01*
X170518580Y-130619919D01*
X170491136Y-130604769D01*
X170347789Y-130525638D01*
X170342920Y-130523914D01*
X170342916Y-130523912D01*
X170142087Y-130452795D01*
X170142083Y-130452794D01*
X170137212Y-130451069D01*
X170132119Y-130450162D01*
X170132116Y-130450161D01*
X169922373Y-130412800D01*
X169922367Y-130412799D01*
X169917284Y-130411894D01*
X169843452Y-130410992D01*
X169699081Y-130409228D01*
X169699079Y-130409228D01*
X169693911Y-130409165D01*
X169473091Y-130442955D01*
X169260756Y-130512357D01*
X169062607Y-130615507D01*
X169058474Y-130618610D01*
X169058471Y-130618612D01*
X168888100Y-130746530D01*
X168883965Y-130749635D01*
X168827536Y-130808684D01*
X168765559Y-130873540D01*
X168729629Y-130911138D01*
X168603743Y-131095680D01*
X168565164Y-131178792D01*
X168530798Y-131252828D01*
X168509688Y-131298305D01*
X168449989Y-131513570D01*
X168426251Y-131735695D01*
X168426548Y-131740848D01*
X168426548Y-131740851D01*
X168429835Y-131797851D01*
X168439110Y-131958715D01*
X168440247Y-131963761D01*
X168440248Y-131963767D01*
X168453094Y-132020767D01*
X168488222Y-132176639D01*
X168572266Y-132383616D01*
X168609894Y-132445020D01*
X168686291Y-132569688D01*
X168688987Y-132574088D01*
X168835250Y-132742938D01*
X169007126Y-132885632D01*
X169181696Y-132987642D01*
X169181816Y-132987712D01*
X169230540Y-133039350D01*
X169243611Y-133109133D01*
X169216880Y-133174905D01*
X169158833Y-133215784D01*
X169118246Y-133222500D01*
X164395822Y-133222500D01*
X164327701Y-133202498D01*
X164281208Y-133148842D01*
X164271104Y-133078568D01*
X164294996Y-133020935D01*
X164363229Y-132929892D01*
X164363230Y-132929890D01*
X164368615Y-132922705D01*
X164419745Y-132786316D01*
X164426500Y-132724134D01*
X164426500Y-130927866D01*
X164419745Y-130865684D01*
X164368615Y-130729295D01*
X164281261Y-130612739D01*
X164164705Y-130525385D01*
X164028316Y-130474255D01*
X163966134Y-130467500D01*
X163956500Y-130467500D01*
X163888379Y-130447498D01*
X163841886Y-130393842D01*
X163830500Y-130341500D01*
X163830500Y-130035028D01*
X163850502Y-129966907D01*
X163867405Y-129945933D01*
X179821489Y-113991849D01*
X189533889Y-113991849D01*
X189534277Y-113996779D01*
X189534277Y-113996782D01*
X189540113Y-114070933D01*
X189552519Y-114228560D01*
X189553673Y-114233367D01*
X189553674Y-114233373D01*
X189561674Y-114266693D01*
X189607949Y-114459443D01*
X189609842Y-114464014D01*
X189609843Y-114464016D01*
X189693535Y-114666067D01*
X189698814Y-114678812D01*
X189822878Y-114881266D01*
X189977085Y-115061819D01*
X190157638Y-115216026D01*
X190360092Y-115340090D01*
X190364662Y-115341983D01*
X190364666Y-115341985D01*
X190574888Y-115429061D01*
X190579461Y-115430955D01*
X190659664Y-115450210D01*
X190805531Y-115485230D01*
X190805537Y-115485231D01*
X190810344Y-115486385D01*
X191047055Y-115505015D01*
X191283766Y-115486385D01*
X191288573Y-115485231D01*
X191288579Y-115485230D01*
X191434446Y-115450210D01*
X191514649Y-115430955D01*
X191519222Y-115429061D01*
X191729444Y-115341985D01*
X191729448Y-115341983D01*
X191734018Y-115340090D01*
X191936472Y-115216026D01*
X192117025Y-115061819D01*
X192271232Y-114881266D01*
X192395296Y-114678812D01*
X192400576Y-114666067D01*
X192484267Y-114464016D01*
X192484268Y-114464014D01*
X192486161Y-114459443D01*
X192532436Y-114266693D01*
X192540436Y-114233373D01*
X192540437Y-114233367D01*
X192541591Y-114228560D01*
X192560221Y-113991849D01*
X192541591Y-113755138D01*
X192537656Y-113738745D01*
X192496531Y-113567448D01*
X192486161Y-113524255D01*
X192460556Y-113462438D01*
X192397191Y-113309460D01*
X192397189Y-113309456D01*
X192395296Y-113304886D01*
X192271232Y-113102432D01*
X192117025Y-112921879D01*
X191936472Y-112767672D01*
X191734018Y-112643608D01*
X191729448Y-112641715D01*
X191729444Y-112641713D01*
X191519222Y-112554637D01*
X191519220Y-112554636D01*
X191514649Y-112552743D01*
X191434446Y-112533488D01*
X191288579Y-112498468D01*
X191288573Y-112498467D01*
X191283766Y-112497313D01*
X191047055Y-112478683D01*
X190810344Y-112497313D01*
X190805537Y-112498467D01*
X190805531Y-112498468D01*
X190659664Y-112533488D01*
X190579461Y-112552743D01*
X190574890Y-112554636D01*
X190574888Y-112554637D01*
X190364666Y-112641713D01*
X190364662Y-112641715D01*
X190360092Y-112643608D01*
X190157638Y-112767672D01*
X189977085Y-112921879D01*
X189822878Y-113102432D01*
X189698814Y-113304886D01*
X189696921Y-113309456D01*
X189696919Y-113309460D01*
X189633554Y-113462438D01*
X189607949Y-113524255D01*
X189597579Y-113567448D01*
X189556455Y-113738745D01*
X189552519Y-113755138D01*
X189534362Y-113985844D01*
X189533889Y-113991849D01*
X179821489Y-113991849D01*
X192372833Y-101440505D01*
X192387246Y-101428118D01*
X192404869Y-101415149D01*
X192439284Y-101374640D01*
X192446214Y-101367124D01*
X192451958Y-101361380D01*
X192454232Y-101358506D01*
X192454238Y-101358499D01*
X192469677Y-101338984D01*
X192472468Y-101335580D01*
X192515250Y-101285223D01*
X192515253Y-101285219D01*
X192519989Y-101279644D01*
X192523317Y-101273127D01*
X192526694Y-101268063D01*
X192529921Y-101262839D01*
X192534465Y-101257095D01*
X192565547Y-101190591D01*
X192567452Y-101186694D01*
X192600848Y-101121291D01*
X192602589Y-101114177D01*
X192604721Y-101108443D01*
X192606649Y-101102647D01*
X192609749Y-101096015D01*
X192624700Y-101024135D01*
X192625670Y-101019851D01*
X192630957Y-100998246D01*
X192643109Y-100948583D01*
X192643805Y-100937365D01*
X192643842Y-100937367D01*
X192644078Y-100933468D01*
X192644468Y-100929097D01*
X192645957Y-100921938D01*
X192643851Y-100844118D01*
X192643805Y-100840709D01*
X192643805Y-96924042D01*
X192652017Y-96879298D01*
X192666860Y-96840225D01*
X192666861Y-96840223D01*
X192669360Y-96833643D01*
X192670340Y-96826671D01*
X192694053Y-96657944D01*
X192694053Y-96657941D01*
X192694604Y-96654022D01*
X192694921Y-96631305D01*
X192674702Y-96451050D01*
X192672385Y-96444396D01*
X192617369Y-96286411D01*
X192617367Y-96286408D01*
X192615050Y-96279753D01*
X192596655Y-96250314D01*
X192522664Y-96131903D01*
X192518931Y-96125929D01*
X192498520Y-96105375D01*
X192396083Y-96002220D01*
X192396079Y-96002217D01*
X192391120Y-95997223D01*
X192237971Y-95900032D01*
X192184697Y-95881062D01*
X192073730Y-95841548D01*
X192073725Y-95841547D01*
X192067095Y-95839186D01*
X192060107Y-95838353D01*
X192060104Y-95838352D01*
X191930014Y-95822840D01*
X191886985Y-95817709D01*
X191879982Y-95818445D01*
X191879981Y-95818445D01*
X191713593Y-95835933D01*
X191713591Y-95835934D01*
X191706593Y-95836669D01*
X191635593Y-95860839D01*
X191631939Y-95862083D01*
X191591334Y-95868805D01*
X175866333Y-95868805D01*
X175798212Y-95848803D01*
X175777238Y-95831900D01*
X173433807Y-93488469D01*
X173421423Y-93474058D01*
X173408454Y-93456436D01*
X173367945Y-93422021D01*
X173360429Y-93415091D01*
X173354685Y-93409347D01*
X173351811Y-93407073D01*
X173351804Y-93407067D01*
X173332289Y-93391628D01*
X173328885Y-93388837D01*
X173278528Y-93346055D01*
X173278524Y-93346052D01*
X173272949Y-93341316D01*
X173266432Y-93337988D01*
X173261368Y-93334611D01*
X173256144Y-93331384D01*
X173250400Y-93326840D01*
X173204255Y-93305273D01*
X173183918Y-93295768D01*
X173179967Y-93293837D01*
X173146702Y-93276851D01*
X173114596Y-93260457D01*
X173107485Y-93258717D01*
X173101753Y-93256585D01*
X173095955Y-93254657D01*
X173089321Y-93251556D01*
X173082148Y-93250064D01*
X173076125Y-93248061D01*
X173069853Y-93246301D01*
X172912425Y-93190243D01*
X172912420Y-93190242D01*
X172905790Y-93187881D01*
X172898802Y-93187048D01*
X172898799Y-93187047D01*
X172775698Y-93172368D01*
X172725680Y-93166404D01*
X172718677Y-93167140D01*
X172718676Y-93167140D01*
X172552288Y-93184628D01*
X172552286Y-93184629D01*
X172545288Y-93185364D01*
X172373579Y-93243818D01*
X172346533Y-93260457D01*
X172225095Y-93335166D01*
X172225092Y-93335168D01*
X172219088Y-93338862D01*
X172214053Y-93343793D01*
X172214050Y-93343795D01*
X172094953Y-93460424D01*
X172089493Y-93465771D01*
X171991235Y-93618238D01*
X171988826Y-93624858D01*
X171988824Y-93624861D01*
X171931606Y-93782066D01*
X171929197Y-93788685D01*
X171906463Y-93968640D01*
X171924163Y-94149160D01*
X171981418Y-94321273D01*
X171985065Y-94327295D01*
X171985066Y-94327297D01*
X172014551Y-94375982D01*
X172075380Y-94476424D01*
X172080269Y-94481487D01*
X172080270Y-94481488D01*
X172102664Y-94504677D01*
X172201382Y-94606902D01*
X172353159Y-94706222D01*
X172359763Y-94708678D01*
X172359765Y-94708679D01*
X172516563Y-94766992D01*
X172516566Y-94766993D01*
X172523168Y-94769448D01*
X172530152Y-94770380D01*
X172534733Y-94771522D01*
X172593346Y-94804684D01*
X174911495Y-97122833D01*
X174923882Y-97137246D01*
X174936851Y-97154869D01*
X174942434Y-97159612D01*
X174977360Y-97189284D01*
X174984876Y-97196214D01*
X174990620Y-97201958D01*
X174993494Y-97204232D01*
X174993501Y-97204238D01*
X175013016Y-97219677D01*
X175016420Y-97222468D01*
X175066777Y-97265250D01*
X175066781Y-97265253D01*
X175072356Y-97269989D01*
X175078871Y-97273316D01*
X175083941Y-97276697D01*
X175089163Y-97279922D01*
X175094905Y-97284465D01*
X175161417Y-97315551D01*
X175165311Y-97317454D01*
X175230709Y-97350848D01*
X175237826Y-97352589D01*
X175243544Y-97354716D01*
X175249350Y-97356647D01*
X175255984Y-97359748D01*
X175263152Y-97361239D01*
X175263155Y-97361240D01*
X175308172Y-97370604D01*
X175327844Y-97374696D01*
X175332102Y-97375659D01*
X175403417Y-97393109D01*
X175409023Y-97393457D01*
X175409024Y-97393457D01*
X175414635Y-97393805D01*
X175414633Y-97393844D01*
X175418534Y-97394077D01*
X175422893Y-97394466D01*
X175430061Y-97395957D01*
X175437378Y-97395759D01*
X175507882Y-97393851D01*
X175511291Y-97393805D01*
X189915883Y-97393805D01*
X189984004Y-97413807D01*
X190030497Y-97467463D01*
X190040601Y-97537737D01*
X190011107Y-97602317D01*
X190004978Y-97608900D01*
X186691939Y-100921938D01*
X183384282Y-104229595D01*
X183321970Y-104263621D01*
X183295187Y-104266500D01*
X165136188Y-104266500D01*
X165068674Y-104246885D01*
X164954615Y-104174502D01*
X164954613Y-104174501D01*
X164948666Y-104170727D01*
X164942033Y-104168365D01*
X164784425Y-104112243D01*
X164784420Y-104112242D01*
X164777790Y-104109881D01*
X164770802Y-104109048D01*
X164770799Y-104109047D01*
X164647698Y-104094368D01*
X164597680Y-104088404D01*
X164590677Y-104089140D01*
X164590676Y-104089140D01*
X164424288Y-104106628D01*
X164424286Y-104106629D01*
X164417288Y-104107364D01*
X164245579Y-104165818D01*
X164228180Y-104176522D01*
X164097095Y-104257166D01*
X164097092Y-104257168D01*
X164091088Y-104260862D01*
X164086053Y-104265793D01*
X164086050Y-104265795D01*
X163989142Y-104360695D01*
X163961493Y-104387771D01*
X163863235Y-104540238D01*
X163860826Y-104546858D01*
X163860824Y-104546861D01*
X163811612Y-104682069D01*
X163801197Y-104710685D01*
X163794546Y-104763331D01*
X163766166Y-104828404D01*
X163758636Y-104836632D01*
X163071271Y-105523996D01*
X163008959Y-105558021D01*
X162982176Y-105560900D01*
X159903788Y-105560900D01*
X159836274Y-105541285D01*
X159722215Y-105468902D01*
X159722213Y-105468901D01*
X159716266Y-105465127D01*
X159702480Y-105460218D01*
X159552025Y-105406643D01*
X159552020Y-105406642D01*
X159545390Y-105404281D01*
X159538402Y-105403448D01*
X159538399Y-105403447D01*
X159398246Y-105386735D01*
X159365280Y-105382804D01*
X159358277Y-105383540D01*
X159358276Y-105383540D01*
X159191888Y-105401028D01*
X159191886Y-105401029D01*
X159184888Y-105401764D01*
X159013179Y-105460218D01*
X158981817Y-105479512D01*
X158864695Y-105551566D01*
X158864692Y-105551568D01*
X158858688Y-105555262D01*
X158853653Y-105560193D01*
X158853650Y-105560195D01*
X158736521Y-105674897D01*
X158729093Y-105682171D01*
X158630835Y-105834638D01*
X158628426Y-105841258D01*
X158628424Y-105841261D01*
X158594725Y-105933848D01*
X158568797Y-106005085D01*
X158546063Y-106185040D01*
X158563763Y-106365560D01*
X158621018Y-106537673D01*
X158624665Y-106543695D01*
X158624666Y-106543697D01*
X158709459Y-106683707D01*
X158714980Y-106692824D01*
X158719869Y-106697887D01*
X158719870Y-106697888D01*
X158773150Y-106753060D01*
X158840982Y-106823302D01*
X158873329Y-106844469D01*
X158979637Y-106914035D01*
X158992759Y-106922622D01*
X158999363Y-106925078D01*
X158999365Y-106925079D01*
X159156158Y-106983390D01*
X159156160Y-106983390D01*
X159162768Y-106985848D01*
X159246595Y-106997033D01*
X159335580Y-107008907D01*
X159335584Y-107008907D01*
X159342561Y-107009838D01*
X159349572Y-107009200D01*
X159349576Y-107009200D01*
X159492059Y-106996232D01*
X159523200Y-106993398D01*
X159529902Y-106991220D01*
X159529904Y-106991220D01*
X159689009Y-106939524D01*
X159689012Y-106939523D01*
X159695708Y-106937347D01*
X159842785Y-106849671D01*
X159907303Y-106831900D01*
X163218580Y-106831900D01*
X163229814Y-106832430D01*
X163237319Y-106834108D01*
X163305612Y-106831962D01*
X163309569Y-106831900D01*
X163337583Y-106831900D01*
X163341508Y-106831404D01*
X163341509Y-106831404D01*
X163341604Y-106831392D01*
X163353449Y-106830459D01*
X163383270Y-106829522D01*
X163389882Y-106829314D01*
X163389883Y-106829314D01*
X163397805Y-106829065D01*
X163417349Y-106823387D01*
X163436712Y-106819377D01*
X163449040Y-106817820D01*
X163449042Y-106817820D01*
X163456899Y-106816827D01*
X163464263Y-106813911D01*
X163464268Y-106813910D01*
X163498156Y-106800493D01*
X163509385Y-106796648D01*
X163526065Y-106791802D01*
X163551993Y-106784269D01*
X163558820Y-106780231D01*
X163558823Y-106780230D01*
X163569506Y-106773912D01*
X163587264Y-106765212D01*
X163598815Y-106760639D01*
X163598821Y-106760635D01*
X163606188Y-106757719D01*
X163642091Y-106731634D01*
X163652010Y-106725119D01*
X163683368Y-106706574D01*
X163683372Y-106706571D01*
X163690198Y-106702534D01*
X163704582Y-106688150D01*
X163719616Y-106675309D01*
X163729673Y-106668002D01*
X163736087Y-106663342D01*
X163764373Y-106629150D01*
X163772363Y-106620369D01*
X164655290Y-105737443D01*
X164717602Y-105703418D01*
X164732965Y-105701058D01*
X164748579Y-105699637D01*
X164755600Y-105698998D01*
X164762302Y-105696820D01*
X164762304Y-105696820D01*
X164921409Y-105645124D01*
X164921412Y-105645123D01*
X164928108Y-105642947D01*
X165066926Y-105560195D01*
X165075186Y-105555271D01*
X165139703Y-105537500D01*
X183531590Y-105537500D01*
X183542824Y-105538030D01*
X183550329Y-105539708D01*
X183618622Y-105537562D01*
X183622579Y-105537500D01*
X183650593Y-105537500D01*
X183654518Y-105537004D01*
X183654519Y-105537004D01*
X183654614Y-105536992D01*
X183666459Y-105536059D01*
X183696280Y-105535122D01*
X183702892Y-105534914D01*
X183702893Y-105534914D01*
X183710815Y-105534665D01*
X183730359Y-105528987D01*
X183749722Y-105524977D01*
X183762050Y-105523420D01*
X183762052Y-105523420D01*
X183769909Y-105522427D01*
X183777273Y-105519511D01*
X183777278Y-105519510D01*
X183811166Y-105506093D01*
X183822395Y-105502248D01*
X183839075Y-105497402D01*
X183865003Y-105489869D01*
X183871830Y-105485831D01*
X183871833Y-105485830D01*
X183882516Y-105479512D01*
X183900274Y-105470812D01*
X183911825Y-105466239D01*
X183911831Y-105466235D01*
X183919198Y-105463319D01*
X183955101Y-105437234D01*
X183965020Y-105430719D01*
X183996378Y-105412174D01*
X183996382Y-105412171D01*
X184003208Y-105408134D01*
X184017592Y-105393750D01*
X184032626Y-105380909D01*
X184042683Y-105373602D01*
X184049097Y-105368942D01*
X184077388Y-105334744D01*
X184085377Y-105325965D01*
X190903710Y-98507633D01*
X190966022Y-98473607D01*
X191036837Y-98478672D01*
X191093673Y-98521219D01*
X191118484Y-98587739D01*
X191118805Y-98596728D01*
X191118805Y-100485667D01*
X191098803Y-100553788D01*
X191081900Y-100574762D01*
X162576472Y-129080190D01*
X162562059Y-129092577D01*
X162544436Y-129105546D01*
X162539692Y-129111129D01*
X162539693Y-129111129D01*
X162510021Y-129146055D01*
X162503091Y-129153571D01*
X162497347Y-129159315D01*
X162495073Y-129162189D01*
X162495067Y-129162196D01*
X162479628Y-129181711D01*
X162476837Y-129185115D01*
X162434055Y-129235472D01*
X162434052Y-129235476D01*
X162429316Y-129241051D01*
X162425988Y-129247568D01*
X162422611Y-129252632D01*
X162419384Y-129257856D01*
X162414840Y-129263600D01*
X162411741Y-129270231D01*
X162383768Y-129330082D01*
X162381837Y-129334033D01*
X162348457Y-129399404D01*
X162346716Y-129406519D01*
X162344579Y-129412265D01*
X162342655Y-129418048D01*
X162339556Y-129424679D01*
X162338066Y-129431843D01*
X162324608Y-129496547D01*
X162323639Y-129500829D01*
X162306196Y-129572112D01*
X162305500Y-129583330D01*
X162305461Y-129583328D01*
X162305228Y-129587229D01*
X162304839Y-129591588D01*
X162303348Y-129598756D01*
X162303546Y-129606073D01*
X162305454Y-129676577D01*
X162305500Y-129679986D01*
X162305500Y-130341500D01*
X162285498Y-130409621D01*
X162231842Y-130456114D01*
X162179500Y-130467500D01*
X162169866Y-130467500D01*
X162107684Y-130474255D01*
X161971295Y-130525385D01*
X161854739Y-130612739D01*
X161767385Y-130729295D01*
X161764233Y-130737703D01*
X161722919Y-130847907D01*
X161680277Y-130904671D01*
X161613716Y-130929371D01*
X161544367Y-130914163D01*
X161511743Y-130888476D01*
X161461151Y-130832875D01*
X161461142Y-130832866D01*
X161457670Y-130829051D01*
X161453619Y-130825852D01*
X161453615Y-130825848D01*
X161286414Y-130693800D01*
X161286410Y-130693798D01*
X161282359Y-130690598D01*
X161275773Y-130686962D01*
X161189880Y-130639547D01*
X161086789Y-130582638D01*
X161081920Y-130580914D01*
X161081916Y-130580912D01*
X160881087Y-130509795D01*
X160881083Y-130509794D01*
X160876212Y-130508069D01*
X160871119Y-130507162D01*
X160871116Y-130507161D01*
X160661373Y-130469800D01*
X160661367Y-130469799D01*
X160656284Y-130468894D01*
X160582452Y-130467992D01*
X160438081Y-130466228D01*
X160438079Y-130466228D01*
X160432911Y-130466165D01*
X160212091Y-130499955D01*
X159999756Y-130569357D01*
X159969443Y-130585137D01*
X159856680Y-130643838D01*
X159801607Y-130672507D01*
X159797474Y-130675610D01*
X159797471Y-130675612D01*
X159627100Y-130803530D01*
X159622965Y-130806635D01*
X159583750Y-130847671D01*
X159523100Y-130911138D01*
X159468629Y-130968138D01*
X159361201Y-131125621D01*
X159306293Y-131170621D01*
X159235768Y-131178792D01*
X159172021Y-131147538D01*
X159151324Y-131123054D01*
X159070822Y-130998617D01*
X159070820Y-130998614D01*
X159068014Y-130994277D01*
X158917670Y-130829051D01*
X158913619Y-130825852D01*
X158913615Y-130825848D01*
X158746414Y-130693800D01*
X158746410Y-130693798D01*
X158742359Y-130690598D01*
X158735773Y-130686962D01*
X158649880Y-130639547D01*
X158546789Y-130582638D01*
X158541920Y-130580914D01*
X158541916Y-130580912D01*
X158341087Y-130509795D01*
X158341083Y-130509794D01*
X158336212Y-130508069D01*
X158331119Y-130507162D01*
X158331116Y-130507161D01*
X158121373Y-130469800D01*
X158121367Y-130469799D01*
X158116284Y-130468894D01*
X158042452Y-130467992D01*
X157898081Y-130466228D01*
X157898079Y-130466228D01*
X157892911Y-130466165D01*
X157672091Y-130499955D01*
X157459756Y-130569357D01*
X157429443Y-130585137D01*
X157316680Y-130643838D01*
X157261607Y-130672507D01*
X157257474Y-130675610D01*
X157257471Y-130675612D01*
X157087100Y-130803530D01*
X157082965Y-130806635D01*
X157043750Y-130847671D01*
X156983100Y-130911138D01*
X156928629Y-130968138D01*
X156802743Y-131152680D01*
X156708688Y-131355305D01*
X156648989Y-131570570D01*
X156625251Y-131792695D01*
X156625548Y-131797848D01*
X156625548Y-131797851D01*
X156631104Y-131894210D01*
X156638110Y-132015715D01*
X156639247Y-132020761D01*
X156639248Y-132020767D01*
X156663304Y-132127508D01*
X156687222Y-132233639D01*
X156771266Y-132440616D01*
X156808685Y-132501678D01*
X156885291Y-132626688D01*
X156887987Y-132631088D01*
X157034250Y-132799938D01*
X157206126Y-132942632D01*
X157283273Y-132987713D01*
X157331995Y-133039351D01*
X157345066Y-133109134D01*
X157318334Y-133174906D01*
X157260287Y-133215784D01*
X157219701Y-133222500D01*
X155435028Y-133222500D01*
X155366907Y-133202498D01*
X155345933Y-133185595D01*
X154088405Y-131928067D01*
X154054379Y-131865755D01*
X154051500Y-131838972D01*
X154051500Y-131178028D01*
X154071502Y-131109907D01*
X154088405Y-131088933D01*
X155218933Y-129958405D01*
X155281245Y-129924379D01*
X155308028Y-129921500D01*
X159190624Y-129921500D01*
X159209574Y-129922933D01*
X159223973Y-129925124D01*
X159223979Y-129925124D01*
X159231208Y-129926224D01*
X159238500Y-129925631D01*
X159238503Y-129925631D01*
X159284183Y-129921915D01*
X159294398Y-129921500D01*
X159302525Y-129921500D01*
X159306161Y-129921076D01*
X159306163Y-129921076D01*
X159309615Y-129920673D01*
X159330924Y-129918189D01*
X159335244Y-129917762D01*
X159408426Y-129911809D01*
X159415388Y-129909553D01*
X159421376Y-129908357D01*
X159427333Y-129906949D01*
X159434607Y-129906101D01*
X159441489Y-129903603D01*
X159441493Y-129903602D01*
X159503607Y-129881055D01*
X159507711Y-129879645D01*
X159577575Y-129857013D01*
X159583838Y-129853213D01*
X159589380Y-129850675D01*
X159594856Y-129847933D01*
X159601741Y-129845434D01*
X159663132Y-129805185D01*
X159666800Y-129802870D01*
X159729581Y-129764773D01*
X159733786Y-129761059D01*
X159733789Y-129761057D01*
X159738005Y-129757333D01*
X159738031Y-129757362D01*
X159740962Y-129754762D01*
X159744316Y-129751958D01*
X159750435Y-129747946D01*
X159803989Y-129691413D01*
X159806366Y-129688972D01*
X164689649Y-124805689D01*
X164751961Y-124771663D01*
X164822776Y-124776728D01*
X164879612Y-124819275D01*
X164886520Y-124829513D01*
X164937832Y-124914239D01*
X164963380Y-124956424D01*
X164968269Y-124961487D01*
X164968270Y-124961488D01*
X164989027Y-124982982D01*
X165089382Y-125086902D01*
X165145126Y-125123380D01*
X165230731Y-125179398D01*
X165241159Y-125186222D01*
X165247763Y-125188678D01*
X165247765Y-125188679D01*
X165404558Y-125246990D01*
X165404560Y-125246990D01*
X165411168Y-125249448D01*
X165486518Y-125259502D01*
X165583980Y-125272507D01*
X165583984Y-125272507D01*
X165590961Y-125273438D01*
X165597972Y-125272800D01*
X165597976Y-125272800D01*
X165740459Y-125259832D01*
X165771600Y-125256998D01*
X165778302Y-125254820D01*
X165778304Y-125254820D01*
X165937409Y-125203124D01*
X165937412Y-125203123D01*
X165944108Y-125200947D01*
X166040513Y-125143478D01*
X166093860Y-125111677D01*
X166093862Y-125111676D01*
X166099912Y-125108069D01*
X166231266Y-124982982D01*
X166331643Y-124831902D01*
X166386346Y-124687897D01*
X166393555Y-124668920D01*
X166393556Y-124668918D01*
X166396055Y-124662338D01*
X166421299Y-124482717D01*
X166421616Y-124460000D01*
X166401397Y-124279745D01*
X166392264Y-124253518D01*
X166344064Y-124115106D01*
X166344062Y-124115103D01*
X166341745Y-124108448D01*
X166292456Y-124029568D01*
X166249359Y-123960598D01*
X166245626Y-123954624D01*
X166217554Y-123926355D01*
X166122778Y-123830915D01*
X166122774Y-123830912D01*
X166117815Y-123825918D01*
X165976290Y-123736104D01*
X165929494Y-123682717D01*
X165918989Y-123612502D01*
X165948113Y-123547754D01*
X165954712Y-123540626D01*
X165972528Y-123522810D01*
X165986941Y-123510423D01*
X165998665Y-123501795D01*
X166004564Y-123497454D01*
X166038979Y-123456945D01*
X166045909Y-123449429D01*
X166051653Y-123443685D01*
X166053927Y-123440811D01*
X166053933Y-123440804D01*
X166069372Y-123421289D01*
X166072163Y-123417885D01*
X166114945Y-123367528D01*
X166114948Y-123367524D01*
X166119684Y-123361949D01*
X166123012Y-123355432D01*
X166126389Y-123350368D01*
X166129616Y-123345144D01*
X166134160Y-123339400D01*
X166152854Y-123299401D01*
X166165232Y-123272918D01*
X166167163Y-123268967D01*
X166189049Y-123226106D01*
X166200543Y-123203596D01*
X166202284Y-123196481D01*
X166204421Y-123190735D01*
X166206345Y-123184952D01*
X166209444Y-123178321D01*
X166224394Y-123106443D01*
X166225363Y-123102162D01*
X166241470Y-123036339D01*
X166242804Y-123030888D01*
X166243500Y-123019670D01*
X166243539Y-123019672D01*
X166243772Y-123015771D01*
X166244161Y-123011412D01*
X166245652Y-123004244D01*
X166243546Y-122926423D01*
X166243500Y-122923014D01*
X166243500Y-122085737D01*
X166251712Y-122040993D01*
X166266555Y-122001920D01*
X166266556Y-122001918D01*
X166269055Y-121995338D01*
X166292048Y-121831737D01*
X166293748Y-121819639D01*
X166293748Y-121819636D01*
X166294299Y-121815717D01*
X166294616Y-121793000D01*
X166274397Y-121612745D01*
X166270546Y-121601685D01*
X166250509Y-121544148D01*
X166243500Y-121502711D01*
X166243500Y-118529737D01*
X166251712Y-118484993D01*
X166266555Y-118445920D01*
X166266556Y-118445918D01*
X166269055Y-118439338D01*
X166294299Y-118259717D01*
X166294616Y-118237000D01*
X166274397Y-118056745D01*
X166270546Y-118045685D01*
X166250509Y-117988148D01*
X166243500Y-117946711D01*
X166243500Y-114084737D01*
X166251712Y-114039993D01*
X166266555Y-114000920D01*
X166266556Y-114000918D01*
X166269055Y-113994338D01*
X166270098Y-113986919D01*
X166293748Y-113818639D01*
X166293748Y-113818636D01*
X166294299Y-113814717D01*
X166294616Y-113792000D01*
X166274397Y-113611745D01*
X166255416Y-113557238D01*
X166217064Y-113447106D01*
X166217062Y-113447103D01*
X166214745Y-113440448D01*
X166197984Y-113413624D01*
X166122359Y-113292598D01*
X166118626Y-113286624D01*
X166098541Y-113266398D01*
X165995778Y-113162915D01*
X165995774Y-113162912D01*
X165990815Y-113157918D01*
X165870729Y-113081709D01*
X165843613Y-113064501D01*
X165837666Y-113060727D01*
X165836428Y-113060286D01*
X165805718Y-113038381D01*
X164924806Y-112157468D01*
X164912420Y-112143055D01*
X164903795Y-112131335D01*
X164899454Y-112125436D01*
X164858945Y-112091021D01*
X164851429Y-112084091D01*
X164845685Y-112078347D01*
X164842811Y-112076073D01*
X164842804Y-112076067D01*
X164823289Y-112060628D01*
X164819885Y-112057837D01*
X164769528Y-112015055D01*
X164769524Y-112015052D01*
X164763949Y-112010316D01*
X164757432Y-112006988D01*
X164752368Y-112003611D01*
X164747144Y-112000384D01*
X164741400Y-111995840D01*
X164675536Y-111965057D01*
X164674918Y-111964768D01*
X164670967Y-111962837D01*
X164612117Y-111932787D01*
X164605596Y-111929457D01*
X164598481Y-111927716D01*
X164592735Y-111925579D01*
X164586952Y-111923655D01*
X164580321Y-111920556D01*
X164508443Y-111905606D01*
X164504171Y-111904639D01*
X164432888Y-111887196D01*
X164427289Y-111886849D01*
X164427285Y-111886848D01*
X164421670Y-111886500D01*
X164421672Y-111886461D01*
X164417771Y-111886228D01*
X164413412Y-111885839D01*
X164406244Y-111884348D01*
X164398927Y-111884546D01*
X164328423Y-111886454D01*
X164325014Y-111886500D01*
X159167733Y-111886500D01*
X159125466Y-111879199D01*
X159069424Y-111859243D01*
X159069422Y-111859243D01*
X159062790Y-111856881D01*
X159055802Y-111856048D01*
X159055799Y-111856047D01*
X158932698Y-111841368D01*
X158882680Y-111835404D01*
X158875677Y-111836140D01*
X158875676Y-111836140D01*
X158709288Y-111853628D01*
X158709286Y-111853629D01*
X158702288Y-111854364D01*
X158629335Y-111879199D01*
X158537249Y-111910547D01*
X158537246Y-111910548D01*
X158530579Y-111912818D01*
X158524580Y-111916508D01*
X158524577Y-111916510D01*
X158500510Y-111931317D01*
X158434487Y-111950000D01*
X155693500Y-111950000D01*
X155625379Y-111929998D01*
X155578886Y-111876342D01*
X155567500Y-111824000D01*
X155567500Y-106966225D01*
X155587502Y-106898104D01*
X155604405Y-106877130D01*
X160850175Y-101631361D01*
X166132268Y-96349268D01*
X166132272Y-96349263D01*
X166354680Y-96126855D01*
X166416992Y-96092829D01*
X166487807Y-96097894D01*
X166544643Y-96140441D01*
X166551550Y-96150679D01*
X166614380Y-96254424D01*
X166619269Y-96259487D01*
X166619270Y-96259488D01*
X166674558Y-96316740D01*
X166740382Y-96384902D01*
X166767602Y-96402714D01*
X166881751Y-96477411D01*
X166892159Y-96484222D01*
X166898763Y-96486678D01*
X166898765Y-96486679D01*
X167055558Y-96544990D01*
X167055560Y-96544990D01*
X167062168Y-96547448D01*
X167130488Y-96556564D01*
X167234980Y-96570507D01*
X167234984Y-96570507D01*
X167241961Y-96571438D01*
X167248972Y-96570800D01*
X167248976Y-96570800D01*
X167405393Y-96556564D01*
X167422600Y-96554998D01*
X167429302Y-96552820D01*
X167429304Y-96552820D01*
X167588409Y-96501124D01*
X167588412Y-96501123D01*
X167595108Y-96498947D01*
X167700702Y-96436000D01*
X167744860Y-96409677D01*
X167744862Y-96409676D01*
X167750912Y-96406069D01*
X167882266Y-96280982D01*
X167982643Y-96129902D01*
X168047055Y-95960338D01*
X168048101Y-95952897D01*
X168071748Y-95784639D01*
X168071748Y-95784636D01*
X168072299Y-95780717D01*
X168072616Y-95758000D01*
X168052397Y-95577745D01*
X168033416Y-95523238D01*
X167995064Y-95413106D01*
X167995062Y-95413103D01*
X167992745Y-95406448D01*
X167896626Y-95252624D01*
X167884255Y-95240166D01*
X167773778Y-95128915D01*
X167773774Y-95128912D01*
X167768815Y-95123918D01*
X167741694Y-95106706D01*
X167650049Y-95048547D01*
X167603250Y-94995158D01*
X167592745Y-94924943D01*
X167621869Y-94860195D01*
X167628468Y-94853067D01*
X171321630Y-91159905D01*
X171383942Y-91125879D01*
X171410725Y-91123000D01*
X190942997Y-91123000D01*
X191011988Y-91143566D01*
X191022159Y-91150222D01*
X191124604Y-91188321D01*
X191185558Y-91210990D01*
X191185560Y-91210990D01*
X191192168Y-91213448D01*
X191275995Y-91224633D01*
X191364980Y-91236507D01*
X191364984Y-91236507D01*
X191371961Y-91237438D01*
X191378972Y-91236800D01*
X191378976Y-91236800D01*
X191521459Y-91223832D01*
X191552600Y-91220998D01*
X191559302Y-91218820D01*
X191559304Y-91218820D01*
X191718409Y-91167124D01*
X191718412Y-91167123D01*
X191725108Y-91164947D01*
X191880912Y-91072069D01*
X192012266Y-90946982D01*
X192112643Y-90795902D01*
X192165428Y-90656947D01*
X192174555Y-90632920D01*
X192174556Y-90632918D01*
X192177055Y-90626338D01*
X192178718Y-90614505D01*
X192201748Y-90450639D01*
X192201748Y-90450636D01*
X192202299Y-90446717D01*
X192202616Y-90424000D01*
X192182397Y-90243745D01*
X192136298Y-90111366D01*
X192125064Y-90079106D01*
X192125062Y-90079103D01*
X192122745Y-90072448D01*
X192026626Y-89918624D01*
X192020110Y-89912062D01*
X191903778Y-89794915D01*
X191903774Y-89794912D01*
X191898815Y-89789918D01*
X191745666Y-89692727D01*
X191716463Y-89682328D01*
X191581425Y-89634243D01*
X191581420Y-89634242D01*
X191574790Y-89631881D01*
X191567802Y-89631048D01*
X191567799Y-89631047D01*
X191444698Y-89616368D01*
X191394680Y-89610404D01*
X191387677Y-89611140D01*
X191387676Y-89611140D01*
X191221288Y-89628628D01*
X191221286Y-89628629D01*
X191214288Y-89629364D01*
X191167776Y-89645198D01*
X191049249Y-89685547D01*
X191049246Y-89685548D01*
X191042579Y-89687818D01*
X191036580Y-89691508D01*
X191036577Y-89691510D01*
X191012510Y-89706317D01*
X190946487Y-89725000D01*
X171153574Y-89725000D01*
X171149811Y-89725455D01*
X171149800Y-89725456D01*
X171143677Y-89726197D01*
X171119972Y-89726818D01*
X171087255Y-89724588D01*
X171039723Y-89721347D01*
X171039720Y-89721347D01*
X171032148Y-89720831D01*
X171024671Y-89722136D01*
X171024669Y-89722136D01*
X170970015Y-89731675D01*
X170865482Y-89749919D01*
X170818748Y-89770434D01*
X170721609Y-89813076D01*
X170710567Y-89817923D01*
X170607311Y-89897153D01*
X170604386Y-89900078D01*
X165146312Y-95358153D01*
X154394462Y-106110003D01*
X154388197Y-106115856D01*
X154345226Y-106153342D01*
X154340859Y-106159556D01*
X154309006Y-106204878D01*
X154305073Y-106210174D01*
X154270894Y-106253763D01*
X154270892Y-106253766D01*
X154266208Y-106259740D01*
X154263082Y-106266664D01*
X154261244Y-106269699D01*
X154254000Y-106282398D01*
X154252312Y-106285546D01*
X154247944Y-106291761D01*
X154245184Y-106298840D01*
X154225067Y-106350439D01*
X154222522Y-106356495D01*
X154196587Y-106413935D01*
X154195202Y-106421408D01*
X154194131Y-106424826D01*
X154190146Y-106438815D01*
X154189249Y-106442307D01*
X154186488Y-106449389D01*
X154185496Y-106456922D01*
X154185496Y-106456923D01*
X154178267Y-106511830D01*
X154177235Y-106518343D01*
X154167139Y-106572818D01*
X154165755Y-106580287D01*
X154166192Y-106587867D01*
X154166192Y-106587868D01*
X154169291Y-106641612D01*
X154169500Y-106648865D01*
X154169500Y-111850443D01*
X154149498Y-111918564D01*
X154095842Y-111965057D01*
X154056671Y-111975753D01*
X154010288Y-111980628D01*
X154010286Y-111980628D01*
X154003288Y-111981364D01*
X153831579Y-112039818D01*
X153797753Y-112060628D01*
X153683095Y-112131166D01*
X153683092Y-112131168D01*
X153677088Y-112134862D01*
X153672053Y-112139793D01*
X153672050Y-112139795D01*
X153552525Y-112256843D01*
X153547493Y-112261771D01*
X153449235Y-112414238D01*
X153446826Y-112420858D01*
X153446824Y-112420861D01*
X153389606Y-112578066D01*
X153387197Y-112584685D01*
X153364463Y-112764640D01*
X153382163Y-112945160D01*
X153439418Y-113117273D01*
X153443065Y-113123295D01*
X153443066Y-113123297D01*
X153529730Y-113266398D01*
X153529733Y-113266401D01*
X153533380Y-113272424D01*
X153534496Y-113273579D01*
X153559433Y-113337749D01*
X153545291Y-113407322D01*
X153539809Y-113416694D01*
X153449235Y-113557238D01*
X153446826Y-113563858D01*
X153446824Y-113563861D01*
X153393605Y-113710078D01*
X153387197Y-113727685D01*
X153364463Y-113907640D01*
X153382163Y-114088160D01*
X153439418Y-114260273D01*
X153443065Y-114266295D01*
X153443066Y-114266297D01*
X153505877Y-114370010D01*
X153533380Y-114415424D01*
X153538269Y-114420487D01*
X153538270Y-114420488D01*
X153563719Y-114446841D01*
X153659382Y-114545902D01*
X153811159Y-114645222D01*
X153817763Y-114647678D01*
X153817765Y-114647679D01*
X153974558Y-114705990D01*
X153974560Y-114705990D01*
X153981168Y-114708448D01*
X154064995Y-114719633D01*
X154153980Y-114731507D01*
X154153984Y-114731507D01*
X154160961Y-114732438D01*
X154167972Y-114731800D01*
X154167976Y-114731800D01*
X154310459Y-114718832D01*
X154341600Y-114715998D01*
X154348302Y-114713820D01*
X154348304Y-114713820D01*
X154507409Y-114662124D01*
X154507412Y-114662123D01*
X154514108Y-114659947D01*
X154669912Y-114567069D01*
X154801266Y-114441982D01*
X154901643Y-114290902D01*
X154966055Y-114121338D01*
X154968062Y-114107058D01*
X154990748Y-113945639D01*
X154990748Y-113945636D01*
X154991299Y-113941717D01*
X154991616Y-113919000D01*
X154971397Y-113738745D01*
X154967546Y-113727685D01*
X154927826Y-113613626D01*
X154924312Y-113542717D01*
X154959694Y-113481164D01*
X155022736Y-113448512D01*
X155063480Y-113447296D01*
X155108809Y-113453344D01*
X155169980Y-113461507D01*
X155169984Y-113461507D01*
X155176961Y-113462438D01*
X155183972Y-113461800D01*
X155183976Y-113461800D01*
X155331152Y-113448405D01*
X155357600Y-113445998D01*
X155364302Y-113443820D01*
X155364304Y-113443820D01*
X155523409Y-113392124D01*
X155523412Y-113392123D01*
X155530108Y-113389947D01*
X155554810Y-113375222D01*
X155570664Y-113365771D01*
X155635181Y-113348000D01*
X158430997Y-113348000D01*
X158499988Y-113368566D01*
X158510159Y-113375222D01*
X158589614Y-113404771D01*
X158673558Y-113435990D01*
X158673560Y-113435990D01*
X158680168Y-113438448D01*
X158754791Y-113448405D01*
X158852980Y-113461507D01*
X158852984Y-113461507D01*
X158859961Y-113462438D01*
X158866972Y-113461800D01*
X158866976Y-113461800D01*
X159014152Y-113448405D01*
X159040600Y-113445998D01*
X159047302Y-113443820D01*
X159047304Y-113443820D01*
X159127794Y-113417667D01*
X159166730Y-113411500D01*
X163969972Y-113411500D01*
X164038093Y-113431502D01*
X164059067Y-113448405D01*
X164681595Y-114070933D01*
X164715621Y-114133245D01*
X164718500Y-114160028D01*
X164718500Y-115811598D01*
X164698498Y-115879719D01*
X164644842Y-115926212D01*
X164574568Y-115936316D01*
X164550233Y-115930297D01*
X164530424Y-115923243D01*
X164530422Y-115923243D01*
X164523790Y-115920881D01*
X164516802Y-115920048D01*
X164516799Y-115920047D01*
X164389896Y-115904915D01*
X164343680Y-115899404D01*
X164336677Y-115900140D01*
X164336676Y-115900140D01*
X164170288Y-115917628D01*
X164170286Y-115917629D01*
X164163288Y-115918364D01*
X163991579Y-115976818D01*
X163929109Y-116015250D01*
X163843095Y-116068166D01*
X163843092Y-116068168D01*
X163837088Y-116071862D01*
X163832053Y-116076793D01*
X163832050Y-116076795D01*
X163787254Y-116120663D01*
X163707493Y-116198771D01*
X163609235Y-116351238D01*
X163606826Y-116357858D01*
X163606824Y-116357861D01*
X163586194Y-116414542D01*
X163544100Y-116471713D01*
X163477778Y-116497051D01*
X163425576Y-116487172D01*
X163424666Y-116489727D01*
X163260425Y-116431243D01*
X163260420Y-116431242D01*
X163253790Y-116428881D01*
X163246802Y-116428048D01*
X163246799Y-116428047D01*
X163123698Y-116413368D01*
X163073680Y-116407404D01*
X163066677Y-116408140D01*
X163066676Y-116408140D01*
X162900288Y-116425628D01*
X162900286Y-116425629D01*
X162893288Y-116426364D01*
X162721579Y-116484818D01*
X162715575Y-116488512D01*
X162573095Y-116576166D01*
X162573092Y-116576168D01*
X162567088Y-116579862D01*
X162562053Y-116584793D01*
X162562050Y-116584795D01*
X162442525Y-116701843D01*
X162437493Y-116706771D01*
X162339235Y-116859238D01*
X162336826Y-116865858D01*
X162336824Y-116865861D01*
X162314198Y-116928025D01*
X162277197Y-117029685D01*
X162254463Y-117209640D01*
X162272163Y-117390160D01*
X162329418Y-117562273D01*
X162333065Y-117568295D01*
X162333066Y-117568297D01*
X162347095Y-117591461D01*
X162423380Y-117717424D01*
X162549382Y-117847902D01*
X162555278Y-117851760D01*
X162674745Y-117929937D01*
X162701159Y-117947222D01*
X162707763Y-117949678D01*
X162707765Y-117949679D01*
X162864558Y-118007990D01*
X162864560Y-118007990D01*
X162871168Y-118010448D01*
X162954995Y-118021633D01*
X163043980Y-118033507D01*
X163043984Y-118033507D01*
X163050961Y-118034438D01*
X163057972Y-118033800D01*
X163057976Y-118033800D01*
X163200459Y-118020832D01*
X163231600Y-118017998D01*
X163238302Y-118015820D01*
X163238304Y-118015820D01*
X163397409Y-117964124D01*
X163397412Y-117964123D01*
X163404108Y-117961947D01*
X163559912Y-117869069D01*
X163691266Y-117743982D01*
X163791643Y-117592902D01*
X163820584Y-117516715D01*
X163863473Y-117460137D01*
X163930142Y-117435728D01*
X163982290Y-117443362D01*
X164141168Y-117502448D01*
X164224995Y-117513633D01*
X164313980Y-117525507D01*
X164313984Y-117525507D01*
X164320961Y-117526438D01*
X164327972Y-117525800D01*
X164327976Y-117525800D01*
X164470459Y-117512832D01*
X164501600Y-117509998D01*
X164508300Y-117507821D01*
X164508305Y-117507820D01*
X164553564Y-117493114D01*
X164624532Y-117491087D01*
X164685330Y-117527749D01*
X164716655Y-117591461D01*
X164718500Y-117612947D01*
X164718500Y-117945707D01*
X164710901Y-117988802D01*
X164694291Y-118034438D01*
X164690197Y-118045685D01*
X164667463Y-118225640D01*
X164685163Y-118406160D01*
X164704771Y-118465104D01*
X164712058Y-118487009D01*
X164718500Y-118526781D01*
X164718500Y-121501707D01*
X164710901Y-121544802D01*
X164690197Y-121601685D01*
X164667463Y-121781640D01*
X164685163Y-121962160D01*
X164700011Y-122006794D01*
X164712058Y-122043009D01*
X164718500Y-122082781D01*
X164718500Y-122567972D01*
X164698498Y-122636093D01*
X164681595Y-122657067D01*
X163425765Y-123912897D01*
X163363453Y-123946923D01*
X163292638Y-123941858D01*
X163235802Y-123899311D01*
X163210991Y-123832791D01*
X163217719Y-123786981D01*
X163216802Y-123786746D01*
X163218555Y-123779920D01*
X163221055Y-123773338D01*
X163223910Y-123753027D01*
X163245748Y-123597639D01*
X163245748Y-123597636D01*
X163246299Y-123593717D01*
X163246616Y-123571000D01*
X163226397Y-123390745D01*
X163224080Y-123384091D01*
X163169064Y-123226106D01*
X163169062Y-123226103D01*
X163166745Y-123219448D01*
X163070626Y-123065624D01*
X163019947Y-123014590D01*
X162947778Y-122941915D01*
X162947774Y-122941912D01*
X162942815Y-122936918D01*
X162931697Y-122929862D01*
X162883538Y-122899300D01*
X162789666Y-122839727D01*
X162746224Y-122824258D01*
X162625425Y-122781243D01*
X162625420Y-122781242D01*
X162618790Y-122778881D01*
X162611802Y-122778048D01*
X162611799Y-122778047D01*
X162488698Y-122763368D01*
X162438680Y-122757404D01*
X162431677Y-122758140D01*
X162431676Y-122758140D01*
X162265288Y-122775628D01*
X162265286Y-122775629D01*
X162258288Y-122776364D01*
X162086579Y-122834818D01*
X162080575Y-122838512D01*
X161938095Y-122926166D01*
X161938092Y-122926168D01*
X161932088Y-122929862D01*
X161927053Y-122934793D01*
X161927050Y-122934795D01*
X161823357Y-123036339D01*
X161802493Y-123056771D01*
X161704235Y-123209238D01*
X161701826Y-123215858D01*
X161701824Y-123215861D01*
X161646622Y-123367528D01*
X161642197Y-123379685D01*
X161619463Y-123559640D01*
X161637163Y-123740160D01*
X161694418Y-123912273D01*
X161698065Y-123918295D01*
X161698066Y-123918297D01*
X161765454Y-124029568D01*
X161788380Y-124067424D01*
X161793269Y-124072487D01*
X161793270Y-124072488D01*
X161817755Y-124097843D01*
X161914382Y-124197902D01*
X161935034Y-124211416D01*
X162037323Y-124278352D01*
X162066159Y-124297222D01*
X162072763Y-124299678D01*
X162072765Y-124299679D01*
X162229558Y-124357990D01*
X162229560Y-124357990D01*
X162236168Y-124360448D01*
X162319995Y-124371633D01*
X162408980Y-124383507D01*
X162408984Y-124383507D01*
X162415961Y-124384438D01*
X162422972Y-124383800D01*
X162422976Y-124383800D01*
X162565459Y-124370832D01*
X162596600Y-124367998D01*
X162603302Y-124365820D01*
X162603304Y-124365820D01*
X162630666Y-124356929D01*
X162651565Y-124350139D01*
X162722531Y-124348111D01*
X162783329Y-124384774D01*
X162814655Y-124448486D01*
X162806562Y-124519020D01*
X162779595Y-124559067D01*
X158979067Y-128359595D01*
X158916755Y-128393621D01*
X158889972Y-128396500D01*
X155828500Y-128396500D01*
X155760379Y-128376498D01*
X155713886Y-128322842D01*
X155702500Y-128270500D01*
X155702500Y-128210377D01*
X155703933Y-128191427D01*
X155706124Y-128177028D01*
X155706124Y-128177022D01*
X155707224Y-128169793D01*
X155702915Y-128116818D01*
X155702500Y-128106603D01*
X155702500Y-128098475D01*
X155702078Y-128094853D01*
X155702077Y-128094840D01*
X155699191Y-128070086D01*
X155698758Y-128065710D01*
X155698657Y-128064460D01*
X155692809Y-127992574D01*
X155690553Y-127985612D01*
X155689357Y-127979624D01*
X155687949Y-127973667D01*
X155687101Y-127966393D01*
X155684603Y-127959511D01*
X155684602Y-127959507D01*
X155662055Y-127897393D01*
X155660645Y-127893289D01*
X155638013Y-127823425D01*
X155634213Y-127817162D01*
X155631675Y-127811620D01*
X155628933Y-127806144D01*
X155626434Y-127799259D01*
X155586185Y-127737868D01*
X155583870Y-127734200D01*
X155545773Y-127671419D01*
X155538333Y-127662995D01*
X155538362Y-127662969D01*
X155535762Y-127660038D01*
X155532958Y-127656684D01*
X155528946Y-127650565D01*
X155472413Y-127597011D01*
X155469972Y-127594634D01*
X153769140Y-125893802D01*
X153735114Y-125831490D01*
X153740179Y-125760675D01*
X153782726Y-125703839D01*
X153849246Y-125679028D01*
X153874897Y-125679814D01*
X153932675Y-125687523D01*
X154026980Y-125700107D01*
X154026984Y-125700107D01*
X154033961Y-125701038D01*
X154040972Y-125700400D01*
X154040976Y-125700400D01*
X154183459Y-125687432D01*
X154214600Y-125684598D01*
X154221302Y-125682420D01*
X154221304Y-125682420D01*
X154380409Y-125630724D01*
X154380412Y-125630723D01*
X154387108Y-125628547D01*
X154542912Y-125535669D01*
X154674266Y-125410582D01*
X154774643Y-125259502D01*
X154823626Y-125130556D01*
X154836555Y-125096520D01*
X154836556Y-125096518D01*
X154839055Y-125089938D01*
X154840973Y-125076292D01*
X154863748Y-124914239D01*
X154863748Y-124914236D01*
X154864299Y-124910317D01*
X154864616Y-124887600D01*
X154844397Y-124707345D01*
X154842759Y-124702640D01*
X157555463Y-124702640D01*
X157573163Y-124883160D01*
X157630418Y-125055273D01*
X157634065Y-125061295D01*
X157634066Y-125061297D01*
X157718641Y-125200947D01*
X157724380Y-125210424D01*
X157729269Y-125215487D01*
X157729270Y-125215488D01*
X157780425Y-125268460D01*
X157850382Y-125340902D01*
X157888242Y-125365677D01*
X157964290Y-125415441D01*
X158002159Y-125440222D01*
X158008763Y-125442678D01*
X158008765Y-125442679D01*
X158165558Y-125500990D01*
X158165560Y-125500990D01*
X158172168Y-125503448D01*
X158255012Y-125514502D01*
X158344980Y-125526507D01*
X158344984Y-125526507D01*
X158351961Y-125527438D01*
X158358972Y-125526800D01*
X158358976Y-125526800D01*
X158501459Y-125513832D01*
X158532600Y-125510998D01*
X158539302Y-125508820D01*
X158539304Y-125508820D01*
X158698409Y-125457124D01*
X158698412Y-125457123D01*
X158705108Y-125454947D01*
X158860912Y-125362069D01*
X158992266Y-125236982D01*
X159061997Y-125132028D01*
X159116354Y-125086358D01*
X159186774Y-125077325D01*
X159210856Y-125083655D01*
X159315168Y-125122448D01*
X159398995Y-125133633D01*
X159487980Y-125145507D01*
X159487984Y-125145507D01*
X159494961Y-125146438D01*
X159501972Y-125145800D01*
X159501976Y-125145800D01*
X159653295Y-125132028D01*
X159675600Y-125129998D01*
X159682302Y-125127820D01*
X159682304Y-125127820D01*
X159841409Y-125076124D01*
X159841412Y-125076123D01*
X159848108Y-125073947D01*
X159937340Y-125020754D01*
X160006094Y-125003054D01*
X160073504Y-125025336D01*
X160092492Y-125041455D01*
X160131483Y-125081830D01*
X160131488Y-125081834D01*
X160136382Y-125086902D01*
X160192126Y-125123380D01*
X160277731Y-125179398D01*
X160288159Y-125186222D01*
X160294763Y-125188678D01*
X160294765Y-125188679D01*
X160451558Y-125246990D01*
X160451560Y-125246990D01*
X160458168Y-125249448D01*
X160533518Y-125259502D01*
X160630980Y-125272507D01*
X160630984Y-125272507D01*
X160637961Y-125273438D01*
X160644972Y-125272800D01*
X160644976Y-125272800D01*
X160787459Y-125259832D01*
X160818600Y-125256998D01*
X160825302Y-125254820D01*
X160825304Y-125254820D01*
X160984409Y-125203124D01*
X160984412Y-125203123D01*
X160991108Y-125200947D01*
X161087513Y-125143478D01*
X161140860Y-125111677D01*
X161140862Y-125111676D01*
X161146912Y-125108069D01*
X161278266Y-124982982D01*
X161378643Y-124831902D01*
X161433346Y-124687897D01*
X161440555Y-124668920D01*
X161440556Y-124668918D01*
X161443055Y-124662338D01*
X161468299Y-124482717D01*
X161468616Y-124460000D01*
X161448397Y-124279745D01*
X161439264Y-124253518D01*
X161391064Y-124115106D01*
X161391062Y-124115103D01*
X161388745Y-124108448D01*
X161339456Y-124029568D01*
X161296359Y-123960598D01*
X161292626Y-123954624D01*
X161264554Y-123926355D01*
X161169778Y-123830915D01*
X161169774Y-123830912D01*
X161164815Y-123825918D01*
X161153697Y-123818862D01*
X161103090Y-123786746D01*
X161011666Y-123728727D01*
X160957297Y-123709367D01*
X160847425Y-123670243D01*
X160847420Y-123670242D01*
X160840790Y-123667881D01*
X160833802Y-123667048D01*
X160833799Y-123667047D01*
X160710698Y-123652368D01*
X160660680Y-123646404D01*
X160653677Y-123647140D01*
X160653676Y-123647140D01*
X160487288Y-123664628D01*
X160487286Y-123664629D01*
X160480288Y-123665364D01*
X160308579Y-123723818D01*
X160230975Y-123771561D01*
X160162476Y-123790219D01*
X160094761Y-123768880D01*
X160075548Y-123753027D01*
X160026778Y-123703915D01*
X160026774Y-123703912D01*
X160021815Y-123698918D01*
X160010697Y-123691862D01*
X159961657Y-123660741D01*
X159868666Y-123601727D01*
X159793501Y-123574962D01*
X159704425Y-123543243D01*
X159704420Y-123543242D01*
X159697790Y-123540881D01*
X159690802Y-123540048D01*
X159690799Y-123540047D01*
X159546243Y-123522810D01*
X159517680Y-123519404D01*
X159510677Y-123520140D01*
X159510676Y-123520140D01*
X159344288Y-123537628D01*
X159344286Y-123537629D01*
X159337288Y-123538364D01*
X159165579Y-123596818D01*
X159149619Y-123606637D01*
X159017095Y-123688166D01*
X159017092Y-123688168D01*
X159011088Y-123691862D01*
X159006053Y-123696793D01*
X159006050Y-123696795D01*
X158886525Y-123813843D01*
X158881493Y-123818771D01*
X158820564Y-123913315D01*
X158766852Y-123959737D01*
X158696566Y-123969752D01*
X158672391Y-123963757D01*
X158605927Y-123940090D01*
X158561424Y-123924243D01*
X158561422Y-123924243D01*
X158554790Y-123921881D01*
X158547802Y-123921048D01*
X158547799Y-123921047D01*
X158418171Y-123905590D01*
X158374680Y-123900404D01*
X158367677Y-123901140D01*
X158367676Y-123901140D01*
X158201288Y-123918628D01*
X158201286Y-123918629D01*
X158194288Y-123919364D01*
X158022579Y-123977818D01*
X158016575Y-123981512D01*
X157874095Y-124069166D01*
X157874092Y-124069168D01*
X157868088Y-124072862D01*
X157863053Y-124077793D01*
X157863050Y-124077795D01*
X157745577Y-124192834D01*
X157738493Y-124199771D01*
X157640235Y-124352238D01*
X157637826Y-124358858D01*
X157637824Y-124358861D01*
X157592744Y-124482717D01*
X157578197Y-124522685D01*
X157555463Y-124702640D01*
X154842759Y-124702640D01*
X154842080Y-124700691D01*
X154787064Y-124542706D01*
X154787062Y-124542703D01*
X154784745Y-124536048D01*
X154688626Y-124382224D01*
X154678558Y-124372085D01*
X154565778Y-124258515D01*
X154565774Y-124258512D01*
X154560815Y-124253518D01*
X154549697Y-124246462D01*
X154487884Y-124207235D01*
X154407666Y-124156327D01*
X154373629Y-124144207D01*
X154243425Y-124097843D01*
X154243420Y-124097842D01*
X154236790Y-124095481D01*
X154229802Y-124094648D01*
X154229799Y-124094647D01*
X154088472Y-124077795D01*
X154056680Y-124074004D01*
X154049677Y-124074740D01*
X154049676Y-124074740D01*
X153883288Y-124092228D01*
X153883286Y-124092229D01*
X153876288Y-124092964D01*
X153704579Y-124151418D01*
X153684667Y-124163668D01*
X153556095Y-124242766D01*
X153556092Y-124242768D01*
X153550088Y-124246462D01*
X153545053Y-124251393D01*
X153545050Y-124251395D01*
X153425525Y-124368443D01*
X153420493Y-124373371D01*
X153322235Y-124525838D01*
X153319826Y-124532458D01*
X153319824Y-124532461D01*
X153306347Y-124569489D01*
X153260197Y-124696285D01*
X153237463Y-124876240D01*
X153254837Y-125053432D01*
X153255163Y-125056760D01*
X153254579Y-125056817D01*
X153249550Y-125122763D01*
X153206736Y-125179398D01*
X153140100Y-125203895D01*
X153070798Y-125188477D01*
X153042608Y-125167270D01*
X150913405Y-123038067D01*
X150879379Y-122975755D01*
X150876500Y-122948972D01*
X150876500Y-122797640D01*
X152602463Y-122797640D01*
X152620163Y-122978160D01*
X152677418Y-123150273D01*
X152681065Y-123156295D01*
X152681066Y-123156297D01*
X152762666Y-123291035D01*
X152771380Y-123305424D01*
X152776269Y-123310487D01*
X152776270Y-123310488D01*
X152847348Y-123384091D01*
X152897382Y-123435902D01*
X152922305Y-123452211D01*
X153026451Y-123520362D01*
X153049159Y-123535222D01*
X153055763Y-123537678D01*
X153055765Y-123537679D01*
X153212558Y-123595990D01*
X153212560Y-123595990D01*
X153219168Y-123598448D01*
X153302995Y-123609633D01*
X153391980Y-123621507D01*
X153391984Y-123621507D01*
X153398961Y-123622438D01*
X153405972Y-123621800D01*
X153405976Y-123621800D01*
X153548459Y-123608832D01*
X153579600Y-123605998D01*
X153586302Y-123603820D01*
X153586304Y-123603820D01*
X153745409Y-123552124D01*
X153745412Y-123552123D01*
X153752108Y-123549947D01*
X153907912Y-123457069D01*
X154039266Y-123331982D01*
X154139643Y-123180902D01*
X154185332Y-123060627D01*
X154201555Y-123017920D01*
X154201556Y-123017918D01*
X154204055Y-123011338D01*
X154206080Y-122996927D01*
X154228748Y-122835639D01*
X154228748Y-122835636D01*
X154229299Y-122831717D01*
X154229616Y-122809000D01*
X154209397Y-122628745D01*
X154198201Y-122596594D01*
X154194689Y-122525687D01*
X154230070Y-122464135D01*
X154290836Y-122432269D01*
X154295000Y-122431890D01*
X154301694Y-122429715D01*
X154301699Y-122429714D01*
X154460809Y-122378016D01*
X154460812Y-122378015D01*
X154467508Y-122375839D01*
X154563913Y-122318370D01*
X154617260Y-122286569D01*
X154617262Y-122286568D01*
X154623312Y-122282961D01*
X154754666Y-122157874D01*
X154855043Y-122006794D01*
X154919455Y-121837230D01*
X154920435Y-121830258D01*
X154944148Y-121661531D01*
X154944148Y-121661528D01*
X154944699Y-121657609D01*
X154945016Y-121634892D01*
X154924797Y-121454637D01*
X154922480Y-121447983D01*
X154867464Y-121289998D01*
X154867462Y-121289995D01*
X154865145Y-121283340D01*
X154769026Y-121129516D01*
X154755341Y-121115735D01*
X154646178Y-121005807D01*
X154646174Y-121005804D01*
X154641215Y-121000810D01*
X154630097Y-120993754D01*
X154581938Y-120963192D01*
X154488066Y-120903619D01*
X154458863Y-120893220D01*
X154323825Y-120845135D01*
X154323820Y-120845134D01*
X154317190Y-120842773D01*
X154310202Y-120841940D01*
X154310199Y-120841939D01*
X154187098Y-120827260D01*
X154137080Y-120821296D01*
X154130077Y-120822032D01*
X154130076Y-120822032D01*
X153963688Y-120839520D01*
X153963686Y-120839521D01*
X153956688Y-120840256D01*
X153784979Y-120898710D01*
X153770857Y-120907398D01*
X153636495Y-120990058D01*
X153636492Y-120990060D01*
X153630488Y-120993754D01*
X153625453Y-120998685D01*
X153625450Y-120998687D01*
X153505925Y-121115735D01*
X153500893Y-121120663D01*
X153402635Y-121273130D01*
X153400226Y-121279750D01*
X153400224Y-121279753D01*
X153368926Y-121365744D01*
X153340597Y-121443577D01*
X153317863Y-121623532D01*
X153335563Y-121804052D01*
X153340748Y-121819639D01*
X153350510Y-121848984D01*
X153353033Y-121919936D01*
X153316796Y-121980988D01*
X153255117Y-122011851D01*
X153255175Y-122012115D01*
X153254130Y-122012345D01*
X153253304Y-122012758D01*
X153250312Y-122013184D01*
X153248295Y-122013628D01*
X153241288Y-122014364D01*
X153069579Y-122072818D01*
X153048580Y-122085737D01*
X152921095Y-122164166D01*
X152921092Y-122164168D01*
X152915088Y-122167862D01*
X152910053Y-122172793D01*
X152910050Y-122172795D01*
X152790525Y-122289843D01*
X152785493Y-122294771D01*
X152687235Y-122447238D01*
X152684826Y-122453858D01*
X152684824Y-122453861D01*
X152627606Y-122611066D01*
X152625197Y-122617685D01*
X152602463Y-122797640D01*
X150876500Y-122797640D01*
X150876500Y-121831737D01*
X150884712Y-121786993D01*
X150899555Y-121747920D01*
X150899556Y-121747918D01*
X150902055Y-121741338D01*
X150917015Y-121634892D01*
X150926748Y-121565639D01*
X150926748Y-121565636D01*
X150927299Y-121561717D01*
X150927616Y-121539000D01*
X150907397Y-121358745D01*
X150905080Y-121352091D01*
X150850064Y-121194106D01*
X150850062Y-121194103D01*
X150847745Y-121187448D01*
X150808423Y-121124519D01*
X150755359Y-121039598D01*
X150751626Y-121033624D01*
X150737941Y-121019843D01*
X150628778Y-120909915D01*
X150628774Y-120909912D01*
X150623815Y-120904918D01*
X150612697Y-120897862D01*
X150564538Y-120867300D01*
X150470666Y-120807727D01*
X150441463Y-120797328D01*
X150306425Y-120749243D01*
X150306420Y-120749242D01*
X150299790Y-120746881D01*
X150292802Y-120746048D01*
X150292799Y-120746047D01*
X150169698Y-120731368D01*
X150119680Y-120725404D01*
X150112677Y-120726140D01*
X150112676Y-120726140D01*
X149946288Y-120743628D01*
X149946286Y-120743629D01*
X149939288Y-120744364D01*
X149767579Y-120802818D01*
X149707921Y-120839520D01*
X149619095Y-120894166D01*
X149619092Y-120894168D01*
X149613088Y-120897862D01*
X149608053Y-120902793D01*
X149608050Y-120902795D01*
X149515166Y-120993754D01*
X149483493Y-121024771D01*
X149385235Y-121177238D01*
X149382826Y-121183858D01*
X149382824Y-121183861D01*
X149352490Y-121267204D01*
X149323197Y-121347685D01*
X149300463Y-121527640D01*
X149318163Y-121708160D01*
X149333934Y-121755570D01*
X149345058Y-121789009D01*
X149351500Y-121828781D01*
X149351500Y-123249624D01*
X149350067Y-123268574D01*
X149347876Y-123282973D01*
X149347876Y-123282979D01*
X149346776Y-123290208D01*
X149347369Y-123297500D01*
X149347369Y-123297503D01*
X149351085Y-123343183D01*
X149351500Y-123353398D01*
X149351500Y-123361525D01*
X149354811Y-123389924D01*
X149355238Y-123394244D01*
X149361191Y-123467426D01*
X149363447Y-123474388D01*
X149364643Y-123480376D01*
X149366051Y-123486333D01*
X149366899Y-123493607D01*
X149369397Y-123500489D01*
X149369398Y-123500493D01*
X149391945Y-123562607D01*
X149393355Y-123566711D01*
X149415987Y-123636575D01*
X149419787Y-123642838D01*
X149422325Y-123648380D01*
X149425067Y-123653856D01*
X149427566Y-123660741D01*
X149431581Y-123666865D01*
X149467815Y-123722132D01*
X149470130Y-123725800D01*
X149508227Y-123788581D01*
X149511941Y-123792786D01*
X149511943Y-123792789D01*
X149515667Y-123797005D01*
X149515638Y-123797031D01*
X149518238Y-123799962D01*
X149521042Y-123803316D01*
X149525054Y-123809435D01*
X149530366Y-123814467D01*
X149581586Y-123862988D01*
X149584028Y-123865366D01*
X154140595Y-128421933D01*
X154174621Y-128484245D01*
X154177500Y-128511028D01*
X154177500Y-128790972D01*
X154157498Y-128859093D01*
X154140595Y-128880067D01*
X152797472Y-130223190D01*
X152783059Y-130235577D01*
X152765436Y-130248546D01*
X152760692Y-130254129D01*
X152760693Y-130254129D01*
X152731021Y-130289055D01*
X152724091Y-130296571D01*
X152718347Y-130302315D01*
X152716073Y-130305189D01*
X152716067Y-130305196D01*
X152700628Y-130324711D01*
X152697837Y-130328115D01*
X152655055Y-130378472D01*
X152655052Y-130378476D01*
X152650316Y-130384051D01*
X152646988Y-130390568D01*
X152643611Y-130395632D01*
X152640384Y-130400856D01*
X152635840Y-130406600D01*
X152632741Y-130413231D01*
X152604768Y-130473082D01*
X152602839Y-130477029D01*
X152569457Y-130542404D01*
X152567716Y-130549519D01*
X152565579Y-130555265D01*
X152563655Y-130561048D01*
X152560556Y-130567679D01*
X152559066Y-130574843D01*
X152545608Y-130639547D01*
X152544639Y-130643829D01*
X152527196Y-130715112D01*
X152526500Y-130726330D01*
X152526461Y-130726328D01*
X152526228Y-130730229D01*
X152525839Y-130734588D01*
X152524348Y-130741756D01*
X152524546Y-130749073D01*
X152526454Y-130819577D01*
X152526500Y-130822986D01*
X152526500Y-132139624D01*
X152525067Y-132158574D01*
X152522876Y-132172973D01*
X152522876Y-132172979D01*
X152521776Y-132180208D01*
X152522369Y-132187500D01*
X152522369Y-132187503D01*
X152526085Y-132233183D01*
X152526500Y-132243398D01*
X152526500Y-132251525D01*
X152529811Y-132279924D01*
X152530238Y-132284244D01*
X152536191Y-132357426D01*
X152538447Y-132364388D01*
X152539643Y-132370376D01*
X152541051Y-132376333D01*
X152541899Y-132383607D01*
X152544397Y-132390489D01*
X152544398Y-132390493D01*
X152566945Y-132452607D01*
X152568355Y-132456711D01*
X152590987Y-132526575D01*
X152594787Y-132532838D01*
X152597325Y-132538380D01*
X152600067Y-132543856D01*
X152602566Y-132550741D01*
X152606581Y-132556865D01*
X152642815Y-132612132D01*
X152645130Y-132615800D01*
X152683227Y-132678581D01*
X152686941Y-132682786D01*
X152686943Y-132682789D01*
X152690667Y-132687005D01*
X152690638Y-132687031D01*
X152693238Y-132689962D01*
X152696042Y-132693316D01*
X152700054Y-132699435D01*
X152705366Y-132704467D01*
X152756586Y-132752988D01*
X152759028Y-132755366D01*
X153067374Y-133063712D01*
X153101400Y-133126024D01*
X153096335Y-133196839D01*
X153053788Y-133253675D01*
X152987268Y-133278486D01*
X152934875Y-133271095D01*
X152773929Y-133212038D01*
X152685116Y-133179449D01*
X152681254Y-133177959D01*
X151625007Y-132750135D01*
X151621190Y-132748514D01*
X150579759Y-132285928D01*
X150575969Y-132284169D01*
X149550429Y-131787299D01*
X149546700Y-131785415D01*
X148538232Y-131254834D01*
X148534567Y-131252828D01*
X147544220Y-130689089D01*
X147540623Y-130686962D01*
X146569498Y-130090689D01*
X146565975Y-130088444D01*
X146319525Y-129925631D01*
X145784402Y-129572112D01*
X145615203Y-129460334D01*
X145611755Y-129457974D01*
X145224736Y-129183442D01*
X144682259Y-128798636D01*
X144678900Y-128796168D01*
X144596083Y-128733192D01*
X143771819Y-128106407D01*
X143768537Y-128103824D01*
X143615981Y-127979624D01*
X142884834Y-127384376D01*
X142881639Y-127381686D01*
X142543491Y-127087220D01*
X142022265Y-126633327D01*
X142019165Y-126630536D01*
X141879668Y-126500680D01*
X141185047Y-125854068D01*
X141182042Y-125851176D01*
X141098813Y-125768381D01*
X140661012Y-125332866D01*
X140374167Y-125047519D01*
X140371254Y-125044524D01*
X140039366Y-124691717D01*
X139590436Y-124214491D01*
X139587638Y-124211416D01*
X139583959Y-124207235D01*
X139336765Y-123926355D01*
X141222609Y-123926355D01*
X141222906Y-123931508D01*
X141222906Y-123931511D01*
X141232497Y-124097843D01*
X141235468Y-124149375D01*
X141236605Y-124154421D01*
X141236606Y-124154427D01*
X141260064Y-124258515D01*
X141284580Y-124367299D01*
X141329838Y-124478757D01*
X141350674Y-124530069D01*
X141368624Y-124574276D01*
X141371323Y-124578680D01*
X141450169Y-124707345D01*
X141485345Y-124764748D01*
X141631608Y-124933598D01*
X141803484Y-125076292D01*
X141996358Y-125188998D01*
X142205050Y-125268690D01*
X142210118Y-125269721D01*
X142210121Y-125269722D01*
X142317375Y-125291543D01*
X142423955Y-125313227D01*
X142429130Y-125313417D01*
X142429132Y-125313417D01*
X142642031Y-125321224D01*
X142642035Y-125321224D01*
X142647195Y-125321413D01*
X142652315Y-125320757D01*
X142652317Y-125320757D01*
X142863646Y-125293685D01*
X142863647Y-125293685D01*
X142868774Y-125293028D01*
X142873724Y-125291543D01*
X143076043Y-125230844D01*
X143147039Y-125230428D01*
X143206989Y-125268460D01*
X143236861Y-125332866D01*
X143237538Y-125364916D01*
X143229902Y-125436364D01*
X143229228Y-125442679D01*
X143224156Y-125490135D01*
X143224453Y-125495287D01*
X143224453Y-125495291D01*
X143231929Y-125624940D01*
X143237015Y-125713155D01*
X143238152Y-125718201D01*
X143238153Y-125718207D01*
X143262209Y-125824948D01*
X143286127Y-125931079D01*
X143370171Y-126138056D01*
X143486892Y-126328528D01*
X143633155Y-126497378D01*
X143805031Y-126640072D01*
X143997905Y-126752778D01*
X144206597Y-126832470D01*
X144211665Y-126833501D01*
X144211668Y-126833502D01*
X144318917Y-126855322D01*
X144425502Y-126877007D01*
X144430677Y-126877197D01*
X144430679Y-126877197D01*
X144643578Y-126885004D01*
X144643582Y-126885004D01*
X144648742Y-126885193D01*
X144653862Y-126884537D01*
X144653864Y-126884537D01*
X144865193Y-126857465D01*
X144865194Y-126857465D01*
X144870321Y-126856808D01*
X144875272Y-126855323D01*
X144875275Y-126855322D01*
X145077592Y-126794624D01*
X145148587Y-126794208D01*
X145208537Y-126832240D01*
X145238409Y-126896646D01*
X145239086Y-126928696D01*
X145233208Y-126983700D01*
X145228298Y-127029645D01*
X145225704Y-127053915D01*
X145226001Y-127059067D01*
X145226001Y-127059071D01*
X145226673Y-127070723D01*
X145238563Y-127276935D01*
X145239700Y-127281981D01*
X145239701Y-127281987D01*
X145262170Y-127381686D01*
X145287675Y-127494859D01*
X145371719Y-127701836D01*
X145423395Y-127786164D01*
X145446229Y-127823425D01*
X145488440Y-127892308D01*
X145634703Y-128061158D01*
X145806579Y-128203852D01*
X145999453Y-128316558D01*
X146208145Y-128396250D01*
X146213213Y-128397281D01*
X146213216Y-128397282D01*
X146320832Y-128419177D01*
X146427050Y-128440787D01*
X146432225Y-128440977D01*
X146432227Y-128440977D01*
X146645126Y-128448784D01*
X146645130Y-128448784D01*
X146650290Y-128448973D01*
X146791681Y-128430860D01*
X146861790Y-128442044D01*
X146914724Y-128489357D01*
X146933675Y-128557778D01*
X146927891Y-128593623D01*
X146889902Y-128714477D01*
X146886979Y-128860105D01*
X146925046Y-129000700D01*
X147001043Y-129124960D01*
X147006706Y-129130467D01*
X147043437Y-129166186D01*
X147043442Y-129166191D01*
X147045885Y-129168566D01*
X147048574Y-129170667D01*
X147048581Y-129170673D01*
X148390843Y-130219363D01*
X148461363Y-130274459D01*
X148514522Y-130307419D01*
X148522054Y-130309787D01*
X148522057Y-130309788D01*
X148644915Y-130348407D01*
X148644917Y-130348407D01*
X148653477Y-130351098D01*
X148705674Y-130352146D01*
X148790131Y-130353841D01*
X148790132Y-130353841D01*
X148799105Y-130354021D01*
X148939700Y-130315954D01*
X149063960Y-130239957D01*
X149080265Y-130223190D01*
X149105186Y-130197563D01*
X149105191Y-130197558D01*
X149107566Y-130195115D01*
X149109667Y-130192426D01*
X149109673Y-130192419D01*
X150211355Y-128782330D01*
X150213459Y-128779637D01*
X150246419Y-128726478D01*
X150250192Y-128714477D01*
X150287407Y-128596085D01*
X150287407Y-128596083D01*
X150290098Y-128587523D01*
X150293021Y-128441895D01*
X150254954Y-128301300D01*
X150178957Y-128177040D01*
X150164003Y-128162498D01*
X150136563Y-128135814D01*
X150136558Y-128135809D01*
X150134115Y-128133434D01*
X150131426Y-128131333D01*
X150131419Y-128131327D01*
X148721330Y-127029645D01*
X148718637Y-127027541D01*
X148665478Y-126994581D01*
X148657946Y-126992213D01*
X148657943Y-126992212D01*
X148535085Y-126953593D01*
X148535083Y-126953593D01*
X148526523Y-126950902D01*
X148474326Y-126949854D01*
X148389869Y-126948159D01*
X148389868Y-126948159D01*
X148380895Y-126947979D01*
X148240300Y-126986046D01*
X148172453Y-127027541D01*
X148132062Y-127052244D01*
X148063512Y-127070723D01*
X147995854Y-127049207D01*
X147950569Y-126994528D01*
X147940745Y-126955078D01*
X147935941Y-126896646D01*
X147933305Y-126864581D01*
X147878884Y-126647922D01*
X147789807Y-126443060D01*
X147668467Y-126255497D01*
X147518123Y-126090271D01*
X147514072Y-126087072D01*
X147514068Y-126087068D01*
X147346867Y-125955020D01*
X147346863Y-125955018D01*
X147342812Y-125951818D01*
X147313526Y-125935651D01*
X147287545Y-125921309D01*
X147147242Y-125843858D01*
X147142373Y-125842134D01*
X147142369Y-125842132D01*
X146941540Y-125771015D01*
X146941536Y-125771014D01*
X146936665Y-125769289D01*
X146931572Y-125768382D01*
X146931569Y-125768381D01*
X146721826Y-125731020D01*
X146721820Y-125731019D01*
X146716737Y-125730114D01*
X146642905Y-125729212D01*
X146498534Y-125727448D01*
X146498532Y-125727448D01*
X146493364Y-125727385D01*
X146272544Y-125761175D01*
X146180518Y-125791254D01*
X146100498Y-125817408D01*
X146029534Y-125819559D01*
X145968672Y-125783003D01*
X145937236Y-125719345D01*
X145936431Y-125681196D01*
X145936717Y-125679028D01*
X145948434Y-125590030D01*
X145949881Y-125530811D01*
X145949979Y-125526805D01*
X145949979Y-125526800D01*
X145950061Y-125523440D01*
X145931757Y-125300801D01*
X145877336Y-125084142D01*
X145788259Y-124879280D01*
X145721915Y-124776728D01*
X145669727Y-124696057D01*
X145669725Y-124696054D01*
X145666919Y-124691717D01*
X145516575Y-124526491D01*
X145512524Y-124523292D01*
X145512520Y-124523288D01*
X145345319Y-124391240D01*
X145345315Y-124391238D01*
X145341264Y-124388038D01*
X145335352Y-124384774D01*
X145265677Y-124346312D01*
X145145694Y-124280078D01*
X145140825Y-124278354D01*
X145140821Y-124278352D01*
X144939992Y-124207235D01*
X144939988Y-124207234D01*
X144935117Y-124205509D01*
X144930024Y-124204602D01*
X144930021Y-124204601D01*
X144720278Y-124167240D01*
X144720272Y-124167239D01*
X144715189Y-124166334D01*
X144641357Y-124165432D01*
X144496986Y-124163668D01*
X144496984Y-124163668D01*
X144491816Y-124163605D01*
X144270996Y-124197395D01*
X144137146Y-124241144D01*
X144098951Y-124253628D01*
X144027987Y-124255779D01*
X143967125Y-124219223D01*
X143935689Y-124155565D01*
X143934884Y-124117416D01*
X143935189Y-124115106D01*
X143946887Y-124026250D01*
X143947278Y-124010250D01*
X143948432Y-123963025D01*
X143948432Y-123963021D01*
X143948514Y-123959660D01*
X143930210Y-123737021D01*
X143875789Y-123520362D01*
X143786712Y-123315500D01*
X143695375Y-123174314D01*
X143668180Y-123132277D01*
X143668178Y-123132274D01*
X143665372Y-123127937D01*
X143515028Y-122962711D01*
X143510977Y-122959512D01*
X143510973Y-122959508D01*
X143343772Y-122827460D01*
X143343768Y-122827458D01*
X143339717Y-122824258D01*
X143304203Y-122804653D01*
X143257067Y-122778633D01*
X143144147Y-122716298D01*
X143139278Y-122714574D01*
X143139274Y-122714572D01*
X142938445Y-122643455D01*
X142938441Y-122643454D01*
X142933570Y-122641729D01*
X142928477Y-122640822D01*
X142928474Y-122640821D01*
X142718731Y-122603460D01*
X142718725Y-122603459D01*
X142713642Y-122602554D01*
X142639810Y-122601652D01*
X142495439Y-122599888D01*
X142495437Y-122599888D01*
X142490269Y-122599825D01*
X142269449Y-122633615D01*
X142057114Y-122703017D01*
X142026801Y-122718797D01*
X141888781Y-122790646D01*
X141858965Y-122806167D01*
X141854832Y-122809270D01*
X141854829Y-122809272D01*
X141684458Y-122937190D01*
X141680323Y-122940295D01*
X141676751Y-122944033D01*
X141604469Y-123019672D01*
X141525987Y-123101798D01*
X141523073Y-123106070D01*
X141523072Y-123106071D01*
X141445732Y-123219448D01*
X141400101Y-123286340D01*
X141365005Y-123361949D01*
X141320852Y-123457069D01*
X141306046Y-123488965D01*
X141246347Y-123704230D01*
X141222609Y-123926355D01*
X139336765Y-123926355D01*
X138834778Y-123355961D01*
X138832072Y-123352781D01*
X138818956Y-123336841D01*
X138650626Y-123132277D01*
X138107998Y-122472844D01*
X138105397Y-122469574D01*
X137410896Y-121566116D01*
X137408405Y-121562762D01*
X136744229Y-120636760D01*
X136741851Y-120633325D01*
X136108753Y-119685827D01*
X136106490Y-119682315D01*
X135505162Y-118714360D01*
X135503016Y-118710775D01*
X135397001Y-118526781D01*
X134934085Y-117723368D01*
X134932071Y-117719735D01*
X134927631Y-117711401D01*
X134396206Y-116714036D01*
X134394303Y-116710317D01*
X133892082Y-115687416D01*
X133890303Y-115683636D01*
X133801448Y-115486385D01*
X133422255Y-114644609D01*
X133420613Y-114640796D01*
X133390301Y-114567069D01*
X133146824Y-113974884D01*
X141113275Y-113974884D01*
X141113663Y-113979814D01*
X141113663Y-113979817D01*
X141114220Y-113986892D01*
X141131905Y-114211595D01*
X141133059Y-114216402D01*
X141133060Y-114216408D01*
X141145133Y-114266693D01*
X141187335Y-114442478D01*
X141189228Y-114447049D01*
X141189229Y-114447051D01*
X141271314Y-114645222D01*
X141278200Y-114661847D01*
X141280786Y-114666067D01*
X141399681Y-114860086D01*
X141399685Y-114860092D01*
X141402264Y-114864300D01*
X141556471Y-115044853D01*
X141737024Y-115199060D01*
X141741232Y-115201639D01*
X141741238Y-115201643D01*
X141859841Y-115274323D01*
X141939477Y-115323124D01*
X141944047Y-115325017D01*
X141944051Y-115325019D01*
X142154273Y-115412095D01*
X142158846Y-115413989D01*
X142221626Y-115429061D01*
X142384916Y-115468264D01*
X142384922Y-115468265D01*
X142389729Y-115469419D01*
X142626440Y-115488049D01*
X142863151Y-115469419D01*
X142867958Y-115468265D01*
X142867964Y-115468264D01*
X143031254Y-115429061D01*
X143094034Y-115413989D01*
X143098607Y-115412095D01*
X143308829Y-115325019D01*
X143308833Y-115325017D01*
X143313403Y-115323124D01*
X143393039Y-115274323D01*
X143511642Y-115201643D01*
X143511648Y-115201639D01*
X143515856Y-115199060D01*
X143696409Y-115044853D01*
X143850616Y-114864300D01*
X143853195Y-114860092D01*
X143853199Y-114860086D01*
X143972094Y-114666067D01*
X143974680Y-114661847D01*
X143981567Y-114645222D01*
X144063651Y-114447051D01*
X144063652Y-114447049D01*
X144065545Y-114442478D01*
X144107747Y-114266693D01*
X144119820Y-114216408D01*
X144119821Y-114216402D01*
X144120975Y-114211595D01*
X144139605Y-113974884D01*
X144120975Y-113738173D01*
X144118458Y-113727685D01*
X144066700Y-113512102D01*
X144065545Y-113507290D01*
X144057526Y-113487931D01*
X143976575Y-113292495D01*
X143976573Y-113292491D01*
X143974680Y-113287921D01*
X143895014Y-113157918D01*
X143853199Y-113089682D01*
X143853195Y-113089676D01*
X143850616Y-113085468D01*
X143696409Y-112904915D01*
X143515856Y-112750708D01*
X143511648Y-112748129D01*
X143511642Y-112748125D01*
X143317623Y-112629230D01*
X143313403Y-112626644D01*
X143308833Y-112624751D01*
X143308829Y-112624749D01*
X143098607Y-112537673D01*
X143098605Y-112537672D01*
X143094034Y-112535779D01*
X143000265Y-112513267D01*
X142867964Y-112481504D01*
X142867958Y-112481503D01*
X142863151Y-112480349D01*
X142626440Y-112461719D01*
X142389729Y-112480349D01*
X142384922Y-112481503D01*
X142384916Y-112481504D01*
X142252615Y-112513267D01*
X142158846Y-112535779D01*
X142154275Y-112537672D01*
X142154273Y-112537673D01*
X141944051Y-112624749D01*
X141944047Y-112624751D01*
X141939477Y-112626644D01*
X141935257Y-112629230D01*
X141741238Y-112748125D01*
X141741232Y-112748129D01*
X141737024Y-112750708D01*
X141556471Y-112904915D01*
X141402264Y-113085468D01*
X141399685Y-113089676D01*
X141399681Y-113089682D01*
X141357866Y-113157918D01*
X141278200Y-113287921D01*
X141276307Y-113292491D01*
X141276305Y-113292495D01*
X141195354Y-113487931D01*
X141187335Y-113507290D01*
X141186180Y-113512102D01*
X141134423Y-113727685D01*
X141131905Y-113738173D01*
X141113748Y-113968879D01*
X141113275Y-113974884D01*
X133146824Y-113974884D01*
X132987269Y-113586815D01*
X132985753Y-113582946D01*
X132978637Y-113563861D01*
X132683231Y-112771653D01*
X132587616Y-112515237D01*
X132586221Y-112511299D01*
X132376468Y-111886228D01*
X132223677Y-111430906D01*
X132222421Y-111426944D01*
X131895921Y-110335198D01*
X131894790Y-110331176D01*
X131773530Y-109870600D01*
X131604640Y-109229114D01*
X131603660Y-109225118D01*
X131350224Y-108114107D01*
X131349363Y-108110024D01*
X131344777Y-108086318D01*
X131218920Y-107435811D01*
X131132897Y-106991188D01*
X131132172Y-106987073D01*
X131118414Y-106900695D01*
X134273251Y-106900695D01*
X134273548Y-106905848D01*
X134273548Y-106905851D01*
X134279011Y-107000590D01*
X134286110Y-107123715D01*
X134287247Y-107128761D01*
X134287248Y-107128767D01*
X134295778Y-107166615D01*
X134335222Y-107341639D01*
X134419266Y-107548616D01*
X134535987Y-107739088D01*
X134682250Y-107907938D01*
X134686230Y-107911242D01*
X134690981Y-107915187D01*
X134730616Y-107974090D01*
X134732113Y-108045071D01*
X134694997Y-108105593D01*
X134654724Y-108130112D01*
X134539295Y-108173385D01*
X134422739Y-108260739D01*
X134335385Y-108377295D01*
X134284255Y-108513684D01*
X134277500Y-108575866D01*
X134277500Y-110372134D01*
X134284255Y-110434316D01*
X134335385Y-110570705D01*
X134422739Y-110687261D01*
X134539295Y-110774615D01*
X134675684Y-110825745D01*
X134737866Y-110832500D01*
X136534134Y-110832500D01*
X136596316Y-110825745D01*
X136732705Y-110774615D01*
X136849261Y-110687261D01*
X136936615Y-110570705D01*
X136987745Y-110434316D01*
X136994500Y-110372134D01*
X136994500Y-108575866D01*
X136987745Y-108513684D01*
X136936615Y-108377295D01*
X136849261Y-108260739D01*
X136732705Y-108173385D01*
X136720132Y-108168672D01*
X136614203Y-108128960D01*
X136557439Y-108086318D01*
X136532739Y-108019756D01*
X136547947Y-107950408D01*
X136569493Y-107921727D01*
X136670435Y-107821137D01*
X136674096Y-107817489D01*
X136733594Y-107734689D01*
X136801435Y-107640277D01*
X136804453Y-107636077D01*
X136903430Y-107435811D01*
X136968370Y-107222069D01*
X136997529Y-107000590D01*
X136997759Y-106991188D01*
X136999074Y-106937365D01*
X136999074Y-106937361D01*
X136999156Y-106934000D01*
X136980852Y-106711361D01*
X136926431Y-106494702D01*
X136837354Y-106289840D01*
X136765031Y-106178046D01*
X136718822Y-106106617D01*
X136718820Y-106106614D01*
X136716014Y-106102277D01*
X136565670Y-105937051D01*
X136561619Y-105933852D01*
X136561615Y-105933848D01*
X136394414Y-105801800D01*
X136394410Y-105801798D01*
X136390359Y-105798598D01*
X136349053Y-105775796D01*
X136299084Y-105725364D01*
X136284312Y-105655921D01*
X136309428Y-105589516D01*
X136336780Y-105562909D01*
X136391334Y-105523996D01*
X136515860Y-105435173D01*
X136567576Y-105383638D01*
X136670435Y-105281137D01*
X136674096Y-105277489D01*
X136733594Y-105194689D01*
X136801435Y-105100277D01*
X136804453Y-105096077D01*
X136869669Y-104964123D01*
X136901136Y-104900453D01*
X136901137Y-104900451D01*
X136903430Y-104895811D01*
X136955379Y-104724828D01*
X136966865Y-104687023D01*
X136966865Y-104687021D01*
X136968370Y-104682069D01*
X136997529Y-104460590D01*
X136999156Y-104394000D01*
X136980852Y-104171361D01*
X136926431Y-103954702D01*
X136837354Y-103749840D01*
X136732655Y-103588000D01*
X136718822Y-103566617D01*
X136718820Y-103566614D01*
X136716014Y-103562277D01*
X136565670Y-103397051D01*
X136561619Y-103393852D01*
X136561615Y-103393848D01*
X136394414Y-103261800D01*
X136394410Y-103261798D01*
X136390359Y-103258598D01*
X136349053Y-103235796D01*
X136299084Y-103185364D01*
X136284312Y-103115921D01*
X136309428Y-103049516D01*
X136336780Y-103022909D01*
X136380603Y-102991650D01*
X136515860Y-102895173D01*
X136674096Y-102737489D01*
X136733594Y-102654689D01*
X136801435Y-102560277D01*
X136804453Y-102556077D01*
X136903430Y-102355811D01*
X136968370Y-102142069D01*
X136997529Y-101920590D01*
X136999156Y-101854000D01*
X136980852Y-101631361D01*
X136926431Y-101414702D01*
X136837354Y-101209840D01*
X136716014Y-101022277D01*
X136565670Y-100857051D01*
X136561619Y-100853852D01*
X136561615Y-100853848D01*
X136394414Y-100721800D01*
X136394410Y-100721798D01*
X136390359Y-100718598D01*
X136349053Y-100695796D01*
X136299084Y-100645364D01*
X136284312Y-100575921D01*
X136309428Y-100509516D01*
X136336780Y-100482909D01*
X136380603Y-100451650D01*
X136515860Y-100355173D01*
X136674096Y-100197489D01*
X136733594Y-100114689D01*
X136801435Y-100020277D01*
X136804453Y-100016077D01*
X136903430Y-99815811D01*
X136968370Y-99602069D01*
X136997529Y-99380590D01*
X136999156Y-99314000D01*
X136980852Y-99091361D01*
X136926431Y-98874702D01*
X136837354Y-98669840D01*
X136790056Y-98596728D01*
X136718822Y-98486617D01*
X136718820Y-98486614D01*
X136716014Y-98482277D01*
X136565670Y-98317051D01*
X136561619Y-98313852D01*
X136561615Y-98313848D01*
X136394414Y-98181800D01*
X136394410Y-98181798D01*
X136390359Y-98178598D01*
X136349053Y-98155796D01*
X136299084Y-98105364D01*
X136284312Y-98035921D01*
X136309428Y-97969516D01*
X136336780Y-97942909D01*
X136380603Y-97911650D01*
X136515860Y-97815173D01*
X136674096Y-97657489D01*
X136733594Y-97574689D01*
X136801435Y-97480277D01*
X136804453Y-97476077D01*
X136808711Y-97467463D01*
X136901136Y-97280453D01*
X136901137Y-97280451D01*
X136903430Y-97275811D01*
X136946649Y-97133562D01*
X136951304Y-97118240D01*
X142925063Y-97118240D01*
X142942763Y-97298760D01*
X143000018Y-97470873D01*
X143003665Y-97476895D01*
X143003666Y-97476897D01*
X143079623Y-97602317D01*
X143093980Y-97626024D01*
X143098869Y-97631087D01*
X143098870Y-97631088D01*
X143127888Y-97661137D01*
X143219982Y-97756502D01*
X143371759Y-97855822D01*
X143378363Y-97858278D01*
X143378365Y-97858279D01*
X143535158Y-97916590D01*
X143535160Y-97916590D01*
X143541768Y-97919048D01*
X143625595Y-97930233D01*
X143714580Y-97942107D01*
X143714584Y-97942107D01*
X143721561Y-97943038D01*
X143728572Y-97942400D01*
X143728576Y-97942400D01*
X143871059Y-97929432D01*
X143902200Y-97926598D01*
X143908902Y-97924420D01*
X143908904Y-97924420D01*
X144068009Y-97872724D01*
X144068012Y-97872723D01*
X144074708Y-97870547D01*
X144230512Y-97777669D01*
X144361866Y-97652582D01*
X144462243Y-97501502D01*
X144516091Y-97359748D01*
X144524155Y-97338520D01*
X144524156Y-97338518D01*
X144526655Y-97331938D01*
X144528690Y-97317457D01*
X144551348Y-97156239D01*
X144551348Y-97156236D01*
X144551899Y-97152317D01*
X144552216Y-97129600D01*
X144531997Y-96949345D01*
X144529680Y-96942691D01*
X144474664Y-96784706D01*
X144474662Y-96784703D01*
X144472345Y-96778048D01*
X144452226Y-96745851D01*
X144379959Y-96630198D01*
X144376226Y-96624224D01*
X144367435Y-96615371D01*
X144253378Y-96500515D01*
X144253374Y-96500512D01*
X144248415Y-96495518D01*
X144237297Y-96488462D01*
X144118136Y-96412841D01*
X144095266Y-96398327D01*
X144047797Y-96381424D01*
X143931025Y-96339843D01*
X143931020Y-96339842D01*
X143924390Y-96337481D01*
X143917402Y-96336648D01*
X143917399Y-96336647D01*
X143794298Y-96321968D01*
X143744280Y-96316004D01*
X143737277Y-96316740D01*
X143737276Y-96316740D01*
X143570888Y-96334228D01*
X143570886Y-96334229D01*
X143563888Y-96334964D01*
X143392179Y-96393418D01*
X143368506Y-96407982D01*
X143243695Y-96484766D01*
X143243692Y-96484768D01*
X143237688Y-96488462D01*
X143232653Y-96493393D01*
X143232650Y-96493395D01*
X143149168Y-96575147D01*
X143108093Y-96615371D01*
X143009835Y-96767838D01*
X143007426Y-96774458D01*
X143007424Y-96774461D01*
X142961398Y-96900916D01*
X142947797Y-96938285D01*
X142925063Y-97118240D01*
X136951304Y-97118240D01*
X136966865Y-97067023D01*
X136966865Y-97067021D01*
X136968370Y-97062069D01*
X136997529Y-96840590D01*
X136997925Y-96824390D01*
X136999074Y-96777365D01*
X136999074Y-96777361D01*
X136999156Y-96774000D01*
X136980852Y-96551361D01*
X136926431Y-96334702D01*
X136837354Y-96129840D01*
X136765678Y-96019046D01*
X136718822Y-95946617D01*
X136718820Y-95946614D01*
X136716014Y-95942277D01*
X136653559Y-95873640D01*
X145871463Y-95873640D01*
X145889163Y-96054160D01*
X145946418Y-96226273D01*
X145950065Y-96232295D01*
X145950066Y-96232297D01*
X146034667Y-96371990D01*
X146040380Y-96381424D01*
X146045269Y-96386487D01*
X146045270Y-96386488D01*
X146114376Y-96458049D01*
X146166382Y-96511902D01*
X146204242Y-96536677D01*
X146263031Y-96575147D01*
X146318159Y-96611222D01*
X146324763Y-96613678D01*
X146324765Y-96613679D01*
X146481558Y-96671990D01*
X146481560Y-96671990D01*
X146488168Y-96674448D01*
X146570765Y-96685469D01*
X146660980Y-96697507D01*
X146660984Y-96697507D01*
X146667961Y-96698438D01*
X146674972Y-96697800D01*
X146674976Y-96697800D01*
X146817459Y-96684832D01*
X146848600Y-96681998D01*
X146855302Y-96679820D01*
X146855304Y-96679820D01*
X147014409Y-96628124D01*
X147014412Y-96628123D01*
X147021108Y-96625947D01*
X147140943Y-96554511D01*
X147170860Y-96536677D01*
X147170862Y-96536676D01*
X147176912Y-96533069D01*
X147308266Y-96407982D01*
X147408643Y-96256902D01*
X147454656Y-96135773D01*
X147470555Y-96093920D01*
X147470556Y-96093918D01*
X147473055Y-96087338D01*
X147474035Y-96080366D01*
X147497748Y-95911639D01*
X147497748Y-95911636D01*
X147498299Y-95907717D01*
X147498616Y-95885000D01*
X147491644Y-95822840D01*
X147878063Y-95822840D01*
X147895763Y-96003360D01*
X147953018Y-96175473D01*
X147956665Y-96181495D01*
X147956666Y-96181497D01*
X148038572Y-96316740D01*
X148046980Y-96330624D01*
X148051869Y-96335687D01*
X148051870Y-96335688D01*
X148116010Y-96402106D01*
X148172982Y-96461102D01*
X148234142Y-96501124D01*
X148317447Y-96555637D01*
X148324759Y-96560422D01*
X148331363Y-96562878D01*
X148331365Y-96562879D01*
X148488158Y-96621190D01*
X148488160Y-96621190D01*
X148494768Y-96623648D01*
X148578595Y-96634833D01*
X148667580Y-96646707D01*
X148667584Y-96646707D01*
X148674561Y-96647638D01*
X148681572Y-96647000D01*
X148681576Y-96647000D01*
X148824059Y-96634032D01*
X148855200Y-96631198D01*
X148861902Y-96629020D01*
X148861904Y-96629020D01*
X149021009Y-96577324D01*
X149021012Y-96577323D01*
X149027708Y-96575147D01*
X149152904Y-96500515D01*
X149177460Y-96485877D01*
X149177462Y-96485876D01*
X149183512Y-96482269D01*
X149314866Y-96357182D01*
X149415243Y-96206102D01*
X149470698Y-96060117D01*
X149477155Y-96043120D01*
X149477156Y-96043118D01*
X149479655Y-96036538D01*
X149480635Y-96029566D01*
X149481131Y-96026040D01*
X151840463Y-96026040D01*
X151858163Y-96206560D01*
X151915418Y-96378673D01*
X151919065Y-96384695D01*
X151919066Y-96384697D01*
X151997125Y-96513588D01*
X152009380Y-96533824D01*
X152014269Y-96538887D01*
X152014270Y-96538888D01*
X152045802Y-96571540D01*
X152135382Y-96664302D01*
X152287159Y-96763622D01*
X152293763Y-96766078D01*
X152293765Y-96766079D01*
X152450558Y-96824390D01*
X152450560Y-96824390D01*
X152457168Y-96826848D01*
X152535051Y-96837240D01*
X152629980Y-96849907D01*
X152629984Y-96849907D01*
X152636961Y-96850838D01*
X152643972Y-96850200D01*
X152643976Y-96850200D01*
X152786459Y-96837232D01*
X152817600Y-96834398D01*
X152824302Y-96832220D01*
X152824304Y-96832220D01*
X152983409Y-96780524D01*
X152983412Y-96780523D01*
X152990108Y-96778347D01*
X153086513Y-96720878D01*
X153139860Y-96689077D01*
X153139862Y-96689076D01*
X153145912Y-96685469D01*
X153277266Y-96560382D01*
X153377643Y-96409302D01*
X153434553Y-96259488D01*
X153439555Y-96246320D01*
X153439556Y-96246318D01*
X153442055Y-96239738D01*
X153443784Y-96227434D01*
X153466748Y-96064039D01*
X153466748Y-96064036D01*
X153467299Y-96060117D01*
X153467616Y-96037400D01*
X153447397Y-95857145D01*
X153444492Y-95848803D01*
X153390064Y-95692506D01*
X153390062Y-95692503D01*
X153387745Y-95685848D01*
X153330503Y-95594240D01*
X158647663Y-95594240D01*
X158665363Y-95774760D01*
X158722618Y-95946873D01*
X158726265Y-95952895D01*
X158726266Y-95952897D01*
X158803464Y-96080366D01*
X158816580Y-96102024D01*
X158821469Y-96107087D01*
X158821470Y-96107088D01*
X158845434Y-96131903D01*
X158942582Y-96232502D01*
X158979869Y-96256902D01*
X159070187Y-96316004D01*
X159094359Y-96331822D01*
X159100963Y-96334278D01*
X159100965Y-96334279D01*
X159257758Y-96392590D01*
X159257760Y-96392590D01*
X159264368Y-96395048D01*
X159346965Y-96406069D01*
X159437180Y-96418107D01*
X159437184Y-96418107D01*
X159444161Y-96419038D01*
X159451172Y-96418400D01*
X159451176Y-96418400D01*
X159593659Y-96405432D01*
X159624800Y-96402598D01*
X159631502Y-96400420D01*
X159631504Y-96400420D01*
X159790609Y-96348724D01*
X159790612Y-96348723D01*
X159797308Y-96346547D01*
X159953112Y-96253669D01*
X160084466Y-96128582D01*
X160184843Y-95977502D01*
X160232154Y-95852957D01*
X160246755Y-95814520D01*
X160246756Y-95814518D01*
X160249255Y-95807938D01*
X160250235Y-95800966D01*
X160273948Y-95632239D01*
X160273948Y-95632236D01*
X160274499Y-95628317D01*
X160274816Y-95605600D01*
X160254597Y-95425345D01*
X160251632Y-95416831D01*
X160197264Y-95260706D01*
X160197262Y-95260703D01*
X160194945Y-95254048D01*
X160098826Y-95100224D01*
X160071035Y-95072238D01*
X159975978Y-94976515D01*
X159975974Y-94976512D01*
X159971015Y-94971518D01*
X159959897Y-94964462D01*
X159897624Y-94924943D01*
X159817866Y-94874327D01*
X159758161Y-94853067D01*
X159653625Y-94815843D01*
X159653620Y-94815842D01*
X159646990Y-94813481D01*
X159640002Y-94812648D01*
X159639999Y-94812647D01*
X159516898Y-94797968D01*
X159466880Y-94792004D01*
X159459877Y-94792740D01*
X159459876Y-94792740D01*
X159293488Y-94810228D01*
X159293486Y-94810229D01*
X159286488Y-94810964D01*
X159114779Y-94869418D01*
X159108775Y-94873112D01*
X158966295Y-94960766D01*
X158966292Y-94960768D01*
X158960288Y-94964462D01*
X158955253Y-94969393D01*
X158955250Y-94969395D01*
X158850331Y-95072140D01*
X158830693Y-95091371D01*
X158732435Y-95243838D01*
X158730026Y-95250458D01*
X158730024Y-95250461D01*
X158675161Y-95401195D01*
X158670397Y-95414285D01*
X158647663Y-95594240D01*
X153330503Y-95594240D01*
X153291626Y-95532024D01*
X153282835Y-95523171D01*
X153168778Y-95408315D01*
X153168774Y-95408312D01*
X153163815Y-95403318D01*
X153152697Y-95396262D01*
X153055844Y-95334798D01*
X153010666Y-95306127D01*
X152981463Y-95295728D01*
X152846425Y-95247643D01*
X152846420Y-95247642D01*
X152839790Y-95245281D01*
X152832802Y-95244448D01*
X152832799Y-95244447D01*
X152709698Y-95229768D01*
X152659680Y-95223804D01*
X152652677Y-95224540D01*
X152652676Y-95224540D01*
X152486288Y-95242028D01*
X152486286Y-95242029D01*
X152479288Y-95242764D01*
X152307579Y-95301218D01*
X152294793Y-95309084D01*
X152159095Y-95392566D01*
X152159092Y-95392568D01*
X152153088Y-95396262D01*
X152148053Y-95401193D01*
X152148050Y-95401195D01*
X152031071Y-95515750D01*
X152023493Y-95523171D01*
X151925235Y-95675638D01*
X151922826Y-95682258D01*
X151922824Y-95682261D01*
X151865798Y-95838938D01*
X151863197Y-95846085D01*
X151840463Y-96026040D01*
X149481131Y-96026040D01*
X149504348Y-95860839D01*
X149504348Y-95860836D01*
X149504899Y-95856917D01*
X149505052Y-95845938D01*
X149505161Y-95838162D01*
X149505161Y-95838157D01*
X149505216Y-95834200D01*
X149484997Y-95653945D01*
X149482680Y-95647291D01*
X149427664Y-95489306D01*
X149427662Y-95489303D01*
X149425345Y-95482648D01*
X149393912Y-95432344D01*
X149332959Y-95334798D01*
X149329226Y-95328824D01*
X149310440Y-95309906D01*
X149206378Y-95205115D01*
X149206374Y-95205112D01*
X149201415Y-95200118D01*
X149190297Y-95193062D01*
X149126400Y-95152512D01*
X149048266Y-95102927D01*
X149010918Y-95089628D01*
X148884025Y-95044443D01*
X148884020Y-95044442D01*
X148877390Y-95042081D01*
X148870402Y-95041248D01*
X148870399Y-95041247D01*
X148747298Y-95026568D01*
X148697280Y-95020604D01*
X148690277Y-95021340D01*
X148690276Y-95021340D01*
X148523888Y-95038828D01*
X148523886Y-95038829D01*
X148516888Y-95039564D01*
X148345179Y-95098018D01*
X148294957Y-95128915D01*
X148196695Y-95189366D01*
X148196692Y-95189368D01*
X148190688Y-95193062D01*
X148185653Y-95197993D01*
X148185650Y-95197995D01*
X148075230Y-95306127D01*
X148061093Y-95319971D01*
X147962835Y-95472438D01*
X147960426Y-95479058D01*
X147960424Y-95479061D01*
X147908942Y-95620507D01*
X147900797Y-95642885D01*
X147878063Y-95822840D01*
X147491644Y-95822840D01*
X147478397Y-95704745D01*
X147476080Y-95698091D01*
X147421064Y-95540106D01*
X147421062Y-95540103D01*
X147418745Y-95533448D01*
X147335073Y-95399543D01*
X147326359Y-95385598D01*
X147322626Y-95379624D01*
X147308941Y-95365843D01*
X147199778Y-95255915D01*
X147199774Y-95255912D01*
X147194815Y-95250918D01*
X147185933Y-95245281D01*
X147097824Y-95189366D01*
X147041666Y-95153727D01*
X146971986Y-95128915D01*
X146877425Y-95095243D01*
X146877420Y-95095242D01*
X146870790Y-95092881D01*
X146863802Y-95092048D01*
X146863799Y-95092047D01*
X146740698Y-95077368D01*
X146690680Y-95071404D01*
X146683677Y-95072140D01*
X146683676Y-95072140D01*
X146517288Y-95089628D01*
X146517286Y-95089629D01*
X146510288Y-95090364D01*
X146338579Y-95148818D01*
X146332575Y-95152512D01*
X146190095Y-95240166D01*
X146190092Y-95240168D01*
X146184088Y-95243862D01*
X146179053Y-95248793D01*
X146179050Y-95248795D01*
X146091227Y-95334798D01*
X146054493Y-95370771D01*
X145956235Y-95523238D01*
X145953826Y-95529858D01*
X145953824Y-95529861D01*
X145898355Y-95682261D01*
X145894197Y-95693685D01*
X145871463Y-95873640D01*
X136653559Y-95873640D01*
X136565670Y-95777051D01*
X136561619Y-95773852D01*
X136561615Y-95773848D01*
X136394414Y-95641800D01*
X136394410Y-95641798D01*
X136390359Y-95638598D01*
X136364562Y-95624357D01*
X136310004Y-95594240D01*
X136194789Y-95530638D01*
X136189920Y-95528914D01*
X136189916Y-95528912D01*
X135989087Y-95457795D01*
X135989083Y-95457794D01*
X135984212Y-95456069D01*
X135979119Y-95455162D01*
X135979116Y-95455161D01*
X135769373Y-95417800D01*
X135769367Y-95417799D01*
X135764284Y-95416894D01*
X135690452Y-95415992D01*
X135546081Y-95414228D01*
X135546079Y-95414228D01*
X135540911Y-95414165D01*
X135320091Y-95447955D01*
X135107756Y-95517357D01*
X135079581Y-95532024D01*
X134946594Y-95601253D01*
X134909607Y-95620507D01*
X134905474Y-95623610D01*
X134905471Y-95623612D01*
X134735100Y-95751530D01*
X134730965Y-95754635D01*
X134686690Y-95800966D01*
X134588461Y-95903757D01*
X134576629Y-95916138D01*
X134450743Y-96100680D01*
X134432287Y-96140441D01*
X134381286Y-96250314D01*
X134356688Y-96303305D01*
X134296989Y-96518570D01*
X134296440Y-96523707D01*
X134295959Y-96528211D01*
X134273251Y-96740695D01*
X134273548Y-96745848D01*
X134273548Y-96745851D01*
X134284262Y-96931666D01*
X134286110Y-96963715D01*
X134287247Y-96968761D01*
X134287248Y-96968767D01*
X134307119Y-97056939D01*
X134335222Y-97181639D01*
X134419266Y-97388616D01*
X134423643Y-97395759D01*
X134532919Y-97574081D01*
X134535987Y-97579088D01*
X134682250Y-97747938D01*
X134854126Y-97890632D01*
X134915675Y-97926598D01*
X134927445Y-97933476D01*
X134976169Y-97985114D01*
X134989240Y-98054897D01*
X134962509Y-98120669D01*
X134922055Y-98154027D01*
X134909607Y-98160507D01*
X134905474Y-98163610D01*
X134905471Y-98163612D01*
X134881247Y-98181800D01*
X134730965Y-98294635D01*
X134576629Y-98456138D01*
X134450743Y-98640680D01*
X134356688Y-98843305D01*
X134296989Y-99058570D01*
X134273251Y-99280695D01*
X134273548Y-99285848D01*
X134273548Y-99285851D01*
X134279011Y-99380590D01*
X134286110Y-99503715D01*
X134287247Y-99508761D01*
X134287248Y-99508767D01*
X134307119Y-99596939D01*
X134335222Y-99721639D01*
X134419266Y-99928616D01*
X134535987Y-100119088D01*
X134682250Y-100287938D01*
X134854126Y-100430632D01*
X134924595Y-100471811D01*
X134927445Y-100473476D01*
X134976169Y-100525114D01*
X134989240Y-100594897D01*
X134962509Y-100660669D01*
X134922055Y-100694027D01*
X134909607Y-100700507D01*
X134905474Y-100703610D01*
X134905471Y-100703612D01*
X134881247Y-100721800D01*
X134730965Y-100834635D01*
X134576629Y-100996138D01*
X134450743Y-101180680D01*
X134410372Y-101267653D01*
X134368203Y-101358499D01*
X134356688Y-101383305D01*
X134296989Y-101598570D01*
X134273251Y-101820695D01*
X134273548Y-101825848D01*
X134273548Y-101825851D01*
X134279011Y-101920590D01*
X134286110Y-102043715D01*
X134287247Y-102048761D01*
X134287248Y-102048767D01*
X134307119Y-102136939D01*
X134335222Y-102261639D01*
X134373461Y-102355811D01*
X134410168Y-102446209D01*
X134419266Y-102468616D01*
X134535987Y-102659088D01*
X134682250Y-102827938D01*
X134854126Y-102970632D01*
X134924595Y-103011811D01*
X134927445Y-103013476D01*
X134976169Y-103065114D01*
X134989240Y-103134897D01*
X134962509Y-103200669D01*
X134922055Y-103234027D01*
X134909607Y-103240507D01*
X134905474Y-103243610D01*
X134905471Y-103243612D01*
X134881247Y-103261800D01*
X134730965Y-103374635D01*
X134576629Y-103536138D01*
X134450743Y-103720680D01*
X134435003Y-103754590D01*
X134363009Y-103909688D01*
X134356688Y-103923305D01*
X134296989Y-104138570D01*
X134273251Y-104360695D01*
X134273548Y-104365848D01*
X134273548Y-104365851D01*
X134279011Y-104460590D01*
X134286110Y-104583715D01*
X134287247Y-104588761D01*
X134287248Y-104588767D01*
X134307119Y-104676939D01*
X134335222Y-104801639D01*
X134419266Y-105008616D01*
X134535987Y-105199088D01*
X134682250Y-105367938D01*
X134854126Y-105510632D01*
X134901064Y-105538060D01*
X134927445Y-105553476D01*
X134976169Y-105605114D01*
X134989240Y-105674897D01*
X134962509Y-105740669D01*
X134922055Y-105774027D01*
X134909607Y-105780507D01*
X134905474Y-105783610D01*
X134905471Y-105783612D01*
X134735100Y-105911530D01*
X134730965Y-105914635D01*
X134576629Y-106076138D01*
X134573715Y-106080410D01*
X134573714Y-106080411D01*
X134527371Y-106148348D01*
X134450743Y-106260680D01*
X134436316Y-106291761D01*
X134363148Y-106449389D01*
X134356688Y-106463305D01*
X134296989Y-106678570D01*
X134273251Y-106900695D01*
X131118414Y-106900695D01*
X131017220Y-106265375D01*
X130952926Y-105861717D01*
X130952340Y-105857601D01*
X130950291Y-105841261D01*
X130810501Y-104726891D01*
X130810050Y-104722739D01*
X130797740Y-104588767D01*
X130705781Y-103587986D01*
X130705468Y-103583834D01*
X130702458Y-103532401D01*
X130638877Y-102446199D01*
X130638702Y-102442034D01*
X130636520Y-102355811D01*
X130628747Y-102048767D01*
X130609866Y-101302834D01*
X130609830Y-101298656D01*
X130618780Y-100159157D01*
X130618882Y-100154981D01*
X130665607Y-99016403D01*
X130665847Y-99012231D01*
X130750299Y-97875788D01*
X130750678Y-97871627D01*
X130872761Y-96738628D01*
X130873278Y-96734482D01*
X130880210Y-96685469D01*
X131032857Y-95606168D01*
X131033506Y-95602066D01*
X131038940Y-95571091D01*
X131230414Y-94479618D01*
X131231199Y-94475541D01*
X131231348Y-94474834D01*
X131465215Y-93360236D01*
X131466135Y-93356187D01*
X131468231Y-93347624D01*
X131564883Y-92952640D01*
X156031463Y-92952640D01*
X156049163Y-93133160D01*
X156106418Y-93305273D01*
X156110065Y-93311295D01*
X156110066Y-93311297D01*
X156195095Y-93451697D01*
X156200380Y-93460424D01*
X156205269Y-93465487D01*
X156205270Y-93465488D01*
X156211262Y-93471693D01*
X156326382Y-93590902D01*
X156478159Y-93690222D01*
X156484763Y-93692678D01*
X156484765Y-93692679D01*
X156641558Y-93750990D01*
X156641560Y-93750990D01*
X156648168Y-93753448D01*
X156731995Y-93764633D01*
X156820980Y-93776507D01*
X156820984Y-93776507D01*
X156827961Y-93777438D01*
X156834972Y-93776800D01*
X156834976Y-93776800D01*
X156977459Y-93763832D01*
X157008600Y-93760998D01*
X157015300Y-93758821D01*
X157015305Y-93758820D01*
X157172559Y-93707725D01*
X157243527Y-93705698D01*
X157304325Y-93742360D01*
X157335650Y-93806073D01*
X157337483Y-93829320D01*
X157337409Y-93834646D01*
X157336525Y-93841640D01*
X157354225Y-94022160D01*
X157411480Y-94194273D01*
X157415127Y-94200295D01*
X157415128Y-94200297D01*
X157492042Y-94327297D01*
X157505442Y-94349424D01*
X157631444Y-94479902D01*
X157783221Y-94579222D01*
X157789825Y-94581678D01*
X157789827Y-94581679D01*
X157946620Y-94639990D01*
X157946622Y-94639990D01*
X157953230Y-94642448D01*
X158037057Y-94653633D01*
X158126042Y-94665507D01*
X158126046Y-94665507D01*
X158133023Y-94666438D01*
X158140034Y-94665800D01*
X158140038Y-94665800D01*
X158282521Y-94652832D01*
X158313662Y-94649998D01*
X158320364Y-94647820D01*
X158320366Y-94647820D01*
X158479471Y-94596124D01*
X158479474Y-94596123D01*
X158486170Y-94593947D01*
X158641974Y-94501069D01*
X158773328Y-94375982D01*
X158873705Y-94224902D01*
X158938117Y-94055338D01*
X158939097Y-94048366D01*
X158962810Y-93879639D01*
X158962810Y-93879636D01*
X158963361Y-93875717D01*
X158963678Y-93853000D01*
X158943459Y-93672745D01*
X158941142Y-93666091D01*
X158886126Y-93508106D01*
X158886124Y-93508103D01*
X158883807Y-93501448D01*
X158871487Y-93481732D01*
X158791421Y-93353598D01*
X158787688Y-93347624D01*
X158778987Y-93338862D01*
X158664840Y-93223915D01*
X158664836Y-93223912D01*
X158659877Y-93218918D01*
X158648759Y-93211862D01*
X158578442Y-93167238D01*
X158506728Y-93121727D01*
X158472764Y-93109633D01*
X158342487Y-93063243D01*
X158342482Y-93063242D01*
X158335852Y-93060881D01*
X158328864Y-93060048D01*
X158328861Y-93060047D01*
X158205760Y-93045368D01*
X158155742Y-93039404D01*
X158148739Y-93040140D01*
X158148738Y-93040140D01*
X157982350Y-93057628D01*
X157982348Y-93057629D01*
X157975350Y-93058364D01*
X157824747Y-93109633D01*
X157753815Y-93112651D01*
X157692511Y-93076841D01*
X157660299Y-93013572D01*
X157658843Y-92986725D01*
X157658299Y-92986717D01*
X157658561Y-92967962D01*
X157658561Y-92967957D01*
X157658616Y-92964000D01*
X157638397Y-92783745D01*
X157636080Y-92777091D01*
X157581064Y-92619106D01*
X157581062Y-92619103D01*
X157578745Y-92612448D01*
X157482626Y-92458624D01*
X157468941Y-92444843D01*
X157359778Y-92334915D01*
X157359774Y-92334912D01*
X157354815Y-92329918D01*
X157343697Y-92322862D01*
X157295538Y-92292300D01*
X157201666Y-92232727D01*
X157172463Y-92222328D01*
X157037425Y-92174243D01*
X157037420Y-92174242D01*
X157030790Y-92171881D01*
X157023802Y-92171048D01*
X157023799Y-92171047D01*
X156900698Y-92156368D01*
X156850680Y-92150404D01*
X156843677Y-92151140D01*
X156843676Y-92151140D01*
X156677288Y-92168628D01*
X156677286Y-92168629D01*
X156670288Y-92169364D01*
X156498579Y-92227818D01*
X156492575Y-92231512D01*
X156350095Y-92319166D01*
X156350092Y-92319168D01*
X156344088Y-92322862D01*
X156339053Y-92327793D01*
X156339050Y-92327795D01*
X156219525Y-92444843D01*
X156214493Y-92449771D01*
X156116235Y-92602238D01*
X156113826Y-92608858D01*
X156113824Y-92608861D01*
X156056606Y-92766066D01*
X156054197Y-92772685D01*
X156031463Y-92952640D01*
X131564883Y-92952640D01*
X131649590Y-92606469D01*
X131736985Y-92249317D01*
X131738045Y-92245275D01*
X132027796Y-91210990D01*
X132045458Y-91147942D01*
X132046650Y-91143946D01*
X132052364Y-91125879D01*
X132390265Y-90057446D01*
X132391584Y-90053502D01*
X132423069Y-89964345D01*
X132444153Y-89904640D01*
X142569463Y-89904640D01*
X142587163Y-90085160D01*
X142644418Y-90257273D01*
X142648065Y-90263295D01*
X142648066Y-90263297D01*
X142734731Y-90406398D01*
X142738380Y-90412424D01*
X142743269Y-90417487D01*
X142743270Y-90417488D01*
X142775284Y-90450639D01*
X142864382Y-90542902D01*
X142870278Y-90546760D01*
X143005123Y-90635000D01*
X143016159Y-90642222D01*
X143022763Y-90644678D01*
X143022765Y-90644679D01*
X143179558Y-90702990D01*
X143179560Y-90702990D01*
X143186168Y-90705448D01*
X143269995Y-90716633D01*
X143358980Y-90728507D01*
X143358984Y-90728507D01*
X143365961Y-90729438D01*
X143372972Y-90728800D01*
X143372976Y-90728800D01*
X143515459Y-90715832D01*
X143546600Y-90712998D01*
X143553302Y-90710820D01*
X143553304Y-90710820D01*
X143712409Y-90659124D01*
X143712412Y-90659123D01*
X143719108Y-90656947D01*
X143750281Y-90638364D01*
X143760613Y-90632205D01*
X143829368Y-90614505D01*
X143894121Y-90635000D01*
X143899260Y-90638362D01*
X143905159Y-90642222D01*
X143973350Y-90667582D01*
X144068558Y-90702990D01*
X144068560Y-90702990D01*
X144075168Y-90705448D01*
X144158995Y-90716633D01*
X144247980Y-90728507D01*
X144247984Y-90728507D01*
X144254961Y-90729438D01*
X144261972Y-90728800D01*
X144261976Y-90728800D01*
X144404459Y-90715832D01*
X144435600Y-90712998D01*
X144442302Y-90710820D01*
X144442304Y-90710820D01*
X144601409Y-90659124D01*
X144601412Y-90659123D01*
X144608108Y-90656947D01*
X144763912Y-90564069D01*
X144895266Y-90438982D01*
X144907837Y-90420062D01*
X144994230Y-90290029D01*
X145048587Y-90244358D01*
X145119007Y-90235326D01*
X145183131Y-90265799D01*
X145206954Y-90294485D01*
X145274731Y-90406398D01*
X145278380Y-90412424D01*
X145283269Y-90417487D01*
X145283270Y-90417488D01*
X145315284Y-90450639D01*
X145404382Y-90542902D01*
X145410278Y-90546760D01*
X145545123Y-90635000D01*
X145556159Y-90642222D01*
X145562763Y-90644678D01*
X145562765Y-90644679D01*
X145719558Y-90702990D01*
X145719560Y-90702990D01*
X145726168Y-90705448D01*
X145809995Y-90716633D01*
X145898980Y-90728507D01*
X145898984Y-90728507D01*
X145905961Y-90729438D01*
X145912972Y-90728800D01*
X145912976Y-90728800D01*
X146055459Y-90715832D01*
X146086600Y-90712998D01*
X146093302Y-90710820D01*
X146093304Y-90710820D01*
X146252409Y-90659124D01*
X146252412Y-90659123D01*
X146259108Y-90656947D01*
X146290281Y-90638364D01*
X146300613Y-90632205D01*
X146369368Y-90614505D01*
X146434121Y-90635000D01*
X146439260Y-90638362D01*
X146445159Y-90642222D01*
X146513350Y-90667582D01*
X146608558Y-90702990D01*
X146608560Y-90702990D01*
X146615168Y-90705448D01*
X146698995Y-90716633D01*
X146787980Y-90728507D01*
X146787984Y-90728507D01*
X146794961Y-90729438D01*
X146801972Y-90728800D01*
X146801976Y-90728800D01*
X146944459Y-90715832D01*
X146975600Y-90712998D01*
X146982302Y-90710820D01*
X146982304Y-90710820D01*
X147141409Y-90659124D01*
X147141412Y-90659123D01*
X147148108Y-90656947D01*
X147303912Y-90564069D01*
X147435266Y-90438982D01*
X147447837Y-90420062D01*
X147534230Y-90290029D01*
X147588587Y-90244358D01*
X147659007Y-90235326D01*
X147723131Y-90265799D01*
X147746954Y-90294485D01*
X147814731Y-90406398D01*
X147818380Y-90412424D01*
X147823269Y-90417487D01*
X147823270Y-90417488D01*
X147855284Y-90450639D01*
X147944382Y-90542902D01*
X147950278Y-90546760D01*
X148085123Y-90635000D01*
X148096159Y-90642222D01*
X148102763Y-90644678D01*
X148102765Y-90644679D01*
X148259558Y-90702990D01*
X148259560Y-90702990D01*
X148266168Y-90705448D01*
X148349995Y-90716633D01*
X148438980Y-90728507D01*
X148438984Y-90728507D01*
X148445961Y-90729438D01*
X148452972Y-90728800D01*
X148452976Y-90728800D01*
X148595459Y-90715832D01*
X148626600Y-90712998D01*
X148633302Y-90710820D01*
X148633304Y-90710820D01*
X148792409Y-90659124D01*
X148792412Y-90659123D01*
X148799108Y-90656947D01*
X148954912Y-90564069D01*
X149086266Y-90438982D01*
X149186643Y-90287902D01*
X149251055Y-90118338D01*
X149252035Y-90111366D01*
X149275748Y-89942639D01*
X149275748Y-89942636D01*
X149276299Y-89938717D01*
X149276616Y-89916000D01*
X149275342Y-89904640D01*
X149808463Y-89904640D01*
X149826163Y-90085160D01*
X149883418Y-90257273D01*
X149887065Y-90263295D01*
X149887066Y-90263297D01*
X149973731Y-90406398D01*
X149977380Y-90412424D01*
X149982269Y-90417487D01*
X149982270Y-90417488D01*
X150014284Y-90450639D01*
X150103382Y-90542902D01*
X150109278Y-90546760D01*
X150244123Y-90635000D01*
X150255159Y-90642222D01*
X150261763Y-90644678D01*
X150261765Y-90644679D01*
X150418558Y-90702990D01*
X150418560Y-90702990D01*
X150425168Y-90705448D01*
X150508995Y-90716633D01*
X150597980Y-90728507D01*
X150597984Y-90728507D01*
X150604961Y-90729438D01*
X150611972Y-90728800D01*
X150611976Y-90728800D01*
X150754459Y-90715832D01*
X150785600Y-90712998D01*
X150792302Y-90710820D01*
X150792304Y-90710820D01*
X150951409Y-90659124D01*
X150951412Y-90659123D01*
X150958108Y-90656947D01*
X151113912Y-90564069D01*
X151245266Y-90438982D01*
X151345643Y-90287902D01*
X151410055Y-90118338D01*
X151411035Y-90111366D01*
X151434748Y-89942639D01*
X151434748Y-89942636D01*
X151435299Y-89938717D01*
X151435616Y-89916000D01*
X151434342Y-89904640D01*
X152094463Y-89904640D01*
X152112163Y-90085160D01*
X152169418Y-90257273D01*
X152173065Y-90263295D01*
X152173066Y-90263297D01*
X152259731Y-90406398D01*
X152263380Y-90412424D01*
X152268269Y-90417487D01*
X152268270Y-90417488D01*
X152300284Y-90450639D01*
X152389382Y-90542902D01*
X152395278Y-90546760D01*
X152530123Y-90635000D01*
X152541159Y-90642222D01*
X152547763Y-90644678D01*
X152547765Y-90644679D01*
X152704558Y-90702990D01*
X152704560Y-90702990D01*
X152711168Y-90705448D01*
X152794995Y-90716633D01*
X152883980Y-90728507D01*
X152883984Y-90728507D01*
X152890961Y-90729438D01*
X152897972Y-90728800D01*
X152897976Y-90728800D01*
X153040459Y-90715832D01*
X153071600Y-90712998D01*
X153078302Y-90710820D01*
X153078304Y-90710820D01*
X153237409Y-90659124D01*
X153237412Y-90659123D01*
X153244108Y-90656947D01*
X153275281Y-90638364D01*
X153285613Y-90632205D01*
X153354368Y-90614505D01*
X153419121Y-90635000D01*
X153424260Y-90638362D01*
X153430159Y-90642222D01*
X153498350Y-90667582D01*
X153593558Y-90702990D01*
X153593560Y-90702990D01*
X153600168Y-90705448D01*
X153683995Y-90716633D01*
X153772980Y-90728507D01*
X153772984Y-90728507D01*
X153779961Y-90729438D01*
X153786972Y-90728800D01*
X153786976Y-90728800D01*
X153929459Y-90715832D01*
X153960600Y-90712998D01*
X153967302Y-90710820D01*
X153967304Y-90710820D01*
X154126409Y-90659124D01*
X154126412Y-90659123D01*
X154133108Y-90656947D01*
X154288912Y-90564069D01*
X154294018Y-90559207D01*
X154410276Y-90448496D01*
X154473401Y-90416003D01*
X154544071Y-90422796D01*
X154587805Y-90452214D01*
X154675382Y-90542902D01*
X154681278Y-90546760D01*
X154816123Y-90635000D01*
X154827159Y-90642222D01*
X154833763Y-90644678D01*
X154833765Y-90644679D01*
X154990558Y-90702990D01*
X154990560Y-90702990D01*
X154997168Y-90705448D01*
X155080995Y-90716633D01*
X155169980Y-90728507D01*
X155169984Y-90728507D01*
X155176961Y-90729438D01*
X155183972Y-90728800D01*
X155183976Y-90728800D01*
X155326459Y-90715832D01*
X155357600Y-90712998D01*
X155364302Y-90710820D01*
X155364304Y-90710820D01*
X155523409Y-90659124D01*
X155523412Y-90659123D01*
X155530108Y-90656947D01*
X155561281Y-90638364D01*
X155571613Y-90632205D01*
X155640368Y-90614505D01*
X155705121Y-90635000D01*
X155710260Y-90638362D01*
X155716159Y-90642222D01*
X155784350Y-90667582D01*
X155879558Y-90702990D01*
X155879560Y-90702990D01*
X155886168Y-90705448D01*
X155969995Y-90716633D01*
X156058980Y-90728507D01*
X156058984Y-90728507D01*
X156065961Y-90729438D01*
X156072972Y-90728800D01*
X156072976Y-90728800D01*
X156215459Y-90715832D01*
X156246600Y-90712998D01*
X156253302Y-90710820D01*
X156253304Y-90710820D01*
X156412409Y-90659124D01*
X156412412Y-90659123D01*
X156419108Y-90656947D01*
X156574912Y-90564069D01*
X156580018Y-90559207D01*
X156696276Y-90448496D01*
X156759401Y-90416003D01*
X156830071Y-90422796D01*
X156873805Y-90452214D01*
X156961382Y-90542902D01*
X156967278Y-90546760D01*
X157102123Y-90635000D01*
X157113159Y-90642222D01*
X157119763Y-90644678D01*
X157119765Y-90644679D01*
X157276558Y-90702990D01*
X157276560Y-90702990D01*
X157283168Y-90705448D01*
X157366995Y-90716633D01*
X157455980Y-90728507D01*
X157455984Y-90728507D01*
X157462961Y-90729438D01*
X157469972Y-90728800D01*
X157469976Y-90728800D01*
X157612459Y-90715832D01*
X157643600Y-90712998D01*
X157650302Y-90710820D01*
X157650304Y-90710820D01*
X157809409Y-90659124D01*
X157809412Y-90659123D01*
X157816108Y-90656947D01*
X157971912Y-90564069D01*
X158103266Y-90438982D01*
X158203643Y-90287902D01*
X158268055Y-90118338D01*
X158269035Y-90111366D01*
X158292748Y-89942639D01*
X158292748Y-89942636D01*
X158293299Y-89938717D01*
X158293616Y-89916000D01*
X158292342Y-89904640D01*
X159079463Y-89904640D01*
X159097163Y-90085160D01*
X159154418Y-90257273D01*
X159158065Y-90263295D01*
X159158066Y-90263297D01*
X159244731Y-90406398D01*
X159248380Y-90412424D01*
X159253269Y-90417487D01*
X159253270Y-90417488D01*
X159285284Y-90450639D01*
X159374382Y-90542902D01*
X159380278Y-90546760D01*
X159515123Y-90635000D01*
X159526159Y-90642222D01*
X159532763Y-90644678D01*
X159532765Y-90644679D01*
X159689558Y-90702990D01*
X159689560Y-90702990D01*
X159696168Y-90705448D01*
X159779995Y-90716633D01*
X159868980Y-90728507D01*
X159868984Y-90728507D01*
X159875961Y-90729438D01*
X159882972Y-90728800D01*
X159882976Y-90728800D01*
X160025459Y-90715832D01*
X160056600Y-90712998D01*
X160063302Y-90710820D01*
X160063304Y-90710820D01*
X160222409Y-90659124D01*
X160222412Y-90659123D01*
X160229108Y-90656947D01*
X160260281Y-90638364D01*
X160270613Y-90632205D01*
X160339368Y-90614505D01*
X160404121Y-90635000D01*
X160409260Y-90638362D01*
X160415159Y-90642222D01*
X160483350Y-90667582D01*
X160578558Y-90702990D01*
X160578560Y-90702990D01*
X160585168Y-90705448D01*
X160668995Y-90716633D01*
X160757980Y-90728507D01*
X160757984Y-90728507D01*
X160764961Y-90729438D01*
X160771972Y-90728800D01*
X160771976Y-90728800D01*
X160914459Y-90715832D01*
X160945600Y-90712998D01*
X160952302Y-90710820D01*
X160952304Y-90710820D01*
X161111409Y-90659124D01*
X161111412Y-90659123D01*
X161118108Y-90656947D01*
X161273912Y-90564069D01*
X161405266Y-90438982D01*
X161417837Y-90420062D01*
X161437791Y-90390028D01*
X161492149Y-90344357D01*
X161562568Y-90335325D01*
X161626692Y-90365798D01*
X161650514Y-90394483D01*
X161657730Y-90406398D01*
X161657733Y-90406401D01*
X161661380Y-90412424D01*
X161666269Y-90417487D01*
X161666270Y-90417488D01*
X161698284Y-90450639D01*
X161787382Y-90542902D01*
X161793278Y-90546760D01*
X161928123Y-90635000D01*
X161939159Y-90642222D01*
X161945763Y-90644678D01*
X161945765Y-90644679D01*
X162102558Y-90702990D01*
X162102560Y-90702990D01*
X162109168Y-90705448D01*
X162192995Y-90716633D01*
X162281980Y-90728507D01*
X162281984Y-90728507D01*
X162288961Y-90729438D01*
X162295972Y-90728800D01*
X162295976Y-90728800D01*
X162438459Y-90715832D01*
X162469600Y-90712998D01*
X162476302Y-90710820D01*
X162476304Y-90710820D01*
X162635409Y-90659124D01*
X162635412Y-90659123D01*
X162642108Y-90656947D01*
X162673281Y-90638364D01*
X162683613Y-90632205D01*
X162752368Y-90614505D01*
X162817121Y-90635000D01*
X162822260Y-90638362D01*
X162828159Y-90642222D01*
X162896350Y-90667582D01*
X162991558Y-90702990D01*
X162991560Y-90702990D01*
X162998168Y-90705448D01*
X163081995Y-90716633D01*
X163170980Y-90728507D01*
X163170984Y-90728507D01*
X163177961Y-90729438D01*
X163184972Y-90728800D01*
X163184976Y-90728800D01*
X163327459Y-90715832D01*
X163358600Y-90712998D01*
X163365302Y-90710820D01*
X163365304Y-90710820D01*
X163524409Y-90659124D01*
X163524412Y-90659123D01*
X163531108Y-90656947D01*
X163686912Y-90564069D01*
X163818266Y-90438982D01*
X163918643Y-90287902D01*
X163921146Y-90281314D01*
X163921147Y-90281312D01*
X163934682Y-90245680D01*
X163977571Y-90189101D01*
X164044239Y-90164692D01*
X164113521Y-90180202D01*
X164163420Y-90230705D01*
X164177869Y-90278127D01*
X164181363Y-90313760D01*
X164238618Y-90485873D01*
X164242265Y-90491895D01*
X164242266Y-90491897D01*
X164257167Y-90516502D01*
X164332580Y-90641024D01*
X164337469Y-90646087D01*
X164337470Y-90646088D01*
X164344474Y-90653341D01*
X164458582Y-90771502D01*
X164464478Y-90775360D01*
X164587527Y-90855881D01*
X164610359Y-90870822D01*
X164616963Y-90873278D01*
X164616965Y-90873279D01*
X164773758Y-90931590D01*
X164773760Y-90931590D01*
X164780368Y-90934048D01*
X164864195Y-90945233D01*
X164953180Y-90957107D01*
X164953184Y-90957107D01*
X164960161Y-90958038D01*
X164967172Y-90957400D01*
X164967176Y-90957400D01*
X165109659Y-90944432D01*
X165140800Y-90941598D01*
X165147502Y-90939420D01*
X165147504Y-90939420D01*
X165306609Y-90887724D01*
X165306612Y-90887723D01*
X165313308Y-90885547D01*
X165469112Y-90792669D01*
X165600466Y-90667582D01*
X165700843Y-90516502D01*
X165747194Y-90394483D01*
X165762755Y-90353520D01*
X165762756Y-90353518D01*
X165765255Y-90346938D01*
X165768387Y-90324654D01*
X165789948Y-90171239D01*
X165789948Y-90171236D01*
X165790499Y-90167317D01*
X165790816Y-90144600D01*
X165770597Y-89964345D01*
X165768280Y-89957691D01*
X165713264Y-89799706D01*
X165713262Y-89799703D01*
X165710945Y-89793048D01*
X165679511Y-89742743D01*
X165618559Y-89645198D01*
X165614826Y-89639224D01*
X165587035Y-89611238D01*
X165491978Y-89515515D01*
X165491974Y-89515512D01*
X165487015Y-89510518D01*
X165475897Y-89503462D01*
X165377185Y-89440818D01*
X165333866Y-89413327D01*
X165301413Y-89401771D01*
X165169625Y-89354843D01*
X165169620Y-89354842D01*
X165162990Y-89352481D01*
X165156002Y-89351648D01*
X165155999Y-89351647D01*
X165032898Y-89336968D01*
X164982880Y-89331004D01*
X164975877Y-89331740D01*
X164975876Y-89331740D01*
X164809488Y-89349228D01*
X164809486Y-89349229D01*
X164802488Y-89349964D01*
X164630779Y-89408418D01*
X164580531Y-89439331D01*
X164482295Y-89499766D01*
X164482292Y-89499768D01*
X164476288Y-89503462D01*
X164471253Y-89508393D01*
X164471250Y-89508395D01*
X164366331Y-89611140D01*
X164346693Y-89630371D01*
X164248435Y-89782838D01*
X164246024Y-89789462D01*
X164246023Y-89789464D01*
X164237429Y-89813076D01*
X164195335Y-89870248D01*
X164129014Y-89895586D01*
X164059522Y-89881045D01*
X164008923Y-89831243D01*
X163993813Y-89784028D01*
X163989182Y-89742743D01*
X163988397Y-89735745D01*
X163986080Y-89729091D01*
X163931064Y-89571106D01*
X163931062Y-89571103D01*
X163928745Y-89564448D01*
X163832626Y-89410624D01*
X163777233Y-89354843D01*
X163709778Y-89286915D01*
X163709774Y-89286912D01*
X163704815Y-89281918D01*
X163693697Y-89274862D01*
X163572773Y-89198122D01*
X163551666Y-89184727D01*
X163522463Y-89174328D01*
X163387425Y-89126243D01*
X163387420Y-89126242D01*
X163380790Y-89123881D01*
X163373802Y-89123048D01*
X163373799Y-89123047D01*
X163250698Y-89108368D01*
X163200680Y-89102404D01*
X163193677Y-89103140D01*
X163193676Y-89103140D01*
X163027288Y-89120628D01*
X163027286Y-89120629D01*
X163020288Y-89121364D01*
X162848579Y-89179818D01*
X162817309Y-89199056D01*
X162748810Y-89217714D01*
X162683774Y-89198123D01*
X162662666Y-89184727D01*
X162633463Y-89174328D01*
X162498425Y-89126243D01*
X162498420Y-89126242D01*
X162491790Y-89123881D01*
X162484802Y-89123048D01*
X162484799Y-89123047D01*
X162361698Y-89108368D01*
X162311680Y-89102404D01*
X162304677Y-89103140D01*
X162304676Y-89103140D01*
X162138288Y-89120628D01*
X162138286Y-89120629D01*
X162131288Y-89121364D01*
X161959579Y-89179818D01*
X161928310Y-89199055D01*
X161811095Y-89271166D01*
X161811092Y-89271168D01*
X161805088Y-89274862D01*
X161800053Y-89279793D01*
X161800050Y-89279795D01*
X161695100Y-89382570D01*
X161675493Y-89401771D01*
X161652327Y-89437717D01*
X161650329Y-89440818D01*
X161596615Y-89487243D01*
X161526328Y-89497258D01*
X161461785Y-89467683D01*
X161437567Y-89439335D01*
X161419626Y-89410624D01*
X161364233Y-89354843D01*
X161296778Y-89286915D01*
X161296774Y-89286912D01*
X161291815Y-89281918D01*
X161280697Y-89274862D01*
X161159773Y-89198122D01*
X161138666Y-89184727D01*
X161109463Y-89174328D01*
X160974425Y-89126243D01*
X160974420Y-89126242D01*
X160967790Y-89123881D01*
X160960802Y-89123048D01*
X160960799Y-89123047D01*
X160837698Y-89108368D01*
X160787680Y-89102404D01*
X160780677Y-89103140D01*
X160780676Y-89103140D01*
X160614288Y-89120628D01*
X160614286Y-89120629D01*
X160607288Y-89121364D01*
X160435579Y-89179818D01*
X160404309Y-89199056D01*
X160335810Y-89217714D01*
X160270774Y-89198123D01*
X160249666Y-89184727D01*
X160220463Y-89174328D01*
X160085425Y-89126243D01*
X160085420Y-89126242D01*
X160078790Y-89123881D01*
X160071802Y-89123048D01*
X160071799Y-89123047D01*
X159948698Y-89108368D01*
X159898680Y-89102404D01*
X159891677Y-89103140D01*
X159891676Y-89103140D01*
X159725288Y-89120628D01*
X159725286Y-89120629D01*
X159718288Y-89121364D01*
X159546579Y-89179818D01*
X159515310Y-89199055D01*
X159398095Y-89271166D01*
X159398092Y-89271168D01*
X159392088Y-89274862D01*
X159387053Y-89279793D01*
X159387050Y-89279795D01*
X159282100Y-89382570D01*
X159262493Y-89401771D01*
X159164235Y-89554238D01*
X159161826Y-89560858D01*
X159161824Y-89560861D01*
X159114272Y-89691510D01*
X159102197Y-89724685D01*
X159079463Y-89904640D01*
X158292342Y-89904640D01*
X158273397Y-89735745D01*
X158271080Y-89729091D01*
X158216064Y-89571106D01*
X158216062Y-89571103D01*
X158213745Y-89564448D01*
X158117626Y-89410624D01*
X158062233Y-89354843D01*
X157994778Y-89286915D01*
X157994774Y-89286912D01*
X157989815Y-89281918D01*
X157978697Y-89274862D01*
X157857773Y-89198122D01*
X157836666Y-89184727D01*
X157807463Y-89174328D01*
X157672425Y-89126243D01*
X157672420Y-89126242D01*
X157665790Y-89123881D01*
X157658802Y-89123048D01*
X157658799Y-89123047D01*
X157535698Y-89108368D01*
X157485680Y-89102404D01*
X157478677Y-89103140D01*
X157478676Y-89103140D01*
X157312288Y-89120628D01*
X157312286Y-89120629D01*
X157305288Y-89121364D01*
X157133579Y-89179818D01*
X157102310Y-89199055D01*
X156985095Y-89271166D01*
X156985092Y-89271168D01*
X156979088Y-89274862D01*
X156974053Y-89279793D01*
X156974050Y-89279795D01*
X156922488Y-89330289D01*
X156869100Y-89382571D01*
X156806436Y-89415941D01*
X156735677Y-89410135D01*
X156691537Y-89381331D01*
X156597778Y-89286915D01*
X156597774Y-89286912D01*
X156592815Y-89281918D01*
X156581697Y-89274862D01*
X156460773Y-89198122D01*
X156439666Y-89184727D01*
X156410463Y-89174328D01*
X156275425Y-89126243D01*
X156275420Y-89126242D01*
X156268790Y-89123881D01*
X156261802Y-89123048D01*
X156261799Y-89123047D01*
X156138698Y-89108368D01*
X156088680Y-89102404D01*
X156081677Y-89103140D01*
X156081676Y-89103140D01*
X155915288Y-89120628D01*
X155915286Y-89120629D01*
X155908288Y-89121364D01*
X155736579Y-89179818D01*
X155705309Y-89199056D01*
X155636810Y-89217714D01*
X155571774Y-89198123D01*
X155550666Y-89184727D01*
X155521463Y-89174328D01*
X155386425Y-89126243D01*
X155386420Y-89126242D01*
X155379790Y-89123881D01*
X155372802Y-89123048D01*
X155372799Y-89123047D01*
X155249698Y-89108368D01*
X155199680Y-89102404D01*
X155192677Y-89103140D01*
X155192676Y-89103140D01*
X155026288Y-89120628D01*
X155026286Y-89120629D01*
X155019288Y-89121364D01*
X154847579Y-89179818D01*
X154816310Y-89199055D01*
X154699095Y-89271166D01*
X154699092Y-89271168D01*
X154693088Y-89274862D01*
X154688053Y-89279793D01*
X154688050Y-89279795D01*
X154636488Y-89330289D01*
X154583100Y-89382571D01*
X154520436Y-89415941D01*
X154449677Y-89410135D01*
X154405537Y-89381331D01*
X154311778Y-89286915D01*
X154311774Y-89286912D01*
X154306815Y-89281918D01*
X154295697Y-89274862D01*
X154174773Y-89198122D01*
X154153666Y-89184727D01*
X154124463Y-89174328D01*
X153989425Y-89126243D01*
X153989420Y-89126242D01*
X153982790Y-89123881D01*
X153975802Y-89123048D01*
X153975799Y-89123047D01*
X153852698Y-89108368D01*
X153802680Y-89102404D01*
X153795677Y-89103140D01*
X153795676Y-89103140D01*
X153629288Y-89120628D01*
X153629286Y-89120629D01*
X153622288Y-89121364D01*
X153450579Y-89179818D01*
X153419309Y-89199056D01*
X153350810Y-89217714D01*
X153285774Y-89198123D01*
X153264666Y-89184727D01*
X153235463Y-89174328D01*
X153100425Y-89126243D01*
X153100420Y-89126242D01*
X153093790Y-89123881D01*
X153086802Y-89123048D01*
X153086799Y-89123047D01*
X152963698Y-89108368D01*
X152913680Y-89102404D01*
X152906677Y-89103140D01*
X152906676Y-89103140D01*
X152740288Y-89120628D01*
X152740286Y-89120629D01*
X152733288Y-89121364D01*
X152561579Y-89179818D01*
X152530310Y-89199055D01*
X152413095Y-89271166D01*
X152413092Y-89271168D01*
X152407088Y-89274862D01*
X152402053Y-89279793D01*
X152402050Y-89279795D01*
X152297100Y-89382570D01*
X152277493Y-89401771D01*
X152179235Y-89554238D01*
X152176826Y-89560858D01*
X152176824Y-89560861D01*
X152129272Y-89691510D01*
X152117197Y-89724685D01*
X152094463Y-89904640D01*
X151434342Y-89904640D01*
X151415397Y-89735745D01*
X151413080Y-89729091D01*
X151358064Y-89571106D01*
X151358062Y-89571103D01*
X151355745Y-89564448D01*
X151259626Y-89410624D01*
X151204233Y-89354843D01*
X151136778Y-89286915D01*
X151136774Y-89286912D01*
X151131815Y-89281918D01*
X151120697Y-89274862D01*
X150999773Y-89198122D01*
X150978666Y-89184727D01*
X150949463Y-89174328D01*
X150814425Y-89126243D01*
X150814420Y-89126242D01*
X150807790Y-89123881D01*
X150800802Y-89123048D01*
X150800799Y-89123047D01*
X150677698Y-89108368D01*
X150627680Y-89102404D01*
X150620677Y-89103140D01*
X150620676Y-89103140D01*
X150454288Y-89120628D01*
X150454286Y-89120629D01*
X150447288Y-89121364D01*
X150275579Y-89179818D01*
X150244310Y-89199055D01*
X150127095Y-89271166D01*
X150127092Y-89271168D01*
X150121088Y-89274862D01*
X150116053Y-89279793D01*
X150116050Y-89279795D01*
X150011100Y-89382570D01*
X149991493Y-89401771D01*
X149893235Y-89554238D01*
X149890826Y-89560858D01*
X149890824Y-89560861D01*
X149843272Y-89691510D01*
X149831197Y-89724685D01*
X149808463Y-89904640D01*
X149275342Y-89904640D01*
X149256397Y-89735745D01*
X149254080Y-89729091D01*
X149199064Y-89571106D01*
X149199062Y-89571103D01*
X149196745Y-89564448D01*
X149100626Y-89410624D01*
X149045233Y-89354843D01*
X148977778Y-89286915D01*
X148977774Y-89286912D01*
X148972815Y-89281918D01*
X148961697Y-89274862D01*
X148840773Y-89198122D01*
X148819666Y-89184727D01*
X148790463Y-89174328D01*
X148655425Y-89126243D01*
X148655420Y-89126242D01*
X148648790Y-89123881D01*
X148641802Y-89123048D01*
X148641799Y-89123047D01*
X148518698Y-89108368D01*
X148468680Y-89102404D01*
X148461677Y-89103140D01*
X148461676Y-89103140D01*
X148295288Y-89120628D01*
X148295286Y-89120629D01*
X148288288Y-89121364D01*
X148116579Y-89179818D01*
X148085310Y-89199055D01*
X147968095Y-89271166D01*
X147968092Y-89271168D01*
X147962088Y-89274862D01*
X147957053Y-89279793D01*
X147957050Y-89279795D01*
X147852100Y-89382570D01*
X147832493Y-89401771D01*
X147807329Y-89440818D01*
X147742849Y-89540871D01*
X147689135Y-89587296D01*
X147618848Y-89597311D01*
X147554305Y-89567736D01*
X147530084Y-89539385D01*
X147510257Y-89507654D01*
X147449626Y-89410624D01*
X147394233Y-89354843D01*
X147326778Y-89286915D01*
X147326774Y-89286912D01*
X147321815Y-89281918D01*
X147310697Y-89274862D01*
X147189773Y-89198122D01*
X147168666Y-89184727D01*
X147139463Y-89174328D01*
X147004425Y-89126243D01*
X147004420Y-89126242D01*
X146997790Y-89123881D01*
X146990802Y-89123048D01*
X146990799Y-89123047D01*
X146867698Y-89108368D01*
X146817680Y-89102404D01*
X146810677Y-89103140D01*
X146810676Y-89103140D01*
X146644288Y-89120628D01*
X146644286Y-89120629D01*
X146637288Y-89121364D01*
X146465579Y-89179818D01*
X146434309Y-89199056D01*
X146365810Y-89217714D01*
X146300774Y-89198123D01*
X146279666Y-89184727D01*
X146250463Y-89174328D01*
X146115425Y-89126243D01*
X146115420Y-89126242D01*
X146108790Y-89123881D01*
X146101802Y-89123048D01*
X146101799Y-89123047D01*
X145978698Y-89108368D01*
X145928680Y-89102404D01*
X145921677Y-89103140D01*
X145921676Y-89103140D01*
X145755288Y-89120628D01*
X145755286Y-89120629D01*
X145748288Y-89121364D01*
X145576579Y-89179818D01*
X145545310Y-89199055D01*
X145428095Y-89271166D01*
X145428092Y-89271168D01*
X145422088Y-89274862D01*
X145417053Y-89279793D01*
X145417050Y-89279795D01*
X145312100Y-89382570D01*
X145292493Y-89401771D01*
X145267329Y-89440818D01*
X145202849Y-89540871D01*
X145149135Y-89587296D01*
X145078848Y-89597311D01*
X145014305Y-89567736D01*
X144990084Y-89539385D01*
X144970257Y-89507654D01*
X144909626Y-89410624D01*
X144854233Y-89354843D01*
X144786778Y-89286915D01*
X144786774Y-89286912D01*
X144781815Y-89281918D01*
X144770697Y-89274862D01*
X144649773Y-89198122D01*
X144628666Y-89184727D01*
X144599463Y-89174328D01*
X144464425Y-89126243D01*
X144464420Y-89126242D01*
X144457790Y-89123881D01*
X144450802Y-89123048D01*
X144450799Y-89123047D01*
X144327698Y-89108368D01*
X144277680Y-89102404D01*
X144270677Y-89103140D01*
X144270676Y-89103140D01*
X144104288Y-89120628D01*
X144104286Y-89120629D01*
X144097288Y-89121364D01*
X143925579Y-89179818D01*
X143894309Y-89199056D01*
X143825810Y-89217714D01*
X143760774Y-89198123D01*
X143739666Y-89184727D01*
X143710463Y-89174328D01*
X143575425Y-89126243D01*
X143575420Y-89126242D01*
X143568790Y-89123881D01*
X143561802Y-89123048D01*
X143561799Y-89123047D01*
X143438698Y-89108368D01*
X143388680Y-89102404D01*
X143381677Y-89103140D01*
X143381676Y-89103140D01*
X143215288Y-89120628D01*
X143215286Y-89120629D01*
X143208288Y-89121364D01*
X143036579Y-89179818D01*
X143005310Y-89199055D01*
X142888095Y-89271166D01*
X142888092Y-89271168D01*
X142882088Y-89274862D01*
X142877053Y-89279793D01*
X142877050Y-89279795D01*
X142772100Y-89382570D01*
X142752493Y-89401771D01*
X142654235Y-89554238D01*
X142651826Y-89560858D01*
X142651824Y-89560861D01*
X142604272Y-89691510D01*
X142592197Y-89724685D01*
X142569463Y-89904640D01*
X132444153Y-89904640D01*
X132771054Y-88978931D01*
X132772505Y-88975032D01*
X133187363Y-87913717D01*
X133188948Y-87909851D01*
X133638787Y-86862821D01*
X133640500Y-86859010D01*
X133767355Y-86588818D01*
X134124799Y-85827487D01*
X134126631Y-85823747D01*
X134644878Y-84808821D01*
X134646831Y-84805149D01*
X135198421Y-83808004D01*
X135200492Y-83804401D01*
X135214904Y-83780273D01*
X135784875Y-82826032D01*
X135787043Y-82822536D01*
X136403529Y-81864100D01*
X136405839Y-81860636D01*
X136455407Y-81788918D01*
X137053747Y-80923193D01*
X137056179Y-80919796D01*
X137734813Y-80004346D01*
X137737357Y-80001031D01*
X138445968Y-79108588D01*
X138448620Y-79105360D01*
X138591929Y-78936675D01*
X138804260Y-78686745D01*
X139186425Y-78236907D01*
X139189183Y-78233768D01*
X139620295Y-77759151D01*
X139955379Y-77390252D01*
X139958228Y-77387218D01*
X139981530Y-77363215D01*
X140717816Y-76604752D01*
X140751971Y-76569568D01*
X140754930Y-76566619D01*
X141575346Y-75775736D01*
X141578402Y-75772886D01*
X142424594Y-75009632D01*
X142427742Y-75006886D01*
X142659524Y-74811362D01*
X143159562Y-74389544D01*
X143298761Y-74272120D01*
X143301999Y-74269479D01*
X144196914Y-73563985D01*
X144200238Y-73561453D01*
X145118037Y-72886029D01*
X145121442Y-72883609D01*
X146061156Y-72238968D01*
X146064640Y-72236662D01*
X146130700Y-72194496D01*
X147025218Y-71623527D01*
X147028677Y-71621399D01*
X148009115Y-71040414D01*
X148012695Y-71038372D01*
X148205572Y-70932556D01*
X149011823Y-70490232D01*
X149015491Y-70488298D01*
X150032221Y-69973597D01*
X150035924Y-69971800D01*
X151017686Y-69515039D01*
X151087887Y-69504439D01*
X151152674Y-69533475D01*
X151191478Y-69592929D01*
X151191980Y-69663924D01*
X151173158Y-69702806D01*
X151087011Y-69822692D01*
X151076002Y-69835988D01*
X144685458Y-76557078D01*
X144634750Y-76589534D01*
X144570654Y-76611354D01*
X144563983Y-76613625D01*
X144504356Y-76650308D01*
X144415499Y-76704973D01*
X144415496Y-76704975D01*
X144409492Y-76708669D01*
X144404457Y-76713600D01*
X144404454Y-76713602D01*
X144307508Y-76808539D01*
X144279897Y-76835578D01*
X144248715Y-76883963D01*
X144212451Y-76940234D01*
X144158737Y-76986659D01*
X144088450Y-76996674D01*
X144027588Y-76970176D01*
X144024783Y-76967920D01*
X144019815Y-76962918D01*
X144008697Y-76955862D01*
X143895401Y-76883963D01*
X143866666Y-76865727D01*
X143837463Y-76855328D01*
X143702425Y-76807243D01*
X143702420Y-76807242D01*
X143695790Y-76804881D01*
X143688802Y-76804048D01*
X143688799Y-76804047D01*
X143565698Y-76789368D01*
X143515680Y-76783404D01*
X143508677Y-76784140D01*
X143508676Y-76784140D01*
X143342288Y-76801628D01*
X143342286Y-76801629D01*
X143335288Y-76802364D01*
X143167947Y-76859331D01*
X143097016Y-76862349D01*
X143085088Y-76858756D01*
X142980455Y-76821498D01*
X142940424Y-76807243D01*
X142940422Y-76807243D01*
X142933790Y-76804881D01*
X142926802Y-76804048D01*
X142926799Y-76804047D01*
X142803698Y-76789368D01*
X142753680Y-76783404D01*
X142746677Y-76784140D01*
X142746676Y-76784140D01*
X142580288Y-76801628D01*
X142580286Y-76801629D01*
X142573288Y-76802364D01*
X142405947Y-76859331D01*
X142335016Y-76862349D01*
X142323088Y-76858756D01*
X142218455Y-76821498D01*
X142178424Y-76807243D01*
X142178422Y-76807243D01*
X142171790Y-76804881D01*
X142164802Y-76804048D01*
X142164799Y-76804047D01*
X142041698Y-76789368D01*
X141991680Y-76783404D01*
X141984677Y-76784140D01*
X141984676Y-76784140D01*
X141818288Y-76801628D01*
X141818286Y-76801629D01*
X141811288Y-76802364D01*
X141639579Y-76860818D01*
X141633575Y-76864512D01*
X141491095Y-76952166D01*
X141491092Y-76952168D01*
X141485088Y-76955862D01*
X141480053Y-76960793D01*
X141480050Y-76960795D01*
X141429606Y-77010194D01*
X141355493Y-77082771D01*
X141257235Y-77235238D01*
X141195197Y-77405685D01*
X141172463Y-77585640D01*
X141190163Y-77766160D01*
X141230267Y-77886715D01*
X141247418Y-77938273D01*
X141245156Y-77939026D01*
X141253928Y-77998178D01*
X141247533Y-78023893D01*
X141209744Y-78127717D01*
X141195197Y-78167685D01*
X141172463Y-78347640D01*
X141190163Y-78528160D01*
X141224875Y-78632506D01*
X141247418Y-78700273D01*
X141245156Y-78701026D01*
X141253928Y-78760178D01*
X141247533Y-78785893D01*
X141209744Y-78889717D01*
X141195197Y-78929685D01*
X141172463Y-79109640D01*
X141190163Y-79290160D01*
X141224875Y-79394506D01*
X141247418Y-79462273D01*
X141245156Y-79463026D01*
X141253928Y-79522178D01*
X141247533Y-79547893D01*
X141209744Y-79651717D01*
X141195197Y-79691685D01*
X141172463Y-79871640D01*
X141190163Y-80052160D01*
X141224875Y-80156506D01*
X141247418Y-80224273D01*
X141245156Y-80225026D01*
X141253928Y-80284178D01*
X141247533Y-80309893D01*
X141209744Y-80413717D01*
X141195197Y-80453685D01*
X141172463Y-80633640D01*
X141190163Y-80814160D01*
X141247418Y-80986273D01*
X141251065Y-80992295D01*
X141251066Y-80992297D01*
X141336960Y-81134125D01*
X141341380Y-81141424D01*
X141346269Y-81146487D01*
X141346270Y-81146488D01*
X141378284Y-81179639D01*
X141467382Y-81271902D01*
X141473278Y-81275760D01*
X141602785Y-81360507D01*
X141619159Y-81371222D01*
X141625763Y-81373678D01*
X141625765Y-81373679D01*
X141782558Y-81431990D01*
X141782560Y-81431990D01*
X141789168Y-81434448D01*
X141872995Y-81445633D01*
X141961980Y-81457507D01*
X141961984Y-81457507D01*
X141968961Y-81458438D01*
X141975972Y-81457800D01*
X141975976Y-81457800D01*
X142118459Y-81444832D01*
X142149600Y-81441998D01*
X142156302Y-81439820D01*
X142156304Y-81439820D01*
X142249776Y-81409449D01*
X142322108Y-81385947D01*
X142322219Y-81386288D01*
X142388503Y-81376927D01*
X142414174Y-81383500D01*
X142551168Y-81434448D01*
X142553601Y-81434773D01*
X142613292Y-81469745D01*
X142645421Y-81533056D01*
X142638221Y-81603687D01*
X142593978Y-81659212D01*
X142562152Y-81675389D01*
X142535252Y-81684546D01*
X142535249Y-81684547D01*
X142528579Y-81686818D01*
X142522575Y-81690512D01*
X142380095Y-81778166D01*
X142380092Y-81778168D01*
X142374088Y-81781862D01*
X142369053Y-81786793D01*
X142369050Y-81786795D01*
X142273118Y-81880739D01*
X142244493Y-81908771D01*
X142146235Y-82061238D01*
X142143826Y-82067858D01*
X142143824Y-82067861D01*
X142086606Y-82225066D01*
X142084197Y-82231685D01*
X142061463Y-82411640D01*
X142079163Y-82592160D01*
X142136418Y-82764273D01*
X142140065Y-82770295D01*
X142140066Y-82770297D01*
X142173837Y-82826059D01*
X142230380Y-82919424D01*
X142235269Y-82924487D01*
X142235270Y-82924488D01*
X142239267Y-82928627D01*
X142356382Y-83049902D01*
X142408277Y-83083861D01*
X142489826Y-83137225D01*
X142508159Y-83149222D01*
X142514763Y-83151678D01*
X142514765Y-83151679D01*
X142671558Y-83209990D01*
X142671560Y-83209990D01*
X142678168Y-83212448D01*
X142761995Y-83223633D01*
X142850980Y-83235507D01*
X142850984Y-83235507D01*
X142857961Y-83236438D01*
X142864972Y-83235800D01*
X142864976Y-83235800D01*
X143007459Y-83222832D01*
X143038600Y-83219998D01*
X143045302Y-83217820D01*
X143045304Y-83217820D01*
X143204409Y-83166124D01*
X143204412Y-83166123D01*
X143211108Y-83163947D01*
X143339436Y-83087448D01*
X143360860Y-83074677D01*
X143360862Y-83074676D01*
X143366912Y-83071069D01*
X143498266Y-82945982D01*
X143598643Y-82794902D01*
X143653974Y-82649243D01*
X143660555Y-82631920D01*
X143660556Y-82631918D01*
X143663055Y-82625338D01*
X143664035Y-82618366D01*
X143687748Y-82449639D01*
X143687748Y-82449636D01*
X143688299Y-82445717D01*
X143688616Y-82423000D01*
X143668397Y-82242745D01*
X143664787Y-82232379D01*
X143611064Y-82078106D01*
X143611062Y-82078103D01*
X143608745Y-82071448D01*
X143512626Y-81917624D01*
X143482761Y-81887550D01*
X143389778Y-81793915D01*
X143389774Y-81793912D01*
X143384815Y-81788918D01*
X143373697Y-81781862D01*
X143313202Y-81743471D01*
X143231666Y-81691727D01*
X143060925Y-81630929D01*
X143003461Y-81589235D01*
X142977661Y-81523092D01*
X142991716Y-81453501D01*
X143041164Y-81402555D01*
X143064253Y-81392398D01*
X143084108Y-81385947D01*
X143084110Y-81385946D01*
X143084221Y-81386288D01*
X143150503Y-81376927D01*
X143176174Y-81383500D01*
X143313168Y-81434448D01*
X143396995Y-81445633D01*
X143485980Y-81457507D01*
X143485984Y-81457507D01*
X143492961Y-81458438D01*
X143499972Y-81457800D01*
X143499976Y-81457800D01*
X143642459Y-81444832D01*
X143673600Y-81441998D01*
X143680302Y-81439820D01*
X143680304Y-81439820D01*
X143846108Y-81385947D01*
X143846970Y-81388600D01*
X143904782Y-81380453D01*
X143969279Y-81410128D01*
X144007495Y-81469961D01*
X144012500Y-81505120D01*
X144012500Y-84359040D01*
X143992498Y-84427161D01*
X143938842Y-84473654D01*
X143868568Y-84483758D01*
X143844233Y-84477739D01*
X143702425Y-84427243D01*
X143702420Y-84427242D01*
X143695790Y-84424881D01*
X143688802Y-84424048D01*
X143688799Y-84424047D01*
X143565698Y-84409368D01*
X143515680Y-84403404D01*
X143508677Y-84404140D01*
X143508676Y-84404140D01*
X143342288Y-84421628D01*
X143342286Y-84421629D01*
X143335288Y-84422364D01*
X143163579Y-84480818D01*
X143157575Y-84484512D01*
X143015095Y-84572166D01*
X143015092Y-84572168D01*
X143009088Y-84575862D01*
X143004053Y-84580793D01*
X143004050Y-84580795D01*
X142884525Y-84697843D01*
X142879493Y-84702771D01*
X142781235Y-84855238D01*
X142778826Y-84861858D01*
X142778824Y-84861861D01*
X142742696Y-84961122D01*
X142719197Y-85025685D01*
X142696463Y-85205640D01*
X142714163Y-85386160D01*
X142771418Y-85558273D01*
X142775065Y-85564295D01*
X142775066Y-85564297D01*
X142785978Y-85582314D01*
X142865380Y-85713424D01*
X142991382Y-85843902D01*
X143143159Y-85943222D01*
X143149763Y-85945678D01*
X143149765Y-85945679D01*
X143306558Y-86003990D01*
X143306560Y-86003990D01*
X143313168Y-86006448D01*
X143396995Y-86017633D01*
X143485980Y-86029507D01*
X143485984Y-86029507D01*
X143492961Y-86030438D01*
X143499972Y-86029800D01*
X143499976Y-86029800D01*
X143642459Y-86016832D01*
X143673600Y-86013998D01*
X143680302Y-86011820D01*
X143680304Y-86011820D01*
X143839409Y-85960124D01*
X143839412Y-85960123D01*
X143846108Y-85957947D01*
X144001912Y-85865069D01*
X144133266Y-85739982D01*
X144233643Y-85588902D01*
X144298055Y-85419338D01*
X144299035Y-85412366D01*
X144322748Y-85243639D01*
X144322748Y-85243636D01*
X144323299Y-85239717D01*
X144323616Y-85217000D01*
X144321979Y-85202406D01*
X144334263Y-85132480D01*
X144382402Y-85080296D01*
X144451112Y-85062422D01*
X144482687Y-85067464D01*
X144507331Y-85074700D01*
X144511780Y-85075340D01*
X144511786Y-85075341D01*
X144647553Y-85094861D01*
X144647558Y-85094861D01*
X144652000Y-85095500D01*
X147575000Y-85095500D01*
X147578346Y-85095140D01*
X147578351Y-85095140D01*
X147680785Y-85084128D01*
X147680792Y-85084127D01*
X147684149Y-85083766D01*
X147700101Y-85080296D01*
X147733210Y-85073094D01*
X147733215Y-85073093D01*
X147736491Y-85072380D01*
X147840657Y-85037710D01*
X147963612Y-84958692D01*
X148017268Y-84912199D01*
X148072888Y-84848010D01*
X148107081Y-84808550D01*
X148107083Y-84808547D01*
X148112982Y-84801739D01*
X148173698Y-84668790D01*
X148193700Y-84600669D01*
X148194717Y-84593600D01*
X148213861Y-84460447D01*
X148213861Y-84460442D01*
X148214500Y-84456000D01*
X148214500Y-82300500D01*
X148234502Y-82232379D01*
X148288158Y-82185886D01*
X148340500Y-82174500D01*
X148972000Y-82174500D01*
X148975346Y-82174140D01*
X148975351Y-82174140D01*
X149077785Y-82163128D01*
X149077792Y-82163127D01*
X149081149Y-82162766D01*
X149084450Y-82162048D01*
X149130210Y-82152094D01*
X149130215Y-82152093D01*
X149133491Y-82151380D01*
X149237657Y-82116710D01*
X149360612Y-82037692D01*
X149414268Y-81991199D01*
X149472845Y-81923598D01*
X149504081Y-81887550D01*
X149504083Y-81887547D01*
X149509982Y-81880739D01*
X149570698Y-81747790D01*
X149586050Y-81695506D01*
X149589431Y-81683992D01*
X149589432Y-81683988D01*
X149590700Y-81679669D01*
X149593642Y-81659212D01*
X149610861Y-81539447D01*
X149610861Y-81539442D01*
X149611500Y-81535000D01*
X149611500Y-81248061D01*
X149631502Y-81179940D01*
X149685158Y-81133447D01*
X149755432Y-81123343D01*
X149781415Y-81129962D01*
X149917168Y-81180448D01*
X150000995Y-81191633D01*
X150089980Y-81203507D01*
X150089984Y-81203507D01*
X150096961Y-81204438D01*
X150103972Y-81203800D01*
X150103976Y-81203800D01*
X150246459Y-81190832D01*
X150277600Y-81187998D01*
X150284302Y-81185820D01*
X150284304Y-81185820D01*
X150405355Y-81146488D01*
X150450108Y-81131947D01*
X150450219Y-81132288D01*
X150516503Y-81122927D01*
X150542174Y-81129500D01*
X150679168Y-81180448D01*
X150762995Y-81191633D01*
X150851980Y-81203507D01*
X150851984Y-81203507D01*
X150858961Y-81204438D01*
X150865972Y-81203800D01*
X150865976Y-81203800D01*
X151008459Y-81190832D01*
X151039600Y-81187998D01*
X151046302Y-81185820D01*
X151046304Y-81185820D01*
X151167355Y-81146488D01*
X151212108Y-81131947D01*
X151212219Y-81132288D01*
X151278503Y-81122927D01*
X151304174Y-81129500D01*
X151441168Y-81180448D01*
X151524995Y-81191633D01*
X151613980Y-81203507D01*
X151613984Y-81203507D01*
X151620961Y-81204438D01*
X151627972Y-81203800D01*
X151627976Y-81203800D01*
X151770459Y-81190832D01*
X151801600Y-81187998D01*
X151848566Y-81172738D01*
X151919533Y-81170712D01*
X151980330Y-81207375D01*
X152011655Y-81271087D01*
X152013500Y-81292572D01*
X152013500Y-83137225D01*
X151993498Y-83205346D01*
X151939842Y-83251839D01*
X151869568Y-83261943D01*
X151804988Y-83232449D01*
X151768509Y-83178662D01*
X151739064Y-83094106D01*
X151739062Y-83094103D01*
X151736745Y-83087448D01*
X151651384Y-82950841D01*
X151644359Y-82939598D01*
X151640626Y-82933624D01*
X151620544Y-82913401D01*
X151517778Y-82809915D01*
X151517774Y-82809912D01*
X151512815Y-82804918D01*
X151501697Y-82797862D01*
X151453538Y-82767300D01*
X151359666Y-82707727D01*
X151289986Y-82682915D01*
X151195425Y-82649243D01*
X151195420Y-82649242D01*
X151188790Y-82646881D01*
X151181802Y-82646048D01*
X151181799Y-82646047D01*
X151058698Y-82631368D01*
X151008680Y-82625404D01*
X151001677Y-82626140D01*
X151001676Y-82626140D01*
X150835288Y-82643628D01*
X150835286Y-82643629D01*
X150828288Y-82644364D01*
X150656579Y-82702818D01*
X150650575Y-82706512D01*
X150508095Y-82794166D01*
X150508092Y-82794168D01*
X150502088Y-82797862D01*
X150497053Y-82802793D01*
X150497050Y-82802795D01*
X150377953Y-82919424D01*
X150372493Y-82924771D01*
X150274235Y-83077238D01*
X150271826Y-83083858D01*
X150271824Y-83083861D01*
X150214606Y-83241066D01*
X150212197Y-83247685D01*
X150189463Y-83427640D01*
X150207163Y-83608160D01*
X150264418Y-83780273D01*
X150268065Y-83786295D01*
X150268066Y-83786297D01*
X150297551Y-83834982D01*
X150358380Y-83935424D01*
X150363269Y-83940487D01*
X150363270Y-83940488D01*
X150384027Y-83961982D01*
X150484382Y-84065902D01*
X150636159Y-84165222D01*
X150642763Y-84167678D01*
X150642765Y-84167679D01*
X150799558Y-84225990D01*
X150799560Y-84225990D01*
X150806168Y-84228448D01*
X150889995Y-84239633D01*
X150978980Y-84251507D01*
X150978984Y-84251507D01*
X150985961Y-84252438D01*
X150992972Y-84251800D01*
X150992976Y-84251800D01*
X151135459Y-84238832D01*
X151166600Y-84235998D01*
X151173302Y-84233820D01*
X151173304Y-84233820D01*
X151332409Y-84182124D01*
X151332412Y-84182123D01*
X151339108Y-84179947D01*
X151458126Y-84108998D01*
X151488860Y-84090677D01*
X151488862Y-84090676D01*
X151494912Y-84087069D01*
X151626266Y-83961982D01*
X151726643Y-83810902D01*
X151769712Y-83697523D01*
X151812601Y-83640945D01*
X151879270Y-83616536D01*
X151948551Y-83632046D01*
X151998450Y-83682550D01*
X152013500Y-83742267D01*
X152013500Y-84456000D01*
X152013860Y-84459346D01*
X152013860Y-84459351D01*
X152022533Y-84540021D01*
X152025234Y-84565149D01*
X152025952Y-84568449D01*
X152025952Y-84568450D01*
X152032961Y-84600669D01*
X152036620Y-84617491D01*
X152071290Y-84721657D01*
X152150308Y-84844612D01*
X152153250Y-84848007D01*
X152153252Y-84848010D01*
X152159515Y-84855238D01*
X152196801Y-84898268D01*
X152200194Y-84901208D01*
X152300450Y-84988081D01*
X152300453Y-84988083D01*
X152307261Y-84993982D01*
X152440210Y-85054698D01*
X152463964Y-85061673D01*
X152504008Y-85073431D01*
X152504012Y-85073432D01*
X152508331Y-85074700D01*
X152512780Y-85075340D01*
X152512786Y-85075341D01*
X152648553Y-85094861D01*
X152648558Y-85094861D01*
X152653000Y-85095500D01*
X155576000Y-85095500D01*
X155579346Y-85095140D01*
X155579351Y-85095140D01*
X155681785Y-85084128D01*
X155681792Y-85084127D01*
X155685149Y-85083766D01*
X155701101Y-85080296D01*
X155734210Y-85073094D01*
X155734215Y-85073093D01*
X155737491Y-85072380D01*
X155841657Y-85037710D01*
X155964612Y-84958692D01*
X156018268Y-84912199D01*
X156073888Y-84848010D01*
X156108081Y-84808550D01*
X156108083Y-84808547D01*
X156113982Y-84801739D01*
X156174698Y-84668790D01*
X156194700Y-84600669D01*
X156195717Y-84593600D01*
X156214861Y-84460447D01*
X156214861Y-84460442D01*
X156215500Y-84456000D01*
X156215500Y-83300640D01*
X157174463Y-83300640D01*
X157192163Y-83481160D01*
X157249418Y-83653273D01*
X157253065Y-83659295D01*
X157253066Y-83659297D01*
X157329980Y-83786297D01*
X157343380Y-83808424D01*
X157348269Y-83813487D01*
X157348270Y-83813488D01*
X157363357Y-83829111D01*
X157469382Y-83938902D01*
X157621159Y-84038222D01*
X157627763Y-84040678D01*
X157627765Y-84040679D01*
X157784558Y-84098990D01*
X157784560Y-84098990D01*
X157791168Y-84101448D01*
X157874995Y-84112633D01*
X157963980Y-84124507D01*
X157963984Y-84124507D01*
X157970961Y-84125438D01*
X157977972Y-84124800D01*
X157977976Y-84124800D01*
X158120459Y-84111832D01*
X158151600Y-84108998D01*
X158158302Y-84106820D01*
X158158304Y-84106820D01*
X158317409Y-84055124D01*
X158317412Y-84055123D01*
X158324108Y-84052947D01*
X158479912Y-83960069D01*
X158611266Y-83834982D01*
X158711643Y-83683902D01*
X158776055Y-83514338D01*
X158777035Y-83507366D01*
X158800748Y-83338639D01*
X158800748Y-83338636D01*
X158801299Y-83334717D01*
X158801616Y-83312000D01*
X158781397Y-83131745D01*
X158779080Y-83125091D01*
X158724064Y-82967106D01*
X158724062Y-82967103D01*
X158721745Y-82960448D01*
X158625626Y-82806624D01*
X158611941Y-82792843D01*
X158502778Y-82682915D01*
X158502774Y-82682912D01*
X158497815Y-82677918D01*
X158486697Y-82670862D01*
X158438538Y-82640300D01*
X158344666Y-82580727D01*
X158307248Y-82567403D01*
X158180425Y-82522243D01*
X158180420Y-82522242D01*
X158173790Y-82519881D01*
X158166802Y-82519048D01*
X158166799Y-82519047D01*
X158043698Y-82504368D01*
X157993680Y-82498404D01*
X157986677Y-82499140D01*
X157986676Y-82499140D01*
X157820288Y-82516628D01*
X157820286Y-82516629D01*
X157813288Y-82517364D01*
X157641579Y-82575818D01*
X157635575Y-82579512D01*
X157493095Y-82667166D01*
X157493092Y-82667168D01*
X157487088Y-82670862D01*
X157482053Y-82675793D01*
X157482050Y-82675795D01*
X157398524Y-82757590D01*
X157357493Y-82797771D01*
X157259235Y-82950238D01*
X157256826Y-82956858D01*
X157256824Y-82956861D01*
X157210600Y-83083861D01*
X157197197Y-83120685D01*
X157174463Y-83300640D01*
X156215500Y-83300640D01*
X156215500Y-82300500D01*
X156235502Y-82232379D01*
X156289158Y-82185886D01*
X156341500Y-82174500D01*
X156973000Y-82174500D01*
X156976346Y-82174140D01*
X156976351Y-82174140D01*
X157078785Y-82163128D01*
X157078792Y-82163127D01*
X157082149Y-82162766D01*
X157085450Y-82162048D01*
X157131210Y-82152094D01*
X157131215Y-82152093D01*
X157134491Y-82151380D01*
X157238657Y-82116710D01*
X157361612Y-82037692D01*
X157415268Y-81991199D01*
X157473845Y-81923598D01*
X157505081Y-81887550D01*
X157505083Y-81887547D01*
X157510982Y-81880739D01*
X157571698Y-81747790D01*
X157587050Y-81695506D01*
X157590431Y-81683992D01*
X157590432Y-81683988D01*
X157591700Y-81679669D01*
X157594642Y-81659212D01*
X157611861Y-81539447D01*
X157611861Y-81539442D01*
X157612500Y-81535000D01*
X157612500Y-81432575D01*
X157620712Y-81387831D01*
X157630555Y-81361920D01*
X157630556Y-81361918D01*
X157633055Y-81355338D01*
X157634035Y-81348366D01*
X157657748Y-81179639D01*
X157657748Y-81179636D01*
X157658299Y-81175717D01*
X157658616Y-81153000D01*
X157638397Y-80972745D01*
X157619509Y-80918506D01*
X157612500Y-80877069D01*
X157612500Y-80670575D01*
X157620712Y-80625831D01*
X157630555Y-80599920D01*
X157630556Y-80599918D01*
X157633055Y-80593338D01*
X157658299Y-80413717D01*
X157658616Y-80391000D01*
X157638397Y-80210745D01*
X157619509Y-80156506D01*
X157612500Y-80115069D01*
X157612500Y-79908575D01*
X157620712Y-79863831D01*
X157630555Y-79837920D01*
X157630556Y-79837918D01*
X157633055Y-79831338D01*
X157658299Y-79651717D01*
X157658616Y-79629000D01*
X157638397Y-79448745D01*
X157619509Y-79394506D01*
X157612500Y-79353069D01*
X157612500Y-79146575D01*
X157620712Y-79101831D01*
X157630555Y-79075920D01*
X157630556Y-79075918D01*
X157633055Y-79069338D01*
X157658299Y-78889717D01*
X157658479Y-78876811D01*
X157658561Y-78870962D01*
X157658561Y-78870957D01*
X157658616Y-78867000D01*
X157638397Y-78686745D01*
X157619509Y-78632506D01*
X157612500Y-78591069D01*
X157612500Y-78384575D01*
X157620712Y-78339831D01*
X157630555Y-78313920D01*
X157630556Y-78313918D01*
X157633055Y-78307338D01*
X157634035Y-78300366D01*
X157657748Y-78131639D01*
X157657748Y-78131636D01*
X157658299Y-78127717D01*
X157658616Y-78105000D01*
X157658174Y-78101057D01*
X157655930Y-78081049D01*
X157659062Y-78035851D01*
X157662499Y-78027558D01*
X157678145Y-77882241D01*
X157675622Y-77811289D01*
X157667487Y-77766160D01*
X157650494Y-77671891D01*
X157650493Y-77671887D01*
X157649693Y-77667449D01*
X157648717Y-77664515D01*
X157645639Y-77646979D01*
X157641712Y-77606923D01*
X157642105Y-77578837D01*
X157646859Y-77541206D01*
X157653464Y-77513903D01*
X157683196Y-77432217D01*
X157683199Y-77432207D01*
X157684068Y-77429820D01*
X157706004Y-77350085D01*
X157713557Y-77310351D01*
X157714207Y-77304319D01*
X157721654Y-77235150D01*
X157721654Y-77235147D01*
X157722408Y-77228144D01*
X157705471Y-77082972D01*
X157687292Y-77014343D01*
X157649031Y-76924285D01*
X157631901Y-76883963D01*
X157631899Y-76883960D01*
X157630141Y-76879821D01*
X157624204Y-76870018D01*
X157612423Y-76844522D01*
X157600453Y-76808539D01*
X157594612Y-76781061D01*
X157590912Y-76743320D01*
X157591304Y-76715237D01*
X157591511Y-76713602D01*
X157596058Y-76677604D01*
X157602661Y-76650312D01*
X157637912Y-76553461D01*
X157639147Y-76550363D01*
X157639600Y-76549459D01*
X157640786Y-76546265D01*
X157640789Y-76546257D01*
X157646027Y-76532142D01*
X157646602Y-76530594D01*
X157662722Y-76478981D01*
X157678368Y-76333664D01*
X157675845Y-76262713D01*
X157672484Y-76244065D01*
X157650714Y-76123301D01*
X157649916Y-76118873D01*
X157644954Y-76103955D01*
X157625853Y-76046539D01*
X157620012Y-76019060D01*
X157616312Y-75981319D01*
X157616705Y-75953233D01*
X157621458Y-75915609D01*
X157628062Y-75888308D01*
X157641035Y-75852666D01*
X157653523Y-75827510D01*
X157676204Y-75792317D01*
X157712924Y-75735338D01*
X157713713Y-75735847D01*
X157713883Y-75735583D01*
X157711412Y-75734364D01*
X157752505Y-75651055D01*
X157769659Y-75616279D01*
X157791409Y-75549629D01*
X157816515Y-75405647D01*
X157908777Y-72314862D01*
X157930803Y-72247370D01*
X157985822Y-72202499D01*
X158056366Y-72194496D01*
X158120038Y-72225903D01*
X158152993Y-72275176D01*
X158600468Y-73493301D01*
X159274882Y-75329206D01*
X159282541Y-75348806D01*
X159286500Y-75358355D01*
X159294979Y-75377674D01*
X159374700Y-75500176D01*
X159421499Y-75553565D01*
X159424915Y-75556491D01*
X159424918Y-75556494D01*
X159529080Y-75645714D01*
X159529085Y-75645717D01*
X159532499Y-75648642D01*
X159536300Y-75651054D01*
X159536301Y-75651055D01*
X159584506Y-75681648D01*
X159606394Y-75699246D01*
X159633114Y-75726152D01*
X159650562Y-75748166D01*
X159667790Y-75775736D01*
X159670661Y-75780330D01*
X159682799Y-75805665D01*
X159695269Y-75841476D01*
X159701492Y-75868865D01*
X159705987Y-75908935D01*
X159705546Y-75940516D01*
X159699935Y-75980442D01*
X159692949Y-76007649D01*
X159691951Y-76010277D01*
X159691589Y-76011343D01*
X159691584Y-76011358D01*
X159680446Y-76044192D01*
X159680437Y-76044219D01*
X159680088Y-76045249D01*
X159674890Y-76062599D01*
X159665570Y-76098334D01*
X159654421Y-76244065D01*
X159654719Y-76248544D01*
X159654719Y-76248548D01*
X159656889Y-76281148D01*
X159659135Y-76314905D01*
X159689495Y-76457874D01*
X159969880Y-77221144D01*
X160133772Y-77667296D01*
X160141500Y-77710743D01*
X160141500Y-84456000D01*
X160141860Y-84459346D01*
X160141860Y-84459351D01*
X160150533Y-84540021D01*
X160153234Y-84565149D01*
X160153952Y-84568449D01*
X160153952Y-84568450D01*
X160160961Y-84600669D01*
X160164620Y-84617491D01*
X160199290Y-84721657D01*
X160278308Y-84844612D01*
X160281250Y-84848007D01*
X160281252Y-84848010D01*
X160287515Y-84855238D01*
X160324801Y-84898268D01*
X160328194Y-84901208D01*
X160428450Y-84988081D01*
X160428453Y-84988083D01*
X160435261Y-84993982D01*
X160568210Y-85054698D01*
X160591964Y-85061673D01*
X160632008Y-85073431D01*
X160632012Y-85073432D01*
X160636331Y-85074700D01*
X160640780Y-85075340D01*
X160640786Y-85075341D01*
X160776553Y-85094861D01*
X160776558Y-85094861D01*
X160781000Y-85095500D01*
X163704000Y-85095500D01*
X163707346Y-85095140D01*
X163707351Y-85095140D01*
X163809785Y-85084128D01*
X163809792Y-85084127D01*
X163813149Y-85083766D01*
X163829101Y-85080296D01*
X163862210Y-85073094D01*
X163862215Y-85073093D01*
X163865491Y-85072380D01*
X163969657Y-85037710D01*
X164092612Y-84958692D01*
X164146268Y-84912199D01*
X164201888Y-84848010D01*
X164236081Y-84808550D01*
X164236083Y-84808547D01*
X164241982Y-84801739D01*
X164302698Y-84668790D01*
X164322700Y-84600669D01*
X164323717Y-84593600D01*
X164342861Y-84460447D01*
X164342861Y-84460442D01*
X164343500Y-84456000D01*
X164343500Y-82300500D01*
X164363502Y-82232379D01*
X164417158Y-82185886D01*
X164469500Y-82174500D01*
X165101000Y-82174500D01*
X165104346Y-82174140D01*
X165104351Y-82174140D01*
X165206785Y-82163128D01*
X165206792Y-82163127D01*
X165210149Y-82162766D01*
X165213450Y-82162048D01*
X165259210Y-82152094D01*
X165259215Y-82152093D01*
X165262491Y-82151380D01*
X165366657Y-82116710D01*
X165489612Y-82037692D01*
X165543268Y-81991199D01*
X165601845Y-81923598D01*
X165633081Y-81887550D01*
X165633083Y-81887547D01*
X165638982Y-81880739D01*
X165699698Y-81747790D01*
X165715050Y-81695506D01*
X165718431Y-81683992D01*
X165718432Y-81683988D01*
X165719700Y-81679669D01*
X165722642Y-81659212D01*
X165739861Y-81539447D01*
X165739861Y-81539442D01*
X165740500Y-81535000D01*
X165740500Y-77469000D01*
X165734445Y-77412675D01*
X165729128Y-77363215D01*
X165729127Y-77363208D01*
X165728766Y-77359851D01*
X165717380Y-77307509D01*
X165682710Y-77203343D01*
X165627105Y-77116818D01*
X165614113Y-77090138D01*
X165582063Y-76998102D01*
X165582060Y-76998096D01*
X165579745Y-76991448D01*
X165483626Y-76837624D01*
X165478664Y-76832627D01*
X165360778Y-76713915D01*
X165360774Y-76713912D01*
X165355815Y-76708918D01*
X165308870Y-76679126D01*
X165267111Y-76635472D01*
X162605299Y-71998768D01*
X165318043Y-71998768D01*
X165336673Y-72235479D01*
X165337827Y-72240286D01*
X165337828Y-72240292D01*
X165355731Y-72314863D01*
X165392102Y-72466361D01*
X165393995Y-72470932D01*
X165393996Y-72470934D01*
X165412710Y-72516112D01*
X165482968Y-72685730D01*
X165607031Y-72888183D01*
X165761238Y-73068736D01*
X165941791Y-73222943D01*
X166144244Y-73347006D01*
X166148814Y-73348899D01*
X166148818Y-73348901D01*
X166352611Y-73433315D01*
X166363613Y-73437872D01*
X166442270Y-73456756D01*
X166589682Y-73492146D01*
X166589688Y-73492147D01*
X166594495Y-73493301D01*
X166831206Y-73511931D01*
X167067917Y-73493301D01*
X167072724Y-73492147D01*
X167072730Y-73492146D01*
X167220142Y-73456756D01*
X167298799Y-73437872D01*
X167309801Y-73433315D01*
X167513594Y-73348901D01*
X167513598Y-73348899D01*
X167518168Y-73347006D01*
X167720621Y-73222943D01*
X167901174Y-73068736D01*
X168055381Y-72888183D01*
X168179444Y-72685730D01*
X168249703Y-72516112D01*
X168268416Y-72470934D01*
X168268417Y-72470932D01*
X168270310Y-72466361D01*
X168306681Y-72314863D01*
X168324584Y-72240292D01*
X168324585Y-72240286D01*
X168325739Y-72235479D01*
X168344369Y-71998768D01*
X168325739Y-71762057D01*
X168318995Y-71733963D01*
X168271465Y-71535987D01*
X168270310Y-71531175D01*
X168224471Y-71420510D01*
X168181339Y-71316380D01*
X168181337Y-71316376D01*
X168179444Y-71311806D01*
X168055381Y-71109353D01*
X167901174Y-70928800D01*
X167720621Y-70774593D01*
X167518168Y-70650530D01*
X167513598Y-70648637D01*
X167513594Y-70648635D01*
X167303372Y-70561558D01*
X167303370Y-70561557D01*
X167298799Y-70559664D01*
X167220142Y-70540780D01*
X167072730Y-70505390D01*
X167072724Y-70505389D01*
X167067917Y-70504235D01*
X166831206Y-70485605D01*
X166594495Y-70504235D01*
X166589688Y-70505389D01*
X166589682Y-70505390D01*
X166442270Y-70540780D01*
X166363613Y-70559664D01*
X166359042Y-70561557D01*
X166359040Y-70561558D01*
X166148818Y-70648635D01*
X166148814Y-70648637D01*
X166144244Y-70650530D01*
X165941791Y-70774593D01*
X165761238Y-70928800D01*
X165607031Y-71109353D01*
X165482968Y-71311806D01*
X165481075Y-71316376D01*
X165481073Y-71316380D01*
X165437941Y-71420510D01*
X165392102Y-71531175D01*
X165390947Y-71535987D01*
X165343418Y-71733963D01*
X165336673Y-71762057D01*
X165318516Y-71992763D01*
X165318043Y-71998768D01*
X162605299Y-71998768D01*
X161836206Y-70659057D01*
X161821394Y-70618206D01*
X161639254Y-69585239D01*
X161338752Y-67881008D01*
X161331743Y-67856882D01*
X161323507Y-67828532D01*
X161323505Y-67828528D01*
X161321302Y-67820944D01*
X161317287Y-67814142D01*
X161317286Y-67814139D01*
X161251826Y-67703234D01*
X161247265Y-67695506D01*
X161240721Y-67689372D01*
X161240719Y-67689369D01*
X161147548Y-67602029D01*
X161140998Y-67595889D01*
X161132992Y-67591836D01*
X161132989Y-67591834D01*
X161019052Y-67534156D01*
X161019053Y-67534156D01*
X161011044Y-67530102D01*
X160867848Y-67503433D01*
X160859971Y-67503956D01*
X160859969Y-67503956D01*
X160819805Y-67506624D01*
X160805438Y-67507578D01*
X160802082Y-67508170D01*
X160802080Y-67508170D01*
X159695817Y-67703234D01*
X157756209Y-68045239D01*
X157732083Y-68052248D01*
X157703733Y-68060484D01*
X157703729Y-68060486D01*
X157696145Y-68062689D01*
X157689343Y-68066704D01*
X157689340Y-68066705D01*
X157640500Y-68095532D01*
X157570707Y-68136726D01*
X157564573Y-68143270D01*
X157564570Y-68143272D01*
X157477230Y-68236443D01*
X157471090Y-68242993D01*
X157467037Y-68250999D01*
X157467035Y-68251002D01*
X157416829Y-68350178D01*
X157405303Y-68372947D01*
X157378634Y-68516143D01*
X157379076Y-68522791D01*
X157355282Y-68589102D01*
X157298982Y-68632355D01*
X157228235Y-68638303D01*
X157187645Y-68622291D01*
X157119142Y-68580313D01*
X157119138Y-68580311D01*
X157115473Y-68578065D01*
X157111537Y-68576337D01*
X156868642Y-68469713D01*
X156868638Y-68469712D01*
X156864714Y-68467989D01*
X156601335Y-68392964D01*
X156597093Y-68392360D01*
X156597087Y-68392359D01*
X156396603Y-68363826D01*
X156330212Y-68354377D01*
X156186358Y-68353624D01*
X156060646Y-68352966D01*
X156060640Y-68352966D01*
X156056360Y-68352944D01*
X156052116Y-68353503D01*
X156052112Y-68353503D01*
X155933071Y-68369175D01*
X155784847Y-68388689D01*
X155780707Y-68389822D01*
X155780705Y-68389822D01*
X155707777Y-68409773D01*
X155520697Y-68460952D01*
X155516749Y-68462636D01*
X155272744Y-68566713D01*
X155272740Y-68566715D01*
X155268799Y-68568396D01*
X155265124Y-68570596D01*
X155265117Y-68570599D01*
X155254504Y-68576951D01*
X155182277Y-68594610D01*
X155170433Y-68593902D01*
X155170423Y-68593902D01*
X155167380Y-68593720D01*
X155164342Y-68593833D01*
X155164336Y-68593833D01*
X155143467Y-68594610D01*
X155118883Y-68595525D01*
X155115868Y-68595932D01*
X155115865Y-68595932D01*
X155087941Y-68599699D01*
X155020417Y-68608809D01*
X155013381Y-68611569D01*
X155013380Y-68611569D01*
X154960387Y-68632355D01*
X154884352Y-68662179D01*
X154880448Y-68664397D01*
X154880441Y-68664400D01*
X154826526Y-68695027D01*
X154822620Y-68697246D01*
X154707100Y-68786790D01*
X154621490Y-68905251D01*
X154619402Y-68909232D01*
X154619401Y-68909234D01*
X154591654Y-68962145D01*
X154588518Y-68968124D01*
X154587017Y-68972363D01*
X154587015Y-68972369D01*
X154562225Y-69042406D01*
X154539750Y-69105904D01*
X154538867Y-69110319D01*
X154517158Y-69218866D01*
X154495928Y-69267682D01*
X154471771Y-69301300D01*
X154469767Y-69305085D01*
X154357078Y-69517918D01*
X154307525Y-69568761D01*
X154238350Y-69584743D01*
X154171517Y-69560789D01*
X154153427Y-69544733D01*
X154114067Y-69502377D01*
X154110752Y-69499663D01*
X154110748Y-69499660D01*
X153905465Y-69331638D01*
X153902147Y-69328922D01*
X153668646Y-69185833D01*
X153646620Y-69176164D01*
X153421815Y-69077481D01*
X153421811Y-69077480D01*
X153417887Y-69075757D01*
X153154508Y-69000732D01*
X153150266Y-69000128D01*
X153150260Y-69000127D01*
X152957543Y-68972699D01*
X152892920Y-68943298D01*
X152854452Y-68883626D01*
X152854350Y-68812630D01*
X152892649Y-68752849D01*
X152929835Y-68730443D01*
X153110537Y-68660535D01*
X153188219Y-68630482D01*
X153192137Y-68629041D01*
X153242169Y-68611569D01*
X154267974Y-68253342D01*
X154271903Y-68252042D01*
X155359638Y-67912209D01*
X155363601Y-67911043D01*
X156233430Y-67670635D01*
X156462007Y-67607460D01*
X156466052Y-67606414D01*
X157573896Y-67339421D01*
X157577974Y-67338510D01*
X158694024Y-67108403D01*
X158698129Y-67107627D01*
X159821236Y-66914642D01*
X159825365Y-66914003D01*
X160954229Y-66758364D01*
X160958377Y-66757862D01*
X161809367Y-66669170D01*
X162091803Y-66639734D01*
X162095946Y-66639372D01*
X162490026Y-66611469D01*
X163232655Y-66558888D01*
X163236827Y-66558662D01*
X164375562Y-66515912D01*
X164379739Y-66515824D01*
X164708509Y-66514389D01*
X165519300Y-66510851D01*
X165523463Y-66510902D01*
G37*
%TD.AperFunction*%
%TD*%
%TA.AperFunction,Conductor*%
%TO.N,/SH_A*%
G36*
X151937975Y-69781543D02*
G01*
X151983288Y-69808918D01*
X153954226Y-71663918D01*
X153990122Y-71725170D01*
X153987204Y-71796106D01*
X153982661Y-71807620D01*
X153972498Y-71830077D01*
X153969561Y-71835037D01*
X153969094Y-71834823D01*
X153967060Y-71839261D01*
X153967059Y-71839263D01*
X153965292Y-71843120D01*
X153959725Y-71851652D01*
X153958460Y-71853788D01*
X153957474Y-71855101D01*
X153944920Y-71874340D01*
X149715243Y-76632727D01*
X149687091Y-76656335D01*
X149619087Y-76698171D01*
X149619085Y-76698173D01*
X149613088Y-76701862D01*
X149483493Y-76828771D01*
X149385235Y-76981238D01*
X149382826Y-76987858D01*
X149382825Y-76987859D01*
X149379448Y-76997137D01*
X149355221Y-77037751D01*
X148971000Y-77470000D01*
X144526000Y-77470000D01*
X144646754Y-77343000D01*
X144653770Y-77335621D01*
X144653771Y-77335621D01*
X151805619Y-69813849D01*
X151867054Y-69778265D01*
X151937975Y-69781543D01*
G37*
%TD.AperFunction*%
%TD*%
%TA.AperFunction,Conductor*%
%TO.N,/SH_B*%
G36*
X152628600Y-78003400D02*
G01*
X157099000Y-77978702D01*
X157099000Y-81535000D01*
X157078998Y-81603121D01*
X157025342Y-81649614D01*
X156973000Y-81661000D01*
X155702000Y-81661000D01*
X155702000Y-84456000D01*
X155681998Y-84524121D01*
X155628342Y-84570614D01*
X155576000Y-84582000D01*
X152653000Y-84582000D01*
X152584879Y-84561998D01*
X152538386Y-84508342D01*
X152527000Y-84456000D01*
X152527000Y-77469000D01*
X152547002Y-77400879D01*
X152600658Y-77354386D01*
X152653000Y-77343000D01*
X152828562Y-77343000D01*
X152628600Y-78003400D01*
G37*
%TD.AperFunction*%
%TD*%
%TA.AperFunction,Conductor*%
%TO.N,/SH_B*%
G36*
X157370396Y-69451694D02*
G01*
X157434564Y-69482075D01*
X157472120Y-69542326D01*
X157476689Y-69579911D01*
X157303244Y-75390325D01*
X157281494Y-75456975D01*
X157281293Y-75457171D01*
X157183035Y-75609638D01*
X157120997Y-75780085D01*
X157098263Y-75960040D01*
X157115963Y-76140560D01*
X157127000Y-76173738D01*
X157162669Y-76280961D01*
X157165192Y-76351912D01*
X157158190Y-76370777D01*
X157157635Y-76371638D01*
X157095597Y-76542085D01*
X157072863Y-76722040D01*
X157090563Y-76902560D01*
X157147818Y-77074673D01*
X157151465Y-77080695D01*
X157151466Y-77080697D01*
X157190911Y-77145828D01*
X157209090Y-77214457D01*
X157201537Y-77254191D01*
X157146397Y-77405685D01*
X157123663Y-77585640D01*
X157141363Y-77766160D01*
X157152400Y-77799338D01*
X157162446Y-77829537D01*
X157164969Y-77900489D01*
X157128732Y-77961541D01*
X157112415Y-77970890D01*
X157105754Y-77978664D01*
X152628600Y-78003400D01*
X153249424Y-75953046D01*
X154423212Y-72076460D01*
X154435911Y-72048749D01*
X154435737Y-72048655D01*
X154437128Y-72046093D01*
X154530926Y-71873339D01*
X154564360Y-71811762D01*
X154564361Y-71811760D01*
X154566410Y-71807986D01*
X154663211Y-71551809D01*
X154724349Y-71284865D01*
X154748693Y-71012093D01*
X154749135Y-70969932D01*
X154735402Y-70768489D01*
X154737557Y-70735216D01*
X155043278Y-69206610D01*
X155076250Y-69143737D01*
X155137982Y-69108670D01*
X155186479Y-69106865D01*
X157370396Y-69451694D01*
G37*
%TD.AperFunction*%
%TD*%
M02*
