%TF.GenerationSoftware,KiCad,Pcbnew,(6.0.6)*%
%TF.CreationDate,2022-10-05T22:51:16+08:00*%
%TF.ProjectId,rm_foc_driver,726d5f66-6f63-45f6-9472-697665722e6b,rev?*%
%TF.SameCoordinates,Original*%
%TF.FileFunction,Copper,L4,Bot*%
%TF.FilePolarity,Positive*%
%FSLAX46Y46*%
G04 Gerber Fmt 4.6, Leading zero omitted, Abs format (unit mm)*
G04 Created by KiCad (PCBNEW (6.0.6)) date 2022-10-05 22:51:16*
%MOMM*%
%LPD*%
G01*
G04 APERTURE LIST*
G04 Aperture macros list*
%AMRoundRect*
0 Rectangle with rounded corners*
0 $1 Rounding radius*
0 $2 $3 $4 $5 $6 $7 $8 $9 X,Y pos of 4 corners*
0 Add a 4 corners polygon primitive as box body*
4,1,4,$2,$3,$4,$5,$6,$7,$8,$9,$2,$3,0*
0 Add four circle primitives for the rounded corners*
1,1,$1+$1,$2,$3*
1,1,$1+$1,$4,$5*
1,1,$1+$1,$6,$7*
1,1,$1+$1,$8,$9*
0 Add four rect primitives between the rounded corners*
20,1,$1+$1,$2,$3,$4,$5,0*
20,1,$1+$1,$4,$5,$6,$7,0*
20,1,$1+$1,$6,$7,$8,$9,0*
20,1,$1+$1,$8,$9,$2,$3,0*%
%AMHorizOval*
0 Thick line with rounded ends*
0 $1 width*
0 $2 $3 position (X,Y) of the first rounded end (center of the circle)*
0 $4 $5 position (X,Y) of the second rounded end (center of the circle)*
0 Add line between two ends*
20,1,$1,$2,$3,$4,$5,0*
0 Add two circle primitives to create the rounded ends*
1,1,$1,$2,$3*
1,1,$1,$4,$5*%
%AMRotRect*
0 Rectangle, with rotation*
0 The origin of the aperture is its center*
0 $1 length*
0 $2 width*
0 $3 Rotation angle, in degrees counterclockwise*
0 Add horizontal line*
21,1,$1,$2,0,0,$3*%
G04 Aperture macros list end*
%TA.AperFunction,ComponentPad*%
%ADD10RotRect,1.700000X1.700000X232.000000*%
%TD*%
%TA.AperFunction,ComponentPad*%
%ADD11HorizOval,1.700000X0.000000X0.000000X0.000000X0.000000X0*%
%TD*%
%TA.AperFunction,ComponentPad*%
%ADD12R,1.700000X1.700000*%
%TD*%
%TA.AperFunction,ComponentPad*%
%ADD13O,1.700000X1.700000*%
%TD*%
%TA.AperFunction,ComponentPad*%
%ADD14C,1.400000*%
%TD*%
%TA.AperFunction,ComponentPad*%
%ADD15RotRect,3.500000X3.500000X325.000000*%
%TD*%
%TA.AperFunction,ComponentPad*%
%ADD16C,3.500000*%
%TD*%
%TA.AperFunction,ComponentPad*%
%ADD17RotRect,3.000000X3.000000X10.000000*%
%TD*%
%TA.AperFunction,ComponentPad*%
%ADD18C,3.000000*%
%TD*%
%TA.AperFunction,ComponentPad*%
%ADD19C,0.500000*%
%TD*%
%TA.AperFunction,SMDPad,CuDef*%
%ADD20RotRect,1.800000X3.100000X325.000000*%
%TD*%
%TA.AperFunction,SMDPad,CuDef*%
%ADD21RoundRect,0.250000X-0.475000X0.250000X-0.475000X-0.250000X0.475000X-0.250000X0.475000X0.250000X0*%
%TD*%
%TA.AperFunction,SMDPad,CuDef*%
%ADD22RoundRect,0.225000X-0.225000X-0.250000X0.225000X-0.250000X0.225000X0.250000X-0.225000X0.250000X0*%
%TD*%
%TA.AperFunction,SMDPad,CuDef*%
%ADD23RoundRect,0.150000X-0.675000X-0.150000X0.675000X-0.150000X0.675000X0.150000X-0.675000X0.150000X0*%
%TD*%
%TA.AperFunction,SMDPad,CuDef*%
%ADD24RoundRect,0.250000X-1.425000X0.362500X-1.425000X-0.362500X1.425000X-0.362500X1.425000X0.362500X0*%
%TD*%
%TA.AperFunction,ViaPad*%
%ADD25C,0.400000*%
%TD*%
%TA.AperFunction,ViaPad*%
%ADD26C,0.800000*%
%TD*%
%TA.AperFunction,Conductor*%
%ADD27C,0.177800*%
%TD*%
%TA.AperFunction,Conductor*%
%ADD28C,0.381000*%
%TD*%
%TA.AperFunction,Conductor*%
%ADD29C,0.254000*%
%TD*%
G04 APERTURE END LIST*
D10*
%TO.P,J4,1,Pin_1*%
%TO.N,/MOSI*%
X148590000Y-128651000D03*
D11*
%TO.P,J4,2,Pin_2*%
%TO.N,/MISO*%
X146588453Y-127087220D03*
%TO.P,J4,3,Pin_3*%
%TO.N,/SCLK*%
X144586905Y-125523440D03*
%TO.P,J4,4,Pin_4*%
%TO.N,/CS2*%
X142585358Y-123959660D03*
%TD*%
D12*
%TO.P,J1,1,Pin_1*%
%TO.N,+3.3V*%
X174869000Y-131769000D03*
D13*
%TO.P,J1,2,Pin_2*%
%TO.N,/SWDIO*%
X172329000Y-131769000D03*
%TO.P,J1,3,Pin_3*%
%TO.N,/SWCLK*%
X169789000Y-131769000D03*
%TO.P,J1,4,Pin_4*%
%TO.N,GND*%
X167249000Y-131769000D03*
%TD*%
D14*
%TO.P,J6,*%
%TO.N,*%
X194883220Y-70491209D03*
X185872548Y-64181868D03*
D15*
%TO.P,J6,1,Pin_1*%
%TO.N,GND*%
X186690000Y-76962000D03*
D16*
%TO.P,J6,2,Pin_2*%
%TO.N,+24V*%
X182594240Y-74094118D03*
%TD*%
D14*
%TO.P,J8,*%
%TO.N,*%
X161715778Y-64309412D03*
X148913278Y-66566838D03*
D17*
%TO.P,J8,1,Pin_1*%
%TO.N,/SH_C*%
X159629596Y-69754395D03*
D18*
%TO.P,J8,2,Pin_2*%
%TO.N,/SH_B*%
X156182769Y-70362164D03*
%TO.P,J8,3,Pin_3*%
%TO.N,/SH_A*%
X152735942Y-70969932D03*
%TD*%
D19*
%TO.P,U1,9,GND*%
%TO.N,GND*%
X182878052Y-95173399D03*
X184369351Y-93043604D03*
X182558804Y-93362852D03*
X183304454Y-92297955D03*
X183623702Y-94108502D03*
D20*
X183091253Y-93735677D03*
D19*
X181813155Y-94427750D03*
%TD*%
D12*
%TO.P,J3,1,Pin_1*%
%TO.N,+5V*%
X163068000Y-131826000D03*
D13*
%TO.P,J3,2,Pin_2*%
%TO.N,/TXD*%
X160528000Y-131826000D03*
%TO.P,J3,3,Pin_3*%
%TO.N,/RXD*%
X157988000Y-131826000D03*
%TO.P,J3,4,Pin_4*%
%TO.N,GND*%
X155448000Y-131826000D03*
%TD*%
D12*
%TO.P,J2,1,Pin_1*%
%TO.N,/PWM1*%
X137414000Y-101092000D03*
D13*
%TO.P,J2,2,Pin_2*%
%TO.N,/PWM2*%
X137414000Y-98552000D03*
%TO.P,J2,3,Pin_3*%
%TO.N,/PWM3*%
X137414000Y-96012000D03*
%TO.P,J2,4,Pin_4*%
%TO.N,GND*%
X137414000Y-93472000D03*
%TD*%
D21*
%TO.P,C33,1*%
%TO.N,+24V*%
X153370000Y-89857000D03*
%TO.P,C33,2*%
%TO.N,GND*%
X153370000Y-91757000D03*
%TD*%
D22*
%TO.P,C16,1*%
%TO.N,+5V*%
X162547000Y-104648000D03*
%TO.P,C16,2*%
%TO.N,GND*%
X164097000Y-104648000D03*
%TD*%
D21*
%TO.P,C24,1*%
%TO.N,+24V*%
X143891000Y-89855000D03*
%TO.P,C24,2*%
%TO.N,GND*%
X143891000Y-91755000D03*
%TD*%
%TO.P,C26,1*%
%TO.N,+24V*%
X148798000Y-89857000D03*
%TO.P,C26,2*%
%TO.N,GND*%
X148798000Y-91757000D03*
%TD*%
%TO.P,C29,1*%
%TO.N,+24V*%
X160355000Y-89857000D03*
%TO.P,C29,2*%
%TO.N,GND*%
X160355000Y-91757000D03*
%TD*%
D23*
%TO.P,U7,1,VDD*%
%TO.N,+5V*%
X162475000Y-102870000D03*
%TO.P,U7,2,MODE*%
%TO.N,/MODE*%
X162475000Y-101600000D03*
%TO.P,U7,3,OUT*%
%TO.N,/ADC1*%
X162475000Y-100330000D03*
%TO.P,U7,4,GND*%
%TO.N,GND*%
X162475000Y-99060000D03*
%TO.P,U7,5,PUSH*%
%TO.N,unconnected-(U7-Pad5)*%
X167725000Y-99060000D03*
%TO.P,U7,6,A*%
%TO.N,/MISO*%
X167725000Y-100330000D03*
%TO.P,U7,7,B*%
%TO.N,/SCLK*%
X167725000Y-101600000D03*
%TO.P,U7,8,Z*%
%TO.N,/CS1*%
X167725000Y-102870000D03*
%TD*%
D24*
%TO.P,R10,1*%
%TO.N,/SL_A*%
X142240000Y-80476500D03*
%TO.P,R10,2*%
%TO.N,GND*%
X142240000Y-86401500D03*
%TD*%
%TO.P,R11,1*%
%TO.N,/SL_B*%
X150876000Y-80095500D03*
%TO.P,R11,2*%
%TO.N,GND*%
X150876000Y-86020500D03*
%TD*%
D21*
%TO.P,C30,1*%
%TO.N,+24V*%
X157942000Y-89857000D03*
%TO.P,C30,2*%
%TO.N,GND*%
X157942000Y-91757000D03*
%TD*%
%TO.P,C32,1*%
%TO.N,+24V*%
X151084000Y-89857000D03*
%TO.P,C32,2*%
%TO.N,GND*%
X151084000Y-91757000D03*
%TD*%
%TO.P,C27,1*%
%TO.N,+24V*%
X162768000Y-89857000D03*
%TO.P,C27,2*%
%TO.N,GND*%
X162768000Y-91757000D03*
%TD*%
%TO.P,C25,1*%
%TO.N,+24V*%
X146385000Y-89857000D03*
%TO.P,C25,2*%
%TO.N,GND*%
X146385000Y-91757000D03*
%TD*%
%TO.P,C31,1*%
%TO.N,+24V*%
X155656000Y-89857000D03*
%TO.P,C31,2*%
%TO.N,GND*%
X155656000Y-91757000D03*
%TD*%
D25*
%TO.N,*%
X148844000Y-83566000D03*
X149098000Y-84582000D03*
%TO.N,+5V*%
X185420000Y-112268000D03*
X178562000Y-105156000D03*
X178562000Y-104394000D03*
X162814000Y-105664000D03*
%TO.N,GND*%
X196088000Y-109728000D03*
X173482000Y-120904000D03*
X180340000Y-109982000D03*
X187452000Y-80264000D03*
X171704000Y-89916000D03*
X154940000Y-103886000D03*
X182880000Y-79502000D03*
X180086000Y-101854000D03*
X165100000Y-111760000D03*
X136144000Y-105156000D03*
X161544000Y-104902000D03*
X165100000Y-68834000D03*
X137160000Y-118872000D03*
X175260000Y-117856000D03*
X186436000Y-108712000D03*
X175768000Y-109220000D03*
X195580000Y-96520000D03*
X156972000Y-120396000D03*
X144526000Y-117094000D03*
X155194000Y-106172000D03*
X158496000Y-120142000D03*
X176530000Y-116078000D03*
X187706000Y-114046000D03*
X159004000Y-77470000D03*
X168402000Y-70104000D03*
X195580000Y-93980000D03*
X169164000Y-76962000D03*
X175006000Y-115316000D03*
X159512000Y-79502000D03*
X159258000Y-78486000D03*
X186690000Y-122174000D03*
X148082000Y-105664000D03*
X167894000Y-112014000D03*
X134366000Y-106934000D03*
X135128000Y-104648000D03*
X158496000Y-121158000D03*
X179832000Y-100838000D03*
X167640000Y-78994000D03*
X134112000Y-111252000D03*
X148082000Y-104648000D03*
X156972000Y-119634000D03*
X135382000Y-115570000D03*
X136652000Y-116840000D03*
X137414000Y-86106000D03*
X180848000Y-100330000D03*
X160274000Y-119380000D03*
X191516000Y-82550000D03*
X169926000Y-89662000D03*
X156972000Y-118618000D03*
X156718000Y-113792000D03*
X186690000Y-118364000D03*
X158750000Y-122174000D03*
X159004000Y-76708000D03*
X171704000Y-92202000D03*
X187960000Y-121666000D03*
X137414000Y-114300000D03*
X192786000Y-88138000D03*
X160528000Y-122174000D03*
X167894000Y-75946000D03*
X191770000Y-89662000D03*
X171450000Y-87376000D03*
X166116000Y-91948000D03*
X189484000Y-81026000D03*
X161544000Y-106680000D03*
X184150000Y-79756000D03*
X159766000Y-118618000D03*
X138176000Y-89408000D03*
X168910000Y-90678000D03*
X170180000Y-92202000D03*
X156972000Y-122174000D03*
X169418000Y-88392000D03*
X151130000Y-123444000D03*
X136906000Y-112014000D03*
X181356000Y-102362000D03*
X143510000Y-118618000D03*
X153416000Y-110490000D03*
X175768000Y-110998000D03*
X195580000Y-105156000D03*
X177292000Y-109474000D03*
X138430000Y-84582000D03*
X173228000Y-118364000D03*
X174752000Y-119126000D03*
X167894000Y-113792000D03*
X143002000Y-118364000D03*
X138938000Y-83058000D03*
X180848000Y-101600000D03*
X187706000Y-106426000D03*
X185674000Y-106934000D03*
X136652000Y-88138000D03*
X148844000Y-106172000D03*
X192532000Y-83820000D03*
X142494000Y-116840000D03*
X155956000Y-114808000D03*
X194310000Y-108204000D03*
X176530000Y-119380000D03*
X155194000Y-105410000D03*
X195580000Y-92964000D03*
X137414000Y-110490000D03*
X134620000Y-105664000D03*
X138938000Y-90424000D03*
X158242000Y-75946000D03*
X158496000Y-78994000D03*
X158496000Y-77216000D03*
X195580000Y-95250000D03*
X147828000Y-109728000D03*
X156972000Y-121666000D03*
X158242000Y-80010000D03*
X174752000Y-119888000D03*
X148844000Y-104902000D03*
X147066000Y-110236000D03*
X151130000Y-122682000D03*
X161544000Y-106172000D03*
X166878000Y-113284000D03*
X158750000Y-75692000D03*
X187706000Y-117348000D03*
X191770000Y-110490000D03*
X179832000Y-100076000D03*
X192278000Y-117602000D03*
X158242000Y-74676000D03*
X155194000Y-104394000D03*
X188976000Y-120142000D03*
X173228000Y-117348000D03*
X158496000Y-78232000D03*
X193548000Y-114300000D03*
X135382000Y-113538000D03*
X134366000Y-107442000D03*
X166878000Y-111760000D03*
X152908000Y-110236000D03*
X158750000Y-119126000D03*
X192278000Y-88646000D03*
X183896000Y-112776000D03*
X160528000Y-121158000D03*
X148590000Y-109220000D03*
X183134000Y-112776000D03*
D26*
%TO.N,+12V*%
X188214000Y-92964000D03*
X188722000Y-95758000D03*
D25*
%TO.N,/SH_A*%
X146812000Y-82296000D03*
X146304000Y-84328000D03*
X145288000Y-78740000D03*
X147320000Y-79248000D03*
X145288000Y-78232000D03*
X148336000Y-80264000D03*
X147828000Y-79756000D03*
X145288000Y-83312000D03*
X144780000Y-80772000D03*
X145796000Y-79248000D03*
X148336000Y-79756000D03*
X147320000Y-83820000D03*
X146812000Y-77724000D03*
X145796000Y-84328000D03*
X147320000Y-79756000D03*
X147320000Y-82804000D03*
X148336000Y-78740000D03*
X146304000Y-81280000D03*
X148336000Y-78232000D03*
X145288000Y-83820000D03*
X148336000Y-77724000D03*
X148336000Y-81280000D03*
X146812000Y-81788000D03*
X144780000Y-82296000D03*
X146812000Y-83312000D03*
X146304000Y-78740000D03*
X145288000Y-81788000D03*
X145796000Y-79756000D03*
X146812000Y-78232000D03*
X145288000Y-79248000D03*
X146812000Y-80772000D03*
X146304000Y-82804000D03*
X144780000Y-79756000D03*
X144780000Y-84328000D03*
X145288000Y-80772000D03*
X145288000Y-79756000D03*
X145796000Y-81788000D03*
X146812000Y-84328000D03*
X146304000Y-83312000D03*
X148336000Y-79248000D03*
X147320000Y-78740000D03*
X145796000Y-83312000D03*
X147320000Y-81788000D03*
X145288000Y-82804000D03*
X146304000Y-79248000D03*
X147320000Y-80772000D03*
X144780000Y-83820000D03*
X147828000Y-80772000D03*
X147320000Y-78232000D03*
X148844000Y-78232000D03*
X145796000Y-78232000D03*
X147828000Y-78232000D03*
X145796000Y-77724000D03*
X147828000Y-79248000D03*
X146812000Y-79248000D03*
X145796000Y-80772000D03*
X147828000Y-78740000D03*
X145288000Y-82296000D03*
X145796000Y-78740000D03*
X144780000Y-78740000D03*
X146304000Y-80772000D03*
X145288000Y-77724000D03*
X145796000Y-81280000D03*
X146304000Y-80264000D03*
X144780000Y-81788000D03*
X146304000Y-78232000D03*
X144780000Y-81280000D03*
X146304000Y-77724000D03*
X147320000Y-81280000D03*
X144780000Y-83312000D03*
X147320000Y-82296000D03*
X146304000Y-82296000D03*
X146304000Y-79756000D03*
X145288000Y-81280000D03*
X144780000Y-78232000D03*
X146812000Y-80264000D03*
X146812000Y-81280000D03*
X144780000Y-80264000D03*
X147320000Y-83312000D03*
X147828000Y-77724000D03*
X147320000Y-77724000D03*
X144780000Y-82804000D03*
X147828000Y-80264000D03*
X147320000Y-80264000D03*
X145288000Y-84328000D03*
X145796000Y-80264000D03*
X145796000Y-82804000D03*
X146304000Y-83820000D03*
X148336000Y-80772000D03*
X144780000Y-77724000D03*
X145796000Y-82296000D03*
X146812000Y-82804000D03*
X147320000Y-84328000D03*
X146812000Y-78740000D03*
X146304000Y-81788000D03*
X146812000Y-83820000D03*
X146812000Y-79756000D03*
X144780000Y-79248000D03*
X147828000Y-81280000D03*
X148844000Y-77724000D03*
X145288000Y-80264000D03*
X148844000Y-78740000D03*
X145796000Y-83820000D03*
%TO.N,/SH_B*%
X153924000Y-80264000D03*
X154432000Y-79756000D03*
X152908000Y-81788000D03*
X153924000Y-79248000D03*
X155448000Y-79248000D03*
X155956000Y-78740000D03*
X155956000Y-80772000D03*
X156464000Y-79756000D03*
X156464000Y-81280000D03*
X155448000Y-84328000D03*
X155956000Y-79248000D03*
X154940000Y-80772000D03*
X154940000Y-83820000D03*
X153416000Y-79756000D03*
X154432000Y-79248000D03*
X154432000Y-84328000D03*
X156464000Y-80772000D03*
X156972000Y-77724000D03*
X156464000Y-78740000D03*
X156464000Y-80264000D03*
X153924000Y-80772000D03*
X153416000Y-81280000D03*
X152908000Y-79248000D03*
X152908000Y-81280000D03*
X155956000Y-79756000D03*
X155448000Y-78232000D03*
X152908000Y-77724000D03*
X153924000Y-78232000D03*
X152908000Y-82804000D03*
X153924000Y-82804000D03*
X155448000Y-83312000D03*
X153416000Y-77724000D03*
X154940000Y-79248000D03*
X156972000Y-80264000D03*
X156972000Y-79248000D03*
X154432000Y-83312000D03*
X153924000Y-79756000D03*
X155448000Y-82804000D03*
X154940000Y-82804000D03*
X152908000Y-78740000D03*
X154432000Y-83820000D03*
X154432000Y-82804000D03*
X153416000Y-84328000D03*
X156464000Y-79248000D03*
X153416000Y-83820000D03*
X154940000Y-79756000D03*
X152908000Y-78232000D03*
X156972000Y-78740000D03*
X153416000Y-83312000D03*
X153416000Y-82296000D03*
X153924000Y-78740000D03*
X154940000Y-81280000D03*
X155448000Y-78740000D03*
X154940000Y-82296000D03*
X152908000Y-83820000D03*
X153416000Y-79248000D03*
X153924000Y-82296000D03*
X152908000Y-84328000D03*
X152908000Y-82296000D03*
X153416000Y-80772000D03*
X153924000Y-77724000D03*
X154432000Y-78232000D03*
X154432000Y-78740000D03*
X154432000Y-81788000D03*
X154940000Y-83312000D03*
X154940000Y-78740000D03*
X156464000Y-77724000D03*
X155448000Y-80772000D03*
X153416000Y-78740000D03*
X155956000Y-80264000D03*
X153924000Y-83820000D03*
X154940000Y-80264000D03*
X154940000Y-78232000D03*
X152400000Y-92964000D03*
X155448000Y-81788000D03*
X154432000Y-82296000D03*
X155448000Y-79756000D03*
X155448000Y-81280000D03*
X155448000Y-77724000D03*
X154432000Y-80264000D03*
X154432000Y-80772000D03*
X154432000Y-77724000D03*
X153924000Y-84328000D03*
X156464000Y-78232000D03*
X153416000Y-81788000D03*
X154940000Y-84328000D03*
X153416000Y-78232000D03*
X155448000Y-83820000D03*
X155956000Y-77724000D03*
X155956000Y-78232000D03*
X156972000Y-79756000D03*
X156972000Y-81280000D03*
X153416000Y-82804000D03*
X155448000Y-82296000D03*
X156972000Y-80772000D03*
X155448000Y-80264000D03*
X152908000Y-83312000D03*
X153416000Y-80264000D03*
X156972000Y-78232000D03*
X152908000Y-80772000D03*
X153924000Y-83312000D03*
X153924000Y-81788000D03*
X155956000Y-81280000D03*
X154432000Y-81280000D03*
X154940000Y-77724000D03*
X153924000Y-81280000D03*
X154940000Y-81788000D03*
%TO.N,+3.3V*%
X152908000Y-120812497D03*
X163576000Y-114046000D03*
X158750000Y-114046000D03*
X152654000Y-114046000D03*
D26*
X190246000Y-91440000D03*
D25*
X150368000Y-120904000D03*
X164592000Y-123190000D03*
%TO.N,Net-(D1-Pad1)*%
X159004000Y-115588500D03*
X164846000Y-115062000D03*
%TO.N,/SWDIO*%
X163322000Y-118110000D03*
%TO.N,/SWCLK*%
X161290000Y-115588500D03*
%TO.N,/TXD*%
X163830000Y-120650000D03*
%TO.N,/RXD*%
X163068000Y-119634000D03*
%TO.N,/SH_C*%
X161798000Y-78486000D03*
X162306000Y-81026000D03*
X161798000Y-77978000D03*
X161290000Y-79502000D03*
X159004000Y-92964000D03*
X162814000Y-82042000D03*
X161290000Y-77470000D03*
X162306000Y-77470000D03*
X162306000Y-83566000D03*
X164338000Y-78994000D03*
X163322000Y-80518000D03*
X161290000Y-80518000D03*
X161798000Y-83058000D03*
X163322000Y-84074000D03*
X164846000Y-77978000D03*
X160782000Y-81534000D03*
X163830000Y-78994000D03*
X162814000Y-82550000D03*
X163322000Y-79502000D03*
X162814000Y-83058000D03*
X161798000Y-83566000D03*
X164338000Y-80010000D03*
X162814000Y-77470000D03*
X161290000Y-80010000D03*
X162306000Y-81534000D03*
X164338000Y-77470000D03*
X164846000Y-80010000D03*
X162306000Y-82042000D03*
X163830000Y-81026000D03*
X160782000Y-82550000D03*
X164338000Y-81026000D03*
X162306000Y-77978000D03*
X161290000Y-82042000D03*
X163322000Y-81534000D03*
X161798000Y-80010000D03*
X163322000Y-83566000D03*
X162306000Y-83058000D03*
X162306000Y-82550000D03*
X162814000Y-78994000D03*
X161290000Y-84074000D03*
X160782000Y-79502000D03*
X160782000Y-77978000D03*
X163322000Y-82550000D03*
X163322000Y-77470000D03*
X164846000Y-80518000D03*
X163322000Y-82042000D03*
X160782000Y-83566000D03*
X162814000Y-79502000D03*
X162306000Y-80518000D03*
X163322000Y-81026000D03*
X163322000Y-80010000D03*
X161798000Y-80518000D03*
X164846000Y-79502000D03*
X161798000Y-78994000D03*
X163830000Y-81534000D03*
X162306000Y-80010000D03*
X160782000Y-80518000D03*
X161290000Y-83566000D03*
X164846000Y-77470000D03*
X164846000Y-78994000D03*
X161290000Y-83058000D03*
X162814000Y-77978000D03*
X161290000Y-78486000D03*
X160782000Y-83058000D03*
X162814000Y-81534000D03*
X164338000Y-78486000D03*
X163322000Y-78994000D03*
X162306000Y-78994000D03*
X161798000Y-82042000D03*
X162306000Y-78486000D03*
X162814000Y-81026000D03*
X162814000Y-80010000D03*
X162814000Y-84074000D03*
X160782000Y-82042000D03*
X163830000Y-80010000D03*
X163322000Y-78486000D03*
X164338000Y-81534000D03*
X164846000Y-78486000D03*
X160782000Y-81026000D03*
X161798000Y-82550000D03*
X160782000Y-78994000D03*
X161798000Y-84074000D03*
X161798000Y-81026000D03*
X162814000Y-78486000D03*
X163830000Y-79502000D03*
X161290000Y-77978000D03*
X160782000Y-77470000D03*
X163322000Y-77978000D03*
X164338000Y-80518000D03*
X164338000Y-77978000D03*
X164846000Y-81534000D03*
X162306000Y-84074000D03*
X162814000Y-83566000D03*
X160782000Y-84074000D03*
X162814000Y-80518000D03*
X162306000Y-79502000D03*
X161290000Y-82550000D03*
X161798000Y-77470000D03*
X164846000Y-81026000D03*
X161290000Y-78994000D03*
X164338000Y-79502000D03*
X161798000Y-81534000D03*
X163830000Y-80518000D03*
X160782000Y-78486000D03*
X163830000Y-78486000D03*
X163322000Y-83058000D03*
X161290000Y-81534000D03*
X161798000Y-79502000D03*
X161290000Y-81026000D03*
X163830000Y-77978000D03*
X160782000Y-80010000D03*
X163830000Y-77470000D03*
%TO.N,/GH_A*%
X143510000Y-84328000D03*
X143510000Y-93980000D03*
%TO.N,/GL_A*%
X148336000Y-93980000D03*
X142748000Y-81534000D03*
%TO.N,/SL_A*%
X142494000Y-77470000D03*
X141986000Y-80518000D03*
X143002000Y-77470000D03*
X142494000Y-80518000D03*
X140970000Y-80010000D03*
X141478000Y-80010000D03*
X143510000Y-77978000D03*
X143002000Y-78486000D03*
X142494000Y-80010000D03*
X140970000Y-81026000D03*
X143002000Y-80010000D03*
X143002000Y-79502000D03*
X143510000Y-78486000D03*
X141478000Y-80518000D03*
X141986000Y-77978000D03*
X143510000Y-80010000D03*
X141986000Y-77470000D03*
X141478000Y-81026000D03*
X141986000Y-78486000D03*
X141986000Y-78994000D03*
X143002000Y-78994000D03*
X143002000Y-80518000D03*
X141986000Y-79502000D03*
X143510000Y-78994000D03*
X142494000Y-79502000D03*
X143510000Y-77470000D03*
X143002000Y-77978000D03*
X142494000Y-78486000D03*
X143510000Y-80518000D03*
X155194000Y-111252000D03*
X140970000Y-80518000D03*
X141986000Y-80010000D03*
X142494000Y-77978000D03*
X142494000Y-78994000D03*
X143510000Y-79502000D03*
%TO.N,/GH_B*%
X151638000Y-84074000D03*
X150622000Y-93917000D03*
%TO.N,/GL_B*%
X155194000Y-93917000D03*
X151130000Y-81534000D03*
%TO.N,/SL_B*%
X150622000Y-80264000D03*
X150114000Y-79756000D03*
X151130000Y-79248000D03*
X151638000Y-78232000D03*
X150114000Y-78232000D03*
X150622000Y-77724000D03*
X151638000Y-79756000D03*
X150622000Y-78232000D03*
X151130000Y-80264000D03*
X151130000Y-77216000D03*
X151130000Y-79756000D03*
X151638000Y-80264000D03*
X150622000Y-79248000D03*
X149606000Y-79756000D03*
X150114000Y-79248000D03*
X150114000Y-78740000D03*
X151638000Y-77216000D03*
X150114000Y-80264000D03*
X150622000Y-78740000D03*
X151130000Y-78232000D03*
X151638000Y-79248000D03*
X150622000Y-77216000D03*
X150114000Y-77724000D03*
X183134000Y-114046000D03*
X151638000Y-78740000D03*
X149606000Y-80264000D03*
X150622000Y-79756000D03*
X151130000Y-77724000D03*
X151638000Y-77724000D03*
X150114000Y-77216000D03*
X151130000Y-78740000D03*
%TO.N,/GH_C*%
X157226000Y-93917000D03*
X159766000Y-84328000D03*
%TO.N,/GL_C*%
X159004000Y-81534000D03*
X161798000Y-93980000D03*
%TO.N,/CS1*%
X154178000Y-123444000D03*
%TO.N,/SO1*%
X158496000Y-127254000D03*
X152908000Y-121412000D03*
%TO.N,/SO2*%
X159388200Y-127762000D03*
X152276200Y-121920000D03*
%TO.N,/MODE*%
X159004000Y-124460000D03*
%TO.N,/ADC1*%
X158496000Y-125730000D03*
X160274000Y-102870000D03*
%TO.N,+24V*%
X146812000Y-89662000D03*
X160782000Y-90170000D03*
X155956000Y-90170000D03*
X151130000Y-89916000D03*
X152908000Y-89916000D03*
X149352000Y-89662000D03*
X157480000Y-89662000D03*
X150622000Y-89662000D03*
X162560000Y-89662000D03*
X163322000Y-89916000D03*
X148590000Y-89916000D03*
X153416000Y-89662000D03*
X146050000Y-89916000D03*
X158242000Y-89662000D03*
X143510000Y-89916000D03*
X156210000Y-89662000D03*
%TD*%
D27*
%TO.N,+5V*%
X162547000Y-104648000D02*
X162547000Y-102942000D01*
X162547000Y-105397000D02*
X162814000Y-105664000D01*
X162547000Y-102942000D02*
X162475000Y-102870000D01*
X162547000Y-104648000D02*
X162547000Y-105397000D01*
D28*
%TO.N,+12V*%
X188214000Y-92964000D02*
X188214000Y-95250000D01*
X188214000Y-95250000D02*
X188722000Y-95758000D01*
D29*
%TO.N,+3.3V*%
X163576000Y-114046000D02*
X158750000Y-114046000D01*
D27*
%TO.N,Net-(D1-Pad1)*%
X159512000Y-115062000D02*
X159004000Y-115570000D01*
X164846000Y-115062000D02*
X159512000Y-115062000D01*
X159004000Y-115570000D02*
X159004000Y-115588500D01*
%TO.N,/SWDIO*%
X165608000Y-120396000D02*
X163322000Y-118110000D01*
X170494000Y-133604000D02*
X166116000Y-133604000D01*
X165608000Y-133096000D02*
X165608000Y-120396000D01*
X172329000Y-131769000D02*
X170494000Y-133604000D01*
X166116000Y-133604000D02*
X165608000Y-133096000D01*
%TO.N,/SWCLK*%
X169789000Y-131769000D02*
X169789000Y-122545000D01*
X169789000Y-122545000D02*
X162814000Y-115570000D01*
X161290000Y-115570000D02*
X161290000Y-115588500D01*
X162814000Y-115570000D02*
X161290000Y-115570000D01*
%TO.N,/TXD*%
X163830000Y-128524000D02*
X163830000Y-120650000D01*
X160528000Y-131826000D02*
X163830000Y-128524000D01*
%TO.N,/RXD*%
X163068000Y-124968000D02*
X163068000Y-119634000D01*
X157988000Y-131826000D02*
X157988000Y-130048000D01*
X157988000Y-130048000D02*
X163068000Y-124968000D01*
%TO.N,/MISO*%
X146588453Y-127087220D02*
X146588453Y-114777547D01*
X146588453Y-114777547D02*
X146588453Y-114584453D01*
X167549302Y-100330000D02*
X167725000Y-100330000D01*
X146588453Y-114497257D02*
X152048490Y-109037220D01*
X146588453Y-114777547D02*
X146588453Y-114497257D01*
X152048490Y-109037220D02*
X163504780Y-109037220D01*
X163504780Y-109037220D02*
X165862000Y-106680000D01*
X165862000Y-102017302D02*
X167549302Y-100330000D01*
X165862000Y-106680000D02*
X165862000Y-102017302D01*
%TO.N,/SCLK*%
X166239800Y-102362000D02*
X167001800Y-101600000D01*
X147320000Y-128270000D02*
X147828000Y-127762000D01*
X146966253Y-124868253D02*
X146966253Y-114653747D01*
X145034000Y-127508000D02*
X145796000Y-128270000D01*
X147828000Y-127762000D02*
X147828000Y-125730000D01*
X163661270Y-109415020D02*
X166239800Y-106836490D01*
X145796000Y-128270000D02*
X147320000Y-128270000D01*
X152204980Y-109415020D02*
X163661270Y-109415020D01*
X167001800Y-101600000D02*
X167725000Y-101600000D01*
X166239800Y-106836490D02*
X166239800Y-102362000D01*
X145034000Y-125970535D02*
X145034000Y-127508000D01*
X144586905Y-125523440D02*
X145034000Y-125970535D01*
X147828000Y-125730000D02*
X146966253Y-124868253D01*
X146966253Y-114653747D02*
X152204980Y-109415020D01*
%TO.N,/CS1*%
X167725000Y-106849000D02*
X167725000Y-102870000D01*
X154178000Y-110998000D02*
X155194000Y-109982000D01*
X155194000Y-109982000D02*
X164592000Y-109982000D01*
X164592000Y-109982000D02*
X167725000Y-106849000D01*
X154178000Y-123444000D02*
X154178000Y-110998000D01*
%TO.N,/MODE*%
X140970000Y-123978290D02*
X140970000Y-122682000D01*
X164592000Y-101600000D02*
X162475000Y-101600000D01*
X144432653Y-121920000D02*
X146210653Y-120142000D01*
X165484200Y-102492200D02*
X164592000Y-101600000D01*
X141732000Y-121920000D02*
X144432653Y-121920000D01*
X151892000Y-108659420D02*
X163120580Y-108659420D01*
X140970000Y-122682000D02*
X141732000Y-121920000D01*
X146210653Y-120142000D02*
X146210653Y-114340767D01*
X165484200Y-106295800D02*
X165484200Y-102492200D01*
X163120580Y-108659420D02*
X165484200Y-106295800D01*
X153162000Y-130302000D02*
X148336000Y-130302000D01*
X147320000Y-129286000D02*
X146277710Y-129286000D01*
X146210653Y-114340767D02*
X151892000Y-108659420D01*
X159004000Y-124460000D02*
X153162000Y-130302000D01*
X146277710Y-129286000D02*
X140970000Y-123978290D01*
X148336000Y-130302000D02*
X147320000Y-129286000D01*
%TO.N,/ADC1*%
X162299302Y-100330000D02*
X160274000Y-102355302D01*
X160274000Y-102355302D02*
X160274000Y-102870000D01*
X162475000Y-100330000D02*
X162299302Y-100330000D01*
%TD*%
%TA.AperFunction,Conductor*%
%TO.N,/SL_B*%
G36*
X152088121Y-77109002D02*
G01*
X152134614Y-77162658D01*
X152146000Y-77215000D01*
X152146000Y-80519000D01*
X152125998Y-80587121D01*
X152072342Y-80633614D01*
X152020000Y-80645000D01*
X149859000Y-80645000D01*
X149790879Y-80624998D01*
X149744386Y-80571342D01*
X149733000Y-80519000D01*
X149733000Y-77215000D01*
X149753002Y-77146879D01*
X149806658Y-77100386D01*
X149859000Y-77089000D01*
X152020000Y-77089000D01*
X152088121Y-77109002D01*
G37*
%TD.AperFunction*%
%TD*%
%TA.AperFunction,Conductor*%
%TO.N,GND*%
G36*
X165527226Y-66202925D02*
G01*
X166676548Y-66236033D01*
X166680695Y-66236221D01*
X167828258Y-66307414D01*
X167832423Y-66307742D01*
X168976962Y-66416941D01*
X168981114Y-66417406D01*
X170121445Y-66564497D01*
X170125580Y-66565100D01*
X171260402Y-66749918D01*
X171264514Y-66750658D01*
X171287021Y-66755094D01*
X172392609Y-66973003D01*
X172396633Y-66973866D01*
X172936729Y-67099054D01*
X173516732Y-67233492D01*
X173520786Y-67234503D01*
X173800799Y-67309270D01*
X174631659Y-67531121D01*
X174635635Y-67532254D01*
X175290703Y-67730655D01*
X175736039Y-67865534D01*
X175740017Y-67866811D01*
X176828752Y-68236387D01*
X176832679Y-68237793D01*
X177908607Y-68643279D01*
X177912458Y-68644803D01*
X178974370Y-69085748D01*
X178978150Y-69087392D01*
X179512547Y-69330367D01*
X180024838Y-69563292D01*
X180028613Y-69565085D01*
X181058905Y-70075407D01*
X181062617Y-70077323D01*
X182075426Y-70621524D01*
X182079068Y-70623559D01*
X183073321Y-71201068D01*
X183076831Y-71203184D01*
X183509279Y-71473933D01*
X184051405Y-71813350D01*
X184054909Y-71815626D01*
X184719924Y-72263340D01*
X185008372Y-72457534D01*
X185008642Y-72457716D01*
X185012063Y-72460102D01*
X185944056Y-73133513D01*
X185947370Y-73135993D01*
X186756314Y-73762344D01*
X186856470Y-73839893D01*
X186859731Y-73842506D01*
X187745013Y-74576178D01*
X187748185Y-74578896D01*
X188608634Y-75341496D01*
X188611708Y-75344312D01*
X189212684Y-75913622D01*
X189446415Y-76135037D01*
X189449400Y-76137960D01*
X190257425Y-76955918D01*
X190260312Y-76958939D01*
X190468162Y-77183790D01*
X190958476Y-77714207D01*
X191040776Y-77803239D01*
X191043556Y-77806348D01*
X191142520Y-77920797D01*
X191795594Y-78676058D01*
X191798274Y-78679263D01*
X192175146Y-79145492D01*
X192509566Y-79559203D01*
X192521078Y-79573445D01*
X192523643Y-79576730D01*
X193079770Y-80313396D01*
X193216372Y-80494344D01*
X193218833Y-80497717D01*
X193250977Y-80543369D01*
X193880797Y-81437853D01*
X193883145Y-81441309D01*
X194513541Y-82402822D01*
X194515774Y-82406354D01*
X195113955Y-83388259D01*
X195116069Y-83391862D01*
X195681365Y-84393056D01*
X195683359Y-84396728D01*
X196215164Y-85416144D01*
X196217034Y-85419880D01*
X196714725Y-86456319D01*
X196716471Y-86460115D01*
X197179538Y-87512512D01*
X197181157Y-87516364D01*
X197609065Y-88583509D01*
X197610556Y-88587412D01*
X198002862Y-89668198D01*
X198004222Y-89672148D01*
X198360469Y-90765317D01*
X198361696Y-90769304D01*
X198679939Y-91868282D01*
X198681514Y-91873722D01*
X198682603Y-91877731D01*
X198916730Y-92799609D01*
X198965625Y-92992132D01*
X198966586Y-92996198D01*
X199212498Y-94119342D01*
X199213324Y-94123437D01*
X199421865Y-95254128D01*
X199422555Y-95258249D01*
X199593497Y-96395265D01*
X199594049Y-96399407D01*
X199637462Y-96771766D01*
X199724462Y-97517977D01*
X199727194Y-97541413D01*
X199727608Y-97545560D01*
X199817589Y-98628438D01*
X199822819Y-98691384D01*
X199823095Y-98695538D01*
X199829200Y-98818162D01*
X199880263Y-99843883D01*
X199880402Y-99848059D01*
X199886607Y-100222252D01*
X199896454Y-100816042D01*
X199899475Y-100998246D01*
X199899488Y-101001306D01*
X199896124Y-101429593D01*
X199895219Y-101544844D01*
X199895157Y-101547922D01*
X199858225Y-102691355D01*
X199858022Y-102697625D01*
X199857819Y-102701770D01*
X199821812Y-103251145D01*
X199782620Y-103849092D01*
X199782278Y-103853256D01*
X199669082Y-104997439D01*
X199668602Y-105001589D01*
X199517531Y-106141400D01*
X199516913Y-106145533D01*
X199360483Y-107085360D01*
X199328139Y-107279679D01*
X199327385Y-107283788D01*
X199101108Y-108411070D01*
X199100218Y-108415152D01*
X198836692Y-109534306D01*
X198835667Y-109538357D01*
X198535177Y-110648174D01*
X198534020Y-110652181D01*
X198248077Y-111584550D01*
X198196906Y-111751401D01*
X198195622Y-111755353D01*
X197825018Y-112834727D01*
X197822235Y-112842832D01*
X197820817Y-112846749D01*
X197411791Y-113920696D01*
X197411586Y-113921233D01*
X197410041Y-113925097D01*
X197310903Y-114161513D01*
X196965408Y-114985422D01*
X196963729Y-114989247D01*
X196484196Y-116034229D01*
X196482391Y-116037997D01*
X195968458Y-117066538D01*
X195966530Y-117070240D01*
X195423673Y-118072144D01*
X195418801Y-118081135D01*
X195416753Y-118084770D01*
X195267597Y-118339509D01*
X194835803Y-119076957D01*
X194833633Y-119080527D01*
X194220100Y-120052919D01*
X194217814Y-120056413D01*
X193727872Y-120778696D01*
X193572363Y-121007950D01*
X193569960Y-121011368D01*
X192893354Y-121940929D01*
X192890840Y-121944266D01*
X192220074Y-122804354D01*
X192183746Y-122850935D01*
X192181136Y-122854169D01*
X191680661Y-123453793D01*
X191444391Y-123736870D01*
X191441661Y-123740033D01*
X190676064Y-124597812D01*
X190673232Y-124600882D01*
X189902364Y-125408961D01*
X189879589Y-125432835D01*
X189876668Y-125435797D01*
X189055860Y-126240996D01*
X189052874Y-126243829D01*
X188675634Y-126590112D01*
X188205845Y-127021349D01*
X188202721Y-127024123D01*
X187330366Y-127773144D01*
X187327151Y-127775812D01*
X186430497Y-128495452D01*
X186427196Y-128498013D01*
X185507144Y-129187553D01*
X185503760Y-129190003D01*
X184947909Y-129578492D01*
X184562481Y-129847871D01*
X184561356Y-129848657D01*
X184557901Y-129850988D01*
X184127592Y-130130968D01*
X183594143Y-130478056D01*
X183590603Y-130480276D01*
X182606616Y-131075027D01*
X182603005Y-131077128D01*
X181599858Y-131638918D01*
X181596179Y-131640899D01*
X180574949Y-132169123D01*
X180571207Y-132170981D01*
X179533012Y-132665063D01*
X179529210Y-132666796D01*
X178475187Y-133126193D01*
X178471330Y-133127798D01*
X177402688Y-133551983D01*
X177398779Y-133553460D01*
X176316668Y-133941977D01*
X176312713Y-133943324D01*
X175218269Y-134295765D01*
X175214272Y-134296979D01*
X174108798Y-134612925D01*
X174104762Y-134614007D01*
X173821520Y-134684890D01*
X172989347Y-134893146D01*
X172985335Y-134894079D01*
X171861288Y-135136080D01*
X171857190Y-135136891D01*
X170725783Y-135341483D01*
X170721660Y-135342158D01*
X169584083Y-135509126D01*
X169579939Y-135509664D01*
X168437476Y-135638821D01*
X168433318Y-135639222D01*
X167558958Y-135708804D01*
X167287146Y-135730434D01*
X167282986Y-135730696D01*
X167180979Y-135735417D01*
X166134458Y-135783854D01*
X166130281Y-135783978D01*
X164980634Y-135799028D01*
X164976456Y-135799014D01*
X163889415Y-135777193D01*
X163826907Y-135775938D01*
X163822735Y-135775785D01*
X163682401Y-135768308D01*
X162674580Y-135714608D01*
X162670412Y-135714316D01*
X162227853Y-135675987D01*
X161524939Y-135615108D01*
X161520839Y-135614685D01*
X160379241Y-135477546D01*
X160375100Y-135476979D01*
X159238721Y-135302074D01*
X159234602Y-135301370D01*
X158868679Y-135232559D01*
X158104604Y-135088876D01*
X158100540Y-135088041D01*
X157441133Y-134941250D01*
X156978263Y-134838210D01*
X156974201Y-134837235D01*
X155860825Y-134550333D01*
X155856796Y-134549224D01*
X154753465Y-134225542D01*
X154749531Y-134224316D01*
X153864763Y-133932563D01*
X153657583Y-133864245D01*
X153653638Y-133862871D01*
X153209294Y-133699825D01*
X152574237Y-133466799D01*
X152570375Y-133465309D01*
X151504662Y-133033651D01*
X151500845Y-133032030D01*
X150450080Y-132565297D01*
X150446290Y-132563538D01*
X149411559Y-132062215D01*
X149407830Y-132060331D01*
X149406941Y-132059863D01*
X148934428Y-131811262D01*
X156932520Y-131811262D01*
X156933036Y-131817406D01*
X156948096Y-131996744D01*
X156949759Y-132016553D01*
X156951458Y-132022478D01*
X157001887Y-132198344D01*
X157006544Y-132214586D01*
X157009359Y-132220063D01*
X157009360Y-132220066D01*
X157097897Y-132392341D01*
X157100712Y-132397818D01*
X157228677Y-132559270D01*
X157233370Y-132563264D01*
X157233371Y-132563265D01*
X157352984Y-132665063D01*
X157385564Y-132692791D01*
X157390942Y-132695797D01*
X157390944Y-132695798D01*
X157422563Y-132713469D01*
X157565398Y-132793297D01*
X157649280Y-132820552D01*
X157755471Y-132855056D01*
X157755475Y-132855057D01*
X157761329Y-132856959D01*
X157965894Y-132881351D01*
X157972029Y-132880879D01*
X157972031Y-132880879D01*
X158044625Y-132875293D01*
X158171300Y-132865546D01*
X158177230Y-132863890D01*
X158177232Y-132863890D01*
X158307770Y-132827443D01*
X158369725Y-132810145D01*
X158375214Y-132807372D01*
X158375220Y-132807370D01*
X158548116Y-132720033D01*
X158553610Y-132717258D01*
X158715951Y-132590424D01*
X158738375Y-132564446D01*
X158846540Y-132439134D01*
X158846540Y-132439133D01*
X158850564Y-132434472D01*
X158871387Y-132397818D01*
X158949276Y-132260707D01*
X158952323Y-132255344D01*
X159017351Y-132059863D01*
X159043171Y-131855474D01*
X159043583Y-131826000D01*
X159023480Y-131620970D01*
X158963935Y-131423749D01*
X158867218Y-131241849D01*
X158793859Y-131151902D01*
X158740906Y-131086975D01*
X158740903Y-131086972D01*
X158737011Y-131082200D01*
X158730173Y-131076543D01*
X158583025Y-130954811D01*
X158583021Y-130954809D01*
X158578275Y-130950882D01*
X158397055Y-130852897D01*
X158366139Y-130843327D01*
X158306982Y-130804078D01*
X158278434Y-130739074D01*
X158277400Y-130722963D01*
X158277400Y-130220063D01*
X158297402Y-130151942D01*
X158314305Y-130130968D01*
X163237108Y-125208165D01*
X163238879Y-125206637D01*
X163243536Y-125204360D01*
X163275556Y-125169842D01*
X163278836Y-125166437D01*
X163291670Y-125153603D01*
X163294324Y-125149734D01*
X163296368Y-125147406D01*
X163316856Y-125125320D01*
X163318054Y-125126431D01*
X163361404Y-125088298D01*
X163431601Y-125077670D01*
X163496400Y-125106681D01*
X163535228Y-125166119D01*
X163540600Y-125202518D01*
X163540600Y-128351936D01*
X163520598Y-128420057D01*
X163503695Y-128441031D01*
X161103922Y-130840804D01*
X161041610Y-130874830D01*
X160970795Y-130869765D01*
X160954897Y-130862544D01*
X160942476Y-130855828D01*
X160942474Y-130855827D01*
X160937055Y-130852897D01*
X160740254Y-130791977D01*
X160734129Y-130791333D01*
X160734128Y-130791333D01*
X160541498Y-130771087D01*
X160541496Y-130771087D01*
X160535369Y-130770443D01*
X160448529Y-130778346D01*
X160336342Y-130788555D01*
X160336339Y-130788556D01*
X160330203Y-130789114D01*
X160132572Y-130847280D01*
X159950002Y-130942726D01*
X159945201Y-130946586D01*
X159945198Y-130946588D01*
X159827804Y-131040975D01*
X159789447Y-131071815D01*
X159657024Y-131229630D01*
X159654056Y-131235028D01*
X159654053Y-131235033D01*
X159581642Y-131366749D01*
X159557776Y-131410162D01*
X159495484Y-131606532D01*
X159494798Y-131612649D01*
X159494797Y-131612653D01*
X159478224Y-131760406D01*
X159472520Y-131811262D01*
X159473036Y-131817406D01*
X159488096Y-131996744D01*
X159489759Y-132016553D01*
X159491458Y-132022478D01*
X159541887Y-132198344D01*
X159546544Y-132214586D01*
X159549359Y-132220063D01*
X159549360Y-132220066D01*
X159637897Y-132392341D01*
X159640712Y-132397818D01*
X159768677Y-132559270D01*
X159773370Y-132563264D01*
X159773371Y-132563265D01*
X159892984Y-132665063D01*
X159925564Y-132692791D01*
X159930942Y-132695797D01*
X159930944Y-132695798D01*
X159962563Y-132713469D01*
X160105398Y-132793297D01*
X160189280Y-132820552D01*
X160295471Y-132855056D01*
X160295475Y-132855057D01*
X160301329Y-132856959D01*
X160505894Y-132881351D01*
X160512029Y-132880879D01*
X160512031Y-132880879D01*
X160584625Y-132875293D01*
X160711300Y-132865546D01*
X160717230Y-132863890D01*
X160717232Y-132863890D01*
X160847770Y-132827443D01*
X160909725Y-132810145D01*
X160915214Y-132807372D01*
X160915220Y-132807370D01*
X161088116Y-132720033D01*
X161093610Y-132717258D01*
X161255951Y-132590424D01*
X161278375Y-132564446D01*
X161386540Y-132439134D01*
X161386540Y-132439133D01*
X161390564Y-132434472D01*
X161411387Y-132397818D01*
X161489276Y-132260707D01*
X161492323Y-132255344D01*
X161557351Y-132059863D01*
X161583171Y-131855474D01*
X161583583Y-131826000D01*
X161563480Y-131620970D01*
X161503935Y-131423749D01*
X161501046Y-131418315D01*
X161501042Y-131418306D01*
X161490634Y-131398733D01*
X161476314Y-131329196D01*
X161501861Y-131262955D01*
X161512790Y-131250484D01*
X161802405Y-130960869D01*
X161864717Y-130926843D01*
X161935532Y-130931908D01*
X161992368Y-130974455D01*
X162017179Y-131040975D01*
X162017500Y-131049964D01*
X162017500Y-132695748D01*
X162018707Y-132701816D01*
X162024968Y-132733290D01*
X162029133Y-132754231D01*
X162073448Y-132820552D01*
X162139769Y-132864867D01*
X162151938Y-132867288D01*
X162151939Y-132867288D01*
X162192184Y-132875293D01*
X162198252Y-132876500D01*
X163937748Y-132876500D01*
X163943816Y-132875293D01*
X163984061Y-132867288D01*
X163984062Y-132867288D01*
X163996231Y-132864867D01*
X164062552Y-132820552D01*
X164106867Y-132754231D01*
X164111033Y-132733290D01*
X164117293Y-132701816D01*
X164118500Y-132695748D01*
X164118500Y-130956252D01*
X164106867Y-130897769D01*
X164062552Y-130831448D01*
X163996231Y-130787133D01*
X163984062Y-130784712D01*
X163984061Y-130784712D01*
X163943816Y-130776707D01*
X163937748Y-130775500D01*
X162291964Y-130775500D01*
X162223843Y-130755498D01*
X162177350Y-130701842D01*
X162167246Y-130631568D01*
X162196740Y-130566988D01*
X162202869Y-130560405D01*
X163999113Y-128764161D01*
X164000880Y-128762636D01*
X164005536Y-128760360D01*
X164037543Y-128725856D01*
X164040823Y-128722451D01*
X164053670Y-128709604D01*
X164056325Y-128705734D01*
X164058384Y-128703389D01*
X164070944Y-128689849D01*
X164078856Y-128681320D01*
X164083167Y-128670515D01*
X164086368Y-128665451D01*
X164090165Y-128658340D01*
X164092588Y-128652872D01*
X164099169Y-128643279D01*
X164104572Y-128620511D01*
X164110136Y-128602918D01*
X164115511Y-128589446D01*
X164115512Y-128589441D01*
X164118806Y-128581185D01*
X164119400Y-128575127D01*
X164119400Y-128572040D01*
X164119550Y-128568976D01*
X164119843Y-128568990D01*
X164120855Y-128560343D01*
X164121375Y-128549704D01*
X164124062Y-128538383D01*
X164120551Y-128512586D01*
X164119400Y-128495594D01*
X164119400Y-123587982D01*
X164139402Y-123519861D01*
X164193058Y-123473368D01*
X164263332Y-123463264D01*
X164327912Y-123492758D01*
X164334495Y-123498887D01*
X164353658Y-123518050D01*
X164466696Y-123575646D01*
X164476485Y-123577196D01*
X164476487Y-123577197D01*
X164582207Y-123593941D01*
X164592000Y-123595492D01*
X164601793Y-123593941D01*
X164707513Y-123577197D01*
X164707515Y-123577196D01*
X164717304Y-123575646D01*
X164830342Y-123518050D01*
X164920050Y-123428342D01*
X164977646Y-123315304D01*
X164997492Y-123190000D01*
X164995941Y-123180207D01*
X164979197Y-123074487D01*
X164979196Y-123074485D01*
X164977646Y-123064696D01*
X164920050Y-122951658D01*
X164830342Y-122861950D01*
X164717304Y-122804354D01*
X164707515Y-122802804D01*
X164707513Y-122802803D01*
X164601793Y-122786059D01*
X164592000Y-122784508D01*
X164582207Y-122786059D01*
X164476487Y-122802803D01*
X164476485Y-122802804D01*
X164466696Y-122804354D01*
X164353658Y-122861950D01*
X164334495Y-122881113D01*
X164272183Y-122915139D01*
X164201368Y-122910074D01*
X164144532Y-122867527D01*
X164119721Y-122801007D01*
X164119400Y-122792018D01*
X164119400Y-120979182D01*
X164139402Y-120911061D01*
X164145454Y-120903551D01*
X164145211Y-120903374D01*
X164151038Y-120895354D01*
X164158050Y-120888342D01*
X164215646Y-120775304D01*
X164235492Y-120650000D01*
X164233941Y-120640207D01*
X164217197Y-120534487D01*
X164217196Y-120534485D01*
X164215646Y-120524696D01*
X164158050Y-120411658D01*
X164068342Y-120321950D01*
X163955304Y-120264354D01*
X163945515Y-120262804D01*
X163945513Y-120262803D01*
X163839793Y-120246059D01*
X163830000Y-120244508D01*
X163820207Y-120246059D01*
X163714487Y-120262803D01*
X163714485Y-120262804D01*
X163704696Y-120264354D01*
X163591658Y-120321950D01*
X163572495Y-120341113D01*
X163510183Y-120375139D01*
X163439368Y-120370074D01*
X163382532Y-120327527D01*
X163357721Y-120261007D01*
X163357400Y-120252018D01*
X163357400Y-119963182D01*
X163377402Y-119895061D01*
X163383454Y-119887551D01*
X163383211Y-119887374D01*
X163389038Y-119879354D01*
X163396050Y-119872342D01*
X163453646Y-119759304D01*
X163473492Y-119634000D01*
X163453646Y-119508696D01*
X163396050Y-119395658D01*
X163306342Y-119305950D01*
X163193304Y-119248354D01*
X163183515Y-119246804D01*
X163183513Y-119246803D01*
X163077793Y-119230059D01*
X163068000Y-119228508D01*
X163058207Y-119230059D01*
X162952487Y-119246803D01*
X162952485Y-119246804D01*
X162942696Y-119248354D01*
X162829658Y-119305950D01*
X162739950Y-119395658D01*
X162682354Y-119508696D01*
X162662508Y-119634000D01*
X162682354Y-119759304D01*
X162739950Y-119872342D01*
X162746962Y-119879354D01*
X162752789Y-119887374D01*
X162750041Y-119889371D01*
X162775721Y-119936399D01*
X162778600Y-119963182D01*
X162778600Y-124795937D01*
X162758598Y-124864058D01*
X162741695Y-124885032D01*
X159969446Y-127657280D01*
X159907134Y-127691306D01*
X159836318Y-127686241D01*
X159779483Y-127643694D01*
X159768084Y-127625388D01*
X159720750Y-127532490D01*
X159716250Y-127523658D01*
X159626542Y-127433950D01*
X159513504Y-127376354D01*
X159503715Y-127374804D01*
X159503713Y-127374803D01*
X159397993Y-127358059D01*
X159388200Y-127356508D01*
X159378407Y-127358059D01*
X159272687Y-127374803D01*
X159272685Y-127374804D01*
X159262896Y-127376354D01*
X159149858Y-127433950D01*
X159094945Y-127488863D01*
X159032633Y-127522889D01*
X158961818Y-127517824D01*
X158904982Y-127475277D01*
X158880171Y-127408757D01*
X158883730Y-127379634D01*
X158881646Y-127379304D01*
X158899941Y-127263793D01*
X158901492Y-127254000D01*
X158892831Y-127199313D01*
X158883197Y-127138487D01*
X158883196Y-127138485D01*
X158881646Y-127128696D01*
X158824050Y-127015658D01*
X158734342Y-126925950D01*
X158621304Y-126868354D01*
X158611515Y-126866804D01*
X158611513Y-126866803D01*
X158505793Y-126850059D01*
X158496000Y-126848508D01*
X158486207Y-126850059D01*
X158380487Y-126866803D01*
X158380485Y-126866804D01*
X158370696Y-126868354D01*
X158257658Y-126925950D01*
X158167950Y-127015658D01*
X158110354Y-127128696D01*
X158108804Y-127138485D01*
X158108803Y-127138487D01*
X158099169Y-127199313D01*
X158090508Y-127254000D01*
X158092059Y-127263793D01*
X158106744Y-127356508D01*
X158110354Y-127379304D01*
X158167950Y-127492342D01*
X158257658Y-127582050D01*
X158370696Y-127639646D01*
X158380485Y-127641196D01*
X158380487Y-127641197D01*
X158486207Y-127657941D01*
X158496000Y-127659492D01*
X158505793Y-127657941D01*
X158611513Y-127641197D01*
X158611515Y-127641196D01*
X158621304Y-127639646D01*
X158734342Y-127582050D01*
X158789255Y-127527137D01*
X158851567Y-127493111D01*
X158922382Y-127498176D01*
X158979218Y-127540723D01*
X159004029Y-127607243D01*
X159000470Y-127636366D01*
X159002554Y-127636696D01*
X158998944Y-127659492D01*
X158982708Y-127762000D01*
X159002554Y-127887304D01*
X159060150Y-128000342D01*
X159149858Y-128090050D01*
X159251589Y-128141885D01*
X159303203Y-128190632D01*
X159320269Y-128259547D01*
X159297368Y-128326749D01*
X159283480Y-128343246D01*
X157818887Y-129807839D01*
X157817120Y-129809364D01*
X157812464Y-129811640D01*
X157781094Y-129845458D01*
X157780457Y-129846144D01*
X157777177Y-129849549D01*
X157764330Y-129862396D01*
X157761675Y-129866266D01*
X157759617Y-129868610D01*
X157739144Y-129890680D01*
X157734833Y-129901485D01*
X157731632Y-129906549D01*
X157727835Y-129913660D01*
X157725412Y-129919128D01*
X157718831Y-129928721D01*
X157716145Y-129940041D01*
X157713428Y-129951489D01*
X157707864Y-129969082D01*
X157702489Y-129982554D01*
X157702488Y-129982559D01*
X157699194Y-129990815D01*
X157698600Y-129996873D01*
X157698600Y-129999960D01*
X157698450Y-130003024D01*
X157698157Y-130003010D01*
X157697145Y-130011657D01*
X157696625Y-130022296D01*
X157693938Y-130033617D01*
X157695507Y-130045146D01*
X157695507Y-130045148D01*
X157697449Y-130059416D01*
X157698600Y-130076407D01*
X157698600Y-130721815D01*
X157678598Y-130789936D01*
X157624942Y-130836429D01*
X157608186Y-130842684D01*
X157592572Y-130847280D01*
X157410002Y-130942726D01*
X157405201Y-130946586D01*
X157405198Y-130946588D01*
X157287804Y-131040975D01*
X157249447Y-131071815D01*
X157117024Y-131229630D01*
X157114056Y-131235028D01*
X157114053Y-131235033D01*
X157041642Y-131366749D01*
X157017776Y-131410162D01*
X156955484Y-131606532D01*
X156954798Y-131612649D01*
X156954797Y-131612653D01*
X156938224Y-131760406D01*
X156932520Y-131811262D01*
X148934428Y-131811262D01*
X148860795Y-131772522D01*
X148390323Y-131524995D01*
X148386658Y-131522989D01*
X147387435Y-130954197D01*
X147383839Y-130952070D01*
X146404010Y-130350454D01*
X146400486Y-130348209D01*
X146155659Y-130186468D01*
X145601193Y-129820170D01*
X145441193Y-129714469D01*
X145437745Y-129712109D01*
X145156565Y-129512654D01*
X144499919Y-129046862D01*
X144496560Y-129044394D01*
X144389601Y-128963060D01*
X143581349Y-128348451D01*
X143578067Y-128345868D01*
X143387390Y-128190632D01*
X142686444Y-127619972D01*
X142683249Y-127617282D01*
X142579732Y-127527137D01*
X141816159Y-126862203D01*
X141813090Y-126859441D01*
X140971460Y-126075979D01*
X140968490Y-126073121D01*
X140897711Y-126002711D01*
X140326358Y-125434343D01*
X140153358Y-125262246D01*
X140150445Y-125259251D01*
X139779364Y-124864780D01*
X139362630Y-124421779D01*
X139359832Y-124418704D01*
X139285900Y-124334696D01*
X138600225Y-123555581D01*
X138597519Y-123552401D01*
X138570743Y-123519861D01*
X137869454Y-122667617D01*
X140675938Y-122667617D01*
X140677507Y-122679146D01*
X140677507Y-122679148D01*
X140679449Y-122693416D01*
X140680600Y-122710407D01*
X140680600Y-123928053D01*
X140680429Y-123930378D01*
X140678746Y-123935281D01*
X140679182Y-123946906D01*
X140679182Y-123946908D01*
X140680511Y-123982302D01*
X140680600Y-123987028D01*
X140680600Y-124005207D01*
X140681458Y-124009817D01*
X140681660Y-124012929D01*
X140682790Y-124043016D01*
X140687383Y-124053706D01*
X140688698Y-124059541D01*
X140691045Y-124067267D01*
X140693196Y-124072842D01*
X140695326Y-124084278D01*
X140701430Y-124094180D01*
X140707601Y-124104191D01*
X140716109Y-124120570D01*
X140721835Y-124133897D01*
X140725347Y-124142071D01*
X140729211Y-124146774D01*
X140731389Y-124148952D01*
X140733450Y-124151225D01*
X140733233Y-124151421D01*
X140738647Y-124158269D01*
X140745792Y-124166149D01*
X140751897Y-124176053D01*
X140761155Y-124183093D01*
X140761157Y-124183095D01*
X140772627Y-124191817D01*
X140785456Y-124203019D01*
X146037549Y-129455113D01*
X146039074Y-129456880D01*
X146041350Y-129461536D01*
X146075168Y-129492906D01*
X146075854Y-129493543D01*
X146079259Y-129496823D01*
X146092106Y-129509670D01*
X146095976Y-129512325D01*
X146098320Y-129514383D01*
X146120390Y-129534856D01*
X146131199Y-129539168D01*
X146136265Y-129542371D01*
X146143372Y-129546166D01*
X146148841Y-129548590D01*
X146158431Y-129555168D01*
X146169747Y-129557854D01*
X146169748Y-129557854D01*
X146181198Y-129560571D01*
X146198782Y-129566131D01*
X146220525Y-129574806D01*
X146226583Y-129575400D01*
X146229659Y-129575400D01*
X146232734Y-129575550D01*
X146232720Y-129575842D01*
X146241365Y-129576854D01*
X146252006Y-129577374D01*
X146263327Y-129580061D01*
X146274856Y-129578492D01*
X146274857Y-129578492D01*
X146289118Y-129576551D01*
X146306109Y-129575400D01*
X147147937Y-129575400D01*
X147216058Y-129595402D01*
X147237032Y-129612305D01*
X148095835Y-130471108D01*
X148097363Y-130472879D01*
X148099640Y-130477536D01*
X148108169Y-130485448D01*
X148108170Y-130485449D01*
X148134158Y-130509556D01*
X148137563Y-130512836D01*
X148150397Y-130525670D01*
X148154266Y-130528324D01*
X148156591Y-130530366D01*
X148178680Y-130550856D01*
X148189483Y-130555166D01*
X148194545Y-130558366D01*
X148201660Y-130562165D01*
X148207128Y-130564588D01*
X148216721Y-130571169D01*
X148239489Y-130576572D01*
X148257082Y-130582136D01*
X148270554Y-130587511D01*
X148270559Y-130587512D01*
X148278815Y-130590806D01*
X148284873Y-130591400D01*
X148287960Y-130591400D01*
X148291024Y-130591550D01*
X148291010Y-130591843D01*
X148299657Y-130592855D01*
X148310296Y-130593375D01*
X148321617Y-130596062D01*
X148333146Y-130594493D01*
X148333148Y-130594493D01*
X148347416Y-130592551D01*
X148364407Y-130591400D01*
X153111763Y-130591400D01*
X153114088Y-130591571D01*
X153118991Y-130593254D01*
X153130616Y-130592818D01*
X153130618Y-130592818D01*
X153166012Y-130591489D01*
X153170738Y-130591400D01*
X153188917Y-130591400D01*
X153193527Y-130590542D01*
X153196639Y-130590340D01*
X153215099Y-130589647D01*
X153215101Y-130589646D01*
X153226726Y-130589210D01*
X153237416Y-130584617D01*
X153243251Y-130583302D01*
X153250977Y-130580955D01*
X153256552Y-130578804D01*
X153267988Y-130576674D01*
X153287902Y-130564399D01*
X153304280Y-130555891D01*
X153317607Y-130550165D01*
X153317609Y-130550164D01*
X153325781Y-130546653D01*
X153330484Y-130542789D01*
X153332662Y-130540611D01*
X153334935Y-130538550D01*
X153335131Y-130538767D01*
X153341979Y-130533353D01*
X153349859Y-130526208D01*
X153359763Y-130520103D01*
X153366803Y-130510845D01*
X153366805Y-130510843D01*
X153375527Y-130499373D01*
X153386729Y-130486544D01*
X157956541Y-125916732D01*
X158018853Y-125882706D01*
X158089668Y-125887771D01*
X158146504Y-125930318D01*
X158157902Y-125948623D01*
X158162755Y-125958147D01*
X158167950Y-125968342D01*
X158257658Y-126058050D01*
X158370696Y-126115646D01*
X158380485Y-126117196D01*
X158380487Y-126117197D01*
X158486207Y-126133941D01*
X158496000Y-126135492D01*
X158505793Y-126133941D01*
X158611513Y-126117197D01*
X158611515Y-126117196D01*
X158621304Y-126115646D01*
X158734342Y-126058050D01*
X158824050Y-125968342D01*
X158881646Y-125855304D01*
X158901492Y-125730000D01*
X158887399Y-125641019D01*
X158883197Y-125614487D01*
X158883196Y-125614485D01*
X158881646Y-125604696D01*
X158824050Y-125491658D01*
X158734342Y-125401950D01*
X158725508Y-125397449D01*
X158725507Y-125397448D01*
X158714623Y-125391902D01*
X158663008Y-125343154D01*
X158645943Y-125274239D01*
X158668844Y-125207037D01*
X158682732Y-125190541D01*
X158979543Y-124893730D01*
X159041855Y-124859704D01*
X159048928Y-124858376D01*
X159119511Y-124847197D01*
X159129304Y-124845646D01*
X159242342Y-124788050D01*
X159332050Y-124698342D01*
X159389646Y-124585304D01*
X159391628Y-124572794D01*
X159407941Y-124469793D01*
X159409492Y-124460000D01*
X159403199Y-124420267D01*
X159391197Y-124344487D01*
X159391196Y-124344485D01*
X159389646Y-124334696D01*
X159332050Y-124221658D01*
X159242342Y-124131950D01*
X159129304Y-124074354D01*
X159119515Y-124072804D01*
X159119513Y-124072803D01*
X159013793Y-124056059D01*
X159004000Y-124054508D01*
X158994207Y-124056059D01*
X158888487Y-124072803D01*
X158888485Y-124072804D01*
X158878696Y-124074354D01*
X158765658Y-124131950D01*
X158675950Y-124221658D01*
X158618354Y-124334696D01*
X158616803Y-124344489D01*
X158605624Y-124415072D01*
X158575212Y-124479225D01*
X158570270Y-124484457D01*
X153079031Y-129975695D01*
X153016719Y-130009721D01*
X152989936Y-130012600D01*
X149117643Y-130012600D01*
X149049522Y-129992598D01*
X149003029Y-129938942D01*
X148992925Y-129868668D01*
X149018354Y-129809027D01*
X149949463Y-128617263D01*
X149949465Y-128617260D01*
X149953276Y-128612382D01*
X149958046Y-128602918D01*
X149974529Y-128570216D01*
X149974530Y-128570214D01*
X149980114Y-128559134D01*
X149986025Y-128479590D01*
X149961046Y-128403838D01*
X149922123Y-128358665D01*
X149024392Y-127657280D01*
X148556263Y-127291537D01*
X148556260Y-127291535D01*
X148551382Y-127287724D01*
X148545853Y-127284937D01*
X148545851Y-127284936D01*
X148509216Y-127266471D01*
X148509214Y-127266470D01*
X148498134Y-127260886D01*
X148485762Y-127259967D01*
X148485760Y-127259966D01*
X148453279Y-127257553D01*
X148418590Y-127254975D01*
X148342838Y-127279954D01*
X148325649Y-127294765D01*
X148260986Y-127324080D01*
X148190741Y-127313781D01*
X148137214Y-127267140D01*
X148117400Y-127199313D01*
X148117400Y-125780237D01*
X148117571Y-125777912D01*
X148119254Y-125773009D01*
X148118665Y-125757303D01*
X148117489Y-125725988D01*
X148117400Y-125721262D01*
X148117400Y-125703083D01*
X148116542Y-125698473D01*
X148116340Y-125695361D01*
X148115647Y-125676899D01*
X148115646Y-125676896D01*
X148115210Y-125665274D01*
X148110618Y-125654587D01*
X148109303Y-125648752D01*
X148106954Y-125641019D01*
X148104803Y-125635444D01*
X148102674Y-125624012D01*
X148090395Y-125604091D01*
X148081887Y-125587714D01*
X148076160Y-125574384D01*
X148072652Y-125566219D01*
X148068789Y-125561515D01*
X148066608Y-125559334D01*
X148064545Y-125557059D01*
X148064762Y-125556862D01*
X148059361Y-125550029D01*
X148052207Y-125542139D01*
X148046103Y-125532237D01*
X148025371Y-125516472D01*
X148012552Y-125505278D01*
X147292558Y-124785284D01*
X147258532Y-124722972D01*
X147255653Y-124696189D01*
X147255653Y-121920000D01*
X151870708Y-121920000D01*
X151872259Y-121929793D01*
X151881823Y-121990176D01*
X151890554Y-122045304D01*
X151948150Y-122158342D01*
X152037858Y-122248050D01*
X152150896Y-122305646D01*
X152160685Y-122307196D01*
X152160687Y-122307197D01*
X152266407Y-122323941D01*
X152276200Y-122325492D01*
X152285993Y-122323941D01*
X152391713Y-122307197D01*
X152391715Y-122307196D01*
X152401504Y-122305646D01*
X152514542Y-122248050D01*
X152604250Y-122158342D01*
X152661846Y-122045304D01*
X152670578Y-121990176D01*
X152680141Y-121929793D01*
X152681692Y-121920000D01*
X152682715Y-121920162D01*
X152700143Y-121860809D01*
X152753799Y-121814316D01*
X152825851Y-121804481D01*
X152908000Y-121817492D01*
X152917793Y-121815941D01*
X153023513Y-121799197D01*
X153023515Y-121799196D01*
X153033304Y-121797646D01*
X153146342Y-121740050D01*
X153236050Y-121650342D01*
X153293646Y-121537304D01*
X153296754Y-121517684D01*
X153311941Y-121421793D01*
X153313492Y-121412000D01*
X153311941Y-121402207D01*
X153295197Y-121296487D01*
X153295196Y-121296485D01*
X153293646Y-121286696D01*
X153236050Y-121173658D01*
X153238387Y-121172467D01*
X153219467Y-121119445D01*
X153235227Y-121051662D01*
X153236050Y-121050839D01*
X153240783Y-121041551D01*
X153289145Y-120946634D01*
X153293646Y-120937801D01*
X153297449Y-120913793D01*
X153311941Y-120822290D01*
X153313492Y-120812497D01*
X153293646Y-120687193D01*
X153236050Y-120574155D01*
X153146342Y-120484447D01*
X153033304Y-120426851D01*
X153023515Y-120425301D01*
X153023513Y-120425300D01*
X152917793Y-120408556D01*
X152908000Y-120407005D01*
X152898207Y-120408556D01*
X152792487Y-120425300D01*
X152792485Y-120425301D01*
X152782696Y-120426851D01*
X152669658Y-120484447D01*
X152579950Y-120574155D01*
X152522354Y-120687193D01*
X152502508Y-120812497D01*
X152504059Y-120822290D01*
X152518552Y-120913793D01*
X152522354Y-120937801D01*
X152563989Y-121019513D01*
X152579950Y-121050839D01*
X152577613Y-121052030D01*
X152596533Y-121105052D01*
X152580773Y-121172835D01*
X152579950Y-121173658D01*
X152522354Y-121286696D01*
X152520804Y-121296485D01*
X152520803Y-121296487D01*
X152504059Y-121402207D01*
X152502508Y-121412000D01*
X152501485Y-121411838D01*
X152484057Y-121471191D01*
X152430401Y-121517684D01*
X152358349Y-121527519D01*
X152276200Y-121514508D01*
X152266407Y-121516059D01*
X152160687Y-121532803D01*
X152160685Y-121532804D01*
X152150896Y-121534354D01*
X152037858Y-121591950D01*
X151948150Y-121681658D01*
X151890554Y-121794696D01*
X151889004Y-121804485D01*
X151889003Y-121804487D01*
X151880083Y-121860809D01*
X151870708Y-121920000D01*
X147255653Y-121920000D01*
X147255653Y-120904000D01*
X149962508Y-120904000D01*
X149964059Y-120913793D01*
X149974416Y-120979182D01*
X149982354Y-121029304D01*
X150039950Y-121142342D01*
X150129658Y-121232050D01*
X150242696Y-121289646D01*
X150252485Y-121291196D01*
X150252487Y-121291197D01*
X150358207Y-121307941D01*
X150368000Y-121309492D01*
X150377793Y-121307941D01*
X150483513Y-121291197D01*
X150483515Y-121291196D01*
X150493304Y-121289646D01*
X150606342Y-121232050D01*
X150696050Y-121142342D01*
X150753646Y-121029304D01*
X150761585Y-120979182D01*
X150771941Y-120913793D01*
X150773492Y-120904000D01*
X150760551Y-120822290D01*
X150755197Y-120788487D01*
X150755196Y-120788485D01*
X150753646Y-120778696D01*
X150696050Y-120665658D01*
X150606342Y-120575950D01*
X150493304Y-120518354D01*
X150483515Y-120516804D01*
X150483513Y-120516803D01*
X150377793Y-120500059D01*
X150368000Y-120498508D01*
X150358207Y-120500059D01*
X150252487Y-120516803D01*
X150252485Y-120516804D01*
X150242696Y-120518354D01*
X150129658Y-120575950D01*
X150039950Y-120665658D01*
X149982354Y-120778696D01*
X149980804Y-120788485D01*
X149980803Y-120788487D01*
X149975449Y-120822290D01*
X149962508Y-120904000D01*
X147255653Y-120904000D01*
X147255653Y-114825810D01*
X147275655Y-114757689D01*
X147292558Y-114736715D01*
X147983273Y-114046000D01*
X152248508Y-114046000D01*
X152250059Y-114055793D01*
X152266487Y-114159513D01*
X152268354Y-114171304D01*
X152325950Y-114284342D01*
X152415658Y-114374050D01*
X152528696Y-114431646D01*
X152538485Y-114433196D01*
X152538487Y-114433197D01*
X152644207Y-114449941D01*
X152654000Y-114451492D01*
X152663793Y-114449941D01*
X152769513Y-114433197D01*
X152769515Y-114433196D01*
X152779304Y-114431646D01*
X152892342Y-114374050D01*
X152982050Y-114284342D01*
X153039646Y-114171304D01*
X153041514Y-114159513D01*
X153057941Y-114055793D01*
X153059492Y-114046000D01*
X153051502Y-113995553D01*
X153041197Y-113930487D01*
X153041196Y-113930485D01*
X153039646Y-113920696D01*
X152982050Y-113807658D01*
X152892342Y-113717950D01*
X152779304Y-113660354D01*
X152769515Y-113658804D01*
X152769513Y-113658803D01*
X152663793Y-113642059D01*
X152654000Y-113640508D01*
X152644207Y-113642059D01*
X152538487Y-113658803D01*
X152538485Y-113658804D01*
X152528696Y-113660354D01*
X152415658Y-113717950D01*
X152325950Y-113807658D01*
X152268354Y-113920696D01*
X152266804Y-113930485D01*
X152266803Y-113930487D01*
X152256498Y-113995553D01*
X152248508Y-114046000D01*
X147983273Y-114046000D01*
X152287948Y-109741325D01*
X152350260Y-109707299D01*
X152377043Y-109704420D01*
X154758116Y-109704420D01*
X154826237Y-109724422D01*
X154872730Y-109778078D01*
X154882834Y-109848352D01*
X154853340Y-109912932D01*
X154847213Y-109919514D01*
X154352205Y-110414521D01*
X154008883Y-110757843D01*
X154007122Y-110759363D01*
X154002464Y-110761640D01*
X153994549Y-110770173D01*
X153970457Y-110796144D01*
X153967177Y-110799549D01*
X153954330Y-110812396D01*
X153951675Y-110816266D01*
X153949617Y-110818610D01*
X153929144Y-110840680D01*
X153924833Y-110851485D01*
X153921632Y-110856549D01*
X153917835Y-110863660D01*
X153915412Y-110869128D01*
X153908831Y-110878721D01*
X153906145Y-110890041D01*
X153903428Y-110901489D01*
X153897864Y-110919082D01*
X153892489Y-110932554D01*
X153892488Y-110932559D01*
X153889194Y-110940815D01*
X153888600Y-110946873D01*
X153888600Y-110949960D01*
X153888450Y-110953024D01*
X153888157Y-110953010D01*
X153887145Y-110961657D01*
X153886625Y-110972296D01*
X153883938Y-110983617D01*
X153885507Y-110995146D01*
X153885507Y-110995148D01*
X153887449Y-111009416D01*
X153888600Y-111026407D01*
X153888600Y-123114818D01*
X153868598Y-123182939D01*
X153862546Y-123190449D01*
X153862789Y-123190626D01*
X153856962Y-123198646D01*
X153849950Y-123205658D01*
X153792354Y-123318696D01*
X153772508Y-123444000D01*
X153774059Y-123453793D01*
X153789933Y-123554016D01*
X153792354Y-123569304D01*
X153849950Y-123682342D01*
X153939658Y-123772050D01*
X154052696Y-123829646D01*
X154062485Y-123831196D01*
X154062487Y-123831197D01*
X154168207Y-123847941D01*
X154178000Y-123849492D01*
X154187793Y-123847941D01*
X154293513Y-123831197D01*
X154293515Y-123831196D01*
X154303304Y-123829646D01*
X154416342Y-123772050D01*
X154506050Y-123682342D01*
X154563646Y-123569304D01*
X154566068Y-123554016D01*
X154581941Y-123453793D01*
X154583492Y-123444000D01*
X154563646Y-123318696D01*
X154506050Y-123205658D01*
X154499038Y-123198646D01*
X154493211Y-123190626D01*
X154495959Y-123188629D01*
X154470279Y-123141601D01*
X154467400Y-123114818D01*
X154467400Y-118110000D01*
X162916508Y-118110000D01*
X162936354Y-118235304D01*
X162993950Y-118348342D01*
X163083658Y-118438050D01*
X163196696Y-118495646D01*
X163206489Y-118497197D01*
X163277072Y-118508376D01*
X163341225Y-118538788D01*
X163346457Y-118543730D01*
X165281695Y-120478969D01*
X165315721Y-120541281D01*
X165318600Y-120568064D01*
X165318600Y-133045763D01*
X165318429Y-133048088D01*
X165316746Y-133052991D01*
X165317182Y-133064616D01*
X165317182Y-133064618D01*
X165318511Y-133100012D01*
X165318600Y-133104738D01*
X165318600Y-133122917D01*
X165319458Y-133127527D01*
X165319660Y-133130639D01*
X165320790Y-133160726D01*
X165325383Y-133171416D01*
X165326698Y-133177251D01*
X165329045Y-133184977D01*
X165331196Y-133190552D01*
X165333326Y-133201988D01*
X165339430Y-133211890D01*
X165345601Y-133221901D01*
X165354109Y-133238280D01*
X165359835Y-133251607D01*
X165363347Y-133259781D01*
X165367211Y-133264484D01*
X165369389Y-133266662D01*
X165371450Y-133268935D01*
X165371233Y-133269131D01*
X165376647Y-133275979D01*
X165383792Y-133283859D01*
X165389897Y-133293763D01*
X165399155Y-133300803D01*
X165399157Y-133300805D01*
X165410623Y-133309524D01*
X165423453Y-133320726D01*
X165875843Y-133773117D01*
X165877363Y-133774878D01*
X165879640Y-133779536D01*
X165889351Y-133788544D01*
X165914145Y-133811544D01*
X165917550Y-133814824D01*
X165930396Y-133827670D01*
X165934266Y-133830325D01*
X165936610Y-133832383D01*
X165958680Y-133852856D01*
X165969489Y-133857168D01*
X165974555Y-133860371D01*
X165981662Y-133864166D01*
X165987131Y-133866590D01*
X165996721Y-133873168D01*
X166008037Y-133875854D01*
X166008038Y-133875854D01*
X166019488Y-133878571D01*
X166037072Y-133884131D01*
X166058815Y-133892806D01*
X166064873Y-133893400D01*
X166067949Y-133893400D01*
X166071024Y-133893550D01*
X166071010Y-133893842D01*
X166079655Y-133894854D01*
X166090296Y-133895374D01*
X166101617Y-133898061D01*
X166113146Y-133896492D01*
X166113147Y-133896492D01*
X166127407Y-133894551D01*
X166144399Y-133893400D01*
X170443763Y-133893400D01*
X170446088Y-133893571D01*
X170450991Y-133895254D01*
X170462616Y-133894818D01*
X170462618Y-133894818D01*
X170498012Y-133893489D01*
X170502738Y-133893400D01*
X170520917Y-133893400D01*
X170525527Y-133892542D01*
X170528639Y-133892340D01*
X170547099Y-133891647D01*
X170547101Y-133891646D01*
X170558726Y-133891210D01*
X170569416Y-133886617D01*
X170575251Y-133885302D01*
X170582977Y-133882955D01*
X170588552Y-133880804D01*
X170599988Y-133878674D01*
X170619902Y-133866399D01*
X170636280Y-133857891D01*
X170649607Y-133852165D01*
X170649609Y-133852164D01*
X170657781Y-133848653D01*
X170662484Y-133844789D01*
X170664662Y-133842611D01*
X170666935Y-133840550D01*
X170667131Y-133840767D01*
X170673979Y-133835353D01*
X170681859Y-133828208D01*
X170691763Y-133822103D01*
X170698803Y-133812845D01*
X170698805Y-133812843D01*
X170707527Y-133801373D01*
X170718729Y-133788544D01*
X171752144Y-132755129D01*
X171814456Y-132721103D01*
X171885271Y-132726168D01*
X171895364Y-132730837D01*
X171895370Y-132730823D01*
X171901019Y-132733291D01*
X171906398Y-132736297D01*
X171964357Y-132755129D01*
X172096471Y-132798056D01*
X172096475Y-132798057D01*
X172102329Y-132799959D01*
X172306894Y-132824351D01*
X172313029Y-132823879D01*
X172313031Y-132823879D01*
X172385625Y-132818293D01*
X172512300Y-132808546D01*
X172518230Y-132806890D01*
X172518232Y-132806890D01*
X172704797Y-132754800D01*
X172704796Y-132754800D01*
X172710725Y-132753145D01*
X172716214Y-132750372D01*
X172716220Y-132750370D01*
X172883312Y-132665965D01*
X172894610Y-132660258D01*
X172922142Y-132638748D01*
X173818500Y-132638748D01*
X173819707Y-132644816D01*
X173823331Y-132663033D01*
X173830133Y-132697231D01*
X173874448Y-132763552D01*
X173940769Y-132807867D01*
X173952938Y-132810288D01*
X173952939Y-132810288D01*
X173993184Y-132818293D01*
X173999252Y-132819500D01*
X175738748Y-132819500D01*
X175744816Y-132818293D01*
X175785061Y-132810288D01*
X175785062Y-132810288D01*
X175797231Y-132807867D01*
X175863552Y-132763552D01*
X175907867Y-132697231D01*
X175914670Y-132663033D01*
X175918293Y-132644816D01*
X175919500Y-132638748D01*
X175919500Y-130899252D01*
X175912198Y-130862544D01*
X175910288Y-130852939D01*
X175910288Y-130852938D01*
X175907867Y-130840769D01*
X175896086Y-130823137D01*
X175870443Y-130784761D01*
X175863552Y-130774448D01*
X175797231Y-130730133D01*
X175785062Y-130727712D01*
X175785061Y-130727712D01*
X175744816Y-130719707D01*
X175738748Y-130718500D01*
X173999252Y-130718500D01*
X173993184Y-130719707D01*
X173952939Y-130727712D01*
X173952938Y-130727712D01*
X173940769Y-130730133D01*
X173874448Y-130774448D01*
X173867557Y-130784761D01*
X173841915Y-130823137D01*
X173830133Y-130840769D01*
X173827712Y-130852938D01*
X173827712Y-130852939D01*
X173825802Y-130862544D01*
X173818500Y-130899252D01*
X173818500Y-132638748D01*
X172922142Y-132638748D01*
X173056951Y-132533424D01*
X173142364Y-132434472D01*
X173187540Y-132382134D01*
X173187540Y-132382133D01*
X173191564Y-132377472D01*
X173212387Y-132340818D01*
X173284096Y-132214586D01*
X173293323Y-132198344D01*
X173358351Y-132002863D01*
X173384171Y-131798474D01*
X173384583Y-131769000D01*
X173364480Y-131563970D01*
X173304935Y-131366749D01*
X173208218Y-131184849D01*
X173120363Y-131077128D01*
X173081906Y-131029975D01*
X173081903Y-131029972D01*
X173078011Y-131025200D01*
X173016671Y-130974455D01*
X172924025Y-130897811D01*
X172924021Y-130897809D01*
X172919275Y-130893882D01*
X172774972Y-130815858D01*
X172743474Y-130798827D01*
X172738055Y-130795897D01*
X172541254Y-130734977D01*
X172535129Y-130734333D01*
X172535128Y-130734333D01*
X172342498Y-130714087D01*
X172342496Y-130714087D01*
X172336369Y-130713443D01*
X172249529Y-130721346D01*
X172137342Y-130731555D01*
X172137339Y-130731556D01*
X172131203Y-130732114D01*
X171933572Y-130790280D01*
X171751002Y-130885726D01*
X171746201Y-130889586D01*
X171746198Y-130889588D01*
X171655590Y-130962439D01*
X171590447Y-131014815D01*
X171458024Y-131172630D01*
X171455056Y-131178028D01*
X171455053Y-131178033D01*
X171378980Y-131316411D01*
X171358776Y-131353162D01*
X171296484Y-131549532D01*
X171295798Y-131555649D01*
X171295797Y-131555653D01*
X171274207Y-131748137D01*
X171273520Y-131754262D01*
X171290759Y-131959553D01*
X171292458Y-131965478D01*
X171319657Y-132060331D01*
X171347544Y-132157586D01*
X171350360Y-132163066D01*
X171350362Y-132163070D01*
X171367871Y-132197140D01*
X171381218Y-132266870D01*
X171354747Y-132332748D01*
X171344907Y-132343819D01*
X170411029Y-133277697D01*
X170348719Y-133311721D01*
X170321936Y-133314600D01*
X166288064Y-133314600D01*
X166219943Y-133294598D01*
X166198969Y-133277695D01*
X165934305Y-133013031D01*
X165900279Y-132950719D01*
X165897400Y-132923936D01*
X165897400Y-120446237D01*
X165897571Y-120443912D01*
X165899254Y-120439009D01*
X165898740Y-120425300D01*
X165897489Y-120391988D01*
X165897400Y-120387262D01*
X165897400Y-120369083D01*
X165896542Y-120364473D01*
X165896340Y-120361361D01*
X165895647Y-120342899D01*
X165895646Y-120342896D01*
X165895210Y-120331274D01*
X165890618Y-120320587D01*
X165889303Y-120314752D01*
X165886954Y-120307019D01*
X165884803Y-120301444D01*
X165882674Y-120290012D01*
X165870395Y-120270091D01*
X165861887Y-120253714D01*
X165856160Y-120240384D01*
X165852652Y-120232219D01*
X165848789Y-120227515D01*
X165846608Y-120225334D01*
X165844545Y-120223059D01*
X165844762Y-120222862D01*
X165839361Y-120216029D01*
X165832207Y-120208139D01*
X165826103Y-120198237D01*
X165805371Y-120182472D01*
X165792552Y-120171278D01*
X163755730Y-118134456D01*
X163721704Y-118072144D01*
X163720376Y-118065072D01*
X163709197Y-117994488D01*
X163709197Y-117994487D01*
X163707646Y-117984696D01*
X163650050Y-117871658D01*
X163560342Y-117781950D01*
X163447304Y-117724354D01*
X163437515Y-117722804D01*
X163437513Y-117722803D01*
X163331793Y-117706059D01*
X163322000Y-117704508D01*
X163312207Y-117706059D01*
X163206487Y-117722803D01*
X163206485Y-117722804D01*
X163196696Y-117724354D01*
X163083658Y-117781950D01*
X162993950Y-117871658D01*
X162936354Y-117984696D01*
X162916508Y-118110000D01*
X154467400Y-118110000D01*
X154467400Y-115588500D01*
X158598508Y-115588500D01*
X158618354Y-115713804D01*
X158675950Y-115826842D01*
X158765658Y-115916550D01*
X158878696Y-115974146D01*
X158888485Y-115975696D01*
X158888487Y-115975697D01*
X158994207Y-115992441D01*
X159004000Y-115993992D01*
X159013793Y-115992441D01*
X159119513Y-115975697D01*
X159119515Y-115975696D01*
X159129304Y-115974146D01*
X159242342Y-115916550D01*
X159332050Y-115826842D01*
X159389646Y-115713804D01*
X159405858Y-115611446D01*
X159441212Y-115542062D01*
X159594969Y-115388305D01*
X159657281Y-115354279D01*
X159684064Y-115351400D01*
X160774533Y-115351400D01*
X160842654Y-115371402D01*
X160889147Y-115425058D01*
X160898982Y-115497110D01*
X160897862Y-115504183D01*
X160884508Y-115588500D01*
X160904354Y-115713804D01*
X160961950Y-115826842D01*
X161051658Y-115916550D01*
X161164696Y-115974146D01*
X161174485Y-115975696D01*
X161174487Y-115975697D01*
X161280207Y-115992441D01*
X161290000Y-115993992D01*
X161299793Y-115992441D01*
X161405513Y-115975697D01*
X161405515Y-115975696D01*
X161415304Y-115974146D01*
X161528342Y-115916550D01*
X161548587Y-115896305D01*
X161610899Y-115862279D01*
X161637682Y-115859400D01*
X162641937Y-115859400D01*
X162710058Y-115879402D01*
X162731032Y-115896305D01*
X169462695Y-122627968D01*
X169496721Y-122690280D01*
X169499600Y-122717063D01*
X169499600Y-130664815D01*
X169479598Y-130732936D01*
X169425942Y-130779429D01*
X169409186Y-130785684D01*
X169393572Y-130790280D01*
X169211002Y-130885726D01*
X169206201Y-130889586D01*
X169206198Y-130889588D01*
X169115590Y-130962439D01*
X169050447Y-131014815D01*
X168918024Y-131172630D01*
X168915056Y-131178028D01*
X168915053Y-131178033D01*
X168838980Y-131316411D01*
X168818776Y-131353162D01*
X168756484Y-131549532D01*
X168755798Y-131555649D01*
X168755797Y-131555653D01*
X168734207Y-131748137D01*
X168733520Y-131754262D01*
X168750759Y-131959553D01*
X168752458Y-131965478D01*
X168779657Y-132060331D01*
X168807544Y-132157586D01*
X168810359Y-132163063D01*
X168810360Y-132163066D01*
X168898897Y-132335341D01*
X168901712Y-132340818D01*
X169029677Y-132502270D01*
X169034370Y-132506264D01*
X169034371Y-132506265D01*
X169103734Y-132565297D01*
X169186564Y-132635791D01*
X169366398Y-132736297D01*
X169424357Y-132755129D01*
X169556471Y-132798056D01*
X169556475Y-132798057D01*
X169562329Y-132799959D01*
X169766894Y-132824351D01*
X169773029Y-132823879D01*
X169773031Y-132823879D01*
X169845625Y-132818293D01*
X169972300Y-132808546D01*
X169978230Y-132806890D01*
X169978232Y-132806890D01*
X170164797Y-132754800D01*
X170164796Y-132754800D01*
X170170725Y-132753145D01*
X170176214Y-132750372D01*
X170176220Y-132750370D01*
X170343312Y-132665965D01*
X170354610Y-132660258D01*
X170516951Y-132533424D01*
X170602364Y-132434472D01*
X170647540Y-132382134D01*
X170647540Y-132382133D01*
X170651564Y-132377472D01*
X170672387Y-132340818D01*
X170744096Y-132214586D01*
X170753323Y-132198344D01*
X170818351Y-132002863D01*
X170844171Y-131798474D01*
X170844583Y-131769000D01*
X170824480Y-131563970D01*
X170764935Y-131366749D01*
X170668218Y-131184849D01*
X170580363Y-131077128D01*
X170541906Y-131029975D01*
X170541903Y-131029972D01*
X170538011Y-131025200D01*
X170476671Y-130974455D01*
X170384025Y-130897811D01*
X170384021Y-130897809D01*
X170379275Y-130893882D01*
X170234972Y-130815858D01*
X170203474Y-130798827D01*
X170198055Y-130795897D01*
X170167139Y-130786327D01*
X170107982Y-130747078D01*
X170079434Y-130682074D01*
X170078400Y-130665963D01*
X170078400Y-122595243D01*
X170078571Y-122592914D01*
X170080255Y-122588009D01*
X170078489Y-122540973D01*
X170078400Y-122536246D01*
X170078400Y-122518083D01*
X170077542Y-122513474D01*
X170077340Y-122510366D01*
X170076647Y-122491902D01*
X170076646Y-122491900D01*
X170076210Y-122480275D01*
X170071618Y-122469586D01*
X170070304Y-122463756D01*
X170067955Y-122456023D01*
X170065804Y-122450449D01*
X170063674Y-122439012D01*
X170051396Y-122419093D01*
X170042891Y-122402720D01*
X170037165Y-122389394D01*
X170037165Y-122389393D01*
X170033653Y-122381220D01*
X170029789Y-122376516D01*
X170027604Y-122374331D01*
X170025549Y-122372065D01*
X170025766Y-122371868D01*
X170020353Y-122365021D01*
X170013208Y-122357141D01*
X170007103Y-122347237D01*
X169997845Y-122340197D01*
X169997843Y-122340195D01*
X169986373Y-122331473D01*
X169973544Y-122320271D01*
X163219769Y-115566495D01*
X163185743Y-115504183D01*
X163190808Y-115433368D01*
X163233355Y-115376532D01*
X163299875Y-115351721D01*
X163308864Y-115351400D01*
X164516818Y-115351400D01*
X164584939Y-115371402D01*
X164592449Y-115377454D01*
X164592626Y-115377211D01*
X164600646Y-115383038D01*
X164607658Y-115390050D01*
X164720696Y-115447646D01*
X164730485Y-115449196D01*
X164730487Y-115449197D01*
X164836207Y-115465941D01*
X164846000Y-115467492D01*
X164855793Y-115465941D01*
X164961513Y-115449197D01*
X164961515Y-115449196D01*
X164971304Y-115447646D01*
X165084342Y-115390050D01*
X165174050Y-115300342D01*
X165231646Y-115187304D01*
X165235309Y-115164181D01*
X165249941Y-115071793D01*
X165251492Y-115062000D01*
X165247486Y-115036704D01*
X165233197Y-114946487D01*
X165233196Y-114946485D01*
X165231646Y-114936696D01*
X165174050Y-114823658D01*
X165084342Y-114733950D01*
X164971304Y-114676354D01*
X164961515Y-114674804D01*
X164961513Y-114674803D01*
X164855793Y-114658059D01*
X164846000Y-114656508D01*
X164836207Y-114658059D01*
X164730487Y-114674803D01*
X164730485Y-114674804D01*
X164720696Y-114676354D01*
X164607658Y-114733950D01*
X164600646Y-114740962D01*
X164592626Y-114746789D01*
X164590629Y-114744041D01*
X164543601Y-114769721D01*
X164516818Y-114772600D01*
X159562236Y-114772600D01*
X159559912Y-114772429D01*
X159555009Y-114770746D01*
X159509267Y-114772463D01*
X159507999Y-114772511D01*
X159503272Y-114772600D01*
X159485083Y-114772600D01*
X159480466Y-114773460D01*
X159477349Y-114773662D01*
X159447274Y-114774791D01*
X159436588Y-114779382D01*
X159430756Y-114780696D01*
X159423012Y-114783049D01*
X159417447Y-114785196D01*
X159406012Y-114787326D01*
X159396110Y-114793430D01*
X159396109Y-114793430D01*
X159386093Y-114799604D01*
X159369716Y-114808111D01*
X159356390Y-114813837D01*
X159356387Y-114813839D01*
X159348219Y-114817348D01*
X159343515Y-114821211D01*
X159341334Y-114823392D01*
X159339059Y-114825455D01*
X159338862Y-114825238D01*
X159332029Y-114830639D01*
X159324139Y-114837793D01*
X159314237Y-114843897D01*
X159298472Y-114864629D01*
X159287278Y-114877448D01*
X159006475Y-115158251D01*
X158937091Y-115193605D01*
X158888488Y-115201303D01*
X158888487Y-115201303D01*
X158878696Y-115202854D01*
X158765658Y-115260450D01*
X158675950Y-115350158D01*
X158618354Y-115463196D01*
X158616804Y-115472985D01*
X158616803Y-115472987D01*
X158611862Y-115504183D01*
X158598508Y-115588500D01*
X154467400Y-115588500D01*
X154467400Y-114046000D01*
X158344508Y-114046000D01*
X158346059Y-114055793D01*
X158362487Y-114159513D01*
X158364354Y-114171304D01*
X158421950Y-114284342D01*
X158511658Y-114374050D01*
X158624696Y-114431646D01*
X158634485Y-114433196D01*
X158634487Y-114433197D01*
X158740207Y-114449941D01*
X158750000Y-114451492D01*
X158759793Y-114449941D01*
X158865513Y-114433197D01*
X158865515Y-114433196D01*
X158875304Y-114431646D01*
X158962469Y-114387233D01*
X159019672Y-114373500D01*
X163306328Y-114373500D01*
X163363531Y-114387233D01*
X163450696Y-114431646D01*
X163460485Y-114433196D01*
X163460487Y-114433197D01*
X163566207Y-114449941D01*
X163576000Y-114451492D01*
X163585793Y-114449941D01*
X163691513Y-114433197D01*
X163691515Y-114433196D01*
X163701304Y-114431646D01*
X163814342Y-114374050D01*
X163904050Y-114284342D01*
X163961646Y-114171304D01*
X163963514Y-114159513D01*
X163979941Y-114055793D01*
X163981492Y-114046000D01*
X182728508Y-114046000D01*
X182730059Y-114055793D01*
X182746487Y-114159513D01*
X182748354Y-114171304D01*
X182805950Y-114284342D01*
X182895658Y-114374050D01*
X183008696Y-114431646D01*
X183018485Y-114433196D01*
X183018487Y-114433197D01*
X183124207Y-114449941D01*
X183134000Y-114451492D01*
X183143793Y-114449941D01*
X183249513Y-114433197D01*
X183249515Y-114433196D01*
X183259304Y-114431646D01*
X183372342Y-114374050D01*
X183462050Y-114284342D01*
X183519646Y-114171304D01*
X183521514Y-114159513D01*
X183537941Y-114055793D01*
X183539492Y-114046000D01*
X183531502Y-113995553D01*
X183525917Y-113960289D01*
X189841824Y-113960289D01*
X189843161Y-113980686D01*
X189856254Y-114180453D01*
X189857675Y-114186049D01*
X189857676Y-114186054D01*
X189902016Y-114360639D01*
X189910565Y-114394301D01*
X190002937Y-114594671D01*
X190006270Y-114599387D01*
X190125152Y-114767601D01*
X190130276Y-114774852D01*
X190134418Y-114778887D01*
X190143081Y-114787326D01*
X190288319Y-114928810D01*
X190471771Y-115051390D01*
X190477074Y-115053668D01*
X190477077Y-115053670D01*
X190635001Y-115121519D01*
X190674491Y-115138485D01*
X190754143Y-115156508D01*
X190884050Y-115185904D01*
X190884056Y-115185905D01*
X190889687Y-115187179D01*
X190895458Y-115187406D01*
X190895460Y-115187406D01*
X190963400Y-115190075D01*
X191110154Y-115195841D01*
X191219330Y-115180011D01*
X191322793Y-115165010D01*
X191322798Y-115165009D01*
X191328507Y-115164181D01*
X191333971Y-115162326D01*
X191333976Y-115162325D01*
X191531963Y-115095118D01*
X191531968Y-115095116D01*
X191537435Y-115093260D01*
X191567730Y-115076294D01*
X191724901Y-114988274D01*
X191724905Y-114988271D01*
X191729939Y-114985452D01*
X191734376Y-114981762D01*
X191734380Y-114981759D01*
X191895136Y-114848059D01*
X191899574Y-114844368D01*
X191918015Y-114822195D01*
X192036965Y-114679174D01*
X192036968Y-114679170D01*
X192040658Y-114674733D01*
X192043477Y-114669699D01*
X192043480Y-114669695D01*
X192145643Y-114487270D01*
X192145643Y-114487269D01*
X192148466Y-114482229D01*
X192150322Y-114476762D01*
X192150324Y-114476757D01*
X192217531Y-114278770D01*
X192217532Y-114278765D01*
X192219387Y-114273301D01*
X192220215Y-114267592D01*
X192220216Y-114267587D01*
X192250514Y-114058622D01*
X192251047Y-114054948D01*
X192252699Y-113991849D01*
X192232510Y-113772138D01*
X192227726Y-113755173D01*
X192200984Y-113660354D01*
X192172621Y-113559785D01*
X192170068Y-113554608D01*
X192170066Y-113554603D01*
X192077589Y-113367081D01*
X192075035Y-113361902D01*
X191943023Y-113185116D01*
X191781005Y-113035347D01*
X191776122Y-113032266D01*
X191776118Y-113032263D01*
X191599289Y-112920693D01*
X191599290Y-112920693D01*
X191594406Y-112917612D01*
X191389476Y-112835854D01*
X191383816Y-112834728D01*
X191383812Y-112834727D01*
X191178746Y-112793937D01*
X191178743Y-112793937D01*
X191173079Y-112792810D01*
X191167304Y-112792734D01*
X191167300Y-112792734D01*
X191056559Y-112791285D01*
X190952461Y-112789922D01*
X190946764Y-112790901D01*
X190946763Y-112790901D01*
X190740708Y-112826307D01*
X190740707Y-112826307D01*
X190735011Y-112827286D01*
X190528012Y-112903652D01*
X190523051Y-112906604D01*
X190523050Y-112906604D01*
X190371876Y-112996544D01*
X190338395Y-113016463D01*
X190172512Y-113161938D01*
X190168945Y-113166463D01*
X190168940Y-113166468D01*
X190088553Y-113268439D01*
X190035917Y-113335208D01*
X190033228Y-113340319D01*
X190033226Y-113340322D01*
X190018260Y-113368768D01*
X189933185Y-113530469D01*
X189867757Y-113741182D01*
X189841824Y-113960289D01*
X183525917Y-113960289D01*
X183521197Y-113930487D01*
X183521196Y-113930485D01*
X183519646Y-113920696D01*
X183462050Y-113807658D01*
X183372342Y-113717950D01*
X183259304Y-113660354D01*
X183249515Y-113658804D01*
X183249513Y-113658803D01*
X183143793Y-113642059D01*
X183134000Y-113640508D01*
X183124207Y-113642059D01*
X183018487Y-113658803D01*
X183018485Y-113658804D01*
X183008696Y-113660354D01*
X182895658Y-113717950D01*
X182805950Y-113807658D01*
X182748354Y-113920696D01*
X182746804Y-113930485D01*
X182746803Y-113930487D01*
X182736498Y-113995553D01*
X182728508Y-114046000D01*
X163981492Y-114046000D01*
X163973502Y-113995553D01*
X163963197Y-113930487D01*
X163963196Y-113930485D01*
X163961646Y-113920696D01*
X163904050Y-113807658D01*
X163814342Y-113717950D01*
X163701304Y-113660354D01*
X163691515Y-113658804D01*
X163691513Y-113658803D01*
X163585793Y-113642059D01*
X163576000Y-113640508D01*
X163566207Y-113642059D01*
X163460487Y-113658803D01*
X163460485Y-113658804D01*
X163450696Y-113660354D01*
X163363531Y-113704767D01*
X163306328Y-113718500D01*
X159019672Y-113718500D01*
X158962469Y-113704767D01*
X158875304Y-113660354D01*
X158865515Y-113658804D01*
X158865513Y-113658803D01*
X158759793Y-113642059D01*
X158750000Y-113640508D01*
X158740207Y-113642059D01*
X158634487Y-113658803D01*
X158634485Y-113658804D01*
X158624696Y-113660354D01*
X158511658Y-113717950D01*
X158421950Y-113807658D01*
X158364354Y-113920696D01*
X158362804Y-113930485D01*
X158362803Y-113930487D01*
X158352498Y-113995553D01*
X158344508Y-114046000D01*
X154467400Y-114046000D01*
X154467400Y-112268000D01*
X185014508Y-112268000D01*
X185034354Y-112393304D01*
X185091950Y-112506342D01*
X185181658Y-112596050D01*
X185294696Y-112653646D01*
X185304485Y-112655196D01*
X185304487Y-112655197D01*
X185410207Y-112671941D01*
X185420000Y-112673492D01*
X185429793Y-112671941D01*
X185535513Y-112655197D01*
X185535515Y-112655196D01*
X185545304Y-112653646D01*
X185658342Y-112596050D01*
X185748050Y-112506342D01*
X185805646Y-112393304D01*
X185825492Y-112268000D01*
X185805646Y-112142696D01*
X185748050Y-112029658D01*
X185658342Y-111939950D01*
X185545304Y-111882354D01*
X185535515Y-111880804D01*
X185535513Y-111880803D01*
X185429793Y-111864059D01*
X185420000Y-111862508D01*
X185410207Y-111864059D01*
X185304487Y-111880803D01*
X185304485Y-111880804D01*
X185294696Y-111882354D01*
X185181658Y-111939950D01*
X185091950Y-112029658D01*
X185034354Y-112142696D01*
X185014508Y-112268000D01*
X154467400Y-112268000D01*
X154467400Y-111170063D01*
X154487402Y-111101942D01*
X154504305Y-111080968D01*
X154609191Y-110976082D01*
X154671503Y-110942056D01*
X154742318Y-110947121D01*
X154799154Y-110989668D01*
X154823965Y-111056188D01*
X154813537Y-111107655D01*
X154815920Y-111108429D01*
X154812854Y-111117863D01*
X154808354Y-111126696D01*
X154788508Y-111252000D01*
X154808354Y-111377304D01*
X154865950Y-111490342D01*
X154955658Y-111580050D01*
X155068696Y-111637646D01*
X155078485Y-111639196D01*
X155078487Y-111639197D01*
X155184207Y-111655941D01*
X155194000Y-111657492D01*
X155203793Y-111655941D01*
X155309513Y-111639197D01*
X155309515Y-111639196D01*
X155319304Y-111637646D01*
X155432342Y-111580050D01*
X155522050Y-111490342D01*
X155579646Y-111377304D01*
X155599492Y-111252000D01*
X155579646Y-111126696D01*
X155522050Y-111013658D01*
X155432342Y-110923950D01*
X155319304Y-110866354D01*
X155309515Y-110864804D01*
X155309513Y-110864803D01*
X155203793Y-110848059D01*
X155194000Y-110846508D01*
X155184207Y-110848059D01*
X155078487Y-110864803D01*
X155078485Y-110864804D01*
X155068696Y-110866354D01*
X155059863Y-110870854D01*
X155050429Y-110873920D01*
X155049588Y-110871331D01*
X154994600Y-110881657D01*
X154928816Y-110854955D01*
X154887911Y-110796927D01*
X154884872Y-110725995D01*
X154918082Y-110667191D01*
X155276968Y-110308305D01*
X155339280Y-110274279D01*
X155366063Y-110271400D01*
X164541763Y-110271400D01*
X164544088Y-110271571D01*
X164548991Y-110273254D01*
X164560616Y-110272818D01*
X164560618Y-110272818D01*
X164596012Y-110271489D01*
X164600738Y-110271400D01*
X164618917Y-110271400D01*
X164623527Y-110270542D01*
X164626639Y-110270340D01*
X164645099Y-110269647D01*
X164645101Y-110269646D01*
X164656726Y-110269210D01*
X164667416Y-110264617D01*
X164673251Y-110263302D01*
X164680977Y-110260955D01*
X164686552Y-110258804D01*
X164697988Y-110256674D01*
X164717902Y-110244399D01*
X164734280Y-110235891D01*
X164747607Y-110230165D01*
X164747609Y-110230164D01*
X164755781Y-110226653D01*
X164760484Y-110222789D01*
X164762662Y-110220611D01*
X164764935Y-110218550D01*
X164765131Y-110218767D01*
X164771979Y-110213353D01*
X164779859Y-110206208D01*
X164789763Y-110200103D01*
X164796803Y-110190845D01*
X164796805Y-110190843D01*
X164805527Y-110179373D01*
X164816729Y-110166544D01*
X167894113Y-107089161D01*
X167895880Y-107087636D01*
X167900536Y-107085360D01*
X167932543Y-107050856D01*
X167935823Y-107047451D01*
X167948670Y-107034604D01*
X167951325Y-107030734D01*
X167953384Y-107028389D01*
X167965944Y-107014849D01*
X167973856Y-107006320D01*
X167978167Y-106995515D01*
X167981368Y-106990451D01*
X167985165Y-106983340D01*
X167987588Y-106977872D01*
X167994169Y-106968279D01*
X167999572Y-106945511D01*
X168005136Y-106927918D01*
X168010511Y-106914446D01*
X168010512Y-106914441D01*
X168013806Y-106906185D01*
X168014400Y-106900127D01*
X168014400Y-106897040D01*
X168014550Y-106893976D01*
X168014843Y-106893990D01*
X168015855Y-106885343D01*
X168016375Y-106874704D01*
X168019062Y-106863383D01*
X168017360Y-106850873D01*
X168015551Y-106837584D01*
X168014400Y-106820593D01*
X168014400Y-105156000D01*
X178156508Y-105156000D01*
X178158059Y-105165793D01*
X178169736Y-105239517D01*
X178176354Y-105281304D01*
X178233950Y-105394342D01*
X178323658Y-105484050D01*
X178436696Y-105541646D01*
X178446485Y-105543196D01*
X178446487Y-105543197D01*
X178552207Y-105559941D01*
X178562000Y-105561492D01*
X178571793Y-105559941D01*
X178677513Y-105543197D01*
X178677515Y-105543196D01*
X178687304Y-105541646D01*
X178800342Y-105484050D01*
X178890050Y-105394342D01*
X178947646Y-105281304D01*
X178954265Y-105239517D01*
X178965941Y-105165793D01*
X178967492Y-105156000D01*
X178947646Y-105030696D01*
X178890050Y-104917658D01*
X178836487Y-104864095D01*
X178802461Y-104801783D01*
X178807526Y-104730968D01*
X178836487Y-104685905D01*
X178890050Y-104632342D01*
X178947646Y-104519304D01*
X178967492Y-104394000D01*
X178947646Y-104268696D01*
X178890050Y-104155658D01*
X178800342Y-104065950D01*
X178687304Y-104008354D01*
X178677515Y-104006804D01*
X178677513Y-104006803D01*
X178571793Y-103990059D01*
X178562000Y-103988508D01*
X178552207Y-103990059D01*
X178446487Y-104006803D01*
X178446485Y-104006804D01*
X178436696Y-104008354D01*
X178323658Y-104065950D01*
X178233950Y-104155658D01*
X178176354Y-104268696D01*
X178156508Y-104394000D01*
X178176354Y-104519304D01*
X178233950Y-104632342D01*
X178287513Y-104685905D01*
X178321539Y-104748217D01*
X178316474Y-104819032D01*
X178287513Y-104864095D01*
X178233950Y-104917658D01*
X178176354Y-105030696D01*
X178156508Y-105156000D01*
X168014400Y-105156000D01*
X168014400Y-103496500D01*
X168034402Y-103428379D01*
X168088058Y-103381886D01*
X168140400Y-103370500D01*
X168433218Y-103370500D01*
X168437768Y-103369830D01*
X168437771Y-103369830D01*
X168492426Y-103361784D01*
X168492427Y-103361784D01*
X168502112Y-103360358D01*
X168596804Y-103313867D01*
X168597507Y-103313522D01*
X168597509Y-103313521D01*
X168606855Y-103308932D01*
X168689293Y-103226350D01*
X168740536Y-103121518D01*
X168750500Y-103053218D01*
X168750500Y-102686782D01*
X168743686Y-102640491D01*
X168741784Y-102627574D01*
X168741784Y-102627573D01*
X168740358Y-102617888D01*
X168688932Y-102513145D01*
X168606350Y-102430707D01*
X168501518Y-102379464D01*
X168471027Y-102375016D01*
X168437744Y-102370160D01*
X168437740Y-102370160D01*
X168433218Y-102369500D01*
X167016782Y-102369500D01*
X167012231Y-102370170D01*
X167012217Y-102370171D01*
X166953448Y-102378823D01*
X166883140Y-102368956D01*
X166829328Y-102322644D01*
X166809097Y-102254591D01*
X166828869Y-102186404D01*
X166846001Y-102165072D01*
X166879382Y-102131691D01*
X166941694Y-102097665D01*
X166986664Y-102096106D01*
X167016782Y-102100500D01*
X168433218Y-102100500D01*
X168437768Y-102099830D01*
X168437771Y-102099830D01*
X168492426Y-102091784D01*
X168492427Y-102091784D01*
X168502112Y-102090358D01*
X168596804Y-102043867D01*
X168597507Y-102043522D01*
X168597509Y-102043521D01*
X168606855Y-102038932D01*
X168689293Y-101956350D01*
X168740536Y-101851518D01*
X168747528Y-101803588D01*
X168749840Y-101787744D01*
X168749840Y-101787740D01*
X168750500Y-101783218D01*
X168750500Y-101416782D01*
X168745150Y-101380436D01*
X168741784Y-101357574D01*
X168741784Y-101357573D01*
X168740358Y-101347888D01*
X168688932Y-101243145D01*
X168606350Y-101160707D01*
X168501518Y-101109464D01*
X168471027Y-101105016D01*
X168437744Y-101100160D01*
X168437740Y-101100160D01*
X168433218Y-101099500D01*
X167493266Y-101099500D01*
X167425145Y-101079498D01*
X167378652Y-101025842D01*
X167368548Y-100955568D01*
X167398042Y-100890988D01*
X167404171Y-100884405D01*
X167421171Y-100867405D01*
X167483483Y-100833379D01*
X167510266Y-100830500D01*
X168433218Y-100830500D01*
X168437768Y-100829830D01*
X168437771Y-100829830D01*
X168492426Y-100821784D01*
X168492427Y-100821784D01*
X168502112Y-100820358D01*
X168552008Y-100795860D01*
X168597507Y-100773522D01*
X168597509Y-100773521D01*
X168606855Y-100768932D01*
X168689293Y-100686350D01*
X168740536Y-100581518D01*
X168750500Y-100513218D01*
X168750500Y-100146782D01*
X168743238Y-100097448D01*
X168741784Y-100087574D01*
X168741784Y-100087573D01*
X168740358Y-100077888D01*
X168688932Y-99973145D01*
X168606350Y-99890707D01*
X168501518Y-99839464D01*
X168471027Y-99835016D01*
X168437744Y-99830160D01*
X168437740Y-99830160D01*
X168433218Y-99829500D01*
X167016782Y-99829500D01*
X167012232Y-99830170D01*
X167012229Y-99830170D01*
X166957574Y-99838216D01*
X166957573Y-99838216D01*
X166947888Y-99839642D01*
X166897992Y-99864140D01*
X166852493Y-99886478D01*
X166852491Y-99886479D01*
X166843145Y-99891068D01*
X166760707Y-99973650D01*
X166709464Y-100078482D01*
X166699500Y-100146782D01*
X166699500Y-100513218D01*
X166700170Y-100517768D01*
X166700170Y-100517771D01*
X166708216Y-100572426D01*
X166709642Y-100582112D01*
X166713958Y-100590902D01*
X166728628Y-100620782D01*
X166740696Y-100690746D01*
X166713022Y-100756127D01*
X166704620Y-100765408D01*
X165692887Y-101777141D01*
X165691120Y-101778666D01*
X165686464Y-101780942D01*
X165678060Y-101790002D01*
X165654457Y-101815446D01*
X165651177Y-101818851D01*
X165638330Y-101831698D01*
X165635675Y-101835568D01*
X165633617Y-101837912D01*
X165613144Y-101859982D01*
X165608833Y-101870787D01*
X165605632Y-101875851D01*
X165601835Y-101882962D01*
X165599412Y-101888431D01*
X165592831Y-101898023D01*
X165588641Y-101915678D01*
X165553453Y-101977337D01*
X165490512Y-102010185D01*
X165419804Y-102003791D01*
X165376952Y-101975678D01*
X164832161Y-101430887D01*
X164830636Y-101429120D01*
X164828360Y-101424464D01*
X164793856Y-101392457D01*
X164790451Y-101389177D01*
X164777604Y-101376330D01*
X164773734Y-101373675D01*
X164771389Y-101371616D01*
X164757849Y-101359056D01*
X164757850Y-101359056D01*
X164749320Y-101351144D01*
X164738515Y-101346833D01*
X164733451Y-101343632D01*
X164726340Y-101339835D01*
X164720872Y-101337412D01*
X164711279Y-101330831D01*
X164688511Y-101325428D01*
X164670918Y-101319864D01*
X164657446Y-101314489D01*
X164657441Y-101314488D01*
X164649185Y-101311194D01*
X164643127Y-101310600D01*
X164640040Y-101310600D01*
X164636976Y-101310450D01*
X164636990Y-101310157D01*
X164628343Y-101309145D01*
X164617704Y-101308625D01*
X164606383Y-101305938D01*
X164594854Y-101307507D01*
X164594852Y-101307507D01*
X164580584Y-101309449D01*
X164563593Y-101310600D01*
X163549877Y-101310600D01*
X163481756Y-101290598D01*
X163447426Y-101257946D01*
X163443521Y-101252491D01*
X163438932Y-101243145D01*
X163356350Y-101160707D01*
X163251518Y-101109464D01*
X163221027Y-101105016D01*
X163187744Y-101100160D01*
X163187740Y-101100160D01*
X163183218Y-101099500D01*
X162243265Y-101099500D01*
X162175144Y-101079498D01*
X162128651Y-101025842D01*
X162118547Y-100955568D01*
X162148041Y-100890988D01*
X162154170Y-100884405D01*
X162171170Y-100867405D01*
X162233482Y-100833379D01*
X162260265Y-100830500D01*
X163183218Y-100830500D01*
X163187768Y-100829830D01*
X163187771Y-100829830D01*
X163242426Y-100821784D01*
X163242427Y-100821784D01*
X163252112Y-100820358D01*
X163302008Y-100795860D01*
X163347507Y-100773522D01*
X163347509Y-100773521D01*
X163356855Y-100768932D01*
X163439293Y-100686350D01*
X163490536Y-100581518D01*
X163500500Y-100513218D01*
X163500500Y-100146782D01*
X163493238Y-100097448D01*
X163491784Y-100087574D01*
X163491784Y-100087573D01*
X163490358Y-100077888D01*
X163438932Y-99973145D01*
X163356350Y-99890707D01*
X163251518Y-99839464D01*
X163221027Y-99835016D01*
X163187744Y-99830160D01*
X163187740Y-99830160D01*
X163183218Y-99829500D01*
X161766782Y-99829500D01*
X161762232Y-99830170D01*
X161762229Y-99830170D01*
X161707574Y-99838216D01*
X161707573Y-99838216D01*
X161697888Y-99839642D01*
X161647992Y-99864140D01*
X161602493Y-99886478D01*
X161602491Y-99886479D01*
X161593145Y-99891068D01*
X161510707Y-99973650D01*
X161459464Y-100078482D01*
X161449500Y-100146782D01*
X161449500Y-100513218D01*
X161450170Y-100517768D01*
X161450170Y-100517771D01*
X161458216Y-100572426D01*
X161459642Y-100582112D01*
X161463958Y-100590902D01*
X161478628Y-100620782D01*
X161490696Y-100690746D01*
X161463022Y-100756127D01*
X161454620Y-100765408D01*
X160104887Y-102115141D01*
X160103120Y-102116666D01*
X160098464Y-102118942D01*
X160077731Y-102141293D01*
X160066457Y-102153446D01*
X160063177Y-102156851D01*
X160050330Y-102169698D01*
X160047675Y-102173568D01*
X160045617Y-102175912D01*
X160025144Y-102197982D01*
X160020833Y-102208787D01*
X160017632Y-102213851D01*
X160013835Y-102220962D01*
X160011412Y-102226430D01*
X160004831Y-102236023D01*
X160002145Y-102247343D01*
X159999428Y-102258791D01*
X159993864Y-102276384D01*
X159988489Y-102289856D01*
X159988488Y-102289861D01*
X159985194Y-102298117D01*
X159984600Y-102304175D01*
X159984600Y-102307262D01*
X159984450Y-102310326D01*
X159984157Y-102310312D01*
X159983145Y-102318959D01*
X159982625Y-102329598D01*
X159979938Y-102340919D01*
X159981507Y-102352448D01*
X159981507Y-102352450D01*
X159983449Y-102366718D01*
X159984600Y-102383709D01*
X159984600Y-102540818D01*
X159964598Y-102608939D01*
X159958546Y-102616449D01*
X159958789Y-102616626D01*
X159952962Y-102624646D01*
X159945950Y-102631658D01*
X159888354Y-102744696D01*
X159868508Y-102870000D01*
X159888354Y-102995304D01*
X159945950Y-103108342D01*
X160035658Y-103198050D01*
X160148696Y-103255646D01*
X160158485Y-103257196D01*
X160158487Y-103257197D01*
X160264207Y-103273941D01*
X160274000Y-103275492D01*
X160283793Y-103273941D01*
X160389513Y-103257197D01*
X160389515Y-103257196D01*
X160399304Y-103255646D01*
X160512342Y-103198050D01*
X160602050Y-103108342D01*
X160630137Y-103053218D01*
X161449500Y-103053218D01*
X161450170Y-103057768D01*
X161450170Y-103057771D01*
X161458216Y-103112426D01*
X161459642Y-103122112D01*
X161463958Y-103130902D01*
X161496926Y-103198050D01*
X161511068Y-103226855D01*
X161593650Y-103309293D01*
X161698482Y-103360536D01*
X161728973Y-103364984D01*
X161762256Y-103369840D01*
X161762260Y-103369840D01*
X161766782Y-103370500D01*
X162131600Y-103370500D01*
X162199721Y-103390502D01*
X162246214Y-103444158D01*
X162257600Y-103496500D01*
X162257600Y-103876050D01*
X162237598Y-103944171D01*
X162188803Y-103988317D01*
X162140645Y-104012855D01*
X162068780Y-104049472D01*
X161973472Y-104144780D01*
X161912281Y-104264874D01*
X161896500Y-104364512D01*
X161896500Y-104931488D01*
X161906060Y-104991851D01*
X161906946Y-104997439D01*
X161912281Y-105031126D01*
X161973472Y-105151220D01*
X162068780Y-105246528D01*
X162077613Y-105251028D01*
X162077612Y-105251028D01*
X162188803Y-105307683D01*
X162240418Y-105356431D01*
X162255578Y-105412476D01*
X162257067Y-105412339D01*
X162257600Y-105418115D01*
X162257600Y-105423917D01*
X162258458Y-105428527D01*
X162258660Y-105431639D01*
X162259790Y-105461726D01*
X162264383Y-105472416D01*
X162265698Y-105478251D01*
X162268045Y-105485977D01*
X162270196Y-105491552D01*
X162272326Y-105502988D01*
X162278430Y-105512890D01*
X162284601Y-105522901D01*
X162293109Y-105539280D01*
X162297065Y-105548487D01*
X162302347Y-105560781D01*
X162306211Y-105565484D01*
X162308389Y-105567662D01*
X162310450Y-105569935D01*
X162310233Y-105570131D01*
X162315647Y-105576980D01*
X162322794Y-105584862D01*
X162328897Y-105594763D01*
X162349625Y-105610525D01*
X162362446Y-105621721D01*
X162380270Y-105639545D01*
X162415624Y-105708929D01*
X162428354Y-105789304D01*
X162485950Y-105902342D01*
X162575658Y-105992050D01*
X162688696Y-106049646D01*
X162698485Y-106051196D01*
X162698487Y-106051197D01*
X162804207Y-106067941D01*
X162814000Y-106069492D01*
X162823793Y-106067941D01*
X162929513Y-106051197D01*
X162929515Y-106051196D01*
X162939304Y-106049646D01*
X163052342Y-105992050D01*
X163142050Y-105902342D01*
X163199646Y-105789304D01*
X163219492Y-105664000D01*
X163203889Y-105565484D01*
X163201197Y-105548487D01*
X163201196Y-105548485D01*
X163199646Y-105538696D01*
X163142050Y-105425658D01*
X163083165Y-105366773D01*
X163049139Y-105304461D01*
X163054204Y-105233646D01*
X163083165Y-105188583D01*
X163120528Y-105151220D01*
X163181719Y-105031126D01*
X163187055Y-104997439D01*
X163187940Y-104991851D01*
X163197500Y-104931488D01*
X163197500Y-104364512D01*
X163181719Y-104264874D01*
X163120528Y-104144780D01*
X163025220Y-104049472D01*
X162953355Y-104012855D01*
X162905197Y-103988317D01*
X162853582Y-103939569D01*
X162836400Y-103876050D01*
X162836400Y-103496500D01*
X162856402Y-103428379D01*
X162910058Y-103381886D01*
X162962400Y-103370500D01*
X163183218Y-103370500D01*
X163187768Y-103369830D01*
X163187771Y-103369830D01*
X163242426Y-103361784D01*
X163242427Y-103361784D01*
X163252112Y-103360358D01*
X163346804Y-103313867D01*
X163347507Y-103313522D01*
X163347509Y-103313521D01*
X163356855Y-103308932D01*
X163439293Y-103226350D01*
X163490536Y-103121518D01*
X163500500Y-103053218D01*
X163500500Y-102686782D01*
X163493686Y-102640491D01*
X163491784Y-102627574D01*
X163491784Y-102627573D01*
X163490358Y-102617888D01*
X163438932Y-102513145D01*
X163356350Y-102430707D01*
X163251518Y-102379464D01*
X163221027Y-102375016D01*
X163187744Y-102370160D01*
X163187740Y-102370160D01*
X163183218Y-102369500D01*
X161766782Y-102369500D01*
X161762232Y-102370170D01*
X161762229Y-102370170D01*
X161707574Y-102378216D01*
X161707573Y-102378216D01*
X161697888Y-102379642D01*
X161647992Y-102404140D01*
X161602493Y-102426478D01*
X161602491Y-102426479D01*
X161593145Y-102431068D01*
X161510707Y-102513650D01*
X161459464Y-102618482D01*
X161449500Y-102686782D01*
X161449500Y-103053218D01*
X160630137Y-103053218D01*
X160659646Y-102995304D01*
X160679492Y-102870000D01*
X160659646Y-102744696D01*
X160602050Y-102631658D01*
X160595038Y-102624646D01*
X160589211Y-102616626D01*
X160591959Y-102614629D01*
X160566279Y-102567601D01*
X160563400Y-102540818D01*
X160563400Y-102527365D01*
X160583402Y-102459244D01*
X160600305Y-102438270D01*
X161248573Y-101790002D01*
X161310885Y-101755976D01*
X161381700Y-101761041D01*
X161438536Y-101803588D01*
X161457992Y-101841705D01*
X161458216Y-101842426D01*
X161459642Y-101852112D01*
X161511068Y-101956855D01*
X161593650Y-102039293D01*
X161698482Y-102090536D01*
X161718409Y-102093443D01*
X161762256Y-102099840D01*
X161762260Y-102099840D01*
X161766782Y-102100500D01*
X163183218Y-102100500D01*
X163187768Y-102099830D01*
X163187771Y-102099830D01*
X163242426Y-102091784D01*
X163242427Y-102091784D01*
X163252112Y-102090358D01*
X163346804Y-102043867D01*
X163347507Y-102043522D01*
X163347509Y-102043521D01*
X163356855Y-102038932D01*
X163439293Y-101956350D01*
X163443868Y-101946991D01*
X163447263Y-101942231D01*
X163503105Y-101898388D01*
X163549842Y-101889400D01*
X164419936Y-101889400D01*
X164488057Y-101909402D01*
X164509032Y-101926305D01*
X165157896Y-102575170D01*
X165191921Y-102637482D01*
X165194800Y-102664265D01*
X165194800Y-106123736D01*
X165174798Y-106191857D01*
X165157895Y-106212831D01*
X163037611Y-108333115D01*
X162975299Y-108367141D01*
X162948516Y-108370020D01*
X151942237Y-108370020D01*
X151939912Y-108369849D01*
X151935009Y-108368166D01*
X151923384Y-108368602D01*
X151923382Y-108368602D01*
X151887988Y-108369931D01*
X151883262Y-108370020D01*
X151865083Y-108370020D01*
X151860473Y-108370878D01*
X151857361Y-108371080D01*
X151838901Y-108371773D01*
X151838899Y-108371774D01*
X151827274Y-108372210D01*
X151816584Y-108376803D01*
X151810749Y-108378118D01*
X151803023Y-108380465D01*
X151797448Y-108382616D01*
X151786012Y-108384746D01*
X151776109Y-108390850D01*
X151776110Y-108390850D01*
X151766099Y-108397021D01*
X151749720Y-108405529D01*
X151736393Y-108411255D01*
X151736391Y-108411256D01*
X151728219Y-108414767D01*
X151723516Y-108418631D01*
X151721338Y-108420809D01*
X151719065Y-108422870D01*
X151718869Y-108422653D01*
X151712021Y-108428067D01*
X151704141Y-108435212D01*
X151694237Y-108441317D01*
X151687197Y-108450575D01*
X151687195Y-108450577D01*
X151678473Y-108462047D01*
X151667271Y-108474876D01*
X146041540Y-114100606D01*
X146039773Y-114102131D01*
X146035117Y-114104407D01*
X146003747Y-114138225D01*
X146003110Y-114138911D01*
X145999830Y-114142316D01*
X145986983Y-114155163D01*
X145984328Y-114159033D01*
X145982270Y-114161377D01*
X145961797Y-114183447D01*
X145957486Y-114194252D01*
X145954285Y-114199316D01*
X145950488Y-114206427D01*
X145948065Y-114211895D01*
X145941484Y-114221488D01*
X145938798Y-114232808D01*
X145936081Y-114244256D01*
X145930517Y-114261849D01*
X145925142Y-114275321D01*
X145925141Y-114275326D01*
X145921847Y-114283582D01*
X145921253Y-114289640D01*
X145921253Y-114292727D01*
X145921103Y-114295791D01*
X145920810Y-114295777D01*
X145919798Y-114304424D01*
X145919278Y-114315063D01*
X145916591Y-114326384D01*
X145918160Y-114337913D01*
X145918160Y-114337915D01*
X145920102Y-114352183D01*
X145921253Y-114369174D01*
X145921253Y-119969937D01*
X145901251Y-120038058D01*
X145884348Y-120059032D01*
X144349684Y-121593695D01*
X144287372Y-121627721D01*
X144260589Y-121630600D01*
X141782243Y-121630600D01*
X141779914Y-121630429D01*
X141775009Y-121628745D01*
X141729174Y-121630466D01*
X141727973Y-121630511D01*
X141723246Y-121630600D01*
X141705083Y-121630600D01*
X141700476Y-121631458D01*
X141697361Y-121631660D01*
X141678900Y-121632353D01*
X141678897Y-121632354D01*
X141667274Y-121632790D01*
X141656585Y-121637382D01*
X141650752Y-121638697D01*
X141643023Y-121641045D01*
X141637448Y-121643196D01*
X141626012Y-121645326D01*
X141616109Y-121651430D01*
X141616110Y-121651430D01*
X141606099Y-121657601D01*
X141589720Y-121666109D01*
X141576393Y-121671835D01*
X141576391Y-121671836D01*
X141568219Y-121675347D01*
X141563516Y-121679211D01*
X141561338Y-121681389D01*
X141559065Y-121683450D01*
X141558869Y-121683233D01*
X141552021Y-121688647D01*
X141544141Y-121695792D01*
X141534237Y-121701897D01*
X141527197Y-121711155D01*
X141527195Y-121711157D01*
X141518476Y-121722623D01*
X141507274Y-121735453D01*
X140800883Y-122441843D01*
X140799122Y-122443363D01*
X140794464Y-122445640D01*
X140780825Y-122460343D01*
X140762456Y-122480145D01*
X140759176Y-122483550D01*
X140746330Y-122496396D01*
X140743675Y-122500266D01*
X140741617Y-122502610D01*
X140721144Y-122524680D01*
X140716833Y-122535485D01*
X140713632Y-122540549D01*
X140709835Y-122547660D01*
X140707412Y-122553128D01*
X140700831Y-122562721D01*
X140698145Y-122574041D01*
X140695428Y-122585489D01*
X140689864Y-122603082D01*
X140684489Y-122616554D01*
X140684488Y-122616559D01*
X140681194Y-122624815D01*
X140680600Y-122630873D01*
X140680600Y-122633960D01*
X140680450Y-122637024D01*
X140680157Y-122637010D01*
X140679145Y-122645657D01*
X140678625Y-122656296D01*
X140675938Y-122667617D01*
X137869454Y-122667617D01*
X137866939Y-122664561D01*
X137864352Y-122661308D01*
X137854101Y-122647972D01*
X137483105Y-122165353D01*
X137163628Y-121749754D01*
X137161137Y-121746400D01*
X136491008Y-120812098D01*
X136488630Y-120808663D01*
X136459798Y-120765513D01*
X135849854Y-119852667D01*
X135847625Y-119849210D01*
X135240865Y-118872509D01*
X135238720Y-118868924D01*
X134878726Y-118244137D01*
X134664703Y-117872689D01*
X134662689Y-117869056D01*
X134616277Y-117781950D01*
X134122021Y-116854344D01*
X134120118Y-116850625D01*
X133634862Y-115862279D01*
X133613395Y-115818555D01*
X133611616Y-115814776D01*
X133509686Y-115588500D01*
X133139373Y-114766437D01*
X133137731Y-114762624D01*
X133135853Y-114758054D01*
X132800877Y-113943324D01*
X141421210Y-113943324D01*
X141422547Y-113963721D01*
X141435640Y-114163488D01*
X141437061Y-114169084D01*
X141437062Y-114169089D01*
X141483563Y-114352183D01*
X141489951Y-114377336D01*
X141492368Y-114382578D01*
X141492368Y-114382579D01*
X141529302Y-114462695D01*
X141582323Y-114577705D01*
X141709662Y-114757886D01*
X141867704Y-114911845D01*
X141872500Y-114915050D01*
X141872503Y-114915052D01*
X142018666Y-115012714D01*
X142051157Y-115034424D01*
X142056460Y-115036702D01*
X142056463Y-115036704D01*
X142188101Y-115093260D01*
X142253876Y-115121519D01*
X142318779Y-115136205D01*
X142463435Y-115168938D01*
X142463441Y-115168939D01*
X142469072Y-115170213D01*
X142474843Y-115170440D01*
X142474845Y-115170440D01*
X142542651Y-115173104D01*
X142689538Y-115178875D01*
X142803681Y-115162325D01*
X142902178Y-115148044D01*
X142902183Y-115148043D01*
X142907892Y-115147215D01*
X142913356Y-115145360D01*
X142913361Y-115145359D01*
X143111347Y-115078152D01*
X143111352Y-115078150D01*
X143116819Y-115076294D01*
X143159830Y-115052207D01*
X143197315Y-115031214D01*
X143309324Y-114968486D01*
X143353170Y-114932020D01*
X143474526Y-114831088D01*
X143478958Y-114827402D01*
X143529642Y-114766462D01*
X143616348Y-114662210D01*
X143616350Y-114662207D01*
X143620042Y-114657768D01*
X143714673Y-114488793D01*
X143725026Y-114470306D01*
X143725027Y-114470304D01*
X143727850Y-114465263D01*
X143729706Y-114459796D01*
X143729708Y-114459791D01*
X143796915Y-114261805D01*
X143796916Y-114261800D01*
X143798771Y-114256336D01*
X143799599Y-114250627D01*
X143799600Y-114250622D01*
X143827438Y-114058622D01*
X143830431Y-114037982D01*
X143832083Y-113974884D01*
X143811894Y-113755173D01*
X143803374Y-113724961D01*
X143778387Y-113636363D01*
X143752005Y-113542820D01*
X143654420Y-113344937D01*
X143600898Y-113273262D01*
X143525860Y-113172775D01*
X143525860Y-113172774D01*
X143522407Y-113168151D01*
X143425026Y-113078133D01*
X143364629Y-113022302D01*
X143364626Y-113022300D01*
X143360389Y-113018383D01*
X143173790Y-112900648D01*
X142968861Y-112818890D01*
X142963201Y-112817764D01*
X142963197Y-112817763D01*
X142758131Y-112776973D01*
X142758128Y-112776973D01*
X142752464Y-112775846D01*
X142746689Y-112775770D01*
X142746685Y-112775770D01*
X142635944Y-112774321D01*
X142531846Y-112772958D01*
X142526149Y-112773937D01*
X142526148Y-112773937D01*
X142320094Y-112809343D01*
X142320093Y-112809343D01*
X142314397Y-112810322D01*
X142107397Y-112886688D01*
X142102436Y-112889640D01*
X142102435Y-112889640D01*
X142055419Y-112917612D01*
X141917781Y-112999498D01*
X141751897Y-113144974D01*
X141615303Y-113318244D01*
X141512571Y-113513504D01*
X141447143Y-113724217D01*
X141421210Y-113943324D01*
X132800877Y-113943324D01*
X132700504Y-113699197D01*
X132698988Y-113695328D01*
X132685369Y-113658803D01*
X132439520Y-112999498D01*
X132297282Y-112618050D01*
X132295887Y-112614112D01*
X132097411Y-112022647D01*
X131930094Y-111524036D01*
X131928838Y-111520074D01*
X131919947Y-111490342D01*
X131732871Y-110864803D01*
X131599412Y-110418543D01*
X131598281Y-110414521D01*
X131430719Y-109778078D01*
X131305531Y-109302582D01*
X131304551Y-109298586D01*
X131048844Y-108177618D01*
X131047983Y-108173535D01*
X130829577Y-107044672D01*
X130828852Y-107040557D01*
X130685963Y-106143462D01*
X130647999Y-105905114D01*
X130647413Y-105900998D01*
X130632174Y-105779512D01*
X130504303Y-104760155D01*
X130503852Y-104756003D01*
X130492489Y-104632342D01*
X130398648Y-103611079D01*
X130398335Y-103606927D01*
X130385667Y-103390502D01*
X130331147Y-102459097D01*
X130330972Y-102454932D01*
X130329176Y-102383958D01*
X130323033Y-102141293D01*
X130318488Y-101961748D01*
X136363500Y-101961748D01*
X136375133Y-102020231D01*
X136419448Y-102086552D01*
X136485769Y-102130867D01*
X136497938Y-102133288D01*
X136497939Y-102133288D01*
X136538184Y-102141293D01*
X136544252Y-102142500D01*
X138283748Y-102142500D01*
X138289816Y-102141293D01*
X138330061Y-102133288D01*
X138330062Y-102133288D01*
X138342231Y-102130867D01*
X138408552Y-102086552D01*
X138452867Y-102020231D01*
X138464500Y-101961748D01*
X138464500Y-100222252D01*
X138452867Y-100163769D01*
X138408552Y-100097448D01*
X138342231Y-100053133D01*
X138330062Y-100050712D01*
X138330061Y-100050712D01*
X138289816Y-100042707D01*
X138283748Y-100041500D01*
X136544252Y-100041500D01*
X136538184Y-100042707D01*
X136497939Y-100050712D01*
X136497938Y-100050712D01*
X136485769Y-100053133D01*
X136419448Y-100097448D01*
X136375133Y-100163769D01*
X136363500Y-100222252D01*
X136363500Y-101961748D01*
X130318488Y-101961748D01*
X130301878Y-101305522D01*
X130301842Y-101301344D01*
X130310872Y-100151631D01*
X130310974Y-100147455D01*
X130358118Y-98998674D01*
X130358358Y-98994502D01*
X130392337Y-98537262D01*
X136358520Y-98537262D01*
X136375759Y-98742553D01*
X136377458Y-98748478D01*
X136414249Y-98876782D01*
X136432544Y-98940586D01*
X136435359Y-98946063D01*
X136435360Y-98946066D01*
X136456247Y-98986707D01*
X136526712Y-99123818D01*
X136654677Y-99285270D01*
X136659370Y-99289264D01*
X136659371Y-99289265D01*
X136696545Y-99320902D01*
X136811564Y-99418791D01*
X136816942Y-99421797D01*
X136816944Y-99421798D01*
X136848563Y-99439469D01*
X136991398Y-99519297D01*
X137074320Y-99546240D01*
X137181471Y-99581056D01*
X137181475Y-99581057D01*
X137187329Y-99582959D01*
X137391894Y-99607351D01*
X137398029Y-99606879D01*
X137398031Y-99606879D01*
X137454039Y-99602569D01*
X137597300Y-99591546D01*
X137603230Y-99589890D01*
X137603232Y-99589890D01*
X137744182Y-99550536D01*
X137795725Y-99536145D01*
X137801214Y-99533372D01*
X137801220Y-99533370D01*
X137974116Y-99446033D01*
X137979610Y-99443258D01*
X138004617Y-99423721D01*
X138137101Y-99320213D01*
X138141951Y-99316424D01*
X138154542Y-99301838D01*
X138205141Y-99243218D01*
X166699500Y-99243218D01*
X166700170Y-99247768D01*
X166700170Y-99247771D01*
X166708216Y-99302426D01*
X166709642Y-99312112D01*
X166761068Y-99416855D01*
X166843650Y-99499293D01*
X166948482Y-99550536D01*
X166978973Y-99554984D01*
X167012256Y-99559840D01*
X167012260Y-99559840D01*
X167016782Y-99560500D01*
X168433218Y-99560500D01*
X168437768Y-99559830D01*
X168437771Y-99559830D01*
X168492426Y-99551784D01*
X168492427Y-99551784D01*
X168502112Y-99550358D01*
X168596804Y-99503867D01*
X168597507Y-99503522D01*
X168597509Y-99503521D01*
X168606855Y-99498932D01*
X168689293Y-99416350D01*
X168740536Y-99311518D01*
X168750500Y-99243218D01*
X168750500Y-98876782D01*
X168741871Y-98818162D01*
X168741784Y-98817574D01*
X168741784Y-98817573D01*
X168740358Y-98807888D01*
X168688932Y-98703145D01*
X168606350Y-98620707D01*
X168501518Y-98569464D01*
X168471027Y-98565016D01*
X168437744Y-98560160D01*
X168437740Y-98560160D01*
X168433218Y-98559500D01*
X167016782Y-98559500D01*
X167012232Y-98560170D01*
X167012229Y-98560170D01*
X166957574Y-98568216D01*
X166957573Y-98568216D01*
X166947888Y-98569642D01*
X166930969Y-98577949D01*
X166852493Y-98616478D01*
X166852491Y-98616479D01*
X166843145Y-98621068D01*
X166835787Y-98628438D01*
X166835788Y-98628438D01*
X166772952Y-98691384D01*
X166760707Y-98703650D01*
X166709464Y-98808482D01*
X166699500Y-98876782D01*
X166699500Y-99243218D01*
X138205141Y-99243218D01*
X138272540Y-99165134D01*
X138272540Y-99165133D01*
X138276564Y-99160472D01*
X138297387Y-99123818D01*
X138375276Y-98986707D01*
X138378323Y-98981344D01*
X138443351Y-98785863D01*
X138469171Y-98581474D01*
X138469583Y-98552000D01*
X138449480Y-98346970D01*
X138389935Y-98149749D01*
X138293218Y-97967849D01*
X138219859Y-97877902D01*
X138166906Y-97812975D01*
X138166903Y-97812972D01*
X138163011Y-97808200D01*
X138145786Y-97793950D01*
X138009025Y-97680811D01*
X138009021Y-97680809D01*
X138004275Y-97676882D01*
X137823055Y-97578897D01*
X137626254Y-97517977D01*
X137620129Y-97517333D01*
X137620128Y-97517333D01*
X137427498Y-97497087D01*
X137427496Y-97497087D01*
X137421369Y-97496443D01*
X137334529Y-97504346D01*
X137222342Y-97514555D01*
X137222339Y-97514556D01*
X137216203Y-97515114D01*
X137018572Y-97573280D01*
X136836002Y-97668726D01*
X136831201Y-97672586D01*
X136831198Y-97672588D01*
X136820971Y-97680811D01*
X136675447Y-97797815D01*
X136543024Y-97955630D01*
X136540056Y-97961028D01*
X136540053Y-97961033D01*
X136533315Y-97973290D01*
X136443776Y-98136162D01*
X136381484Y-98332532D01*
X136380798Y-98338649D01*
X136380797Y-98338653D01*
X136359207Y-98531137D01*
X136358520Y-98537262D01*
X130392337Y-98537262D01*
X130443567Y-97847874D01*
X130443946Y-97843713D01*
X130567123Y-96700558D01*
X130567640Y-96696412D01*
X130602956Y-96446707D01*
X130666522Y-95997262D01*
X136358520Y-95997262D01*
X136359036Y-96003406D01*
X136374393Y-96186282D01*
X136375759Y-96202553D01*
X136432544Y-96400586D01*
X136435359Y-96406063D01*
X136435360Y-96406066D01*
X136456247Y-96446707D01*
X136526712Y-96583818D01*
X136654677Y-96745270D01*
X136811564Y-96878791D01*
X136991398Y-96979297D01*
X137086238Y-97010113D01*
X137181471Y-97041056D01*
X137181475Y-97041057D01*
X137187329Y-97042959D01*
X137391894Y-97067351D01*
X137398029Y-97066879D01*
X137398031Y-97066879D01*
X137454039Y-97062569D01*
X137597300Y-97051546D01*
X137603230Y-97049890D01*
X137603232Y-97049890D01*
X137789797Y-96997800D01*
X137789796Y-96997800D01*
X137795725Y-96996145D01*
X137801214Y-96993372D01*
X137801220Y-96993370D01*
X137974116Y-96906033D01*
X137979610Y-96903258D01*
X138141951Y-96776424D01*
X138209215Y-96698498D01*
X138272540Y-96625134D01*
X138272540Y-96625133D01*
X138276564Y-96620472D01*
X138297387Y-96583818D01*
X138375276Y-96446707D01*
X138378323Y-96441344D01*
X138443351Y-96245863D01*
X138469171Y-96041474D01*
X138469583Y-96012000D01*
X138449480Y-95806970D01*
X138389935Y-95609749D01*
X138293218Y-95427849D01*
X138190585Y-95302009D01*
X138166906Y-95272975D01*
X138166903Y-95272972D01*
X138163011Y-95268200D01*
X138156173Y-95262543D01*
X138009025Y-95140811D01*
X138009021Y-95140809D01*
X138004275Y-95136882D01*
X137823055Y-95038897D01*
X137626254Y-94977977D01*
X137620129Y-94977333D01*
X137620128Y-94977333D01*
X137427498Y-94957087D01*
X137427496Y-94957087D01*
X137421369Y-94956443D01*
X137334529Y-94964346D01*
X137222342Y-94974555D01*
X137222339Y-94974556D01*
X137216203Y-94975114D01*
X137018572Y-95033280D01*
X136836002Y-95128726D01*
X136831201Y-95132586D01*
X136831198Y-95132588D01*
X136699481Y-95238491D01*
X136675447Y-95257815D01*
X136543024Y-95415630D01*
X136540056Y-95421028D01*
X136540053Y-95421033D01*
X136511016Y-95473852D01*
X136443776Y-95596162D01*
X136381484Y-95792532D01*
X136380798Y-95798649D01*
X136380797Y-95798653D01*
X136368692Y-95906574D01*
X136358520Y-95997262D01*
X130666522Y-95997262D01*
X130728649Y-95557986D01*
X130729298Y-95553884D01*
X130746617Y-95455159D01*
X130927971Y-94421376D01*
X130928756Y-94417299D01*
X130935756Y-94383941D01*
X131020512Y-93980000D01*
X143104508Y-93980000D01*
X143124354Y-94105304D01*
X143181950Y-94218342D01*
X143271658Y-94308050D01*
X143384696Y-94365646D01*
X143394485Y-94367196D01*
X143394487Y-94367197D01*
X143500207Y-94383941D01*
X143510000Y-94385492D01*
X143519793Y-94383941D01*
X143625513Y-94367197D01*
X143625515Y-94367196D01*
X143635304Y-94365646D01*
X143748342Y-94308050D01*
X143838050Y-94218342D01*
X143895646Y-94105304D01*
X143915492Y-93980000D01*
X147930508Y-93980000D01*
X147950354Y-94105304D01*
X148007950Y-94218342D01*
X148097658Y-94308050D01*
X148210696Y-94365646D01*
X148220485Y-94367196D01*
X148220487Y-94367197D01*
X148326207Y-94383941D01*
X148336000Y-94385492D01*
X148345793Y-94383941D01*
X148451513Y-94367197D01*
X148451515Y-94367196D01*
X148461304Y-94365646D01*
X148574342Y-94308050D01*
X148664050Y-94218342D01*
X148721646Y-94105304D01*
X148741492Y-93980000D01*
X148731514Y-93917000D01*
X150216508Y-93917000D01*
X150236354Y-94042304D01*
X150293950Y-94155342D01*
X150383658Y-94245050D01*
X150496696Y-94302646D01*
X150506485Y-94304196D01*
X150506487Y-94304197D01*
X150612207Y-94320941D01*
X150622000Y-94322492D01*
X150631793Y-94320941D01*
X150737513Y-94304197D01*
X150737515Y-94304196D01*
X150747304Y-94302646D01*
X150860342Y-94245050D01*
X150950050Y-94155342D01*
X151007646Y-94042304D01*
X151027492Y-93917000D01*
X154788508Y-93917000D01*
X154808354Y-94042304D01*
X154865950Y-94155342D01*
X154955658Y-94245050D01*
X155068696Y-94302646D01*
X155078485Y-94304196D01*
X155078487Y-94304197D01*
X155184207Y-94320941D01*
X155194000Y-94322492D01*
X155203793Y-94320941D01*
X155309513Y-94304197D01*
X155309515Y-94304196D01*
X155319304Y-94302646D01*
X155432342Y-94245050D01*
X155522050Y-94155342D01*
X155579646Y-94042304D01*
X155599492Y-93917000D01*
X156820508Y-93917000D01*
X156840354Y-94042304D01*
X156897950Y-94155342D01*
X156987658Y-94245050D01*
X157100696Y-94302646D01*
X157110485Y-94304196D01*
X157110487Y-94304197D01*
X157216207Y-94320941D01*
X157226000Y-94322492D01*
X157235793Y-94320941D01*
X157341513Y-94304197D01*
X157341515Y-94304196D01*
X157351304Y-94302646D01*
X157464342Y-94245050D01*
X157554050Y-94155342D01*
X157611646Y-94042304D01*
X157621514Y-93980000D01*
X161392508Y-93980000D01*
X161412354Y-94105304D01*
X161469950Y-94218342D01*
X161559658Y-94308050D01*
X161672696Y-94365646D01*
X161682485Y-94367196D01*
X161682487Y-94367197D01*
X161788207Y-94383941D01*
X161798000Y-94385492D01*
X161807793Y-94383941D01*
X161913513Y-94367197D01*
X161913515Y-94367196D01*
X161923304Y-94365646D01*
X162036342Y-94308050D01*
X162126050Y-94218342D01*
X162183646Y-94105304D01*
X162203492Y-93980000D01*
X162183646Y-93854696D01*
X162126050Y-93741658D01*
X162036342Y-93651950D01*
X161923304Y-93594354D01*
X161913515Y-93592804D01*
X161913513Y-93592803D01*
X161807793Y-93576059D01*
X161798000Y-93574508D01*
X161788207Y-93576059D01*
X161682487Y-93592803D01*
X161682485Y-93592804D01*
X161672696Y-93594354D01*
X161559658Y-93651950D01*
X161469950Y-93741658D01*
X161412354Y-93854696D01*
X161392508Y-93980000D01*
X157621514Y-93980000D01*
X157631492Y-93917000D01*
X157611646Y-93791696D01*
X157554050Y-93678658D01*
X157464342Y-93588950D01*
X157351304Y-93531354D01*
X157341515Y-93529804D01*
X157341513Y-93529803D01*
X157235793Y-93513059D01*
X157226000Y-93511508D01*
X157216207Y-93513059D01*
X157110487Y-93529803D01*
X157110485Y-93529804D01*
X157100696Y-93531354D01*
X156987658Y-93588950D01*
X156897950Y-93678658D01*
X156840354Y-93791696D01*
X156820508Y-93917000D01*
X155599492Y-93917000D01*
X155579646Y-93791696D01*
X155522050Y-93678658D01*
X155432342Y-93588950D01*
X155319304Y-93531354D01*
X155309515Y-93529804D01*
X155309513Y-93529803D01*
X155203793Y-93513059D01*
X155194000Y-93511508D01*
X155184207Y-93513059D01*
X155078487Y-93529803D01*
X155078485Y-93529804D01*
X155068696Y-93531354D01*
X154955658Y-93588950D01*
X154865950Y-93678658D01*
X154808354Y-93791696D01*
X154788508Y-93917000D01*
X151027492Y-93917000D01*
X151007646Y-93791696D01*
X150950050Y-93678658D01*
X150860342Y-93588950D01*
X150747304Y-93531354D01*
X150737515Y-93529804D01*
X150737513Y-93529803D01*
X150631793Y-93513059D01*
X150622000Y-93511508D01*
X150612207Y-93513059D01*
X150506487Y-93529803D01*
X150506485Y-93529804D01*
X150496696Y-93531354D01*
X150383658Y-93588950D01*
X150293950Y-93678658D01*
X150236354Y-93791696D01*
X150216508Y-93917000D01*
X148731514Y-93917000D01*
X148721646Y-93854696D01*
X148664050Y-93741658D01*
X148574342Y-93651950D01*
X148461304Y-93594354D01*
X148451515Y-93592804D01*
X148451513Y-93592803D01*
X148345793Y-93576059D01*
X148336000Y-93574508D01*
X148326207Y-93576059D01*
X148220487Y-93592803D01*
X148220485Y-93592804D01*
X148210696Y-93594354D01*
X148097658Y-93651950D01*
X148007950Y-93741658D01*
X147950354Y-93854696D01*
X147930508Y-93980000D01*
X143915492Y-93980000D01*
X143895646Y-93854696D01*
X143838050Y-93741658D01*
X143748342Y-93651950D01*
X143635304Y-93594354D01*
X143625515Y-93592804D01*
X143625513Y-93592803D01*
X143519793Y-93576059D01*
X143510000Y-93574508D01*
X143500207Y-93576059D01*
X143394487Y-93592803D01*
X143394485Y-93592804D01*
X143384696Y-93594354D01*
X143271658Y-93651950D01*
X143181950Y-93741658D01*
X143124354Y-93854696D01*
X143104508Y-93980000D01*
X131020512Y-93980000D01*
X131164869Y-93291999D01*
X131165780Y-93287988D01*
X131245059Y-92964000D01*
X151994508Y-92964000D01*
X151996059Y-92973793D01*
X151999284Y-92994152D01*
X152014354Y-93089304D01*
X152071950Y-93202342D01*
X152161658Y-93292050D01*
X152274696Y-93349646D01*
X152284485Y-93351196D01*
X152284487Y-93351197D01*
X152390207Y-93367941D01*
X152400000Y-93369492D01*
X152409793Y-93367941D01*
X152515513Y-93351197D01*
X152515515Y-93351196D01*
X152525304Y-93349646D01*
X152638342Y-93292050D01*
X152728050Y-93202342D01*
X152785646Y-93089304D01*
X152800717Y-92994152D01*
X152803941Y-92973793D01*
X152805492Y-92964000D01*
X158598508Y-92964000D01*
X158600059Y-92973793D01*
X158603284Y-92994152D01*
X158618354Y-93089304D01*
X158675950Y-93202342D01*
X158765658Y-93292050D01*
X158878696Y-93349646D01*
X158888485Y-93351196D01*
X158888487Y-93351197D01*
X158994207Y-93367941D01*
X159004000Y-93369492D01*
X159013793Y-93367941D01*
X159119513Y-93351197D01*
X159119515Y-93351196D01*
X159129304Y-93349646D01*
X159242342Y-93292050D01*
X159332050Y-93202342D01*
X159389646Y-93089304D01*
X159404717Y-92994152D01*
X159407941Y-92973793D01*
X159409492Y-92964000D01*
X187608318Y-92964000D01*
X187628956Y-93120762D01*
X187689464Y-93266841D01*
X187785718Y-93392282D01*
X187787444Y-93393606D01*
X187820121Y-93453448D01*
X187823000Y-93480231D01*
X187823000Y-95311928D01*
X187826065Y-95321360D01*
X187826065Y-95321362D01*
X187829562Y-95332124D01*
X187834178Y-95351351D01*
X187835949Y-95362536D01*
X187835950Y-95362539D01*
X187837501Y-95372332D01*
X187842002Y-95381166D01*
X187842004Y-95381171D01*
X187847143Y-95391256D01*
X187854711Y-95409526D01*
X187861273Y-95429723D01*
X187867100Y-95437744D01*
X187867102Y-95437747D01*
X187873757Y-95446906D01*
X187884087Y-95463763D01*
X187893731Y-95482689D01*
X187981312Y-95570270D01*
X187981315Y-95570272D01*
X188080491Y-95669448D01*
X188114517Y-95731760D01*
X188116879Y-95753736D01*
X188116318Y-95758000D01*
X188136956Y-95914762D01*
X188197464Y-96060841D01*
X188293718Y-96186282D01*
X188419159Y-96282536D01*
X188565238Y-96343044D01*
X188722000Y-96363682D01*
X188730188Y-96362604D01*
X188870574Y-96344122D01*
X188878762Y-96343044D01*
X189024841Y-96282536D01*
X189150282Y-96186282D01*
X189246536Y-96060841D01*
X189307044Y-95914762D01*
X189327682Y-95758000D01*
X189308941Y-95615649D01*
X189308122Y-95609426D01*
X189307044Y-95601238D01*
X189246536Y-95455159D01*
X189150282Y-95329718D01*
X189024841Y-95233464D01*
X188878762Y-95172956D01*
X188722000Y-95152318D01*
X188722198Y-95150812D01*
X188662879Y-95133394D01*
X188616386Y-95079738D01*
X188605000Y-95027396D01*
X188605000Y-93480231D01*
X188625002Y-93412110D01*
X188638874Y-93394897D01*
X188642282Y-93392282D01*
X188738536Y-93266841D01*
X188799044Y-93120762D01*
X188819682Y-92964000D01*
X188799044Y-92807238D01*
X188738536Y-92661159D01*
X188642282Y-92535718D01*
X188516841Y-92439464D01*
X188370762Y-92378956D01*
X188214000Y-92358318D01*
X188057238Y-92378956D01*
X187911159Y-92439464D01*
X187785718Y-92535718D01*
X187689464Y-92661159D01*
X187628956Y-92807238D01*
X187608318Y-92964000D01*
X159409492Y-92964000D01*
X159389646Y-92838696D01*
X159332050Y-92725658D01*
X159242342Y-92635950D01*
X159129304Y-92578354D01*
X159119515Y-92576804D01*
X159119513Y-92576803D01*
X159013793Y-92560059D01*
X159004000Y-92558508D01*
X158994207Y-92560059D01*
X158888487Y-92576803D01*
X158888485Y-92576804D01*
X158878696Y-92578354D01*
X158765658Y-92635950D01*
X158675950Y-92725658D01*
X158618354Y-92838696D01*
X158598508Y-92964000D01*
X152805492Y-92964000D01*
X152785646Y-92838696D01*
X152728050Y-92725658D01*
X152638342Y-92635950D01*
X152525304Y-92578354D01*
X152515515Y-92576804D01*
X152515513Y-92576803D01*
X152409793Y-92560059D01*
X152400000Y-92558508D01*
X152390207Y-92560059D01*
X152284487Y-92576803D01*
X152284485Y-92576804D01*
X152274696Y-92578354D01*
X152161658Y-92635950D01*
X152071950Y-92725658D01*
X152014354Y-92838696D01*
X151994508Y-92964000D01*
X131245059Y-92964000D01*
X131439067Y-92171158D01*
X131440127Y-92167117D01*
X131643826Y-91440000D01*
X189640318Y-91440000D01*
X189660956Y-91596762D01*
X189721464Y-91742841D01*
X189817718Y-91868282D01*
X189824264Y-91873305D01*
X189827406Y-91875716D01*
X189943159Y-91964536D01*
X190089238Y-92025044D01*
X190246000Y-92045682D01*
X190254188Y-92044604D01*
X190394574Y-92026122D01*
X190402762Y-92025044D01*
X190548841Y-91964536D01*
X190664594Y-91875716D01*
X190667736Y-91873305D01*
X190674282Y-91868282D01*
X190770536Y-91742841D01*
X190831044Y-91596762D01*
X190851682Y-91440000D01*
X190831044Y-91283238D01*
X190770536Y-91137159D01*
X190674282Y-91011718D01*
X190548841Y-90915464D01*
X190402762Y-90854956D01*
X190246000Y-90834318D01*
X190089238Y-90854956D01*
X189943159Y-90915464D01*
X189817718Y-91011718D01*
X189721464Y-91137159D01*
X189660956Y-91283238D01*
X189640318Y-91440000D01*
X131643826Y-91440000D01*
X131726528Y-91144789D01*
X131750295Y-91059950D01*
X131751487Y-91055954D01*
X131795918Y-90915464D01*
X132035209Y-90158834D01*
X142965500Y-90158834D01*
X142968481Y-90190369D01*
X143013366Y-90318184D01*
X143018958Y-90325754D01*
X143018959Y-90325757D01*
X143081335Y-90410206D01*
X143093850Y-90427150D01*
X143101421Y-90432742D01*
X143195243Y-90502041D01*
X143195246Y-90502042D01*
X143202816Y-90507634D01*
X143330631Y-90552519D01*
X143338277Y-90553242D01*
X143338278Y-90553242D01*
X143344248Y-90553806D01*
X143362166Y-90555500D01*
X144419834Y-90555500D01*
X144437752Y-90553806D01*
X144443722Y-90553242D01*
X144443723Y-90553242D01*
X144451369Y-90552519D01*
X144579184Y-90507634D01*
X144586754Y-90502042D01*
X144586757Y-90502041D01*
X144680579Y-90432742D01*
X144688150Y-90427150D01*
X144700665Y-90410206D01*
X144763041Y-90325757D01*
X144763042Y-90325754D01*
X144768634Y-90318184D01*
X144813519Y-90190369D01*
X144816311Y-90160834D01*
X145459500Y-90160834D01*
X145462481Y-90192369D01*
X145507366Y-90320184D01*
X145512958Y-90327754D01*
X145512959Y-90327757D01*
X145575335Y-90412206D01*
X145587850Y-90429150D01*
X145595421Y-90434742D01*
X145689243Y-90504041D01*
X145689246Y-90504042D01*
X145696816Y-90509634D01*
X145824631Y-90554519D01*
X145832277Y-90555242D01*
X145832278Y-90555242D01*
X145836553Y-90555646D01*
X145856166Y-90557500D01*
X146913834Y-90557500D01*
X146933447Y-90555646D01*
X146937722Y-90555242D01*
X146937723Y-90555242D01*
X146945369Y-90554519D01*
X147073184Y-90509634D01*
X147080754Y-90504042D01*
X147080757Y-90504041D01*
X147174579Y-90434742D01*
X147182150Y-90429150D01*
X147194665Y-90412206D01*
X147257041Y-90327757D01*
X147257042Y-90327754D01*
X147262634Y-90320184D01*
X147307519Y-90192369D01*
X147310500Y-90160834D01*
X147872500Y-90160834D01*
X147875481Y-90192369D01*
X147920366Y-90320184D01*
X147925958Y-90327754D01*
X147925959Y-90327757D01*
X147988335Y-90412206D01*
X148000850Y-90429150D01*
X148008421Y-90434742D01*
X148102243Y-90504041D01*
X148102246Y-90504042D01*
X148109816Y-90509634D01*
X148237631Y-90554519D01*
X148245277Y-90555242D01*
X148245278Y-90555242D01*
X148249553Y-90555646D01*
X148269166Y-90557500D01*
X149326834Y-90557500D01*
X149346447Y-90555646D01*
X149350722Y-90555242D01*
X149350723Y-90555242D01*
X149358369Y-90554519D01*
X149486184Y-90509634D01*
X149493754Y-90504042D01*
X149493757Y-90504041D01*
X149587579Y-90434742D01*
X149595150Y-90429150D01*
X149607665Y-90412206D01*
X149670041Y-90327757D01*
X149670042Y-90327754D01*
X149675634Y-90320184D01*
X149720519Y-90192369D01*
X149723500Y-90160834D01*
X150158500Y-90160834D01*
X150161481Y-90192369D01*
X150206366Y-90320184D01*
X150211958Y-90327754D01*
X150211959Y-90327757D01*
X150274335Y-90412206D01*
X150286850Y-90429150D01*
X150294421Y-90434742D01*
X150388243Y-90504041D01*
X150388246Y-90504042D01*
X150395816Y-90509634D01*
X150523631Y-90554519D01*
X150531277Y-90555242D01*
X150531278Y-90555242D01*
X150535553Y-90555646D01*
X150555166Y-90557500D01*
X151612834Y-90557500D01*
X151632447Y-90555646D01*
X151636722Y-90555242D01*
X151636723Y-90555242D01*
X151644369Y-90554519D01*
X151772184Y-90509634D01*
X151779754Y-90504042D01*
X151779757Y-90504041D01*
X151873579Y-90434742D01*
X151881150Y-90429150D01*
X151893665Y-90412206D01*
X151956041Y-90327757D01*
X151956042Y-90327754D01*
X151961634Y-90320184D01*
X152006519Y-90192369D01*
X152009500Y-90160834D01*
X152444500Y-90160834D01*
X152447481Y-90192369D01*
X152492366Y-90320184D01*
X152497958Y-90327754D01*
X152497959Y-90327757D01*
X152560335Y-90412206D01*
X152572850Y-90429150D01*
X152580421Y-90434742D01*
X152674243Y-90504041D01*
X152674246Y-90504042D01*
X152681816Y-90509634D01*
X152809631Y-90554519D01*
X152817277Y-90555242D01*
X152817278Y-90555242D01*
X152821553Y-90555646D01*
X152841166Y-90557500D01*
X153898834Y-90557500D01*
X153918447Y-90555646D01*
X153922722Y-90555242D01*
X153922723Y-90555242D01*
X153930369Y-90554519D01*
X154058184Y-90509634D01*
X154065754Y-90504042D01*
X154065757Y-90504041D01*
X154159579Y-90434742D01*
X154167150Y-90429150D01*
X154179665Y-90412206D01*
X154242041Y-90327757D01*
X154242042Y-90327754D01*
X154247634Y-90320184D01*
X154292519Y-90192369D01*
X154295500Y-90160834D01*
X154730500Y-90160834D01*
X154733481Y-90192369D01*
X154778366Y-90320184D01*
X154783958Y-90327754D01*
X154783959Y-90327757D01*
X154846335Y-90412206D01*
X154858850Y-90429150D01*
X154866421Y-90434742D01*
X154960243Y-90504041D01*
X154960246Y-90504042D01*
X154967816Y-90509634D01*
X155095631Y-90554519D01*
X155103277Y-90555242D01*
X155103278Y-90555242D01*
X155107553Y-90555646D01*
X155127166Y-90557500D01*
X155832484Y-90557500D01*
X155852194Y-90559051D01*
X155956000Y-90575492D01*
X156059806Y-90559051D01*
X156079516Y-90557500D01*
X156184834Y-90557500D01*
X156204447Y-90555646D01*
X156208722Y-90555242D01*
X156208723Y-90555242D01*
X156216369Y-90554519D01*
X156344184Y-90509634D01*
X156351754Y-90504042D01*
X156351757Y-90504041D01*
X156445579Y-90434742D01*
X156453150Y-90429150D01*
X156465665Y-90412206D01*
X156528041Y-90327757D01*
X156528042Y-90327754D01*
X156533634Y-90320184D01*
X156578519Y-90192369D01*
X156581500Y-90160834D01*
X157016500Y-90160834D01*
X157019481Y-90192369D01*
X157064366Y-90320184D01*
X157069958Y-90327754D01*
X157069959Y-90327757D01*
X157132335Y-90412206D01*
X157144850Y-90429150D01*
X157152421Y-90434742D01*
X157246243Y-90504041D01*
X157246246Y-90504042D01*
X157253816Y-90509634D01*
X157381631Y-90554519D01*
X157389277Y-90555242D01*
X157389278Y-90555242D01*
X157393553Y-90555646D01*
X157413166Y-90557500D01*
X158470834Y-90557500D01*
X158490447Y-90555646D01*
X158494722Y-90555242D01*
X158494723Y-90555242D01*
X158502369Y-90554519D01*
X158630184Y-90509634D01*
X158637754Y-90504042D01*
X158637757Y-90504041D01*
X158731579Y-90434742D01*
X158739150Y-90429150D01*
X158751665Y-90412206D01*
X158814041Y-90327757D01*
X158814042Y-90327754D01*
X158819634Y-90320184D01*
X158864519Y-90192369D01*
X158867500Y-90160834D01*
X159429500Y-90160834D01*
X159432481Y-90192369D01*
X159477366Y-90320184D01*
X159482958Y-90327754D01*
X159482959Y-90327757D01*
X159545335Y-90412206D01*
X159557850Y-90429150D01*
X159565421Y-90434742D01*
X159659243Y-90504041D01*
X159659246Y-90504042D01*
X159666816Y-90509634D01*
X159794631Y-90554519D01*
X159802277Y-90555242D01*
X159802278Y-90555242D01*
X159806553Y-90555646D01*
X159826166Y-90557500D01*
X160658484Y-90557500D01*
X160678194Y-90559051D01*
X160782000Y-90575492D01*
X160791793Y-90573941D01*
X160902167Y-90556460D01*
X160902173Y-90556459D01*
X160907304Y-90555646D01*
X160908183Y-90555198D01*
X160915369Y-90554519D01*
X161043184Y-90509634D01*
X161050754Y-90504042D01*
X161050757Y-90504041D01*
X161144579Y-90434742D01*
X161152150Y-90429150D01*
X161164665Y-90412206D01*
X161227041Y-90327757D01*
X161227042Y-90327754D01*
X161232634Y-90320184D01*
X161277519Y-90192369D01*
X161280500Y-90160834D01*
X161842500Y-90160834D01*
X161845481Y-90192369D01*
X161890366Y-90320184D01*
X161895958Y-90327754D01*
X161895959Y-90327757D01*
X161958335Y-90412206D01*
X161970850Y-90429150D01*
X161978421Y-90434742D01*
X162072243Y-90504041D01*
X162072246Y-90504042D01*
X162079816Y-90509634D01*
X162207631Y-90554519D01*
X162215277Y-90555242D01*
X162215278Y-90555242D01*
X162219553Y-90555646D01*
X162239166Y-90557500D01*
X163296834Y-90557500D01*
X163316447Y-90555646D01*
X163320722Y-90555242D01*
X163320723Y-90555242D01*
X163328369Y-90554519D01*
X163456184Y-90509634D01*
X163463754Y-90504042D01*
X163463757Y-90504041D01*
X163557579Y-90434742D01*
X163565150Y-90429150D01*
X163577665Y-90412206D01*
X163640041Y-90327757D01*
X163640042Y-90327754D01*
X163645634Y-90320184D01*
X163690519Y-90192369D01*
X163693500Y-90160834D01*
X163693500Y-90099318D01*
X163702824Y-90060463D01*
X163700080Y-90059571D01*
X163703146Y-90050137D01*
X163707646Y-90041304D01*
X163720884Y-89957725D01*
X163725941Y-89925793D01*
X163727492Y-89916000D01*
X163707646Y-89790696D01*
X163703146Y-89781863D01*
X163700080Y-89772429D01*
X163702824Y-89771537D01*
X163693500Y-89732682D01*
X163693500Y-89553166D01*
X163690519Y-89521631D01*
X163645634Y-89393816D01*
X163640042Y-89386246D01*
X163640041Y-89386243D01*
X163570742Y-89292421D01*
X163565150Y-89284850D01*
X163548206Y-89272335D01*
X163463757Y-89209959D01*
X163463754Y-89209958D01*
X163456184Y-89204366D01*
X163328369Y-89159481D01*
X163320723Y-89158758D01*
X163320722Y-89158758D01*
X163314752Y-89158194D01*
X163296834Y-89156500D01*
X162239166Y-89156500D01*
X162221248Y-89158194D01*
X162215278Y-89158758D01*
X162215277Y-89158758D01*
X162207631Y-89159481D01*
X162079816Y-89204366D01*
X162072246Y-89209958D01*
X162072243Y-89209959D01*
X161987794Y-89272335D01*
X161970850Y-89284850D01*
X161965258Y-89292421D01*
X161895959Y-89386243D01*
X161895958Y-89386246D01*
X161890366Y-89393816D01*
X161845481Y-89521631D01*
X161842500Y-89553166D01*
X161842500Y-90160834D01*
X161280500Y-90160834D01*
X161280500Y-89553166D01*
X161277519Y-89521631D01*
X161232634Y-89393816D01*
X161227042Y-89386246D01*
X161227041Y-89386243D01*
X161157742Y-89292421D01*
X161152150Y-89284850D01*
X161135206Y-89272335D01*
X161050757Y-89209959D01*
X161050754Y-89209958D01*
X161043184Y-89204366D01*
X160915369Y-89159481D01*
X160907723Y-89158758D01*
X160907722Y-89158758D01*
X160901752Y-89158194D01*
X160883834Y-89156500D01*
X159826166Y-89156500D01*
X159808248Y-89158194D01*
X159802278Y-89158758D01*
X159802277Y-89158758D01*
X159794631Y-89159481D01*
X159666816Y-89204366D01*
X159659246Y-89209958D01*
X159659243Y-89209959D01*
X159574794Y-89272335D01*
X159557850Y-89284850D01*
X159552258Y-89292421D01*
X159482959Y-89386243D01*
X159482958Y-89386246D01*
X159477366Y-89393816D01*
X159432481Y-89521631D01*
X159429500Y-89553166D01*
X159429500Y-90160834D01*
X158867500Y-90160834D01*
X158867500Y-89553166D01*
X158864519Y-89521631D01*
X158819634Y-89393816D01*
X158814042Y-89386246D01*
X158814041Y-89386243D01*
X158744742Y-89292421D01*
X158739150Y-89284850D01*
X158722206Y-89272335D01*
X158637757Y-89209959D01*
X158637754Y-89209958D01*
X158630184Y-89204366D01*
X158502369Y-89159481D01*
X158494723Y-89158758D01*
X158494722Y-89158758D01*
X158488752Y-89158194D01*
X158470834Y-89156500D01*
X157413166Y-89156500D01*
X157395248Y-89158194D01*
X157389278Y-89158758D01*
X157389277Y-89158758D01*
X157381631Y-89159481D01*
X157253816Y-89204366D01*
X157246246Y-89209958D01*
X157246243Y-89209959D01*
X157161794Y-89272335D01*
X157144850Y-89284850D01*
X157139258Y-89292421D01*
X157069959Y-89386243D01*
X157069958Y-89386246D01*
X157064366Y-89393816D01*
X157019481Y-89521631D01*
X157016500Y-89553166D01*
X157016500Y-90160834D01*
X156581500Y-90160834D01*
X156581500Y-89845318D01*
X156590824Y-89806463D01*
X156588080Y-89805571D01*
X156591146Y-89796137D01*
X156595646Y-89787304D01*
X156615492Y-89662000D01*
X156595646Y-89536696D01*
X156561385Y-89469455D01*
X156554769Y-89454000D01*
X156536753Y-89402699D01*
X156533634Y-89393816D01*
X156528042Y-89386246D01*
X156528041Y-89386243D01*
X156458742Y-89292421D01*
X156453150Y-89284850D01*
X156436206Y-89272335D01*
X156351757Y-89209959D01*
X156351754Y-89209958D01*
X156344184Y-89204366D01*
X156216369Y-89159481D01*
X156208723Y-89158758D01*
X156208722Y-89158758D01*
X156202752Y-89158194D01*
X156184834Y-89156500D01*
X155127166Y-89156500D01*
X155109248Y-89158194D01*
X155103278Y-89158758D01*
X155103277Y-89158758D01*
X155095631Y-89159481D01*
X154967816Y-89204366D01*
X154960246Y-89209958D01*
X154960243Y-89209959D01*
X154875794Y-89272335D01*
X154858850Y-89284850D01*
X154853258Y-89292421D01*
X154783959Y-89386243D01*
X154783958Y-89386246D01*
X154778366Y-89393816D01*
X154733481Y-89521631D01*
X154730500Y-89553166D01*
X154730500Y-90160834D01*
X154295500Y-90160834D01*
X154295500Y-89553166D01*
X154292519Y-89521631D01*
X154247634Y-89393816D01*
X154242042Y-89386246D01*
X154242041Y-89386243D01*
X154172742Y-89292421D01*
X154167150Y-89284850D01*
X154150206Y-89272335D01*
X154065757Y-89209959D01*
X154065754Y-89209958D01*
X154058184Y-89204366D01*
X153930369Y-89159481D01*
X153922723Y-89158758D01*
X153922722Y-89158758D01*
X153916752Y-89158194D01*
X153898834Y-89156500D01*
X152841166Y-89156500D01*
X152823248Y-89158194D01*
X152817278Y-89158758D01*
X152817277Y-89158758D01*
X152809631Y-89159481D01*
X152681816Y-89204366D01*
X152674246Y-89209958D01*
X152674243Y-89209959D01*
X152589794Y-89272335D01*
X152572850Y-89284850D01*
X152567258Y-89292421D01*
X152497959Y-89386243D01*
X152497958Y-89386246D01*
X152492366Y-89393816D01*
X152447481Y-89521631D01*
X152444500Y-89553166D01*
X152444500Y-90160834D01*
X152009500Y-90160834D01*
X152009500Y-89553166D01*
X152006519Y-89521631D01*
X151961634Y-89393816D01*
X151956042Y-89386246D01*
X151956041Y-89386243D01*
X151886742Y-89292421D01*
X151881150Y-89284850D01*
X151864206Y-89272335D01*
X151779757Y-89209959D01*
X151779754Y-89209958D01*
X151772184Y-89204366D01*
X151644369Y-89159481D01*
X151636723Y-89158758D01*
X151636722Y-89158758D01*
X151630752Y-89158194D01*
X151612834Y-89156500D01*
X150555166Y-89156500D01*
X150537248Y-89158194D01*
X150531278Y-89158758D01*
X150531277Y-89158758D01*
X150523631Y-89159481D01*
X150395816Y-89204366D01*
X150388246Y-89209958D01*
X150388243Y-89209959D01*
X150303794Y-89272335D01*
X150286850Y-89284850D01*
X150281258Y-89292421D01*
X150211959Y-89386243D01*
X150211958Y-89386246D01*
X150206366Y-89393816D01*
X150161481Y-89521631D01*
X150158500Y-89553166D01*
X150158500Y-90160834D01*
X149723500Y-90160834D01*
X149723500Y-89845318D01*
X149732824Y-89806463D01*
X149730080Y-89805571D01*
X149733146Y-89796137D01*
X149737646Y-89787304D01*
X149757492Y-89662000D01*
X149737646Y-89536696D01*
X149703385Y-89469455D01*
X149696769Y-89454000D01*
X149678753Y-89402699D01*
X149675634Y-89393816D01*
X149670042Y-89386246D01*
X149670041Y-89386243D01*
X149600742Y-89292421D01*
X149595150Y-89284850D01*
X149578206Y-89272335D01*
X149493757Y-89209959D01*
X149493754Y-89209958D01*
X149486184Y-89204366D01*
X149358369Y-89159481D01*
X149350723Y-89158758D01*
X149350722Y-89158758D01*
X149344752Y-89158194D01*
X149326834Y-89156500D01*
X148269166Y-89156500D01*
X148251248Y-89158194D01*
X148245278Y-89158758D01*
X148245277Y-89158758D01*
X148237631Y-89159481D01*
X148109816Y-89204366D01*
X148102246Y-89209958D01*
X148102243Y-89209959D01*
X148017794Y-89272335D01*
X148000850Y-89284850D01*
X147995258Y-89292421D01*
X147925959Y-89386243D01*
X147925958Y-89386246D01*
X147920366Y-89393816D01*
X147875481Y-89521631D01*
X147872500Y-89553166D01*
X147872500Y-90160834D01*
X147310500Y-90160834D01*
X147310500Y-89553166D01*
X147307519Y-89521631D01*
X147262634Y-89393816D01*
X147257042Y-89386246D01*
X147257041Y-89386243D01*
X147187742Y-89292421D01*
X147182150Y-89284850D01*
X147165206Y-89272335D01*
X147080757Y-89209959D01*
X147080754Y-89209958D01*
X147073184Y-89204366D01*
X146945369Y-89159481D01*
X146937723Y-89158758D01*
X146937722Y-89158758D01*
X146931752Y-89158194D01*
X146913834Y-89156500D01*
X145856166Y-89156500D01*
X145838248Y-89158194D01*
X145832278Y-89158758D01*
X145832277Y-89158758D01*
X145824631Y-89159481D01*
X145696816Y-89204366D01*
X145689246Y-89209958D01*
X145689243Y-89209959D01*
X145604794Y-89272335D01*
X145587850Y-89284850D01*
X145582258Y-89292421D01*
X145512959Y-89386243D01*
X145512958Y-89386246D01*
X145507366Y-89393816D01*
X145462481Y-89521631D01*
X145459500Y-89553166D01*
X145459500Y-90160834D01*
X144816311Y-90160834D01*
X144816500Y-90158834D01*
X144816500Y-89551166D01*
X144813519Y-89519631D01*
X144768634Y-89391816D01*
X144763042Y-89384246D01*
X144763041Y-89384243D01*
X144693742Y-89290421D01*
X144688150Y-89282850D01*
X144671206Y-89270335D01*
X144586757Y-89207959D01*
X144586754Y-89207958D01*
X144579184Y-89202366D01*
X144451369Y-89157481D01*
X144443723Y-89156758D01*
X144443722Y-89156758D01*
X144437752Y-89156194D01*
X144419834Y-89154500D01*
X143362166Y-89154500D01*
X143344248Y-89156194D01*
X143338278Y-89156758D01*
X143338277Y-89156758D01*
X143330631Y-89157481D01*
X143202816Y-89202366D01*
X143195246Y-89207958D01*
X143195243Y-89207959D01*
X143110794Y-89270335D01*
X143093850Y-89282850D01*
X143088258Y-89290421D01*
X143018959Y-89384243D01*
X143018958Y-89384246D01*
X143013366Y-89391816D01*
X142968481Y-89519631D01*
X142965500Y-89551166D01*
X142965500Y-90158834D01*
X132035209Y-90158834D01*
X132098181Y-89959717D01*
X132099500Y-89955773D01*
X132110087Y-89925793D01*
X132482371Y-88871571D01*
X132483822Y-88867672D01*
X132594899Y-88583509D01*
X132650752Y-88440621D01*
X132902398Y-87796844D01*
X132903983Y-87792978D01*
X133357854Y-86736564D01*
X133359567Y-86732753D01*
X133488468Y-86458203D01*
X133848206Y-85691986D01*
X133850038Y-85688246D01*
X133940299Y-85511480D01*
X134372930Y-84664223D01*
X134374883Y-84660551D01*
X134381251Y-84649039D01*
X134558840Y-84328000D01*
X143104508Y-84328000D01*
X143124354Y-84453304D01*
X143181950Y-84566342D01*
X143271658Y-84656050D01*
X143384696Y-84713646D01*
X143394485Y-84715196D01*
X143394487Y-84715197D01*
X143500207Y-84731941D01*
X143510000Y-84733492D01*
X143519793Y-84731941D01*
X143625513Y-84715197D01*
X143625515Y-84715196D01*
X143635304Y-84713646D01*
X143748342Y-84656050D01*
X143838050Y-84566342D01*
X143895646Y-84453304D01*
X143915492Y-84328000D01*
X143895646Y-84202696D01*
X143838050Y-84089658D01*
X143748342Y-83999950D01*
X143635304Y-83942354D01*
X143625515Y-83940804D01*
X143625513Y-83940803D01*
X143519793Y-83924059D01*
X143510000Y-83922508D01*
X143500207Y-83924059D01*
X143394487Y-83940803D01*
X143394485Y-83940804D01*
X143384696Y-83942354D01*
X143271658Y-83999950D01*
X143181950Y-84089658D01*
X143124354Y-84202696D01*
X143104508Y-84328000D01*
X134558840Y-84328000D01*
X134931417Y-83654470D01*
X134933488Y-83650867D01*
X134976670Y-83578573D01*
X135523092Y-82663757D01*
X135525293Y-82660207D01*
X135767646Y-82283427D01*
X136147288Y-81693208D01*
X136149598Y-81689744D01*
X136170637Y-81659304D01*
X136700376Y-80892834D01*
X140364500Y-80892834D01*
X140367481Y-80924369D01*
X140412366Y-81052184D01*
X140417958Y-81059754D01*
X140417959Y-81059757D01*
X140461692Y-81118966D01*
X140492850Y-81161150D01*
X140500421Y-81166742D01*
X140588987Y-81232158D01*
X140601816Y-81241634D01*
X140610705Y-81244756D01*
X140618744Y-81249012D01*
X140648880Y-81271272D01*
X140731658Y-81354050D01*
X140844696Y-81411646D01*
X140854485Y-81413196D01*
X140854487Y-81413197D01*
X140960207Y-81429941D01*
X140970000Y-81431492D01*
X140979793Y-81429941D01*
X141085513Y-81413197D01*
X141085515Y-81413196D01*
X141095304Y-81411646D01*
X141166798Y-81375218D01*
X141236573Y-81362114D01*
X141281201Y-81375218D01*
X141352696Y-81411646D01*
X141362485Y-81413196D01*
X141362487Y-81413197D01*
X141468207Y-81429941D01*
X141478000Y-81431492D01*
X141487793Y-81429941D01*
X141593513Y-81413197D01*
X141593515Y-81413196D01*
X141603304Y-81411646D01*
X141610540Y-81407959D01*
X141666174Y-81403180D01*
X141726552Y-81411861D01*
X141726559Y-81411862D01*
X141731000Y-81412500D01*
X142218059Y-81412500D01*
X142286180Y-81432502D01*
X142332673Y-81486158D01*
X142342749Y-81532478D01*
X142342508Y-81534000D01*
X142362354Y-81659304D01*
X142419950Y-81772342D01*
X142509658Y-81862050D01*
X142622696Y-81919646D01*
X142632485Y-81921196D01*
X142632487Y-81921197D01*
X142738207Y-81937941D01*
X142748000Y-81939492D01*
X142757793Y-81937941D01*
X142863513Y-81921197D01*
X142863515Y-81921196D01*
X142873304Y-81919646D01*
X142986342Y-81862050D01*
X143076050Y-81772342D01*
X143133646Y-81659304D01*
X143153492Y-81534000D01*
X143153412Y-81533492D01*
X143171943Y-81470379D01*
X143225599Y-81423886D01*
X143277941Y-81412500D01*
X143765000Y-81412500D01*
X143768346Y-81412140D01*
X143768351Y-81412140D01*
X143870785Y-81401128D01*
X143870792Y-81401127D01*
X143874149Y-81400766D01*
X143886897Y-81397993D01*
X143923210Y-81390094D01*
X143923215Y-81390093D01*
X143926491Y-81389380D01*
X144030657Y-81354710D01*
X144153612Y-81275692D01*
X144175781Y-81256483D01*
X144240360Y-81226989D01*
X144310635Y-81237092D01*
X144364291Y-81283584D01*
X144382743Y-81331995D01*
X144391664Y-81388318D01*
X144394354Y-81405304D01*
X144407698Y-81431492D01*
X144430782Y-81476797D01*
X144443886Y-81546573D01*
X144430782Y-81591201D01*
X144394354Y-81662696D01*
X144392804Y-81672485D01*
X144392803Y-81672487D01*
X144384364Y-81725772D01*
X144374508Y-81788000D01*
X144394354Y-81913304D01*
X144430782Y-81984797D01*
X144443886Y-82054573D01*
X144430782Y-82099201D01*
X144394354Y-82170696D01*
X144374508Y-82296000D01*
X144394354Y-82421304D01*
X144430782Y-82492797D01*
X144443886Y-82562573D01*
X144430782Y-82607201D01*
X144394354Y-82678696D01*
X144374508Y-82804000D01*
X144394354Y-82929304D01*
X144398855Y-82938137D01*
X144430782Y-83000797D01*
X144443886Y-83070573D01*
X144430782Y-83115201D01*
X144394354Y-83186696D01*
X144374508Y-83312000D01*
X144394354Y-83437304D01*
X144398855Y-83446137D01*
X144430782Y-83508797D01*
X144443886Y-83578573D01*
X144430782Y-83623201D01*
X144394354Y-83694696D01*
X144374508Y-83820000D01*
X144376059Y-83829793D01*
X144390744Y-83922508D01*
X144394354Y-83945304D01*
X144407698Y-83971492D01*
X144430782Y-84016797D01*
X144443886Y-84086573D01*
X144430782Y-84131201D01*
X144394354Y-84202696D01*
X144374508Y-84328000D01*
X144394354Y-84453304D01*
X144451950Y-84566342D01*
X144541658Y-84656050D01*
X144654696Y-84713646D01*
X144664485Y-84715196D01*
X144664487Y-84715197D01*
X144770207Y-84731941D01*
X144780000Y-84733492D01*
X144789793Y-84731941D01*
X144895513Y-84715197D01*
X144895515Y-84715196D01*
X144905304Y-84713646D01*
X144976798Y-84677218D01*
X145046573Y-84664114D01*
X145091201Y-84677218D01*
X145162696Y-84713646D01*
X145172485Y-84715196D01*
X145172487Y-84715197D01*
X145278207Y-84731941D01*
X145288000Y-84733492D01*
X145297793Y-84731941D01*
X145403513Y-84715197D01*
X145403515Y-84715196D01*
X145413304Y-84713646D01*
X145484798Y-84677218D01*
X145554573Y-84664114D01*
X145599201Y-84677218D01*
X145670696Y-84713646D01*
X145680485Y-84715196D01*
X145680487Y-84715197D01*
X145786207Y-84731941D01*
X145796000Y-84733492D01*
X145805793Y-84731941D01*
X145911513Y-84715197D01*
X145911515Y-84715196D01*
X145921304Y-84713646D01*
X145992798Y-84677218D01*
X146062573Y-84664114D01*
X146107201Y-84677218D01*
X146178696Y-84713646D01*
X146188485Y-84715196D01*
X146188487Y-84715197D01*
X146294207Y-84731941D01*
X146304000Y-84733492D01*
X146313793Y-84731941D01*
X146419513Y-84715197D01*
X146419515Y-84715196D01*
X146429304Y-84713646D01*
X146500798Y-84677218D01*
X146570573Y-84664114D01*
X146615201Y-84677218D01*
X146686696Y-84713646D01*
X146696485Y-84715196D01*
X146696487Y-84715197D01*
X146802207Y-84731941D01*
X146812000Y-84733492D01*
X146821793Y-84731941D01*
X146927513Y-84715197D01*
X146927515Y-84715196D01*
X146937304Y-84713646D01*
X147008798Y-84677218D01*
X147078573Y-84664114D01*
X147123201Y-84677218D01*
X147194696Y-84713646D01*
X147204485Y-84715196D01*
X147204487Y-84715197D01*
X147310207Y-84731941D01*
X147320000Y-84733492D01*
X147329793Y-84731941D01*
X147435513Y-84715197D01*
X147435515Y-84715196D01*
X147445304Y-84713646D01*
X147558342Y-84656050D01*
X147632392Y-84582000D01*
X148692508Y-84582000D01*
X148712354Y-84707304D01*
X148769950Y-84820342D01*
X148859658Y-84910050D01*
X148972696Y-84967646D01*
X148982485Y-84969196D01*
X148982487Y-84969197D01*
X149088207Y-84985941D01*
X149098000Y-84987492D01*
X149107793Y-84985941D01*
X149213513Y-84969197D01*
X149213515Y-84969196D01*
X149223304Y-84967646D01*
X149336342Y-84910050D01*
X149426050Y-84820342D01*
X149483646Y-84707304D01*
X149503492Y-84582000D01*
X149499613Y-84557509D01*
X149485197Y-84466487D01*
X149485196Y-84466485D01*
X149483646Y-84456696D01*
X149426050Y-84343658D01*
X149336342Y-84253950D01*
X149223304Y-84196354D01*
X149213515Y-84194804D01*
X149213513Y-84194803D01*
X149107793Y-84178059D01*
X149098000Y-84176508D01*
X149056620Y-84183062D01*
X148991694Y-84174671D01*
X148962294Y-84201654D01*
X148859658Y-84253950D01*
X148769950Y-84343658D01*
X148712354Y-84456696D01*
X148710804Y-84466485D01*
X148710803Y-84466487D01*
X148696387Y-84557509D01*
X148692508Y-84582000D01*
X147632392Y-84582000D01*
X147648050Y-84566342D01*
X147705646Y-84453304D01*
X147725492Y-84328000D01*
X147705646Y-84202696D01*
X147669218Y-84131202D01*
X147658475Y-84074000D01*
X151232508Y-84074000D01*
X151234059Y-84083793D01*
X151249782Y-84183062D01*
X151252354Y-84199304D01*
X151309950Y-84312342D01*
X151399658Y-84402050D01*
X151512696Y-84459646D01*
X151522485Y-84461196D01*
X151522487Y-84461197D01*
X151628207Y-84477941D01*
X151638000Y-84479492D01*
X151647793Y-84477941D01*
X151753513Y-84461197D01*
X151753515Y-84461196D01*
X151763304Y-84459646D01*
X151876342Y-84402050D01*
X151966050Y-84312342D01*
X152023646Y-84199304D01*
X152026219Y-84183062D01*
X152041941Y-84083793D01*
X152043492Y-84074000D01*
X152031051Y-83995450D01*
X152025197Y-83958487D01*
X152025196Y-83958485D01*
X152023646Y-83948696D01*
X151966050Y-83835658D01*
X151876342Y-83745950D01*
X151763304Y-83688354D01*
X151753515Y-83686804D01*
X151753513Y-83686803D01*
X151647793Y-83670059D01*
X151638000Y-83668508D01*
X151628207Y-83670059D01*
X151522487Y-83686803D01*
X151522485Y-83686804D01*
X151512696Y-83688354D01*
X151399658Y-83745950D01*
X151309950Y-83835658D01*
X151252354Y-83948696D01*
X151250804Y-83958485D01*
X151250803Y-83958487D01*
X151244949Y-83995450D01*
X151232508Y-84074000D01*
X147658475Y-84074000D01*
X147656114Y-84061427D01*
X147669218Y-84016797D01*
X147692302Y-83971492D01*
X147705646Y-83945304D01*
X147709257Y-83922508D01*
X147723941Y-83829793D01*
X147725492Y-83820000D01*
X147705646Y-83694696D01*
X147669218Y-83623202D01*
X147658475Y-83566000D01*
X148438508Y-83566000D01*
X148440059Y-83575793D01*
X148454744Y-83668508D01*
X148458354Y-83691304D01*
X148515950Y-83804342D01*
X148605658Y-83894050D01*
X148718696Y-83951646D01*
X148728485Y-83953196D01*
X148728487Y-83953197D01*
X148834207Y-83969941D01*
X148844000Y-83971492D01*
X148885380Y-83964938D01*
X148950306Y-83973329D01*
X148979706Y-83946346D01*
X149026490Y-83922508D01*
X149082342Y-83894050D01*
X149172050Y-83804342D01*
X149229646Y-83691304D01*
X149233257Y-83668508D01*
X149247941Y-83575793D01*
X149249492Y-83566000D01*
X149229646Y-83440696D01*
X149172050Y-83327658D01*
X149082342Y-83237950D01*
X148969304Y-83180354D01*
X148959515Y-83178804D01*
X148959513Y-83178803D01*
X148853793Y-83162059D01*
X148844000Y-83160508D01*
X148834207Y-83162059D01*
X148728487Y-83178803D01*
X148728485Y-83178804D01*
X148718696Y-83180354D01*
X148605658Y-83237950D01*
X148515950Y-83327658D01*
X148458354Y-83440696D01*
X148438508Y-83566000D01*
X147658475Y-83566000D01*
X147656114Y-83553427D01*
X147669218Y-83508797D01*
X147701145Y-83446137D01*
X147705646Y-83437304D01*
X147725492Y-83312000D01*
X147705646Y-83186696D01*
X147669218Y-83115202D01*
X147656114Y-83045427D01*
X147669218Y-83000797D01*
X147701145Y-82938137D01*
X147705646Y-82929304D01*
X147725492Y-82804000D01*
X147705646Y-82678696D01*
X147669218Y-82607202D01*
X147656114Y-82537427D01*
X147669218Y-82492797D01*
X147705646Y-82421304D01*
X147725492Y-82296000D01*
X147705646Y-82170696D01*
X147669218Y-82099202D01*
X147656114Y-82029427D01*
X147669218Y-81984797D01*
X147705646Y-81913304D01*
X147725187Y-81789926D01*
X147755599Y-81725772D01*
X147815867Y-81688245D01*
X147829926Y-81685187D01*
X147943512Y-81667197D01*
X147943513Y-81667197D01*
X147953304Y-81665646D01*
X148024798Y-81629218D01*
X148094573Y-81616114D01*
X148139201Y-81629218D01*
X148210696Y-81665646D01*
X148220485Y-81667196D01*
X148220487Y-81667197D01*
X148326207Y-81683941D01*
X148336000Y-81685492D01*
X148345793Y-81683941D01*
X148451513Y-81667197D01*
X148451515Y-81667196D01*
X148461304Y-81665646D01*
X148574342Y-81608050D01*
X148664050Y-81518342D01*
X148721646Y-81405304D01*
X148724337Y-81388318D01*
X148739941Y-81289793D01*
X148741492Y-81280000D01*
X148737767Y-81256483D01*
X148723197Y-81164487D01*
X148723196Y-81164485D01*
X148721646Y-81154696D01*
X148685218Y-81083202D01*
X148672114Y-81013427D01*
X148685218Y-80968797D01*
X148721646Y-80897304D01*
X148741492Y-80772000D01*
X148726724Y-80678757D01*
X148723197Y-80656487D01*
X148723196Y-80656485D01*
X148721646Y-80646696D01*
X148685218Y-80575202D01*
X148672114Y-80505427D01*
X148685218Y-80460797D01*
X148721646Y-80389304D01*
X148725257Y-80366508D01*
X148739941Y-80273793D01*
X148741492Y-80264000D01*
X148721646Y-80138696D01*
X148685218Y-80067202D01*
X148672114Y-79997427D01*
X148685218Y-79952797D01*
X148707178Y-79909699D01*
X148721646Y-79881304D01*
X148741492Y-79756000D01*
X148726544Y-79661618D01*
X148723197Y-79640487D01*
X148723196Y-79640485D01*
X148721646Y-79630696D01*
X148685218Y-79559202D01*
X148672114Y-79489427D01*
X148685218Y-79444797D01*
X148721646Y-79373304D01*
X148741187Y-79249926D01*
X148771599Y-79185772D01*
X148831867Y-79148245D01*
X148845926Y-79145187D01*
X148959512Y-79127197D01*
X148959513Y-79127197D01*
X148969304Y-79125646D01*
X149036298Y-79091511D01*
X149106073Y-79078407D01*
X149171858Y-79105107D01*
X149212765Y-79163134D01*
X149219500Y-79203778D01*
X149219500Y-79280316D01*
X149199498Y-79348437D01*
X149168360Y-79381667D01*
X149128850Y-79410850D01*
X149123258Y-79418421D01*
X149053959Y-79512243D01*
X149053958Y-79512246D01*
X149048366Y-79519816D01*
X149003481Y-79647631D01*
X149000500Y-79679166D01*
X149000500Y-80511834D01*
X149003481Y-80543369D01*
X149048366Y-80671184D01*
X149053958Y-80678754D01*
X149053959Y-80678757D01*
X149080579Y-80714797D01*
X149128850Y-80780150D01*
X149136421Y-80785742D01*
X149230243Y-80855041D01*
X149230246Y-80855042D01*
X149237816Y-80860634D01*
X149318058Y-80888813D01*
X149371533Y-80925183D01*
X149402801Y-80961268D01*
X149406194Y-80964208D01*
X149506450Y-81051081D01*
X149506453Y-81051083D01*
X149513261Y-81056982D01*
X149646210Y-81117698D01*
X149669964Y-81124673D01*
X149710008Y-81136431D01*
X149710012Y-81136432D01*
X149714331Y-81137700D01*
X149718780Y-81138340D01*
X149718786Y-81138341D01*
X149854553Y-81157861D01*
X149854558Y-81157861D01*
X149859000Y-81158500D01*
X150666222Y-81158500D01*
X150734343Y-81178502D01*
X150780836Y-81232158D01*
X150790940Y-81302432D01*
X150778489Y-81341702D01*
X150744354Y-81408696D01*
X150742804Y-81418485D01*
X150742803Y-81418487D01*
X150734584Y-81470379D01*
X150724508Y-81534000D01*
X150744354Y-81659304D01*
X150801950Y-81772342D01*
X150891658Y-81862050D01*
X151004696Y-81919646D01*
X151014485Y-81921196D01*
X151014487Y-81921197D01*
X151120207Y-81937941D01*
X151130000Y-81939492D01*
X151139793Y-81937941D01*
X151245513Y-81921197D01*
X151245515Y-81921196D01*
X151255304Y-81919646D01*
X151368342Y-81862050D01*
X151458050Y-81772342D01*
X151515646Y-81659304D01*
X151535492Y-81534000D01*
X151525416Y-81470379D01*
X151517197Y-81418487D01*
X151517196Y-81418485D01*
X151515646Y-81408696D01*
X151481511Y-81341702D01*
X151468407Y-81271927D01*
X151495107Y-81206142D01*
X151553134Y-81165235D01*
X151593778Y-81158500D01*
X152020000Y-81158500D01*
X152023346Y-81158140D01*
X152023351Y-81158140D01*
X152125785Y-81147128D01*
X152125792Y-81147127D01*
X152129149Y-81146766D01*
X152133300Y-81145863D01*
X152178210Y-81136094D01*
X152178215Y-81136093D01*
X152181491Y-81135380D01*
X152285657Y-81100710D01*
X152292282Y-81096452D01*
X152292287Y-81096450D01*
X152322140Y-81077265D01*
X152390261Y-81057264D01*
X152458382Y-81077267D01*
X152504874Y-81130924D01*
X152514708Y-81202973D01*
X152502508Y-81280000D01*
X152504059Y-81289793D01*
X152519664Y-81388318D01*
X152522354Y-81405304D01*
X152535698Y-81431492D01*
X152558782Y-81476797D01*
X152571886Y-81546573D01*
X152558782Y-81591201D01*
X152522354Y-81662696D01*
X152520804Y-81672485D01*
X152520803Y-81672487D01*
X152512364Y-81725772D01*
X152502508Y-81788000D01*
X152522354Y-81913304D01*
X152558782Y-81984797D01*
X152571886Y-82054573D01*
X152558782Y-82099201D01*
X152522354Y-82170696D01*
X152502508Y-82296000D01*
X152522354Y-82421304D01*
X152558782Y-82492797D01*
X152571886Y-82562573D01*
X152558782Y-82607201D01*
X152522354Y-82678696D01*
X152502508Y-82804000D01*
X152522354Y-82929304D01*
X152526855Y-82938137D01*
X152558782Y-83000797D01*
X152571886Y-83070573D01*
X152558782Y-83115201D01*
X152522354Y-83186696D01*
X152502508Y-83312000D01*
X152522354Y-83437304D01*
X152526855Y-83446137D01*
X152558782Y-83508797D01*
X152571886Y-83578573D01*
X152558782Y-83623201D01*
X152522354Y-83694696D01*
X152502508Y-83820000D01*
X152504059Y-83829793D01*
X152518744Y-83922508D01*
X152522354Y-83945304D01*
X152535698Y-83971492D01*
X152558782Y-84016797D01*
X152571886Y-84086573D01*
X152558782Y-84131201D01*
X152522354Y-84202696D01*
X152502508Y-84328000D01*
X152522354Y-84453304D01*
X152579950Y-84566342D01*
X152669658Y-84656050D01*
X152782696Y-84713646D01*
X152792485Y-84715196D01*
X152792487Y-84715197D01*
X152898207Y-84731941D01*
X152908000Y-84733492D01*
X152917793Y-84731941D01*
X153023513Y-84715197D01*
X153023515Y-84715196D01*
X153033304Y-84713646D01*
X153104798Y-84677218D01*
X153174573Y-84664114D01*
X153219201Y-84677218D01*
X153290696Y-84713646D01*
X153300485Y-84715196D01*
X153300487Y-84715197D01*
X153406207Y-84731941D01*
X153416000Y-84733492D01*
X153425793Y-84731941D01*
X153531513Y-84715197D01*
X153531515Y-84715196D01*
X153541304Y-84713646D01*
X153612798Y-84677218D01*
X153682573Y-84664114D01*
X153727201Y-84677218D01*
X153798696Y-84713646D01*
X153808485Y-84715196D01*
X153808487Y-84715197D01*
X153914207Y-84731941D01*
X153924000Y-84733492D01*
X153933793Y-84731941D01*
X154039513Y-84715197D01*
X154039515Y-84715196D01*
X154049304Y-84713646D01*
X154120798Y-84677218D01*
X154190573Y-84664114D01*
X154235201Y-84677218D01*
X154306696Y-84713646D01*
X154316485Y-84715196D01*
X154316487Y-84715197D01*
X154422207Y-84731941D01*
X154432000Y-84733492D01*
X154441793Y-84731941D01*
X154547513Y-84715197D01*
X154547515Y-84715196D01*
X154557304Y-84713646D01*
X154628798Y-84677218D01*
X154698573Y-84664114D01*
X154743201Y-84677218D01*
X154814696Y-84713646D01*
X154824485Y-84715196D01*
X154824487Y-84715197D01*
X154930207Y-84731941D01*
X154940000Y-84733492D01*
X154949793Y-84731941D01*
X155055513Y-84715197D01*
X155055515Y-84715196D01*
X155065304Y-84713646D01*
X155136798Y-84677218D01*
X155206573Y-84664114D01*
X155251201Y-84677218D01*
X155322696Y-84713646D01*
X155332485Y-84715196D01*
X155332487Y-84715197D01*
X155438207Y-84731941D01*
X155448000Y-84733492D01*
X155457793Y-84731941D01*
X155563513Y-84715197D01*
X155563515Y-84715196D01*
X155573304Y-84713646D01*
X155686342Y-84656050D01*
X155776050Y-84566342D01*
X155833646Y-84453304D01*
X155853492Y-84328000D01*
X159360508Y-84328000D01*
X159380354Y-84453304D01*
X159437950Y-84566342D01*
X159527658Y-84656050D01*
X159640696Y-84713646D01*
X159650485Y-84715196D01*
X159650487Y-84715197D01*
X159756207Y-84731941D01*
X159766000Y-84733492D01*
X159775793Y-84731941D01*
X159881513Y-84715197D01*
X159881515Y-84715196D01*
X159891304Y-84713646D01*
X160004342Y-84656050D01*
X160094050Y-84566342D01*
X160151646Y-84453304D01*
X160171492Y-84328000D01*
X160164938Y-84286620D01*
X160173329Y-84221694D01*
X160146346Y-84192294D01*
X160140238Y-84180306D01*
X160374671Y-84180306D01*
X160401654Y-84209706D01*
X160453950Y-84312342D01*
X160543658Y-84402050D01*
X160656696Y-84459646D01*
X160666485Y-84461196D01*
X160666487Y-84461197D01*
X160772207Y-84477941D01*
X160782000Y-84479492D01*
X160791793Y-84477941D01*
X160897513Y-84461197D01*
X160897515Y-84461196D01*
X160907304Y-84459646D01*
X160978798Y-84423218D01*
X161048573Y-84410114D01*
X161093201Y-84423218D01*
X161164696Y-84459646D01*
X161174485Y-84461196D01*
X161174487Y-84461197D01*
X161280207Y-84477941D01*
X161290000Y-84479492D01*
X161299793Y-84477941D01*
X161405513Y-84461197D01*
X161405515Y-84461196D01*
X161415304Y-84459646D01*
X161486798Y-84423218D01*
X161556573Y-84410114D01*
X161601201Y-84423218D01*
X161672696Y-84459646D01*
X161682485Y-84461196D01*
X161682487Y-84461197D01*
X161788207Y-84477941D01*
X161798000Y-84479492D01*
X161807793Y-84477941D01*
X161913513Y-84461197D01*
X161913515Y-84461196D01*
X161923304Y-84459646D01*
X161994798Y-84423218D01*
X162064573Y-84410114D01*
X162109201Y-84423218D01*
X162180696Y-84459646D01*
X162190485Y-84461196D01*
X162190487Y-84461197D01*
X162296207Y-84477941D01*
X162306000Y-84479492D01*
X162315793Y-84477941D01*
X162421513Y-84461197D01*
X162421515Y-84461196D01*
X162431304Y-84459646D01*
X162502798Y-84423218D01*
X162572573Y-84410114D01*
X162617201Y-84423218D01*
X162688696Y-84459646D01*
X162698485Y-84461196D01*
X162698487Y-84461197D01*
X162804207Y-84477941D01*
X162814000Y-84479492D01*
X162823793Y-84477941D01*
X162929513Y-84461197D01*
X162929515Y-84461196D01*
X162939304Y-84459646D01*
X163010798Y-84423218D01*
X163080573Y-84410114D01*
X163125201Y-84423218D01*
X163196696Y-84459646D01*
X163206485Y-84461196D01*
X163206487Y-84461197D01*
X163312207Y-84477941D01*
X163322000Y-84479492D01*
X163331793Y-84477941D01*
X163437513Y-84461197D01*
X163437515Y-84461196D01*
X163447304Y-84459646D01*
X163560342Y-84402050D01*
X163650050Y-84312342D01*
X163707646Y-84199304D01*
X163710219Y-84183062D01*
X163725941Y-84083793D01*
X163727492Y-84074000D01*
X163715051Y-83995450D01*
X163709197Y-83958487D01*
X163709196Y-83958485D01*
X163707646Y-83948696D01*
X163671218Y-83877202D01*
X163658114Y-83807427D01*
X163671218Y-83762797D01*
X163703145Y-83700137D01*
X163707646Y-83691304D01*
X163711257Y-83668508D01*
X163725941Y-83575793D01*
X163727492Y-83566000D01*
X163707646Y-83440696D01*
X163671218Y-83369202D01*
X163658114Y-83299427D01*
X163671218Y-83254797D01*
X163703145Y-83192137D01*
X163707646Y-83183304D01*
X163711257Y-83160508D01*
X163725941Y-83067793D01*
X163727492Y-83058000D01*
X163707646Y-82932696D01*
X163671218Y-82861202D01*
X163658114Y-82791427D01*
X163671218Y-82746797D01*
X163703145Y-82684137D01*
X163707646Y-82675304D01*
X163727492Y-82550000D01*
X163707646Y-82424696D01*
X163671218Y-82353202D01*
X163658114Y-82283427D01*
X163671218Y-82238797D01*
X163703145Y-82176137D01*
X163707646Y-82167304D01*
X163727187Y-82043926D01*
X163757599Y-81979772D01*
X163817867Y-81942245D01*
X163831926Y-81939187D01*
X163945512Y-81921197D01*
X163945513Y-81921197D01*
X163955304Y-81919646D01*
X164026798Y-81883218D01*
X164096573Y-81870114D01*
X164141201Y-81883218D01*
X164212696Y-81919646D01*
X164222485Y-81921196D01*
X164222487Y-81921197D01*
X164328207Y-81937941D01*
X164338000Y-81939492D01*
X164347793Y-81937941D01*
X164453513Y-81921197D01*
X164453515Y-81921196D01*
X164463304Y-81919646D01*
X164534798Y-81883218D01*
X164604573Y-81870114D01*
X164649201Y-81883218D01*
X164720696Y-81919646D01*
X164730485Y-81921196D01*
X164730487Y-81921197D01*
X164836207Y-81937941D01*
X164846000Y-81939492D01*
X164855793Y-81937941D01*
X164961513Y-81921197D01*
X164961515Y-81921196D01*
X164971304Y-81919646D01*
X165084342Y-81862050D01*
X165174050Y-81772342D01*
X165231646Y-81659304D01*
X165251492Y-81534000D01*
X165241416Y-81470379D01*
X165233197Y-81418487D01*
X165233196Y-81418485D01*
X165231646Y-81408696D01*
X165195218Y-81337202D01*
X165182114Y-81267427D01*
X165195218Y-81222797D01*
X165200230Y-81212961D01*
X165231646Y-81151304D01*
X165234337Y-81134318D01*
X165249941Y-81035793D01*
X165251492Y-81026000D01*
X165249012Y-81010342D01*
X165233197Y-80910487D01*
X165233196Y-80910485D01*
X165231646Y-80900696D01*
X165195218Y-80829202D01*
X165182114Y-80759427D01*
X165195218Y-80714797D01*
X165231646Y-80643304D01*
X165251492Y-80518000D01*
X165231646Y-80392696D01*
X165195218Y-80321202D01*
X165182114Y-80251427D01*
X165195218Y-80206797D01*
X165227145Y-80144137D01*
X165231646Y-80135304D01*
X165244014Y-80057218D01*
X165249941Y-80019793D01*
X165251492Y-80010000D01*
X165231646Y-79884696D01*
X165195218Y-79813202D01*
X165182114Y-79743427D01*
X165195218Y-79698797D01*
X165231646Y-79627304D01*
X165234484Y-79609389D01*
X165249941Y-79511793D01*
X165251492Y-79502000D01*
X165238255Y-79418421D01*
X165233197Y-79386487D01*
X165233196Y-79386485D01*
X165231646Y-79376696D01*
X165195218Y-79305202D01*
X165182114Y-79235427D01*
X165195218Y-79190797D01*
X165231646Y-79119304D01*
X165238124Y-79078407D01*
X165249941Y-79003793D01*
X165251492Y-78994000D01*
X165242432Y-78936797D01*
X165233197Y-78878487D01*
X165233196Y-78878485D01*
X165231646Y-78868696D01*
X165195218Y-78797202D01*
X165182114Y-78727427D01*
X165195218Y-78682797D01*
X165227145Y-78620137D01*
X165231646Y-78611304D01*
X165251492Y-78486000D01*
X165231646Y-78360696D01*
X165195218Y-78289202D01*
X165182114Y-78219427D01*
X165195218Y-78174797D01*
X165227145Y-78112137D01*
X165231646Y-78103304D01*
X165251492Y-77978000D01*
X165231646Y-77852696D01*
X165195218Y-77781202D01*
X165182114Y-77711427D01*
X165195218Y-77666797D01*
X165227145Y-77604137D01*
X165231646Y-77595304D01*
X165251492Y-77470000D01*
X165239051Y-77391450D01*
X165233197Y-77354487D01*
X165233196Y-77354485D01*
X165231646Y-77344696D01*
X165174050Y-77231658D01*
X165084342Y-77141950D01*
X164971304Y-77084354D01*
X164961515Y-77082804D01*
X164961513Y-77082803D01*
X164855793Y-77066059D01*
X164846000Y-77064508D01*
X164836207Y-77066059D01*
X164730487Y-77082803D01*
X164730485Y-77082804D01*
X164720696Y-77084354D01*
X164649202Y-77120782D01*
X164579427Y-77133886D01*
X164534799Y-77120782D01*
X164463304Y-77084354D01*
X164453515Y-77082804D01*
X164453513Y-77082803D01*
X164347793Y-77066059D01*
X164338000Y-77064508D01*
X164328207Y-77066059D01*
X164222487Y-77082803D01*
X164222485Y-77082804D01*
X164212696Y-77084354D01*
X164141202Y-77120782D01*
X164071427Y-77133886D01*
X164026799Y-77120782D01*
X163955304Y-77084354D01*
X163945515Y-77082804D01*
X163945513Y-77082803D01*
X163839793Y-77066059D01*
X163830000Y-77064508D01*
X163820207Y-77066059D01*
X163714487Y-77082803D01*
X163714485Y-77082804D01*
X163704696Y-77084354D01*
X163633202Y-77120782D01*
X163563427Y-77133886D01*
X163518799Y-77120782D01*
X163447304Y-77084354D01*
X163437515Y-77082804D01*
X163437513Y-77082803D01*
X163331793Y-77066059D01*
X163322000Y-77064508D01*
X163312207Y-77066059D01*
X163206487Y-77082803D01*
X163206485Y-77082804D01*
X163196696Y-77084354D01*
X163125202Y-77120782D01*
X163055427Y-77133886D01*
X163010799Y-77120782D01*
X162939304Y-77084354D01*
X162929515Y-77082804D01*
X162929513Y-77082803D01*
X162823793Y-77066059D01*
X162814000Y-77064508D01*
X162804207Y-77066059D01*
X162698487Y-77082803D01*
X162698485Y-77082804D01*
X162688696Y-77084354D01*
X162617202Y-77120782D01*
X162547427Y-77133886D01*
X162502799Y-77120782D01*
X162431304Y-77084354D01*
X162421515Y-77082804D01*
X162421513Y-77082803D01*
X162315793Y-77066059D01*
X162306000Y-77064508D01*
X162296207Y-77066059D01*
X162190487Y-77082803D01*
X162190485Y-77082804D01*
X162180696Y-77084354D01*
X162109202Y-77120782D01*
X162039427Y-77133886D01*
X161994799Y-77120782D01*
X161923304Y-77084354D01*
X161913515Y-77082804D01*
X161913513Y-77082803D01*
X161807793Y-77066059D01*
X161798000Y-77064508D01*
X161788207Y-77066059D01*
X161682487Y-77082803D01*
X161682485Y-77082804D01*
X161672696Y-77084354D01*
X161601202Y-77120782D01*
X161531427Y-77133886D01*
X161486799Y-77120782D01*
X161415304Y-77084354D01*
X161405515Y-77082804D01*
X161405513Y-77082803D01*
X161299793Y-77066059D01*
X161290000Y-77064508D01*
X161280207Y-77066059D01*
X161174487Y-77082803D01*
X161174485Y-77082804D01*
X161164696Y-77084354D01*
X161093202Y-77120782D01*
X161023427Y-77133886D01*
X160978799Y-77120782D01*
X160907304Y-77084354D01*
X160897515Y-77082804D01*
X160897513Y-77082803D01*
X160791793Y-77066059D01*
X160782000Y-77064508D01*
X160772207Y-77066059D01*
X160666487Y-77082803D01*
X160666485Y-77082804D01*
X160656696Y-77084354D01*
X160543658Y-77141950D01*
X160453950Y-77231658D01*
X160396354Y-77344696D01*
X160394804Y-77354485D01*
X160394803Y-77354487D01*
X160388949Y-77391450D01*
X160376508Y-77470000D01*
X160396354Y-77595304D01*
X160400855Y-77604137D01*
X160432782Y-77666797D01*
X160445886Y-77736573D01*
X160432782Y-77781201D01*
X160396354Y-77852696D01*
X160376508Y-77978000D01*
X160396354Y-78103304D01*
X160400855Y-78112137D01*
X160432782Y-78174797D01*
X160445886Y-78244573D01*
X160432782Y-78289201D01*
X160396354Y-78360696D01*
X160376508Y-78486000D01*
X160396354Y-78611304D01*
X160400855Y-78620137D01*
X160432782Y-78682797D01*
X160445886Y-78752573D01*
X160432782Y-78797201D01*
X160396354Y-78868696D01*
X160394804Y-78878485D01*
X160394803Y-78878487D01*
X160385568Y-78936797D01*
X160376508Y-78994000D01*
X160378059Y-79003793D01*
X160389877Y-79078407D01*
X160396354Y-79119304D01*
X160432782Y-79190797D01*
X160445886Y-79260573D01*
X160432782Y-79305201D01*
X160396354Y-79376696D01*
X160394804Y-79386485D01*
X160394803Y-79386487D01*
X160389745Y-79418421D01*
X160376508Y-79502000D01*
X160378059Y-79511793D01*
X160393517Y-79609389D01*
X160396354Y-79627304D01*
X160432782Y-79698797D01*
X160445886Y-79768573D01*
X160432782Y-79813201D01*
X160396354Y-79884696D01*
X160376508Y-80010000D01*
X160378059Y-80019793D01*
X160383987Y-80057218D01*
X160396354Y-80135304D01*
X160400855Y-80144137D01*
X160432782Y-80206797D01*
X160445886Y-80276573D01*
X160432782Y-80321201D01*
X160396354Y-80392696D01*
X160376508Y-80518000D01*
X160396354Y-80643304D01*
X160432782Y-80714797D01*
X160445886Y-80784573D01*
X160432782Y-80829201D01*
X160396354Y-80900696D01*
X160394804Y-80910485D01*
X160394803Y-80910487D01*
X160378988Y-81010342D01*
X160376508Y-81026000D01*
X160378059Y-81035793D01*
X160393664Y-81134318D01*
X160396354Y-81151304D01*
X160427770Y-81212961D01*
X160432782Y-81222797D01*
X160445886Y-81292573D01*
X160432782Y-81337201D01*
X160396354Y-81408696D01*
X160394804Y-81418485D01*
X160394803Y-81418487D01*
X160386584Y-81470379D01*
X160376508Y-81534000D01*
X160396354Y-81659304D01*
X160432782Y-81730797D01*
X160445886Y-81800573D01*
X160432782Y-81845201D01*
X160396354Y-81916696D01*
X160394804Y-81926485D01*
X160394803Y-81926487D01*
X160392307Y-81942245D01*
X160376508Y-82042000D01*
X160396354Y-82167304D01*
X160400855Y-82176137D01*
X160432782Y-82238797D01*
X160445886Y-82308573D01*
X160432782Y-82353201D01*
X160396354Y-82424696D01*
X160376508Y-82550000D01*
X160396354Y-82675304D01*
X160400855Y-82684137D01*
X160432782Y-82746797D01*
X160445886Y-82816573D01*
X160432782Y-82861201D01*
X160396354Y-82932696D01*
X160376508Y-83058000D01*
X160378059Y-83067793D01*
X160392744Y-83160508D01*
X160396354Y-83183304D01*
X160400855Y-83192137D01*
X160432782Y-83254797D01*
X160445886Y-83324573D01*
X160432782Y-83369201D01*
X160396354Y-83440696D01*
X160376508Y-83566000D01*
X160378059Y-83575793D01*
X160392744Y-83668508D01*
X160396354Y-83691304D01*
X160400855Y-83700137D01*
X160432782Y-83762797D01*
X160445886Y-83832573D01*
X160432782Y-83877201D01*
X160396354Y-83948696D01*
X160394804Y-83958485D01*
X160394803Y-83958487D01*
X160388949Y-83995450D01*
X160376508Y-84074000D01*
X160378059Y-84083793D01*
X160383062Y-84115380D01*
X160374671Y-84180306D01*
X160140238Y-84180306D01*
X160107156Y-84115380D01*
X160094050Y-84089658D01*
X160004342Y-83999950D01*
X159891304Y-83942354D01*
X159881515Y-83940804D01*
X159881513Y-83940803D01*
X159775793Y-83924059D01*
X159766000Y-83922508D01*
X159756207Y-83924059D01*
X159650487Y-83940803D01*
X159650485Y-83940804D01*
X159640696Y-83942354D01*
X159527658Y-83999950D01*
X159437950Y-84089658D01*
X159380354Y-84202696D01*
X159360508Y-84328000D01*
X155853492Y-84328000D01*
X155833646Y-84202696D01*
X155797218Y-84131202D01*
X155784114Y-84061427D01*
X155797218Y-84016797D01*
X155820302Y-83971492D01*
X155833646Y-83945304D01*
X155837257Y-83922508D01*
X155851941Y-83829793D01*
X155853492Y-83820000D01*
X155833646Y-83694696D01*
X155797218Y-83623202D01*
X155784114Y-83553427D01*
X155797218Y-83508797D01*
X155829145Y-83446137D01*
X155833646Y-83437304D01*
X155853492Y-83312000D01*
X155833646Y-83186696D01*
X155797218Y-83115202D01*
X155784114Y-83045427D01*
X155797218Y-83000797D01*
X155829145Y-82938137D01*
X155833646Y-82929304D01*
X155853492Y-82804000D01*
X155833646Y-82678696D01*
X155797218Y-82607202D01*
X155784114Y-82537427D01*
X155797218Y-82492797D01*
X155833646Y-82421304D01*
X155853492Y-82296000D01*
X155833646Y-82170696D01*
X155797218Y-82099202D01*
X155784114Y-82029427D01*
X155797218Y-81984797D01*
X155833646Y-81913304D01*
X155853187Y-81789926D01*
X155883599Y-81725772D01*
X155943867Y-81688245D01*
X155957926Y-81685187D01*
X156071512Y-81667197D01*
X156071513Y-81667197D01*
X156081304Y-81665646D01*
X156152798Y-81629218D01*
X156222573Y-81616114D01*
X156267201Y-81629218D01*
X156338696Y-81665646D01*
X156348485Y-81667196D01*
X156348487Y-81667197D01*
X156454207Y-81683941D01*
X156464000Y-81685492D01*
X156473793Y-81683941D01*
X156579513Y-81667197D01*
X156579515Y-81667196D01*
X156589304Y-81665646D01*
X156660798Y-81629218D01*
X156730573Y-81616114D01*
X156775201Y-81629218D01*
X156846696Y-81665646D01*
X156856485Y-81667196D01*
X156856487Y-81667197D01*
X156962207Y-81683941D01*
X156972000Y-81685492D01*
X156981793Y-81683941D01*
X157087513Y-81667197D01*
X157087515Y-81667196D01*
X157097304Y-81665646D01*
X157210342Y-81608050D01*
X157284392Y-81534000D01*
X158598508Y-81534000D01*
X158618354Y-81659304D01*
X158675950Y-81772342D01*
X158765658Y-81862050D01*
X158878696Y-81919646D01*
X158888485Y-81921196D01*
X158888487Y-81921197D01*
X158994207Y-81937941D01*
X159004000Y-81939492D01*
X159013793Y-81937941D01*
X159119513Y-81921197D01*
X159119515Y-81921196D01*
X159129304Y-81919646D01*
X159242342Y-81862050D01*
X159332050Y-81772342D01*
X159389646Y-81659304D01*
X159409492Y-81534000D01*
X159399416Y-81470379D01*
X159391197Y-81418487D01*
X159391196Y-81418485D01*
X159389646Y-81408696D01*
X159332050Y-81295658D01*
X159242342Y-81205950D01*
X159129304Y-81148354D01*
X159119515Y-81146804D01*
X159119513Y-81146803D01*
X159013793Y-81130059D01*
X159004000Y-81128508D01*
X158994207Y-81130059D01*
X158888487Y-81146803D01*
X158888485Y-81146804D01*
X158878696Y-81148354D01*
X158765658Y-81205950D01*
X158675950Y-81295658D01*
X158618354Y-81408696D01*
X158616804Y-81418485D01*
X158616803Y-81418487D01*
X158608584Y-81470379D01*
X158598508Y-81534000D01*
X157284392Y-81534000D01*
X157300050Y-81518342D01*
X157357646Y-81405304D01*
X157360337Y-81388318D01*
X157375941Y-81289793D01*
X157377492Y-81280000D01*
X157373767Y-81256483D01*
X157359197Y-81164487D01*
X157359196Y-81164485D01*
X157357646Y-81154696D01*
X157321218Y-81083202D01*
X157308114Y-81013427D01*
X157321218Y-80968797D01*
X157357646Y-80897304D01*
X157377492Y-80772000D01*
X157362724Y-80678757D01*
X157359197Y-80656487D01*
X157359196Y-80656485D01*
X157357646Y-80646696D01*
X157321218Y-80575202D01*
X157308114Y-80505427D01*
X157321218Y-80460797D01*
X157357646Y-80389304D01*
X157361257Y-80366508D01*
X157375941Y-80273793D01*
X157377492Y-80264000D01*
X157357646Y-80138696D01*
X157321218Y-80067202D01*
X157308114Y-79997427D01*
X157321218Y-79952797D01*
X157343178Y-79909699D01*
X157357646Y-79881304D01*
X157377492Y-79756000D01*
X157362544Y-79661618D01*
X157359197Y-79640487D01*
X157359196Y-79640485D01*
X157357646Y-79630696D01*
X157321218Y-79559202D01*
X157308114Y-79489427D01*
X157321218Y-79444797D01*
X157357646Y-79373304D01*
X157377492Y-79248000D01*
X157361693Y-79148245D01*
X157359197Y-79132487D01*
X157359196Y-79132485D01*
X157357646Y-79122696D01*
X157321218Y-79051202D01*
X157308114Y-78981427D01*
X157321218Y-78936797D01*
X157334942Y-78909863D01*
X157357646Y-78865304D01*
X157377492Y-78740000D01*
X157367365Y-78676058D01*
X157359197Y-78624487D01*
X157359196Y-78624485D01*
X157357646Y-78614696D01*
X157321218Y-78543202D01*
X157308114Y-78473427D01*
X157321218Y-78428797D01*
X157327128Y-78417199D01*
X157357646Y-78357304D01*
X157377492Y-78232000D01*
X157357646Y-78106696D01*
X157321218Y-78035202D01*
X157308114Y-77965427D01*
X157321218Y-77920797D01*
X157357646Y-77849304D01*
X157371147Y-77764065D01*
X157375941Y-77733793D01*
X157377492Y-77724000D01*
X157357646Y-77598696D01*
X157300050Y-77485658D01*
X157210342Y-77395950D01*
X157097304Y-77338354D01*
X157087515Y-77336804D01*
X157087513Y-77336803D01*
X156981793Y-77320059D01*
X156972000Y-77318508D01*
X156962207Y-77320059D01*
X156856487Y-77336803D01*
X156856485Y-77336804D01*
X156846696Y-77338354D01*
X156775202Y-77374782D01*
X156705427Y-77387886D01*
X156660799Y-77374782D01*
X156589304Y-77338354D01*
X156579515Y-77336804D01*
X156579513Y-77336803D01*
X156473793Y-77320059D01*
X156464000Y-77318508D01*
X156454207Y-77320059D01*
X156348487Y-77336803D01*
X156348485Y-77336804D01*
X156338696Y-77338354D01*
X156267202Y-77374782D01*
X156197427Y-77387886D01*
X156152799Y-77374782D01*
X156081304Y-77338354D01*
X156071515Y-77336804D01*
X156071513Y-77336803D01*
X155965793Y-77320059D01*
X155956000Y-77318508D01*
X155946207Y-77320059D01*
X155840487Y-77336803D01*
X155840485Y-77336804D01*
X155830696Y-77338354D01*
X155759202Y-77374782D01*
X155689427Y-77387886D01*
X155644799Y-77374782D01*
X155573304Y-77338354D01*
X155563515Y-77336804D01*
X155563513Y-77336803D01*
X155457793Y-77320059D01*
X155448000Y-77318508D01*
X155438207Y-77320059D01*
X155332487Y-77336803D01*
X155332485Y-77336804D01*
X155322696Y-77338354D01*
X155251202Y-77374782D01*
X155181427Y-77387886D01*
X155136799Y-77374782D01*
X155065304Y-77338354D01*
X155055515Y-77336804D01*
X155055513Y-77336803D01*
X154949793Y-77320059D01*
X154940000Y-77318508D01*
X154930207Y-77320059D01*
X154824487Y-77336803D01*
X154824485Y-77336804D01*
X154814696Y-77338354D01*
X154743202Y-77374782D01*
X154673427Y-77387886D01*
X154628799Y-77374782D01*
X154557304Y-77338354D01*
X154547515Y-77336804D01*
X154547513Y-77336803D01*
X154441793Y-77320059D01*
X154432000Y-77318508D01*
X154422207Y-77320059D01*
X154316487Y-77336803D01*
X154316485Y-77336804D01*
X154306696Y-77338354D01*
X154235202Y-77374782D01*
X154165427Y-77387886D01*
X154120799Y-77374782D01*
X154049304Y-77338354D01*
X154039515Y-77336804D01*
X154039513Y-77336803D01*
X153933793Y-77320059D01*
X153924000Y-77318508D01*
X153914207Y-77320059D01*
X153808487Y-77336803D01*
X153808485Y-77336804D01*
X153798696Y-77338354D01*
X153727202Y-77374782D01*
X153657427Y-77387886D01*
X153612799Y-77374782D01*
X153541304Y-77338354D01*
X153531515Y-77336804D01*
X153531513Y-77336803D01*
X153425793Y-77320059D01*
X153416000Y-77318508D01*
X153406207Y-77320059D01*
X153300487Y-77336803D01*
X153300485Y-77336804D01*
X153290696Y-77338354D01*
X153219202Y-77374782D01*
X153149427Y-77387886D01*
X153104799Y-77374782D01*
X153033304Y-77338354D01*
X153023515Y-77336804D01*
X153023513Y-77336803D01*
X152917793Y-77320059D01*
X152908000Y-77318508D01*
X152898207Y-77320059D01*
X152898206Y-77320059D01*
X152804962Y-77334827D01*
X152734551Y-77325727D01*
X152680237Y-77280005D01*
X152659500Y-77217326D01*
X152659500Y-77215000D01*
X152659022Y-77210553D01*
X152648128Y-77109215D01*
X152648127Y-77109208D01*
X152647766Y-77105851D01*
X152642973Y-77083818D01*
X152637094Y-77056790D01*
X152637093Y-77056785D01*
X152636380Y-77053509D01*
X152601710Y-76949343D01*
X152522692Y-76826388D01*
X152503309Y-76804018D01*
X152479139Y-76776125D01*
X152476199Y-76772732D01*
X152466755Y-76764549D01*
X152372550Y-76682919D01*
X152372547Y-76682917D01*
X152365739Y-76677018D01*
X152232790Y-76616302D01*
X152209036Y-76609327D01*
X152168992Y-76597569D01*
X152168988Y-76597568D01*
X152164669Y-76596300D01*
X152160220Y-76595660D01*
X152160214Y-76595659D01*
X152024447Y-76576139D01*
X152024442Y-76576139D01*
X152020000Y-76575500D01*
X149859000Y-76575500D01*
X149855654Y-76575860D01*
X149855649Y-76575860D01*
X149753215Y-76586872D01*
X149753208Y-76586873D01*
X149749851Y-76587234D01*
X149746551Y-76587952D01*
X149746550Y-76587952D01*
X149700790Y-76597906D01*
X149700785Y-76597907D01*
X149697509Y-76598620D01*
X149593343Y-76633290D01*
X149470388Y-76712308D01*
X149466993Y-76715250D01*
X149466990Y-76715252D01*
X149456238Y-76724569D01*
X149416732Y-76758801D01*
X149413792Y-76762194D01*
X149326919Y-76862450D01*
X149326917Y-76862453D01*
X149321018Y-76869261D01*
X149260302Y-77002210D01*
X149259034Y-77006529D01*
X149242010Y-77064508D01*
X149240300Y-77070331D01*
X149239660Y-77074780D01*
X149239659Y-77074786D01*
X149220139Y-77210553D01*
X149219500Y-77215000D01*
X149219500Y-77260222D01*
X149199498Y-77328343D01*
X149145842Y-77374836D01*
X149075568Y-77384940D01*
X149036297Y-77372489D01*
X149017260Y-77362789D01*
X148969304Y-77338354D01*
X148959515Y-77336804D01*
X148959513Y-77336803D01*
X148853793Y-77320059D01*
X148844000Y-77318508D01*
X148834207Y-77320059D01*
X148728487Y-77336803D01*
X148728485Y-77336804D01*
X148718696Y-77338354D01*
X148647202Y-77374782D01*
X148577427Y-77387886D01*
X148532799Y-77374782D01*
X148461304Y-77338354D01*
X148451515Y-77336804D01*
X148451513Y-77336803D01*
X148345793Y-77320059D01*
X148336000Y-77318508D01*
X148326207Y-77320059D01*
X148220487Y-77336803D01*
X148220485Y-77336804D01*
X148210696Y-77338354D01*
X148139202Y-77374782D01*
X148069427Y-77387886D01*
X148024799Y-77374782D01*
X147953304Y-77338354D01*
X147943515Y-77336804D01*
X147943513Y-77336803D01*
X147837793Y-77320059D01*
X147828000Y-77318508D01*
X147818207Y-77320059D01*
X147712487Y-77336803D01*
X147712485Y-77336804D01*
X147702696Y-77338354D01*
X147631202Y-77374782D01*
X147561427Y-77387886D01*
X147516799Y-77374782D01*
X147445304Y-77338354D01*
X147435515Y-77336804D01*
X147435513Y-77336803D01*
X147329793Y-77320059D01*
X147320000Y-77318508D01*
X147310207Y-77320059D01*
X147204487Y-77336803D01*
X147204485Y-77336804D01*
X147194696Y-77338354D01*
X147123202Y-77374782D01*
X147053427Y-77387886D01*
X147008799Y-77374782D01*
X146937304Y-77338354D01*
X146927515Y-77336804D01*
X146927513Y-77336803D01*
X146821793Y-77320059D01*
X146812000Y-77318508D01*
X146802207Y-77320059D01*
X146696487Y-77336803D01*
X146696485Y-77336804D01*
X146686696Y-77338354D01*
X146615202Y-77374782D01*
X146545427Y-77387886D01*
X146500799Y-77374782D01*
X146429304Y-77338354D01*
X146419515Y-77336804D01*
X146419513Y-77336803D01*
X146313793Y-77320059D01*
X146304000Y-77318508D01*
X146294207Y-77320059D01*
X146188487Y-77336803D01*
X146188485Y-77336804D01*
X146178696Y-77338354D01*
X146107202Y-77374782D01*
X146037427Y-77387886D01*
X145992799Y-77374782D01*
X145921304Y-77338354D01*
X145911515Y-77336804D01*
X145911513Y-77336803D01*
X145805793Y-77320059D01*
X145796000Y-77318508D01*
X145786207Y-77320059D01*
X145680487Y-77336803D01*
X145680485Y-77336804D01*
X145670696Y-77338354D01*
X145599202Y-77374782D01*
X145529427Y-77387886D01*
X145484799Y-77374782D01*
X145413304Y-77338354D01*
X145403515Y-77336804D01*
X145403513Y-77336803D01*
X145297793Y-77320059D01*
X145288000Y-77318508D01*
X145278207Y-77320059D01*
X145172487Y-77336803D01*
X145172485Y-77336804D01*
X145162696Y-77338354D01*
X145091202Y-77374782D01*
X145021427Y-77387886D01*
X144976799Y-77374782D01*
X144905304Y-77338354D01*
X144895515Y-77336804D01*
X144895513Y-77336803D01*
X144789793Y-77320059D01*
X144780000Y-77318508D01*
X144770207Y-77320059D01*
X144664487Y-77336803D01*
X144664485Y-77336804D01*
X144654696Y-77338354D01*
X144606740Y-77362789D01*
X144580056Y-77376385D01*
X144510279Y-77389489D01*
X144444494Y-77362789D01*
X144403588Y-77304761D01*
X144397575Y-77277585D01*
X144393128Y-77236217D01*
X144393128Y-77236214D01*
X144392766Y-77232851D01*
X144388150Y-77211632D01*
X144382094Y-77183790D01*
X144382093Y-77183785D01*
X144381380Y-77180509D01*
X144346710Y-77076343D01*
X144267692Y-76953388D01*
X144221199Y-76899732D01*
X144211933Y-76891703D01*
X144117550Y-76809919D01*
X144117547Y-76809917D01*
X144110739Y-76804018D01*
X143977790Y-76743302D01*
X143954036Y-76736327D01*
X143913992Y-76724569D01*
X143913988Y-76724568D01*
X143909669Y-76723300D01*
X143905220Y-76722660D01*
X143905214Y-76722659D01*
X143769447Y-76703139D01*
X143769442Y-76703139D01*
X143765000Y-76702500D01*
X141731000Y-76702500D01*
X141727654Y-76702860D01*
X141727649Y-76702860D01*
X141625215Y-76713872D01*
X141625208Y-76713873D01*
X141621851Y-76714234D01*
X141618551Y-76714952D01*
X141618550Y-76714952D01*
X141572790Y-76724906D01*
X141572785Y-76724907D01*
X141569509Y-76725620D01*
X141465343Y-76760290D01*
X141342388Y-76839308D01*
X141338993Y-76842250D01*
X141338990Y-76842252D01*
X141307820Y-76869261D01*
X141288732Y-76885801D01*
X141285792Y-76889194D01*
X141198919Y-76989450D01*
X141198917Y-76989453D01*
X141193018Y-76996261D01*
X141132302Y-77129210D01*
X141131034Y-77133529D01*
X141117563Y-77179408D01*
X141112300Y-77197331D01*
X141111660Y-77201780D01*
X141111659Y-77201786D01*
X141092531Y-77334827D01*
X141091500Y-77342000D01*
X141091500Y-79480059D01*
X141071498Y-79548180D01*
X141017842Y-79594673D01*
X140971522Y-79604749D01*
X140970000Y-79604508D01*
X140960207Y-79606059D01*
X140854487Y-79622803D01*
X140854485Y-79622804D01*
X140844696Y-79624354D01*
X140835861Y-79628856D01*
X140835860Y-79628856D01*
X140790809Y-79651810D01*
X140745467Y-79664984D01*
X140737277Y-79665758D01*
X140737275Y-79665758D01*
X140729631Y-79666481D01*
X140601816Y-79711366D01*
X140594246Y-79716958D01*
X140594243Y-79716959D01*
X140538779Y-79757926D01*
X140492850Y-79791850D01*
X140487258Y-79799421D01*
X140417959Y-79893243D01*
X140417958Y-79893246D01*
X140412366Y-79900816D01*
X140367481Y-80028631D01*
X140364500Y-80060166D01*
X140364500Y-80892834D01*
X136700376Y-80892834D01*
X136773068Y-80787658D01*
X136803312Y-80743899D01*
X136805744Y-80740502D01*
X137490460Y-79816848D01*
X137493004Y-79813533D01*
X138131291Y-79009658D01*
X138207970Y-78913086D01*
X138210618Y-78909863D01*
X138237274Y-78878487D01*
X138955030Y-78033634D01*
X138957779Y-78030505D01*
X139730861Y-77179408D01*
X139733721Y-77176362D01*
X140534562Y-76351400D01*
X140537521Y-76348451D01*
X141365290Y-75550479D01*
X141368346Y-75547629D01*
X142222122Y-74777535D01*
X142225270Y-74774789D01*
X142557002Y-74494950D01*
X143028343Y-74097340D01*
X143104096Y-74033437D01*
X143105006Y-74032695D01*
X180639723Y-74032695D01*
X180650567Y-74308701D01*
X180700193Y-74580427D01*
X180787610Y-74842449D01*
X180789603Y-74846437D01*
X180888087Y-75043534D01*
X180911074Y-75089539D01*
X181068122Y-75316769D01*
X181255620Y-75519603D01*
X181259074Y-75522415D01*
X181466371Y-75691181D01*
X181466375Y-75691184D01*
X181469828Y-75693995D01*
X181473650Y-75696296D01*
X181637001Y-75794641D01*
X181706470Y-75836465D01*
X181804987Y-75878182D01*
X181956722Y-75942434D01*
X181956727Y-75942436D01*
X181960825Y-75944171D01*
X181965122Y-75945310D01*
X181965127Y-75945312D01*
X182094322Y-75979567D01*
X182227819Y-76014963D01*
X182502124Y-76047429D01*
X182778267Y-76040922D01*
X182863827Y-76026681D01*
X183046348Y-75996301D01*
X183046352Y-75996300D01*
X183050738Y-75995570D01*
X183054979Y-75994229D01*
X183054982Y-75994228D01*
X183309855Y-75913622D01*
X183309857Y-75913621D01*
X183314101Y-75912279D01*
X183318112Y-75910353D01*
X183318117Y-75910351D01*
X183559082Y-75794641D01*
X183559083Y-75794640D01*
X183563101Y-75792711D01*
X183566807Y-75790235D01*
X183789061Y-75641730D01*
X183789065Y-75641727D01*
X183792769Y-75639252D01*
X183998523Y-75454963D01*
X184176258Y-75243521D01*
X184322428Y-75009146D01*
X184434115Y-74756514D01*
X184509093Y-74490665D01*
X184532945Y-74313081D01*
X184545436Y-74220086D01*
X184545437Y-74220079D01*
X184545863Y-74216904D01*
X184549722Y-74094118D01*
X184530213Y-73818588D01*
X184517151Y-73757914D01*
X184473013Y-73552903D01*
X184473013Y-73552901D01*
X184472077Y-73548556D01*
X184376473Y-73289409D01*
X184272845Y-73097352D01*
X184247421Y-73050234D01*
X184245308Y-73046318D01*
X184081200Y-72824134D01*
X184066895Y-72809602D01*
X183923796Y-72664238D01*
X183887423Y-72627289D01*
X183667844Y-72459712D01*
X183613688Y-72429383D01*
X183430730Y-72326921D01*
X183430727Y-72326920D01*
X183426844Y-72324745D01*
X183422699Y-72323141D01*
X183422696Y-72323140D01*
X183173374Y-72226685D01*
X183169231Y-72225082D01*
X183164906Y-72224079D01*
X183164901Y-72224078D01*
X182981659Y-72181605D01*
X182900145Y-72162711D01*
X182624955Y-72138877D01*
X182620520Y-72139121D01*
X182620516Y-72139121D01*
X182353596Y-72153811D01*
X182353589Y-72153812D01*
X182349153Y-72154056D01*
X182210653Y-72181605D01*
X182082604Y-72207075D01*
X182082602Y-72207076D01*
X182078241Y-72207943D01*
X181817624Y-72299465D01*
X181572503Y-72426796D01*
X181568888Y-72429379D01*
X181568882Y-72429383D01*
X181351390Y-72584805D01*
X181351386Y-72584808D01*
X181347769Y-72587393D01*
X181285657Y-72646645D01*
X181151613Y-72774517D01*
X181147905Y-72778054D01*
X181145149Y-72781549D01*
X181145148Y-72781551D01*
X180981869Y-72988670D01*
X180976899Y-72994974D01*
X180917433Y-73097352D01*
X180840401Y-73229971D01*
X180840398Y-73229977D01*
X180838163Y-73233825D01*
X180734466Y-73489841D01*
X180733395Y-73494154D01*
X180733393Y-73494159D01*
X180719881Y-73548556D01*
X180667876Y-73757914D01*
X180667422Y-73762342D01*
X180667422Y-73762344D01*
X180661203Y-73823040D01*
X180639723Y-74032695D01*
X143105006Y-74032695D01*
X143107334Y-74030796D01*
X144010270Y-73318980D01*
X144013594Y-73316448D01*
X144939619Y-72634969D01*
X144943024Y-72632549D01*
X145891160Y-71982131D01*
X145894644Y-71979825D01*
X145914411Y-71967208D01*
X146863830Y-71361196D01*
X146867289Y-71359068D01*
X147599304Y-70925293D01*
X151031258Y-70925293D01*
X151031482Y-70929959D01*
X151031482Y-70929965D01*
X151033019Y-70961954D01*
X151043385Y-71177752D01*
X151047146Y-71196661D01*
X151085989Y-71391935D01*
X151092694Y-71425645D01*
X151094273Y-71430043D01*
X151094275Y-71430050D01*
X151155982Y-71601918D01*
X151178102Y-71663527D01*
X151297734Y-71886172D01*
X151300529Y-71889916D01*
X151300531Y-71889918D01*
X151446168Y-72084950D01*
X151446173Y-72084956D01*
X151448960Y-72088688D01*
X151452269Y-72091968D01*
X151452274Y-72091974D01*
X151585536Y-72224078D01*
X151628459Y-72266628D01*
X151632221Y-72269386D01*
X151632224Y-72269389D01*
X151761554Y-72364217D01*
X151832288Y-72416081D01*
X151836423Y-72418257D01*
X151836427Y-72418259D01*
X151920352Y-72462414D01*
X152055968Y-72533765D01*
X152189651Y-72580449D01*
X152250184Y-72601588D01*
X152294586Y-72617094D01*
X152299179Y-72617966D01*
X152538311Y-72663367D01*
X152538314Y-72663367D01*
X152542900Y-72664238D01*
X152663023Y-72668958D01*
X152790787Y-72673978D01*
X152790792Y-72673978D01*
X152795455Y-72674161D01*
X152873599Y-72665603D01*
X153042049Y-72647155D01*
X153042054Y-72647154D01*
X153046702Y-72646645D01*
X153120222Y-72627289D01*
X153286600Y-72583486D01*
X153286603Y-72583485D01*
X153291123Y-72582295D01*
X153523347Y-72482523D01*
X153630716Y-72416081D01*
X153734300Y-72351982D01*
X153734304Y-72351979D01*
X153738273Y-72349523D01*
X153793502Y-72302768D01*
X153927614Y-72189234D01*
X153927615Y-72189233D01*
X153931180Y-72186215D01*
X154013828Y-72091974D01*
X154094748Y-71999703D01*
X154094752Y-71999698D01*
X154097830Y-71996188D01*
X154116471Y-71967208D01*
X154232036Y-71787542D01*
X154232038Y-71787539D01*
X154234561Y-71783616D01*
X154338370Y-71553168D01*
X154406976Y-71309908D01*
X154418364Y-71220394D01*
X154425168Y-71166911D01*
X154453608Y-71101859D01*
X154512702Y-71062509D01*
X154583689Y-71061355D01*
X154644031Y-71098762D01*
X154661151Y-71123171D01*
X154744561Y-71278404D01*
X154747356Y-71282148D01*
X154747358Y-71282150D01*
X154892995Y-71477182D01*
X154893000Y-71477188D01*
X154895787Y-71480920D01*
X154899096Y-71484200D01*
X154899101Y-71484206D01*
X155066923Y-71650570D01*
X155075286Y-71658860D01*
X155079048Y-71661618D01*
X155079051Y-71661621D01*
X155196996Y-71748101D01*
X155279115Y-71808313D01*
X155283250Y-71810489D01*
X155283254Y-71810491D01*
X155304445Y-71821640D01*
X155502795Y-71925997D01*
X155604383Y-71961473D01*
X155700599Y-71995073D01*
X155741413Y-72009326D01*
X155746006Y-72010198D01*
X155985138Y-72055599D01*
X155985141Y-72055599D01*
X155989727Y-72056470D01*
X156109850Y-72061190D01*
X156237614Y-72066210D01*
X156237619Y-72066210D01*
X156242282Y-72066393D01*
X156320426Y-72057835D01*
X156488876Y-72039387D01*
X156488881Y-72039386D01*
X156493529Y-72038877D01*
X156611630Y-72007784D01*
X156733427Y-71975718D01*
X156733430Y-71975717D01*
X156737950Y-71974527D01*
X156754985Y-71967208D01*
X165625978Y-71967208D01*
X165626356Y-71972974D01*
X165627315Y-71987605D01*
X165638767Y-72162327D01*
X165640408Y-72187372D01*
X165641829Y-72192968D01*
X165641830Y-72192973D01*
X165693298Y-72395624D01*
X165694719Y-72401219D01*
X165697136Y-72406462D01*
X165732731Y-72483674D01*
X165787090Y-72601588D01*
X165790423Y-72606304D01*
X165831367Y-72664238D01*
X165914429Y-72781769D01*
X166072472Y-72935727D01*
X166255924Y-73058306D01*
X166261227Y-73060584D01*
X166261230Y-73060586D01*
X166357703Y-73102034D01*
X166458642Y-73145401D01*
X166538294Y-73163424D01*
X166668201Y-73192820D01*
X166668207Y-73192821D01*
X166673838Y-73194095D01*
X166679609Y-73194322D01*
X166679611Y-73194322D01*
X166747417Y-73196986D01*
X166894304Y-73202757D01*
X167003481Y-73186927D01*
X167106943Y-73171926D01*
X167106948Y-73171925D01*
X167112657Y-73171097D01*
X167118121Y-73169242D01*
X167118126Y-73169241D01*
X167316112Y-73102034D01*
X167316117Y-73102032D01*
X167321584Y-73100176D01*
X167514089Y-72992368D01*
X167683723Y-72851285D01*
X167824806Y-72681651D01*
X167932614Y-72489146D01*
X167934470Y-72483679D01*
X167934472Y-72483674D01*
X168001679Y-72285688D01*
X168001680Y-72285683D01*
X168003535Y-72280219D01*
X168004363Y-72274510D01*
X168004364Y-72274505D01*
X168025911Y-72125893D01*
X168035195Y-72061866D01*
X168036847Y-71998768D01*
X168016658Y-71779057D01*
X167956769Y-71566705D01*
X167859184Y-71368822D01*
X167851874Y-71359032D01*
X167730625Y-71196661D01*
X167730624Y-71196660D01*
X167727172Y-71192037D01*
X167602756Y-71077028D01*
X167569395Y-71046189D01*
X167569393Y-71046187D01*
X167565154Y-71042269D01*
X167418391Y-70949668D01*
X167383436Y-70927613D01*
X167383435Y-70927613D01*
X167378556Y-70924534D01*
X167173627Y-70842776D01*
X167167967Y-70841650D01*
X167167963Y-70841649D01*
X166962897Y-70800859D01*
X166962894Y-70800859D01*
X166957230Y-70799732D01*
X166951455Y-70799656D01*
X166951451Y-70799656D01*
X166840710Y-70798207D01*
X166736612Y-70796844D01*
X166730915Y-70797823D01*
X166730914Y-70797823D01*
X166524860Y-70833229D01*
X166524859Y-70833229D01*
X166519163Y-70834208D01*
X166312164Y-70910574D01*
X166307203Y-70913526D01*
X166307202Y-70913526D01*
X166127516Y-71020428D01*
X166127513Y-71020430D01*
X166122548Y-71023384D01*
X166118208Y-71027190D01*
X166118204Y-71027193D01*
X165995317Y-71134963D01*
X165956665Y-71168860D01*
X165953090Y-71173395D01*
X165953089Y-71173396D01*
X165872707Y-71275360D01*
X165820070Y-71342129D01*
X165817382Y-71347238D01*
X165720028Y-71532277D01*
X165720026Y-71532282D01*
X165717339Y-71537389D01*
X165697302Y-71601918D01*
X165654819Y-71738737D01*
X165651911Y-71748101D01*
X165625978Y-71967208D01*
X156754985Y-71967208D01*
X156891617Y-71908506D01*
X156965880Y-71876600D01*
X156965882Y-71876599D01*
X156970174Y-71874755D01*
X157077543Y-71808313D01*
X157181127Y-71744214D01*
X157181131Y-71744211D01*
X157185100Y-71741755D01*
X157282715Y-71659118D01*
X157374441Y-71581466D01*
X157374442Y-71581465D01*
X157378007Y-71578447D01*
X157418497Y-71532277D01*
X157541575Y-71391935D01*
X157541579Y-71391930D01*
X157544657Y-71388420D01*
X157552846Y-71375689D01*
X157678863Y-71179774D01*
X157678865Y-71179771D01*
X157681388Y-71175848D01*
X157785197Y-70945400D01*
X157837184Y-70761067D01*
X157874925Y-70700933D01*
X157939186Y-70670750D01*
X158009565Y-70680100D01*
X158063715Y-70726016D01*
X158082539Y-70773388D01*
X158113622Y-70949668D01*
X158218832Y-71546343D01*
X158240444Y-71601918D01*
X158295602Y-71659536D01*
X158368611Y-71691661D01*
X158381017Y-71691932D01*
X158381018Y-71691932D01*
X158422037Y-71692827D01*
X158428225Y-71692962D01*
X161421544Y-71165159D01*
X161477119Y-71143547D01*
X161534737Y-71088389D01*
X161553306Y-71046189D01*
X161561864Y-71026739D01*
X161561864Y-71026738D01*
X161566862Y-71015380D01*
X161568163Y-70955766D01*
X161040360Y-67962447D01*
X161018748Y-67906872D01*
X160963590Y-67849254D01*
X160890581Y-67817129D01*
X160878175Y-67816858D01*
X160878174Y-67816858D01*
X160837155Y-67815963D01*
X160830967Y-67815828D01*
X157837648Y-68343631D01*
X157782073Y-68365243D01*
X157724455Y-68420401D01*
X157692330Y-68493410D01*
X157691029Y-68553024D01*
X157728386Y-68764887D01*
X157825953Y-69318219D01*
X157818084Y-69388779D01*
X157773316Y-69443882D01*
X157705865Y-69466036D01*
X157637144Y-69448205D01*
X157597877Y-69410999D01*
X157596500Y-69408590D01*
X157440024Y-69210102D01*
X157255929Y-69036922D01*
X157048258Y-68892855D01*
X157044065Y-68890787D01*
X156825762Y-68783132D01*
X156825759Y-68783131D01*
X156821574Y-68781067D01*
X156777148Y-68766846D01*
X156725172Y-68750209D01*
X156580856Y-68704013D01*
X156576249Y-68703263D01*
X156576246Y-68703262D01*
X156336004Y-68664136D01*
X156336005Y-68664136D01*
X156331393Y-68663385D01*
X156208795Y-68661780D01*
X156083342Y-68660138D01*
X156083339Y-68660138D01*
X156078665Y-68660077D01*
X155828224Y-68694160D01*
X155823734Y-68695469D01*
X155823728Y-68695470D01*
X155720620Y-68725524D01*
X155585572Y-68764887D01*
X155581325Y-68766845D01*
X155581322Y-68766846D01*
X155545995Y-68783132D01*
X155356039Y-68870703D01*
X155352130Y-68873266D01*
X155148581Y-69006718D01*
X155148576Y-69006722D01*
X155144668Y-69009284D01*
X154956102Y-69177585D01*
X154794484Y-69371910D01*
X154663364Y-69587989D01*
X154661555Y-69592303D01*
X154661554Y-69592305D01*
X154568309Y-69814670D01*
X154565623Y-69821075D01*
X154503408Y-70066047D01*
X154502939Y-70070703D01*
X154502939Y-70070704D01*
X154494112Y-70158360D01*
X154467385Y-70224133D01*
X154409341Y-70265016D01*
X154338408Y-70268028D01*
X154277108Y-70232213D01*
X154259353Y-70208258D01*
X154252208Y-70195757D01*
X154149673Y-70016358D01*
X154071435Y-69917114D01*
X153996089Y-69821538D01*
X153996086Y-69821535D01*
X153993197Y-69817870D01*
X153809102Y-69644690D01*
X153601431Y-69500623D01*
X153597238Y-69498555D01*
X153378935Y-69390900D01*
X153378932Y-69390899D01*
X153374747Y-69388835D01*
X153330321Y-69374614D01*
X153154141Y-69318219D01*
X153134029Y-69311781D01*
X153129422Y-69311031D01*
X153129419Y-69311030D01*
X152889177Y-69271904D01*
X152889178Y-69271904D01*
X152884566Y-69271153D01*
X152761968Y-69269548D01*
X152636515Y-69267906D01*
X152636512Y-69267906D01*
X152631838Y-69267845D01*
X152381397Y-69301928D01*
X152376907Y-69303237D01*
X152376901Y-69303238D01*
X152325505Y-69318219D01*
X152138745Y-69372655D01*
X152134498Y-69374613D01*
X152134495Y-69374614D01*
X152099168Y-69390900D01*
X151909212Y-69478471D01*
X151905303Y-69481034D01*
X151701754Y-69614486D01*
X151701749Y-69614490D01*
X151697841Y-69617052D01*
X151509275Y-69785353D01*
X151347657Y-69979678D01*
X151216537Y-70195757D01*
X151214728Y-70200071D01*
X151214727Y-70200073D01*
X151146757Y-70362164D01*
X151118796Y-70428843D01*
X151056581Y-70673815D01*
X151031258Y-70925293D01*
X147599304Y-70925293D01*
X147856514Y-70772876D01*
X147860094Y-70770834D01*
X147956622Y-70717877D01*
X148868176Y-70217781D01*
X148871844Y-70215847D01*
X149897686Y-69696533D01*
X149901389Y-69694736D01*
X150943867Y-69209728D01*
X150947676Y-69208031D01*
X150950330Y-69206902D01*
X151235085Y-69085737D01*
X152005658Y-68757855D01*
X152009529Y-68756284D01*
X153081864Y-68341428D01*
X153085785Y-68339985D01*
X153296211Y-68266501D01*
X154171265Y-67960919D01*
X154175194Y-67959619D01*
X155272676Y-67616740D01*
X155276639Y-67615574D01*
X156233944Y-67350989D01*
X156384890Y-67309270D01*
X156388935Y-67308224D01*
X157082129Y-67141163D01*
X157506719Y-67038836D01*
X157510780Y-67037929D01*
X158636845Y-66805757D01*
X158640950Y-66804981D01*
X159774116Y-66610267D01*
X159778245Y-66609628D01*
X160917227Y-66452595D01*
X160921375Y-66452093D01*
X161779464Y-66362661D01*
X162064959Y-66332906D01*
X162069102Y-66332544D01*
X162467108Y-66304363D01*
X163215998Y-66251339D01*
X163220170Y-66251113D01*
X164369111Y-66207979D01*
X164373288Y-66207891D01*
X164702135Y-66206456D01*
X165523062Y-66202874D01*
X165527226Y-66202925D01*
G37*
%TD.AperFunction*%
%TD*%
%TA.AperFunction,Conductor*%
%TO.N,/SL_A*%
G36*
X143833121Y-77236002D02*
G01*
X143879614Y-77289658D01*
X143891000Y-77342000D01*
X143891000Y-80773000D01*
X143870998Y-80841121D01*
X143817342Y-80887614D01*
X143765000Y-80899000D01*
X143094182Y-80899000D01*
X143035226Y-80884356D01*
X143003769Y-80867700D01*
X142986192Y-80863285D01*
X142844822Y-80827775D01*
X142844818Y-80827775D01*
X142837451Y-80825924D01*
X142829852Y-80825884D01*
X142829850Y-80825884D01*
X142758394Y-80825510D01*
X142665969Y-80825026D01*
X142658589Y-80826798D01*
X142658587Y-80826798D01*
X142598928Y-80841121D01*
X142499223Y-80865058D01*
X142460651Y-80884967D01*
X142402863Y-80899000D01*
X141731000Y-80899000D01*
X141662879Y-80878998D01*
X141616386Y-80825342D01*
X141605000Y-80773000D01*
X141605000Y-77342000D01*
X141625002Y-77273879D01*
X141678658Y-77227386D01*
X141731000Y-77216000D01*
X143765000Y-77216000D01*
X143833121Y-77236002D01*
G37*
%TD.AperFunction*%
%TD*%
M02*
