M48
; DRILL file {KiCad (6.0.7)} date Tue Aug 30 09:52:12 2022
; FORMAT={-:-/ absolute / inch / decimal}
; #@! TF.CreationDate,2022-08-30T09:52:12+08:00
; #@! TF.GenerationSoftware,Kicad,Pcbnew,(6.0.7)
; #@! TF.FileFunction,Plated,1,4,PTH
FMAT,2
INCH
; #@! TA.AperFunction,Plated,PTH,ComponentDrill
T1C0.0079
; #@! TA.AperFunction,Plated,PTH,ViaDrill
T2C0.0157
; #@! TA.AperFunction,Plated,PTH,ComponentDrill
T3C0.0394
; #@! TA.AperFunction,Plated,PTH,ComponentDrill
T4C0.0748
%
G90
G05
T1
X7.158Y-3.7176
X7.1874Y-3.6757
X7.1999Y-3.747
X7.2167Y-3.6338
X7.2293Y-3.7051
X7.2586Y-3.6631
T2
X5.473Y-4.568
X5.56Y-4.3
X5.578Y-4.668
X5.59Y-3.055
X5.59Y-3.085
X5.59Y-3.115
X5.59Y-3.145
X5.59Y-3.175
X5.62Y-3.055
X5.62Y-3.085
X5.62Y-3.115
X5.62Y-3.145
X5.62Y-3.175
X5.625Y-3.245
X5.645Y-3.54
X5.65Y-3.055
X5.65Y-3.085
X5.65Y-3.115
X5.65Y-3.145
X5.65Y-3.175
X5.65Y-3.355
X5.659Y-3.824
X5.68Y-3.54
X5.695Y-4.663
X5.705Y-3.315
X5.7051Y-3.0453
X5.7051Y-3.0753
X5.7051Y-3.1053
X5.7051Y-3.1353
X5.7051Y-3.1653
X5.7051Y-3.1953
X5.7051Y-3.2253
X5.7051Y-3.2553
X5.7051Y-3.2853
X5.73Y-4.371
X5.735Y-3.315
X5.7351Y-3.0453
X5.7351Y-3.0753
X5.7351Y-3.1053
X5.7351Y-3.1353
X5.7351Y-3.1653
X5.7351Y-3.1953
X5.7351Y-3.2253
X5.7351Y-3.2553
X5.7351Y-3.2853
X5.745Y-3.54
X5.7649Y-3.3147
X5.765Y-3.045
X5.765Y-3.075
X5.765Y-3.105
X5.765Y-3.135
X5.765Y-3.165
X5.765Y-3.195
X5.765Y-3.225
X5.765Y-3.255
X5.765Y-3.285
X5.767Y-3.614
X5.775Y-3.775
X5.78Y-3.54
X5.7867Y-4.6183
X5.795Y-3.315
X5.7951Y-3.0453
X5.7951Y-3.0753
X5.7951Y-3.1053
X5.7951Y-3.1353
X5.7951Y-3.1653
X5.7951Y-3.1953
X5.7951Y-3.2253
X5.7951Y-3.2553
X5.7951Y-3.2853
X5.805Y-4.525
X5.825Y-3.045
X5.825Y-3.075
X5.825Y-3.105
X5.825Y-3.135
X5.825Y-3.165
X5.825Y-3.195
X5.829Y-4.146
X5.8328Y-4.7072
X5.845Y-3.54
X5.854Y-3.773
X5.855Y-3.045
X5.855Y-3.075
X5.862Y-3.616
X5.88Y-4.525
X5.907Y-4.413
X5.91Y-3.045
X5.91Y-3.075
X5.91Y-3.105
X5.91Y-3.135
X5.91Y-3.165
X5.91Y-4.785
X5.929Y-3.623
X5.93Y-3.54
X5.94Y-3.045
X5.94Y-3.075
X5.94Y-3.105
X5.94Y-3.135
X5.94Y-3.165
X5.945Y-3.285
X5.945Y-4.525
X5.97Y-3.045
X5.97Y-3.075
X5.97Y-3.105
X5.97Y-3.135
X5.97Y-3.165
X5.976Y-4.241
X5.985Y-4.835
X5.99Y-4.71
X6.01Y-3.781
X6.02Y-3.54
X6.0204Y-4.525
X6.025Y-3.045
X6.025Y-3.075
X6.025Y-3.105
X6.025Y-3.225
X6.025Y-3.255
X6.025Y-3.285
X6.025Y-3.315
X6.033Y-3.621
X6.04Y-4.835
X6.055Y-3.045
X6.055Y-3.075
X6.055Y-3.105
X6.055Y-3.135
X6.055Y-3.165
X6.055Y-3.195
X6.055Y-3.225
X6.055Y-3.255
X6.055Y-3.285
X6.055Y-3.315
X6.055Y-3.54
X6.065Y-4.9168
X6.0682Y-4.7888
X6.07Y-4.44
X6.07Y-4.485
X6.085Y-3.045
X6.085Y-3.075
X6.085Y-3.105
X6.085Y-3.135
X6.085Y-3.165
X6.085Y-3.195
X6.085Y-3.225
X6.085Y-3.255
X6.085Y-3.285
X6.085Y-3.315
X6.11Y-3.54
X6.11Y-4.435
X6.115Y-3.045
X6.115Y-3.075
X6.115Y-3.105
X6.115Y-3.135
X6.115Y-3.165
X6.115Y-3.195
X6.115Y-3.225
X6.115Y-3.255
X6.115Y-3.285
X6.115Y-3.315
X6.145Y-3.045
X6.145Y-3.075
X6.145Y-3.105
X6.145Y-3.135
X6.145Y-3.165
X6.145Y-3.195
X6.145Y-3.54
X6.151Y-3.612
X6.175Y-3.045
X6.175Y-3.075
X6.175Y-3.105
X6.175Y-3.135
X6.175Y-3.165
X6.175Y-3.195
X6.175Y-3.66
X6.2Y-3.54
X6.2Y-3.597
X6.21Y-4.815
X6.216Y-3.021
X6.217Y-2.991
X6.218Y-3.055
X6.218Y-3.085
X6.218Y-3.115
X6.218Y-3.145
X6.22Y-3.28
X6.2202Y-4.7452
X6.2264Y-3.695
X6.231Y-2.959
X6.235Y-2.923
X6.235Y-4.91
X6.24Y-4.377
X6.245Y-3.02
X6.246Y-2.99
X6.247Y-3.054
X6.247Y-3.084
X6.247Y-3.114
X6.247Y-3.144
X6.255Y-4.435
X6.274Y-4.181
X6.275Y-3.019
X6.276Y-2.989
X6.277Y-3.053
X6.277Y-3.083
X6.277Y-3.113
X6.277Y-3.143
X6.278Y-3.764
X6.28Y-4.895
X6.295Y-3.54
X6.316Y-3.621
X6.32Y-4.675
X6.3227Y-4.6427
X6.325Y-4.805
X6.325Y-4.9
X6.33Y-3.54
X6.34Y-3.045
X6.34Y-3.075
X6.34Y-3.105
X6.34Y-3.135
X6.34Y-3.165
X6.34Y-3.195
X6.34Y-3.225
X6.34Y-3.255
X6.34Y-3.285
X6.34Y-3.315
X6.34Y-4.735
X6.359Y-4.375
X6.37Y-3.045
X6.37Y-3.075
X6.37Y-3.105
X6.37Y-3.135
X6.37Y-3.165
X6.37Y-3.195
X6.37Y-3.225
X6.37Y-3.255
X6.37Y-3.285
X6.37Y-3.315
X6.385Y-4.48
X6.39Y-3.54
X6.393Y-3.608
X6.395Y-4.865
X6.4Y-3.045
X6.4Y-3.075
X6.4Y-3.105
X6.4Y-3.135
X6.4Y-3.165
X6.4Y-3.195
X6.4Y-3.225
X6.4Y-3.255
X6.4Y-3.285
X6.4Y-3.315
X6.42Y-4.615
X6.425Y-3.54
X6.43Y-3.045
X6.43Y-3.075
X6.43Y-3.105
X6.43Y-3.135
X6.43Y-3.165
X6.43Y-3.195
X6.43Y-3.225
X6.43Y-3.255
X6.43Y-3.285
X6.43Y-3.315
X6.451Y-3.781
X6.46Y-3.045
X6.46Y-3.075
X6.46Y-3.105
X6.46Y-3.135
X6.46Y-3.165
X6.46Y-3.195
X6.465Y-4.362
X6.47Y-4.595
X6.48Y-4.13
X6.49Y-3.045
X6.49Y-3.075
X6.49Y-3.105
X6.49Y-3.135
X6.49Y-3.165
X6.49Y-3.195
X6.4952Y-3.549
X6.515Y-4.48
X6.515Y-4.655
X6.515Y-4.795
X6.52Y-4.9
X6.585Y-3.77
X6.633Y-3.044
X6.644Y-2.728
X6.666Y-4.994
X6.725Y-3.74
X6.8Y-3.7
X6.835Y-5.003
X6.907Y-4.822
X6.963Y-3.461
X6.975Y-3.513
X7.016Y-4.766
X7.033Y-4.283
X7.239Y-4.791
X7.346Y-4.553
X7.37Y-4.733
X7.508Y-3.173
X7.535Y-3.56
X7.5544Y-3.8044
X7.565Y-3.74
X7.615Y-4.361
X7.649Y-3.99
T3
X5.34Y-3.71
X5.34Y-3.81
X5.34Y-3.91
X5.34Y-4.01
X5.34Y-4.11
X5.34Y-4.21
X5.34Y-4.31
X5.6136Y-4.8803
X5.6924Y-4.9419
X5.7712Y-5.0034
X5.85Y-5.065
X5.8627Y-2.6207
X6.12Y-5.19
X6.22Y-5.19
X6.32Y-5.19
X6.3668Y-2.5319
X6.42Y-5.19
X6.5846Y-5.1878
X6.6846Y-5.1878
X6.7846Y-5.1878
X6.8846Y-5.1878
X7.3178Y-2.5268
X7.6726Y-2.7752
T4
X6.0132Y-2.7941
X6.1489Y-2.7702
X6.2846Y-2.7462
X7.1887Y-2.9171
X7.35Y-3.03
T0
M30
