%TF.GenerationSoftware,KiCad,Pcbnew,(6.0.7)*%
%TF.CreationDate,2022-08-30T09:52:08+08:00*%
%TF.ProjectId,rm_foc_driver,726d5f66-6f63-45f6-9472-697665722e6b,rev?*%
%TF.SameCoordinates,Original*%
%TF.FileFunction,Copper,L4,Bot*%
%TF.FilePolarity,Positive*%
%FSLAX46Y46*%
G04 Gerber Fmt 4.6, Leading zero omitted, Abs format (unit mm)*
G04 Created by KiCad (PCBNEW (6.0.7)) date 2022-08-30 09:52:08*
%MOMM*%
%LPD*%
G01*
G04 APERTURE LIST*
G04 Aperture macros list*
%AMRoundRect*
0 Rectangle with rounded corners*
0 $1 Rounding radius*
0 $2 $3 $4 $5 $6 $7 $8 $9 X,Y pos of 4 corners*
0 Add a 4 corners polygon primitive as box body*
4,1,4,$2,$3,$4,$5,$6,$7,$8,$9,$2,$3,0*
0 Add four circle primitives for the rounded corners*
1,1,$1+$1,$2,$3*
1,1,$1+$1,$4,$5*
1,1,$1+$1,$6,$7*
1,1,$1+$1,$8,$9*
0 Add four rect primitives between the rounded corners*
20,1,$1+$1,$2,$3,$4,$5,0*
20,1,$1+$1,$4,$5,$6,$7,0*
20,1,$1+$1,$6,$7,$8,$9,0*
20,1,$1+$1,$8,$9,$2,$3,0*%
%AMHorizOval*
0 Thick line with rounded ends*
0 $1 width*
0 $2 $3 position (X,Y) of the first rounded end (center of the circle)*
0 $4 $5 position (X,Y) of the second rounded end (center of the circle)*
0 Add line between two ends*
20,1,$1,$2,$3,$4,$5,0*
0 Add two circle primitives to create the rounded ends*
1,1,$1,$2,$3*
1,1,$1,$4,$5*%
%AMRotRect*
0 Rectangle, with rotation*
0 The origin of the aperture is its center*
0 $1 length*
0 $2 width*
0 $3 Rotation angle, in degrees counterclockwise*
0 Add horizontal line*
21,1,$1,$2,0,0,$3*%
G04 Aperture macros list end*
%TA.AperFunction,ComponentPad*%
%ADD10RotRect,1.700000X1.700000X232.000000*%
%TD*%
%TA.AperFunction,ComponentPad*%
%ADD11HorizOval,1.700000X0.000000X0.000000X0.000000X0.000000X0*%
%TD*%
%TA.AperFunction,ComponentPad*%
%ADD12R,1.700000X1.700000*%
%TD*%
%TA.AperFunction,ComponentPad*%
%ADD13O,1.700000X1.700000*%
%TD*%
%TA.AperFunction,ComponentPad*%
%ADD14C,1.400000*%
%TD*%
%TA.AperFunction,ComponentPad*%
%ADD15RotRect,3.500000X3.500000X325.000000*%
%TD*%
%TA.AperFunction,ComponentPad*%
%ADD16C,3.500000*%
%TD*%
%TA.AperFunction,ComponentPad*%
%ADD17RotRect,3.000000X3.000000X10.000000*%
%TD*%
%TA.AperFunction,ComponentPad*%
%ADD18C,3.000000*%
%TD*%
%TA.AperFunction,ComponentPad*%
%ADD19C,0.500000*%
%TD*%
%TA.AperFunction,SMDPad,CuDef*%
%ADD20RotRect,1.800000X3.100000X325.000000*%
%TD*%
%TA.AperFunction,SMDPad,CuDef*%
%ADD21RoundRect,0.250000X-0.475000X0.250000X-0.475000X-0.250000X0.475000X-0.250000X0.475000X0.250000X0*%
%TD*%
%TA.AperFunction,SMDPad,CuDef*%
%ADD22RoundRect,0.225000X0.225000X0.250000X-0.225000X0.250000X-0.225000X-0.250000X0.225000X-0.250000X0*%
%TD*%
%TA.AperFunction,SMDPad,CuDef*%
%ADD23RoundRect,0.150000X-0.675000X-0.150000X0.675000X-0.150000X0.675000X0.150000X-0.675000X0.150000X0*%
%TD*%
%TA.AperFunction,SMDPad,CuDef*%
%ADD24RoundRect,0.250000X-1.425000X0.362500X-1.425000X-0.362500X1.425000X-0.362500X1.425000X0.362500X0*%
%TD*%
%TA.AperFunction,ViaPad*%
%ADD25C,0.800000*%
%TD*%
%TA.AperFunction,ViaPad*%
%ADD26C,0.600000*%
%TD*%
%TA.AperFunction,Conductor*%
%ADD27C,0.381000*%
%TD*%
%TA.AperFunction,Conductor*%
%ADD28C,0.254000*%
%TD*%
%TA.AperFunction,Conductor*%
%ADD29C,0.177800*%
%TD*%
G04 APERTURE END LIST*
D10*
%TO.P,J4,1,Pin_1*%
%TO.N,/MOSI*%
X148590000Y-128651000D03*
D11*
%TO.P,J4,2,Pin_2*%
%TO.N,/MISO*%
X146588453Y-127087220D03*
%TO.P,J4,3,Pin_3*%
%TO.N,/SCLK*%
X144586905Y-125523440D03*
%TO.P,J4,4,Pin_4*%
%TO.N,/CS2*%
X142585358Y-123959660D03*
%TD*%
D12*
%TO.P,J1,1,Pin_1*%
%TO.N,+3.3V*%
X174869000Y-131769000D03*
D13*
%TO.P,J1,2,Pin_2*%
%TO.N,/SWDIO*%
X172329000Y-131769000D03*
%TO.P,J1,3,Pin_3*%
%TO.N,/SWCLK*%
X169789000Y-131769000D03*
%TO.P,J1,4,Pin_4*%
%TO.N,GND*%
X167249000Y-131769000D03*
%TD*%
D12*
%TO.P,J5,1,Pin_1*%
%TO.N,/PWM1*%
X135636000Y-109474000D03*
D13*
%TO.P,J5,2,Pin_2*%
%TO.N,/PWM2*%
X135636000Y-106934000D03*
%TO.P,J5,3,Pin_3*%
%TO.N,/PWM3*%
X135636000Y-104394000D03*
%TO.P,J5,4,Pin_4*%
%TO.N,/PWM4*%
X135636000Y-101854000D03*
%TO.P,J5,5,Pin_5*%
%TO.N,/PWM5*%
X135636000Y-99314000D03*
%TO.P,J5,6,Pin_6*%
%TO.N,/PWM6*%
X135636000Y-96774000D03*
%TO.P,J5,7,Pin_7*%
%TO.N,GND*%
X135636000Y-94234000D03*
%TD*%
D14*
%TO.P,J6,*%
%TO.N,*%
X194883220Y-70491209D03*
X185872548Y-64181868D03*
D15*
%TO.P,J6,1,Pin_1*%
%TO.N,GND*%
X186690000Y-76962000D03*
D16*
%TO.P,J6,2,Pin_2*%
%TO.N,+12V*%
X182594240Y-74094118D03*
%TD*%
D14*
%TO.P,J8,*%
%TO.N,*%
X161715778Y-64309412D03*
X148913278Y-66566838D03*
D17*
%TO.P,J8,1,Pin_1*%
%TO.N,/SH_C*%
X159629596Y-69754395D03*
D18*
%TO.P,J8,2,Pin_2*%
%TO.N,/SH_B*%
X156182769Y-70362164D03*
%TO.P,J8,3,Pin_3*%
%TO.N,/SH_A*%
X152735942Y-70969932D03*
%TD*%
D19*
%TO.P,U1,9,GND*%
%TO.N,GND*%
X182878052Y-95173399D03*
X184369351Y-93043604D03*
X182558804Y-93362852D03*
X183304454Y-92297955D03*
X183623702Y-94108502D03*
D20*
X183091253Y-93735677D03*
D19*
X181813155Y-94427750D03*
%TD*%
D12*
%TO.P,J3,1,Pin_1*%
%TO.N,+5V*%
X163068000Y-131826000D03*
D13*
%TO.P,J3,2,Pin_2*%
%TO.N,/TXD*%
X160528000Y-131826000D03*
%TO.P,J3,3,Pin_3*%
%TO.N,/RXD*%
X157988000Y-131826000D03*
%TO.P,J3,4,Pin_4*%
%TO.N,GND*%
X155448000Y-131826000D03*
%TD*%
D21*
%TO.P,C33,1*%
%TO.N,+12V*%
X153370000Y-89857000D03*
%TO.P,C33,2*%
%TO.N,GND*%
X153370000Y-91757000D03*
%TD*%
D22*
%TO.P,C16,1*%
%TO.N,+5V*%
X163589000Y-104902000D03*
%TO.P,C16,2*%
%TO.N,GND*%
X162039000Y-104902000D03*
%TD*%
D21*
%TO.P,C24,1*%
%TO.N,+12V*%
X143891000Y-89855000D03*
%TO.P,C24,2*%
%TO.N,GND*%
X143891000Y-91755000D03*
%TD*%
%TO.P,C26,1*%
%TO.N,+12V*%
X148798000Y-89857000D03*
%TO.P,C26,2*%
%TO.N,GND*%
X148798000Y-91757000D03*
%TD*%
%TO.P,C29,1*%
%TO.N,+12V*%
X160355000Y-89857000D03*
%TO.P,C29,2*%
%TO.N,GND*%
X160355000Y-91757000D03*
%TD*%
D23*
%TO.P,U7,1,VDD*%
%TO.N,+5V*%
X162475000Y-102870000D03*
%TO.P,U7,2,MODE*%
%TO.N,/MODE*%
X162475000Y-101600000D03*
%TO.P,U7,3,OUT*%
%TO.N,/ADC1*%
X162475000Y-100330000D03*
%TO.P,U7,4,GND*%
%TO.N,GND*%
X162475000Y-99060000D03*
%TO.P,U7,5,PUSH*%
%TO.N,unconnected-(U7-Pad5)*%
X167725000Y-99060000D03*
%TO.P,U7,6,A*%
%TO.N,/MISO*%
X167725000Y-100330000D03*
%TO.P,U7,7,B*%
%TO.N,/SCLK*%
X167725000Y-101600000D03*
%TO.P,U7,8,Z*%
%TO.N,/CS1*%
X167725000Y-102870000D03*
%TD*%
D24*
%TO.P,R10,1*%
%TO.N,/SL_A*%
X142240000Y-80476500D03*
%TO.P,R10,2*%
%TO.N,GND*%
X142240000Y-86401500D03*
%TD*%
%TO.P,R11,1*%
%TO.N,/SL_B*%
X150876000Y-80095500D03*
%TO.P,R11,2*%
%TO.N,GND*%
X150876000Y-86020500D03*
%TD*%
D21*
%TO.P,C30,1*%
%TO.N,+12V*%
X157942000Y-89857000D03*
%TO.P,C30,2*%
%TO.N,GND*%
X157942000Y-91757000D03*
%TD*%
%TO.P,C32,1*%
%TO.N,+12V*%
X151084000Y-89857000D03*
%TO.P,C32,2*%
%TO.N,GND*%
X151084000Y-91757000D03*
%TD*%
%TO.P,C27,1*%
%TO.N,+12V*%
X162768000Y-89857000D03*
%TO.P,C27,2*%
%TO.N,GND*%
X162768000Y-91757000D03*
%TD*%
%TO.P,C25,1*%
%TO.N,+12V*%
X146385000Y-89857000D03*
%TO.P,C25,2*%
%TO.N,GND*%
X146385000Y-91757000D03*
%TD*%
%TO.P,C31,1*%
%TO.N,+12V*%
X155656000Y-89857000D03*
%TO.P,C31,2*%
%TO.N,GND*%
X155656000Y-91757000D03*
%TD*%
D25*
%TO.N,GND*%
X168478200Y-77317600D03*
X168757600Y-69291200D03*
X190703200Y-80594200D03*
X194284600Y-101346000D03*
X193421000Y-110769400D03*
X186588400Y-115646200D03*
X187198000Y-120218200D03*
X183870600Y-121691400D03*
X178206400Y-121056400D03*
X175437800Y-122478800D03*
X173609000Y-127076200D03*
X169316400Y-126847600D03*
X164211000Y-110794800D03*
X161518600Y-111125000D03*
X145542000Y-111023400D03*
X150037800Y-112090200D03*
X141224000Y-109220000D03*
X144653000Y-118440200D03*
X141681200Y-118567200D03*
X139014200Y-116027200D03*
X148056600Y-105308400D03*
D26*
X158369000Y-74244200D03*
X158267400Y-75158600D03*
X159410400Y-75920600D03*
X157911800Y-75971400D03*
X158648400Y-75946000D03*
X159385000Y-76682600D03*
X157886400Y-76733400D03*
X158623000Y-76708000D03*
X159435800Y-79832200D03*
X159435800Y-77546200D03*
X159435800Y-79070200D03*
X159435800Y-78308200D03*
X158673800Y-79857600D03*
X158673800Y-77571600D03*
X158673800Y-79095600D03*
X158673800Y-78333600D03*
X157937200Y-79883000D03*
X157937200Y-77597000D03*
X157937200Y-79121000D03*
X157937200Y-78359000D03*
D25*
X178638200Y-108788200D03*
D26*
%TO.N,+5V*%
X159359600Y-106196400D03*
X164592000Y-104902000D03*
X191881305Y-96631305D03*
X172720000Y-93980000D03*
%TO.N,GND*%
X161036000Y-120269000D03*
X157734000Y-122301000D03*
X148894800Y-91846400D03*
X152019000Y-122809000D03*
X162179000Y-113792000D03*
X146481800Y-91795600D03*
X147447000Y-114935000D03*
X176860200Y-87909400D03*
X150596600Y-92024200D03*
X160596000Y-117924000D03*
X149352000Y-114935000D03*
X153238200Y-91973400D03*
X160655000Y-122047000D03*
X162382200Y-91643200D03*
X160426400Y-91973400D03*
X157480000Y-91363800D03*
X163855400Y-96037400D03*
X160528000Y-118745000D03*
X151790400Y-107721400D03*
X152146000Y-119634000D03*
X157992500Y-120527500D03*
X148152250Y-119563750D03*
X156235400Y-91744800D03*
X158496000Y-111175800D03*
X192151000Y-94996000D03*
X152919300Y-114935000D03*
X170815000Y-94996000D03*
X177165000Y-89230200D03*
X146981500Y-117305500D03*
X151003000Y-114935000D03*
%TO.N,+12V*%
X155194000Y-89916000D03*
X144272000Y-89916000D03*
X153797000Y-89916000D03*
X157480000Y-89916000D03*
X150622000Y-89916000D03*
X146812000Y-89916000D03*
X156083000Y-89916000D03*
X148463000Y-89916000D03*
X145923000Y-89916000D03*
X152908000Y-89916000D03*
X160782000Y-89916000D03*
X159893000Y-89916000D03*
X162306000Y-89916000D03*
X163195000Y-89916000D03*
X143383000Y-89916000D03*
%TO.N,Net-(C6-Pad1)*%
X165608000Y-124460000D03*
X160655000Y-124460000D03*
%TO.N,/SH_A*%
X145672404Y-83445807D03*
X145672404Y-77349807D03*
X144910404Y-82683807D03*
X145672404Y-78873807D03*
X146431000Y-81915000D03*
X147955000Y-77343000D03*
X146431000Y-81153000D03*
X147196404Y-81159807D03*
X146431000Y-78105000D03*
X147955000Y-79629000D03*
X147196404Y-77349807D03*
X145672404Y-81921807D03*
X144910404Y-77349807D03*
X144910404Y-78873807D03*
X147955000Y-80391000D03*
X147955000Y-78867000D03*
X146431000Y-82677000D03*
X147196404Y-78111807D03*
X147196404Y-79635807D03*
X145672404Y-78111807D03*
X147196404Y-83445807D03*
X146427596Y-84194193D03*
X147196404Y-78873807D03*
X147955000Y-81153000D03*
X146431000Y-79629000D03*
X148717000Y-77343000D03*
X152654000Y-96037400D03*
X145672404Y-81159807D03*
X145669000Y-84201000D03*
X144910404Y-81921807D03*
X144910404Y-79635807D03*
X146431000Y-83439000D03*
X147193000Y-84201000D03*
X147955000Y-78105000D03*
X144910404Y-78111807D03*
X145672404Y-82683807D03*
X144910404Y-81159807D03*
X147196404Y-81921807D03*
X146431000Y-80391000D03*
X148717000Y-78105000D03*
X146431000Y-77343000D03*
X146431000Y-78867000D03*
X144907000Y-84201000D03*
X145672404Y-80397807D03*
X147196404Y-82683807D03*
X145672404Y-79635807D03*
X144910404Y-83445807D03*
X144910404Y-80397807D03*
X147196404Y-80397807D03*
%TO.N,/SH_B*%
X155321000Y-78867000D03*
X153797000Y-84201000D03*
X155321000Y-79629000D03*
X156845000Y-78867000D03*
X155321000Y-81153000D03*
X155321000Y-82677000D03*
X156083000Y-78105000D03*
X153797000Y-79629000D03*
X154559000Y-78867000D03*
X156083000Y-78867000D03*
X155321000Y-78105000D03*
X156083000Y-77343000D03*
X155321000Y-81915000D03*
X153797000Y-80391000D03*
X155321000Y-77343000D03*
X154559000Y-83439000D03*
X153797000Y-78105000D03*
X156845000Y-78105000D03*
X156845000Y-77343000D03*
X155321000Y-83439000D03*
X153035000Y-82677000D03*
X155321000Y-80391000D03*
X154559000Y-77343000D03*
X148691600Y-95834200D03*
X153797000Y-81153000D03*
X156083000Y-79629000D03*
X153797000Y-81915000D03*
X153797000Y-82677000D03*
X154559000Y-81153000D03*
X154559000Y-80391000D03*
X153035000Y-78105000D03*
X156083000Y-80391000D03*
X156083000Y-81153000D03*
X153035000Y-83439000D03*
X153797000Y-83439000D03*
X154559000Y-81915000D03*
X154559000Y-78105000D03*
X155321000Y-84201000D03*
X153035000Y-84201000D03*
X153035000Y-81915000D03*
X156845000Y-80391000D03*
X154559000Y-82677000D03*
X153035000Y-77343000D03*
X153797000Y-78867000D03*
X153035000Y-78867000D03*
X154559000Y-79629000D03*
X156845000Y-81153000D03*
X156845000Y-79629000D03*
X153797000Y-77343000D03*
X154559000Y-84201000D03*
%TO.N,+3.3V*%
X191389000Y-90424000D03*
X155194000Y-112649000D03*
X164338000Y-116713000D03*
X165481000Y-118237000D03*
X158877000Y-112649000D03*
X165481000Y-113792000D03*
X163068000Y-117221000D03*
X165481000Y-121793000D03*
X162433000Y-123571000D03*
X150114000Y-121539000D03*
%TO.N,/SH_C*%
X162560000Y-78867000D03*
X162560000Y-78105000D03*
X163322000Y-82677000D03*
X163322000Y-84201000D03*
X143738600Y-97129600D03*
X163322000Y-77343000D03*
X161036000Y-77343000D03*
X164846000Y-81153000D03*
X162560000Y-81915000D03*
X163322000Y-78867000D03*
X161798000Y-81915000D03*
X161798000Y-79629000D03*
X161036000Y-78867000D03*
X161036000Y-81153000D03*
X164846000Y-80391000D03*
X164084000Y-77343000D03*
X164084000Y-79629000D03*
X161798000Y-81153000D03*
X161036000Y-80391000D03*
X163322000Y-81915000D03*
X164846000Y-79629000D03*
X163322000Y-78105000D03*
X162560000Y-77343000D03*
X161798000Y-83439000D03*
X164084000Y-78105000D03*
X164084000Y-81153000D03*
X164084000Y-80391000D03*
X161036000Y-79629000D03*
X161798000Y-77343000D03*
X163322000Y-81153000D03*
X163322000Y-79629000D03*
X162560000Y-81153000D03*
X162560000Y-83439000D03*
X164846000Y-78867000D03*
X161036000Y-81915000D03*
X161036000Y-83439000D03*
X161798000Y-82677000D03*
X164846000Y-77343000D03*
X161798000Y-78105000D03*
X161036000Y-82677000D03*
X163322000Y-80391000D03*
X162560000Y-79629000D03*
X161036000Y-78105000D03*
X161036000Y-84201000D03*
X164084000Y-78867000D03*
X163322000Y-83439000D03*
X162560000Y-84201000D03*
X161798000Y-80391000D03*
X161798000Y-84201000D03*
X162560000Y-80391000D03*
X162560000Y-82677000D03*
X164846000Y-78105000D03*
X161798000Y-78867000D03*
%TO.N,/GL_A*%
X159461200Y-95605600D03*
X142875000Y-82423000D03*
%TO.N,/SL_A*%
X143510000Y-77597000D03*
X142748000Y-80645000D03*
X142748000Y-77597000D03*
X143510000Y-78359000D03*
X143510000Y-79883000D03*
X164977200Y-90144600D03*
X141986000Y-78359000D03*
X141986000Y-80645000D03*
X141986000Y-79121000D03*
X141986000Y-79883000D03*
X142748000Y-79121000D03*
X141986000Y-77597000D03*
X142748000Y-79883000D03*
X142748000Y-78359000D03*
X143510000Y-79121000D03*
X143510000Y-80645000D03*
%TO.N,/GL_B*%
X151003000Y-83439000D03*
X158150062Y-93853000D03*
%TO.N,/SL_B*%
X150876000Y-78105000D03*
X150114000Y-78867000D03*
X151638000Y-78867000D03*
X151638000Y-79629000D03*
X151638000Y-80391000D03*
X150114000Y-78105000D03*
X167259000Y-95758000D03*
X151638000Y-78105000D03*
X150876000Y-79629000D03*
X150114000Y-80391000D03*
X150114000Y-79629000D03*
X150876000Y-78867000D03*
X150876000Y-80391000D03*
X150876000Y-77343000D03*
X150114000Y-77343000D03*
X151638000Y-77343000D03*
%TO.N,/GH_C*%
X146685000Y-95885000D03*
X143510000Y-85217000D03*
%TO.N,/GL_C*%
X156845000Y-92964000D03*
X157988000Y-83312000D03*
%TO.N,/CS1*%
X154051000Y-124887600D03*
%TO.N,/SO1*%
X154131400Y-121634892D03*
X154178000Y-113919000D03*
%TO.N,/SO2*%
X154178000Y-112776000D03*
X153416000Y-122809000D03*
%TO.N,/MODE*%
X159512000Y-124333000D03*
%TO.N,/ADC1*%
X158369000Y-124714000D03*
%TD*%
D27*
%TO.N,+5V*%
X159359600Y-104165400D02*
X160655000Y-102870000D01*
X160655000Y-102870000D02*
X162475000Y-102870000D01*
D28*
X164592000Y-104902000D02*
X163589000Y-104902000D01*
X163589000Y-104902000D02*
X163589000Y-103984000D01*
D27*
X159496968Y-106333768D02*
X159359600Y-106196400D01*
X159359600Y-106196400D02*
X159359600Y-104165400D01*
D28*
X163589000Y-103984000D02*
X162475000Y-102870000D01*
%TO.N,GND*%
X146383000Y-91755000D02*
X146385000Y-91757000D01*
X143891000Y-91755000D02*
X146383000Y-91755000D01*
D29*
%TO.N,Net-(C6-Pad1)*%
X165608000Y-124460000D02*
X160655000Y-124460000D01*
%TO.N,+3.3V*%
X165481000Y-121793000D02*
X164211000Y-121793000D01*
X163576000Y-116713000D02*
X163068000Y-117221000D01*
X164338000Y-116713000D02*
X163576000Y-116713000D01*
X164211000Y-121793000D02*
X162433000Y-123571000D01*
%TO.N,/MISO*%
X170434000Y-101854000D02*
X170434000Y-101981000D01*
X170430800Y-101984200D02*
X170430800Y-102619200D01*
X170430800Y-102619200D02*
X170430800Y-102746200D01*
X167725000Y-100330000D02*
X168910000Y-100330000D01*
X168910000Y-100330000D02*
X170434000Y-101854000D01*
X169037000Y-123444000D02*
X165393780Y-127087220D01*
X169037000Y-105589580D02*
X169037000Y-123444000D01*
X170434000Y-101981000D02*
X170430800Y-101984200D01*
X170430800Y-102619200D02*
X170430800Y-104195780D01*
X165393780Y-127087220D02*
X146588453Y-127087220D01*
X170430800Y-104195780D02*
X169037000Y-105589580D01*
%TO.N,/SCLK*%
X166216710Y-125730000D02*
X168659200Y-123287510D01*
X169418000Y-101600000D02*
X167725000Y-101600000D01*
X168659200Y-123287510D02*
X168659200Y-105433090D01*
X144793465Y-125730000D02*
X166216710Y-125730000D01*
X170053000Y-102235000D02*
X169418000Y-101600000D01*
X144586905Y-125523440D02*
X144793465Y-125730000D01*
X168659200Y-105433090D02*
X170053000Y-104039290D01*
X170053000Y-104039290D02*
X170053000Y-102235000D01*
%TO.N,/SL_A*%
X147934969Y-88061800D02*
X143510000Y-83636831D01*
X143510000Y-83636831D02*
X143510000Y-80645000D01*
X164977200Y-90144600D02*
X162894400Y-88061800D01*
X162894400Y-88061800D02*
X147934969Y-88061800D01*
%TO.N,/SL_B*%
X162610800Y-85140800D02*
X152704800Y-85140800D01*
X167259000Y-95758000D02*
X167208200Y-95707200D01*
X167208200Y-95707200D02*
X167208200Y-89738200D01*
X152095200Y-84531200D02*
X152095200Y-81314700D01*
X152095200Y-81314700D02*
X150876000Y-80095500D01*
X152704800Y-85140800D02*
X152095200Y-84531200D01*
X167208200Y-89738200D02*
X162610800Y-85140800D01*
%TO.N,/CS1*%
X169672000Y-103886000D02*
X169672000Y-103251000D01*
X169291000Y-102870000D02*
X167725000Y-102870000D01*
X154051000Y-124887600D02*
X154515600Y-125352200D01*
X166060220Y-125352200D02*
X168281400Y-123131020D01*
X169672000Y-103251000D02*
X169291000Y-102870000D01*
X168281400Y-123131020D02*
X168281400Y-105276600D01*
X168281400Y-105276600D02*
X169672000Y-103886000D01*
X154515600Y-125352200D02*
X166060220Y-125352200D01*
%TO.N,/SO1*%
X154178000Y-121588292D02*
X154131400Y-121634892D01*
X154178000Y-113919000D02*
X154178000Y-121588292D01*
%TO.N,/SO2*%
X153543000Y-113411000D02*
X154178000Y-112776000D01*
X153416000Y-122809000D02*
X153543000Y-122682000D01*
X153543000Y-122682000D02*
X153543000Y-113411000D01*
%TO.N,/MODE*%
X159512000Y-123571000D02*
X159512000Y-124333000D01*
X159512000Y-107181631D02*
X159512000Y-123571000D01*
X158770700Y-102849300D02*
X158770700Y-106440331D01*
X162475000Y-101600000D02*
X160020000Y-101600000D01*
X160020000Y-101600000D02*
X158770700Y-102849300D01*
X158770700Y-106440331D02*
X159512000Y-107181631D01*
%TO.N,/ADC1*%
X160020000Y-100330000D02*
X156895800Y-103454200D01*
X156895800Y-103454200D02*
X156895800Y-124256800D01*
X157353000Y-124714000D02*
X158369000Y-124714000D01*
X156895800Y-124256800D02*
X157353000Y-124714000D01*
X162475000Y-100330000D02*
X160020000Y-100330000D01*
%TD*%
%TA.AperFunction,Conductor*%
%TO.N,GND*%
G36*
X165523463Y-66510902D02*
G01*
X166662577Y-66543716D01*
X166666724Y-66543904D01*
X167804093Y-66614465D01*
X167808258Y-66614793D01*
X168942630Y-66723022D01*
X168946782Y-66723487D01*
X170076983Y-66869271D01*
X170081118Y-66869874D01*
X171205860Y-67053050D01*
X171209972Y-67053790D01*
X171483121Y-67107627D01*
X172328035Y-67274158D01*
X172332083Y-67275026D01*
X172899225Y-67406483D01*
X173442220Y-67532343D01*
X173446274Y-67533354D01*
X173761138Y-67617427D01*
X174547279Y-67827338D01*
X174551255Y-67828471D01*
X175200953Y-68025245D01*
X175641885Y-68158790D01*
X175645863Y-68160067D01*
X176322699Y-68389822D01*
X176694829Y-68516143D01*
X176724927Y-68526360D01*
X176728854Y-68527766D01*
X177795226Y-68929650D01*
X177799076Y-68931174D01*
X178851557Y-69368202D01*
X178855336Y-69369846D01*
X179892716Y-69841515D01*
X179896462Y-69843293D01*
X180211397Y-69999286D01*
X180917665Y-70349113D01*
X180921377Y-70351030D01*
X181925165Y-70890384D01*
X181928807Y-70892419D01*
X182914228Y-71464798D01*
X182917738Y-71466914D01*
X183246039Y-71672458D01*
X183293163Y-71725561D01*
X183304097Y-71795710D01*
X183275369Y-71860635D01*
X183216101Y-71899722D01*
X183154594Y-71902833D01*
X182893705Y-71850938D01*
X182893699Y-71850937D01*
X182889666Y-71850135D01*
X182885561Y-71849866D01*
X182885554Y-71849865D01*
X182598359Y-71831042D01*
X182594240Y-71830772D01*
X182590121Y-71831042D01*
X182302926Y-71849865D01*
X182302919Y-71849866D01*
X182298814Y-71850135D01*
X182294781Y-71850937D01*
X182294775Y-71850938D01*
X182012493Y-71907088D01*
X182012487Y-71907090D01*
X182008443Y-71907894D01*
X182004534Y-71909221D01*
X182004530Y-71909222D01*
X181740736Y-71998768D01*
X181728095Y-72003059D01*
X181602553Y-72064970D01*
X181466271Y-72132176D01*
X181466266Y-72132179D01*
X181462567Y-72134003D01*
X181459134Y-72136297D01*
X181219833Y-72296192D01*
X181219828Y-72296196D01*
X181216402Y-72298485D01*
X181213308Y-72301199D01*
X181213302Y-72301203D01*
X181126957Y-72376926D01*
X180993813Y-72493691D01*
X180991104Y-72496780D01*
X180801325Y-72713180D01*
X180801321Y-72713186D01*
X180798607Y-72716280D01*
X180796318Y-72719706D01*
X180796314Y-72719711D01*
X180779974Y-72744166D01*
X180634125Y-72962445D01*
X180632301Y-72966144D01*
X180632298Y-72966149D01*
X180625320Y-72980299D01*
X180503181Y-73227973D01*
X180501856Y-73231878D01*
X180501855Y-73231879D01*
X180413115Y-73493301D01*
X180408016Y-73508321D01*
X180407212Y-73512365D01*
X180407210Y-73512371D01*
X180396944Y-73563985D01*
X180350257Y-73798692D01*
X180330894Y-74094118D01*
X180331164Y-74098237D01*
X180342561Y-74272120D01*
X180350257Y-74389544D01*
X180408016Y-74679915D01*
X180503181Y-74960263D01*
X180634125Y-75225791D01*
X180798607Y-75471956D01*
X180801321Y-75475050D01*
X180801325Y-75475056D01*
X180991104Y-75691456D01*
X180993813Y-75694545D01*
X180996902Y-75697254D01*
X181213302Y-75887033D01*
X181213308Y-75887037D01*
X181216402Y-75889751D01*
X181219828Y-75892040D01*
X181219833Y-75892044D01*
X181403645Y-76014862D01*
X181462567Y-76054233D01*
X181466266Y-76056057D01*
X181466271Y-76056060D01*
X181602553Y-76123266D01*
X181728095Y-76185177D01*
X181732000Y-76186502D01*
X181732001Y-76186503D01*
X182004530Y-76279014D01*
X182004534Y-76279015D01*
X182008443Y-76280342D01*
X182012487Y-76281146D01*
X182012493Y-76281148D01*
X182294775Y-76337298D01*
X182294781Y-76337299D01*
X182298814Y-76338101D01*
X182302919Y-76338370D01*
X182302926Y-76338371D01*
X182590121Y-76357194D01*
X182594240Y-76357464D01*
X182598359Y-76357194D01*
X182885554Y-76338371D01*
X182885561Y-76338370D01*
X182889666Y-76338101D01*
X182893699Y-76337299D01*
X182893705Y-76337298D01*
X183175987Y-76281148D01*
X183175993Y-76281146D01*
X183180037Y-76280342D01*
X183183946Y-76279015D01*
X183183950Y-76279014D01*
X183456479Y-76186503D01*
X183456480Y-76186502D01*
X183460385Y-76185177D01*
X183585927Y-76123266D01*
X183722209Y-76056060D01*
X183722214Y-76056057D01*
X183725913Y-76054233D01*
X183784835Y-76014862D01*
X183968647Y-75892044D01*
X183968652Y-75892040D01*
X183972078Y-75889751D01*
X183975172Y-75887037D01*
X183975178Y-75887033D01*
X184191578Y-75697254D01*
X184194667Y-75694545D01*
X184197376Y-75691456D01*
X184387155Y-75475056D01*
X184387159Y-75475050D01*
X184389873Y-75471956D01*
X184554355Y-75225791D01*
X184685299Y-74960263D01*
X184780464Y-74679915D01*
X184838223Y-74389544D01*
X184845920Y-74272120D01*
X184857316Y-74098237D01*
X184857586Y-74094118D01*
X184838223Y-73798692D01*
X184791537Y-73563985D01*
X184781270Y-73512371D01*
X184781268Y-73512365D01*
X184780464Y-73508321D01*
X184775366Y-73493301D01*
X184686625Y-73231879D01*
X184686624Y-73231878D01*
X184685299Y-73227973D01*
X184563160Y-72980299D01*
X184556182Y-72966149D01*
X184556179Y-72966144D01*
X184554355Y-72962445D01*
X184408506Y-72744166D01*
X184392166Y-72719711D01*
X184392162Y-72719706D01*
X184389873Y-72716280D01*
X184387151Y-72713176D01*
X184387147Y-72713171D01*
X184378851Y-72703711D01*
X184348973Y-72639308D01*
X184358657Y-72568975D01*
X184404829Y-72515043D01*
X184472829Y-72494634D01*
X184543948Y-72516112D01*
X184622469Y-72568975D01*
X184795892Y-72685730D01*
X184832421Y-72710323D01*
X184835842Y-72712709D01*
X185759556Y-73380138D01*
X185762870Y-73382618D01*
X185997109Y-73563985D01*
X186663895Y-74080266D01*
X186667150Y-74082873D01*
X186680719Y-74094118D01*
X187544575Y-74810033D01*
X187547747Y-74812752D01*
X188400553Y-75568578D01*
X188403627Y-75571394D01*
X188691576Y-75844171D01*
X189230919Y-76355095D01*
X189233904Y-76358018D01*
X190034751Y-77168709D01*
X190037638Y-77171730D01*
X190811184Y-78008548D01*
X190813968Y-78011663D01*
X191063610Y-78300366D01*
X191557006Y-78870962D01*
X191559292Y-78873606D01*
X191561966Y-78876803D01*
X192188361Y-79651717D01*
X192278371Y-79763069D01*
X192280936Y-79766354D01*
X192603071Y-80193066D01*
X192967511Y-80675817D01*
X192969973Y-80679192D01*
X193626057Y-81610975D01*
X193628405Y-81614431D01*
X194253201Y-82567403D01*
X194255434Y-82570935D01*
X194848301Y-83544117D01*
X194850415Y-83547720D01*
X195410689Y-84540021D01*
X195412683Y-84543693D01*
X195939765Y-85554053D01*
X195941635Y-85557789D01*
X196434905Y-86585022D01*
X196436651Y-86588818D01*
X196722188Y-87237749D01*
X196895094Y-87630707D01*
X196895604Y-87631867D01*
X196897223Y-87635719D01*
X197321330Y-88693384D01*
X197322821Y-88697287D01*
X197711642Y-89768473D01*
X197713002Y-89772423D01*
X197871851Y-90259861D01*
X198036936Y-90766434D01*
X198066085Y-90855881D01*
X198067312Y-90859868D01*
X198307275Y-91688524D01*
X198384289Y-91954476D01*
X198385378Y-91958485D01*
X198639746Y-92960062D01*
X198665886Y-93062987D01*
X198666847Y-93067053D01*
X198910574Y-94180221D01*
X198911400Y-94184316D01*
X199118089Y-95304963D01*
X199118779Y-95309081D01*
X199121306Y-95325893D01*
X199288203Y-96436000D01*
X199288755Y-96440142D01*
X199361842Y-97067023D01*
X199403192Y-97421685D01*
X199420717Y-97572004D01*
X199421131Y-97576151D01*
X199512010Y-98669840D01*
X199515496Y-98711797D01*
X199515772Y-98715951D01*
X199532581Y-99053588D01*
X199572432Y-99854095D01*
X199572571Y-99858271D01*
X199583629Y-100525114D01*
X199590924Y-100965000D01*
X199591475Y-100998246D01*
X199591488Y-101001306D01*
X199589884Y-101205492D01*
X199587257Y-101540006D01*
X199587195Y-101543084D01*
X199586637Y-101560353D01*
X199551023Y-102662990D01*
X199550390Y-102682579D01*
X199550187Y-102686724D01*
X199512497Y-103261758D01*
X199475655Y-103823855D01*
X199475313Y-103828019D01*
X199363123Y-104962039D01*
X199362643Y-104966189D01*
X199212914Y-106095874D01*
X199212296Y-106100007D01*
X199118534Y-106663328D01*
X199025534Y-107222069D01*
X199025199Y-107224079D01*
X199024448Y-107228171D01*
X198979020Y-107454489D01*
X198800178Y-108345457D01*
X198799288Y-108349539D01*
X198538103Y-109458752D01*
X198537078Y-109462803D01*
X198309852Y-110302029D01*
X198239383Y-110562297D01*
X198239257Y-110562761D01*
X198238100Y-110566768D01*
X197973680Y-111428959D01*
X197903981Y-111656224D01*
X197902697Y-111660176D01*
X197532626Y-112737995D01*
X197531208Y-112741912D01*
X197129760Y-113795962D01*
X197125612Y-113806852D01*
X197124067Y-113810716D01*
X197044307Y-114000920D01*
X196683384Y-114861622D01*
X196681705Y-114865447D01*
X196206432Y-115901147D01*
X196204627Y-115904915D01*
X196121208Y-116071862D01*
X195699747Y-116915338D01*
X195695259Y-116924319D01*
X195693331Y-116928021D01*
X195248590Y-117748841D01*
X195150467Y-117929937D01*
X195148419Y-117933572D01*
X195089733Y-118033800D01*
X194572630Y-118916945D01*
X194570460Y-118920515D01*
X193962367Y-119884284D01*
X193960079Y-119887780D01*
X193320383Y-120830834D01*
X193317980Y-120834253D01*
X192647375Y-121755570D01*
X192644861Y-121758907D01*
X191957074Y-122640821D01*
X191944048Y-122657523D01*
X191941438Y-122660757D01*
X191394957Y-123315500D01*
X191211237Y-123535617D01*
X191208507Y-123538780D01*
X190832020Y-123960598D01*
X190560342Y-124264988D01*
X190449711Y-124388939D01*
X190446879Y-124392009D01*
X189756647Y-125115559D01*
X189660285Y-125216572D01*
X189657364Y-125219534D01*
X188843846Y-126017581D01*
X188840861Y-126020414D01*
X188500952Y-126332430D01*
X188001356Y-126791027D01*
X187998232Y-126793801D01*
X187133625Y-127536169D01*
X187130410Y-127538837D01*
X186241722Y-128252085D01*
X186238421Y-128254646D01*
X185326541Y-128938060D01*
X185323157Y-128940510D01*
X184389125Y-129593313D01*
X184385661Y-129595650D01*
X183430472Y-130217143D01*
X183426932Y-130219363D01*
X182451685Y-130808830D01*
X182448074Y-130810931D01*
X181453838Y-131367731D01*
X181450186Y-131369698D01*
X180437944Y-131893274D01*
X180434292Y-131895087D01*
X179712849Y-132238425D01*
X179405287Y-132384795D01*
X179401485Y-132386528D01*
X178356824Y-132841844D01*
X178352966Y-132843449D01*
X177506471Y-133179456D01*
X177293818Y-133263866D01*
X177289909Y-133265343D01*
X176217410Y-133650409D01*
X176213455Y-133651756D01*
X175128733Y-134001067D01*
X175124736Y-134002281D01*
X174029082Y-134315420D01*
X174025046Y-134316502D01*
X173652210Y-134409806D01*
X172919539Y-134593161D01*
X172915527Y-134594094D01*
X171801464Y-134833946D01*
X171797366Y-134834757D01*
X170676009Y-135037531D01*
X170671886Y-135038206D01*
X169544414Y-135203691D01*
X169540270Y-135204229D01*
X168407956Y-135332239D01*
X168403798Y-135332640D01*
X167537449Y-135401584D01*
X167267806Y-135423042D01*
X167263646Y-135423304D01*
X167163575Y-135427936D01*
X166125321Y-135475990D01*
X166121144Y-135476114D01*
X164981709Y-135491030D01*
X164977531Y-135491016D01*
X163838196Y-135468145D01*
X163834021Y-135467992D01*
X162696065Y-135407358D01*
X162691897Y-135407066D01*
X162253423Y-135369090D01*
X161556599Y-135308739D01*
X161552498Y-135308316D01*
X160421022Y-135172394D01*
X160416926Y-135171833D01*
X159853757Y-135085153D01*
X159290611Y-134998476D01*
X159286493Y-134997772D01*
X158419610Y-134834757D01*
X158166536Y-134787167D01*
X158162472Y-134786332D01*
X157296962Y-134593660D01*
X157050164Y-134538720D01*
X157046102Y-134537745D01*
X155942616Y-134253392D01*
X155938587Y-134252283D01*
X155830658Y-134220620D01*
X154845057Y-133931476D01*
X154841123Y-133930250D01*
X154112778Y-133690078D01*
X153758874Y-133573378D01*
X153754929Y-133572004D01*
X153056268Y-133315639D01*
X152685116Y-133179449D01*
X152681254Y-133177959D01*
X151625007Y-132750135D01*
X151621190Y-132748514D01*
X150579759Y-132285928D01*
X150575969Y-132284169D01*
X149561566Y-131792695D01*
X156625251Y-131792695D01*
X156625548Y-131797848D01*
X156625548Y-131797851D01*
X156631104Y-131894210D01*
X156638110Y-132015715D01*
X156639247Y-132020761D01*
X156639248Y-132020767D01*
X156663304Y-132127508D01*
X156687222Y-132233639D01*
X156771266Y-132440616D01*
X156808685Y-132501678D01*
X156885291Y-132626688D01*
X156887987Y-132631088D01*
X157034250Y-132799938D01*
X157206126Y-132942632D01*
X157399000Y-133055338D01*
X157403825Y-133057180D01*
X157403826Y-133057181D01*
X157444642Y-133072767D01*
X157607692Y-133135030D01*
X157612760Y-133136061D01*
X157612763Y-133136062D01*
X157720017Y-133157883D01*
X157826597Y-133179567D01*
X157831772Y-133179757D01*
X157831774Y-133179757D01*
X158044673Y-133187564D01*
X158044677Y-133187564D01*
X158049837Y-133187753D01*
X158054957Y-133187097D01*
X158054959Y-133187097D01*
X158266288Y-133160025D01*
X158266289Y-133160025D01*
X158271416Y-133159368D01*
X158276366Y-133157883D01*
X158480429Y-133096661D01*
X158480434Y-133096659D01*
X158485384Y-133095174D01*
X158685994Y-132996896D01*
X158867860Y-132867173D01*
X159026096Y-132709489D01*
X159031248Y-132702320D01*
X159156453Y-132528077D01*
X159157776Y-132529028D01*
X159204645Y-132485857D01*
X159274580Y-132473625D01*
X159340026Y-132501144D01*
X159367875Y-132532994D01*
X159427987Y-132631088D01*
X159574250Y-132799938D01*
X159746126Y-132942632D01*
X159939000Y-133055338D01*
X159943825Y-133057180D01*
X159943826Y-133057181D01*
X159984642Y-133072767D01*
X160147692Y-133135030D01*
X160152760Y-133136061D01*
X160152763Y-133136062D01*
X160260017Y-133157883D01*
X160366597Y-133179567D01*
X160371772Y-133179757D01*
X160371774Y-133179757D01*
X160584673Y-133187564D01*
X160584677Y-133187564D01*
X160589837Y-133187753D01*
X160594957Y-133187097D01*
X160594959Y-133187097D01*
X160806288Y-133160025D01*
X160806289Y-133160025D01*
X160811416Y-133159368D01*
X160816366Y-133157883D01*
X161020429Y-133096661D01*
X161020434Y-133096659D01*
X161025384Y-133095174D01*
X161225994Y-132996896D01*
X161407860Y-132867173D01*
X161516091Y-132759319D01*
X161578462Y-132725404D01*
X161649268Y-132730592D01*
X161706030Y-132773238D01*
X161723012Y-132804341D01*
X161752248Y-132882327D01*
X161767385Y-132922705D01*
X161854739Y-133039261D01*
X161971295Y-133126615D01*
X162107684Y-133177745D01*
X162169866Y-133184500D01*
X163966134Y-133184500D01*
X164028316Y-133177745D01*
X164164705Y-133126615D01*
X164281261Y-133039261D01*
X164368615Y-132922705D01*
X164419745Y-132786316D01*
X164426500Y-132724134D01*
X164426500Y-131735695D01*
X168426251Y-131735695D01*
X168426548Y-131740848D01*
X168426548Y-131740851D01*
X168429835Y-131797851D01*
X168439110Y-131958715D01*
X168440247Y-131963761D01*
X168440248Y-131963767D01*
X168453094Y-132020767D01*
X168488222Y-132176639D01*
X168572266Y-132383616D01*
X168609685Y-132444678D01*
X168686291Y-132569688D01*
X168688987Y-132574088D01*
X168835250Y-132742938D01*
X169007126Y-132885632D01*
X169200000Y-132998338D01*
X169408692Y-133078030D01*
X169413760Y-133079061D01*
X169413763Y-133079062D01*
X169521017Y-133100883D01*
X169627597Y-133122567D01*
X169632772Y-133122757D01*
X169632774Y-133122757D01*
X169845673Y-133130564D01*
X169845677Y-133130564D01*
X169850837Y-133130753D01*
X169855957Y-133130097D01*
X169855959Y-133130097D01*
X170067288Y-133103025D01*
X170067289Y-133103025D01*
X170072416Y-133102368D01*
X170077366Y-133100883D01*
X170281429Y-133039661D01*
X170281434Y-133039659D01*
X170286384Y-133038174D01*
X170486994Y-132939896D01*
X170668860Y-132810173D01*
X170674713Y-132804341D01*
X170774108Y-132705292D01*
X170827096Y-132652489D01*
X170886594Y-132569689D01*
X170957453Y-132471077D01*
X170958776Y-132472028D01*
X171005645Y-132428857D01*
X171075580Y-132416625D01*
X171141026Y-132444144D01*
X171168875Y-132475994D01*
X171228987Y-132574088D01*
X171375250Y-132742938D01*
X171547126Y-132885632D01*
X171740000Y-132998338D01*
X171948692Y-133078030D01*
X171953760Y-133079061D01*
X171953763Y-133079062D01*
X172061017Y-133100883D01*
X172167597Y-133122567D01*
X172172772Y-133122757D01*
X172172774Y-133122757D01*
X172385673Y-133130564D01*
X172385677Y-133130564D01*
X172390837Y-133130753D01*
X172395957Y-133130097D01*
X172395959Y-133130097D01*
X172607288Y-133103025D01*
X172607289Y-133103025D01*
X172612416Y-133102368D01*
X172617366Y-133100883D01*
X172821429Y-133039661D01*
X172821434Y-133039659D01*
X172826384Y-133038174D01*
X173026994Y-132939896D01*
X173208860Y-132810173D01*
X173317091Y-132702319D01*
X173379462Y-132668404D01*
X173450268Y-132673592D01*
X173507030Y-132716238D01*
X173524012Y-132747341D01*
X173535678Y-132778460D01*
X173568385Y-132865705D01*
X173655739Y-132982261D01*
X173772295Y-133069615D01*
X173908684Y-133120745D01*
X173970866Y-133127500D01*
X175767134Y-133127500D01*
X175829316Y-133120745D01*
X175965705Y-133069615D01*
X176082261Y-132982261D01*
X176169615Y-132865705D01*
X176220745Y-132729316D01*
X176227500Y-132667134D01*
X176227500Y-130870866D01*
X176220745Y-130808684D01*
X176169615Y-130672295D01*
X176082261Y-130555739D01*
X175965705Y-130468385D01*
X175829316Y-130417255D01*
X175767134Y-130410500D01*
X173970866Y-130410500D01*
X173908684Y-130417255D01*
X173772295Y-130468385D01*
X173655739Y-130555739D01*
X173568385Y-130672295D01*
X173565233Y-130680703D01*
X173523919Y-130790907D01*
X173481277Y-130847671D01*
X173414716Y-130872371D01*
X173345367Y-130857163D01*
X173312743Y-130831476D01*
X173262151Y-130775875D01*
X173262142Y-130775866D01*
X173258670Y-130772051D01*
X173254619Y-130768852D01*
X173254615Y-130768848D01*
X173087414Y-130636800D01*
X173087410Y-130636798D01*
X173083359Y-130633598D01*
X173058580Y-130619919D01*
X173031136Y-130604769D01*
X172887789Y-130525638D01*
X172882920Y-130523914D01*
X172882916Y-130523912D01*
X172682087Y-130452795D01*
X172682083Y-130452794D01*
X172677212Y-130451069D01*
X172672119Y-130450162D01*
X172672116Y-130450161D01*
X172462373Y-130412800D01*
X172462367Y-130412799D01*
X172457284Y-130411894D01*
X172383452Y-130410992D01*
X172239081Y-130409228D01*
X172239079Y-130409228D01*
X172233911Y-130409165D01*
X172013091Y-130442955D01*
X171800756Y-130512357D01*
X171602607Y-130615507D01*
X171598474Y-130618610D01*
X171598471Y-130618612D01*
X171428100Y-130746530D01*
X171423965Y-130749635D01*
X171367536Y-130808684D01*
X171305559Y-130873540D01*
X171269629Y-130911138D01*
X171162201Y-131068621D01*
X171107293Y-131113621D01*
X171036768Y-131121792D01*
X170973021Y-131090538D01*
X170952324Y-131066054D01*
X170871822Y-130941617D01*
X170871820Y-130941614D01*
X170869014Y-130937277D01*
X170718670Y-130772051D01*
X170714619Y-130768852D01*
X170714615Y-130768848D01*
X170547414Y-130636800D01*
X170547410Y-130636798D01*
X170543359Y-130633598D01*
X170518580Y-130619919D01*
X170491136Y-130604769D01*
X170347789Y-130525638D01*
X170342920Y-130523914D01*
X170342916Y-130523912D01*
X170142087Y-130452795D01*
X170142083Y-130452794D01*
X170137212Y-130451069D01*
X170132119Y-130450162D01*
X170132116Y-130450161D01*
X169922373Y-130412800D01*
X169922367Y-130412799D01*
X169917284Y-130411894D01*
X169843452Y-130410992D01*
X169699081Y-130409228D01*
X169699079Y-130409228D01*
X169693911Y-130409165D01*
X169473091Y-130442955D01*
X169260756Y-130512357D01*
X169062607Y-130615507D01*
X169058474Y-130618610D01*
X169058471Y-130618612D01*
X168888100Y-130746530D01*
X168883965Y-130749635D01*
X168827536Y-130808684D01*
X168765559Y-130873540D01*
X168729629Y-130911138D01*
X168603743Y-131095680D01*
X168579271Y-131148401D01*
X168530798Y-131252828D01*
X168509688Y-131298305D01*
X168449989Y-131513570D01*
X168426251Y-131735695D01*
X164426500Y-131735695D01*
X164426500Y-130927866D01*
X164419745Y-130865684D01*
X164368615Y-130729295D01*
X164281261Y-130612739D01*
X164164705Y-130525385D01*
X164028316Y-130474255D01*
X163966134Y-130467500D01*
X162169866Y-130467500D01*
X162107684Y-130474255D01*
X161971295Y-130525385D01*
X161854739Y-130612739D01*
X161767385Y-130729295D01*
X161764233Y-130737703D01*
X161722919Y-130847907D01*
X161680277Y-130904671D01*
X161613716Y-130929371D01*
X161544367Y-130914163D01*
X161511743Y-130888476D01*
X161461151Y-130832875D01*
X161461142Y-130832866D01*
X161457670Y-130829051D01*
X161453619Y-130825852D01*
X161453615Y-130825848D01*
X161286414Y-130693800D01*
X161286410Y-130693798D01*
X161282359Y-130690598D01*
X161275773Y-130686962D01*
X161230136Y-130661769D01*
X161086789Y-130582638D01*
X161081920Y-130580914D01*
X161081916Y-130580912D01*
X160881087Y-130509795D01*
X160881083Y-130509794D01*
X160876212Y-130508069D01*
X160871119Y-130507162D01*
X160871116Y-130507161D01*
X160661373Y-130469800D01*
X160661367Y-130469799D01*
X160656284Y-130468894D01*
X160582452Y-130467992D01*
X160438081Y-130466228D01*
X160438079Y-130466228D01*
X160432911Y-130466165D01*
X160212091Y-130499955D01*
X159999756Y-130569357D01*
X159801607Y-130672507D01*
X159797474Y-130675610D01*
X159797471Y-130675612D01*
X159627100Y-130803530D01*
X159622965Y-130806635D01*
X159583750Y-130847671D01*
X159523100Y-130911138D01*
X159468629Y-130968138D01*
X159361201Y-131125621D01*
X159306293Y-131170621D01*
X159235768Y-131178792D01*
X159172021Y-131147538D01*
X159151324Y-131123054D01*
X159070822Y-130998617D01*
X159070820Y-130998614D01*
X159068014Y-130994277D01*
X158917670Y-130829051D01*
X158913619Y-130825852D01*
X158913615Y-130825848D01*
X158746414Y-130693800D01*
X158746410Y-130693798D01*
X158742359Y-130690598D01*
X158735773Y-130686962D01*
X158690136Y-130661769D01*
X158546789Y-130582638D01*
X158541920Y-130580914D01*
X158541916Y-130580912D01*
X158341087Y-130509795D01*
X158341083Y-130509794D01*
X158336212Y-130508069D01*
X158331119Y-130507162D01*
X158331116Y-130507161D01*
X158121373Y-130469800D01*
X158121367Y-130469799D01*
X158116284Y-130468894D01*
X158042452Y-130467992D01*
X157898081Y-130466228D01*
X157898079Y-130466228D01*
X157892911Y-130466165D01*
X157672091Y-130499955D01*
X157459756Y-130569357D01*
X157261607Y-130672507D01*
X157257474Y-130675610D01*
X157257471Y-130675612D01*
X157087100Y-130803530D01*
X157082965Y-130806635D01*
X157043750Y-130847671D01*
X156983100Y-130911138D01*
X156928629Y-130968138D01*
X156802743Y-131152680D01*
X156708688Y-131355305D01*
X156648989Y-131570570D01*
X156625251Y-131792695D01*
X149561566Y-131792695D01*
X149550429Y-131787299D01*
X149546700Y-131785415D01*
X148538232Y-131254834D01*
X148534567Y-131252828D01*
X147544220Y-130689089D01*
X147540623Y-130686962D01*
X146569498Y-130090689D01*
X146565975Y-130088444D01*
X145615203Y-129460334D01*
X145611755Y-129457974D01*
X144880585Y-128939319D01*
X144682259Y-128798636D01*
X144678900Y-128796168D01*
X144596083Y-128733192D01*
X143771819Y-128106407D01*
X143768537Y-128103824D01*
X143259958Y-127689775D01*
X142884834Y-127384376D01*
X142881639Y-127381686D01*
X142279653Y-126857465D01*
X142022265Y-126633327D01*
X142019165Y-126630536D01*
X141879668Y-126500680D01*
X141185047Y-125854068D01*
X141182042Y-125851176D01*
X141038102Y-125707987D01*
X140661012Y-125332866D01*
X140374167Y-125047519D01*
X140371254Y-125044524D01*
X140090219Y-124745775D01*
X139590436Y-124214491D01*
X139587638Y-124211416D01*
X139585852Y-124209386D01*
X139336765Y-123926355D01*
X141222609Y-123926355D01*
X141222906Y-123931508D01*
X141222906Y-123931511D01*
X141232425Y-124096598D01*
X141235468Y-124149375D01*
X141236605Y-124154421D01*
X141236606Y-124154427D01*
X141259678Y-124256800D01*
X141284580Y-124367299D01*
X141299712Y-124404564D01*
X141365183Y-124565801D01*
X141368624Y-124574276D01*
X141371323Y-124578680D01*
X141466992Y-124734798D01*
X141485345Y-124764748D01*
X141631608Y-124933598D01*
X141803484Y-125076292D01*
X141996358Y-125188998D01*
X142205050Y-125268690D01*
X142210118Y-125269721D01*
X142210121Y-125269722D01*
X142317375Y-125291543D01*
X142423955Y-125313227D01*
X142429130Y-125313417D01*
X142429132Y-125313417D01*
X142642031Y-125321224D01*
X142642035Y-125321224D01*
X142647195Y-125321413D01*
X142652315Y-125320757D01*
X142652317Y-125320757D01*
X142863646Y-125293685D01*
X142863647Y-125293685D01*
X142868774Y-125293028D01*
X142873724Y-125291543D01*
X143076043Y-125230844D01*
X143147039Y-125230428D01*
X143206989Y-125268460D01*
X143236861Y-125332866D01*
X143237538Y-125364916D01*
X143224156Y-125490135D01*
X143237015Y-125713155D01*
X143238152Y-125718201D01*
X143238153Y-125718207D01*
X143262209Y-125824948D01*
X143286127Y-125931079D01*
X143370171Y-126138056D01*
X143486892Y-126328528D01*
X143633155Y-126497378D01*
X143805031Y-126640072D01*
X143997905Y-126752778D01*
X144206597Y-126832470D01*
X144211665Y-126833501D01*
X144211668Y-126833502D01*
X144318917Y-126855322D01*
X144425502Y-126877007D01*
X144430677Y-126877197D01*
X144430679Y-126877197D01*
X144643578Y-126885004D01*
X144643582Y-126885004D01*
X144648742Y-126885193D01*
X144653862Y-126884537D01*
X144653864Y-126884537D01*
X144865193Y-126857465D01*
X144865194Y-126857465D01*
X144870321Y-126856808D01*
X144875272Y-126855323D01*
X144875275Y-126855322D01*
X145077592Y-126794624D01*
X145148587Y-126794208D01*
X145208537Y-126832240D01*
X145238409Y-126896646D01*
X145239086Y-126928696D01*
X145225704Y-127053915D01*
X145238563Y-127276935D01*
X145239700Y-127281981D01*
X145239701Y-127281987D01*
X145262170Y-127381686D01*
X145287675Y-127494859D01*
X145332001Y-127604021D01*
X145366822Y-127689775D01*
X145371719Y-127701836D01*
X145488440Y-127892308D01*
X145634703Y-128061158D01*
X145806579Y-128203852D01*
X145999453Y-128316558D01*
X146208145Y-128396250D01*
X146213213Y-128397281D01*
X146213216Y-128397282D01*
X146320832Y-128419177D01*
X146427050Y-128440787D01*
X146432225Y-128440977D01*
X146432227Y-128440977D01*
X146645126Y-128448784D01*
X146645130Y-128448784D01*
X146650290Y-128448973D01*
X146791681Y-128430860D01*
X146861790Y-128442044D01*
X146914724Y-128489357D01*
X146933675Y-128557778D01*
X146927891Y-128593623D01*
X146889902Y-128714477D01*
X146886979Y-128860105D01*
X146925046Y-129000700D01*
X147001043Y-129124960D01*
X147006706Y-129130467D01*
X147043437Y-129166186D01*
X147043442Y-129166191D01*
X147045885Y-129168566D01*
X147048574Y-129170667D01*
X147048581Y-129170673D01*
X148390843Y-130219363D01*
X148461363Y-130274459D01*
X148514522Y-130307419D01*
X148522054Y-130309787D01*
X148522057Y-130309788D01*
X148644915Y-130348407D01*
X148644917Y-130348407D01*
X148653477Y-130351098D01*
X148705674Y-130352146D01*
X148790131Y-130353841D01*
X148790132Y-130353841D01*
X148799105Y-130354021D01*
X148939700Y-130315954D01*
X149063960Y-130239957D01*
X149069467Y-130234294D01*
X149105186Y-130197563D01*
X149105191Y-130197558D01*
X149107566Y-130195115D01*
X149109667Y-130192426D01*
X149109673Y-130192419D01*
X150211355Y-128782330D01*
X150213459Y-128779637D01*
X150246419Y-128726478D01*
X150250192Y-128714477D01*
X150287407Y-128596085D01*
X150287407Y-128596083D01*
X150290098Y-128587523D01*
X150293021Y-128441895D01*
X150254954Y-128301300D01*
X150178957Y-128177040D01*
X150166341Y-128164772D01*
X150136563Y-128135814D01*
X150136558Y-128135809D01*
X150134115Y-128133434D01*
X150131426Y-128131333D01*
X150131419Y-128131327D01*
X149848016Y-127909909D01*
X149806650Y-127852208D01*
X149803047Y-127781303D01*
X149838350Y-127719706D01*
X149901351Y-127686973D01*
X149925589Y-127684620D01*
X165346366Y-127684620D01*
X165362813Y-127685698D01*
X165393780Y-127689775D01*
X165432935Y-127684620D01*
X165549733Y-127669243D01*
X165695057Y-127609048D01*
X165819851Y-127513291D01*
X165838870Y-127488505D01*
X165849737Y-127476114D01*
X169425890Y-123899961D01*
X169438281Y-123889093D01*
X169456525Y-123875094D01*
X169456526Y-123875093D01*
X169463071Y-123870071D01*
X169558828Y-123745277D01*
X169619023Y-123599953D01*
X169626436Y-123543648D01*
X169639555Y-123444000D01*
X169635478Y-123413031D01*
X169634400Y-123396585D01*
X169634400Y-113991849D01*
X189533889Y-113991849D01*
X189552519Y-114228560D01*
X189553673Y-114233367D01*
X189553674Y-114233373D01*
X189579582Y-114341285D01*
X189607949Y-114459443D01*
X189609842Y-114464014D01*
X189609843Y-114464016D01*
X189693535Y-114666067D01*
X189698814Y-114678812D01*
X189822878Y-114881266D01*
X189977085Y-115061819D01*
X190157638Y-115216026D01*
X190360092Y-115340090D01*
X190364662Y-115341983D01*
X190364666Y-115341985D01*
X190574888Y-115429061D01*
X190579461Y-115430955D01*
X190659664Y-115450210D01*
X190805531Y-115485230D01*
X190805537Y-115485231D01*
X190810344Y-115486385D01*
X191047055Y-115505015D01*
X191283766Y-115486385D01*
X191288573Y-115485231D01*
X191288579Y-115485230D01*
X191434446Y-115450210D01*
X191514649Y-115430955D01*
X191519222Y-115429061D01*
X191729444Y-115341985D01*
X191729448Y-115341983D01*
X191734018Y-115340090D01*
X191936472Y-115216026D01*
X192117025Y-115061819D01*
X192271232Y-114881266D01*
X192395296Y-114678812D01*
X192400576Y-114666067D01*
X192484267Y-114464016D01*
X192484268Y-114464014D01*
X192486161Y-114459443D01*
X192514528Y-114341285D01*
X192540436Y-114233373D01*
X192540437Y-114233367D01*
X192541591Y-114228560D01*
X192560221Y-113991849D01*
X192541591Y-113755138D01*
X192537656Y-113738745D01*
X192487316Y-113529067D01*
X192486161Y-113524255D01*
X192460556Y-113462438D01*
X192397191Y-113309460D01*
X192397189Y-113309456D01*
X192395296Y-113304886D01*
X192271232Y-113102432D01*
X192117025Y-112921879D01*
X191936472Y-112767672D01*
X191734018Y-112643608D01*
X191729448Y-112641715D01*
X191729444Y-112641713D01*
X191519222Y-112554637D01*
X191519220Y-112554636D01*
X191514649Y-112552743D01*
X191434446Y-112533488D01*
X191288579Y-112498468D01*
X191288573Y-112498467D01*
X191283766Y-112497313D01*
X191047055Y-112478683D01*
X190810344Y-112497313D01*
X190805537Y-112498467D01*
X190805531Y-112498468D01*
X190659664Y-112533488D01*
X190579461Y-112552743D01*
X190574890Y-112554636D01*
X190574888Y-112554637D01*
X190364666Y-112641713D01*
X190364662Y-112641715D01*
X190360092Y-112643608D01*
X190157638Y-112767672D01*
X189977085Y-112921879D01*
X189822878Y-113102432D01*
X189698814Y-113304886D01*
X189696921Y-113309456D01*
X189696919Y-113309460D01*
X189633554Y-113462438D01*
X189607949Y-113524255D01*
X189606794Y-113529067D01*
X189556455Y-113738745D01*
X189552519Y-113755138D01*
X189534362Y-113985844D01*
X189533889Y-113991849D01*
X169634400Y-113991849D01*
X169634400Y-105889221D01*
X169654402Y-105821100D01*
X169671305Y-105800126D01*
X170819690Y-104651741D01*
X170832081Y-104640873D01*
X170850325Y-104626874D01*
X170850326Y-104626873D01*
X170856871Y-104621851D01*
X170952628Y-104497057D01*
X171012823Y-104351733D01*
X171028200Y-104234935D01*
X171033355Y-104195780D01*
X171029278Y-104164811D01*
X171028200Y-104148365D01*
X171028200Y-102052720D01*
X171029278Y-102036274D01*
X171031400Y-102020156D01*
X171035477Y-101989189D01*
X171035477Y-101989188D01*
X171036555Y-101981000D01*
X171032478Y-101950033D01*
X171031400Y-101933586D01*
X171031400Y-101901414D01*
X171032478Y-101884967D01*
X171035477Y-101862188D01*
X171036555Y-101854000D01*
X171016023Y-101698047D01*
X170955828Y-101552723D01*
X170947245Y-101541537D01*
X170860071Y-101427929D01*
X170835285Y-101408910D01*
X170822894Y-101398043D01*
X169365961Y-99941110D01*
X169355093Y-99928719D01*
X169341094Y-99910475D01*
X169341093Y-99910474D01*
X169336071Y-99903929D01*
X169211277Y-99808172D01*
X169065953Y-99747977D01*
X169051795Y-99746113D01*
X168986868Y-99717388D01*
X168947779Y-99658122D01*
X168946936Y-99587130D01*
X168959792Y-99557052D01*
X168980703Y-99521693D01*
X169009145Y-99473601D01*
X169055562Y-99313831D01*
X169057765Y-99285851D01*
X169058307Y-99278958D01*
X169058307Y-99278950D01*
X169058500Y-99276502D01*
X169058500Y-98843498D01*
X169058307Y-98841042D01*
X169056067Y-98812579D01*
X169056066Y-98812574D01*
X169055562Y-98806169D01*
X169009145Y-98646399D01*
X168992107Y-98617589D01*
X168928491Y-98510020D01*
X168928489Y-98510017D01*
X168924453Y-98503193D01*
X168806807Y-98385547D01*
X168799983Y-98381511D01*
X168799980Y-98381509D01*
X168670427Y-98304892D01*
X168670428Y-98304892D01*
X168663601Y-98300855D01*
X168655990Y-98298644D01*
X168655988Y-98298643D01*
X168603769Y-98283472D01*
X168503831Y-98254438D01*
X168497426Y-98253934D01*
X168497421Y-98253933D01*
X168468958Y-98251693D01*
X168468950Y-98251693D01*
X168466502Y-98251500D01*
X166983498Y-98251500D01*
X166981050Y-98251693D01*
X166981042Y-98251693D01*
X166952579Y-98253933D01*
X166952574Y-98253934D01*
X166946169Y-98254438D01*
X166846231Y-98283472D01*
X166794012Y-98298643D01*
X166794010Y-98298644D01*
X166786399Y-98300855D01*
X166779572Y-98304892D01*
X166779573Y-98304892D01*
X166650020Y-98381509D01*
X166650017Y-98381511D01*
X166643193Y-98385547D01*
X166525547Y-98503193D01*
X166521511Y-98510017D01*
X166521509Y-98510020D01*
X166457893Y-98617589D01*
X166440855Y-98646399D01*
X166394438Y-98806169D01*
X166393934Y-98812574D01*
X166393933Y-98812579D01*
X166391693Y-98841042D01*
X166391500Y-98843498D01*
X166391500Y-99276502D01*
X166391693Y-99278950D01*
X166391693Y-99278958D01*
X166392236Y-99285851D01*
X166394438Y-99313831D01*
X166440855Y-99473601D01*
X166525547Y-99616807D01*
X166528229Y-99619489D01*
X166553502Y-99683861D01*
X166539600Y-99753484D01*
X166529428Y-99769312D01*
X166525547Y-99773193D01*
X166440855Y-99916399D01*
X166438644Y-99924010D01*
X166438643Y-99924012D01*
X166437277Y-99928715D01*
X166394438Y-100076169D01*
X166391500Y-100113498D01*
X166391500Y-100546502D01*
X166394438Y-100583831D01*
X166440855Y-100743601D01*
X166525547Y-100886807D01*
X166528229Y-100889489D01*
X166553502Y-100953861D01*
X166539600Y-101023484D01*
X166529428Y-101039312D01*
X166525547Y-101043193D01*
X166440855Y-101186399D01*
X166394438Y-101346169D01*
X166393934Y-101352574D01*
X166393933Y-101352579D01*
X166391693Y-101381042D01*
X166391500Y-101383498D01*
X166391500Y-101816502D01*
X166391693Y-101818950D01*
X166391693Y-101818958D01*
X166393807Y-101845812D01*
X166394438Y-101853831D01*
X166440855Y-102013601D01*
X166525547Y-102156807D01*
X166528229Y-102159489D01*
X166553502Y-102223861D01*
X166539600Y-102293484D01*
X166529428Y-102309312D01*
X166525547Y-102313193D01*
X166440855Y-102456399D01*
X166438644Y-102464010D01*
X166438643Y-102464012D01*
X166436026Y-102473020D01*
X166394438Y-102616169D01*
X166391500Y-102653498D01*
X166391500Y-103086502D01*
X166391693Y-103088950D01*
X166391693Y-103088958D01*
X166393778Y-103115441D01*
X166394438Y-103123831D01*
X166397653Y-103134897D01*
X166431161Y-103250232D01*
X166440855Y-103283601D01*
X166444892Y-103290427D01*
X166521509Y-103419980D01*
X166521511Y-103419983D01*
X166525547Y-103426807D01*
X166643193Y-103544453D01*
X166650017Y-103548489D01*
X166650020Y-103548491D01*
X166722579Y-103591402D01*
X166786399Y-103629145D01*
X166794010Y-103631356D01*
X166794012Y-103631357D01*
X166846231Y-103646528D01*
X166946169Y-103675562D01*
X166952574Y-103676066D01*
X166952579Y-103676067D01*
X166981042Y-103678307D01*
X166981050Y-103678307D01*
X166983498Y-103678500D01*
X168466502Y-103678500D01*
X168468950Y-103678307D01*
X168468958Y-103678307D01*
X168497421Y-103676067D01*
X168497426Y-103676066D01*
X168503831Y-103675562D01*
X168603769Y-103646528D01*
X168655988Y-103631357D01*
X168655990Y-103631356D01*
X168663601Y-103629145D01*
X168727421Y-103591402D01*
X168799980Y-103548491D01*
X168799983Y-103548489D01*
X168806807Y-103544453D01*
X168846955Y-103504305D01*
X168909267Y-103470279D01*
X168936050Y-103467400D01*
X168941559Y-103467400D01*
X169009680Y-103487402D01*
X169056173Y-103541058D01*
X169066277Y-103611332D01*
X169036783Y-103675912D01*
X169030654Y-103682495D01*
X167892510Y-104820639D01*
X167880119Y-104831507D01*
X167875308Y-104835199D01*
X167855329Y-104850529D01*
X167784972Y-104942221D01*
X167759572Y-104975323D01*
X167699377Y-105120647D01*
X167678845Y-105276600D01*
X167679923Y-105284788D01*
X167679923Y-105284789D01*
X167682922Y-105307569D01*
X167684000Y-105324015D01*
X167684000Y-122831379D01*
X167663998Y-122899500D01*
X167647095Y-122920474D01*
X166498892Y-124068677D01*
X166436580Y-124102703D01*
X166365765Y-124097638D01*
X166308929Y-124055091D01*
X166302943Y-124046351D01*
X166249359Y-123960598D01*
X166245626Y-123954624D01*
X166217554Y-123926355D01*
X166122778Y-123830915D01*
X166122774Y-123830912D01*
X166117815Y-123825918D01*
X166106697Y-123818862D01*
X166001067Y-123751828D01*
X165964666Y-123728727D01*
X165910297Y-123709367D01*
X165800425Y-123670243D01*
X165800420Y-123670242D01*
X165793790Y-123667881D01*
X165786802Y-123667048D01*
X165786799Y-123667047D01*
X165663698Y-123652368D01*
X165613680Y-123646404D01*
X165606677Y-123647140D01*
X165606676Y-123647140D01*
X165440288Y-123664628D01*
X165440286Y-123664629D01*
X165433288Y-123665364D01*
X165261579Y-123723818D01*
X165216050Y-123751828D01*
X165113090Y-123815169D01*
X165113087Y-123815171D01*
X165107088Y-123818862D01*
X165102056Y-123823790D01*
X165099164Y-123826622D01*
X165096861Y-123827848D01*
X165096502Y-123828129D01*
X165096453Y-123828066D01*
X165036500Y-123859994D01*
X165011005Y-123862600D01*
X163353457Y-123862600D01*
X163285336Y-123842598D01*
X163238843Y-123788942D01*
X163228683Y-123719065D01*
X163238987Y-123645745D01*
X163268275Y-123581071D01*
X163274666Y-123574185D01*
X164421547Y-122427305D01*
X164483859Y-122393279D01*
X164510642Y-122390400D01*
X164882590Y-122390400D01*
X164950711Y-122410402D01*
X164959201Y-122416608D01*
X164962382Y-122419902D01*
X164968275Y-122423758D01*
X164968277Y-122423760D01*
X165108263Y-122515364D01*
X165114159Y-122519222D01*
X165120763Y-122521678D01*
X165120765Y-122521679D01*
X165277558Y-122579990D01*
X165277560Y-122579990D01*
X165284168Y-122582448D01*
X165367995Y-122593633D01*
X165456980Y-122605507D01*
X165456984Y-122605507D01*
X165463961Y-122606438D01*
X165470972Y-122605800D01*
X165470976Y-122605800D01*
X165613459Y-122592832D01*
X165644600Y-122589998D01*
X165651302Y-122587820D01*
X165651304Y-122587820D01*
X165810409Y-122536124D01*
X165810412Y-122536123D01*
X165817108Y-122533947D01*
X165925095Y-122469574D01*
X165966860Y-122444677D01*
X165966862Y-122444676D01*
X165972912Y-122441069D01*
X166104266Y-122315982D01*
X166204643Y-122164902D01*
X166269055Y-121995338D01*
X166291276Y-121837230D01*
X166293748Y-121819639D01*
X166293748Y-121819636D01*
X166294299Y-121815717D01*
X166294616Y-121793000D01*
X166274397Y-121612745D01*
X166250096Y-121542962D01*
X166217064Y-121448106D01*
X166217062Y-121448103D01*
X166214745Y-121441448D01*
X166118626Y-121287624D01*
X166113664Y-121282627D01*
X165995778Y-121163915D01*
X165995774Y-121163912D01*
X165990815Y-121158918D01*
X165979697Y-121151862D01*
X165903627Y-121103587D01*
X165837666Y-121061727D01*
X165808463Y-121051328D01*
X165673425Y-121003243D01*
X165673420Y-121003242D01*
X165666790Y-121000881D01*
X165659802Y-121000048D01*
X165659799Y-121000047D01*
X165536698Y-120985368D01*
X165486680Y-120979404D01*
X165479677Y-120980140D01*
X165479676Y-120980140D01*
X165313288Y-120997628D01*
X165313286Y-120997629D01*
X165306288Y-120998364D01*
X165134579Y-121056818D01*
X165128575Y-121060512D01*
X164986090Y-121148169D01*
X164986087Y-121148171D01*
X164980088Y-121151862D01*
X164975056Y-121156790D01*
X164972164Y-121159622D01*
X164969861Y-121160848D01*
X164969502Y-121161129D01*
X164969453Y-121161066D01*
X164909500Y-121192994D01*
X164884005Y-121195600D01*
X164258420Y-121195600D01*
X164241975Y-121194522D01*
X164211000Y-121190444D01*
X164055047Y-121210977D01*
X163909723Y-121271172D01*
X163823113Y-121337630D01*
X163784929Y-121366929D01*
X163779903Y-121373479D01*
X163765913Y-121391711D01*
X163755046Y-121404102D01*
X162428958Y-122730191D01*
X162366646Y-122764216D01*
X162353035Y-122766406D01*
X162319232Y-122769959D01*
X162265289Y-122775628D01*
X162265288Y-122775628D01*
X162258288Y-122776364D01*
X162086579Y-122834818D01*
X162080575Y-122838512D01*
X161938095Y-122926166D01*
X161938092Y-122926168D01*
X161932088Y-122929862D01*
X161927053Y-122934793D01*
X161927050Y-122934795D01*
X161842166Y-123017920D01*
X161802493Y-123056771D01*
X161704235Y-123209238D01*
X161701826Y-123215858D01*
X161701824Y-123215861D01*
X161657791Y-123336841D01*
X161642197Y-123379685D01*
X161619463Y-123559640D01*
X161624071Y-123606637D01*
X161635608Y-123724305D01*
X161622348Y-123794052D01*
X161573485Y-123845559D01*
X161510209Y-123862600D01*
X161253557Y-123862600D01*
X161185436Y-123842598D01*
X161174607Y-123834798D01*
X161169777Y-123830914D01*
X161164815Y-123825918D01*
X161153697Y-123818862D01*
X161048067Y-123751828D01*
X161011666Y-123728727D01*
X160957297Y-123709367D01*
X160847425Y-123670243D01*
X160847420Y-123670242D01*
X160840790Y-123667881D01*
X160833802Y-123667048D01*
X160833799Y-123667047D01*
X160710698Y-123652368D01*
X160660680Y-123646404D01*
X160653677Y-123647140D01*
X160653676Y-123647140D01*
X160487288Y-123664628D01*
X160487286Y-123664629D01*
X160480288Y-123665364D01*
X160308579Y-123723818D01*
X160301419Y-123728223D01*
X160300576Y-123728452D01*
X160296208Y-123730508D01*
X160295847Y-123729741D01*
X160232921Y-123746880D01*
X160165207Y-123725541D01*
X160119779Y-123670981D01*
X160109400Y-123620904D01*
X160109400Y-118225640D01*
X164667463Y-118225640D01*
X164685163Y-118406160D01*
X164742418Y-118578273D01*
X164746065Y-118584295D01*
X164746066Y-118584297D01*
X164824835Y-118714360D01*
X164836380Y-118733424D01*
X164962382Y-118863902D01*
X165114159Y-118963222D01*
X165120763Y-118965678D01*
X165120765Y-118965679D01*
X165277558Y-119023990D01*
X165277560Y-119023990D01*
X165284168Y-119026448D01*
X165367995Y-119037633D01*
X165456980Y-119049507D01*
X165456984Y-119049507D01*
X165463961Y-119050438D01*
X165470972Y-119049800D01*
X165470976Y-119049800D01*
X165613459Y-119036832D01*
X165644600Y-119033998D01*
X165651302Y-119031820D01*
X165651304Y-119031820D01*
X165810409Y-118980124D01*
X165810412Y-118980123D01*
X165817108Y-118977947D01*
X165972912Y-118885069D01*
X166104266Y-118759982D01*
X166204643Y-118608902D01*
X166269055Y-118439338D01*
X166270035Y-118432366D01*
X166293748Y-118263639D01*
X166293748Y-118263636D01*
X166294299Y-118259717D01*
X166294616Y-118237000D01*
X166274397Y-118056745D01*
X166272080Y-118050091D01*
X166217064Y-117892106D01*
X166217062Y-117892103D01*
X166214745Y-117885448D01*
X166126348Y-117743982D01*
X166122359Y-117737598D01*
X166118626Y-117731624D01*
X166113664Y-117726627D01*
X165995778Y-117607915D01*
X165995774Y-117607912D01*
X165990815Y-117602918D01*
X165979697Y-117595862D01*
X165931538Y-117565300D01*
X165837666Y-117505727D01*
X165808463Y-117495328D01*
X165673425Y-117447243D01*
X165673420Y-117447242D01*
X165666790Y-117444881D01*
X165659802Y-117444048D01*
X165659799Y-117444047D01*
X165536698Y-117429368D01*
X165486680Y-117423404D01*
X165479677Y-117424140D01*
X165479676Y-117424140D01*
X165313288Y-117441628D01*
X165313286Y-117441629D01*
X165306288Y-117442364D01*
X165134579Y-117500818D01*
X165118619Y-117510637D01*
X164986095Y-117592166D01*
X164986092Y-117592168D01*
X164980088Y-117595862D01*
X164975053Y-117600793D01*
X164975050Y-117600795D01*
X164855953Y-117717424D01*
X164850493Y-117722771D01*
X164752235Y-117875238D01*
X164749826Y-117881858D01*
X164749824Y-117881861D01*
X164692606Y-118039066D01*
X164690197Y-118045685D01*
X164667463Y-118225640D01*
X160109400Y-118225640D01*
X160109400Y-117209640D01*
X162254463Y-117209640D01*
X162272163Y-117390160D01*
X162329418Y-117562273D01*
X162333065Y-117568295D01*
X162333066Y-117568297D01*
X162357060Y-117607915D01*
X162423380Y-117717424D01*
X162428269Y-117722487D01*
X162428270Y-117722488D01*
X162429141Y-117723390D01*
X162549382Y-117847902D01*
X162601277Y-117881861D01*
X162674745Y-117929937D01*
X162701159Y-117947222D01*
X162707763Y-117949678D01*
X162707765Y-117949679D01*
X162864558Y-118007990D01*
X162864560Y-118007990D01*
X162871168Y-118010448D01*
X162954995Y-118021633D01*
X163043980Y-118033507D01*
X163043984Y-118033507D01*
X163050961Y-118034438D01*
X163057972Y-118033800D01*
X163057976Y-118033800D01*
X163200459Y-118020832D01*
X163231600Y-118017998D01*
X163238302Y-118015820D01*
X163238304Y-118015820D01*
X163397409Y-117964124D01*
X163397412Y-117964123D01*
X163404108Y-117961947D01*
X163532436Y-117885448D01*
X163553860Y-117872677D01*
X163553862Y-117872676D01*
X163559912Y-117869069D01*
X163691266Y-117743982D01*
X163791643Y-117592902D01*
X163820584Y-117516715D01*
X163863473Y-117460137D01*
X163930142Y-117435728D01*
X163982290Y-117443362D01*
X164141168Y-117502448D01*
X164224995Y-117513633D01*
X164313980Y-117525507D01*
X164313984Y-117525507D01*
X164320961Y-117526438D01*
X164327972Y-117525800D01*
X164327976Y-117525800D01*
X164470459Y-117512832D01*
X164501600Y-117509998D01*
X164508302Y-117507820D01*
X164508304Y-117507820D01*
X164667409Y-117456124D01*
X164667412Y-117456123D01*
X164674108Y-117453947D01*
X164770513Y-117396478D01*
X164823860Y-117364677D01*
X164823862Y-117364676D01*
X164829912Y-117361069D01*
X164961266Y-117235982D01*
X165061643Y-117084902D01*
X165121236Y-116928025D01*
X165123555Y-116921920D01*
X165123556Y-116921918D01*
X165126055Y-116915338D01*
X165151299Y-116735717D01*
X165151616Y-116713000D01*
X165131397Y-116532745D01*
X165129080Y-116526091D01*
X165074064Y-116368106D01*
X165074062Y-116368103D01*
X165071745Y-116361448D01*
X164975626Y-116207624D01*
X164970664Y-116202627D01*
X164852778Y-116083915D01*
X164852774Y-116083912D01*
X164847815Y-116078918D01*
X164836697Y-116071862D01*
X164788538Y-116041300D01*
X164694666Y-115981727D01*
X164665463Y-115971328D01*
X164530425Y-115923243D01*
X164530420Y-115923242D01*
X164523790Y-115920881D01*
X164516802Y-115920048D01*
X164516799Y-115920047D01*
X164389896Y-115904915D01*
X164343680Y-115899404D01*
X164336677Y-115900140D01*
X164336676Y-115900140D01*
X164170288Y-115917628D01*
X164170286Y-115917629D01*
X164163288Y-115918364D01*
X163991579Y-115976818D01*
X163985575Y-115980512D01*
X163843090Y-116068169D01*
X163843087Y-116068171D01*
X163837088Y-116071862D01*
X163832056Y-116076790D01*
X163829164Y-116079622D01*
X163826861Y-116080848D01*
X163826502Y-116081129D01*
X163826453Y-116081066D01*
X163766500Y-116112994D01*
X163741005Y-116115600D01*
X163623414Y-116115600D01*
X163606967Y-116114522D01*
X163584188Y-116111523D01*
X163576000Y-116110445D01*
X163536845Y-116115600D01*
X163420047Y-116130977D01*
X163274723Y-116191172D01*
X163149929Y-116286929D01*
X163144901Y-116293482D01*
X163130910Y-116311715D01*
X163120043Y-116324106D01*
X163063958Y-116380191D01*
X163001646Y-116414217D01*
X162988035Y-116416406D01*
X162954232Y-116419959D01*
X162900289Y-116425628D01*
X162900288Y-116425628D01*
X162893288Y-116426364D01*
X162721579Y-116484818D01*
X162715575Y-116488512D01*
X162573095Y-116576166D01*
X162573092Y-116576168D01*
X162567088Y-116579862D01*
X162562053Y-116584793D01*
X162562050Y-116584795D01*
X162442525Y-116701843D01*
X162437493Y-116706771D01*
X162339235Y-116859238D01*
X162336826Y-116865858D01*
X162336824Y-116865861D01*
X162314198Y-116928025D01*
X162277197Y-117029685D01*
X162254463Y-117209640D01*
X160109400Y-117209640D01*
X160109400Y-113780640D01*
X164667463Y-113780640D01*
X164685163Y-113961160D01*
X164742418Y-114133273D01*
X164746065Y-114139295D01*
X164746066Y-114139297D01*
X164756978Y-114157314D01*
X164836380Y-114288424D01*
X164841269Y-114293487D01*
X164841270Y-114293488D01*
X164856357Y-114309111D01*
X164962382Y-114418902D01*
X165114159Y-114518222D01*
X165120763Y-114520678D01*
X165120765Y-114520679D01*
X165277558Y-114578990D01*
X165277560Y-114578990D01*
X165284168Y-114581448D01*
X165367995Y-114592633D01*
X165456980Y-114604507D01*
X165456984Y-114604507D01*
X165463961Y-114605438D01*
X165470972Y-114604800D01*
X165470976Y-114604800D01*
X165613459Y-114591832D01*
X165644600Y-114588998D01*
X165651302Y-114586820D01*
X165651304Y-114586820D01*
X165810409Y-114535124D01*
X165810412Y-114535123D01*
X165817108Y-114532947D01*
X165913513Y-114475478D01*
X165966860Y-114443677D01*
X165966862Y-114443676D01*
X165972912Y-114440069D01*
X166104266Y-114314982D01*
X166204643Y-114163902D01*
X166269055Y-113994338D01*
X166270098Y-113986919D01*
X166293748Y-113818639D01*
X166293748Y-113818636D01*
X166294299Y-113814717D01*
X166294616Y-113792000D01*
X166274397Y-113611745D01*
X166271877Y-113604508D01*
X166217064Y-113447106D01*
X166217062Y-113447103D01*
X166214745Y-113440448D01*
X166118626Y-113286624D01*
X166079691Y-113247416D01*
X165995778Y-113162915D01*
X165995774Y-113162912D01*
X165990815Y-113157918D01*
X165979697Y-113150862D01*
X165926898Y-113117355D01*
X165837666Y-113060727D01*
X165808463Y-113050328D01*
X165673425Y-113002243D01*
X165673420Y-113002242D01*
X165666790Y-112999881D01*
X165659802Y-112999048D01*
X165659799Y-112999047D01*
X165530171Y-112983590D01*
X165486680Y-112978404D01*
X165479677Y-112979140D01*
X165479676Y-112979140D01*
X165313288Y-112996628D01*
X165313286Y-112996629D01*
X165306288Y-112997364D01*
X165134579Y-113055818D01*
X165128575Y-113059512D01*
X164986095Y-113147166D01*
X164986092Y-113147168D01*
X164980088Y-113150862D01*
X164975053Y-113155793D01*
X164975050Y-113155795D01*
X164857577Y-113270834D01*
X164850493Y-113277771D01*
X164752235Y-113430238D01*
X164749826Y-113436858D01*
X164749824Y-113436861D01*
X164695936Y-113584916D01*
X164690197Y-113600685D01*
X164667463Y-113780640D01*
X160109400Y-113780640D01*
X160109400Y-107229051D01*
X160110478Y-107212603D01*
X160113478Y-107189818D01*
X160114556Y-107181631D01*
X160094023Y-107025678D01*
X160037200Y-106888495D01*
X160029611Y-106817905D01*
X160050318Y-106772074D01*
X160048794Y-106771140D01*
X160133224Y-106633361D01*
X160137192Y-106626886D01*
X160188630Y-106465710D01*
X160200138Y-106296917D01*
X160171050Y-106130251D01*
X160167995Y-106123291D01*
X160166569Y-106118569D01*
X160161976Y-106096194D01*
X160153782Y-106023144D01*
X160152997Y-106016145D01*
X160093345Y-105844848D01*
X160077745Y-105819882D01*
X160058600Y-105753114D01*
X160058600Y-104507125D01*
X160078602Y-104439004D01*
X160095505Y-104418030D01*
X160907630Y-103605905D01*
X160969942Y-103571879D01*
X160996725Y-103569000D01*
X161400230Y-103569000D01*
X161464369Y-103586547D01*
X161506279Y-103611332D01*
X161536399Y-103629145D01*
X161544010Y-103631356D01*
X161544012Y-103631357D01*
X161596231Y-103646528D01*
X161696169Y-103675562D01*
X161702574Y-103676066D01*
X161702579Y-103676067D01*
X161731042Y-103678307D01*
X161731050Y-103678307D01*
X161733498Y-103678500D01*
X162332577Y-103678500D01*
X162400698Y-103698502D01*
X162421672Y-103715405D01*
X162758302Y-104052035D01*
X162792328Y-104114347D01*
X162787263Y-104185162D01*
X162776468Y-104207244D01*
X162694698Y-104339899D01*
X162640851Y-104502243D01*
X162640151Y-104509080D01*
X162640150Y-104509082D01*
X162635917Y-104550401D01*
X162630500Y-104603268D01*
X162630500Y-105200732D01*
X162641113Y-105303019D01*
X162643295Y-105309559D01*
X162686204Y-105438171D01*
X162695244Y-105465268D01*
X162785248Y-105610713D01*
X162906298Y-105731552D01*
X162912528Y-105735392D01*
X162912529Y-105735393D01*
X162990755Y-105783612D01*
X163051899Y-105821302D01*
X163214243Y-105875149D01*
X163221080Y-105875849D01*
X163221082Y-105875850D01*
X163262401Y-105880083D01*
X163315268Y-105885500D01*
X163862732Y-105885500D01*
X163865978Y-105885163D01*
X163865982Y-105885163D01*
X163900083Y-105881625D01*
X163965019Y-105874887D01*
X164055056Y-105844848D01*
X164120324Y-105823073D01*
X164120326Y-105823072D01*
X164127268Y-105820756D01*
X164272713Y-105730752D01*
X164278763Y-105724691D01*
X164279511Y-105724282D01*
X164283623Y-105721023D01*
X164284181Y-105721727D01*
X164341043Y-105690611D01*
X164395038Y-105691400D01*
X164395168Y-105691448D01*
X164441532Y-105697634D01*
X164567980Y-105714507D01*
X164567984Y-105714507D01*
X164574961Y-105715438D01*
X164581972Y-105714800D01*
X164581976Y-105714800D01*
X164724459Y-105701832D01*
X164755600Y-105698998D01*
X164762302Y-105696820D01*
X164762304Y-105696820D01*
X164921409Y-105645124D01*
X164921412Y-105645123D01*
X164928108Y-105642947D01*
X165083912Y-105550069D01*
X165215266Y-105424982D01*
X165315643Y-105273902D01*
X165380055Y-105104338D01*
X165405299Y-104924717D01*
X165405616Y-104902000D01*
X165385397Y-104721745D01*
X165373306Y-104687023D01*
X165328064Y-104557106D01*
X165328062Y-104557103D01*
X165325745Y-104550448D01*
X165296476Y-104503608D01*
X165233359Y-104402598D01*
X165229626Y-104396624D01*
X165188850Y-104355562D01*
X165106778Y-104272915D01*
X165106774Y-104272912D01*
X165101815Y-104267918D01*
X164948666Y-104170727D01*
X164872785Y-104143707D01*
X164784425Y-104112243D01*
X164784420Y-104112242D01*
X164777790Y-104109881D01*
X164770802Y-104109048D01*
X164770799Y-104109047D01*
X164647698Y-104094368D01*
X164597680Y-104088404D01*
X164590677Y-104089140D01*
X164590676Y-104089140D01*
X164541561Y-104094302D01*
X164417288Y-104107364D01*
X164410619Y-104109634D01*
X164410616Y-104109635D01*
X164408983Y-104110191D01*
X164407872Y-104110238D01*
X164403739Y-104111147D01*
X164403579Y-104110421D01*
X164338051Y-104113212D01*
X164282748Y-104082002D01*
X164282627Y-104082156D01*
X164281641Y-104081377D01*
X164279353Y-104080086D01*
X164276880Y-104077617D01*
X164271702Y-104072448D01*
X164270974Y-104071999D01*
X164231448Y-104016249D01*
X164224665Y-103979248D01*
X164224562Y-103975975D01*
X164224500Y-103972012D01*
X164224500Y-103944017D01*
X164223992Y-103939994D01*
X164223059Y-103928152D01*
X164221914Y-103891720D01*
X164221665Y-103883795D01*
X164215987Y-103864251D01*
X164211977Y-103844888D01*
X164210420Y-103832560D01*
X164210420Y-103832558D01*
X164209427Y-103824701D01*
X164206511Y-103817337D01*
X164206510Y-103817332D01*
X164193093Y-103783444D01*
X164189248Y-103772215D01*
X164179081Y-103737222D01*
X164176869Y-103729607D01*
X164172830Y-103722777D01*
X164166512Y-103712094D01*
X164157812Y-103694336D01*
X164153239Y-103682785D01*
X164153235Y-103682779D01*
X164150319Y-103675412D01*
X164124234Y-103639509D01*
X164117719Y-103629590D01*
X164099174Y-103598232D01*
X164099171Y-103598228D01*
X164095134Y-103591402D01*
X164080750Y-103577018D01*
X164067909Y-103561984D01*
X164060602Y-103551927D01*
X164055942Y-103545513D01*
X164021750Y-103517227D01*
X164012969Y-103509237D01*
X163818181Y-103314448D01*
X163784156Y-103252136D01*
X163786280Y-103190201D01*
X163803767Y-103130011D01*
X163803768Y-103130007D01*
X163805562Y-103123831D01*
X163806185Y-103115921D01*
X163808307Y-103088958D01*
X163808307Y-103088950D01*
X163808500Y-103086502D01*
X163808500Y-102653498D01*
X163805562Y-102616169D01*
X163763974Y-102473020D01*
X163761357Y-102464012D01*
X163761356Y-102464010D01*
X163759145Y-102456399D01*
X163674453Y-102313193D01*
X163671771Y-102310511D01*
X163646498Y-102246139D01*
X163660400Y-102176516D01*
X163670572Y-102160688D01*
X163674453Y-102156807D01*
X163759145Y-102013601D01*
X163805562Y-101853831D01*
X163806194Y-101845812D01*
X163808307Y-101818958D01*
X163808307Y-101818950D01*
X163808500Y-101816502D01*
X163808500Y-101383498D01*
X163808307Y-101381042D01*
X163806067Y-101352579D01*
X163806066Y-101352574D01*
X163805562Y-101346169D01*
X163759145Y-101186399D01*
X163674453Y-101043193D01*
X163671771Y-101040511D01*
X163646498Y-100976139D01*
X163660400Y-100906516D01*
X163670572Y-100890688D01*
X163674453Y-100886807D01*
X163759145Y-100743601D01*
X163805562Y-100583831D01*
X163808500Y-100546502D01*
X163808500Y-100113498D01*
X163805562Y-100076169D01*
X163762723Y-99928715D01*
X163761357Y-99924012D01*
X163761356Y-99924010D01*
X163759145Y-99916399D01*
X163723541Y-99856196D01*
X163678491Y-99780020D01*
X163678489Y-99780017D01*
X163674453Y-99773193D01*
X163556807Y-99655547D01*
X163549983Y-99651511D01*
X163549980Y-99651509D01*
X163420427Y-99574892D01*
X163420428Y-99574892D01*
X163413601Y-99570855D01*
X163405990Y-99568644D01*
X163405988Y-99568643D01*
X163353769Y-99553472D01*
X163253831Y-99524438D01*
X163247426Y-99523934D01*
X163247421Y-99523933D01*
X163218958Y-99521693D01*
X163218950Y-99521693D01*
X163216502Y-99521500D01*
X161733498Y-99521500D01*
X161731050Y-99521693D01*
X161731042Y-99521693D01*
X161702579Y-99523933D01*
X161702574Y-99523934D01*
X161696169Y-99524438D01*
X161596231Y-99553472D01*
X161544012Y-99568643D01*
X161544010Y-99568644D01*
X161536399Y-99570855D01*
X161529572Y-99574892D01*
X161529573Y-99574892D01*
X161400020Y-99651509D01*
X161400017Y-99651511D01*
X161393193Y-99655547D01*
X161353045Y-99695695D01*
X161290733Y-99729721D01*
X161263950Y-99732600D01*
X160067414Y-99732600D01*
X160050967Y-99731522D01*
X160028188Y-99728523D01*
X160020000Y-99727445D01*
X159980845Y-99732600D01*
X159864047Y-99747977D01*
X159718723Y-99808172D01*
X159593929Y-99903929D01*
X159578659Y-99923829D01*
X159574910Y-99928715D01*
X159564043Y-99941106D01*
X156506910Y-102998239D01*
X156494519Y-103009107D01*
X156478302Y-103021551D01*
X156469729Y-103028129D01*
X156402733Y-103115441D01*
X156373972Y-103152923D01*
X156313777Y-103298247D01*
X156293245Y-103454200D01*
X156294323Y-103462388D01*
X156294323Y-103462389D01*
X156297322Y-103485169D01*
X156298400Y-103501615D01*
X156298400Y-124209386D01*
X156297322Y-124225833D01*
X156293245Y-124256800D01*
X156303277Y-124333000D01*
X156313777Y-124412753D01*
X156373972Y-124558077D01*
X156378999Y-124564629D01*
X156379676Y-124565801D01*
X156396413Y-124634796D01*
X156373192Y-124701888D01*
X156317384Y-124745775D01*
X156270556Y-124754800D01*
X154950466Y-124754800D01*
X154882345Y-124734798D01*
X154835852Y-124681142D01*
X154831475Y-124670238D01*
X154789759Y-124550447D01*
X154784745Y-124536048D01*
X154712470Y-124420383D01*
X154692359Y-124388198D01*
X154688626Y-124382224D01*
X154664102Y-124357528D01*
X154565778Y-124258515D01*
X154565774Y-124258512D01*
X154560815Y-124253518D01*
X154553085Y-124248612D01*
X154485165Y-124205509D01*
X154407666Y-124156327D01*
X154373629Y-124144207D01*
X154243425Y-124097843D01*
X154243420Y-124097842D01*
X154236790Y-124095481D01*
X154229802Y-124094648D01*
X154229799Y-124094647D01*
X154088430Y-124077790D01*
X154056680Y-124074004D01*
X154049677Y-124074740D01*
X154049676Y-124074740D01*
X153883288Y-124092228D01*
X153883286Y-124092229D01*
X153876288Y-124092964D01*
X153704579Y-124151418D01*
X153684667Y-124163668D01*
X153556095Y-124242766D01*
X153556092Y-124242768D01*
X153550088Y-124246462D01*
X153545053Y-124251393D01*
X153545050Y-124251395D01*
X153425525Y-124368443D01*
X153420493Y-124373371D01*
X153322235Y-124525838D01*
X153319826Y-124532458D01*
X153319824Y-124532461D01*
X153265079Y-124682871D01*
X153260197Y-124696285D01*
X153237463Y-124876240D01*
X153238151Y-124883253D01*
X153249039Y-124994305D01*
X153235779Y-125064052D01*
X153186916Y-125115559D01*
X153123640Y-125132600D01*
X145981015Y-125132600D01*
X145912894Y-125112598D01*
X145865466Y-125056843D01*
X145860768Y-125046038D01*
X145788259Y-124879280D01*
X145701891Y-124745775D01*
X145669727Y-124696057D01*
X145669725Y-124696054D01*
X145666919Y-124691717D01*
X145516575Y-124526491D01*
X145512524Y-124523292D01*
X145512520Y-124523288D01*
X145345319Y-124391240D01*
X145345315Y-124391238D01*
X145341264Y-124388038D01*
X145325423Y-124379293D01*
X145241562Y-124333000D01*
X145145694Y-124280078D01*
X145140825Y-124278354D01*
X145140821Y-124278352D01*
X144939992Y-124207235D01*
X144939988Y-124207234D01*
X144935117Y-124205509D01*
X144930024Y-124204602D01*
X144930021Y-124204601D01*
X144720278Y-124167240D01*
X144720272Y-124167239D01*
X144715189Y-124166334D01*
X144641357Y-124165432D01*
X144496986Y-124163668D01*
X144496984Y-124163668D01*
X144491816Y-124163605D01*
X144270996Y-124197395D01*
X144137146Y-124241144D01*
X144098951Y-124253628D01*
X144027987Y-124255779D01*
X143967125Y-124219223D01*
X143935689Y-124155565D01*
X143934884Y-124117416D01*
X143934992Y-124116600D01*
X143946887Y-124026250D01*
X143947921Y-123983942D01*
X143948432Y-123963025D01*
X143948432Y-123963021D01*
X143948514Y-123959660D01*
X143930210Y-123737021D01*
X143875789Y-123520362D01*
X143786712Y-123315500D01*
X143679822Y-123150273D01*
X143668180Y-123132277D01*
X143668178Y-123132274D01*
X143665372Y-123127937D01*
X143515028Y-122962711D01*
X143510977Y-122959512D01*
X143510973Y-122959508D01*
X143343772Y-122827460D01*
X143343768Y-122827458D01*
X143339717Y-122824258D01*
X143304203Y-122804653D01*
X143291499Y-122797640D01*
X152602463Y-122797640D01*
X152620163Y-122978160D01*
X152677418Y-123150273D01*
X152681065Y-123156295D01*
X152681066Y-123156297D01*
X152762666Y-123291035D01*
X152771380Y-123305424D01*
X152776269Y-123310487D01*
X152776270Y-123310488D01*
X152849844Y-123386675D01*
X152897382Y-123435902D01*
X152903278Y-123439760D01*
X153026451Y-123520362D01*
X153049159Y-123535222D01*
X153055763Y-123537678D01*
X153055765Y-123537679D01*
X153212558Y-123595990D01*
X153212560Y-123595990D01*
X153219168Y-123598448D01*
X153287638Y-123607584D01*
X153391980Y-123621507D01*
X153391984Y-123621507D01*
X153398961Y-123622438D01*
X153405972Y-123621800D01*
X153405976Y-123621800D01*
X153562173Y-123607584D01*
X153579600Y-123605998D01*
X153586302Y-123603820D01*
X153586304Y-123603820D01*
X153745409Y-123552124D01*
X153745412Y-123552123D01*
X153752108Y-123549947D01*
X153907912Y-123457069D01*
X154039266Y-123331982D01*
X154139643Y-123180902D01*
X154184547Y-123062693D01*
X154201555Y-123017920D01*
X154201556Y-123017918D01*
X154204055Y-123011338D01*
X154205035Y-123004366D01*
X154228748Y-122835639D01*
X154228748Y-122835636D01*
X154229299Y-122831717D01*
X154229616Y-122809000D01*
X154209397Y-122628745D01*
X154198201Y-122596594D01*
X154194689Y-122525687D01*
X154230070Y-122464135D01*
X154290836Y-122432269D01*
X154295000Y-122431890D01*
X154301694Y-122429715D01*
X154301699Y-122429714D01*
X154460809Y-122378016D01*
X154460812Y-122378015D01*
X154467508Y-122375839D01*
X154577768Y-122310111D01*
X154617260Y-122286569D01*
X154617262Y-122286568D01*
X154623312Y-122282961D01*
X154754666Y-122157874D01*
X154855043Y-122006794D01*
X154919455Y-121837230D01*
X154921927Y-121819639D01*
X154944148Y-121661531D01*
X154944148Y-121661528D01*
X154944699Y-121657609D01*
X154945016Y-121634892D01*
X154924797Y-121454637D01*
X154865145Y-121283340D01*
X154855567Y-121268012D01*
X154794546Y-121170356D01*
X154775400Y-121103587D01*
X154775400Y-114517446D01*
X154795402Y-114449325D01*
X154799736Y-114443439D01*
X154801266Y-114441982D01*
X154901643Y-114290902D01*
X154959233Y-114139297D01*
X154963555Y-114127920D01*
X154963556Y-114127918D01*
X154966055Y-114121338D01*
X154983904Y-113994338D01*
X154990748Y-113945639D01*
X154990748Y-113945636D01*
X154991299Y-113941717D01*
X154991616Y-113919000D01*
X154971397Y-113738745D01*
X154927826Y-113613626D01*
X154924312Y-113542717D01*
X154959694Y-113481164D01*
X155022736Y-113448512D01*
X155063480Y-113447296D01*
X155108809Y-113453344D01*
X155169980Y-113461507D01*
X155169984Y-113461507D01*
X155176961Y-113462438D01*
X155183972Y-113461800D01*
X155183976Y-113461800D01*
X155329977Y-113448512D01*
X155357600Y-113445998D01*
X155364302Y-113443820D01*
X155364304Y-113443820D01*
X155523409Y-113392124D01*
X155523412Y-113392123D01*
X155530108Y-113389947D01*
X155685912Y-113297069D01*
X155817266Y-113171982D01*
X155917643Y-113020902D01*
X155982055Y-112851338D01*
X155983035Y-112844366D01*
X156006748Y-112675639D01*
X156006748Y-112675636D01*
X156007299Y-112671717D01*
X156007616Y-112649000D01*
X155987397Y-112468745D01*
X155984950Y-112461719D01*
X155930064Y-112304106D01*
X155930062Y-112304103D01*
X155927745Y-112297448D01*
X155831626Y-112143624D01*
X155817941Y-112129843D01*
X155708778Y-112019915D01*
X155708774Y-112019912D01*
X155703815Y-112014918D01*
X155692697Y-112007862D01*
X155622380Y-111963238D01*
X155550666Y-111917727D01*
X155521463Y-111907328D01*
X155386425Y-111859243D01*
X155386420Y-111859242D01*
X155379790Y-111856881D01*
X155372802Y-111856048D01*
X155372799Y-111856047D01*
X155249698Y-111841368D01*
X155199680Y-111835404D01*
X155192677Y-111836140D01*
X155192676Y-111836140D01*
X155026288Y-111853628D01*
X155026286Y-111853629D01*
X155019288Y-111854364D01*
X154847579Y-111912818D01*
X154841575Y-111916512D01*
X154699095Y-112004166D01*
X154699092Y-112004168D01*
X154693088Y-112007862D01*
X154678197Y-112022445D01*
X154615535Y-112055815D01*
X154544776Y-112050010D01*
X154539090Y-112047534D01*
X154534666Y-112044727D01*
X154514502Y-112037547D01*
X154370425Y-111986243D01*
X154370420Y-111986242D01*
X154363790Y-111983881D01*
X154356802Y-111983048D01*
X154356799Y-111983047D01*
X154233698Y-111968368D01*
X154183680Y-111962404D01*
X154176677Y-111963140D01*
X154176676Y-111963140D01*
X154010288Y-111980628D01*
X154010286Y-111980629D01*
X154003288Y-111981364D01*
X153831579Y-112039818D01*
X153769109Y-112078250D01*
X153683095Y-112131166D01*
X153683092Y-112131168D01*
X153677088Y-112134862D01*
X153672053Y-112139793D01*
X153672050Y-112139795D01*
X153662040Y-112149598D01*
X153547493Y-112261771D01*
X153449235Y-112414238D01*
X153446826Y-112420858D01*
X153446824Y-112420861D01*
X153425779Y-112478683D01*
X153387197Y-112584685D01*
X153386314Y-112591675D01*
X153372755Y-112699001D01*
X153344373Y-112764077D01*
X153336845Y-112772303D01*
X153154106Y-112955043D01*
X153141713Y-112965911D01*
X153123478Y-112979903D01*
X153123474Y-112979907D01*
X153116929Y-112984929D01*
X153111906Y-112991475D01*
X153094381Y-113014314D01*
X153037976Y-113087823D01*
X153021172Y-113109723D01*
X152960977Y-113255047D01*
X152940445Y-113411000D01*
X152941523Y-113419188D01*
X152941523Y-113419189D01*
X152944522Y-113441969D01*
X152945600Y-113458415D01*
X152945600Y-122085017D01*
X152925598Y-122153138D01*
X152907758Y-122175040D01*
X152793869Y-122286569D01*
X152785493Y-122294771D01*
X152687235Y-122447238D01*
X152684826Y-122453858D01*
X152684824Y-122453861D01*
X152627606Y-122611066D01*
X152625197Y-122617685D01*
X152602463Y-122797640D01*
X143291499Y-122797640D01*
X143252957Y-122776364D01*
X143144147Y-122716298D01*
X143139278Y-122714574D01*
X143139274Y-122714572D01*
X142938445Y-122643455D01*
X142938441Y-122643454D01*
X142933570Y-122641729D01*
X142928477Y-122640822D01*
X142928474Y-122640821D01*
X142718731Y-122603460D01*
X142718725Y-122603459D01*
X142713642Y-122602554D01*
X142639810Y-122601652D01*
X142495439Y-122599888D01*
X142495437Y-122599888D01*
X142490269Y-122599825D01*
X142269449Y-122633615D01*
X142057114Y-122703017D01*
X142026801Y-122718797D01*
X141888781Y-122790646D01*
X141858965Y-122806167D01*
X141854832Y-122809270D01*
X141854829Y-122809272D01*
X141706722Y-122920474D01*
X141680323Y-122940295D01*
X141525987Y-123101798D01*
X141523073Y-123106070D01*
X141523072Y-123106071D01*
X141437914Y-123230909D01*
X141400101Y-123286340D01*
X141384361Y-123320250D01*
X141320852Y-123457069D01*
X141306046Y-123488965D01*
X141246347Y-123704230D01*
X141222609Y-123926355D01*
X139336765Y-123926355D01*
X138834778Y-123355961D01*
X138832072Y-123352781D01*
X138818956Y-123336841D01*
X138650626Y-123132277D01*
X138107998Y-122472844D01*
X138105397Y-122469574D01*
X137410896Y-121566116D01*
X137408405Y-121562762D01*
X137383214Y-121527640D01*
X149300463Y-121527640D01*
X149318163Y-121708160D01*
X149375418Y-121880273D01*
X149379065Y-121886295D01*
X149379066Y-121886297D01*
X149455597Y-122012665D01*
X149469380Y-122035424D01*
X149595382Y-122165902D01*
X149747159Y-122265222D01*
X149753763Y-122267678D01*
X149753765Y-122267679D01*
X149910558Y-122325990D01*
X149910560Y-122325990D01*
X149917168Y-122328448D01*
X150000995Y-122339633D01*
X150089980Y-122351507D01*
X150089984Y-122351507D01*
X150096961Y-122352438D01*
X150103972Y-122351800D01*
X150103976Y-122351800D01*
X150246459Y-122338832D01*
X150277600Y-122335998D01*
X150284302Y-122333820D01*
X150284304Y-122333820D01*
X150443409Y-122282124D01*
X150443412Y-122282123D01*
X150450108Y-122279947D01*
X150605912Y-122187069D01*
X150737266Y-122061982D01*
X150837643Y-121910902D01*
X150902055Y-121741338D01*
X150903035Y-121734366D01*
X150926748Y-121565639D01*
X150926748Y-121565636D01*
X150927299Y-121561717D01*
X150927616Y-121539000D01*
X150907397Y-121358745D01*
X150905080Y-121352091D01*
X150850064Y-121194106D01*
X150850062Y-121194103D01*
X150847745Y-121187448D01*
X150751626Y-121033624D01*
X150737941Y-121019843D01*
X150628778Y-120909915D01*
X150628774Y-120909912D01*
X150623815Y-120904918D01*
X150612697Y-120897862D01*
X150512464Y-120834253D01*
X150470666Y-120807727D01*
X150441463Y-120797328D01*
X150306425Y-120749243D01*
X150306420Y-120749242D01*
X150299790Y-120746881D01*
X150292802Y-120746048D01*
X150292799Y-120746047D01*
X150169698Y-120731368D01*
X150119680Y-120725404D01*
X150112677Y-120726140D01*
X150112676Y-120726140D01*
X149946288Y-120743628D01*
X149946286Y-120743629D01*
X149939288Y-120744364D01*
X149767579Y-120802818D01*
X149705109Y-120841250D01*
X149619095Y-120894166D01*
X149619092Y-120894168D01*
X149613088Y-120897862D01*
X149608053Y-120902793D01*
X149608050Y-120902795D01*
X149488525Y-121019843D01*
X149483493Y-121024771D01*
X149385235Y-121177238D01*
X149382826Y-121183858D01*
X149382824Y-121183861D01*
X149344194Y-121289997D01*
X149323197Y-121347685D01*
X149300463Y-121527640D01*
X137383214Y-121527640D01*
X136744229Y-120636760D01*
X136741851Y-120633325D01*
X136108753Y-119685827D01*
X136106490Y-119682315D01*
X135713367Y-119049507D01*
X135505155Y-118714347D01*
X135503016Y-118710775D01*
X135426670Y-118578273D01*
X134934085Y-117723368D01*
X134932071Y-117719735D01*
X134927631Y-117711401D01*
X134396206Y-116714036D01*
X134394303Y-116710317D01*
X133892082Y-115687416D01*
X133890303Y-115683636D01*
X133801448Y-115486385D01*
X133422255Y-114644609D01*
X133420613Y-114640796D01*
X133405814Y-114604800D01*
X133146824Y-113974884D01*
X141113275Y-113974884D01*
X141113663Y-113979814D01*
X141113663Y-113979817D01*
X141114220Y-113986892D01*
X141131905Y-114211595D01*
X141133059Y-114216402D01*
X141133060Y-114216408D01*
X141163041Y-114341285D01*
X141187335Y-114442478D01*
X141189228Y-114447049D01*
X141189229Y-114447051D01*
X141270280Y-114642726D01*
X141278200Y-114661847D01*
X141280786Y-114666067D01*
X141399681Y-114860086D01*
X141399685Y-114860092D01*
X141402264Y-114864300D01*
X141556471Y-115044853D01*
X141737024Y-115199060D01*
X141741232Y-115201639D01*
X141741238Y-115201643D01*
X141859841Y-115274323D01*
X141939477Y-115323124D01*
X141944047Y-115325017D01*
X141944051Y-115325019D01*
X142154273Y-115412095D01*
X142158846Y-115413989D01*
X142221626Y-115429061D01*
X142384916Y-115468264D01*
X142384922Y-115468265D01*
X142389729Y-115469419D01*
X142626440Y-115488049D01*
X142863151Y-115469419D01*
X142867958Y-115468265D01*
X142867964Y-115468264D01*
X143031254Y-115429061D01*
X143094034Y-115413989D01*
X143098607Y-115412095D01*
X143308829Y-115325019D01*
X143308833Y-115325017D01*
X143313403Y-115323124D01*
X143393039Y-115274323D01*
X143511642Y-115201643D01*
X143511648Y-115201639D01*
X143515856Y-115199060D01*
X143696409Y-115044853D01*
X143850616Y-114864300D01*
X143853195Y-114860092D01*
X143853199Y-114860086D01*
X143972094Y-114666067D01*
X143974680Y-114661847D01*
X143982601Y-114642726D01*
X144063651Y-114447051D01*
X144063652Y-114447049D01*
X144065545Y-114442478D01*
X144089839Y-114341285D01*
X144119820Y-114216408D01*
X144119821Y-114216402D01*
X144120975Y-114211595D01*
X144139605Y-113974884D01*
X144120975Y-113738173D01*
X144117094Y-113722004D01*
X144066700Y-113512102D01*
X144065545Y-113507290D01*
X144055888Y-113483976D01*
X143976575Y-113292495D01*
X143976573Y-113292491D01*
X143974680Y-113287921D01*
X143954535Y-113255047D01*
X143853199Y-113089682D01*
X143853195Y-113089676D01*
X143850616Y-113085468D01*
X143696409Y-112904915D01*
X143515856Y-112750708D01*
X143511648Y-112748129D01*
X143511642Y-112748125D01*
X143317623Y-112629230D01*
X143313403Y-112626644D01*
X143308833Y-112624751D01*
X143308829Y-112624749D01*
X143098607Y-112537673D01*
X143098605Y-112537672D01*
X143094034Y-112535779D01*
X143000265Y-112513267D01*
X142867964Y-112481504D01*
X142867958Y-112481503D01*
X142863151Y-112480349D01*
X142626440Y-112461719D01*
X142389729Y-112480349D01*
X142384922Y-112481503D01*
X142384916Y-112481504D01*
X142252615Y-112513267D01*
X142158846Y-112535779D01*
X142154275Y-112537672D01*
X142154273Y-112537673D01*
X141944051Y-112624749D01*
X141944047Y-112624751D01*
X141939477Y-112626644D01*
X141935257Y-112629230D01*
X141741238Y-112748125D01*
X141741232Y-112748129D01*
X141737024Y-112750708D01*
X141556471Y-112904915D01*
X141402264Y-113085468D01*
X141399685Y-113089676D01*
X141399681Y-113089682D01*
X141298345Y-113255047D01*
X141278200Y-113287921D01*
X141276307Y-113292491D01*
X141276305Y-113292495D01*
X141196992Y-113483976D01*
X141187335Y-113507290D01*
X141186180Y-113512102D01*
X141135787Y-113722004D01*
X141131905Y-113738173D01*
X141113748Y-113968879D01*
X141113275Y-113974884D01*
X133146824Y-113974884D01*
X132987269Y-113586815D01*
X132985753Y-113582946D01*
X132970929Y-113543190D01*
X132712944Y-112851338D01*
X132587616Y-112515237D01*
X132586221Y-112511299D01*
X132365775Y-111854364D01*
X132223677Y-111430906D01*
X132222421Y-111426944D01*
X131895921Y-110335198D01*
X131894790Y-110331176D01*
X131773530Y-109870600D01*
X131604640Y-109229114D01*
X131603660Y-109225118D01*
X131350224Y-108114107D01*
X131349363Y-108110024D01*
X131344777Y-108086318D01*
X131239819Y-107543829D01*
X131132897Y-106991188D01*
X131132172Y-106987073D01*
X131118414Y-106900695D01*
X134273251Y-106900695D01*
X134273548Y-106905848D01*
X134273548Y-106905851D01*
X134279011Y-107000590D01*
X134286110Y-107123715D01*
X134287247Y-107128761D01*
X134287248Y-107128767D01*
X134308275Y-107222069D01*
X134335222Y-107341639D01*
X134419266Y-107548616D01*
X134535987Y-107739088D01*
X134682250Y-107907938D01*
X134686230Y-107911242D01*
X134690981Y-107915187D01*
X134730616Y-107974090D01*
X134732113Y-108045071D01*
X134694997Y-108105593D01*
X134654724Y-108130112D01*
X134539295Y-108173385D01*
X134422739Y-108260739D01*
X134335385Y-108377295D01*
X134284255Y-108513684D01*
X134277500Y-108575866D01*
X134277500Y-110372134D01*
X134284255Y-110434316D01*
X134335385Y-110570705D01*
X134422739Y-110687261D01*
X134539295Y-110774615D01*
X134675684Y-110825745D01*
X134737866Y-110832500D01*
X136534134Y-110832500D01*
X136596316Y-110825745D01*
X136732705Y-110774615D01*
X136849261Y-110687261D01*
X136936615Y-110570705D01*
X136987745Y-110434316D01*
X136994500Y-110372134D01*
X136994500Y-108575866D01*
X136987745Y-108513684D01*
X136936615Y-108377295D01*
X136849261Y-108260739D01*
X136732705Y-108173385D01*
X136720132Y-108168672D01*
X136614203Y-108128960D01*
X136557439Y-108086318D01*
X136532739Y-108019756D01*
X136547947Y-107950408D01*
X136569493Y-107921727D01*
X136670435Y-107821137D01*
X136674096Y-107817489D01*
X136733594Y-107734689D01*
X136801435Y-107640277D01*
X136804453Y-107636077D01*
X136903430Y-107435811D01*
X136968370Y-107222069D01*
X136997529Y-107000590D01*
X136997759Y-106991188D01*
X136999074Y-106937365D01*
X136999074Y-106937361D01*
X136999156Y-106934000D01*
X136980852Y-106711361D01*
X136926431Y-106494702D01*
X136837354Y-106289840D01*
X136797906Y-106228862D01*
X136718822Y-106106617D01*
X136718820Y-106106614D01*
X136716014Y-106102277D01*
X136565670Y-105937051D01*
X136561619Y-105933852D01*
X136561615Y-105933848D01*
X136394414Y-105801800D01*
X136394410Y-105801798D01*
X136390359Y-105798598D01*
X136349053Y-105775796D01*
X136299084Y-105725364D01*
X136284312Y-105655921D01*
X136309428Y-105589516D01*
X136336780Y-105562909D01*
X136380603Y-105531650D01*
X136515860Y-105435173D01*
X136674096Y-105277489D01*
X136680619Y-105268412D01*
X136801435Y-105100277D01*
X136804453Y-105096077D01*
X136869669Y-104964123D01*
X136901136Y-104900453D01*
X136901137Y-104900451D01*
X136903430Y-104895811D01*
X136955379Y-104724828D01*
X136966865Y-104687023D01*
X136966865Y-104687021D01*
X136968370Y-104682069D01*
X136997529Y-104460590D01*
X136997667Y-104454935D01*
X136999074Y-104397365D01*
X136999074Y-104397361D01*
X136999156Y-104394000D01*
X136980852Y-104171361D01*
X136926431Y-103954702D01*
X136837354Y-103749840D01*
X136744238Y-103605905D01*
X136718822Y-103566617D01*
X136718820Y-103566614D01*
X136716014Y-103562277D01*
X136565670Y-103397051D01*
X136561619Y-103393852D01*
X136561615Y-103393848D01*
X136394414Y-103261800D01*
X136394410Y-103261798D01*
X136390359Y-103258598D01*
X136349053Y-103235796D01*
X136299084Y-103185364D01*
X136284312Y-103115921D01*
X136309428Y-103049516D01*
X136336780Y-103022909D01*
X136380603Y-102991650D01*
X136515860Y-102895173D01*
X136674096Y-102737489D01*
X136732675Y-102655968D01*
X136801435Y-102560277D01*
X136804453Y-102556077D01*
X136903430Y-102355811D01*
X136968370Y-102142069D01*
X136997529Y-101920590D01*
X136998199Y-101893155D01*
X136999074Y-101857365D01*
X136999074Y-101857361D01*
X136999156Y-101854000D01*
X136980852Y-101631361D01*
X136926431Y-101414702D01*
X136837354Y-101209840D01*
X136716014Y-101022277D01*
X136565670Y-100857051D01*
X136561619Y-100853852D01*
X136561615Y-100853848D01*
X136394414Y-100721800D01*
X136394410Y-100721798D01*
X136390359Y-100718598D01*
X136349053Y-100695796D01*
X136299084Y-100645364D01*
X136284312Y-100575921D01*
X136309428Y-100509516D01*
X136336780Y-100482909D01*
X136380603Y-100451650D01*
X136515860Y-100355173D01*
X136674096Y-100197489D01*
X136732675Y-100115968D01*
X136801435Y-100020277D01*
X136804453Y-100016077D01*
X136856645Y-99910475D01*
X136901136Y-99820453D01*
X136901137Y-99820451D01*
X136903430Y-99815811D01*
X136968370Y-99602069D01*
X136997529Y-99380590D01*
X136999156Y-99314000D01*
X136980852Y-99091361D01*
X136926431Y-98874702D01*
X136837354Y-98669840D01*
X136716014Y-98482277D01*
X136565670Y-98317051D01*
X136561619Y-98313852D01*
X136561615Y-98313848D01*
X136394414Y-98181800D01*
X136394410Y-98181798D01*
X136390359Y-98178598D01*
X136349053Y-98155796D01*
X136299084Y-98105364D01*
X136284312Y-98035921D01*
X136309428Y-97969516D01*
X136336780Y-97942909D01*
X136380603Y-97911650D01*
X136515860Y-97815173D01*
X136674096Y-97657489D01*
X136733594Y-97574689D01*
X136801435Y-97480277D01*
X136804453Y-97476077D01*
X136820255Y-97444105D01*
X136901136Y-97280453D01*
X136901137Y-97280451D01*
X136903430Y-97275811D01*
X136946882Y-97132793D01*
X136951304Y-97118240D01*
X142925063Y-97118240D01*
X142942763Y-97298760D01*
X143000018Y-97470873D01*
X143003665Y-97476895D01*
X143003666Y-97476897D01*
X143065555Y-97579088D01*
X143093980Y-97626024D01*
X143098869Y-97631087D01*
X143098870Y-97631088D01*
X143127888Y-97661137D01*
X143219982Y-97756502D01*
X143371759Y-97855822D01*
X143378363Y-97858278D01*
X143378365Y-97858279D01*
X143535158Y-97916590D01*
X143535160Y-97916590D01*
X143541768Y-97919048D01*
X143625595Y-97930233D01*
X143714580Y-97942107D01*
X143714584Y-97942107D01*
X143721561Y-97943038D01*
X143728572Y-97942400D01*
X143728576Y-97942400D01*
X143871059Y-97929432D01*
X143902200Y-97926598D01*
X143908902Y-97924420D01*
X143908904Y-97924420D01*
X144068009Y-97872724D01*
X144068012Y-97872723D01*
X144074708Y-97870547D01*
X144230512Y-97777669D01*
X144361866Y-97652582D01*
X144462243Y-97501502D01*
X144526655Y-97331938D01*
X144527635Y-97324966D01*
X144551348Y-97156239D01*
X144551348Y-97156236D01*
X144551899Y-97152317D01*
X144552216Y-97129600D01*
X144531997Y-96949345D01*
X144529680Y-96942691D01*
X144474664Y-96784706D01*
X144474662Y-96784703D01*
X144472345Y-96778048D01*
X144452226Y-96745851D01*
X144379959Y-96630198D01*
X144376226Y-96624224D01*
X144367435Y-96615371D01*
X144253378Y-96500515D01*
X144253374Y-96500512D01*
X144248415Y-96495518D01*
X144237297Y-96488462D01*
X144161156Y-96440142D01*
X144095266Y-96398327D01*
X144047797Y-96381424D01*
X143931025Y-96339843D01*
X143931020Y-96339842D01*
X143924390Y-96337481D01*
X143917402Y-96336648D01*
X143917399Y-96336647D01*
X143794298Y-96321968D01*
X143744280Y-96316004D01*
X143737277Y-96316740D01*
X143737276Y-96316740D01*
X143570888Y-96334228D01*
X143570886Y-96334229D01*
X143563888Y-96334964D01*
X143392179Y-96393418D01*
X143368506Y-96407982D01*
X143243695Y-96484766D01*
X143243692Y-96484768D01*
X143237688Y-96488462D01*
X143232653Y-96493393D01*
X143232650Y-96493395D01*
X143149168Y-96575147D01*
X143108093Y-96615371D01*
X143009835Y-96767838D01*
X143007426Y-96774458D01*
X143007424Y-96774461D01*
X142979625Y-96850838D01*
X142947797Y-96938285D01*
X142925063Y-97118240D01*
X136951304Y-97118240D01*
X136966865Y-97067023D01*
X136966865Y-97067021D01*
X136968370Y-97062069D01*
X136997529Y-96840590D01*
X136998346Y-96807149D01*
X136999074Y-96777365D01*
X136999074Y-96777361D01*
X136999156Y-96774000D01*
X136980852Y-96551361D01*
X136926431Y-96334702D01*
X136837354Y-96129840D01*
X136765678Y-96019046D01*
X136718822Y-95946617D01*
X136718820Y-95946614D01*
X136716014Y-95942277D01*
X136653559Y-95873640D01*
X145871463Y-95873640D01*
X145889163Y-96054160D01*
X145946418Y-96226273D01*
X145950065Y-96232295D01*
X145950066Y-96232297D01*
X146034667Y-96371990D01*
X146040380Y-96381424D01*
X146045269Y-96386487D01*
X146045270Y-96386488D01*
X146114376Y-96458049D01*
X146166382Y-96511902D01*
X146204242Y-96536677D01*
X146263031Y-96575147D01*
X146318159Y-96611222D01*
X146324763Y-96613678D01*
X146324765Y-96613679D01*
X146481558Y-96671990D01*
X146481560Y-96671990D01*
X146488168Y-96674448D01*
X146570765Y-96685469D01*
X146660980Y-96697507D01*
X146660984Y-96697507D01*
X146667961Y-96698438D01*
X146674972Y-96697800D01*
X146674976Y-96697800D01*
X146817459Y-96684832D01*
X146848600Y-96681998D01*
X146855302Y-96679820D01*
X146855304Y-96679820D01*
X147014409Y-96628124D01*
X147014412Y-96628123D01*
X147021108Y-96625947D01*
X147140943Y-96554511D01*
X147170860Y-96536677D01*
X147170862Y-96536676D01*
X147176912Y-96533069D01*
X147308266Y-96407982D01*
X147408643Y-96256902D01*
X147454656Y-96135773D01*
X147470555Y-96093920D01*
X147470556Y-96093918D01*
X147473055Y-96087338D01*
X147474035Y-96080366D01*
X147497748Y-95911639D01*
X147497748Y-95911636D01*
X147498299Y-95907717D01*
X147498475Y-95895123D01*
X147498561Y-95888962D01*
X147498561Y-95888957D01*
X147498616Y-95885000D01*
X147491644Y-95822840D01*
X147878063Y-95822840D01*
X147895763Y-96003360D01*
X147953018Y-96175473D01*
X147956665Y-96181495D01*
X147956666Y-96181497D01*
X148038572Y-96316740D01*
X148046980Y-96330624D01*
X148051869Y-96335687D01*
X148051870Y-96335688D01*
X148116010Y-96402106D01*
X148172982Y-96461102D01*
X148234142Y-96501124D01*
X148317447Y-96555637D01*
X148324759Y-96560422D01*
X148331363Y-96562878D01*
X148331365Y-96562879D01*
X148488158Y-96621190D01*
X148488160Y-96621190D01*
X148494768Y-96623648D01*
X148578595Y-96634833D01*
X148667580Y-96646707D01*
X148667584Y-96646707D01*
X148674561Y-96647638D01*
X148681572Y-96647000D01*
X148681576Y-96647000D01*
X148824059Y-96634032D01*
X148855200Y-96631198D01*
X148861902Y-96629020D01*
X148861904Y-96629020D01*
X149021009Y-96577324D01*
X149021012Y-96577323D01*
X149027708Y-96575147D01*
X149152904Y-96500515D01*
X149177460Y-96485877D01*
X149177462Y-96485876D01*
X149183512Y-96482269D01*
X149314866Y-96357182D01*
X149415243Y-96206102D01*
X149470698Y-96060117D01*
X149477155Y-96043120D01*
X149477156Y-96043118D01*
X149479655Y-96036538D01*
X149480635Y-96029566D01*
X149481131Y-96026040D01*
X151840463Y-96026040D01*
X151858163Y-96206560D01*
X151915418Y-96378673D01*
X151919065Y-96384695D01*
X151919066Y-96384697D01*
X151997125Y-96513588D01*
X152009380Y-96533824D01*
X152014269Y-96538887D01*
X152014270Y-96538888D01*
X152045802Y-96571540D01*
X152135382Y-96664302D01*
X152287159Y-96763622D01*
X152293763Y-96766078D01*
X152293765Y-96766079D01*
X152450558Y-96824390D01*
X152450560Y-96824390D01*
X152457168Y-96826848D01*
X152535051Y-96837240D01*
X152629980Y-96849907D01*
X152629984Y-96849907D01*
X152636961Y-96850838D01*
X152643972Y-96850200D01*
X152643976Y-96850200D01*
X152786459Y-96837232D01*
X152817600Y-96834398D01*
X152824302Y-96832220D01*
X152824304Y-96832220D01*
X152983409Y-96780524D01*
X152983412Y-96780523D01*
X152990108Y-96778347D01*
X153086513Y-96720878D01*
X153139860Y-96689077D01*
X153139862Y-96689076D01*
X153145912Y-96685469D01*
X153214719Y-96619945D01*
X191067768Y-96619945D01*
X191085468Y-96800465D01*
X191142723Y-96972578D01*
X191146370Y-96978600D01*
X191146371Y-96978602D01*
X191226703Y-97111246D01*
X191236685Y-97127729D01*
X191241574Y-97132792D01*
X191241575Y-97132793D01*
X191262332Y-97154287D01*
X191362687Y-97258207D01*
X191400547Y-97282982D01*
X191464706Y-97324966D01*
X191514464Y-97357527D01*
X191521068Y-97359983D01*
X191521070Y-97359984D01*
X191677863Y-97418295D01*
X191677865Y-97418295D01*
X191684473Y-97420753D01*
X191768300Y-97431938D01*
X191857285Y-97443812D01*
X191857289Y-97443812D01*
X191864266Y-97444743D01*
X191871277Y-97444105D01*
X191871281Y-97444105D01*
X192013764Y-97431137D01*
X192044905Y-97428303D01*
X192051607Y-97426125D01*
X192051609Y-97426125D01*
X192210714Y-97374429D01*
X192210717Y-97374428D01*
X192217413Y-97372252D01*
X192340697Y-97298760D01*
X192367165Y-97282982D01*
X192367167Y-97282981D01*
X192373217Y-97279374D01*
X192504571Y-97154287D01*
X192604948Y-97003207D01*
X192669360Y-96833643D01*
X192670340Y-96826671D01*
X192694053Y-96657944D01*
X192694053Y-96657941D01*
X192694604Y-96654022D01*
X192694921Y-96631305D01*
X192674702Y-96451050D01*
X192672385Y-96444396D01*
X192617369Y-96286411D01*
X192617367Y-96286408D01*
X192615050Y-96279753D01*
X192596655Y-96250314D01*
X192522664Y-96131903D01*
X192518931Y-96125929D01*
X192498520Y-96105375D01*
X192396083Y-96002220D01*
X192396079Y-96002217D01*
X192391120Y-95997223D01*
X192380002Y-95990167D01*
X192311377Y-95946617D01*
X192237971Y-95900032D01*
X192184697Y-95881062D01*
X192073730Y-95841548D01*
X192073725Y-95841547D01*
X192067095Y-95839186D01*
X192060107Y-95838353D01*
X192060104Y-95838352D01*
X191930014Y-95822840D01*
X191886985Y-95817709D01*
X191879982Y-95818445D01*
X191879981Y-95818445D01*
X191713593Y-95835933D01*
X191713591Y-95835934D01*
X191706593Y-95836669D01*
X191534884Y-95895123D01*
X191528880Y-95898817D01*
X191386400Y-95986471D01*
X191386397Y-95986473D01*
X191380393Y-95990167D01*
X191375358Y-95995098D01*
X191375355Y-95995100D01*
X191260997Y-96107088D01*
X191250798Y-96117076D01*
X191180426Y-96226273D01*
X191162284Y-96254424D01*
X191152540Y-96269543D01*
X191150131Y-96276163D01*
X191150129Y-96276166D01*
X191101535Y-96409677D01*
X191090502Y-96439990D01*
X191067768Y-96619945D01*
X153214719Y-96619945D01*
X153277266Y-96560382D01*
X153377643Y-96409302D01*
X153434553Y-96259488D01*
X153439555Y-96246320D01*
X153439556Y-96246318D01*
X153442055Y-96239738D01*
X153443784Y-96227434D01*
X153466748Y-96064039D01*
X153466748Y-96064036D01*
X153467299Y-96060117D01*
X153467616Y-96037400D01*
X153447397Y-95857145D01*
X153445080Y-95850491D01*
X153390064Y-95692506D01*
X153390062Y-95692503D01*
X153387745Y-95685848D01*
X153330503Y-95594240D01*
X158647663Y-95594240D01*
X158665363Y-95774760D01*
X158722618Y-95946873D01*
X158726265Y-95952895D01*
X158726266Y-95952897D01*
X158810867Y-96092590D01*
X158816580Y-96102024D01*
X158821469Y-96107087D01*
X158821470Y-96107088D01*
X158845434Y-96131903D01*
X158942582Y-96232502D01*
X158979869Y-96256902D01*
X159070187Y-96316004D01*
X159094359Y-96331822D01*
X159100963Y-96334278D01*
X159100965Y-96334279D01*
X159257758Y-96392590D01*
X159257760Y-96392590D01*
X159264368Y-96395048D01*
X159346965Y-96406069D01*
X159437180Y-96418107D01*
X159437184Y-96418107D01*
X159444161Y-96419038D01*
X159451172Y-96418400D01*
X159451176Y-96418400D01*
X159593659Y-96405432D01*
X159624800Y-96402598D01*
X159631502Y-96400420D01*
X159631504Y-96400420D01*
X159790609Y-96348724D01*
X159790612Y-96348723D01*
X159797308Y-96346547D01*
X159953112Y-96253669D01*
X160084466Y-96128582D01*
X160184843Y-95977502D01*
X160232154Y-95852957D01*
X160246755Y-95814520D01*
X160246756Y-95814518D01*
X160249255Y-95807938D01*
X160250235Y-95800966D01*
X160273948Y-95632239D01*
X160273948Y-95632236D01*
X160274499Y-95628317D01*
X160274816Y-95605600D01*
X160254597Y-95425345D01*
X160251632Y-95416831D01*
X160197264Y-95260706D01*
X160197262Y-95260703D01*
X160194945Y-95254048D01*
X160098826Y-95100224D01*
X160071035Y-95072238D01*
X159975978Y-94976515D01*
X159975974Y-94976512D01*
X159971015Y-94971518D01*
X159959897Y-94964462D01*
X159911738Y-94933900D01*
X159817866Y-94874327D01*
X159788663Y-94863928D01*
X159653625Y-94815843D01*
X159653620Y-94815842D01*
X159646990Y-94813481D01*
X159640002Y-94812648D01*
X159639999Y-94812647D01*
X159516898Y-94797968D01*
X159466880Y-94792004D01*
X159459877Y-94792740D01*
X159459876Y-94792740D01*
X159293488Y-94810228D01*
X159293486Y-94810229D01*
X159286488Y-94810964D01*
X159114779Y-94869418D01*
X159108775Y-94873112D01*
X158966295Y-94960766D01*
X158966292Y-94960768D01*
X158960288Y-94964462D01*
X158955253Y-94969393D01*
X158955250Y-94969395D01*
X158850331Y-95072140D01*
X158830693Y-95091371D01*
X158732435Y-95243838D01*
X158730026Y-95250458D01*
X158730024Y-95250461D01*
X158675161Y-95401195D01*
X158670397Y-95414285D01*
X158647663Y-95594240D01*
X153330503Y-95594240D01*
X153291626Y-95532024D01*
X153282835Y-95523171D01*
X153168778Y-95408315D01*
X153168774Y-95408312D01*
X153163815Y-95403318D01*
X153152697Y-95396262D01*
X153055844Y-95334798D01*
X153010666Y-95306127D01*
X152981463Y-95295728D01*
X152846425Y-95247643D01*
X152846420Y-95247642D01*
X152839790Y-95245281D01*
X152832802Y-95244448D01*
X152832799Y-95244447D01*
X152709698Y-95229768D01*
X152659680Y-95223804D01*
X152652677Y-95224540D01*
X152652676Y-95224540D01*
X152486288Y-95242028D01*
X152486286Y-95242029D01*
X152479288Y-95242764D01*
X152307579Y-95301218D01*
X152294793Y-95309084D01*
X152159095Y-95392566D01*
X152159092Y-95392568D01*
X152153088Y-95396262D01*
X152148053Y-95401193D01*
X152148050Y-95401195D01*
X152031071Y-95515750D01*
X152023493Y-95523171D01*
X151925235Y-95675638D01*
X151922826Y-95682258D01*
X151922824Y-95682261D01*
X151865798Y-95838938D01*
X151863197Y-95846085D01*
X151840463Y-96026040D01*
X149481131Y-96026040D01*
X149504348Y-95860839D01*
X149504348Y-95860836D01*
X149504899Y-95856917D01*
X149505052Y-95845938D01*
X149505161Y-95838162D01*
X149505161Y-95838157D01*
X149505216Y-95834200D01*
X149484997Y-95653945D01*
X149482680Y-95647291D01*
X149427664Y-95489306D01*
X149427662Y-95489303D01*
X149425345Y-95482648D01*
X149393912Y-95432344D01*
X149332959Y-95334798D01*
X149329226Y-95328824D01*
X149310440Y-95309906D01*
X149206378Y-95205115D01*
X149206374Y-95205112D01*
X149201415Y-95200118D01*
X149190297Y-95193062D01*
X149126400Y-95152512D01*
X149048266Y-95102927D01*
X149010918Y-95089628D01*
X148884025Y-95044443D01*
X148884020Y-95044442D01*
X148877390Y-95042081D01*
X148870402Y-95041248D01*
X148870399Y-95041247D01*
X148747298Y-95026568D01*
X148697280Y-95020604D01*
X148690277Y-95021340D01*
X148690276Y-95021340D01*
X148523888Y-95038828D01*
X148523886Y-95038829D01*
X148516888Y-95039564D01*
X148345179Y-95098018D01*
X148284447Y-95135381D01*
X148196695Y-95189366D01*
X148196692Y-95189368D01*
X148190688Y-95193062D01*
X148185653Y-95197993D01*
X148185650Y-95197995D01*
X148075230Y-95306127D01*
X148061093Y-95319971D01*
X147962835Y-95472438D01*
X147960426Y-95479058D01*
X147960424Y-95479061D01*
X147908942Y-95620507D01*
X147900797Y-95642885D01*
X147878063Y-95822840D01*
X147491644Y-95822840D01*
X147478397Y-95704745D01*
X147476080Y-95698091D01*
X147421064Y-95540106D01*
X147421062Y-95540103D01*
X147418745Y-95533448D01*
X147335073Y-95399543D01*
X147326359Y-95385598D01*
X147322626Y-95379624D01*
X147278112Y-95334798D01*
X147199778Y-95255915D01*
X147199774Y-95255912D01*
X147194815Y-95250918D01*
X147185933Y-95245281D01*
X147097824Y-95189366D01*
X147041666Y-95153727D01*
X146998502Y-95138357D01*
X146877425Y-95095243D01*
X146877420Y-95095242D01*
X146870790Y-95092881D01*
X146863802Y-95092048D01*
X146863799Y-95092047D01*
X146740698Y-95077368D01*
X146690680Y-95071404D01*
X146683677Y-95072140D01*
X146683676Y-95072140D01*
X146517288Y-95089628D01*
X146517286Y-95089629D01*
X146510288Y-95090364D01*
X146338579Y-95148818D01*
X146332575Y-95152512D01*
X146190095Y-95240166D01*
X146190092Y-95240168D01*
X146184088Y-95243862D01*
X146179053Y-95248793D01*
X146179050Y-95248795D01*
X146091227Y-95334798D01*
X146054493Y-95370771D01*
X145956235Y-95523238D01*
X145953826Y-95529858D01*
X145953824Y-95529861D01*
X145898355Y-95682261D01*
X145894197Y-95693685D01*
X145871463Y-95873640D01*
X136653559Y-95873640D01*
X136565670Y-95777051D01*
X136561619Y-95773852D01*
X136561615Y-95773848D01*
X136394414Y-95641800D01*
X136394410Y-95641798D01*
X136390359Y-95638598D01*
X136364562Y-95624357D01*
X136310004Y-95594240D01*
X136194789Y-95530638D01*
X136189920Y-95528914D01*
X136189916Y-95528912D01*
X135989087Y-95457795D01*
X135989083Y-95457794D01*
X135984212Y-95456069D01*
X135979119Y-95455162D01*
X135979116Y-95455161D01*
X135769373Y-95417800D01*
X135769367Y-95417799D01*
X135764284Y-95416894D01*
X135690452Y-95415992D01*
X135546081Y-95414228D01*
X135546079Y-95414228D01*
X135540911Y-95414165D01*
X135320091Y-95447955D01*
X135107756Y-95517357D01*
X135079581Y-95532024D01*
X134946594Y-95601253D01*
X134909607Y-95620507D01*
X134905474Y-95623610D01*
X134905471Y-95623612D01*
X134741613Y-95746640D01*
X134730965Y-95754635D01*
X134686690Y-95800966D01*
X134588461Y-95903757D01*
X134576629Y-95916138D01*
X134450743Y-96100680D01*
X134419128Y-96168790D01*
X134372360Y-96269543D01*
X134356688Y-96303305D01*
X134296989Y-96518570D01*
X134296440Y-96523707D01*
X134295959Y-96528211D01*
X134273251Y-96740695D01*
X134273548Y-96745848D01*
X134273548Y-96745851D01*
X134278990Y-96840225D01*
X134286110Y-96963715D01*
X134287247Y-96968761D01*
X134287248Y-96968767D01*
X134293525Y-96996619D01*
X134335222Y-97181639D01*
X134419266Y-97388616D01*
X134443586Y-97428303D01*
X134532919Y-97574081D01*
X134535987Y-97579088D01*
X134682250Y-97747938D01*
X134854126Y-97890632D01*
X134915675Y-97926598D01*
X134927445Y-97933476D01*
X134976169Y-97985114D01*
X134989240Y-98054897D01*
X134962509Y-98120669D01*
X134922055Y-98154027D01*
X134909607Y-98160507D01*
X134905474Y-98163610D01*
X134905471Y-98163612D01*
X134735100Y-98291530D01*
X134730965Y-98294635D01*
X134576629Y-98456138D01*
X134450743Y-98640680D01*
X134356688Y-98843305D01*
X134296989Y-99058570D01*
X134273251Y-99280695D01*
X134273548Y-99285848D01*
X134273548Y-99285851D01*
X134279011Y-99380590D01*
X134286110Y-99503715D01*
X134287247Y-99508761D01*
X134287248Y-99508767D01*
X134304909Y-99587130D01*
X134335222Y-99721639D01*
X134373461Y-99815811D01*
X134411903Y-99910482D01*
X134419266Y-99928616D01*
X134535987Y-100119088D01*
X134682250Y-100287938D01*
X134854126Y-100430632D01*
X134924595Y-100471811D01*
X134927445Y-100473476D01*
X134976169Y-100525114D01*
X134989240Y-100594897D01*
X134962509Y-100660669D01*
X134922055Y-100694027D01*
X134909607Y-100700507D01*
X134905474Y-100703610D01*
X134905471Y-100703612D01*
X134735100Y-100831530D01*
X134730965Y-100834635D01*
X134727393Y-100838373D01*
X134595741Y-100976139D01*
X134576629Y-100996138D01*
X134573715Y-101000410D01*
X134573714Y-101000411D01*
X134544530Y-101043193D01*
X134450743Y-101180680D01*
X134356688Y-101383305D01*
X134296989Y-101598570D01*
X134273251Y-101820695D01*
X134273548Y-101825848D01*
X134273548Y-101825851D01*
X134279011Y-101920590D01*
X134286110Y-102043715D01*
X134287247Y-102048761D01*
X134287248Y-102048767D01*
X134288139Y-102052720D01*
X134335222Y-102261639D01*
X134373461Y-102355811D01*
X134410168Y-102446209D01*
X134419266Y-102468616D01*
X134535987Y-102659088D01*
X134682250Y-102827938D01*
X134854126Y-102970632D01*
X134901370Y-102998239D01*
X134927445Y-103013476D01*
X134976169Y-103065114D01*
X134989240Y-103134897D01*
X134962509Y-103200669D01*
X134922055Y-103234027D01*
X134909607Y-103240507D01*
X134905474Y-103243610D01*
X134905471Y-103243612D01*
X134735100Y-103371530D01*
X134730965Y-103374635D01*
X134727393Y-103378373D01*
X134612644Y-103498451D01*
X134576629Y-103536138D01*
X134573715Y-103540410D01*
X134573714Y-103540411D01*
X134544093Y-103583834D01*
X134450743Y-103720680D01*
X134424172Y-103777923D01*
X134363009Y-103909688D01*
X134356688Y-103923305D01*
X134296989Y-104138570D01*
X134273251Y-104360695D01*
X134273548Y-104365848D01*
X134273548Y-104365851D01*
X134279011Y-104460590D01*
X134286110Y-104583715D01*
X134287247Y-104588761D01*
X134287248Y-104588767D01*
X134307119Y-104676939D01*
X134335222Y-104801639D01*
X134419266Y-105008616D01*
X134535987Y-105199088D01*
X134682250Y-105367938D01*
X134854126Y-105510632D01*
X134913301Y-105545211D01*
X134927445Y-105553476D01*
X134976169Y-105605114D01*
X134989240Y-105674897D01*
X134962509Y-105740669D01*
X134922055Y-105774027D01*
X134909607Y-105780507D01*
X134905474Y-105783610D01*
X134905471Y-105783612D01*
X134770218Y-105885163D01*
X134730965Y-105914635D01*
X134576629Y-106076138D01*
X134573715Y-106080410D01*
X134573714Y-106080411D01*
X134539716Y-106130251D01*
X134450743Y-106260680D01*
X134430406Y-106304493D01*
X134359091Y-106458129D01*
X134356688Y-106463305D01*
X134296989Y-106678570D01*
X134273251Y-106900695D01*
X131118414Y-106900695D01*
X131017220Y-106265375D01*
X130952926Y-105861717D01*
X130952340Y-105857601D01*
X130951576Y-105851505D01*
X130810501Y-104726891D01*
X130810050Y-104722739D01*
X130797740Y-104588767D01*
X130705781Y-103587986D01*
X130705468Y-103583834D01*
X130704659Y-103570003D01*
X130638877Y-102446199D01*
X130638702Y-102442034D01*
X130636520Y-102355811D01*
X130628638Y-102044461D01*
X130609866Y-101302834D01*
X130609830Y-101298656D01*
X130618780Y-100159157D01*
X130618882Y-100154981D01*
X130665607Y-99016403D01*
X130665847Y-99012231D01*
X130750299Y-97875788D01*
X130750678Y-97871627D01*
X130872761Y-96738628D01*
X130873278Y-96734482D01*
X130880210Y-96685469D01*
X131032857Y-95606168D01*
X131033506Y-95602066D01*
X131040874Y-95560066D01*
X131230414Y-94479618D01*
X131231199Y-94475541D01*
X131231348Y-94474834D01*
X131465215Y-93360236D01*
X131466135Y-93356187D01*
X131468231Y-93347624D01*
X131564883Y-92952640D01*
X156031463Y-92952640D01*
X156049163Y-93133160D01*
X156106418Y-93305273D01*
X156110065Y-93311295D01*
X156110066Y-93311297D01*
X156139720Y-93360261D01*
X156200380Y-93460424D01*
X156205269Y-93465487D01*
X156205270Y-93465488D01*
X156209267Y-93469627D01*
X156326382Y-93590902D01*
X156478159Y-93690222D01*
X156484763Y-93692678D01*
X156484765Y-93692679D01*
X156641558Y-93750990D01*
X156641560Y-93750990D01*
X156648168Y-93753448D01*
X156731995Y-93764633D01*
X156820980Y-93776507D01*
X156820984Y-93776507D01*
X156827961Y-93777438D01*
X156834972Y-93776800D01*
X156834976Y-93776800D01*
X156977459Y-93763832D01*
X157008600Y-93760998D01*
X157015300Y-93758821D01*
X157015305Y-93758820D01*
X157172559Y-93707725D01*
X157243527Y-93705698D01*
X157304325Y-93742360D01*
X157335650Y-93806073D01*
X157337483Y-93829320D01*
X157337409Y-93834646D01*
X157336525Y-93841640D01*
X157354225Y-94022160D01*
X157411480Y-94194273D01*
X157415127Y-94200295D01*
X157415128Y-94200297D01*
X157492042Y-94327297D01*
X157505442Y-94349424D01*
X157510331Y-94354487D01*
X157510332Y-94354488D01*
X157525419Y-94370111D01*
X157631444Y-94479902D01*
X157783221Y-94579222D01*
X157789825Y-94581678D01*
X157789827Y-94581679D01*
X157946620Y-94639990D01*
X157946622Y-94639990D01*
X157953230Y-94642448D01*
X158037057Y-94653633D01*
X158126042Y-94665507D01*
X158126046Y-94665507D01*
X158133023Y-94666438D01*
X158140034Y-94665800D01*
X158140038Y-94665800D01*
X158282521Y-94652832D01*
X158313662Y-94649998D01*
X158320364Y-94647820D01*
X158320366Y-94647820D01*
X158479471Y-94596124D01*
X158479474Y-94596123D01*
X158486170Y-94593947D01*
X158641974Y-94501069D01*
X158773328Y-94375982D01*
X158873705Y-94224902D01*
X158938117Y-94055338D01*
X158939097Y-94048366D01*
X158962810Y-93879639D01*
X158962810Y-93879636D01*
X158963361Y-93875717D01*
X158963678Y-93853000D01*
X158943459Y-93672745D01*
X158941142Y-93666091D01*
X158886126Y-93508106D01*
X158886124Y-93508103D01*
X158883807Y-93501448D01*
X158787688Y-93347624D01*
X158738995Y-93298590D01*
X158664840Y-93223915D01*
X158664836Y-93223912D01*
X158659877Y-93218918D01*
X158648759Y-93211862D01*
X158578442Y-93167238D01*
X158506728Y-93121727D01*
X158472764Y-93109633D01*
X158342487Y-93063243D01*
X158342482Y-93063242D01*
X158335852Y-93060881D01*
X158328864Y-93060048D01*
X158328861Y-93060047D01*
X158205760Y-93045368D01*
X158155742Y-93039404D01*
X158148739Y-93040140D01*
X158148738Y-93040140D01*
X157982350Y-93057628D01*
X157982348Y-93057629D01*
X157975350Y-93058364D01*
X157824747Y-93109633D01*
X157753815Y-93112651D01*
X157692511Y-93076841D01*
X157660299Y-93013572D01*
X157658843Y-92986725D01*
X157658299Y-92986717D01*
X157658561Y-92967962D01*
X157658561Y-92967957D01*
X157658616Y-92964000D01*
X157638397Y-92783745D01*
X157636080Y-92777091D01*
X157581064Y-92619106D01*
X157581062Y-92619103D01*
X157578745Y-92612448D01*
X157482626Y-92458624D01*
X157468941Y-92444843D01*
X157359778Y-92334915D01*
X157359774Y-92334912D01*
X157354815Y-92329918D01*
X157343697Y-92322862D01*
X157295538Y-92292300D01*
X157201666Y-92232727D01*
X157172463Y-92222328D01*
X157037425Y-92174243D01*
X157037420Y-92174242D01*
X157030790Y-92171881D01*
X157023802Y-92171048D01*
X157023799Y-92171047D01*
X156900698Y-92156368D01*
X156850680Y-92150404D01*
X156843677Y-92151140D01*
X156843676Y-92151140D01*
X156677288Y-92168628D01*
X156677286Y-92168629D01*
X156670288Y-92169364D01*
X156498579Y-92227818D01*
X156492575Y-92231512D01*
X156350095Y-92319166D01*
X156350092Y-92319168D01*
X156344088Y-92322862D01*
X156339053Y-92327793D01*
X156339050Y-92327795D01*
X156219525Y-92444843D01*
X156214493Y-92449771D01*
X156116235Y-92602238D01*
X156113826Y-92608858D01*
X156113824Y-92608861D01*
X156056606Y-92766066D01*
X156054197Y-92772685D01*
X156031463Y-92952640D01*
X131564883Y-92952640D01*
X131649590Y-92606469D01*
X131736985Y-92249317D01*
X131738045Y-92245275D01*
X132027796Y-91210990D01*
X132045458Y-91147942D01*
X132046650Y-91143946D01*
X132105647Y-90957400D01*
X132390265Y-90057446D01*
X132391584Y-90053502D01*
X132771054Y-88978931D01*
X132772505Y-88975032D01*
X132797699Y-88910581D01*
X133024342Y-88330768D01*
X133187363Y-87913717D01*
X133188948Y-87909851D01*
X133638787Y-86862821D01*
X133640500Y-86859010D01*
X133767355Y-86588818D01*
X134124799Y-85827487D01*
X134126631Y-85823747D01*
X134160100Y-85758202D01*
X134644878Y-84808821D01*
X134646831Y-84805149D01*
X135198421Y-83808004D01*
X135200492Y-83804401D01*
X135211306Y-83786297D01*
X135784875Y-82826032D01*
X135787043Y-82822536D01*
X136403529Y-81864100D01*
X136405839Y-81860636D01*
X136429038Y-81827071D01*
X137053747Y-80923193D01*
X137056179Y-80919796D01*
X137078712Y-80889400D01*
X140056500Y-80889400D01*
X140056837Y-80892646D01*
X140056837Y-80892650D01*
X140065874Y-80979744D01*
X140067474Y-80995166D01*
X140069655Y-81001702D01*
X140069655Y-81001704D01*
X140109243Y-81120364D01*
X140123450Y-81162946D01*
X140216522Y-81313348D01*
X140341697Y-81438305D01*
X140347927Y-81442145D01*
X140347928Y-81442146D01*
X140482741Y-81525246D01*
X140492262Y-81531115D01*
X140517036Y-81539332D01*
X140653611Y-81584632D01*
X140653613Y-81584632D01*
X140660139Y-81586797D01*
X140666975Y-81587497D01*
X140666978Y-81587498D01*
X140710031Y-81591909D01*
X140764600Y-81597500D01*
X142253599Y-81597500D01*
X142321720Y-81617502D01*
X142368213Y-81671158D01*
X142378317Y-81741432D01*
X142348823Y-81806012D01*
X142341770Y-81813510D01*
X142244493Y-81908771D01*
X142146235Y-82061238D01*
X142143826Y-82067858D01*
X142143824Y-82067861D01*
X142120941Y-82130731D01*
X142084197Y-82231685D01*
X142061463Y-82411640D01*
X142079163Y-82592160D01*
X142136418Y-82764273D01*
X142140065Y-82770295D01*
X142140066Y-82770297D01*
X142210226Y-82886145D01*
X142230380Y-82919424D01*
X142235269Y-82924487D01*
X142235270Y-82924488D01*
X142241262Y-82930693D01*
X142356382Y-83049902D01*
X142362278Y-83053760D01*
X142475232Y-83127675D01*
X142508159Y-83149222D01*
X142514763Y-83151678D01*
X142514765Y-83151679D01*
X142671558Y-83209990D01*
X142671560Y-83209990D01*
X142678168Y-83212448D01*
X142771401Y-83224888D01*
X142803265Y-83229140D01*
X142868142Y-83257976D01*
X142907130Y-83317309D01*
X142912600Y-83354033D01*
X142912600Y-83589417D01*
X142911522Y-83605864D01*
X142907445Y-83636831D01*
X142912600Y-83675986D01*
X142927977Y-83792784D01*
X142988172Y-83938108D01*
X143005023Y-83960069D01*
X143073523Y-84049340D01*
X143083929Y-84062902D01*
X143090482Y-84067930D01*
X143108715Y-84081921D01*
X143121106Y-84092788D01*
X143278238Y-84249920D01*
X143312264Y-84312232D01*
X143307199Y-84383047D01*
X143264652Y-84439883D01*
X143229748Y-84458292D01*
X143206127Y-84466334D01*
X143170252Y-84478546D01*
X143170249Y-84478547D01*
X143163579Y-84480818D01*
X143157575Y-84484512D01*
X143015095Y-84572166D01*
X143015092Y-84572168D01*
X143009088Y-84575862D01*
X143004053Y-84580793D01*
X143004050Y-84580795D01*
X142887649Y-84694784D01*
X142879493Y-84702771D01*
X142781235Y-84855238D01*
X142778826Y-84861858D01*
X142778824Y-84861861D01*
X142721606Y-85019066D01*
X142719197Y-85025685D01*
X142696463Y-85205640D01*
X142714163Y-85386160D01*
X142771418Y-85558273D01*
X142775065Y-85564295D01*
X142775066Y-85564297D01*
X142791185Y-85590912D01*
X142865380Y-85713424D01*
X142870269Y-85718487D01*
X142870270Y-85718488D01*
X142885357Y-85734111D01*
X142991382Y-85843902D01*
X143143159Y-85943222D01*
X143149763Y-85945678D01*
X143149765Y-85945679D01*
X143306558Y-86003990D01*
X143306560Y-86003990D01*
X143313168Y-86006448D01*
X143396995Y-86017633D01*
X143485980Y-86029507D01*
X143485984Y-86029507D01*
X143492961Y-86030438D01*
X143499972Y-86029800D01*
X143499976Y-86029800D01*
X143642459Y-86016832D01*
X143673600Y-86013998D01*
X143680302Y-86011820D01*
X143680304Y-86011820D01*
X143839409Y-85960124D01*
X143839412Y-85960123D01*
X143846108Y-85957947D01*
X144001912Y-85865069D01*
X144133266Y-85739982D01*
X144233643Y-85588902D01*
X144270076Y-85492992D01*
X144312965Y-85436414D01*
X144379633Y-85412005D01*
X144448915Y-85427515D01*
X144476959Y-85448641D01*
X147479008Y-88450690D01*
X147489876Y-88463081D01*
X147508898Y-88487871D01*
X147633692Y-88583628D01*
X147779016Y-88643823D01*
X147934969Y-88664355D01*
X147943157Y-88663277D01*
X147943158Y-88663277D01*
X147965938Y-88660278D01*
X147982384Y-88659200D01*
X147991328Y-88659200D01*
X148059449Y-88679202D01*
X148105942Y-88732858D01*
X148116046Y-88803132D01*
X148086552Y-88867712D01*
X148031204Y-88904724D01*
X147999054Y-88915450D01*
X147848652Y-89008522D01*
X147723695Y-89133697D01*
X147719854Y-89139928D01*
X147719852Y-89139931D01*
X147698719Y-89174215D01*
X147645947Y-89221709D01*
X147575876Y-89233133D01*
X147510752Y-89204859D01*
X147484315Y-89174404D01*
X147462982Y-89139931D01*
X147458478Y-89132652D01*
X147451293Y-89125479D01*
X147338483Y-89012866D01*
X147333303Y-89007695D01*
X147280314Y-88975032D01*
X147188968Y-88918725D01*
X147188966Y-88918724D01*
X147182738Y-88914885D01*
X147102995Y-88888436D01*
X147021389Y-88861368D01*
X147021387Y-88861368D01*
X147014861Y-88859203D01*
X147008025Y-88858503D01*
X147008022Y-88858502D01*
X146964969Y-88854091D01*
X146910400Y-88848500D01*
X145859600Y-88848500D01*
X145856354Y-88848837D01*
X145856350Y-88848837D01*
X145760692Y-88858762D01*
X145760688Y-88858763D01*
X145753834Y-88859474D01*
X145747298Y-88861655D01*
X145747296Y-88861655D01*
X145618204Y-88904724D01*
X145586054Y-88915450D01*
X145435652Y-89008522D01*
X145310695Y-89133697D01*
X145306855Y-89139927D01*
X145306854Y-89139928D01*
X145245915Y-89238789D01*
X145193142Y-89286282D01*
X145123071Y-89297706D01*
X145057947Y-89269432D01*
X145031511Y-89238976D01*
X145031396Y-89238789D01*
X144964478Y-89130652D01*
X144839303Y-89005695D01*
X144699155Y-88919306D01*
X144694968Y-88916725D01*
X144694966Y-88916724D01*
X144688738Y-88912885D01*
X144542448Y-88864363D01*
X144527389Y-88859368D01*
X144527387Y-88859368D01*
X144520861Y-88857203D01*
X144514025Y-88856503D01*
X144514022Y-88856502D01*
X144470969Y-88852091D01*
X144416400Y-88846500D01*
X143365600Y-88846500D01*
X143362354Y-88846837D01*
X143362350Y-88846837D01*
X143266692Y-88856762D01*
X143266688Y-88856763D01*
X143259834Y-88857474D01*
X143253298Y-88859655D01*
X143253296Y-88859655D01*
X143121194Y-88903728D01*
X143092054Y-88913450D01*
X142941652Y-89006522D01*
X142936479Y-89011704D01*
X142874839Y-89073451D01*
X142816695Y-89131697D01*
X142812855Y-89137927D01*
X142812854Y-89137928D01*
X142731794Y-89269432D01*
X142723885Y-89282262D01*
X142704856Y-89339633D01*
X142672587Y-89436923D01*
X142668203Y-89450139D01*
X142667502Y-89456978D01*
X142667502Y-89456979D01*
X142660424Y-89526057D01*
X142653481Y-89556309D01*
X142604271Y-89691512D01*
X142592197Y-89724685D01*
X142569463Y-89904640D01*
X142587163Y-90085160D01*
X142644418Y-90257273D01*
X142648067Y-90263298D01*
X142687797Y-90328900D01*
X142699545Y-90354296D01*
X142724450Y-90428946D01*
X142817522Y-90579348D01*
X142822704Y-90584521D01*
X142831358Y-90593160D01*
X142942697Y-90704305D01*
X142948927Y-90708145D01*
X142948928Y-90708146D01*
X143086090Y-90792694D01*
X143093262Y-90797115D01*
X143107306Y-90801773D01*
X143254611Y-90850632D01*
X143254613Y-90850632D01*
X143261139Y-90852797D01*
X143267975Y-90853497D01*
X143267978Y-90853498D01*
X143310710Y-90857876D01*
X143365600Y-90863500D01*
X144416400Y-90863500D01*
X144419646Y-90863163D01*
X144419650Y-90863163D01*
X144515308Y-90853238D01*
X144515312Y-90853237D01*
X144522166Y-90852526D01*
X144528702Y-90850345D01*
X144528704Y-90850345D01*
X144677003Y-90800868D01*
X144689946Y-90796550D01*
X144840348Y-90703478D01*
X144965305Y-90578303D01*
X144989165Y-90539596D01*
X145030085Y-90473211D01*
X145082858Y-90425718D01*
X145152929Y-90414294D01*
X145218053Y-90442568D01*
X145244488Y-90473023D01*
X145311522Y-90581348D01*
X145436697Y-90706305D01*
X145442927Y-90710145D01*
X145442928Y-90710146D01*
X145580090Y-90794694D01*
X145587262Y-90799115D01*
X145595276Y-90801773D01*
X145748611Y-90852632D01*
X145748613Y-90852632D01*
X145755139Y-90854797D01*
X145761975Y-90855497D01*
X145761978Y-90855498D01*
X145804700Y-90859875D01*
X145859600Y-90865500D01*
X146910400Y-90865500D01*
X146913646Y-90865163D01*
X146913650Y-90865163D01*
X147009308Y-90855238D01*
X147009312Y-90855237D01*
X147016166Y-90854526D01*
X147022702Y-90852345D01*
X147022704Y-90852345D01*
X147154806Y-90808272D01*
X147183946Y-90798550D01*
X147334348Y-90705478D01*
X147341518Y-90698296D01*
X147454134Y-90585483D01*
X147459305Y-90580303D01*
X147484280Y-90539785D01*
X147537053Y-90492291D01*
X147607124Y-90480867D01*
X147672248Y-90509141D01*
X147698685Y-90539596D01*
X147724522Y-90581348D01*
X147849697Y-90706305D01*
X147855927Y-90710145D01*
X147855928Y-90710146D01*
X147993090Y-90794694D01*
X148000262Y-90799115D01*
X148008276Y-90801773D01*
X148161611Y-90852632D01*
X148161613Y-90852632D01*
X148168139Y-90854797D01*
X148174975Y-90855497D01*
X148174978Y-90855498D01*
X148217700Y-90859875D01*
X148272600Y-90865500D01*
X149323400Y-90865500D01*
X149326646Y-90865163D01*
X149326650Y-90865163D01*
X149422308Y-90855238D01*
X149422312Y-90855237D01*
X149429166Y-90854526D01*
X149435702Y-90852345D01*
X149435704Y-90852345D01*
X149567806Y-90808272D01*
X149596946Y-90798550D01*
X149747348Y-90705478D01*
X149753681Y-90699134D01*
X149851753Y-90600891D01*
X149914036Y-90566812D01*
X149984856Y-90571815D01*
X150029944Y-90600736D01*
X150135697Y-90706305D01*
X150141927Y-90710145D01*
X150141928Y-90710146D01*
X150279090Y-90794694D01*
X150286262Y-90799115D01*
X150294276Y-90801773D01*
X150447611Y-90852632D01*
X150447613Y-90852632D01*
X150454139Y-90854797D01*
X150460975Y-90855497D01*
X150460978Y-90855498D01*
X150503700Y-90859875D01*
X150558600Y-90865500D01*
X151609400Y-90865500D01*
X151612646Y-90865163D01*
X151612650Y-90865163D01*
X151708308Y-90855238D01*
X151708312Y-90855237D01*
X151715166Y-90854526D01*
X151721702Y-90852345D01*
X151721704Y-90852345D01*
X151853806Y-90808272D01*
X151882946Y-90798550D01*
X152033348Y-90705478D01*
X152039681Y-90699134D01*
X152137753Y-90600891D01*
X152200036Y-90566812D01*
X152270856Y-90571815D01*
X152315944Y-90600736D01*
X152421697Y-90706305D01*
X152427927Y-90710145D01*
X152427928Y-90710146D01*
X152565090Y-90794694D01*
X152572262Y-90799115D01*
X152580276Y-90801773D01*
X152733611Y-90852632D01*
X152733613Y-90852632D01*
X152740139Y-90854797D01*
X152746975Y-90855497D01*
X152746978Y-90855498D01*
X152789700Y-90859875D01*
X152844600Y-90865500D01*
X153895400Y-90865500D01*
X153898646Y-90865163D01*
X153898650Y-90865163D01*
X153994308Y-90855238D01*
X153994312Y-90855237D01*
X154001166Y-90854526D01*
X154007702Y-90852345D01*
X154007704Y-90852345D01*
X154139806Y-90808272D01*
X154168946Y-90798550D01*
X154319348Y-90705478D01*
X154325681Y-90699134D01*
X154423753Y-90600891D01*
X154486036Y-90566812D01*
X154556856Y-90571815D01*
X154601944Y-90600736D01*
X154707697Y-90706305D01*
X154713927Y-90710145D01*
X154713928Y-90710146D01*
X154851090Y-90794694D01*
X154858262Y-90799115D01*
X154866276Y-90801773D01*
X155019611Y-90852632D01*
X155019613Y-90852632D01*
X155026139Y-90854797D01*
X155032975Y-90855497D01*
X155032978Y-90855498D01*
X155075700Y-90859875D01*
X155130600Y-90865500D01*
X156181400Y-90865500D01*
X156184646Y-90865163D01*
X156184650Y-90865163D01*
X156280308Y-90855238D01*
X156280312Y-90855237D01*
X156287166Y-90854526D01*
X156293702Y-90852345D01*
X156293704Y-90852345D01*
X156425806Y-90808272D01*
X156454946Y-90798550D01*
X156605348Y-90705478D01*
X156611681Y-90699134D01*
X156709753Y-90600891D01*
X156772036Y-90566812D01*
X156842856Y-90571815D01*
X156887944Y-90600736D01*
X156993697Y-90706305D01*
X156999927Y-90710145D01*
X156999928Y-90710146D01*
X157137090Y-90794694D01*
X157144262Y-90799115D01*
X157152276Y-90801773D01*
X157305611Y-90852632D01*
X157305613Y-90852632D01*
X157312139Y-90854797D01*
X157318975Y-90855497D01*
X157318978Y-90855498D01*
X157361700Y-90859875D01*
X157416600Y-90865500D01*
X158467400Y-90865500D01*
X158470646Y-90865163D01*
X158470650Y-90865163D01*
X158566308Y-90855238D01*
X158566312Y-90855237D01*
X158573166Y-90854526D01*
X158579702Y-90852345D01*
X158579704Y-90852345D01*
X158711806Y-90808272D01*
X158740946Y-90798550D01*
X158891348Y-90705478D01*
X158898518Y-90698296D01*
X159011134Y-90585483D01*
X159016305Y-90580303D01*
X159041280Y-90539785D01*
X159094053Y-90492291D01*
X159164124Y-90480867D01*
X159229248Y-90509141D01*
X159255685Y-90539596D01*
X159281522Y-90581348D01*
X159406697Y-90706305D01*
X159412927Y-90710145D01*
X159412928Y-90710146D01*
X159550090Y-90794694D01*
X159557262Y-90799115D01*
X159565276Y-90801773D01*
X159718611Y-90852632D01*
X159718613Y-90852632D01*
X159725139Y-90854797D01*
X159731975Y-90855497D01*
X159731978Y-90855498D01*
X159774700Y-90859875D01*
X159829600Y-90865500D01*
X160880400Y-90865500D01*
X160883646Y-90865163D01*
X160883650Y-90865163D01*
X160979308Y-90855238D01*
X160979312Y-90855237D01*
X160986166Y-90854526D01*
X160992702Y-90852345D01*
X160992704Y-90852345D01*
X161124806Y-90808272D01*
X161153946Y-90798550D01*
X161304348Y-90705478D01*
X161311518Y-90698296D01*
X161424134Y-90585483D01*
X161429305Y-90580303D01*
X161454280Y-90539785D01*
X161507053Y-90492291D01*
X161577124Y-90480867D01*
X161642248Y-90509141D01*
X161668685Y-90539596D01*
X161694522Y-90581348D01*
X161819697Y-90706305D01*
X161825927Y-90710145D01*
X161825928Y-90710146D01*
X161963090Y-90794694D01*
X161970262Y-90799115D01*
X161978276Y-90801773D01*
X162131611Y-90852632D01*
X162131613Y-90852632D01*
X162138139Y-90854797D01*
X162144975Y-90855497D01*
X162144978Y-90855498D01*
X162187700Y-90859875D01*
X162242600Y-90865500D01*
X163293400Y-90865500D01*
X163296646Y-90865163D01*
X163296650Y-90865163D01*
X163392308Y-90855238D01*
X163392312Y-90855237D01*
X163399166Y-90854526D01*
X163405702Y-90852345D01*
X163405704Y-90852345D01*
X163537806Y-90808272D01*
X163566946Y-90798550D01*
X163717348Y-90705478D01*
X163724518Y-90698296D01*
X163837134Y-90585483D01*
X163842305Y-90580303D01*
X163896557Y-90492291D01*
X163931275Y-90435968D01*
X163931276Y-90435966D01*
X163935115Y-90429738D01*
X163957903Y-90361034D01*
X163998333Y-90302674D01*
X164063898Y-90275437D01*
X164133779Y-90287970D01*
X164185791Y-90336295D01*
X164197054Y-90360929D01*
X164238618Y-90485873D01*
X164242265Y-90491895D01*
X164242266Y-90491897D01*
X164319464Y-90619366D01*
X164332580Y-90641024D01*
X164337469Y-90646087D01*
X164337470Y-90646088D01*
X164396613Y-90707332D01*
X164458582Y-90771502D01*
X164497723Y-90797115D01*
X164599170Y-90863500D01*
X164610359Y-90870822D01*
X164616963Y-90873278D01*
X164616965Y-90873279D01*
X164773758Y-90931590D01*
X164773760Y-90931590D01*
X164780368Y-90934048D01*
X164864195Y-90945233D01*
X164953180Y-90957107D01*
X164953184Y-90957107D01*
X164960161Y-90958038D01*
X164967172Y-90957400D01*
X164967176Y-90957400D01*
X165109659Y-90944432D01*
X165140800Y-90941598D01*
X165147502Y-90939420D01*
X165147504Y-90939420D01*
X165306609Y-90887724D01*
X165306612Y-90887723D01*
X165313308Y-90885547D01*
X165458299Y-90799115D01*
X165463060Y-90796277D01*
X165463062Y-90796276D01*
X165469112Y-90792669D01*
X165600466Y-90667582D01*
X165700843Y-90516502D01*
X165742954Y-90405646D01*
X165762755Y-90353520D01*
X165762756Y-90353518D01*
X165765255Y-90346938D01*
X165771476Y-90302674D01*
X165789948Y-90171239D01*
X165789948Y-90171236D01*
X165790499Y-90167317D01*
X165790816Y-90144600D01*
X165770597Y-89964345D01*
X165752248Y-89911653D01*
X165713264Y-89799706D01*
X165713262Y-89799703D01*
X165710945Y-89793048D01*
X165681788Y-89746386D01*
X165618559Y-89645198D01*
X165614826Y-89639224D01*
X165587035Y-89611238D01*
X165491978Y-89515515D01*
X165491974Y-89515512D01*
X165487015Y-89510518D01*
X165333866Y-89413327D01*
X165304586Y-89402901D01*
X165169625Y-89354843D01*
X165169620Y-89354842D01*
X165162990Y-89352481D01*
X165156004Y-89351648D01*
X165156000Y-89351647D01*
X165074001Y-89341870D01*
X165055241Y-89339633D01*
X164989968Y-89311706D01*
X164981065Y-89303614D01*
X163350361Y-87672910D01*
X163339493Y-87660519D01*
X163325494Y-87642275D01*
X163325493Y-87642274D01*
X163320471Y-87635729D01*
X163195677Y-87539972D01*
X163050353Y-87479777D01*
X162933555Y-87464400D01*
X162894400Y-87459245D01*
X162886212Y-87460323D01*
X162886211Y-87460323D01*
X162863431Y-87463322D01*
X162846985Y-87464400D01*
X148234610Y-87464400D01*
X148166489Y-87444398D01*
X148145515Y-87427495D01*
X145889999Y-85171979D01*
X145855973Y-85109667D01*
X145861038Y-85038852D01*
X145903585Y-84982016D01*
X145940157Y-84963051D01*
X145978089Y-84950726D01*
X146005108Y-84941947D01*
X146008936Y-84939665D01*
X146078222Y-84929884D01*
X146103887Y-84936456D01*
X146230764Y-84983641D01*
X146314591Y-84994826D01*
X146403576Y-85006700D01*
X146403580Y-85006700D01*
X146410557Y-85007631D01*
X146417568Y-85006993D01*
X146417572Y-85006993D01*
X146560055Y-84994025D01*
X146591196Y-84991191D01*
X146597898Y-84989013D01*
X146597900Y-84989013D01*
X146763704Y-84935140D01*
X146764466Y-84937486D01*
X146823387Y-84929165D01*
X146849061Y-84935739D01*
X146996168Y-84990448D01*
X147079995Y-85001633D01*
X147168980Y-85013507D01*
X147168984Y-85013507D01*
X147175961Y-85014438D01*
X147182972Y-85013800D01*
X147182976Y-85013800D01*
X147325459Y-85000832D01*
X147356600Y-84997998D01*
X147363302Y-84995820D01*
X147363304Y-84995820D01*
X147522409Y-84944124D01*
X147522412Y-84944123D01*
X147529108Y-84941947D01*
X147625513Y-84884478D01*
X147678860Y-84852677D01*
X147678862Y-84852676D01*
X147684912Y-84849069D01*
X147816266Y-84723982D01*
X147916643Y-84572902D01*
X147960179Y-84458293D01*
X147978555Y-84409920D01*
X147978556Y-84409918D01*
X147981055Y-84403338D01*
X147983907Y-84383047D01*
X148005748Y-84227639D01*
X148005748Y-84227636D01*
X148006299Y-84223717D01*
X148006616Y-84201000D01*
X147986397Y-84020745D01*
X147982546Y-84009685D01*
X147959240Y-83942760D01*
X147932857Y-83866999D01*
X147929343Y-83796091D01*
X147934060Y-83780819D01*
X147934268Y-83780273D01*
X147984459Y-83648145D01*
X148009703Y-83468524D01*
X148010020Y-83445807D01*
X147989801Y-83265552D01*
X147986013Y-83254675D01*
X147933397Y-83103581D01*
X147929883Y-83032671D01*
X147934600Y-83017401D01*
X147981958Y-82892731D01*
X147981960Y-82892724D01*
X147984459Y-82886145D01*
X147999395Y-82779872D01*
X148009152Y-82710446D01*
X148009152Y-82710443D01*
X148009703Y-82706524D01*
X148010020Y-82683807D01*
X147989801Y-82503552D01*
X147986013Y-82492675D01*
X147933397Y-82341581D01*
X147929883Y-82270671D01*
X147934600Y-82255401D01*
X147981958Y-82130731D01*
X147981960Y-82130724D01*
X147984459Y-82124145D01*
X147993614Y-82059003D01*
X148022902Y-81994329D01*
X148082506Y-81955755D01*
X148106964Y-81951057D01*
X148111580Y-81950637D01*
X148111581Y-81950637D01*
X148118600Y-81949998D01*
X148125302Y-81947820D01*
X148125304Y-81947820D01*
X148284409Y-81896124D01*
X148284412Y-81896123D01*
X148291108Y-81893947D01*
X148426019Y-81813524D01*
X148440860Y-81804677D01*
X148440862Y-81804676D01*
X148446912Y-81801069D01*
X148578266Y-81675982D01*
X148678643Y-81524902D01*
X148743055Y-81355338D01*
X148744035Y-81348366D01*
X148767748Y-81179639D01*
X148767748Y-81179636D01*
X148768299Y-81175717D01*
X148768616Y-81153000D01*
X148769572Y-81153013D01*
X148785225Y-81088147D01*
X148836547Y-81039091D01*
X148906244Y-81025569D01*
X148972513Y-81052131D01*
X148972518Y-81052135D01*
X148977697Y-81057305D01*
X148983927Y-81061145D01*
X148983928Y-81061146D01*
X149103167Y-81134646D01*
X149128262Y-81150115D01*
X149193511Y-81171757D01*
X149289611Y-81203632D01*
X149289613Y-81203632D01*
X149296139Y-81205797D01*
X149302975Y-81206497D01*
X149302978Y-81206498D01*
X149346031Y-81210909D01*
X149400600Y-81216500D01*
X151099959Y-81216500D01*
X151168080Y-81236502D01*
X151189054Y-81253405D01*
X151460895Y-81525246D01*
X151494921Y-81587558D01*
X151497800Y-81614341D01*
X151497800Y-82578298D01*
X151477798Y-82646419D01*
X151424142Y-82692912D01*
X151353868Y-82703016D01*
X151329533Y-82696997D01*
X151195425Y-82649243D01*
X151195420Y-82649242D01*
X151188790Y-82646881D01*
X151181802Y-82646048D01*
X151181799Y-82646047D01*
X151058698Y-82631368D01*
X151008680Y-82625404D01*
X151001677Y-82626140D01*
X151001676Y-82626140D01*
X150835288Y-82643628D01*
X150835286Y-82643629D01*
X150828288Y-82644364D01*
X150656579Y-82702818D01*
X150650575Y-82706512D01*
X150508095Y-82794166D01*
X150508092Y-82794168D01*
X150502088Y-82797862D01*
X150497053Y-82802793D01*
X150497050Y-82802795D01*
X150377953Y-82919424D01*
X150372493Y-82924771D01*
X150274235Y-83077238D01*
X150271826Y-83083858D01*
X150271824Y-83083861D01*
X150214606Y-83241066D01*
X150212197Y-83247685D01*
X150189463Y-83427640D01*
X150207163Y-83608160D01*
X150264418Y-83780273D01*
X150268065Y-83786295D01*
X150268066Y-83786297D01*
X150306312Y-83849448D01*
X150358380Y-83935424D01*
X150363269Y-83940487D01*
X150363270Y-83940488D01*
X150434348Y-84014091D01*
X150484382Y-84065902D01*
X150636159Y-84165222D01*
X150642763Y-84167678D01*
X150642765Y-84167679D01*
X150799558Y-84225990D01*
X150799560Y-84225990D01*
X150806168Y-84228448D01*
X150889995Y-84239633D01*
X150978980Y-84251507D01*
X150978984Y-84251507D01*
X150985961Y-84252438D01*
X150992972Y-84251800D01*
X150992976Y-84251800D01*
X151135459Y-84238832D01*
X151166600Y-84235998D01*
X151173300Y-84233821D01*
X151173305Y-84233820D01*
X151332864Y-84181976D01*
X151403832Y-84179949D01*
X151464630Y-84216611D01*
X151495955Y-84280324D01*
X151497800Y-84301809D01*
X151497800Y-84483786D01*
X151496722Y-84500233D01*
X151492645Y-84531200D01*
X151497800Y-84570355D01*
X151513177Y-84687153D01*
X151573372Y-84832477D01*
X151669129Y-84957271D01*
X151675675Y-84962294D01*
X151693918Y-84976293D01*
X151706307Y-84987159D01*
X152248846Y-85529698D01*
X152259713Y-85542089D01*
X152273700Y-85560318D01*
X152273703Y-85560321D01*
X152278729Y-85566871D01*
X152285279Y-85571897D01*
X152285280Y-85571898D01*
X152310060Y-85590912D01*
X152310061Y-85590913D01*
X152403523Y-85662628D01*
X152548847Y-85722823D01*
X152704800Y-85743356D01*
X152712988Y-85742278D01*
X152735775Y-85739278D01*
X152752222Y-85738200D01*
X162311159Y-85738200D01*
X162379280Y-85758202D01*
X162400254Y-85775105D01*
X166573895Y-89948746D01*
X166607921Y-90011058D01*
X166610800Y-90037841D01*
X166610800Y-95234141D01*
X166590711Y-95302396D01*
X166534054Y-95390310D01*
X166534050Y-95390319D01*
X166530235Y-95396238D01*
X166527826Y-95402858D01*
X166527825Y-95402859D01*
X166480294Y-95533448D01*
X166468197Y-95566685D01*
X166445463Y-95746640D01*
X166463163Y-95927160D01*
X166520418Y-96099273D01*
X166524065Y-96105295D01*
X166524066Y-96105297D01*
X166601264Y-96232766D01*
X166614380Y-96254424D01*
X166619269Y-96259487D01*
X166619270Y-96259488D01*
X166674558Y-96316740D01*
X166740382Y-96384902D01*
X166767602Y-96402714D01*
X166881751Y-96477411D01*
X166892159Y-96484222D01*
X166898763Y-96486678D01*
X166898765Y-96486679D01*
X167055558Y-96544990D01*
X167055560Y-96544990D01*
X167062168Y-96547448D01*
X167130488Y-96556564D01*
X167234980Y-96570507D01*
X167234984Y-96570507D01*
X167241961Y-96571438D01*
X167248972Y-96570800D01*
X167248976Y-96570800D01*
X167405393Y-96556564D01*
X167422600Y-96554998D01*
X167429302Y-96552820D01*
X167429304Y-96552820D01*
X167588409Y-96501124D01*
X167588412Y-96501123D01*
X167595108Y-96498947D01*
X167705113Y-96433371D01*
X167744860Y-96409677D01*
X167744862Y-96409676D01*
X167750912Y-96406069D01*
X167882266Y-96280982D01*
X167982643Y-96129902D01*
X168047055Y-95960338D01*
X168048101Y-95952897D01*
X168071748Y-95784639D01*
X168071748Y-95784636D01*
X168072299Y-95780717D01*
X168072616Y-95758000D01*
X168052397Y-95577745D01*
X168050080Y-95571091D01*
X167995064Y-95413106D01*
X167995062Y-95413103D01*
X167992745Y-95406448D01*
X167896626Y-95252624D01*
X167842194Y-95197811D01*
X167808387Y-95135381D01*
X167805600Y-95109027D01*
X167805600Y-93968640D01*
X171906463Y-93968640D01*
X171924163Y-94149160D01*
X171981418Y-94321273D01*
X171985065Y-94327295D01*
X171985066Y-94327297D01*
X172014551Y-94375982D01*
X172075380Y-94476424D01*
X172080269Y-94481487D01*
X172080270Y-94481488D01*
X172101027Y-94502982D01*
X172201382Y-94606902D01*
X172353159Y-94706222D01*
X172359763Y-94708678D01*
X172359765Y-94708679D01*
X172516558Y-94766990D01*
X172516560Y-94766990D01*
X172523168Y-94769448D01*
X172606995Y-94780633D01*
X172695980Y-94792507D01*
X172695984Y-94792507D01*
X172702961Y-94793438D01*
X172709972Y-94792800D01*
X172709976Y-94792800D01*
X172852459Y-94779832D01*
X172883600Y-94776998D01*
X172890302Y-94774820D01*
X172890304Y-94774820D01*
X173049409Y-94723124D01*
X173049412Y-94723123D01*
X173056108Y-94720947D01*
X173175126Y-94649998D01*
X173205860Y-94631677D01*
X173205862Y-94631676D01*
X173211912Y-94628069D01*
X173343266Y-94502982D01*
X173443643Y-94351902D01*
X173501233Y-94200297D01*
X173505555Y-94188920D01*
X173505556Y-94188918D01*
X173508055Y-94182338D01*
X173509035Y-94175366D01*
X173532748Y-94006639D01*
X173532748Y-94006636D01*
X173533299Y-94002717D01*
X173533616Y-93980000D01*
X173513397Y-93799745D01*
X173511080Y-93793091D01*
X173456064Y-93635106D01*
X173456062Y-93635103D01*
X173453745Y-93628448D01*
X173357626Y-93474624D01*
X173337544Y-93454401D01*
X173234778Y-93350915D01*
X173234774Y-93350912D01*
X173229815Y-93345918D01*
X173218697Y-93338862D01*
X173170538Y-93308300D01*
X173076666Y-93248727D01*
X173006986Y-93223915D01*
X172912425Y-93190243D01*
X172912420Y-93190242D01*
X172905790Y-93187881D01*
X172898802Y-93187048D01*
X172898799Y-93187047D01*
X172775698Y-93172368D01*
X172725680Y-93166404D01*
X172718677Y-93167140D01*
X172718676Y-93167140D01*
X172552288Y-93184628D01*
X172552286Y-93184629D01*
X172545288Y-93185364D01*
X172373579Y-93243818D01*
X172367575Y-93247512D01*
X172225095Y-93335166D01*
X172225092Y-93335168D01*
X172219088Y-93338862D01*
X172214053Y-93343793D01*
X172214050Y-93343795D01*
X172094953Y-93460424D01*
X172089493Y-93465771D01*
X171991235Y-93618238D01*
X171988826Y-93624858D01*
X171988824Y-93624861D01*
X171931606Y-93782066D01*
X171929197Y-93788685D01*
X171906463Y-93968640D01*
X167805600Y-93968640D01*
X167805600Y-90412640D01*
X190575463Y-90412640D01*
X190593163Y-90593160D01*
X190650418Y-90765273D01*
X190654065Y-90771295D01*
X190654066Y-90771297D01*
X190712004Y-90866964D01*
X190744380Y-90920424D01*
X190749269Y-90925487D01*
X190749270Y-90925488D01*
X190826121Y-91005068D01*
X190870382Y-91050902D01*
X190876278Y-91054760D01*
X191015628Y-91145948D01*
X191022159Y-91150222D01*
X191028763Y-91152678D01*
X191028765Y-91152679D01*
X191185558Y-91210990D01*
X191185560Y-91210990D01*
X191192168Y-91213448D01*
X191275995Y-91224633D01*
X191364980Y-91236507D01*
X191364984Y-91236507D01*
X191371961Y-91237438D01*
X191378972Y-91236800D01*
X191378976Y-91236800D01*
X191521459Y-91223832D01*
X191552600Y-91220998D01*
X191559302Y-91218820D01*
X191559304Y-91218820D01*
X191718409Y-91167124D01*
X191718412Y-91167123D01*
X191725108Y-91164947D01*
X191880912Y-91072069D01*
X192012266Y-90946982D01*
X192112643Y-90795902D01*
X192169553Y-90646088D01*
X192174555Y-90632920D01*
X192174556Y-90632918D01*
X192177055Y-90626338D01*
X192180653Y-90600736D01*
X192201748Y-90450639D01*
X192201748Y-90450636D01*
X192202299Y-90446717D01*
X192202616Y-90424000D01*
X192182397Y-90243745D01*
X192180080Y-90237091D01*
X192125064Y-90079106D01*
X192125062Y-90079103D01*
X192122745Y-90072448D01*
X192026626Y-89918624D01*
X192021664Y-89913627D01*
X191903778Y-89794915D01*
X191903774Y-89794912D01*
X191898815Y-89789918D01*
X191887697Y-89782862D01*
X191807038Y-89731675D01*
X191745666Y-89692727D01*
X191686478Y-89671651D01*
X191581425Y-89634243D01*
X191581420Y-89634242D01*
X191574790Y-89631881D01*
X191567802Y-89631048D01*
X191567799Y-89631047D01*
X191444698Y-89616368D01*
X191394680Y-89610404D01*
X191387677Y-89611140D01*
X191387676Y-89611140D01*
X191221288Y-89628628D01*
X191221286Y-89628629D01*
X191214288Y-89629364D01*
X191042579Y-89687818D01*
X191036575Y-89691512D01*
X190894095Y-89779166D01*
X190894092Y-89779168D01*
X190888088Y-89782862D01*
X190883053Y-89787793D01*
X190883050Y-89787795D01*
X190763525Y-89904843D01*
X190758493Y-89909771D01*
X190660235Y-90062238D01*
X190657826Y-90068858D01*
X190657824Y-90068861D01*
X190600606Y-90226066D01*
X190598197Y-90232685D01*
X190575463Y-90412640D01*
X167805600Y-90412640D01*
X167805600Y-89785612D01*
X167806678Y-89769164D01*
X167809677Y-89746386D01*
X167810755Y-89738200D01*
X167790223Y-89582247D01*
X167730028Y-89436923D01*
X167711922Y-89413327D01*
X167634271Y-89312129D01*
X167609485Y-89293110D01*
X167597094Y-89282243D01*
X163500604Y-85185753D01*
X163466578Y-85123441D01*
X163471643Y-85052626D01*
X163514190Y-84995790D01*
X163550761Y-84976826D01*
X163599596Y-84960959D01*
X163651409Y-84944124D01*
X163651412Y-84944123D01*
X163658108Y-84941947D01*
X163754513Y-84884478D01*
X163807860Y-84852677D01*
X163807862Y-84852676D01*
X163813912Y-84849069D01*
X163945266Y-84723982D01*
X164045643Y-84572902D01*
X164089179Y-84458293D01*
X164107555Y-84409920D01*
X164107556Y-84409918D01*
X164110055Y-84403338D01*
X164112907Y-84383047D01*
X164134748Y-84227639D01*
X164134748Y-84227636D01*
X164135299Y-84223717D01*
X164135616Y-84201000D01*
X164115397Y-84020745D01*
X164113080Y-84014091D01*
X164058993Y-83858774D01*
X164055479Y-83787864D01*
X164060196Y-83772594D01*
X164107554Y-83647924D01*
X164107556Y-83647917D01*
X164110055Y-83641338D01*
X164111839Y-83628643D01*
X164134748Y-83465639D01*
X164134748Y-83465636D01*
X164135299Y-83461717D01*
X164135616Y-83439000D01*
X164115397Y-83258745D01*
X164113080Y-83252091D01*
X164058993Y-83096774D01*
X164055479Y-83025864D01*
X164060196Y-83010594D01*
X164107554Y-82885924D01*
X164107556Y-82885917D01*
X164110055Y-82879338D01*
X164113761Y-82852967D01*
X164134748Y-82703639D01*
X164134748Y-82703636D01*
X164135299Y-82699717D01*
X164135521Y-82683807D01*
X164135561Y-82680962D01*
X164135561Y-82680957D01*
X164135616Y-82677000D01*
X164115397Y-82496745D01*
X164113080Y-82490091D01*
X164058993Y-82334774D01*
X164055479Y-82263864D01*
X164060196Y-82248594D01*
X164107554Y-82123924D01*
X164107556Y-82123917D01*
X164110055Y-82117338D01*
X164118197Y-82059403D01*
X164147485Y-81994730D01*
X164207089Y-81956157D01*
X164231548Y-81951459D01*
X164240579Y-81950637D01*
X164247600Y-81949998D01*
X164254302Y-81947820D01*
X164254304Y-81947820D01*
X164374484Y-81908771D01*
X164420108Y-81893947D01*
X164420219Y-81894288D01*
X164486503Y-81884927D01*
X164512174Y-81891500D01*
X164649168Y-81942448D01*
X164732995Y-81953633D01*
X164821980Y-81965507D01*
X164821984Y-81965507D01*
X164828961Y-81966438D01*
X164835972Y-81965800D01*
X164835976Y-81965800D01*
X164978459Y-81952832D01*
X165009600Y-81949998D01*
X165016302Y-81947820D01*
X165016304Y-81947820D01*
X165175409Y-81896124D01*
X165175412Y-81896123D01*
X165182108Y-81893947D01*
X165317019Y-81813524D01*
X165331860Y-81804677D01*
X165331862Y-81804676D01*
X165337912Y-81801069D01*
X165469266Y-81675982D01*
X165569643Y-81524902D01*
X165634055Y-81355338D01*
X165635035Y-81348366D01*
X165658748Y-81179639D01*
X165658748Y-81179636D01*
X165659299Y-81175717D01*
X165659616Y-81153000D01*
X165639397Y-80972745D01*
X165637080Y-80966091D01*
X165582993Y-80810774D01*
X165579479Y-80739864D01*
X165584196Y-80724594D01*
X165631554Y-80599924D01*
X165631556Y-80599917D01*
X165634055Y-80593338D01*
X165635035Y-80586366D01*
X165658748Y-80417639D01*
X165658748Y-80417636D01*
X165659299Y-80413717D01*
X165659616Y-80391000D01*
X165639397Y-80210745D01*
X165637080Y-80204091D01*
X165582993Y-80048774D01*
X165579479Y-79977864D01*
X165584196Y-79962594D01*
X165631554Y-79837924D01*
X165631556Y-79837917D01*
X165634055Y-79831338D01*
X165635035Y-79824366D01*
X165658748Y-79655639D01*
X165658748Y-79655636D01*
X165659299Y-79651717D01*
X165659616Y-79629000D01*
X165639397Y-79448745D01*
X165637080Y-79442091D01*
X165582993Y-79286774D01*
X165579479Y-79215864D01*
X165584196Y-79200594D01*
X165631554Y-79075924D01*
X165631556Y-79075917D01*
X165634055Y-79069338D01*
X165635035Y-79062366D01*
X165658748Y-78893639D01*
X165658748Y-78893636D01*
X165659299Y-78889717D01*
X165659479Y-78876811D01*
X165659561Y-78870962D01*
X165659561Y-78870957D01*
X165659616Y-78867000D01*
X165639397Y-78686745D01*
X165637080Y-78680091D01*
X165582993Y-78524774D01*
X165579479Y-78453864D01*
X165584196Y-78438594D01*
X165631554Y-78313924D01*
X165631556Y-78313917D01*
X165634055Y-78307338D01*
X165635035Y-78300366D01*
X165658748Y-78131639D01*
X165658748Y-78131636D01*
X165659299Y-78127717D01*
X165659616Y-78105000D01*
X165639397Y-77924745D01*
X165637080Y-77918091D01*
X165582993Y-77762774D01*
X165579479Y-77691864D01*
X165584196Y-77676594D01*
X165631554Y-77551924D01*
X165631556Y-77551917D01*
X165634055Y-77545338D01*
X165635035Y-77538366D01*
X165658748Y-77369639D01*
X165658748Y-77369636D01*
X165659299Y-77365717D01*
X165659616Y-77343000D01*
X165639397Y-77162745D01*
X165637080Y-77156091D01*
X165582064Y-76998106D01*
X165582062Y-76998103D01*
X165579745Y-76991448D01*
X165483626Y-76837624D01*
X165446536Y-76800274D01*
X165360778Y-76713915D01*
X165360774Y-76713912D01*
X165355815Y-76708918D01*
X165346270Y-76702860D01*
X165243355Y-76637549D01*
X165202666Y-76611727D01*
X165135898Y-76587952D01*
X165038425Y-76553243D01*
X165038420Y-76553242D01*
X165031790Y-76550881D01*
X165024802Y-76550048D01*
X165024799Y-76550047D01*
X164901698Y-76535368D01*
X164851680Y-76529404D01*
X164844677Y-76530140D01*
X164844676Y-76530140D01*
X164678288Y-76547628D01*
X164678286Y-76547629D01*
X164671288Y-76548364D01*
X164503947Y-76605331D01*
X164433016Y-76608349D01*
X164421088Y-76604756D01*
X164295540Y-76560050D01*
X164276424Y-76553243D01*
X164276422Y-76553243D01*
X164269790Y-76550881D01*
X164262802Y-76550048D01*
X164262799Y-76550047D01*
X164139698Y-76535368D01*
X164089680Y-76529404D01*
X164082677Y-76530140D01*
X164082676Y-76530140D01*
X163916288Y-76547628D01*
X163916286Y-76547629D01*
X163909288Y-76548364D01*
X163741947Y-76605331D01*
X163671016Y-76608349D01*
X163659088Y-76604756D01*
X163533540Y-76560050D01*
X163514424Y-76553243D01*
X163514422Y-76553243D01*
X163507790Y-76550881D01*
X163500802Y-76550048D01*
X163500799Y-76550047D01*
X163377698Y-76535368D01*
X163327680Y-76529404D01*
X163320677Y-76530140D01*
X163320676Y-76530140D01*
X163154288Y-76547628D01*
X163154286Y-76547629D01*
X163147288Y-76548364D01*
X162979947Y-76605331D01*
X162909016Y-76608349D01*
X162897088Y-76604756D01*
X162771540Y-76560050D01*
X162752424Y-76553243D01*
X162752422Y-76553243D01*
X162745790Y-76550881D01*
X162738802Y-76550048D01*
X162738799Y-76550047D01*
X162615698Y-76535368D01*
X162565680Y-76529404D01*
X162558677Y-76530140D01*
X162558676Y-76530140D01*
X162392288Y-76547628D01*
X162392286Y-76547629D01*
X162385288Y-76548364D01*
X162217947Y-76605331D01*
X162147016Y-76608349D01*
X162135088Y-76604756D01*
X162009540Y-76560050D01*
X161990424Y-76553243D01*
X161990422Y-76553243D01*
X161983790Y-76550881D01*
X161976802Y-76550048D01*
X161976799Y-76550047D01*
X161853698Y-76535368D01*
X161803680Y-76529404D01*
X161796677Y-76530140D01*
X161796676Y-76530140D01*
X161630288Y-76547628D01*
X161630286Y-76547629D01*
X161623288Y-76548364D01*
X161455947Y-76605331D01*
X161385016Y-76608349D01*
X161373088Y-76604756D01*
X161247540Y-76560050D01*
X161228424Y-76553243D01*
X161228422Y-76553243D01*
X161221790Y-76550881D01*
X161214802Y-76550048D01*
X161214799Y-76550047D01*
X161091698Y-76535368D01*
X161041680Y-76529404D01*
X161034677Y-76530140D01*
X161034676Y-76530140D01*
X160868288Y-76547628D01*
X160868286Y-76547629D01*
X160861288Y-76548364D01*
X160689579Y-76606818D01*
X160650594Y-76630802D01*
X160541095Y-76698166D01*
X160541092Y-76698168D01*
X160535088Y-76701862D01*
X160530053Y-76706793D01*
X160530050Y-76706795D01*
X160434593Y-76800274D01*
X160405493Y-76828771D01*
X160307235Y-76981238D01*
X160304826Y-76987858D01*
X160304824Y-76987861D01*
X160253377Y-77129210D01*
X160245197Y-77151685D01*
X160222463Y-77331640D01*
X160240163Y-77512160D01*
X160294864Y-77676594D01*
X160297418Y-77684273D01*
X160295156Y-77685026D01*
X160303928Y-77744178D01*
X160297533Y-77769893D01*
X160245197Y-77913685D01*
X160222463Y-78093640D01*
X160240163Y-78274160D01*
X160248881Y-78300366D01*
X160297418Y-78446273D01*
X160295156Y-78447026D01*
X160303928Y-78506178D01*
X160297533Y-78531893D01*
X160245197Y-78675685D01*
X160222463Y-78855640D01*
X160240163Y-79036160D01*
X160294864Y-79200594D01*
X160297418Y-79208273D01*
X160295156Y-79209026D01*
X160303928Y-79268178D01*
X160297533Y-79293893D01*
X160245197Y-79437685D01*
X160222463Y-79617640D01*
X160240163Y-79798160D01*
X160248881Y-79824366D01*
X160297418Y-79970273D01*
X160295156Y-79971026D01*
X160303928Y-80030178D01*
X160297533Y-80055893D01*
X160245197Y-80199685D01*
X160222463Y-80379640D01*
X160240163Y-80560160D01*
X160279198Y-80677502D01*
X160297418Y-80732273D01*
X160295156Y-80733026D01*
X160303928Y-80792178D01*
X160297533Y-80817893D01*
X160245197Y-80961685D01*
X160222463Y-81141640D01*
X160240163Y-81322160D01*
X160285101Y-81457248D01*
X160297418Y-81494273D01*
X160295156Y-81495026D01*
X160303928Y-81554178D01*
X160297533Y-81579893D01*
X160247606Y-81717066D01*
X160245197Y-81723685D01*
X160222463Y-81903640D01*
X160240163Y-82084160D01*
X160287037Y-82225066D01*
X160297418Y-82256273D01*
X160295156Y-82257026D01*
X160303928Y-82316178D01*
X160297533Y-82341893D01*
X160245197Y-82485685D01*
X160222463Y-82665640D01*
X160240163Y-82846160D01*
X160266220Y-82924488D01*
X160297418Y-83018273D01*
X160295156Y-83019026D01*
X160303928Y-83078178D01*
X160297533Y-83103893D01*
X160247606Y-83241066D01*
X160245197Y-83247685D01*
X160222463Y-83427640D01*
X160240163Y-83608160D01*
X160294864Y-83772594D01*
X160297418Y-83780273D01*
X160295156Y-83781026D01*
X160303928Y-83840178D01*
X160297533Y-83865893D01*
X160247606Y-84003066D01*
X160245197Y-84009685D01*
X160222463Y-84189640D01*
X160240163Y-84370160D01*
X160242649Y-84377632D01*
X160242668Y-84378168D01*
X160243851Y-84383733D01*
X160242873Y-84383941D01*
X160245169Y-84448584D01*
X160208930Y-84509635D01*
X160145437Y-84541402D01*
X160123089Y-84543400D01*
X156234317Y-84543400D01*
X156166196Y-84523398D01*
X156119703Y-84469742D01*
X156109543Y-84399864D01*
X156133748Y-84227639D01*
X156133748Y-84227636D01*
X156134299Y-84223717D01*
X156134616Y-84201000D01*
X156114397Y-84020745D01*
X156112080Y-84014091D01*
X156057993Y-83858774D01*
X156054479Y-83787864D01*
X156059196Y-83772594D01*
X156106554Y-83647924D01*
X156106556Y-83647917D01*
X156109055Y-83641338D01*
X156110839Y-83628643D01*
X156133748Y-83465639D01*
X156133748Y-83465636D01*
X156134299Y-83461717D01*
X156134616Y-83439000D01*
X156119096Y-83300640D01*
X157174463Y-83300640D01*
X157192163Y-83481160D01*
X157249418Y-83653273D01*
X157253065Y-83659295D01*
X157253066Y-83659297D01*
X157338530Y-83800415D01*
X157343380Y-83808424D01*
X157348269Y-83813487D01*
X157348270Y-83813488D01*
X157425121Y-83893068D01*
X157469382Y-83938902D01*
X157475278Y-83942760D01*
X157588232Y-84016675D01*
X157621159Y-84038222D01*
X157627763Y-84040678D01*
X157627765Y-84040679D01*
X157784558Y-84098990D01*
X157784560Y-84098990D01*
X157791168Y-84101448D01*
X157874995Y-84112633D01*
X157963980Y-84124507D01*
X157963984Y-84124507D01*
X157970961Y-84125438D01*
X157977972Y-84124800D01*
X157977976Y-84124800D01*
X158120459Y-84111832D01*
X158151600Y-84108998D01*
X158158302Y-84106820D01*
X158158304Y-84106820D01*
X158317409Y-84055124D01*
X158317412Y-84055123D01*
X158324108Y-84052947D01*
X158479912Y-83960069D01*
X158611266Y-83834982D01*
X158711643Y-83683902D01*
X158776055Y-83514338D01*
X158777035Y-83507366D01*
X158800748Y-83338639D01*
X158800748Y-83338636D01*
X158801299Y-83334717D01*
X158801616Y-83312000D01*
X158781397Y-83131745D01*
X158779080Y-83125091D01*
X158724064Y-82967106D01*
X158724062Y-82967103D01*
X158721745Y-82960448D01*
X158625626Y-82806624D01*
X158527417Y-82707727D01*
X158502778Y-82682915D01*
X158502774Y-82682912D01*
X158497815Y-82677918D01*
X158490164Y-82673062D01*
X158416380Y-82626238D01*
X158344666Y-82580727D01*
X158307248Y-82567403D01*
X158180425Y-82522243D01*
X158180420Y-82522242D01*
X158173790Y-82519881D01*
X158166802Y-82519048D01*
X158166799Y-82519047D01*
X158036852Y-82503552D01*
X157993680Y-82498404D01*
X157986677Y-82499140D01*
X157986676Y-82499140D01*
X157820288Y-82516628D01*
X157820286Y-82516629D01*
X157813288Y-82517364D01*
X157641579Y-82575818D01*
X157635575Y-82579512D01*
X157493095Y-82667166D01*
X157493092Y-82667168D01*
X157487088Y-82670862D01*
X157482053Y-82675793D01*
X157482050Y-82675795D01*
X157362525Y-82792843D01*
X157357493Y-82797771D01*
X157259235Y-82950238D01*
X157256826Y-82956858D01*
X157256824Y-82956861D01*
X157212668Y-83078178D01*
X157197197Y-83120685D01*
X157174463Y-83300640D01*
X156119096Y-83300640D01*
X156114397Y-83258745D01*
X156112080Y-83252091D01*
X156057993Y-83096774D01*
X156054479Y-83025864D01*
X156059196Y-83010594D01*
X156106554Y-82885924D01*
X156106556Y-82885917D01*
X156109055Y-82879338D01*
X156112761Y-82852967D01*
X156133748Y-82703639D01*
X156133748Y-82703636D01*
X156134299Y-82699717D01*
X156134521Y-82683807D01*
X156134561Y-82680962D01*
X156134561Y-82680957D01*
X156134616Y-82677000D01*
X156114397Y-82496745D01*
X156112080Y-82490091D01*
X156057993Y-82334774D01*
X156054479Y-82263864D01*
X156059196Y-82248594D01*
X156106554Y-82123924D01*
X156106556Y-82123917D01*
X156109055Y-82117338D01*
X156117197Y-82059403D01*
X156146485Y-81994730D01*
X156206089Y-81956157D01*
X156230548Y-81951459D01*
X156239579Y-81950637D01*
X156246600Y-81949998D01*
X156253302Y-81947820D01*
X156253304Y-81947820D01*
X156373484Y-81908771D01*
X156419108Y-81893947D01*
X156419219Y-81894288D01*
X156485503Y-81884927D01*
X156511174Y-81891500D01*
X156648168Y-81942448D01*
X156731995Y-81953633D01*
X156820980Y-81965507D01*
X156820984Y-81965507D01*
X156827961Y-81966438D01*
X156834972Y-81965800D01*
X156834976Y-81965800D01*
X156977459Y-81952832D01*
X157008600Y-81949998D01*
X157015302Y-81947820D01*
X157015304Y-81947820D01*
X157174409Y-81896124D01*
X157174412Y-81896123D01*
X157181108Y-81893947D01*
X157316019Y-81813524D01*
X157330860Y-81804677D01*
X157330862Y-81804676D01*
X157336912Y-81801069D01*
X157468266Y-81675982D01*
X157568643Y-81524902D01*
X157633055Y-81355338D01*
X157634035Y-81348366D01*
X157657748Y-81179639D01*
X157657748Y-81179636D01*
X157658299Y-81175717D01*
X157658616Y-81153000D01*
X157638397Y-80972745D01*
X157636080Y-80966091D01*
X157581993Y-80810774D01*
X157578479Y-80739864D01*
X157583196Y-80724594D01*
X157630554Y-80599924D01*
X157630556Y-80599917D01*
X157633055Y-80593338D01*
X157634035Y-80586366D01*
X157657748Y-80417639D01*
X157657748Y-80417636D01*
X157658299Y-80413717D01*
X157658616Y-80391000D01*
X157638397Y-80210745D01*
X157636080Y-80204091D01*
X157581993Y-80048774D01*
X157578479Y-79977864D01*
X157583196Y-79962594D01*
X157630554Y-79837924D01*
X157630556Y-79837917D01*
X157633055Y-79831338D01*
X157634035Y-79824366D01*
X157657748Y-79655639D01*
X157657748Y-79655636D01*
X157658299Y-79651717D01*
X157658616Y-79629000D01*
X157638397Y-79448745D01*
X157636080Y-79442091D01*
X157581993Y-79286774D01*
X157578479Y-79215864D01*
X157583196Y-79200594D01*
X157630554Y-79075924D01*
X157630556Y-79075917D01*
X157633055Y-79069338D01*
X157634035Y-79062366D01*
X157657748Y-78893639D01*
X157657748Y-78893636D01*
X157658299Y-78889717D01*
X157658479Y-78876811D01*
X157658561Y-78870962D01*
X157658561Y-78870957D01*
X157658616Y-78867000D01*
X157638397Y-78686745D01*
X157636080Y-78680091D01*
X157581993Y-78524774D01*
X157578479Y-78453864D01*
X157583196Y-78438594D01*
X157630554Y-78313924D01*
X157630556Y-78313917D01*
X157633055Y-78307338D01*
X157634035Y-78300366D01*
X157657748Y-78131639D01*
X157657748Y-78131636D01*
X157658299Y-78127717D01*
X157658616Y-78105000D01*
X157638397Y-77924745D01*
X157636080Y-77918091D01*
X157581993Y-77762774D01*
X157578479Y-77691864D01*
X157583196Y-77676594D01*
X157630554Y-77551924D01*
X157630556Y-77551917D01*
X157633055Y-77545338D01*
X157634035Y-77538366D01*
X157657748Y-77369639D01*
X157657748Y-77369636D01*
X157658299Y-77365717D01*
X157658616Y-77343000D01*
X157638397Y-77162745D01*
X157636080Y-77156091D01*
X157581064Y-76998106D01*
X157581062Y-76998103D01*
X157578745Y-76991448D01*
X157482626Y-76837624D01*
X157445536Y-76800274D01*
X157359778Y-76713915D01*
X157359774Y-76713912D01*
X157354815Y-76708918D01*
X157345270Y-76702860D01*
X157242355Y-76637549D01*
X157201666Y-76611727D01*
X157134898Y-76587952D01*
X157037425Y-76553243D01*
X157037420Y-76553242D01*
X157030790Y-76550881D01*
X157023802Y-76550048D01*
X157023799Y-76550047D01*
X156900698Y-76535368D01*
X156850680Y-76529404D01*
X156843677Y-76530140D01*
X156843676Y-76530140D01*
X156677288Y-76547628D01*
X156677286Y-76547629D01*
X156670288Y-76548364D01*
X156502947Y-76605331D01*
X156432016Y-76608349D01*
X156420088Y-76604756D01*
X156294540Y-76560050D01*
X156275424Y-76553243D01*
X156275422Y-76553243D01*
X156268790Y-76550881D01*
X156261802Y-76550048D01*
X156261799Y-76550047D01*
X156138698Y-76535368D01*
X156088680Y-76529404D01*
X156081677Y-76530140D01*
X156081676Y-76530140D01*
X155915288Y-76547628D01*
X155915286Y-76547629D01*
X155908288Y-76548364D01*
X155740947Y-76605331D01*
X155670016Y-76608349D01*
X155658088Y-76604756D01*
X155532540Y-76560050D01*
X155513424Y-76553243D01*
X155513422Y-76553243D01*
X155506790Y-76550881D01*
X155499802Y-76550048D01*
X155499799Y-76550047D01*
X155376698Y-76535368D01*
X155326680Y-76529404D01*
X155319677Y-76530140D01*
X155319676Y-76530140D01*
X155153288Y-76547628D01*
X155153286Y-76547629D01*
X155146288Y-76548364D01*
X154978947Y-76605331D01*
X154908016Y-76608349D01*
X154896088Y-76604756D01*
X154770540Y-76560050D01*
X154751424Y-76553243D01*
X154751422Y-76553243D01*
X154744790Y-76550881D01*
X154737802Y-76550048D01*
X154737799Y-76550047D01*
X154614698Y-76535368D01*
X154564680Y-76529404D01*
X154557677Y-76530140D01*
X154557676Y-76530140D01*
X154391288Y-76547628D01*
X154391286Y-76547629D01*
X154384288Y-76548364D01*
X154216947Y-76605331D01*
X154146016Y-76608349D01*
X154134088Y-76604756D01*
X154008540Y-76560050D01*
X153989424Y-76553243D01*
X153989422Y-76553243D01*
X153982790Y-76550881D01*
X153975802Y-76550048D01*
X153975799Y-76550047D01*
X153852698Y-76535368D01*
X153802680Y-76529404D01*
X153795677Y-76530140D01*
X153795676Y-76530140D01*
X153629288Y-76547628D01*
X153629286Y-76547629D01*
X153622288Y-76548364D01*
X153454947Y-76605331D01*
X153384016Y-76608349D01*
X153372088Y-76604756D01*
X153246540Y-76560050D01*
X153227424Y-76553243D01*
X153227422Y-76553243D01*
X153220790Y-76550881D01*
X153213802Y-76550048D01*
X153213799Y-76550047D01*
X153090698Y-76535368D01*
X153040680Y-76529404D01*
X153033677Y-76530140D01*
X153033676Y-76530140D01*
X152867288Y-76547628D01*
X152867286Y-76547629D01*
X152860288Y-76548364D01*
X152688579Y-76606818D01*
X152534088Y-76701862D01*
X152532893Y-76699920D01*
X152476975Y-76722106D01*
X152407303Y-76708455D01*
X152382872Y-76691864D01*
X152372550Y-76682920D01*
X152365739Y-76677018D01*
X152232790Y-76616302D01*
X152205704Y-76608349D01*
X152168992Y-76597569D01*
X152168988Y-76597568D01*
X152164669Y-76596300D01*
X152160220Y-76595660D01*
X152160214Y-76595659D01*
X152024447Y-76576139D01*
X152024442Y-76576139D01*
X152020000Y-76575500D01*
X151914691Y-76575500D01*
X151872424Y-76568199D01*
X151830424Y-76553243D01*
X151830422Y-76553242D01*
X151823790Y-76550881D01*
X151816802Y-76550048D01*
X151816799Y-76550047D01*
X151693698Y-76535368D01*
X151643680Y-76529404D01*
X151636677Y-76530140D01*
X151636676Y-76530140D01*
X151470288Y-76547628D01*
X151470286Y-76547629D01*
X151463288Y-76548364D01*
X151409664Y-76566619D01*
X151403322Y-76568778D01*
X151362717Y-76575500D01*
X151152691Y-76575500D01*
X151110424Y-76568199D01*
X151068424Y-76553243D01*
X151068422Y-76553242D01*
X151061790Y-76550881D01*
X151054802Y-76550048D01*
X151054799Y-76550047D01*
X150931698Y-76535368D01*
X150881680Y-76529404D01*
X150874677Y-76530140D01*
X150874676Y-76530140D01*
X150708288Y-76547628D01*
X150708286Y-76547629D01*
X150701288Y-76548364D01*
X150647664Y-76566619D01*
X150641322Y-76568778D01*
X150600717Y-76575500D01*
X150390691Y-76575500D01*
X150348424Y-76568199D01*
X150306424Y-76553243D01*
X150306422Y-76553242D01*
X150299790Y-76550881D01*
X150292802Y-76550048D01*
X150292799Y-76550047D01*
X150169698Y-76535368D01*
X150119680Y-76529404D01*
X150112677Y-76530140D01*
X150112676Y-76530140D01*
X149946288Y-76547628D01*
X149946286Y-76547629D01*
X149939288Y-76548364D01*
X149873077Y-76570904D01*
X149845940Y-76576904D01*
X149753215Y-76586872D01*
X149753208Y-76586873D01*
X149749851Y-76587234D01*
X149746551Y-76587952D01*
X149746550Y-76587952D01*
X149700790Y-76597906D01*
X149700785Y-76597907D01*
X149697509Y-76598620D01*
X149593343Y-76633290D01*
X149470388Y-76712308D01*
X149466993Y-76715250D01*
X149466990Y-76715252D01*
X149430245Y-76747092D01*
X149365664Y-76776585D01*
X149295391Y-76766481D01*
X149258327Y-76740651D01*
X149231777Y-76713915D01*
X149226815Y-76708918D01*
X149217270Y-76702860D01*
X149114355Y-76637549D01*
X149073666Y-76611727D01*
X149006898Y-76587952D01*
X148909425Y-76553243D01*
X148909420Y-76553242D01*
X148902790Y-76550881D01*
X148895802Y-76550048D01*
X148895799Y-76550047D01*
X148772698Y-76535368D01*
X148722680Y-76529404D01*
X148715677Y-76530140D01*
X148715676Y-76530140D01*
X148549288Y-76547628D01*
X148549286Y-76547629D01*
X148542288Y-76548364D01*
X148374947Y-76605331D01*
X148304016Y-76608349D01*
X148292088Y-76604756D01*
X148166540Y-76560050D01*
X148147424Y-76553243D01*
X148147422Y-76553243D01*
X148140790Y-76550881D01*
X148133802Y-76550048D01*
X148133799Y-76550047D01*
X148010698Y-76535368D01*
X147960680Y-76529404D01*
X147953677Y-76530140D01*
X147953676Y-76530140D01*
X147787288Y-76547628D01*
X147787286Y-76547629D01*
X147780288Y-76548364D01*
X147608579Y-76606818D01*
X147607846Y-76604666D01*
X147548360Y-76613903D01*
X147522620Y-76607691D01*
X147388829Y-76560050D01*
X147388824Y-76560049D01*
X147382194Y-76557688D01*
X147375206Y-76556855D01*
X147375203Y-76556854D01*
X147252102Y-76542175D01*
X147202084Y-76536211D01*
X147195081Y-76536947D01*
X147195080Y-76536947D01*
X147028692Y-76554435D01*
X147028690Y-76554436D01*
X147021692Y-76555171D01*
X146927507Y-76587234D01*
X146862385Y-76609403D01*
X146791453Y-76612421D01*
X146779513Y-76608824D01*
X146776332Y-76607691D01*
X146720898Y-76587952D01*
X146623425Y-76553243D01*
X146623420Y-76553242D01*
X146616790Y-76550881D01*
X146609802Y-76550048D01*
X146609799Y-76550047D01*
X146486698Y-76535368D01*
X146436680Y-76529404D01*
X146429677Y-76530140D01*
X146429676Y-76530140D01*
X146263288Y-76547628D01*
X146263286Y-76547629D01*
X146256288Y-76548364D01*
X146084579Y-76606818D01*
X146083846Y-76604666D01*
X146024360Y-76613903D01*
X145998620Y-76607691D01*
X145864829Y-76560050D01*
X145864824Y-76560049D01*
X145858194Y-76557688D01*
X145851206Y-76556855D01*
X145851203Y-76556854D01*
X145728102Y-76542175D01*
X145678084Y-76536211D01*
X145671081Y-76536947D01*
X145671080Y-76536947D01*
X145504692Y-76554435D01*
X145504690Y-76554436D01*
X145497692Y-76555171D01*
X145330351Y-76612138D01*
X145259420Y-76615156D01*
X145247492Y-76611563D01*
X145129557Y-76569568D01*
X145102828Y-76560050D01*
X145102826Y-76560050D01*
X145096194Y-76557688D01*
X145089206Y-76556855D01*
X145089203Y-76556854D01*
X144966102Y-76542175D01*
X144916084Y-76536211D01*
X144909081Y-76536947D01*
X144909080Y-76536947D01*
X144742692Y-76554435D01*
X144742690Y-76554436D01*
X144735692Y-76555171D01*
X144563983Y-76613625D01*
X144533860Y-76632157D01*
X144415499Y-76704973D01*
X144415496Y-76704975D01*
X144409492Y-76708669D01*
X144404457Y-76713600D01*
X144404454Y-76713602D01*
X144376833Y-76740651D01*
X144315949Y-76800274D01*
X144300524Y-76815379D01*
X144237859Y-76848750D01*
X144167100Y-76842944D01*
X144129854Y-76820581D01*
X144117550Y-76809920D01*
X144110739Y-76804018D01*
X143977790Y-76743302D01*
X143954036Y-76736327D01*
X143913992Y-76724569D01*
X143913988Y-76724568D01*
X143909669Y-76723300D01*
X143905220Y-76722660D01*
X143905214Y-76722659D01*
X143769447Y-76703139D01*
X143769442Y-76703139D01*
X143765000Y-76702500D01*
X141731000Y-76702500D01*
X141727654Y-76702860D01*
X141727649Y-76702860D01*
X141625215Y-76713872D01*
X141625208Y-76713873D01*
X141621851Y-76714234D01*
X141618551Y-76714952D01*
X141618550Y-76714952D01*
X141572790Y-76724906D01*
X141572785Y-76724907D01*
X141569509Y-76725620D01*
X141465343Y-76760290D01*
X141342388Y-76839308D01*
X141338993Y-76842250D01*
X141338990Y-76842252D01*
X141337437Y-76843598D01*
X141288732Y-76885801D01*
X141285792Y-76889194D01*
X141198919Y-76989450D01*
X141198917Y-76989453D01*
X141193018Y-76996261D01*
X141132302Y-77129210D01*
X141112300Y-77197331D01*
X141111660Y-77201780D01*
X141111659Y-77201786D01*
X141092139Y-77337553D01*
X141091500Y-77342000D01*
X141091500Y-79229500D01*
X141071498Y-79297621D01*
X141017842Y-79344114D01*
X140965500Y-79355500D01*
X140764600Y-79355500D01*
X140761354Y-79355837D01*
X140761350Y-79355837D01*
X140665692Y-79365762D01*
X140665688Y-79365763D01*
X140658834Y-79366474D01*
X140652298Y-79368655D01*
X140652296Y-79368655D01*
X140616658Y-79380545D01*
X140491054Y-79422450D01*
X140340652Y-79515522D01*
X140215695Y-79640697D01*
X140211855Y-79646927D01*
X140211854Y-79646928D01*
X140138234Y-79766362D01*
X140122885Y-79791262D01*
X140067203Y-79959139D01*
X140066503Y-79965975D01*
X140066502Y-79965978D01*
X140062571Y-80004346D01*
X140056500Y-80063600D01*
X140056500Y-80889400D01*
X137078712Y-80889400D01*
X137734813Y-80004346D01*
X137737357Y-80001031D01*
X138295873Y-79297621D01*
X138445972Y-79108583D01*
X138448620Y-79105360D01*
X138644149Y-78875208D01*
X138807717Y-78682675D01*
X139186425Y-78236907D01*
X139189183Y-78233768D01*
X139650635Y-77725749D01*
X139955379Y-77390252D01*
X139958228Y-77387218D01*
X139979101Y-77365717D01*
X140751971Y-76569568D01*
X140754930Y-76566619D01*
X141575346Y-75775736D01*
X141578402Y-75772886D01*
X142424594Y-75009632D01*
X142427742Y-75006886D01*
X142659524Y-74811362D01*
X143159562Y-74389544D01*
X143298761Y-74272120D01*
X143301999Y-74269479D01*
X144196914Y-73563985D01*
X144200238Y-73561453D01*
X145118037Y-72886029D01*
X145121442Y-72883609D01*
X146061156Y-72238968D01*
X146064640Y-72236662D01*
X146095624Y-72216885D01*
X147025218Y-71623527D01*
X147028677Y-71621399D01*
X148009115Y-71040414D01*
X148012695Y-71038372D01*
X148183655Y-70944580D01*
X149011823Y-70490232D01*
X149015491Y-70488298D01*
X150032221Y-69973597D01*
X150035924Y-69971800D01*
X151017684Y-69515040D01*
X151087885Y-69504440D01*
X151152672Y-69533476D01*
X151191476Y-69592930D01*
X151191978Y-69663925D01*
X151173157Y-69702807D01*
X151024944Y-69909068D01*
X150896799Y-70151093D01*
X150895327Y-70155116D01*
X150895325Y-70155120D01*
X150824333Y-70349113D01*
X150802685Y-70408269D01*
X150744346Y-70675839D01*
X150722859Y-70948850D01*
X150738624Y-71222252D01*
X150739449Y-71226457D01*
X150739450Y-71226465D01*
X150768016Y-71372064D01*
X150791347Y-71490985D01*
X150792734Y-71495035D01*
X150792735Y-71495040D01*
X150872812Y-71728924D01*
X150880054Y-71750076D01*
X150930242Y-71849865D01*
X151001161Y-71990871D01*
X151003102Y-71994731D01*
X151005528Y-71998260D01*
X151005531Y-71998266D01*
X151121532Y-72167047D01*
X151158216Y-72220422D01*
X151342524Y-72422975D01*
X151345819Y-72425730D01*
X151345820Y-72425731D01*
X151418496Y-72486497D01*
X151552617Y-72598639D01*
X151556258Y-72600923D01*
X151780966Y-72741883D01*
X151780970Y-72741885D01*
X151784606Y-72744166D01*
X151852486Y-72774815D01*
X152030287Y-72855096D01*
X152030291Y-72855098D01*
X152034199Y-72856862D01*
X152038319Y-72858082D01*
X152038318Y-72858082D01*
X152292665Y-72933423D01*
X152292669Y-72933424D01*
X152296778Y-72934641D01*
X152301012Y-72935289D01*
X152301017Y-72935290D01*
X152563240Y-72975415D01*
X152563242Y-72975415D01*
X152567482Y-72976064D01*
X152706854Y-72978254D01*
X152837013Y-72980299D01*
X152837019Y-72980299D01*
X152841304Y-72980366D01*
X153113177Y-72947466D01*
X153378069Y-72877973D01*
X153382029Y-72876333D01*
X153382034Y-72876331D01*
X153504574Y-72825573D01*
X153631078Y-72773173D01*
X153788546Y-72681156D01*
X153863821Y-72637169D01*
X153863822Y-72637168D01*
X153867524Y-72635005D01*
X154083031Y-72466026D01*
X154098714Y-72449843D01*
X154270628Y-72272441D01*
X154273611Y-72269363D01*
X154276144Y-72265915D01*
X154276148Y-72265910D01*
X154433199Y-72052110D01*
X154435737Y-72048655D01*
X154447366Y-72027237D01*
X154562670Y-71814875D01*
X154612753Y-71764553D01*
X154682091Y-71749297D01*
X154748670Y-71773950D01*
X154766594Y-71790197D01*
X154789351Y-71815207D01*
X154792646Y-71817962D01*
X154792647Y-71817963D01*
X154830802Y-71849865D01*
X154999444Y-71990871D01*
X155003085Y-71993155D01*
X155227793Y-72134115D01*
X155227797Y-72134117D01*
X155231433Y-72136398D01*
X155299313Y-72167047D01*
X155477114Y-72247328D01*
X155477118Y-72247330D01*
X155481026Y-72249094D01*
X155485146Y-72250314D01*
X155485145Y-72250314D01*
X155739492Y-72325655D01*
X155739496Y-72325656D01*
X155743605Y-72326873D01*
X155747839Y-72327521D01*
X155747844Y-72327522D01*
X156010067Y-72367647D01*
X156010069Y-72367647D01*
X156014309Y-72368296D01*
X156153681Y-72370486D01*
X156283840Y-72372531D01*
X156283846Y-72372531D01*
X156288131Y-72372598D01*
X156560004Y-72339698D01*
X156824896Y-72270205D01*
X156828856Y-72268565D01*
X156828861Y-72268563D01*
X156953622Y-72216885D01*
X157077905Y-72165405D01*
X157314351Y-72027237D01*
X157529858Y-71858258D01*
X157532950Y-71855068D01*
X157694999Y-71687846D01*
X157720438Y-71661595D01*
X157722975Y-71658141D01*
X157725748Y-71654860D01*
X157727261Y-71656138D01*
X157777352Y-71617983D01*
X157848122Y-71612327D01*
X157910717Y-71645830D01*
X157936695Y-71683733D01*
X157937890Y-71687846D01*
X158011927Y-71813284D01*
X158018471Y-71819418D01*
X158018473Y-71819421D01*
X158056500Y-71855068D01*
X158118194Y-71912901D01*
X158126200Y-71916954D01*
X158126203Y-71916956D01*
X158225379Y-71967162D01*
X158248148Y-71978688D01*
X158391344Y-72005357D01*
X158399221Y-72004834D01*
X158399223Y-72004834D01*
X158445909Y-72001733D01*
X158453754Y-72001212D01*
X158457110Y-72000620D01*
X158457112Y-72000620D01*
X158467615Y-71998768D01*
X165318043Y-71998768D01*
X165318431Y-72003698D01*
X165318431Y-72003701D01*
X165320454Y-72029401D01*
X165336673Y-72235479D01*
X165337827Y-72240286D01*
X165337828Y-72240292D01*
X165358322Y-72325655D01*
X165392102Y-72466361D01*
X165393995Y-72470932D01*
X165393996Y-72470934D01*
X165460860Y-72632356D01*
X165482968Y-72685730D01*
X165607031Y-72888183D01*
X165761238Y-73068736D01*
X165941791Y-73222943D01*
X166144244Y-73347006D01*
X166148814Y-73348899D01*
X166148818Y-73348901D01*
X166359040Y-73435978D01*
X166363613Y-73437872D01*
X166442270Y-73456756D01*
X166589682Y-73492146D01*
X166589688Y-73492147D01*
X166594495Y-73493301D01*
X166831206Y-73511931D01*
X167067917Y-73493301D01*
X167072724Y-73492147D01*
X167072730Y-73492146D01*
X167220142Y-73456756D01*
X167298799Y-73437872D01*
X167303372Y-73435978D01*
X167513594Y-73348901D01*
X167513598Y-73348899D01*
X167518168Y-73347006D01*
X167720621Y-73222943D01*
X167901174Y-73068736D01*
X168055381Y-72888183D01*
X168179444Y-72685730D01*
X168201553Y-72632356D01*
X168268416Y-72470934D01*
X168268417Y-72470932D01*
X168270310Y-72466361D01*
X168304090Y-72325655D01*
X168324584Y-72240292D01*
X168324585Y-72240286D01*
X168325739Y-72235479D01*
X168344369Y-71998768D01*
X168325739Y-71762057D01*
X168323783Y-71753907D01*
X168271465Y-71535987D01*
X168270310Y-71531175D01*
X168262292Y-71511817D01*
X168181339Y-71316380D01*
X168181337Y-71316376D01*
X168179444Y-71311806D01*
X168055381Y-71109353D01*
X167901174Y-70928800D01*
X167720621Y-70774593D01*
X167518168Y-70650530D01*
X167513598Y-70648637D01*
X167513594Y-70648635D01*
X167303372Y-70561558D01*
X167303370Y-70561557D01*
X167298799Y-70559664D01*
X167220142Y-70540780D01*
X167072730Y-70505390D01*
X167072724Y-70505389D01*
X167067917Y-70504235D01*
X166831206Y-70485605D01*
X166594495Y-70504235D01*
X166589688Y-70505389D01*
X166589682Y-70505390D01*
X166442270Y-70540780D01*
X166363613Y-70559664D01*
X166359042Y-70561557D01*
X166359040Y-70561558D01*
X166148818Y-70648635D01*
X166148814Y-70648637D01*
X166144244Y-70650530D01*
X165941791Y-70774593D01*
X165761238Y-70928800D01*
X165607031Y-71109353D01*
X165482968Y-71311806D01*
X165481075Y-71316376D01*
X165481073Y-71316380D01*
X165400120Y-71511817D01*
X165392102Y-71531175D01*
X165390947Y-71535987D01*
X165338630Y-71753907D01*
X165336673Y-71762057D01*
X165318516Y-71992763D01*
X165318043Y-71998768D01*
X158467615Y-71998768D01*
X159997977Y-71728924D01*
X161502983Y-71463551D01*
X161527109Y-71456542D01*
X161555459Y-71448306D01*
X161555463Y-71448304D01*
X161563047Y-71446101D01*
X161569849Y-71442086D01*
X161569852Y-71442085D01*
X161680757Y-71376625D01*
X161688485Y-71372064D01*
X161694619Y-71365520D01*
X161694622Y-71365518D01*
X161781962Y-71272347D01*
X161788102Y-71265797D01*
X161792155Y-71257791D01*
X161792157Y-71257788D01*
X161849835Y-71143851D01*
X161853889Y-71135843D01*
X161880558Y-70992647D01*
X161877934Y-70953130D01*
X161876639Y-70933641D01*
X161876413Y-70930237D01*
X161798013Y-70485605D01*
X161531246Y-68972699D01*
X161338752Y-67881008D01*
X161331743Y-67856882D01*
X161323507Y-67828532D01*
X161323505Y-67828528D01*
X161321302Y-67820944D01*
X161317287Y-67814142D01*
X161317286Y-67814139D01*
X161251826Y-67703234D01*
X161247265Y-67695506D01*
X161240721Y-67689372D01*
X161240719Y-67689369D01*
X161147548Y-67602029D01*
X161140998Y-67595889D01*
X161132992Y-67591836D01*
X161132989Y-67591834D01*
X161019052Y-67534156D01*
X161019053Y-67534156D01*
X161011044Y-67530102D01*
X160867848Y-67503433D01*
X160859971Y-67503956D01*
X160859969Y-67503956D01*
X160819805Y-67506624D01*
X160805438Y-67507578D01*
X160802082Y-67508170D01*
X160802080Y-67508170D01*
X159695817Y-67703234D01*
X157756209Y-68045239D01*
X157732083Y-68052248D01*
X157703733Y-68060484D01*
X157703729Y-68060486D01*
X157696145Y-68062689D01*
X157689343Y-68066704D01*
X157689340Y-68066705D01*
X157640500Y-68095532D01*
X157570707Y-68136726D01*
X157564573Y-68143270D01*
X157564570Y-68143272D01*
X157477230Y-68236443D01*
X157471090Y-68242993D01*
X157467037Y-68250999D01*
X157467035Y-68251002D01*
X157416829Y-68350178D01*
X157405303Y-68372947D01*
X157378634Y-68516143D01*
X157379076Y-68522791D01*
X157355282Y-68589102D01*
X157298982Y-68632355D01*
X157228235Y-68638303D01*
X157187645Y-68622291D01*
X157119142Y-68580313D01*
X157119138Y-68580311D01*
X157115473Y-68578065D01*
X157111537Y-68576337D01*
X156868642Y-68469713D01*
X156868638Y-68469712D01*
X156864714Y-68467989D01*
X156601335Y-68392964D01*
X156597093Y-68392360D01*
X156597087Y-68392359D01*
X156396603Y-68363826D01*
X156330212Y-68354377D01*
X156186358Y-68353624D01*
X156060646Y-68352966D01*
X156060640Y-68352966D01*
X156056360Y-68352944D01*
X156052116Y-68353503D01*
X156052112Y-68353503D01*
X155933071Y-68369175D01*
X155784847Y-68388689D01*
X155780707Y-68389822D01*
X155780705Y-68389822D01*
X155707777Y-68409773D01*
X155520697Y-68460952D01*
X155516749Y-68462636D01*
X155272751Y-68566710D01*
X155272747Y-68566712D01*
X155268799Y-68568396D01*
X155167468Y-68629041D01*
X155037494Y-68706828D01*
X155037490Y-68706831D01*
X155033812Y-68709032D01*
X154820087Y-68880258D01*
X154631577Y-69078906D01*
X154471771Y-69301300D01*
X154469767Y-69305085D01*
X154357078Y-69517918D01*
X154307525Y-69568761D01*
X154238350Y-69584743D01*
X154171517Y-69560789D01*
X154153427Y-69544733D01*
X154114067Y-69502377D01*
X154110752Y-69499663D01*
X154110748Y-69499660D01*
X153905465Y-69331638D01*
X153902147Y-69328922D01*
X153668646Y-69185833D01*
X153646620Y-69176164D01*
X153421815Y-69077481D01*
X153421811Y-69077480D01*
X153417887Y-69075757D01*
X153154508Y-69000732D01*
X153150266Y-69000128D01*
X153150260Y-69000127D01*
X152957543Y-68972699D01*
X152892920Y-68943298D01*
X152854452Y-68883626D01*
X152854350Y-68812630D01*
X152892649Y-68752849D01*
X152929835Y-68730443D01*
X152985180Y-68709032D01*
X153188219Y-68630482D01*
X153192137Y-68629041D01*
X153306505Y-68589102D01*
X154267974Y-68253342D01*
X154271903Y-68252042D01*
X155359638Y-67912209D01*
X155363601Y-67911043D01*
X156233430Y-67670635D01*
X156462007Y-67607460D01*
X156466052Y-67606414D01*
X157573896Y-67339421D01*
X157577974Y-67338510D01*
X158694024Y-67108403D01*
X158698129Y-67107627D01*
X159821236Y-66914642D01*
X159825365Y-66914003D01*
X160954229Y-66758364D01*
X160958377Y-66757862D01*
X161809367Y-66669170D01*
X162091803Y-66639734D01*
X162095946Y-66639372D01*
X162490026Y-66611469D01*
X163232655Y-66558888D01*
X163236827Y-66558662D01*
X164375562Y-66515912D01*
X164379739Y-66515824D01*
X164708509Y-66514389D01*
X165519300Y-66510851D01*
X165523463Y-66510902D01*
G37*
%TD.AperFunction*%
%TA.AperFunction,Conductor*%
G36*
X158091332Y-103207685D02*
G01*
X158148168Y-103250232D01*
X158172979Y-103316752D01*
X158173300Y-103325741D01*
X158173300Y-106392917D01*
X158172222Y-106409364D01*
X158168145Y-106440331D01*
X158173300Y-106479486D01*
X158188677Y-106596284D01*
X158248872Y-106741608D01*
X158344629Y-106866402D01*
X158351182Y-106871430D01*
X158369415Y-106885421D01*
X158381806Y-106896288D01*
X158877695Y-107392177D01*
X158911721Y-107454489D01*
X158914600Y-107481272D01*
X158914600Y-111718598D01*
X158894598Y-111786719D01*
X158840942Y-111833212D01*
X158801770Y-111843908D01*
X158709289Y-111853628D01*
X158709288Y-111853628D01*
X158702288Y-111854364D01*
X158530579Y-111912818D01*
X158524575Y-111916512D01*
X158382095Y-112004166D01*
X158382092Y-112004168D01*
X158376088Y-112007862D01*
X158371055Y-112012791D01*
X158371050Y-112012795D01*
X158327120Y-112055815D01*
X158246493Y-112134771D01*
X158148235Y-112287238D01*
X158145826Y-112293858D01*
X158145824Y-112293861D01*
X158099600Y-112420861D01*
X158086197Y-112457685D01*
X158063463Y-112637640D01*
X158081163Y-112818160D01*
X158138418Y-112990273D01*
X158142065Y-112996295D01*
X158142066Y-112996297D01*
X158204067Y-113098673D01*
X158232380Y-113145424D01*
X158358382Y-113275902D01*
X158510159Y-113375222D01*
X158516763Y-113377678D01*
X158516765Y-113377679D01*
X158673558Y-113435990D01*
X158673560Y-113435990D01*
X158680168Y-113438448D01*
X158755593Y-113448512D01*
X158805265Y-113455140D01*
X158870142Y-113483976D01*
X158909130Y-113543309D01*
X158914600Y-113580033D01*
X158914600Y-123734554D01*
X158894598Y-123802675D01*
X158886421Y-123813945D01*
X158881493Y-123818771D01*
X158820564Y-123913315D01*
X158766852Y-123959737D01*
X158696566Y-123969752D01*
X158672391Y-123963757D01*
X158605927Y-123940090D01*
X158561424Y-123924243D01*
X158561422Y-123924243D01*
X158554790Y-123921881D01*
X158547802Y-123921048D01*
X158547799Y-123921047D01*
X158424698Y-123906368D01*
X158374680Y-123900404D01*
X158367677Y-123901140D01*
X158367676Y-123901140D01*
X158201288Y-123918628D01*
X158201286Y-123918629D01*
X158194288Y-123919364D01*
X158022579Y-123977818D01*
X158016575Y-123981512D01*
X157874090Y-124069169D01*
X157874087Y-124069171D01*
X157868088Y-124072862D01*
X157860164Y-124080622D01*
X157857861Y-124081848D01*
X157857502Y-124082129D01*
X157857453Y-124082066D01*
X157797500Y-124113994D01*
X157772005Y-124116600D01*
X157652641Y-124116600D01*
X157584520Y-124096598D01*
X157563546Y-124079695D01*
X157530105Y-124046254D01*
X157496079Y-123983942D01*
X157493200Y-123957159D01*
X157493200Y-103753841D01*
X157513202Y-103685720D01*
X157530105Y-103664746D01*
X157958205Y-103236646D01*
X158020517Y-103202620D01*
X158091332Y-103207685D01*
G37*
%TD.AperFunction*%
%TD*%
%TA.AperFunction,Conductor*%
%TO.N,/SL_B*%
G36*
X152088121Y-77109002D02*
G01*
X152134614Y-77162658D01*
X152146000Y-77215000D01*
X152146000Y-80519000D01*
X152125998Y-80587121D01*
X152072342Y-80633614D01*
X152020000Y-80645000D01*
X149859000Y-80645000D01*
X149790879Y-80624998D01*
X149744386Y-80571342D01*
X149733000Y-80519000D01*
X149733000Y-77215000D01*
X149753002Y-77146879D01*
X149806658Y-77100386D01*
X149859000Y-77089000D01*
X152020000Y-77089000D01*
X152088121Y-77109002D01*
G37*
%TD.AperFunction*%
%TD*%
%TA.AperFunction,Conductor*%
%TO.N,/SL_A*%
G36*
X143833121Y-77236002D02*
G01*
X143879614Y-77289658D01*
X143891000Y-77342000D01*
X143891000Y-80773000D01*
X143870998Y-80841121D01*
X143817342Y-80887614D01*
X143765000Y-80899000D01*
X141731000Y-80899000D01*
X141662879Y-80878998D01*
X141616386Y-80825342D01*
X141605000Y-80773000D01*
X141605000Y-77342000D01*
X141625002Y-77273879D01*
X141678658Y-77227386D01*
X141731000Y-77216000D01*
X143765000Y-77216000D01*
X143833121Y-77236002D01*
G37*
%TD.AperFunction*%
%TD*%
M02*
